%TF.GenerationSoftware,KiCad,Pcbnew,7.0.11+dfsg-1build4*%
%TF.CreationDate,2026-10-02T12:49:10+00:00*%
%TF.ProjectId,watchmen-shield-v2,77617463-686d-4656-9e2d-736869656c64,rev?*%
%TF.SameCoordinates,Original*%
%TF.FileFunction,Copper,L2,Bot*%
%TF.FilePolarity,Positive*%
%FSLAX46Y46*%
G04 Gerber Fmt 4.6, Leading zero omitted, Abs format (unit mm)*
G04 Created by KiCad (PCBNEW 7.0.11+dfsg-1build4) date 2026-10-02 12:49:10*
%MOMM*%
%LPD*%
G01*
G04 APERTURE LIST*
G04 Aperture macros list*
%AMRoundRect*
0 Rectangle with rounded corners*
0 $1 Rounding radius*
0 $2 $3 $4 $5 $6 $7 $8 $9 X,Y pos of 4 corners*
0 Add a 4 corners polygon primitive as box body*
4,1,4,$2,$3,$4,$5,$6,$7,$8,$9,$2,$3,0*
0 Add four circle primitives for the rounded corners*
1,1,$1+$1,$2,$3*
1,1,$1+$1,$4,$5*
1,1,$1+$1,$6,$7*
1,1,$1+$1,$8,$9*
0 Add four rect primitives between the rounded corners*
20,1,$1+$1,$2,$3,$4,$5,0*
20,1,$1+$1,$4,$5,$6,$7,0*
20,1,$1+$1,$6,$7,$8,$9,0*
20,1,$1+$1,$8,$9,$2,$3,0*%
G04 Aperture macros list end*
%TA.AperFunction,ComponentPad*%
%ADD10R,1.700000X1.700000*%
%TD*%
%TA.AperFunction,ComponentPad*%
%ADD11O,1.700000X1.700000*%
%TD*%
%TA.AperFunction,ComponentPad*%
%ADD12R,2.600000X2.600000*%
%TD*%
%TA.AperFunction,ComponentPad*%
%ADD13C,2.600000*%
%TD*%
%TA.AperFunction,ComponentPad*%
%ADD14RoundRect,0.250000X-0.725000X0.600000X-0.725000X-0.600000X0.725000X-0.600000X0.725000X0.600000X0*%
%TD*%
%TA.AperFunction,ComponentPad*%
%ADD15O,1.950000X1.700000*%
%TD*%
%TA.AperFunction,ComponentPad*%
%ADD16R,1.600000X1.600000*%
%TD*%
%TA.AperFunction,ComponentPad*%
%ADD17C,1.600000*%
%TD*%
%TA.AperFunction,ViaPad*%
%ADD18C,0.600000*%
%TD*%
%TA.AperFunction,ViaPad*%
%ADD19C,0.800000*%
%TD*%
%TA.AperFunction,Conductor*%
%ADD20C,0.250000*%
%TD*%
%TA.AperFunction,Conductor*%
%ADD21C,0.300000*%
%TD*%
%TA.AperFunction,Conductor*%
%ADD22C,0.700000*%
%TD*%
G04 APERTURE END LIST*
D10*
%TO.P,J12,1*%
%TO.N,+5V*%
X83360000Y-86600000D03*
D11*
%TO.P,J12,2*%
%TO.N,/LED_DIN*%
X85900000Y-86600000D03*
%TO.P,J12,3*%
%TO.N,GND*%
X88440000Y-86600000D03*
%TD*%
D12*
%TO.P,J5,1*%
%TO.N,/VMOT_IN*%
X64400000Y-80000000D03*
D13*
%TO.P,J5,2*%
%TO.N,GND*%
X64400000Y-74920000D03*
%TD*%
D10*
%TO.P,J11,1*%
%TO.N,+3V3*%
X86400000Y-46600000D03*
D11*
%TO.P,J11,2*%
%TO.N,GND*%
X88940000Y-46600000D03*
%TO.P,J11,3*%
%TO.N,/SCL*%
X91480000Y-46600000D03*
%TO.P,J11,4*%
%TO.N,/SDA*%
X94020000Y-46600000D03*
%TO.P,J11,5*%
%TO.N,N/C*%
X96560000Y-46600000D03*
%TO.P,J11,6*%
X99100000Y-46600000D03*
%TO.P,J11,7*%
%TO.N,GND*%
X101640000Y-46600000D03*
%TO.P,J11,8*%
%TO.N,/D3_INT*%
X104180000Y-46600000D03*
%TD*%
D14*
%TO.P,J6,1*%
%TO.N,/STEP_4*%
X63400000Y-48200000D03*
D15*
%TO.P,J6,2*%
%TO.N,/STEP_3*%
X63400000Y-50700000D03*
%TO.P,J6,3*%
%TO.N,/STEP_2*%
X63400000Y-53200000D03*
%TO.P,J6,4*%
%TO.N,/STEP_1*%
X63400000Y-55700000D03*
%TO.P,J6,5*%
%TO.N,/VMOT*%
X63400000Y-58200000D03*
%TD*%
D10*
%TO.P,J1,1*%
%TO.N,N/C*%
X87940000Y-90800000D03*
D11*
%TO.P,J1,2*%
X90480000Y-90800000D03*
%TO.P,J1,3*%
X93020000Y-90800000D03*
%TO.P,J1,4*%
%TO.N,+3V3*%
X95560000Y-90800000D03*
%TO.P,J1,5*%
%TO.N,+5V*%
X98100000Y-90800000D03*
%TO.P,J1,6*%
%TO.N,GND*%
X100640000Y-90800000D03*
%TO.P,J1,7*%
X103180000Y-90800000D03*
%TO.P,J1,8*%
%TO.N,N/C*%
X105720000Y-90800000D03*
%TD*%
D10*
%TO.P,J7,1*%
%TO.N,/SERVO1_SIG*%
X94360000Y-86600000D03*
D11*
%TO.P,J7,2*%
%TO.N,/VMOT*%
X96900000Y-86600000D03*
%TO.P,J7,3*%
%TO.N,GND*%
X99440000Y-86600000D03*
%TD*%
D10*
%TO.P,J2,1*%
%TO.N,/A0_SENSE*%
X110800000Y-90800000D03*
D11*
%TO.P,J2,2*%
%TO.N,/A1_SERVO1*%
X113340000Y-90800000D03*
%TO.P,J2,3*%
%TO.N,/A2_SERVO2*%
X115880000Y-90800000D03*
%TO.P,J2,4*%
%TO.N,N/C*%
X118420000Y-90800000D03*
%TO.P,J2,5*%
X120960000Y-90800000D03*
%TO.P,J2,6*%
X123500000Y-90800000D03*
%TD*%
D10*
%TO.P,J8,1*%
%TO.N,/SERVO2_SIG*%
X105360000Y-86600000D03*
D11*
%TO.P,J8,2*%
%TO.N,/VMOT*%
X107900000Y-86600000D03*
%TO.P,J8,3*%
%TO.N,GND*%
X110440000Y-86600000D03*
%TD*%
D10*
%TO.P,J4,1*%
%TO.N,/D8_IN3*%
X101660000Y-42540000D03*
D11*
%TO.P,J4,2*%
%TO.N,/D9_IN4*%
X99120000Y-42540000D03*
%TO.P,J4,3*%
%TO.N,N/C*%
X96580000Y-42540000D03*
%TO.P,J4,4*%
%TO.N,/D11_MOSI*%
X94040000Y-42540000D03*
%TO.P,J4,5*%
%TO.N,N/C*%
X91500000Y-42540000D03*
%TO.P,J4,6*%
X88960000Y-42540000D03*
%TO.P,J4,7*%
%TO.N,GND*%
X86420000Y-42540000D03*
%TO.P,J4,8*%
%TO.N,N/C*%
X83880000Y-42540000D03*
%TO.P,J4,9*%
%TO.N,/SDA*%
X81340000Y-42540000D03*
%TO.P,J4,10*%
%TO.N,/SCL*%
X78800000Y-42540000D03*
%TD*%
D10*
%TO.P,J9,1*%
%TO.N,/SW_IN*%
X125000000Y-63600000D03*
D11*
%TO.P,J9,2*%
%TO.N,GND*%
X125000000Y-66140000D03*
%TD*%
D10*
%TO.P,J10,1*%
%TO.N,+5V*%
X111800000Y-46600000D03*
D11*
%TO.P,J10,2*%
%TO.N,GND*%
X114340000Y-46600000D03*
%TO.P,J10,3*%
%TO.N,/RADAR_TX*%
X116880000Y-46600000D03*
%TO.P,J10,4*%
%TO.N,/RADAR_RX*%
X119420000Y-46600000D03*
%TD*%
D10*
%TO.P,J3,1*%
%TO.N,/D0_RX*%
X123500000Y-42540000D03*
D11*
%TO.P,J3,2*%
%TO.N,/D1_TX*%
X120960000Y-42540000D03*
%TO.P,J3,3*%
%TO.N,/D2_SW*%
X118420000Y-42540000D03*
%TO.P,J3,4*%
%TO.N,/D3_INT*%
X115880000Y-42540000D03*
%TO.P,J3,5*%
%TO.N,/D4_IN1*%
X113340000Y-42540000D03*
%TO.P,J3,6*%
%TO.N,N/C*%
X110800000Y-42540000D03*
%TO.P,J3,7*%
X108260000Y-42540000D03*
%TO.P,J3,8*%
%TO.N,/D7_IN2*%
X105720000Y-42540000D03*
%TD*%
D10*
%TO.P,JP1,1*%
%TO.N,/SENSE_DIV*%
X115500000Y-86600000D03*
D11*
%TO.P,JP1,2*%
%TO.N,/SENSE_SEL*%
X118040000Y-86600000D03*
%TO.P,JP1,3*%
%TO.N,+3V3*%
X120580000Y-86600000D03*
%TD*%
D16*
%TO.P,C1,1*%
%TO.N,/VMOT*%
X65000000Y-87600000D03*
D17*
%TO.P,C1,2*%
%TO.N,GND*%
X68500000Y-87600000D03*
%TD*%
D18*
%TO.N,+3V3*%
X107000000Y-48556200D03*
%TO.N,+5V*%
X82158100Y-82850000D03*
%TO.N,/A0_SENSE*%
X124418300Y-77831700D03*
%TO.N,/D0_RX*%
X116800100Y-48700000D03*
%TO.N,/D11_MOSI*%
X79123800Y-83800000D03*
%TO.N,/D1_TX*%
X118224300Y-48385000D03*
%TO.N,/D2_SW*%
X115695400Y-68572600D03*
%TO.N,/SENSE_SEL*%
X118040100Y-75112500D03*
%TO.N,/STEP_3*%
X68487200Y-54815700D03*
%TO.N,/STEP_4*%
X68445400Y-53667900D03*
%TO.N,/SW_IN*%
X124262500Y-71312500D03*
D19*
%TO.N,/VMOT*%
X75062500Y-67667100D03*
X69013900Y-48043900D03*
%TO.N,/VMOT_IN*%
X69922700Y-64087500D03*
D18*
%TO.N,GND*%
X73850000Y-46400000D03*
X94500000Y-77500000D03*
X100500000Y-53500000D03*
X61500000Y-71500000D03*
X111217310Y-44731559D03*
X64500000Y-68500000D03*
X121500000Y-59500000D03*
X94500000Y-80500000D03*
X106500000Y-74500000D03*
X61500000Y-74500000D03*
X82500000Y-71500000D03*
X61500000Y-59500000D03*
X103500000Y-77500000D03*
X76500000Y-47500000D03*
X103500000Y-80500000D03*
X100500000Y-68500000D03*
X109500000Y-62500000D03*
X61500000Y-89500000D03*
X109500000Y-68500000D03*
X82500000Y-65500000D03*
X115500000Y-77500000D03*
X115500000Y-74500000D03*
X76500000Y-89500000D03*
X67500000Y-59500000D03*
X109500000Y-53500000D03*
X103500000Y-71500000D03*
X91500000Y-65500000D03*
X73500000Y-74500000D03*
X103500000Y-59500000D03*
X97500000Y-65500000D03*
X100500000Y-50500000D03*
X67500000Y-71500000D03*
X103500000Y-68500000D03*
X73500000Y-71500000D03*
X91500000Y-62500000D03*
X72527098Y-63694628D03*
X85500000Y-65500000D03*
X61500000Y-65500000D03*
X121500000Y-62500000D03*
X100500000Y-80500000D03*
X109500000Y-56500000D03*
X97500000Y-83500000D03*
X109500000Y-59500000D03*
X75118997Y-81506497D03*
X94500000Y-59500000D03*
X70500000Y-89500000D03*
X100500000Y-71500000D03*
X88500000Y-68500000D03*
X91500000Y-71500000D03*
X118500000Y-53500000D03*
X61500000Y-77500000D03*
X67500000Y-47500000D03*
X103500000Y-62500000D03*
X100500000Y-65500000D03*
X64500000Y-44500000D03*
X85500000Y-89500000D03*
X82100000Y-75737500D03*
X85500000Y-50500000D03*
X88500000Y-59500000D03*
X94500000Y-71500000D03*
X67500000Y-77500000D03*
X97500000Y-77500000D03*
X88500000Y-83500000D03*
X76852943Y-78702943D03*
X67500000Y-68500000D03*
X127717310Y-74205940D03*
X91500000Y-83500000D03*
X67500000Y-50500000D03*
X85500000Y-83500000D03*
X106500000Y-65500000D03*
X67500000Y-89500000D03*
X73500000Y-80500000D03*
X112500000Y-77500000D03*
X106500000Y-71500000D03*
X77036525Y-86135819D03*
X73500000Y-65500000D03*
X106500000Y-56500000D03*
X85500000Y-74500000D03*
X97500000Y-71500000D03*
X121500000Y-53500000D03*
X82500000Y-59500000D03*
X70500000Y-41500000D03*
X91500000Y-59500000D03*
X67500000Y-65500000D03*
X103500000Y-65500000D03*
X106500000Y-62500000D03*
X67500000Y-80500000D03*
X73500000Y-62500000D03*
X100500000Y-74500000D03*
X76500000Y-59500000D03*
X76500000Y-68500000D03*
X73500000Y-59500000D03*
X82500000Y-50500000D03*
X76500000Y-74500000D03*
X106500000Y-77500000D03*
X82500000Y-62500000D03*
X100795381Y-85660699D03*
X61500000Y-86500000D03*
X61500000Y-62500000D03*
X121500000Y-65500000D03*
X97500000Y-53500000D03*
X91500000Y-50500000D03*
X85500000Y-71500000D03*
X124500000Y-47500000D03*
X64500000Y-41500000D03*
X70500000Y-83500000D03*
X118500000Y-59500000D03*
X82500000Y-68500000D03*
X85500000Y-59500000D03*
X106500000Y-59500000D03*
X97500000Y-80500000D03*
X64500000Y-65500000D03*
X100500000Y-62500000D03*
X124772901Y-67694628D03*
X118500000Y-71500000D03*
X70500000Y-86500000D03*
X103500000Y-44500000D03*
X82500000Y-89500000D03*
X88500000Y-80500000D03*
X91500000Y-68500000D03*
X67500000Y-44500000D03*
X97500000Y-62500000D03*
X88500000Y-65500000D03*
X72672901Y-81932128D03*
X109500000Y-74500000D03*
X124500000Y-53500000D03*
X70500000Y-74500000D03*
X88500000Y-71500000D03*
X94500000Y-62500000D03*
X79500000Y-47500000D03*
X85500000Y-62500000D03*
X88500000Y-74500000D03*
X118500000Y-62500000D03*
X85500000Y-80500000D03*
X64500000Y-83500000D03*
X94500000Y-68500000D03*
X112500000Y-86500000D03*
X121500000Y-50500000D03*
X97500000Y-74500000D03*
X97500000Y-68500000D03*
X82500000Y-80500000D03*
X61500000Y-83500000D03*
X79500000Y-44500000D03*
X103500000Y-74500000D03*
X121500000Y-80500000D03*
X127717310Y-78005940D03*
X94500000Y-65500000D03*
X61500000Y-44500000D03*
X109500000Y-80500000D03*
X67500000Y-41500000D03*
X61500000Y-80500000D03*
X85500000Y-68500000D03*
X109500000Y-65500000D03*
X106500000Y-68500000D03*
X70500000Y-77500000D03*
X106500000Y-83500000D03*
X118500000Y-56500000D03*
X61500000Y-41500000D03*
X124500000Y-50500000D03*
X115500000Y-71500000D03*
X91500000Y-77500000D03*
X121500000Y-56500000D03*
X61500000Y-68500000D03*
X80427098Y-63132128D03*
X100500000Y-77500000D03*
X88500000Y-62500000D03*
X70500000Y-44500000D03*
X64500000Y-62500000D03*
X109500000Y-71500000D03*
X94500000Y-74500000D03*
X91500000Y-74500000D03*
X118500000Y-65500000D03*
X74300974Y-47569180D03*
X64500000Y-71500000D03*
X100500000Y-59500000D03*
X103500000Y-50500000D03*
X115500000Y-83500000D03*
%TD*%
D20*
%TO.N,+3V3*%
X86400000Y-47776900D02*
X95559900Y-56936800D01*
X95559900Y-56936800D02*
X95559900Y-59996200D01*
X95560000Y-90800000D02*
X95560000Y-59996200D01*
X95559900Y-59996200D02*
X95560000Y-59996200D01*
X86400000Y-46600000D02*
X86400000Y-47776900D01*
X95560000Y-59996200D02*
X107000000Y-48556200D01*
D21*
%TO.N,+5V*%
X82158100Y-86600000D02*
X82158100Y-82850000D01*
X98224500Y-89598100D02*
X98100000Y-89598100D01*
X83360000Y-86600000D02*
X82158100Y-86600000D01*
X98100000Y-90800000D02*
X98100000Y-89598100D01*
X111800000Y-76022600D02*
X98224500Y-89598100D01*
X111800000Y-46600000D02*
X111800000Y-76022600D01*
D20*
%TO.N,/A0_SENSE*%
X112785900Y-89623100D02*
X116681300Y-89623100D01*
X116681300Y-89623100D02*
X119216900Y-87087500D01*
X119216900Y-84783700D02*
X124418300Y-79582300D01*
X111976900Y-90800000D02*
X111976900Y-90432100D01*
X119216900Y-87087500D02*
X119216900Y-84783700D01*
X111976900Y-90432100D02*
X112785900Y-89623100D01*
X110800000Y-90800000D02*
X111976900Y-90800000D01*
X124418300Y-79582300D02*
X124418300Y-77831700D01*
%TO.N,/D0_RX*%
X118721400Y-49055500D02*
X117155600Y-49055500D01*
X117155600Y-49055500D02*
X116800100Y-48700000D01*
X123500000Y-42540000D02*
X123500000Y-44276900D01*
X123500000Y-44276900D02*
X118721400Y-49055500D01*
%TO.N,/D11_MOSI*%
X94040000Y-42540000D02*
X92863100Y-42540000D01*
X92863100Y-42907900D02*
X92054100Y-43716900D01*
X92863100Y-42540000D02*
X92863100Y-42907900D01*
X92054100Y-43716900D02*
X87095800Y-43716900D01*
X87095800Y-43716900D02*
X79123800Y-51688900D01*
X79123800Y-51688900D02*
X79123800Y-83800000D01*
%TO.N,/D1_TX*%
X120960000Y-42540000D02*
X120960000Y-43716900D01*
X118224300Y-46084800D02*
X118224300Y-48385000D01*
X120592200Y-43716900D02*
X118224300Y-46084800D01*
X120960000Y-43716900D02*
X120592200Y-43716900D01*
%TO.N,/D2_SW*%
X118420000Y-43716900D02*
X118054200Y-43716900D01*
X118054200Y-43716900D02*
X115695400Y-46075700D01*
X118420000Y-42540000D02*
X118420000Y-43716900D01*
X115695400Y-46075700D02*
X115695400Y-68572600D01*
%TO.N,/D3_INT*%
X115880000Y-42540000D02*
X114703100Y-42540000D01*
X104180000Y-46600000D02*
X105356900Y-46600000D01*
X113894100Y-43716900D02*
X108240000Y-43716900D01*
X108240000Y-43716900D02*
X105356900Y-46600000D01*
X114703100Y-42540000D02*
X114703100Y-42907900D01*
X114703100Y-42907900D02*
X113894100Y-43716900D01*
%TO.N,/SENSE_SEL*%
X118040000Y-85423100D02*
X118040100Y-85423100D01*
X118040000Y-86600000D02*
X118040000Y-85423100D01*
X118040100Y-85423100D02*
X118040100Y-75112500D01*
D21*
%TO.N,/STEP_3*%
X65573400Y-51901900D02*
X68487200Y-54815700D01*
X63400000Y-50700000D02*
X63400000Y-51901900D01*
X63400000Y-51901900D02*
X65573400Y-51901900D01*
%TO.N,/STEP_4*%
X63400000Y-48622500D02*
X63400000Y-48200000D01*
X68445400Y-53667900D02*
X63400000Y-48622500D01*
D20*
%TO.N,/SW_IN*%
X123809200Y-70859200D02*
X124262500Y-71312500D01*
X123809200Y-65599900D02*
X123809200Y-70859200D01*
X125000000Y-63600000D02*
X125000000Y-64776900D01*
X124632200Y-64776900D02*
X123809200Y-65599900D01*
X125000000Y-64776900D02*
X124632200Y-64776900D01*
D22*
%TO.N,/VMOT*%
X69013900Y-48043900D02*
X69373400Y-48403400D01*
X69373400Y-48403400D02*
X69373400Y-55161800D01*
X65000000Y-86248100D02*
X75062500Y-76185600D01*
X75062500Y-76185600D02*
X75062500Y-67667100D01*
X65000000Y-87600000D02*
X65000000Y-86248100D01*
X69373400Y-55161800D02*
X66335200Y-58200000D01*
X66335200Y-58200000D02*
X63400000Y-58200000D01*
%TO.N,/VMOT_IN*%
X69922700Y-72625400D02*
X69922700Y-64087500D01*
X64400000Y-80000000D02*
X64400000Y-78148100D01*
X64400000Y-78148100D02*
X69922700Y-72625400D01*
%TD*%
%TA.AperFunction,Conductor*%
%TO.N,GND*%
G36*
X102720507Y-90590156D02*
G01*
X102680000Y-90728111D01*
X102680000Y-90871889D01*
X102720507Y-91009844D01*
X102746314Y-91050000D01*
X101073686Y-91050000D01*
X101099493Y-91009844D01*
X101140000Y-90871889D01*
X101140000Y-90728111D01*
X101099493Y-90590156D01*
X101073686Y-90550000D01*
X102746314Y-90550000D01*
X102720507Y-90590156D01*
G37*
%TD.AperFunction*%
%TA.AperFunction,Conductor*%
G36*
X124411206Y-40320185D02*
G01*
X124431848Y-40336819D01*
X125703181Y-41608152D01*
X125736666Y-41669475D01*
X125739500Y-41695833D01*
X125739500Y-52882860D01*
X125738312Y-52899987D01*
X125737227Y-52907764D01*
X125739368Y-52954078D01*
X125739500Y-52959803D01*
X125739500Y-52977842D01*
X125739947Y-52982671D01*
X125741181Y-52993305D01*
X125742415Y-53019991D01*
X125744359Y-53024395D01*
X125745213Y-53026327D01*
X125753666Y-53053626D01*
X125754938Y-53060432D01*
X125768998Y-53083140D01*
X125777004Y-53098329D01*
X125787791Y-53122760D01*
X125787793Y-53122762D01*
X125787794Y-53122765D01*
X125787796Y-53122767D01*
X125792688Y-53127659D01*
X125810435Y-53150064D01*
X125814079Y-53155950D01*
X125814080Y-53155951D01*
X125814081Y-53155952D01*
X125835396Y-53172048D01*
X125848350Y-53183321D01*
X128243180Y-55578151D01*
X128276665Y-55639474D01*
X128279499Y-55665832D01*
X128279499Y-88084165D01*
X128259814Y-88151204D01*
X128243180Y-88171846D01*
X125874986Y-90540041D01*
X125862035Y-90551312D01*
X125855767Y-90556044D01*
X125824522Y-90590318D01*
X125820574Y-90594453D01*
X125807827Y-90607200D01*
X125804752Y-90610903D01*
X125798086Y-90619318D01*
X125780083Y-90639067D01*
X125780083Y-90639068D01*
X125777579Y-90645531D01*
X125764259Y-90670800D01*
X125760345Y-90676514D01*
X125760342Y-90676519D01*
X125754225Y-90702524D01*
X125749149Y-90718914D01*
X125739500Y-90743823D01*
X125739500Y-90750749D01*
X125736207Y-90779135D01*
X125734621Y-90785876D01*
X125734621Y-90785882D01*
X125738311Y-90812333D01*
X125739500Y-90829464D01*
X125739500Y-92915500D01*
X125719815Y-92982539D01*
X125667011Y-93028294D01*
X125615500Y-93039500D01*
X60424500Y-93039500D01*
X60357461Y-93019815D01*
X60311706Y-92967011D01*
X60300500Y-92915500D01*
X60300500Y-90867763D01*
X72115787Y-90867763D01*
X72145413Y-91137013D01*
X72145415Y-91137024D01*
X72188023Y-91300000D01*
X72213928Y-91399088D01*
X72319870Y-91648390D01*
X72460979Y-91879605D01*
X72460986Y-91879615D01*
X72634253Y-92087819D01*
X72634259Y-92087824D01*
X72835998Y-92268582D01*
X73061910Y-92418044D01*
X73307176Y-92533020D01*
X73307183Y-92533022D01*
X73307185Y-92533023D01*
X73566557Y-92611057D01*
X73566564Y-92611058D01*
X73566569Y-92611060D01*
X73834561Y-92650500D01*
X73834566Y-92650500D01*
X74037629Y-92650500D01*
X74037631Y-92650500D01*
X74037636Y-92650499D01*
X74037648Y-92650499D01*
X74075191Y-92647750D01*
X74240156Y-92635677D01*
X74352758Y-92610593D01*
X74504546Y-92576782D01*
X74504548Y-92576781D01*
X74504553Y-92576780D01*
X74757558Y-92480014D01*
X74993777Y-92347441D01*
X75208177Y-92181888D01*
X75396186Y-91986881D01*
X75553799Y-91766579D01*
X75590674Y-91694856D01*
X86789500Y-91694856D01*
X86789502Y-91694882D01*
X86792413Y-91719987D01*
X86792415Y-91719991D01*
X86837793Y-91822764D01*
X86837794Y-91822765D01*
X86917235Y-91902206D01*
X87020009Y-91947585D01*
X87045135Y-91950500D01*
X88834864Y-91950499D01*
X88834879Y-91950497D01*
X88834882Y-91950497D01*
X88859987Y-91947586D01*
X88859988Y-91947585D01*
X88859991Y-91947585D01*
X88962765Y-91902206D01*
X89042206Y-91822765D01*
X89087585Y-91719991D01*
X89090500Y-91694865D01*
X89090499Y-90956046D01*
X89110183Y-90889009D01*
X89162987Y-90843254D01*
X89232146Y-90833310D01*
X89295702Y-90862335D01*
X89333476Y-90921113D01*
X89337970Y-90944606D01*
X89343374Y-91002924D01*
X89344244Y-91012310D01*
X89400412Y-91209718D01*
X89402596Y-91217392D01*
X89402596Y-91217394D01*
X89497632Y-91408253D01*
X89626127Y-91578406D01*
X89626128Y-91578407D01*
X89783698Y-91722052D01*
X89964981Y-91834298D01*
X90163802Y-91911321D01*
X90373390Y-91950500D01*
X90373392Y-91950500D01*
X90586608Y-91950500D01*
X90586610Y-91950500D01*
X90796198Y-91911321D01*
X90995019Y-91834298D01*
X91176302Y-91722052D01*
X91333872Y-91578407D01*
X91462366Y-91408255D01*
X91516270Y-91300000D01*
X91557403Y-91217394D01*
X91557403Y-91217393D01*
X91557405Y-91217389D01*
X91615756Y-91012310D01*
X91626529Y-90896047D01*
X91652315Y-90831111D01*
X91694622Y-90800804D01*
X91803130Y-90800804D01*
X91839503Y-90821668D01*
X91871693Y-90883681D01*
X91873470Y-90896047D01*
X91884244Y-91012310D01*
X91940412Y-91209718D01*
X91942596Y-91217392D01*
X91942596Y-91217394D01*
X92037632Y-91408253D01*
X92166127Y-91578406D01*
X92166128Y-91578407D01*
X92323698Y-91722052D01*
X92504981Y-91834298D01*
X92703802Y-91911321D01*
X92913390Y-91950500D01*
X92913392Y-91950500D01*
X93126608Y-91950500D01*
X93126610Y-91950500D01*
X93336198Y-91911321D01*
X93535019Y-91834298D01*
X93716302Y-91722052D01*
X93873872Y-91578407D01*
X94002366Y-91408255D01*
X94056270Y-91300000D01*
X94097403Y-91217394D01*
X94097403Y-91217393D01*
X94097405Y-91217389D01*
X94155756Y-91012310D01*
X94166529Y-90896047D01*
X94192315Y-90831111D01*
X94236869Y-90799194D01*
X94200497Y-90778331D01*
X94168307Y-90716318D01*
X94166529Y-90703951D01*
X94163987Y-90676519D01*
X94155756Y-90587690D01*
X94097405Y-90382611D01*
X94097403Y-90382606D01*
X94097403Y-90382605D01*
X94002367Y-90191746D01*
X93873872Y-90021593D01*
X93835947Y-89987020D01*
X93716302Y-89877948D01*
X93535019Y-89765702D01*
X93535017Y-89765701D01*
X93426949Y-89723836D01*
X93336198Y-89688679D01*
X93126610Y-89649500D01*
X92913390Y-89649500D01*
X92703802Y-89688679D01*
X92703799Y-89688679D01*
X92703799Y-89688680D01*
X92504982Y-89765701D01*
X92504980Y-89765702D01*
X92323699Y-89877947D01*
X92166127Y-90021593D01*
X92037632Y-90191746D01*
X91942596Y-90382605D01*
X91942596Y-90382607D01*
X91884244Y-90587689D01*
X91873471Y-90703951D01*
X91847685Y-90768888D01*
X91803130Y-90800804D01*
X91694622Y-90800804D01*
X91696869Y-90799194D01*
X91660497Y-90778331D01*
X91628307Y-90716318D01*
X91626529Y-90703951D01*
X91623987Y-90676519D01*
X91615756Y-90587690D01*
X91557405Y-90382611D01*
X91557403Y-90382606D01*
X91557403Y-90382605D01*
X91462367Y-90191746D01*
X91333872Y-90021593D01*
X91295947Y-89987020D01*
X91176302Y-89877948D01*
X90995019Y-89765702D01*
X90995017Y-89765701D01*
X90886949Y-89723836D01*
X90796198Y-89688679D01*
X90586610Y-89649500D01*
X90373390Y-89649500D01*
X90163802Y-89688679D01*
X90163799Y-89688679D01*
X90163799Y-89688680D01*
X89964982Y-89765701D01*
X89964980Y-89765702D01*
X89783699Y-89877947D01*
X89626127Y-90021593D01*
X89497632Y-90191746D01*
X89402596Y-90382605D01*
X89402596Y-90382607D01*
X89344244Y-90587689D01*
X89337970Y-90655394D01*
X89312183Y-90720331D01*
X89255383Y-90761018D01*
X89185602Y-90764538D01*
X89124995Y-90729772D01*
X89092806Y-90667759D01*
X89090499Y-90643952D01*
X89090499Y-89905143D01*
X89090499Y-89905136D01*
X89090497Y-89905117D01*
X89087586Y-89880012D01*
X89087585Y-89880010D01*
X89087585Y-89880009D01*
X89042206Y-89777235D01*
X88962765Y-89697794D01*
X88942124Y-89688680D01*
X88859992Y-89652415D01*
X88834865Y-89649500D01*
X87045143Y-89649500D01*
X87045117Y-89649502D01*
X87020012Y-89652413D01*
X87020008Y-89652415D01*
X86917235Y-89697793D01*
X86837794Y-89777234D01*
X86792415Y-89880006D01*
X86792415Y-89880008D01*
X86789500Y-89905131D01*
X86789500Y-91694856D01*
X75590674Y-91694856D01*
X75650545Y-91578407D01*
X75677649Y-91525690D01*
X75677651Y-91525684D01*
X75677656Y-91525675D01*
X75765118Y-91269305D01*
X75814319Y-91002933D01*
X75824212Y-90732235D01*
X75794586Y-90462982D01*
X75726072Y-90200912D01*
X75620130Y-89951610D01*
X75479018Y-89720390D01*
X75452628Y-89688679D01*
X75305746Y-89512180D01*
X75305740Y-89512175D01*
X75104002Y-89331418D01*
X74878092Y-89181957D01*
X74833986Y-89161281D01*
X74632824Y-89066980D01*
X74632819Y-89066978D01*
X74632814Y-89066976D01*
X74373442Y-88988942D01*
X74373428Y-88988939D01*
X74257791Y-88971921D01*
X74105439Y-88949500D01*
X73902369Y-88949500D01*
X73902351Y-88949500D01*
X73699844Y-88964323D01*
X73699831Y-88964325D01*
X73435453Y-89023217D01*
X73435446Y-89023220D01*
X73182439Y-89119987D01*
X72946226Y-89252557D01*
X72946224Y-89252558D01*
X72946223Y-89252559D01*
X72917715Y-89274572D01*
X72731822Y-89418112D01*
X72543822Y-89613109D01*
X72543816Y-89613116D01*
X72386202Y-89833419D01*
X72386199Y-89833424D01*
X72262350Y-90074309D01*
X72262343Y-90074327D01*
X72174884Y-90330685D01*
X72174881Y-90330699D01*
X72151661Y-90456412D01*
X72136535Y-90538307D01*
X72125681Y-90597068D01*
X72125680Y-90597075D01*
X72115787Y-90867763D01*
X60300500Y-90867763D01*
X60300500Y-88444856D01*
X63899500Y-88444856D01*
X63899502Y-88444882D01*
X63902413Y-88469987D01*
X63902415Y-88469991D01*
X63947793Y-88572764D01*
X63947794Y-88572765D01*
X64027235Y-88652206D01*
X64130009Y-88697585D01*
X64155135Y-88700500D01*
X65844864Y-88700499D01*
X65844879Y-88700497D01*
X65844882Y-88700497D01*
X65869987Y-88697586D01*
X65869988Y-88697585D01*
X65869991Y-88697585D01*
X65972765Y-88652206D01*
X66052206Y-88572765D01*
X66097585Y-88469991D01*
X66100500Y-88444865D01*
X66100499Y-87600000D01*
X67294859Y-87600000D01*
X67315378Y-87821439D01*
X67376240Y-88035350D01*
X67475369Y-88234428D01*
X67491137Y-88255308D01*
X67491138Y-88255308D01*
X68102046Y-87644400D01*
X68114835Y-87725148D01*
X68172359Y-87838045D01*
X68261955Y-87927641D01*
X68374852Y-87985165D01*
X68455599Y-87997953D01*
X67846672Y-88606879D01*
X67846672Y-88606880D01*
X67962821Y-88678797D01*
X67962822Y-88678798D01*
X68170195Y-88759134D01*
X68388807Y-88800000D01*
X68611193Y-88800000D01*
X68829809Y-88759133D01*
X69037168Y-88678801D01*
X69037181Y-88678795D01*
X69153326Y-88606879D01*
X68544401Y-87997953D01*
X68625148Y-87985165D01*
X68738045Y-87927641D01*
X68827641Y-87838045D01*
X68885165Y-87725148D01*
X68897953Y-87644400D01*
X69508861Y-88255308D01*
X69524631Y-88234425D01*
X69524633Y-88234422D01*
X69623759Y-88035350D01*
X69684621Y-87821439D01*
X69705141Y-87600000D01*
X69705141Y-87599999D01*
X69684621Y-87378560D01*
X69623759Y-87164649D01*
X69524635Y-86965580D01*
X69524630Y-86965572D01*
X69508860Y-86944690D01*
X68897953Y-87555598D01*
X68885165Y-87474852D01*
X68827641Y-87361955D01*
X68738045Y-87272359D01*
X68625148Y-87214835D01*
X68544401Y-87202046D01*
X69153327Y-86593119D01*
X69037178Y-86521202D01*
X69037177Y-86521201D01*
X68829804Y-86440865D01*
X68611193Y-86400000D01*
X68388807Y-86400000D01*
X68170195Y-86440865D01*
X67962824Y-86521200D01*
X67962823Y-86521201D01*
X67846671Y-86593119D01*
X68455599Y-87202046D01*
X68374852Y-87214835D01*
X68261955Y-87272359D01*
X68172359Y-87361955D01*
X68114835Y-87474852D01*
X68102046Y-87555599D01*
X67491138Y-86944691D01*
X67491137Y-86944691D01*
X67475368Y-86965574D01*
X67376240Y-87164649D01*
X67315378Y-87378560D01*
X67294859Y-87599999D01*
X67294859Y-87600000D01*
X66100499Y-87600000D01*
X66100499Y-86755136D01*
X66099278Y-86744606D01*
X66097586Y-86730012D01*
X66097585Y-86730010D01*
X66097585Y-86730009D01*
X66052206Y-86627235D01*
X65972765Y-86547794D01*
X65972763Y-86547793D01*
X65893818Y-86512935D01*
X65840442Y-86467849D01*
X65819915Y-86401062D01*
X65838754Y-86333780D01*
X65856220Y-86311824D01*
X68368043Y-83800001D01*
X78518118Y-83800001D01*
X78538755Y-83956760D01*
X78538756Y-83956762D01*
X78573228Y-84039986D01*
X78599264Y-84102841D01*
X78695518Y-84228282D01*
X78820959Y-84324536D01*
X78967038Y-84385044D01*
X79045419Y-84395363D01*
X79123799Y-84405682D01*
X79123800Y-84405682D01*
X79123801Y-84405682D01*
X79176054Y-84398802D01*
X79280562Y-84385044D01*
X79426641Y-84324536D01*
X79552082Y-84228282D01*
X79648336Y-84102841D01*
X79708844Y-83956762D01*
X79729482Y-83800000D01*
X79708844Y-83643238D01*
X79648336Y-83497159D01*
X79648335Y-83497158D01*
X79648335Y-83497157D01*
X79574924Y-83401485D01*
X79549730Y-83336315D01*
X79549300Y-83325999D01*
X79549300Y-82850001D01*
X81552418Y-82850001D01*
X81573055Y-83006760D01*
X81573057Y-83006765D01*
X81633561Y-83152836D01*
X81633564Y-83152841D01*
X81681976Y-83215933D01*
X81707170Y-83281102D01*
X81707600Y-83291419D01*
X81707600Y-86535268D01*
X81704491Y-86562860D01*
X81703784Y-86565954D01*
X81707253Y-86612228D01*
X81707600Y-86621496D01*
X81707600Y-86633759D01*
X81707601Y-86633773D01*
X81709427Y-86645890D01*
X81710465Y-86655101D01*
X81713933Y-86701375D01*
X81715091Y-86704325D01*
X81722279Y-86731149D01*
X81722751Y-86734285D01*
X81722752Y-86734287D01*
X81742884Y-86776091D01*
X81746587Y-86784580D01*
X81752485Y-86799605D01*
X81763547Y-86827792D01*
X81763547Y-86827793D01*
X81765526Y-86830274D01*
X81780294Y-86853777D01*
X81781671Y-86856637D01*
X81781672Y-86856638D01*
X81781674Y-86856640D01*
X81781675Y-86856642D01*
X81787071Y-86862457D01*
X81813243Y-86890664D01*
X81819281Y-86897680D01*
X81848221Y-86933970D01*
X81850847Y-86935760D01*
X81871882Y-86953863D01*
X81874045Y-86956194D01*
X81914239Y-86979400D01*
X81922078Y-86984326D01*
X81936513Y-86994167D01*
X81960427Y-87010472D01*
X81963456Y-87011406D01*
X81988908Y-87022510D01*
X81991655Y-87024096D01*
X82036905Y-87034423D01*
X82045845Y-87036818D01*
X82090198Y-87050500D01*
X82099387Y-87051885D01*
X82098998Y-87054463D01*
X82152540Y-87070185D01*
X82198295Y-87122989D01*
X82209501Y-87174500D01*
X82209501Y-87494856D01*
X82209502Y-87494882D01*
X82212413Y-87519987D01*
X82212415Y-87519991D01*
X82257793Y-87622764D01*
X82257794Y-87622765D01*
X82337235Y-87702206D01*
X82440009Y-87747585D01*
X82465135Y-87750500D01*
X84254864Y-87750499D01*
X84254879Y-87750497D01*
X84254882Y-87750497D01*
X84279987Y-87747586D01*
X84279988Y-87747585D01*
X84279991Y-87747585D01*
X84382765Y-87702206D01*
X84462206Y-87622765D01*
X84507585Y-87519991D01*
X84510500Y-87494865D01*
X84510499Y-86756046D01*
X84530183Y-86689009D01*
X84582987Y-86643254D01*
X84652146Y-86633310D01*
X84715702Y-86662335D01*
X84753476Y-86721113D01*
X84757970Y-86744606D01*
X84763067Y-86799605D01*
X84764244Y-86812310D01*
X84819873Y-87007824D01*
X84822596Y-87017392D01*
X84822596Y-87017394D01*
X84917632Y-87208253D01*
X85046124Y-87378402D01*
X85046128Y-87378407D01*
X85203698Y-87522052D01*
X85384981Y-87634298D01*
X85583802Y-87711321D01*
X85793390Y-87750500D01*
X85793392Y-87750500D01*
X86006608Y-87750500D01*
X86006610Y-87750500D01*
X86216198Y-87711321D01*
X86415019Y-87634298D01*
X86596302Y-87522052D01*
X86753872Y-87378407D01*
X86882366Y-87208255D01*
X86935330Y-87101888D01*
X86977403Y-87017394D01*
X86977403Y-87017392D01*
X86977405Y-87017389D01*
X86998928Y-86941744D01*
X87036206Y-86882653D01*
X87099515Y-86853095D01*
X87168755Y-86862457D01*
X87221942Y-86907766D01*
X87237968Y-86943587D01*
X87260894Y-87029150D01*
X87260898Y-87029159D01*
X87353333Y-87227387D01*
X87478787Y-87406554D01*
X87633445Y-87561212D01*
X87812612Y-87686666D01*
X88010843Y-87779103D01*
X88190000Y-87827106D01*
X88190000Y-87035501D01*
X88297685Y-87084680D01*
X88404237Y-87100000D01*
X88475763Y-87100000D01*
X88582315Y-87084680D01*
X88690000Y-87035501D01*
X88690000Y-87827105D01*
X88869156Y-87779103D01*
X88869157Y-87779103D01*
X89067387Y-87686666D01*
X89246554Y-87561212D01*
X89401212Y-87406554D01*
X89526666Y-87227387D01*
X89619101Y-87029159D01*
X89619105Y-87029150D01*
X89667108Y-86850000D01*
X88873686Y-86850000D01*
X88899493Y-86809844D01*
X88940000Y-86671889D01*
X88940000Y-86528111D01*
X88899493Y-86390156D01*
X88873686Y-86350000D01*
X89667108Y-86350000D01*
X89667108Y-86349999D01*
X89619105Y-86170849D01*
X89619101Y-86170840D01*
X89526666Y-85972612D01*
X89526664Y-85972608D01*
X89401216Y-85793450D01*
X89401211Y-85793444D01*
X89246554Y-85638787D01*
X89067387Y-85513333D01*
X88869159Y-85420898D01*
X88869150Y-85420894D01*
X88690000Y-85372891D01*
X88690000Y-86164498D01*
X88582315Y-86115320D01*
X88475763Y-86100000D01*
X88404237Y-86100000D01*
X88297685Y-86115320D01*
X88190000Y-86164498D01*
X88190000Y-85372892D01*
X88189999Y-85372891D01*
X88010849Y-85420894D01*
X88010840Y-85420898D01*
X87812612Y-85513333D01*
X87812608Y-85513335D01*
X87633450Y-85638783D01*
X87633444Y-85638788D01*
X87478788Y-85793444D01*
X87478783Y-85793450D01*
X87353335Y-85972608D01*
X87353333Y-85972612D01*
X87260898Y-86170840D01*
X87260895Y-86170847D01*
X87237968Y-86256413D01*
X87201603Y-86316073D01*
X87138756Y-86346602D01*
X87069380Y-86338307D01*
X87015502Y-86293822D01*
X86998927Y-86258253D01*
X86977405Y-86182611D01*
X86977403Y-86182608D01*
X86977403Y-86182605D01*
X86882367Y-85991746D01*
X86753872Y-85821593D01*
X86725078Y-85795344D01*
X86596302Y-85677948D01*
X86415019Y-85565702D01*
X86415017Y-85565701D01*
X86289479Y-85517068D01*
X86216198Y-85488679D01*
X86006610Y-85449500D01*
X85793390Y-85449500D01*
X85583802Y-85488679D01*
X85583799Y-85488679D01*
X85583799Y-85488680D01*
X85384982Y-85565701D01*
X85384980Y-85565702D01*
X85203699Y-85677947D01*
X85046127Y-85821593D01*
X84917632Y-85991746D01*
X84822596Y-86182605D01*
X84822596Y-86182607D01*
X84764244Y-86387689D01*
X84757970Y-86455394D01*
X84732183Y-86520331D01*
X84675383Y-86561018D01*
X84605602Y-86564538D01*
X84544995Y-86529772D01*
X84512806Y-86467759D01*
X84510499Y-86443952D01*
X84510499Y-85705143D01*
X84510499Y-85705136D01*
X84510497Y-85705117D01*
X84507586Y-85680012D01*
X84507585Y-85680010D01*
X84507585Y-85680009D01*
X84462206Y-85577235D01*
X84382765Y-85497794D01*
X84362124Y-85488680D01*
X84279992Y-85452415D01*
X84254868Y-85449500D01*
X84254865Y-85449500D01*
X82732600Y-85449500D01*
X82665561Y-85429815D01*
X82619806Y-85377011D01*
X82608600Y-85325500D01*
X82608600Y-83291419D01*
X82628285Y-83224380D01*
X82634224Y-83215933D01*
X82650192Y-83195121D01*
X82682636Y-83152841D01*
X82743144Y-83006762D01*
X82763782Y-82850000D01*
X82743144Y-82693238D01*
X82682636Y-82547159D01*
X82586382Y-82421718D01*
X82460941Y-82325464D01*
X82314862Y-82264956D01*
X82314860Y-82264955D01*
X82158101Y-82244318D01*
X82158099Y-82244318D01*
X82001339Y-82264955D01*
X82001337Y-82264956D01*
X81855260Y-82325463D01*
X81729818Y-82421718D01*
X81633563Y-82547160D01*
X81573056Y-82693237D01*
X81573055Y-82693239D01*
X81552418Y-82849998D01*
X81552418Y-82850001D01*
X79549300Y-82850001D01*
X79549300Y-51916509D01*
X79568985Y-51849470D01*
X79585614Y-51828833D01*
X85037821Y-46376625D01*
X85099142Y-46343142D01*
X85168834Y-46348126D01*
X85224767Y-46389998D01*
X85249184Y-46455462D01*
X85249500Y-46464308D01*
X85249500Y-47494856D01*
X85249502Y-47494882D01*
X85252413Y-47519987D01*
X85252415Y-47519991D01*
X85297793Y-47622764D01*
X85297794Y-47622765D01*
X85377235Y-47702206D01*
X85480009Y-47747585D01*
X85505135Y-47750500D01*
X85853932Y-47750499D01*
X85920971Y-47770183D01*
X85966726Y-47822987D01*
X85971862Y-47836177D01*
X85981961Y-47867255D01*
X85986503Y-47886173D01*
X85988829Y-47900857D01*
X85990281Y-47910027D01*
X86001243Y-47931541D01*
X86008688Y-47949515D01*
X86016150Y-47972480D01*
X86030340Y-47992010D01*
X86040508Y-48008603D01*
X86051470Y-48030118D01*
X95098081Y-57076729D01*
X95131566Y-57138052D01*
X95134400Y-57164410D01*
X95134400Y-59952954D01*
X95132873Y-59972353D01*
X95129096Y-59996199D01*
X95129096Y-59996200D01*
X95132973Y-60020677D01*
X95134500Y-60040076D01*
X95134500Y-85325500D01*
X95114815Y-85392539D01*
X95062011Y-85438294D01*
X95010500Y-85449500D01*
X93465143Y-85449500D01*
X93465117Y-85449502D01*
X93440012Y-85452413D01*
X93440008Y-85452415D01*
X93337235Y-85497793D01*
X93257794Y-85577234D01*
X93212415Y-85680006D01*
X93212415Y-85680008D01*
X93209500Y-85705131D01*
X93209500Y-87494856D01*
X93209502Y-87494882D01*
X93212413Y-87519987D01*
X93212415Y-87519991D01*
X93257793Y-87622764D01*
X93257794Y-87622765D01*
X93337235Y-87702206D01*
X93440009Y-87747585D01*
X93465135Y-87750500D01*
X95010500Y-87750499D01*
X95077539Y-87770184D01*
X95123294Y-87822987D01*
X95134500Y-87874499D01*
X95134500Y-89646079D01*
X95114815Y-89713118D01*
X95062011Y-89758873D01*
X95055298Y-89761704D01*
X95044987Y-89765698D01*
X95044979Y-89765702D01*
X94863699Y-89877947D01*
X94706127Y-90021593D01*
X94577632Y-90191746D01*
X94482596Y-90382605D01*
X94482596Y-90382607D01*
X94424244Y-90587689D01*
X94413471Y-90703951D01*
X94387685Y-90768888D01*
X94343130Y-90800804D01*
X94379503Y-90821668D01*
X94411693Y-90883681D01*
X94413470Y-90896047D01*
X94424244Y-91012310D01*
X94480412Y-91209718D01*
X94482596Y-91217392D01*
X94482596Y-91217394D01*
X94577632Y-91408253D01*
X94706127Y-91578406D01*
X94706128Y-91578407D01*
X94863698Y-91722052D01*
X95044981Y-91834298D01*
X95243802Y-91911321D01*
X95453390Y-91950500D01*
X95453392Y-91950500D01*
X95666608Y-91950500D01*
X95666610Y-91950500D01*
X95876198Y-91911321D01*
X96075019Y-91834298D01*
X96256302Y-91722052D01*
X96413872Y-91578407D01*
X96542366Y-91408255D01*
X96596270Y-91300000D01*
X96637403Y-91217394D01*
X96637403Y-91217393D01*
X96637405Y-91217389D01*
X96695756Y-91012310D01*
X96706529Y-90896047D01*
X96732315Y-90831111D01*
X96774622Y-90800804D01*
X96883130Y-90800804D01*
X96919503Y-90821668D01*
X96951693Y-90883681D01*
X96953470Y-90896047D01*
X96964244Y-91012310D01*
X97020412Y-91209718D01*
X97022596Y-91217392D01*
X97022596Y-91217394D01*
X97117632Y-91408253D01*
X97246127Y-91578406D01*
X97246128Y-91578407D01*
X97403698Y-91722052D01*
X97584981Y-91834298D01*
X97783802Y-91911321D01*
X97993390Y-91950500D01*
X97993392Y-91950500D01*
X98206608Y-91950500D01*
X98206610Y-91950500D01*
X98416198Y-91911321D01*
X98615019Y-91834298D01*
X98796302Y-91722052D01*
X98953872Y-91578407D01*
X99082366Y-91408255D01*
X99136270Y-91300000D01*
X99177403Y-91217394D01*
X99177403Y-91217392D01*
X99177405Y-91217389D01*
X99198928Y-91141744D01*
X99236206Y-91082653D01*
X99299515Y-91053095D01*
X99368755Y-91062457D01*
X99421942Y-91107766D01*
X99437968Y-91143587D01*
X99460894Y-91229150D01*
X99460898Y-91229159D01*
X99553333Y-91427387D01*
X99678787Y-91606554D01*
X99833445Y-91761212D01*
X100012612Y-91886666D01*
X100210843Y-91979103D01*
X100390000Y-92027106D01*
X100390000Y-91235501D01*
X100497685Y-91284680D01*
X100604237Y-91300000D01*
X100675763Y-91300000D01*
X100782315Y-91284680D01*
X100890000Y-91235501D01*
X100890000Y-92027106D01*
X101069156Y-91979103D01*
X101069157Y-91979103D01*
X101267387Y-91886666D01*
X101446554Y-91761212D01*
X101601212Y-91606554D01*
X101726666Y-91427387D01*
X101797618Y-91275232D01*
X101843790Y-91222793D01*
X101910984Y-91203641D01*
X101977865Y-91223857D01*
X102022382Y-91275232D01*
X102093333Y-91427387D01*
X102218787Y-91606554D01*
X102373445Y-91761212D01*
X102552612Y-91886666D01*
X102750843Y-91979103D01*
X102930000Y-92027106D01*
X102930000Y-91235501D01*
X103037685Y-91284680D01*
X103144237Y-91300000D01*
X103215763Y-91300000D01*
X103322315Y-91284680D01*
X103430000Y-91235501D01*
X103430000Y-92027106D01*
X103609156Y-91979103D01*
X103609157Y-91979103D01*
X103807387Y-91886666D01*
X103986554Y-91761212D01*
X104141212Y-91606554D01*
X104266666Y-91427387D01*
X104359101Y-91229159D01*
X104359106Y-91229148D01*
X104382031Y-91143588D01*
X104418395Y-91083927D01*
X104481242Y-91053397D01*
X104550617Y-91061691D01*
X104604496Y-91106176D01*
X104621072Y-91141745D01*
X104640412Y-91209718D01*
X104642596Y-91217392D01*
X104642596Y-91217394D01*
X104737632Y-91408253D01*
X104866127Y-91578406D01*
X104866128Y-91578407D01*
X105023698Y-91722052D01*
X105204981Y-91834298D01*
X105403802Y-91911321D01*
X105613390Y-91950500D01*
X105613392Y-91950500D01*
X105826608Y-91950500D01*
X105826610Y-91950500D01*
X106036198Y-91911321D01*
X106235019Y-91834298D01*
X106416302Y-91722052D01*
X106446134Y-91694856D01*
X109649500Y-91694856D01*
X109649502Y-91694882D01*
X109652413Y-91719987D01*
X109652415Y-91719991D01*
X109697793Y-91822764D01*
X109697794Y-91822765D01*
X109777235Y-91902206D01*
X109880009Y-91947585D01*
X109905135Y-91950500D01*
X111694864Y-91950499D01*
X111694879Y-91950497D01*
X111694882Y-91950497D01*
X111719987Y-91947586D01*
X111719988Y-91947585D01*
X111719991Y-91947585D01*
X111822765Y-91902206D01*
X111902206Y-91822765D01*
X111947585Y-91719991D01*
X111950500Y-91694865D01*
X111950499Y-91340890D01*
X111970183Y-91273852D01*
X112022987Y-91228097D01*
X112055096Y-91218418D01*
X112110026Y-91209719D01*
X112117162Y-91206082D01*
X112185830Y-91193186D01*
X112250571Y-91219462D01*
X112284457Y-91261296D01*
X112357632Y-91408253D01*
X112486127Y-91578406D01*
X112486128Y-91578407D01*
X112643698Y-91722052D01*
X112824981Y-91834298D01*
X113023802Y-91911321D01*
X113233390Y-91950500D01*
X113233392Y-91950500D01*
X113446608Y-91950500D01*
X113446610Y-91950500D01*
X113656198Y-91911321D01*
X113855019Y-91834298D01*
X114036302Y-91722052D01*
X114193872Y-91578407D01*
X114322366Y-91408255D01*
X114376270Y-91300000D01*
X114417403Y-91217394D01*
X114417403Y-91217393D01*
X114417405Y-91217389D01*
X114475756Y-91012310D01*
X114486529Y-90896047D01*
X114512315Y-90831111D01*
X114556869Y-90799194D01*
X114520497Y-90778331D01*
X114488307Y-90716318D01*
X114486529Y-90703951D01*
X114483987Y-90676519D01*
X114475756Y-90587690D01*
X114417405Y-90382611D01*
X114417403Y-90382606D01*
X114417403Y-90382605D01*
X114340355Y-90227871D01*
X114328094Y-90159086D01*
X114354967Y-90094591D01*
X114412443Y-90054863D01*
X114451355Y-90048600D01*
X114768645Y-90048600D01*
X114835684Y-90068285D01*
X114881439Y-90121089D01*
X114891383Y-90190247D01*
X114879645Y-90227871D01*
X114802596Y-90382605D01*
X114802596Y-90382607D01*
X114744244Y-90587689D01*
X114733471Y-90703951D01*
X114707685Y-90768888D01*
X114663130Y-90800804D01*
X114699503Y-90821668D01*
X114731693Y-90883681D01*
X114733470Y-90896047D01*
X114744244Y-91012310D01*
X114800412Y-91209718D01*
X114802596Y-91217392D01*
X114802596Y-91217394D01*
X114897632Y-91408253D01*
X115026127Y-91578406D01*
X115026128Y-91578407D01*
X115183698Y-91722052D01*
X115364981Y-91834298D01*
X115563802Y-91911321D01*
X115773390Y-91950500D01*
X115773392Y-91950500D01*
X115986608Y-91950500D01*
X115986610Y-91950500D01*
X116196198Y-91911321D01*
X116395019Y-91834298D01*
X116576302Y-91722052D01*
X116733872Y-91578407D01*
X116862366Y-91408255D01*
X116916270Y-91300000D01*
X116957403Y-91217394D01*
X116957403Y-91217393D01*
X116957405Y-91217389D01*
X117015756Y-91012310D01*
X117026529Y-90896047D01*
X117052315Y-90831111D01*
X117094622Y-90800804D01*
X117203130Y-90800804D01*
X117239503Y-90821668D01*
X117271693Y-90883681D01*
X117273470Y-90896047D01*
X117284244Y-91012310D01*
X117340412Y-91209718D01*
X117342596Y-91217392D01*
X117342596Y-91217394D01*
X117437632Y-91408253D01*
X117566127Y-91578406D01*
X117566128Y-91578407D01*
X117723698Y-91722052D01*
X117904981Y-91834298D01*
X118103802Y-91911321D01*
X118313390Y-91950500D01*
X118313392Y-91950500D01*
X118526608Y-91950500D01*
X118526610Y-91950500D01*
X118736198Y-91911321D01*
X118935019Y-91834298D01*
X119116302Y-91722052D01*
X119273872Y-91578407D01*
X119402366Y-91408255D01*
X119456270Y-91300000D01*
X119497403Y-91217394D01*
X119497403Y-91217393D01*
X119497405Y-91217389D01*
X119555756Y-91012310D01*
X119566529Y-90896047D01*
X119592315Y-90831111D01*
X119634622Y-90800804D01*
X119743130Y-90800804D01*
X119779503Y-90821668D01*
X119811693Y-90883681D01*
X119813470Y-90896047D01*
X119824244Y-91012310D01*
X119880412Y-91209718D01*
X119882596Y-91217392D01*
X119882596Y-91217394D01*
X119977632Y-91408253D01*
X120106127Y-91578406D01*
X120106128Y-91578407D01*
X120263698Y-91722052D01*
X120444981Y-91834298D01*
X120643802Y-91911321D01*
X120853390Y-91950500D01*
X120853392Y-91950500D01*
X121066608Y-91950500D01*
X121066610Y-91950500D01*
X121276198Y-91911321D01*
X121475019Y-91834298D01*
X121656302Y-91722052D01*
X121813872Y-91578407D01*
X121942366Y-91408255D01*
X121996270Y-91300000D01*
X122037403Y-91217394D01*
X122037403Y-91217393D01*
X122037405Y-91217389D01*
X122095756Y-91012310D01*
X122106529Y-90896047D01*
X122132315Y-90831111D01*
X122174622Y-90800804D01*
X122283130Y-90800804D01*
X122319503Y-90821668D01*
X122351693Y-90883681D01*
X122353470Y-90896047D01*
X122364244Y-91012310D01*
X122420412Y-91209718D01*
X122422596Y-91217392D01*
X122422596Y-91217394D01*
X122517632Y-91408253D01*
X122646127Y-91578406D01*
X122646128Y-91578407D01*
X122803698Y-91722052D01*
X122984981Y-91834298D01*
X123183802Y-91911321D01*
X123393390Y-91950500D01*
X123393392Y-91950500D01*
X123606608Y-91950500D01*
X123606610Y-91950500D01*
X123816198Y-91911321D01*
X124015019Y-91834298D01*
X124196302Y-91722052D01*
X124353872Y-91578407D01*
X124482366Y-91408255D01*
X124536270Y-91300000D01*
X124577403Y-91217394D01*
X124577403Y-91217393D01*
X124577405Y-91217389D01*
X124635756Y-91012310D01*
X124655429Y-90800000D01*
X124635756Y-90587690D01*
X124577405Y-90382611D01*
X124577403Y-90382606D01*
X124577403Y-90382605D01*
X124482367Y-90191746D01*
X124353872Y-90021593D01*
X124315947Y-89987020D01*
X124196302Y-89877948D01*
X124015019Y-89765702D01*
X124015017Y-89765701D01*
X123906949Y-89723836D01*
X123816198Y-89688679D01*
X123606610Y-89649500D01*
X123393390Y-89649500D01*
X123183802Y-89688679D01*
X123183799Y-89688679D01*
X123183799Y-89688680D01*
X122984982Y-89765701D01*
X122984980Y-89765702D01*
X122803699Y-89877947D01*
X122646127Y-90021593D01*
X122517632Y-90191746D01*
X122422596Y-90382605D01*
X122422596Y-90382607D01*
X122364244Y-90587689D01*
X122353471Y-90703951D01*
X122327685Y-90768888D01*
X122283130Y-90800804D01*
X122174622Y-90800804D01*
X122176869Y-90799194D01*
X122140497Y-90778331D01*
X122108307Y-90716318D01*
X122106529Y-90703951D01*
X122103987Y-90676519D01*
X122095756Y-90587690D01*
X122037405Y-90382611D01*
X122037403Y-90382606D01*
X122037403Y-90382605D01*
X121942367Y-90191746D01*
X121813872Y-90021593D01*
X121775947Y-89987020D01*
X121656302Y-89877948D01*
X121475019Y-89765702D01*
X121475017Y-89765701D01*
X121366949Y-89723836D01*
X121276198Y-89688679D01*
X121066610Y-89649500D01*
X120853390Y-89649500D01*
X120643802Y-89688679D01*
X120643799Y-89688679D01*
X120643799Y-89688680D01*
X120444982Y-89765701D01*
X120444980Y-89765702D01*
X120263699Y-89877947D01*
X120106127Y-90021593D01*
X119977632Y-90191746D01*
X119882596Y-90382605D01*
X119882596Y-90382607D01*
X119824244Y-90587689D01*
X119813471Y-90703951D01*
X119787685Y-90768888D01*
X119743130Y-90800804D01*
X119634622Y-90800804D01*
X119636869Y-90799194D01*
X119600497Y-90778331D01*
X119568307Y-90716318D01*
X119566529Y-90703951D01*
X119563987Y-90676519D01*
X119555756Y-90587690D01*
X119497405Y-90382611D01*
X119497403Y-90382606D01*
X119497403Y-90382605D01*
X119402367Y-90191746D01*
X119273872Y-90021593D01*
X119235947Y-89987020D01*
X119116302Y-89877948D01*
X118935019Y-89765702D01*
X118935017Y-89765701D01*
X118826949Y-89723836D01*
X118736198Y-89688679D01*
X118526610Y-89649500D01*
X118313390Y-89649500D01*
X118103802Y-89688679D01*
X118103799Y-89688679D01*
X118103799Y-89688680D01*
X117904982Y-89765701D01*
X117904980Y-89765702D01*
X117723699Y-89877947D01*
X117566127Y-90021593D01*
X117437632Y-90191746D01*
X117342596Y-90382605D01*
X117342596Y-90382607D01*
X117284244Y-90587689D01*
X117273471Y-90703951D01*
X117247685Y-90768888D01*
X117203130Y-90800804D01*
X117094622Y-90800804D01*
X117096869Y-90799194D01*
X117060497Y-90778331D01*
X117028307Y-90716318D01*
X117026529Y-90703951D01*
X117023987Y-90676519D01*
X117015756Y-90587690D01*
X116957405Y-90382611D01*
X116957403Y-90382606D01*
X116957403Y-90382605D01*
X116866933Y-90200917D01*
X116862366Y-90191745D01*
X116853518Y-90180028D01*
X116828825Y-90114671D01*
X116843388Y-90046335D01*
X116879581Y-90004987D01*
X116896416Y-89992754D01*
X116913006Y-89982588D01*
X116934520Y-89971628D01*
X117029828Y-89876320D01*
X119540012Y-87366135D01*
X119601333Y-87332652D01*
X119671025Y-87337636D01*
X119721265Y-87375084D01*
X119722267Y-87374172D01*
X119726123Y-87378402D01*
X119726126Y-87378405D01*
X119726128Y-87378407D01*
X119883698Y-87522052D01*
X120064981Y-87634298D01*
X120263802Y-87711321D01*
X120473390Y-87750500D01*
X120473392Y-87750500D01*
X120686608Y-87750500D01*
X120686610Y-87750500D01*
X120896198Y-87711321D01*
X121095019Y-87634298D01*
X121276302Y-87522052D01*
X121433872Y-87378407D01*
X121562366Y-87208255D01*
X121615330Y-87101888D01*
X121657403Y-87017394D01*
X121657403Y-87017393D01*
X121657405Y-87017389D01*
X121715756Y-86812310D01*
X121735429Y-86600000D01*
X121715756Y-86387690D01*
X121657405Y-86182611D01*
X121657403Y-86182606D01*
X121657403Y-86182605D01*
X121562367Y-85991746D01*
X121433872Y-85821593D01*
X121405078Y-85795344D01*
X121396762Y-85787763D01*
X124185787Y-85787763D01*
X124215413Y-86057013D01*
X124215415Y-86057024D01*
X124283926Y-86319082D01*
X124283928Y-86319088D01*
X124389870Y-86568390D01*
X124516629Y-86776091D01*
X124530979Y-86799605D01*
X124530986Y-86799615D01*
X124704253Y-87007819D01*
X124704259Y-87007824D01*
X124790036Y-87084680D01*
X124905998Y-87188582D01*
X125131910Y-87338044D01*
X125377176Y-87453020D01*
X125377183Y-87453022D01*
X125377185Y-87453023D01*
X125636557Y-87531057D01*
X125636564Y-87531058D01*
X125636569Y-87531060D01*
X125904561Y-87570500D01*
X125904566Y-87570500D01*
X126107629Y-87570500D01*
X126107631Y-87570500D01*
X126107636Y-87570499D01*
X126107648Y-87570499D01*
X126145191Y-87567750D01*
X126310156Y-87555677D01*
X126422758Y-87530593D01*
X126574546Y-87496782D01*
X126574548Y-87496781D01*
X126574553Y-87496780D01*
X126827558Y-87400014D01*
X127063777Y-87267441D01*
X127278177Y-87101888D01*
X127466186Y-86906881D01*
X127623799Y-86686579D01*
X127708825Y-86521202D01*
X127747649Y-86445690D01*
X127747651Y-86445684D01*
X127747656Y-86445675D01*
X127835118Y-86189305D01*
X127884319Y-85922933D01*
X127894212Y-85652235D01*
X127864586Y-85382982D01*
X127796072Y-85120912D01*
X127690130Y-84871610D01*
X127549018Y-84640390D01*
X127547845Y-84638981D01*
X127375746Y-84432180D01*
X127375740Y-84432175D01*
X127174002Y-84251418D01*
X126948092Y-84101957D01*
X126948090Y-84101956D01*
X126702824Y-83986980D01*
X126702819Y-83986978D01*
X126702814Y-83986976D01*
X126443442Y-83908942D01*
X126443428Y-83908939D01*
X126327791Y-83891921D01*
X126175439Y-83869500D01*
X125972369Y-83869500D01*
X125972351Y-83869500D01*
X125769844Y-83884323D01*
X125769831Y-83884325D01*
X125505453Y-83943217D01*
X125505446Y-83943220D01*
X125252439Y-84039987D01*
X125016226Y-84172557D01*
X124801822Y-84338112D01*
X124613822Y-84533109D01*
X124613816Y-84533116D01*
X124456202Y-84753419D01*
X124456199Y-84753424D01*
X124332350Y-84994309D01*
X124332343Y-84994327D01*
X124244884Y-85250685D01*
X124244882Y-85250695D01*
X124196371Y-85513335D01*
X124195681Y-85517068D01*
X124195680Y-85517075D01*
X124185787Y-85787763D01*
X121396762Y-85787763D01*
X121276302Y-85677948D01*
X121095019Y-85565702D01*
X121095017Y-85565701D01*
X120969479Y-85517068D01*
X120896198Y-85488679D01*
X120686610Y-85449500D01*
X120473390Y-85449500D01*
X120263802Y-85488679D01*
X120263799Y-85488679D01*
X120263799Y-85488680D01*
X120064982Y-85565701D01*
X120064980Y-85565702D01*
X119883696Y-85677949D01*
X119849938Y-85708724D01*
X119787134Y-85739341D01*
X119717747Y-85731144D01*
X119663807Y-85686734D01*
X119642439Y-85620212D01*
X119642400Y-85617087D01*
X119642400Y-85011310D01*
X119662085Y-84944271D01*
X119678719Y-84923629D01*
X122180630Y-82421718D01*
X124742853Y-79859495D01*
X124766828Y-79835520D01*
X124777793Y-79813998D01*
X124787954Y-79797418D01*
X124802149Y-79777881D01*
X124809609Y-79754916D01*
X124817059Y-79736934D01*
X124828018Y-79715428D01*
X124828018Y-79715427D01*
X124828019Y-79715426D01*
X124831795Y-79691576D01*
X124836336Y-79672660D01*
X124843800Y-79649693D01*
X124843800Y-79514907D01*
X124843800Y-78305699D01*
X124863485Y-78238660D01*
X124869410Y-78230231D01*
X124942836Y-78134541D01*
X125003344Y-77988462D01*
X125023982Y-77831700D01*
X125021695Y-77814332D01*
X125003344Y-77674939D01*
X125003344Y-77674938D01*
X124942836Y-77528859D01*
X124846582Y-77403418D01*
X124721141Y-77307164D01*
X124575062Y-77246656D01*
X124575060Y-77246655D01*
X124418301Y-77226018D01*
X124418299Y-77226018D01*
X124261539Y-77246655D01*
X124261537Y-77246656D01*
X124115460Y-77307163D01*
X123990018Y-77403418D01*
X123893763Y-77528860D01*
X123833256Y-77674937D01*
X123833255Y-77674939D01*
X123812618Y-77831698D01*
X123812618Y-77831701D01*
X123833255Y-77988460D01*
X123833256Y-77988462D01*
X123890849Y-78127505D01*
X123893764Y-78134541D01*
X123967177Y-78230215D01*
X123992370Y-78295381D01*
X123992800Y-78305699D01*
X123992800Y-79354690D01*
X123973115Y-79421729D01*
X123956481Y-79442371D01*
X118963680Y-84435172D01*
X118916025Y-84482826D01*
X118868371Y-84530480D01*
X118857410Y-84551993D01*
X118847246Y-84568578D01*
X118833052Y-84588114D01*
X118833051Y-84588117D01*
X118825588Y-84611085D01*
X118818143Y-84629058D01*
X118807180Y-84650573D01*
X118803403Y-84674422D01*
X118798862Y-84693339D01*
X118791400Y-84716304D01*
X118791400Y-85489439D01*
X118771715Y-85556478D01*
X118718911Y-85602233D01*
X118649753Y-85612177D01*
X118602124Y-85594867D01*
X118555022Y-85565703D01*
X118555015Y-85565700D01*
X118547819Y-85562912D01*
X118492419Y-85520337D01*
X118468832Y-85454569D01*
X118470145Y-85427887D01*
X118470904Y-85423100D01*
X118467126Y-85399251D01*
X118465600Y-85379854D01*
X118465600Y-75586499D01*
X118485285Y-75519460D01*
X118491210Y-75511031D01*
X118564636Y-75415341D01*
X118625144Y-75269262D01*
X118645782Y-75112500D01*
X118625144Y-74955738D01*
X118564636Y-74809659D01*
X118468382Y-74684218D01*
X118342941Y-74587964D01*
X118196862Y-74527456D01*
X118196860Y-74527455D01*
X118040101Y-74506818D01*
X118040099Y-74506818D01*
X117883339Y-74527455D01*
X117883337Y-74527456D01*
X117737260Y-74587963D01*
X117611818Y-74684218D01*
X117515563Y-74809660D01*
X117455056Y-74955737D01*
X117455055Y-74955739D01*
X117434418Y-75112498D01*
X117434418Y-75112501D01*
X117455055Y-75269260D01*
X117455056Y-75269262D01*
X117499067Y-75375515D01*
X117515564Y-75415341D01*
X117588977Y-75511015D01*
X117614170Y-75576181D01*
X117614600Y-75586499D01*
X117614600Y-85379222D01*
X117613073Y-85398620D01*
X117609196Y-85423098D01*
X117609196Y-85423101D01*
X117609949Y-85427857D01*
X117600992Y-85497150D01*
X117555994Y-85550601D01*
X117532273Y-85562876D01*
X117524987Y-85565698D01*
X117524979Y-85565702D01*
X117343699Y-85677947D01*
X117186127Y-85821593D01*
X117057632Y-85991746D01*
X116962596Y-86182605D01*
X116962596Y-86182607D01*
X116904244Y-86387689D01*
X116897970Y-86455394D01*
X116872183Y-86520331D01*
X116815383Y-86561018D01*
X116745602Y-86564538D01*
X116684995Y-86529772D01*
X116652806Y-86467759D01*
X116650499Y-86443952D01*
X116650499Y-85705143D01*
X116650499Y-85705136D01*
X116650497Y-85705117D01*
X116647586Y-85680012D01*
X116647585Y-85680010D01*
X116647585Y-85680009D01*
X116602206Y-85577235D01*
X116522765Y-85497794D01*
X116502124Y-85488680D01*
X116419992Y-85452415D01*
X116394865Y-85449500D01*
X114605143Y-85449500D01*
X114605117Y-85449502D01*
X114580012Y-85452413D01*
X114580008Y-85452415D01*
X114477235Y-85497793D01*
X114397794Y-85577234D01*
X114352415Y-85680006D01*
X114352415Y-85680008D01*
X114349500Y-85705131D01*
X114349500Y-87494856D01*
X114349502Y-87494882D01*
X114352413Y-87519987D01*
X114352415Y-87519991D01*
X114397793Y-87622764D01*
X114397794Y-87622765D01*
X114477235Y-87702206D01*
X114580009Y-87747585D01*
X114605135Y-87750500D01*
X116394864Y-87750499D01*
X116394879Y-87750497D01*
X116394882Y-87750497D01*
X116419987Y-87747586D01*
X116419988Y-87747585D01*
X116419991Y-87747585D01*
X116522765Y-87702206D01*
X116602206Y-87622765D01*
X116647585Y-87519991D01*
X116650500Y-87494865D01*
X116650499Y-86756046D01*
X116670183Y-86689009D01*
X116722987Y-86643254D01*
X116792146Y-86633310D01*
X116855702Y-86662335D01*
X116893476Y-86721113D01*
X116897970Y-86744606D01*
X116903067Y-86799605D01*
X116904244Y-86812310D01*
X116959873Y-87007824D01*
X116962596Y-87017392D01*
X116962596Y-87017394D01*
X117057632Y-87208253D01*
X117186124Y-87378402D01*
X117186128Y-87378407D01*
X117343698Y-87522052D01*
X117524981Y-87634298D01*
X117660160Y-87686666D01*
X117723802Y-87711321D01*
X117729117Y-87712833D01*
X117788212Y-87750110D01*
X117817772Y-87813418D01*
X117808413Y-87882658D01*
X117782869Y-87919782D01*
X116541371Y-89161281D01*
X116480048Y-89194766D01*
X116453690Y-89197600D01*
X112853293Y-89197600D01*
X112718507Y-89197600D01*
X112718504Y-89197601D01*
X112695535Y-89205063D01*
X112676622Y-89209603D01*
X112652774Y-89213380D01*
X112631259Y-89224342D01*
X112613289Y-89231785D01*
X112590321Y-89239248D01*
X112590317Y-89239249D01*
X112570780Y-89253444D01*
X112554198Y-89263606D01*
X112532683Y-89274569D01*
X112532680Y-89274571D01*
X112508706Y-89298546D01*
X112053792Y-89753459D01*
X111992469Y-89786944D01*
X111922777Y-89781960D01*
X111878430Y-89753459D01*
X111822765Y-89697794D01*
X111719992Y-89652415D01*
X111694865Y-89649500D01*
X109905143Y-89649500D01*
X109905117Y-89649502D01*
X109880012Y-89652413D01*
X109880008Y-89652415D01*
X109777235Y-89697793D01*
X109697794Y-89777234D01*
X109652415Y-89880006D01*
X109652415Y-89880008D01*
X109649500Y-89905131D01*
X109649500Y-91694856D01*
X106446134Y-91694856D01*
X106573872Y-91578407D01*
X106702366Y-91408255D01*
X106756270Y-91300000D01*
X106797403Y-91217394D01*
X106797403Y-91217393D01*
X106797405Y-91217389D01*
X106855756Y-91012310D01*
X106875429Y-90800000D01*
X106855756Y-90587690D01*
X106797405Y-90382611D01*
X106797403Y-90382606D01*
X106797403Y-90382605D01*
X106702367Y-90191746D01*
X106573872Y-90021593D01*
X106535947Y-89987020D01*
X106416302Y-89877948D01*
X106235019Y-89765702D01*
X106235017Y-89765701D01*
X106126949Y-89723836D01*
X106036198Y-89688679D01*
X105826610Y-89649500D01*
X105613390Y-89649500D01*
X105403802Y-89688679D01*
X105403799Y-89688679D01*
X105403799Y-89688680D01*
X105204982Y-89765701D01*
X105204980Y-89765702D01*
X105023699Y-89877947D01*
X104866127Y-90021593D01*
X104737632Y-90191746D01*
X104642597Y-90382605D01*
X104621072Y-90458255D01*
X104583792Y-90517348D01*
X104520482Y-90546905D01*
X104451242Y-90537541D01*
X104398056Y-90492231D01*
X104382031Y-90456412D01*
X104359105Y-90370849D01*
X104359101Y-90370840D01*
X104266666Y-90172612D01*
X104266664Y-90172608D01*
X104141216Y-89993450D01*
X104141211Y-89993444D01*
X103986554Y-89838787D01*
X103807387Y-89713333D01*
X103609159Y-89620898D01*
X103609150Y-89620894D01*
X103430000Y-89572891D01*
X103430000Y-90364498D01*
X103322315Y-90315320D01*
X103215763Y-90300000D01*
X103144237Y-90300000D01*
X103037685Y-90315320D01*
X102930000Y-90364498D01*
X102930000Y-89572892D01*
X102929999Y-89572891D01*
X102750849Y-89620894D01*
X102750840Y-89620898D01*
X102552612Y-89713333D01*
X102552608Y-89713335D01*
X102373450Y-89838783D01*
X102373444Y-89838788D01*
X102218788Y-89993444D01*
X102218783Y-89993450D01*
X102093335Y-90172608D01*
X102093333Y-90172612D01*
X102022382Y-90324767D01*
X101976209Y-90377206D01*
X101909016Y-90396358D01*
X101842135Y-90376142D01*
X101797618Y-90324767D01*
X101726666Y-90172612D01*
X101726664Y-90172608D01*
X101601216Y-89993450D01*
X101601211Y-89993444D01*
X101446554Y-89838787D01*
X101267387Y-89713333D01*
X101069159Y-89620898D01*
X101069150Y-89620894D01*
X100890000Y-89572891D01*
X100890000Y-90364498D01*
X100782315Y-90315320D01*
X100675763Y-90300000D01*
X100604237Y-90300000D01*
X100497685Y-90315320D01*
X100390000Y-90364498D01*
X100390000Y-89572892D01*
X100389999Y-89572891D01*
X100210849Y-89620894D01*
X100210840Y-89620898D01*
X100012612Y-89713333D01*
X100012608Y-89713335D01*
X99833450Y-89838783D01*
X99833444Y-89838788D01*
X99678788Y-89993444D01*
X99678783Y-89993450D01*
X99553335Y-90172608D01*
X99553333Y-90172612D01*
X99460898Y-90370840D01*
X99460895Y-90370847D01*
X99437968Y-90456413D01*
X99401603Y-90516073D01*
X99338756Y-90546602D01*
X99269380Y-90538307D01*
X99215502Y-90493822D01*
X99198927Y-90458253D01*
X99177405Y-90382611D01*
X99177403Y-90382608D01*
X99177403Y-90382605D01*
X99082367Y-90191746D01*
X98953872Y-90021593D01*
X98826133Y-89905143D01*
X98796302Y-89877948D01*
X98796300Y-89877947D01*
X98796296Y-89877943D01*
X98791726Y-89874492D01*
X98792521Y-89873438D01*
X98750257Y-89826278D01*
X98739159Y-89757295D01*
X98767119Y-89693263D01*
X98774483Y-89685219D01*
X100964846Y-87494856D01*
X104209500Y-87494856D01*
X104209502Y-87494882D01*
X104212413Y-87519987D01*
X104212415Y-87519991D01*
X104257793Y-87622764D01*
X104257794Y-87622765D01*
X104337235Y-87702206D01*
X104440009Y-87747585D01*
X104465135Y-87750500D01*
X106254864Y-87750499D01*
X106254879Y-87750497D01*
X106254882Y-87750497D01*
X106279987Y-87747586D01*
X106279988Y-87747585D01*
X106279991Y-87747585D01*
X106382765Y-87702206D01*
X106462206Y-87622765D01*
X106507585Y-87519991D01*
X106510500Y-87494865D01*
X106510499Y-86756046D01*
X106530183Y-86689009D01*
X106582987Y-86643254D01*
X106652146Y-86633310D01*
X106715702Y-86662335D01*
X106753476Y-86721113D01*
X106757970Y-86744606D01*
X106763067Y-86799605D01*
X106764244Y-86812310D01*
X106819873Y-87007824D01*
X106822596Y-87017392D01*
X106822596Y-87017394D01*
X106917632Y-87208253D01*
X107046124Y-87378402D01*
X107046128Y-87378407D01*
X107203698Y-87522052D01*
X107384981Y-87634298D01*
X107583802Y-87711321D01*
X107793390Y-87750500D01*
X107793392Y-87750500D01*
X108006608Y-87750500D01*
X108006610Y-87750500D01*
X108216198Y-87711321D01*
X108415019Y-87634298D01*
X108596302Y-87522052D01*
X108753872Y-87378407D01*
X108882366Y-87208255D01*
X108935330Y-87101888D01*
X108977403Y-87017394D01*
X108977403Y-87017392D01*
X108977405Y-87017389D01*
X108998928Y-86941744D01*
X109036206Y-86882653D01*
X109099515Y-86853095D01*
X109168755Y-86862457D01*
X109221942Y-86907766D01*
X109237968Y-86943587D01*
X109260894Y-87029150D01*
X109260898Y-87029159D01*
X109353333Y-87227387D01*
X109478787Y-87406554D01*
X109633445Y-87561212D01*
X109812612Y-87686666D01*
X110010843Y-87779103D01*
X110190000Y-87827106D01*
X110190000Y-87035501D01*
X110297685Y-87084680D01*
X110404237Y-87100000D01*
X110475763Y-87100000D01*
X110582315Y-87084680D01*
X110690000Y-87035501D01*
X110690000Y-87827105D01*
X110869156Y-87779103D01*
X110869157Y-87779103D01*
X111067387Y-87686666D01*
X111246554Y-87561212D01*
X111401212Y-87406554D01*
X111526666Y-87227387D01*
X111619101Y-87029159D01*
X111619105Y-87029150D01*
X111667108Y-86850000D01*
X110873686Y-86850000D01*
X110899493Y-86809844D01*
X110940000Y-86671889D01*
X110940000Y-86528111D01*
X110899493Y-86390156D01*
X110873686Y-86350000D01*
X111667108Y-86350000D01*
X111667108Y-86349999D01*
X111619105Y-86170849D01*
X111619101Y-86170840D01*
X111526666Y-85972612D01*
X111526664Y-85972608D01*
X111401216Y-85793450D01*
X111401211Y-85793444D01*
X111246554Y-85638787D01*
X111067387Y-85513333D01*
X110869159Y-85420898D01*
X110869150Y-85420894D01*
X110690000Y-85372891D01*
X110690000Y-86164498D01*
X110582315Y-86115320D01*
X110475763Y-86100000D01*
X110404237Y-86100000D01*
X110297685Y-86115320D01*
X110190000Y-86164498D01*
X110190000Y-85372892D01*
X110189999Y-85372891D01*
X110010849Y-85420894D01*
X110010840Y-85420898D01*
X109812612Y-85513333D01*
X109812608Y-85513335D01*
X109633450Y-85638783D01*
X109633444Y-85638788D01*
X109478788Y-85793444D01*
X109478783Y-85793450D01*
X109353335Y-85972608D01*
X109353333Y-85972612D01*
X109260898Y-86170840D01*
X109260895Y-86170847D01*
X109237968Y-86256413D01*
X109201603Y-86316073D01*
X109138756Y-86346602D01*
X109069380Y-86338307D01*
X109015502Y-86293822D01*
X108998927Y-86258253D01*
X108977405Y-86182611D01*
X108977403Y-86182608D01*
X108977403Y-86182605D01*
X108882367Y-85991746D01*
X108753872Y-85821593D01*
X108725078Y-85795344D01*
X108596302Y-85677948D01*
X108415019Y-85565702D01*
X108415017Y-85565701D01*
X108289479Y-85517068D01*
X108216198Y-85488679D01*
X108006610Y-85449500D01*
X107793390Y-85449500D01*
X107583802Y-85488679D01*
X107583799Y-85488679D01*
X107583799Y-85488680D01*
X107384982Y-85565701D01*
X107384980Y-85565702D01*
X107203699Y-85677947D01*
X107046127Y-85821593D01*
X106917632Y-85991746D01*
X106822596Y-86182605D01*
X106822596Y-86182607D01*
X106764244Y-86387689D01*
X106757970Y-86455394D01*
X106732183Y-86520331D01*
X106675383Y-86561018D01*
X106605602Y-86564538D01*
X106544995Y-86529772D01*
X106512806Y-86467759D01*
X106510499Y-86443952D01*
X106510499Y-85705143D01*
X106510499Y-85705136D01*
X106510497Y-85705117D01*
X106507586Y-85680012D01*
X106507585Y-85680010D01*
X106507585Y-85680009D01*
X106462206Y-85577235D01*
X106382765Y-85497794D01*
X106362124Y-85488680D01*
X106279992Y-85452415D01*
X106254865Y-85449500D01*
X104465143Y-85449500D01*
X104465117Y-85449502D01*
X104440012Y-85452413D01*
X104440008Y-85452415D01*
X104337235Y-85497793D01*
X104257794Y-85577234D01*
X104212415Y-85680006D01*
X104212415Y-85680008D01*
X104209500Y-85705131D01*
X104209500Y-87494856D01*
X100964846Y-87494856D01*
X112095744Y-76363957D01*
X112106093Y-76354709D01*
X112133970Y-76332479D01*
X112166198Y-76285207D01*
X112168812Y-76281523D01*
X112202793Y-76235482D01*
X112202793Y-76235479D01*
X112202795Y-76235478D01*
X112206778Y-76227941D01*
X112210468Y-76220277D01*
X112210472Y-76220273D01*
X112227330Y-76165618D01*
X112228761Y-76161268D01*
X112247646Y-76107300D01*
X112247646Y-76107298D01*
X112249228Y-76098936D01*
X112250500Y-76090499D01*
X112250500Y-76033338D01*
X112250587Y-76028700D01*
X112252724Y-75971592D01*
X112251684Y-75962361D01*
X112252513Y-75962267D01*
X112250500Y-75946966D01*
X112250500Y-70926594D01*
X123383700Y-70926594D01*
X123391162Y-70949558D01*
X123395703Y-70968473D01*
X123398670Y-70987210D01*
X123399481Y-70992327D01*
X123410443Y-71013841D01*
X123417888Y-71031815D01*
X123425350Y-71054780D01*
X123439540Y-71074310D01*
X123449708Y-71090903D01*
X123460670Y-71112418D01*
X123626457Y-71278205D01*
X123659942Y-71339528D01*
X123661715Y-71349700D01*
X123677456Y-71469262D01*
X123737964Y-71615341D01*
X123834218Y-71740782D01*
X123959659Y-71837036D01*
X124105738Y-71897544D01*
X124184119Y-71907863D01*
X124262499Y-71918182D01*
X124262500Y-71918182D01*
X124262501Y-71918182D01*
X124314754Y-71911302D01*
X124419262Y-71897544D01*
X124565341Y-71837036D01*
X124690782Y-71740782D01*
X124787036Y-71615341D01*
X124847544Y-71469262D01*
X124868182Y-71312500D01*
X124867724Y-71309023D01*
X124847544Y-71155739D01*
X124847544Y-71155738D01*
X124787036Y-71009659D01*
X124690782Y-70884218D01*
X124565341Y-70787964D01*
X124419262Y-70727456D01*
X124342513Y-70717351D01*
X124278618Y-70689085D01*
X124240147Y-70630761D01*
X124234700Y-70594413D01*
X124234700Y-67356998D01*
X124254385Y-67289959D01*
X124307189Y-67244204D01*
X124376347Y-67234260D01*
X124411105Y-67244616D01*
X124570843Y-67319103D01*
X124750000Y-67367106D01*
X124750000Y-66575501D01*
X124857685Y-66624680D01*
X124964237Y-66640000D01*
X125035763Y-66640000D01*
X125142315Y-66624680D01*
X125250000Y-66575501D01*
X125250000Y-67367105D01*
X125429156Y-67319103D01*
X125429157Y-67319103D01*
X125627387Y-67226666D01*
X125806554Y-67101212D01*
X125961212Y-66946554D01*
X126086666Y-66767387D01*
X126179101Y-66569159D01*
X126179105Y-66569150D01*
X126227108Y-66390000D01*
X125433686Y-66390000D01*
X125459493Y-66349844D01*
X125500000Y-66211889D01*
X125500000Y-66068111D01*
X125459493Y-65930156D01*
X125433686Y-65890000D01*
X126227108Y-65890000D01*
X126227108Y-65889999D01*
X126179105Y-65710849D01*
X126179101Y-65710840D01*
X126086666Y-65512612D01*
X126086664Y-65512608D01*
X125961216Y-65333450D01*
X125961211Y-65333444D01*
X125806554Y-65178787D01*
X125627387Y-65053332D01*
X125488238Y-64988446D01*
X125435799Y-64942273D01*
X125416647Y-64875080D01*
X125418169Y-64856668D01*
X125418420Y-64855088D01*
X125448354Y-64791959D01*
X125507668Y-64755032D01*
X125540891Y-64750499D01*
X125894856Y-64750499D01*
X125894864Y-64750499D01*
X125894879Y-64750497D01*
X125894882Y-64750497D01*
X125919987Y-64747586D01*
X125919988Y-64747585D01*
X125919991Y-64747585D01*
X126022765Y-64702206D01*
X126102206Y-64622765D01*
X126147585Y-64519991D01*
X126150500Y-64494865D01*
X126150499Y-62705136D01*
X126150497Y-62705117D01*
X126147586Y-62680012D01*
X126147585Y-62680010D01*
X126147585Y-62680009D01*
X126102206Y-62577235D01*
X126022765Y-62497794D01*
X126022763Y-62497793D01*
X125919992Y-62452415D01*
X125894865Y-62449500D01*
X124105143Y-62449500D01*
X124105117Y-62449502D01*
X124080012Y-62452413D01*
X124080008Y-62452415D01*
X123977235Y-62497793D01*
X123897794Y-62577234D01*
X123852415Y-62680006D01*
X123852415Y-62680008D01*
X123849500Y-62705131D01*
X123849500Y-64494856D01*
X123849502Y-64494882D01*
X123852413Y-64519987D01*
X123852415Y-64519991D01*
X123897793Y-64622764D01*
X123953509Y-64678480D01*
X123986994Y-64739803D01*
X123982010Y-64809495D01*
X123953509Y-64853842D01*
X123754020Y-65053332D01*
X123555980Y-65251372D01*
X123508325Y-65299026D01*
X123460671Y-65346680D01*
X123449710Y-65368193D01*
X123439546Y-65384778D01*
X123425352Y-65404314D01*
X123425351Y-65404317D01*
X123417888Y-65427285D01*
X123410443Y-65445258D01*
X123399480Y-65466773D01*
X123395703Y-65490622D01*
X123391162Y-65509539D01*
X123383700Y-65532504D01*
X123383700Y-70926594D01*
X112250500Y-70926594D01*
X112250500Y-47874499D01*
X112270185Y-47807460D01*
X112322989Y-47761705D01*
X112374500Y-47750499D01*
X112694856Y-47750499D01*
X112694864Y-47750499D01*
X112694879Y-47750497D01*
X112694882Y-47750497D01*
X112719987Y-47747586D01*
X112719988Y-47747585D01*
X112719991Y-47747585D01*
X112822765Y-47702206D01*
X112902206Y-47622765D01*
X112947585Y-47519991D01*
X112950500Y-47494865D01*
X112950499Y-47137284D01*
X112970183Y-47070248D01*
X113022987Y-47024493D01*
X113092146Y-47014549D01*
X113155701Y-47043574D01*
X113186881Y-47084882D01*
X113253332Y-47227387D01*
X113378787Y-47406554D01*
X113533445Y-47561212D01*
X113712612Y-47686666D01*
X113910843Y-47779103D01*
X114090000Y-47827106D01*
X114090000Y-47035501D01*
X114197685Y-47084680D01*
X114304237Y-47100000D01*
X114375763Y-47100000D01*
X114482315Y-47084680D01*
X114590000Y-47035501D01*
X114590000Y-47827105D01*
X114769156Y-47779103D01*
X114769157Y-47779103D01*
X114967387Y-47686667D01*
X115074776Y-47611472D01*
X115140982Y-47589145D01*
X115208750Y-47606155D01*
X115256563Y-47657103D01*
X115269900Y-47713047D01*
X115269900Y-68098599D01*
X115250215Y-68165638D01*
X115244276Y-68174085D01*
X115170864Y-68269757D01*
X115110356Y-68415837D01*
X115110355Y-68415839D01*
X115089718Y-68572598D01*
X115089718Y-68572601D01*
X115110355Y-68729360D01*
X115110356Y-68729362D01*
X115170864Y-68875441D01*
X115267118Y-69000882D01*
X115392559Y-69097136D01*
X115538638Y-69157644D01*
X115617019Y-69167963D01*
X115695399Y-69178282D01*
X115695400Y-69178282D01*
X115695401Y-69178282D01*
X115747654Y-69171402D01*
X115852162Y-69157644D01*
X115998241Y-69097136D01*
X116123682Y-69000882D01*
X116219936Y-68875441D01*
X116280444Y-68729362D01*
X116301082Y-68572600D01*
X116280444Y-68415838D01*
X116219936Y-68269759D01*
X116219935Y-68269758D01*
X116219935Y-68269757D01*
X116146524Y-68174085D01*
X116121330Y-68108915D01*
X116120900Y-68098599D01*
X116120900Y-57847763D01*
X124185787Y-57847763D01*
X124215413Y-58117013D01*
X124215415Y-58117024D01*
X124283926Y-58379082D01*
X124283928Y-58379088D01*
X124389870Y-58628390D01*
X124530079Y-58858130D01*
X124530979Y-58859605D01*
X124530986Y-58859615D01*
X124704253Y-59067819D01*
X124704259Y-59067824D01*
X124905998Y-59248582D01*
X125131910Y-59398044D01*
X125377176Y-59513020D01*
X125377183Y-59513022D01*
X125377185Y-59513023D01*
X125636557Y-59591057D01*
X125636564Y-59591058D01*
X125636569Y-59591060D01*
X125904561Y-59630500D01*
X125904566Y-59630500D01*
X126107629Y-59630500D01*
X126107631Y-59630500D01*
X126107636Y-59630499D01*
X126107648Y-59630499D01*
X126145191Y-59627750D01*
X126310156Y-59615677D01*
X126422758Y-59590593D01*
X126574546Y-59556782D01*
X126574548Y-59556781D01*
X126574553Y-59556780D01*
X126827558Y-59460014D01*
X127063777Y-59327441D01*
X127278177Y-59161888D01*
X127466186Y-58966881D01*
X127623799Y-58746579D01*
X127742246Y-58516198D01*
X127747649Y-58505690D01*
X127747651Y-58505684D01*
X127747656Y-58505675D01*
X127835118Y-58249305D01*
X127884319Y-57982933D01*
X127894212Y-57712235D01*
X127864586Y-57442982D01*
X127796072Y-57180912D01*
X127690130Y-56931610D01*
X127549018Y-56700390D01*
X127459747Y-56593119D01*
X127375746Y-56492180D01*
X127375740Y-56492175D01*
X127174002Y-56311418D01*
X126948092Y-56161957D01*
X126948090Y-56161956D01*
X126702824Y-56046980D01*
X126702819Y-56046978D01*
X126702814Y-56046976D01*
X126443442Y-55968942D01*
X126443428Y-55968939D01*
X126327791Y-55951921D01*
X126175439Y-55929500D01*
X125972369Y-55929500D01*
X125972351Y-55929500D01*
X125769844Y-55944323D01*
X125769831Y-55944325D01*
X125505453Y-56003217D01*
X125505446Y-56003220D01*
X125252439Y-56099987D01*
X125016226Y-56232557D01*
X124801822Y-56398112D01*
X124613822Y-56593109D01*
X124613816Y-56593116D01*
X124456202Y-56813419D01*
X124456199Y-56813424D01*
X124332350Y-57054309D01*
X124332343Y-57054327D01*
X124244884Y-57310685D01*
X124244881Y-57310699D01*
X124195681Y-57577068D01*
X124195680Y-57577075D01*
X124185787Y-57847763D01*
X116120900Y-57847763D01*
X116120900Y-49166571D01*
X116140585Y-49099532D01*
X116193389Y-49053777D01*
X116262547Y-49043833D01*
X116326103Y-49072858D01*
X116343275Y-49091083D01*
X116371818Y-49128282D01*
X116497259Y-49224536D01*
X116643338Y-49285044D01*
X116762898Y-49300784D01*
X116826795Y-49329050D01*
X116834394Y-49336042D01*
X116902380Y-49404028D01*
X116923899Y-49414992D01*
X116940478Y-49425151D01*
X116960019Y-49439349D01*
X116982981Y-49446809D01*
X117000954Y-49454253D01*
X117022474Y-49465219D01*
X117046324Y-49468995D01*
X117065245Y-49473539D01*
X117087089Y-49480636D01*
X117088207Y-49481000D01*
X117088208Y-49481000D01*
X118788792Y-49481000D01*
X118788793Y-49481000D01*
X118811760Y-49473536D01*
X118830676Y-49468995D01*
X118854526Y-49465219D01*
X118876036Y-49454257D01*
X118894014Y-49446810D01*
X118916981Y-49439349D01*
X118936518Y-49425153D01*
X118953106Y-49414988D01*
X118974620Y-49404028D01*
X119069928Y-49308720D01*
X123824554Y-44554094D01*
X123848528Y-44530120D01*
X123859488Y-44508606D01*
X123869653Y-44492018D01*
X123883849Y-44472481D01*
X123891310Y-44449514D01*
X123898759Y-44431534D01*
X123909718Y-44410028D01*
X123909718Y-44410027D01*
X123909719Y-44410026D01*
X123913495Y-44386176D01*
X123918036Y-44367260D01*
X123925500Y-44344293D01*
X123925500Y-44209507D01*
X123925500Y-43814499D01*
X123945185Y-43747460D01*
X123997989Y-43701705D01*
X124049500Y-43690499D01*
X124394856Y-43690499D01*
X124394864Y-43690499D01*
X124394879Y-43690497D01*
X124394882Y-43690497D01*
X124419987Y-43687586D01*
X124419988Y-43687585D01*
X124419991Y-43687585D01*
X124522765Y-43642206D01*
X124602206Y-43562765D01*
X124647585Y-43459991D01*
X124650500Y-43434865D01*
X124650499Y-41645136D01*
X124650422Y-41644471D01*
X124647586Y-41620012D01*
X124647585Y-41620010D01*
X124647585Y-41620009D01*
X124602206Y-41517235D01*
X124522765Y-41437794D01*
X124502124Y-41428680D01*
X124419992Y-41392415D01*
X124394865Y-41389500D01*
X122605143Y-41389500D01*
X122605117Y-41389502D01*
X122580012Y-41392413D01*
X122580008Y-41392415D01*
X122477235Y-41437793D01*
X122397794Y-41517234D01*
X122352415Y-41620006D01*
X122352415Y-41620008D01*
X122349500Y-41645131D01*
X122349500Y-42383951D01*
X122329815Y-42450990D01*
X122277011Y-42496745D01*
X122207853Y-42506689D01*
X122144297Y-42477664D01*
X122106523Y-42418886D01*
X122102029Y-42395391D01*
X122095756Y-42327689D01*
X122060274Y-42202986D01*
X122037405Y-42122611D01*
X122037403Y-42122606D01*
X122037403Y-42122605D01*
X121942367Y-41931746D01*
X121813872Y-41761593D01*
X121741737Y-41695833D01*
X121656302Y-41617948D01*
X121475019Y-41505702D01*
X121475017Y-41505701D01*
X121375608Y-41467190D01*
X121276198Y-41428679D01*
X121066610Y-41389500D01*
X120853390Y-41389500D01*
X120643802Y-41428679D01*
X120643799Y-41428679D01*
X120643799Y-41428680D01*
X120444982Y-41505701D01*
X120444980Y-41505702D01*
X120263699Y-41617947D01*
X120106127Y-41761593D01*
X119977632Y-41931746D01*
X119882596Y-42122605D01*
X119882596Y-42122607D01*
X119824244Y-42327689D01*
X119813471Y-42443951D01*
X119787685Y-42508888D01*
X119743130Y-42540804D01*
X119779503Y-42561668D01*
X119811693Y-42623681D01*
X119813471Y-42636048D01*
X119824244Y-42752310D01*
X119882596Y-42957392D01*
X119882596Y-42957394D01*
X119977632Y-43148253D01*
X119977634Y-43148255D01*
X120106128Y-43318407D01*
X120106130Y-43318409D01*
X120106129Y-43318409D01*
X120158102Y-43365789D01*
X120194383Y-43425500D01*
X120192622Y-43495348D01*
X120162244Y-43545106D01*
X117971080Y-45736272D01*
X117971079Y-45736273D01*
X117897046Y-45810304D01*
X117835722Y-45843789D01*
X117766031Y-45838803D01*
X117725828Y-45814259D01*
X117578562Y-45680008D01*
X117576302Y-45677948D01*
X117395019Y-45565702D01*
X117395017Y-45565701D01*
X117196197Y-45488678D01*
X117164548Y-45482762D01*
X117102268Y-45451093D01*
X117066996Y-45390781D01*
X117069930Y-45320973D01*
X117099652Y-45273195D01*
X118194129Y-44178719D01*
X118255452Y-44145234D01*
X118281810Y-44142400D01*
X118376755Y-44142400D01*
X118396152Y-44143926D01*
X118420000Y-44147704D01*
X118420002Y-44147704D01*
X118553121Y-44126620D01*
X118553121Y-44126619D01*
X118553126Y-44126619D01*
X118673220Y-44065428D01*
X118768528Y-43970120D01*
X118829719Y-43850026D01*
X118833236Y-43827824D01*
X118845500Y-43750389D01*
X118845500Y-43750387D01*
X118845964Y-43747460D01*
X118850804Y-43716900D01*
X118850051Y-43712147D01*
X118859004Y-43642855D01*
X118903999Y-43589402D01*
X118927734Y-43577120D01*
X118935019Y-43574298D01*
X119116302Y-43462052D01*
X119273872Y-43318407D01*
X119402366Y-43148255D01*
X119406934Y-43139082D01*
X119497403Y-42957394D01*
X119497403Y-42957393D01*
X119497405Y-42957389D01*
X119555756Y-42752310D01*
X119566529Y-42636047D01*
X119592315Y-42571111D01*
X119636869Y-42539194D01*
X119600497Y-42518331D01*
X119568307Y-42456318D01*
X119566529Y-42443951D01*
X119560969Y-42383951D01*
X119555756Y-42327690D01*
X119497405Y-42122611D01*
X119497403Y-42122606D01*
X119497403Y-42122605D01*
X119402367Y-41931746D01*
X119273872Y-41761593D01*
X119201737Y-41695833D01*
X119116302Y-41617948D01*
X118935019Y-41505702D01*
X118935017Y-41505701D01*
X118835608Y-41467190D01*
X118736198Y-41428679D01*
X118526610Y-41389500D01*
X118313390Y-41389500D01*
X118103802Y-41428679D01*
X118103799Y-41428679D01*
X118103799Y-41428680D01*
X117904982Y-41505701D01*
X117904980Y-41505702D01*
X117723699Y-41617947D01*
X117566127Y-41761593D01*
X117437632Y-41931746D01*
X117342596Y-42122605D01*
X117342596Y-42122607D01*
X117284244Y-42327689D01*
X117273471Y-42443951D01*
X117247685Y-42508888D01*
X117203130Y-42540804D01*
X117239503Y-42561668D01*
X117271693Y-42623681D01*
X117273471Y-42636048D01*
X117284244Y-42752310D01*
X117342596Y-42957392D01*
X117342596Y-42957394D01*
X117437632Y-43148253D01*
X117437634Y-43148255D01*
X117566128Y-43318407D01*
X117566130Y-43318409D01*
X117566129Y-43318409D01*
X117619148Y-43366743D01*
X117655429Y-43426455D01*
X117653668Y-43496302D01*
X117623290Y-43546060D01*
X115442180Y-45727172D01*
X115442177Y-45727175D01*
X115426237Y-45743114D01*
X115364913Y-45776597D01*
X115295222Y-45771610D01*
X115250878Y-45743111D01*
X115146554Y-45638787D01*
X114967387Y-45513333D01*
X114769159Y-45420898D01*
X114769150Y-45420894D01*
X114590000Y-45372891D01*
X114590000Y-46164498D01*
X114482315Y-46115320D01*
X114375763Y-46100000D01*
X114304237Y-46100000D01*
X114197685Y-46115320D01*
X114090000Y-46164498D01*
X114090000Y-45372892D01*
X114089999Y-45372891D01*
X113910849Y-45420894D01*
X113910840Y-45420898D01*
X113712612Y-45513333D01*
X113712608Y-45513335D01*
X113533450Y-45638783D01*
X113533444Y-45638788D01*
X113378788Y-45793444D01*
X113378783Y-45793450D01*
X113253335Y-45972608D01*
X113253333Y-45972612D01*
X113186881Y-46115119D01*
X113140708Y-46167558D01*
X113073515Y-46186710D01*
X113006634Y-46166494D01*
X112961299Y-46113329D01*
X112950499Y-46062714D01*
X112950499Y-45705143D01*
X112950499Y-45705136D01*
X112950497Y-45705117D01*
X112947586Y-45680012D01*
X112947585Y-45680010D01*
X112947585Y-45680009D01*
X112902206Y-45577235D01*
X112822765Y-45497794D01*
X112802124Y-45488680D01*
X112719992Y-45452415D01*
X112694865Y-45449500D01*
X110905143Y-45449500D01*
X110905117Y-45449502D01*
X110880012Y-45452413D01*
X110880008Y-45452415D01*
X110777235Y-45497793D01*
X110697794Y-45577234D01*
X110652415Y-45680006D01*
X110652415Y-45680008D01*
X110649500Y-45705131D01*
X110649500Y-47494856D01*
X110649502Y-47494882D01*
X110652413Y-47519987D01*
X110652415Y-47519991D01*
X110697793Y-47622764D01*
X110697794Y-47622765D01*
X110777235Y-47702206D01*
X110880009Y-47747585D01*
X110905135Y-47750500D01*
X111225500Y-47750499D01*
X111292539Y-47770183D01*
X111338294Y-47822987D01*
X111349500Y-47874499D01*
X111349500Y-75784634D01*
X111329815Y-75851673D01*
X111313181Y-75872315D01*
X98066565Y-89118930D01*
X98006483Y-89152139D01*
X97998619Y-89153934D01*
X97995664Y-89155094D01*
X97968860Y-89162277D01*
X97965713Y-89162751D01*
X97965712Y-89162751D01*
X97923903Y-89182885D01*
X97915407Y-89186592D01*
X97872206Y-89203547D01*
X97869716Y-89205533D01*
X97846221Y-89220295D01*
X97843363Y-89221671D01*
X97843359Y-89221673D01*
X97809342Y-89253236D01*
X97802319Y-89259280D01*
X97766029Y-89288221D01*
X97764235Y-89290853D01*
X97746138Y-89311880D01*
X97743806Y-89314045D01*
X97720596Y-89354243D01*
X97715674Y-89362077D01*
X97689527Y-89400426D01*
X97689526Y-89400431D01*
X97688589Y-89403468D01*
X97677495Y-89428897D01*
X97675908Y-89431645D01*
X97675902Y-89431661D01*
X97665577Y-89476895D01*
X97663179Y-89485846D01*
X97649500Y-89530195D01*
X97649500Y-89533368D01*
X97646391Y-89560960D01*
X97645684Y-89564054D01*
X97649153Y-89610328D01*
X97649500Y-89619596D01*
X97649500Y-89656797D01*
X97629815Y-89723836D01*
X97588654Y-89760744D01*
X97589855Y-89762684D01*
X97403699Y-89877947D01*
X97246127Y-90021593D01*
X97117632Y-90191746D01*
X97022596Y-90382605D01*
X97022596Y-90382607D01*
X96964244Y-90587689D01*
X96953471Y-90703951D01*
X96927685Y-90768888D01*
X96883130Y-90800804D01*
X96774622Y-90800804D01*
X96776869Y-90799194D01*
X96740497Y-90778331D01*
X96708307Y-90716318D01*
X96706529Y-90703951D01*
X96703987Y-90676519D01*
X96695756Y-90587690D01*
X96637405Y-90382611D01*
X96637403Y-90382606D01*
X96637403Y-90382605D01*
X96542367Y-90191746D01*
X96413872Y-90021593D01*
X96375947Y-89987020D01*
X96256302Y-89877948D01*
X96193049Y-89838783D01*
X96075020Y-89765702D01*
X96075012Y-89765698D01*
X96064702Y-89761704D01*
X96009302Y-89719129D01*
X95985714Y-89653361D01*
X95985500Y-89646079D01*
X95985500Y-87603971D01*
X96005185Y-87536932D01*
X96057989Y-87491177D01*
X96127147Y-87481233D01*
X96190703Y-87510258D01*
X96193001Y-87512300D01*
X96203698Y-87522052D01*
X96384981Y-87634298D01*
X96583802Y-87711321D01*
X96793390Y-87750500D01*
X96793392Y-87750500D01*
X97006608Y-87750500D01*
X97006610Y-87750500D01*
X97216198Y-87711321D01*
X97415019Y-87634298D01*
X97596302Y-87522052D01*
X97753872Y-87378407D01*
X97882366Y-87208255D01*
X97935330Y-87101888D01*
X97977403Y-87017394D01*
X97977403Y-87017393D01*
X97977405Y-87017389D01*
X98035756Y-86812310D01*
X98055429Y-86600000D01*
X98035756Y-86387690D01*
X97977405Y-86182611D01*
X97977403Y-86182606D01*
X97977403Y-86182605D01*
X97882367Y-85991746D01*
X97753872Y-85821593D01*
X97725078Y-85795344D01*
X97596302Y-85677948D01*
X97415019Y-85565702D01*
X97415017Y-85565701D01*
X97289479Y-85517068D01*
X97216198Y-85488679D01*
X97006610Y-85449500D01*
X96793390Y-85449500D01*
X96583802Y-85488679D01*
X96583799Y-85488679D01*
X96583799Y-85488680D01*
X96384982Y-85565701D01*
X96384980Y-85565702D01*
X96203699Y-85677947D01*
X96193037Y-85687667D01*
X96130232Y-85718283D01*
X96060845Y-85710084D01*
X96006906Y-85665673D01*
X95985539Y-85599150D01*
X95985500Y-85596028D01*
X95985500Y-60223808D01*
X96005185Y-60156769D01*
X96021814Y-60136132D01*
X106965705Y-49192240D01*
X107027026Y-49158757D01*
X107037182Y-49156986D01*
X107156762Y-49141244D01*
X107302841Y-49080736D01*
X107428282Y-48984482D01*
X107524536Y-48859041D01*
X107585044Y-48712962D01*
X107605333Y-48558850D01*
X107605682Y-48556201D01*
X107605682Y-48556198D01*
X107585044Y-48399439D01*
X107585044Y-48399438D01*
X107524536Y-48253359D01*
X107428282Y-48127918D01*
X107302841Y-48031664D01*
X107299113Y-48030120D01*
X107156762Y-47971156D01*
X107156760Y-47971155D01*
X107000001Y-47950518D01*
X106999999Y-47950518D01*
X106843239Y-47971155D01*
X106843237Y-47971156D01*
X106697160Y-48031663D01*
X106571718Y-48127918D01*
X106475463Y-48253360D01*
X106414956Y-48399437D01*
X106414956Y-48399439D01*
X106399215Y-48518999D01*
X106370948Y-48582895D01*
X106363957Y-48590494D01*
X96197081Y-58757371D01*
X96135758Y-58790856D01*
X96066066Y-58785872D01*
X96010133Y-58744000D01*
X95985716Y-58678536D01*
X95985400Y-58669690D01*
X95985400Y-56869406D01*
X95985399Y-56869401D01*
X95977939Y-56846443D01*
X95973395Y-56827519D01*
X95971163Y-56813424D01*
X95969619Y-56803674D01*
X95958657Y-56782162D01*
X95951209Y-56764179D01*
X95943750Y-56741220D01*
X95943750Y-56741219D01*
X95929553Y-56721678D01*
X95919391Y-56705096D01*
X95908428Y-56683580D01*
X95813120Y-56588272D01*
X87187028Y-47962180D01*
X87153543Y-47900857D01*
X87158527Y-47831165D01*
X87200399Y-47775232D01*
X87265863Y-47750815D01*
X87274709Y-47750499D01*
X87294856Y-47750499D01*
X87294864Y-47750499D01*
X87294879Y-47750497D01*
X87294882Y-47750497D01*
X87319987Y-47747586D01*
X87319988Y-47747585D01*
X87319991Y-47747585D01*
X87422765Y-47702206D01*
X87502206Y-47622765D01*
X87547585Y-47519991D01*
X87550500Y-47494865D01*
X87550499Y-46600000D01*
X90324571Y-46600000D01*
X90344244Y-46812310D01*
X90400412Y-47009718D01*
X90402596Y-47017392D01*
X90402596Y-47017394D01*
X90497632Y-47208253D01*
X90626127Y-47378406D01*
X90626128Y-47378407D01*
X90783698Y-47522052D01*
X90964981Y-47634298D01*
X91163802Y-47711321D01*
X91373390Y-47750500D01*
X91373392Y-47750500D01*
X91586608Y-47750500D01*
X91586610Y-47750500D01*
X91796198Y-47711321D01*
X91995019Y-47634298D01*
X92176302Y-47522052D01*
X92333872Y-47378407D01*
X92462366Y-47208255D01*
X92523798Y-47084882D01*
X92557403Y-47017394D01*
X92557403Y-47017393D01*
X92557405Y-47017389D01*
X92615756Y-46812310D01*
X92626529Y-46696047D01*
X92652315Y-46631111D01*
X92694622Y-46600804D01*
X92803130Y-46600804D01*
X92839503Y-46621668D01*
X92871693Y-46683681D01*
X92873470Y-46696047D01*
X92884244Y-46812310D01*
X92940412Y-47009718D01*
X92942596Y-47017392D01*
X92942596Y-47017394D01*
X93037632Y-47208253D01*
X93166127Y-47378406D01*
X93166128Y-47378407D01*
X93323698Y-47522052D01*
X93504981Y-47634298D01*
X93703802Y-47711321D01*
X93913390Y-47750500D01*
X93913392Y-47750500D01*
X94126608Y-47750500D01*
X94126610Y-47750500D01*
X94336198Y-47711321D01*
X94535019Y-47634298D01*
X94716302Y-47522052D01*
X94873872Y-47378407D01*
X95002366Y-47208255D01*
X95063798Y-47084882D01*
X95097403Y-47017394D01*
X95097403Y-47017393D01*
X95097405Y-47017389D01*
X95155756Y-46812310D01*
X95166529Y-46696047D01*
X95192315Y-46631111D01*
X95234622Y-46600804D01*
X95343130Y-46600804D01*
X95379503Y-46621668D01*
X95411693Y-46683681D01*
X95413470Y-46696047D01*
X95424244Y-46812310D01*
X95480412Y-47009718D01*
X95482596Y-47017392D01*
X95482596Y-47017394D01*
X95577632Y-47208253D01*
X95706127Y-47378406D01*
X95706128Y-47378407D01*
X95863698Y-47522052D01*
X96044981Y-47634298D01*
X96243802Y-47711321D01*
X96453390Y-47750500D01*
X96453392Y-47750500D01*
X96666608Y-47750500D01*
X96666610Y-47750500D01*
X96876198Y-47711321D01*
X97075019Y-47634298D01*
X97256302Y-47522052D01*
X97413872Y-47378407D01*
X97542366Y-47208255D01*
X97603798Y-47084882D01*
X97637403Y-47017394D01*
X97637403Y-47017393D01*
X97637405Y-47017389D01*
X97695756Y-46812310D01*
X97706529Y-46696047D01*
X97732315Y-46631111D01*
X97774622Y-46600804D01*
X97883130Y-46600804D01*
X97919503Y-46621668D01*
X97951693Y-46683681D01*
X97953470Y-46696047D01*
X97964244Y-46812310D01*
X98020412Y-47009718D01*
X98022596Y-47017392D01*
X98022596Y-47017394D01*
X98117632Y-47208253D01*
X98246127Y-47378406D01*
X98246128Y-47378407D01*
X98403698Y-47522052D01*
X98584981Y-47634298D01*
X98783802Y-47711321D01*
X98993390Y-47750500D01*
X98993392Y-47750500D01*
X99206608Y-47750500D01*
X99206610Y-47750500D01*
X99416198Y-47711321D01*
X99615019Y-47634298D01*
X99796302Y-47522052D01*
X99953872Y-47378407D01*
X100082366Y-47208255D01*
X100143798Y-47084882D01*
X100177403Y-47017394D01*
X100177403Y-47017392D01*
X100177405Y-47017389D01*
X100198928Y-46941744D01*
X100236206Y-46882653D01*
X100299515Y-46853095D01*
X100368755Y-46862457D01*
X100421942Y-46907766D01*
X100437968Y-46943587D01*
X100460894Y-47029150D01*
X100460898Y-47029159D01*
X100553333Y-47227387D01*
X100678787Y-47406554D01*
X100833445Y-47561212D01*
X101012612Y-47686666D01*
X101210843Y-47779103D01*
X101390000Y-47827106D01*
X101390000Y-47035501D01*
X101497685Y-47084680D01*
X101604237Y-47100000D01*
X101675763Y-47100000D01*
X101782315Y-47084680D01*
X101890000Y-47035501D01*
X101890000Y-47827105D01*
X102069156Y-47779103D01*
X102069157Y-47779103D01*
X102267387Y-47686666D01*
X102446554Y-47561212D01*
X102601212Y-47406554D01*
X102726666Y-47227387D01*
X102819101Y-47029159D01*
X102819106Y-47029148D01*
X102842031Y-46943588D01*
X102878395Y-46883927D01*
X102941242Y-46853397D01*
X103010617Y-46861691D01*
X103064496Y-46906176D01*
X103081072Y-46941745D01*
X103100412Y-47009718D01*
X103102596Y-47017392D01*
X103102596Y-47017394D01*
X103197632Y-47208253D01*
X103326127Y-47378406D01*
X103326128Y-47378407D01*
X103483698Y-47522052D01*
X103664981Y-47634298D01*
X103863802Y-47711321D01*
X104073390Y-47750500D01*
X104073392Y-47750500D01*
X104286608Y-47750500D01*
X104286610Y-47750500D01*
X104496198Y-47711321D01*
X104695019Y-47634298D01*
X104876302Y-47522052D01*
X105033872Y-47378407D01*
X105162366Y-47208255D01*
X105162953Y-47207077D01*
X105219144Y-47094229D01*
X105266646Y-47042992D01*
X105330144Y-47025500D01*
X105424292Y-47025500D01*
X105424293Y-47025500D01*
X105447260Y-47018036D01*
X105466176Y-47013495D01*
X105490026Y-47009719D01*
X105511536Y-46998757D01*
X105529514Y-46991310D01*
X105552481Y-46983849D01*
X105572018Y-46969653D01*
X105588606Y-46959488D01*
X105610120Y-46948528D01*
X105705428Y-46853220D01*
X105705428Y-46853219D01*
X108379928Y-44178719D01*
X108441251Y-44145234D01*
X108467609Y-44142400D01*
X113961492Y-44142400D01*
X113961493Y-44142400D01*
X113984460Y-44134936D01*
X114003376Y-44130395D01*
X114027226Y-44126619D01*
X114048736Y-44115657D01*
X114066714Y-44108210D01*
X114089681Y-44100749D01*
X114109218Y-44086553D01*
X114125806Y-44076388D01*
X114147320Y-44065428D01*
X114242628Y-43970120D01*
X114873468Y-43339278D01*
X114934789Y-43305795D01*
X115004480Y-43310779D01*
X115044682Y-43335322D01*
X115183698Y-43462052D01*
X115364981Y-43574298D01*
X115563802Y-43651321D01*
X115773390Y-43690500D01*
X115773392Y-43690500D01*
X115986608Y-43690500D01*
X115986610Y-43690500D01*
X116196198Y-43651321D01*
X116395019Y-43574298D01*
X116576302Y-43462052D01*
X116733872Y-43318407D01*
X116862366Y-43148255D01*
X116866934Y-43139082D01*
X116957403Y-42957394D01*
X116957403Y-42957393D01*
X116957405Y-42957389D01*
X117015756Y-42752310D01*
X117026529Y-42636047D01*
X117052315Y-42571111D01*
X117096869Y-42539194D01*
X117060497Y-42518331D01*
X117028307Y-42456318D01*
X117026529Y-42443951D01*
X117020969Y-42383951D01*
X117015756Y-42327690D01*
X116957405Y-42122611D01*
X116957403Y-42122606D01*
X116957403Y-42122605D01*
X116862367Y-41931746D01*
X116733872Y-41761593D01*
X116661737Y-41695833D01*
X116576302Y-41617948D01*
X116395019Y-41505702D01*
X116395017Y-41505701D01*
X116295608Y-41467190D01*
X116196198Y-41428679D01*
X115986610Y-41389500D01*
X115773390Y-41389500D01*
X115563802Y-41428679D01*
X115563799Y-41428679D01*
X115563799Y-41428680D01*
X115364982Y-41505701D01*
X115364980Y-41505702D01*
X115183699Y-41617947D01*
X115026127Y-41761593D01*
X114897632Y-41931746D01*
X114842061Y-42043350D01*
X114794558Y-42094588D01*
X114726895Y-42112009D01*
X114711663Y-42110552D01*
X114703102Y-42109196D01*
X114703099Y-42109196D01*
X114686356Y-42111848D01*
X114669612Y-42114500D01*
X114669611Y-42114500D01*
X114569977Y-42130279D01*
X114562830Y-42133921D01*
X114494159Y-42146812D01*
X114429421Y-42120532D01*
X114395542Y-42078703D01*
X114322367Y-41931746D01*
X114193872Y-41761593D01*
X114121737Y-41695833D01*
X114036302Y-41617948D01*
X113855019Y-41505702D01*
X113855017Y-41505701D01*
X113755608Y-41467190D01*
X113656198Y-41428679D01*
X113446610Y-41389500D01*
X113233390Y-41389500D01*
X113023802Y-41428679D01*
X113023799Y-41428679D01*
X113023799Y-41428680D01*
X112824982Y-41505701D01*
X112824980Y-41505702D01*
X112643699Y-41617947D01*
X112486127Y-41761593D01*
X112357632Y-41931746D01*
X112262596Y-42122605D01*
X112262596Y-42122607D01*
X112204244Y-42327689D01*
X112193471Y-42443951D01*
X112167685Y-42508888D01*
X112123130Y-42540804D01*
X112159503Y-42561668D01*
X112191693Y-42623681D01*
X112193471Y-42636048D01*
X112204244Y-42752310D01*
X112262596Y-42957392D01*
X112262596Y-42957394D01*
X112339645Y-43112129D01*
X112351906Y-43180914D01*
X112325033Y-43245409D01*
X112267557Y-43285137D01*
X112228645Y-43291400D01*
X111911355Y-43291400D01*
X111844316Y-43271715D01*
X111798561Y-43218911D01*
X111788617Y-43149753D01*
X111800355Y-43112129D01*
X111877403Y-42957394D01*
X111877403Y-42957393D01*
X111877405Y-42957389D01*
X111935756Y-42752310D01*
X111946529Y-42636047D01*
X111972315Y-42571111D01*
X112016869Y-42539194D01*
X111980497Y-42518331D01*
X111948307Y-42456318D01*
X111946529Y-42443951D01*
X111940969Y-42383951D01*
X111935756Y-42327690D01*
X111877405Y-42122611D01*
X111877403Y-42122606D01*
X111877403Y-42122605D01*
X111782367Y-41931746D01*
X111653872Y-41761593D01*
X111581737Y-41695833D01*
X111496302Y-41617948D01*
X111315019Y-41505702D01*
X111315017Y-41505701D01*
X111215608Y-41467190D01*
X111116198Y-41428679D01*
X110906610Y-41389500D01*
X110693390Y-41389500D01*
X110483802Y-41428679D01*
X110483799Y-41428679D01*
X110483799Y-41428680D01*
X110284982Y-41505701D01*
X110284980Y-41505702D01*
X110103699Y-41617947D01*
X109946127Y-41761593D01*
X109817632Y-41931746D01*
X109722596Y-42122605D01*
X109722596Y-42122607D01*
X109664244Y-42327689D01*
X109653471Y-42443951D01*
X109627685Y-42508888D01*
X109583130Y-42540804D01*
X109619503Y-42561668D01*
X109651693Y-42623681D01*
X109653471Y-42636048D01*
X109664244Y-42752310D01*
X109722596Y-42957392D01*
X109722596Y-42957394D01*
X109799645Y-43112129D01*
X109811906Y-43180914D01*
X109785033Y-43245409D01*
X109727557Y-43285137D01*
X109688645Y-43291400D01*
X109371355Y-43291400D01*
X109304316Y-43271715D01*
X109258561Y-43218911D01*
X109248617Y-43149753D01*
X109260355Y-43112129D01*
X109337403Y-42957394D01*
X109337403Y-42957393D01*
X109337405Y-42957389D01*
X109395756Y-42752310D01*
X109406529Y-42636047D01*
X109432315Y-42571111D01*
X109476869Y-42539194D01*
X109440497Y-42518331D01*
X109408307Y-42456318D01*
X109406529Y-42443951D01*
X109400969Y-42383951D01*
X109395756Y-42327690D01*
X109337405Y-42122611D01*
X109337403Y-42122606D01*
X109337403Y-42122605D01*
X109242367Y-41931746D01*
X109113872Y-41761593D01*
X109041737Y-41695833D01*
X108956302Y-41617948D01*
X108775019Y-41505702D01*
X108775017Y-41505701D01*
X108675608Y-41467190D01*
X108576198Y-41428679D01*
X108366610Y-41389500D01*
X108153390Y-41389500D01*
X107943802Y-41428679D01*
X107943799Y-41428679D01*
X107943799Y-41428680D01*
X107744982Y-41505701D01*
X107744980Y-41505702D01*
X107563699Y-41617947D01*
X107406127Y-41761593D01*
X107277632Y-41931746D01*
X107182596Y-42122605D01*
X107182596Y-42122607D01*
X107124244Y-42327689D01*
X107113471Y-42443951D01*
X107087685Y-42508888D01*
X107043130Y-42540804D01*
X107079503Y-42561668D01*
X107111693Y-42623681D01*
X107113471Y-42636048D01*
X107124244Y-42752310D01*
X107182596Y-42957392D01*
X107182596Y-42957394D01*
X107277632Y-43148253D01*
X107405930Y-43318145D01*
X107406128Y-43318407D01*
X107563698Y-43462052D01*
X107563700Y-43462053D01*
X107563701Y-43462054D01*
X107634035Y-43505603D01*
X107680671Y-43557631D01*
X107691775Y-43626612D01*
X107663822Y-43690647D01*
X107656439Y-43698711D01*
X105349625Y-46005525D01*
X105288302Y-46039010D01*
X105218610Y-46034026D01*
X105162990Y-45992571D01*
X105033872Y-45821593D01*
X104984514Y-45776597D01*
X104876302Y-45677948D01*
X104695019Y-45565702D01*
X104695017Y-45565701D01*
X104559838Y-45513333D01*
X104496198Y-45488679D01*
X104286610Y-45449500D01*
X104073390Y-45449500D01*
X103863802Y-45488679D01*
X103863799Y-45488679D01*
X103863799Y-45488680D01*
X103664982Y-45565701D01*
X103664980Y-45565702D01*
X103483699Y-45677947D01*
X103326127Y-45821593D01*
X103197632Y-45991746D01*
X103102597Y-46182605D01*
X103081072Y-46258255D01*
X103043792Y-46317348D01*
X102980482Y-46346905D01*
X102911242Y-46337541D01*
X102858056Y-46292231D01*
X102842031Y-46256412D01*
X102819105Y-46170849D01*
X102819101Y-46170840D01*
X102726666Y-45972612D01*
X102726664Y-45972608D01*
X102601216Y-45793450D01*
X102601211Y-45793444D01*
X102446554Y-45638787D01*
X102267387Y-45513333D01*
X102069159Y-45420898D01*
X102069150Y-45420894D01*
X101890000Y-45372891D01*
X101890000Y-46164498D01*
X101782315Y-46115320D01*
X101675763Y-46100000D01*
X101604237Y-46100000D01*
X101497685Y-46115320D01*
X101390000Y-46164498D01*
X101390000Y-45372892D01*
X101389999Y-45372891D01*
X101210849Y-45420894D01*
X101210840Y-45420898D01*
X101012612Y-45513333D01*
X101012608Y-45513335D01*
X100833450Y-45638783D01*
X100833444Y-45638788D01*
X100678788Y-45793444D01*
X100678783Y-45793450D01*
X100553335Y-45972608D01*
X100553333Y-45972612D01*
X100460898Y-46170840D01*
X100460895Y-46170847D01*
X100437968Y-46256413D01*
X100401603Y-46316073D01*
X100338756Y-46346602D01*
X100269380Y-46338307D01*
X100215502Y-46293822D01*
X100198927Y-46258253D01*
X100177405Y-46182611D01*
X100177403Y-46182608D01*
X100177403Y-46182605D01*
X100082367Y-45991746D01*
X99953872Y-45821593D01*
X99904514Y-45776597D01*
X99796302Y-45677948D01*
X99615019Y-45565702D01*
X99615017Y-45565701D01*
X99479838Y-45513333D01*
X99416198Y-45488679D01*
X99206610Y-45449500D01*
X98993390Y-45449500D01*
X98783802Y-45488679D01*
X98783799Y-45488679D01*
X98783799Y-45488680D01*
X98584982Y-45565701D01*
X98584980Y-45565702D01*
X98403699Y-45677947D01*
X98246127Y-45821593D01*
X98117632Y-45991746D01*
X98022596Y-46182605D01*
X98022596Y-46182607D01*
X97964244Y-46387689D01*
X97953471Y-46503951D01*
X97927685Y-46568888D01*
X97883130Y-46600804D01*
X97774622Y-46600804D01*
X97776869Y-46599194D01*
X97740497Y-46578331D01*
X97708307Y-46516318D01*
X97706529Y-46503951D01*
X97705849Y-46496613D01*
X97695756Y-46387690D01*
X97637405Y-46182611D01*
X97637403Y-46182606D01*
X97637403Y-46182605D01*
X97542367Y-45991746D01*
X97413872Y-45821593D01*
X97364514Y-45776597D01*
X97256302Y-45677948D01*
X97075019Y-45565702D01*
X97075017Y-45565701D01*
X96939838Y-45513333D01*
X96876198Y-45488679D01*
X96666610Y-45449500D01*
X96453390Y-45449500D01*
X96243802Y-45488679D01*
X96243799Y-45488679D01*
X96243799Y-45488680D01*
X96044982Y-45565701D01*
X96044980Y-45565702D01*
X95863699Y-45677947D01*
X95706127Y-45821593D01*
X95577632Y-45991746D01*
X95482596Y-46182605D01*
X95482596Y-46182607D01*
X95424244Y-46387689D01*
X95413471Y-46503951D01*
X95387685Y-46568888D01*
X95343130Y-46600804D01*
X95234622Y-46600804D01*
X95236869Y-46599194D01*
X95200497Y-46578331D01*
X95168307Y-46516318D01*
X95166529Y-46503951D01*
X95165849Y-46496613D01*
X95155756Y-46387690D01*
X95097405Y-46182611D01*
X95097403Y-46182606D01*
X95097403Y-46182605D01*
X95002367Y-45991746D01*
X94873872Y-45821593D01*
X94824514Y-45776597D01*
X94716302Y-45677948D01*
X94535019Y-45565702D01*
X94535017Y-45565701D01*
X94399838Y-45513333D01*
X94336198Y-45488679D01*
X94126610Y-45449500D01*
X93913390Y-45449500D01*
X93703802Y-45488679D01*
X93703799Y-45488679D01*
X93703799Y-45488680D01*
X93504982Y-45565701D01*
X93504980Y-45565702D01*
X93323699Y-45677947D01*
X93166127Y-45821593D01*
X93037632Y-45991746D01*
X92942596Y-46182605D01*
X92942596Y-46182607D01*
X92884244Y-46387689D01*
X92873471Y-46503951D01*
X92847685Y-46568888D01*
X92803130Y-46600804D01*
X92694622Y-46600804D01*
X92696869Y-46599194D01*
X92660497Y-46578331D01*
X92628307Y-46516318D01*
X92626529Y-46503951D01*
X92625849Y-46496613D01*
X92615756Y-46387690D01*
X92557405Y-46182611D01*
X92557403Y-46182606D01*
X92557403Y-46182605D01*
X92462367Y-45991746D01*
X92333872Y-45821593D01*
X92284514Y-45776597D01*
X92176302Y-45677948D01*
X91995019Y-45565702D01*
X91995017Y-45565701D01*
X91859838Y-45513333D01*
X91796198Y-45488679D01*
X91586610Y-45449500D01*
X91373390Y-45449500D01*
X91163802Y-45488679D01*
X91163799Y-45488679D01*
X91163799Y-45488680D01*
X90964982Y-45565701D01*
X90964980Y-45565702D01*
X90783699Y-45677947D01*
X90626127Y-45821593D01*
X90497632Y-45991746D01*
X90402596Y-46182605D01*
X90402596Y-46182607D01*
X90344244Y-46387689D01*
X90324595Y-46599746D01*
X90324571Y-46600000D01*
X87550499Y-46600000D01*
X87550499Y-45705136D01*
X87550497Y-45705117D01*
X87547586Y-45680012D01*
X87547585Y-45680010D01*
X87547585Y-45680009D01*
X87502206Y-45577235D01*
X87422765Y-45497794D01*
X87402124Y-45488680D01*
X87319992Y-45452415D01*
X87294868Y-45449500D01*
X87294865Y-45449500D01*
X86264309Y-45449500D01*
X86197270Y-45429815D01*
X86151515Y-45377011D01*
X86141571Y-45307853D01*
X86170596Y-45244297D01*
X86176628Y-45237819D01*
X87235729Y-44178719D01*
X87297052Y-44145234D01*
X87323410Y-44142400D01*
X92121492Y-44142400D01*
X92121493Y-44142400D01*
X92144460Y-44134936D01*
X92163376Y-44130395D01*
X92187226Y-44126619D01*
X92208736Y-44115657D01*
X92226714Y-44108210D01*
X92249681Y-44100749D01*
X92269218Y-44086553D01*
X92285806Y-44076388D01*
X92307320Y-44065428D01*
X92402628Y-43970120D01*
X93033468Y-43339278D01*
X93094789Y-43305795D01*
X93164480Y-43310779D01*
X93204682Y-43335322D01*
X93343698Y-43462052D01*
X93524981Y-43574298D01*
X93723802Y-43651321D01*
X93933390Y-43690500D01*
X93933392Y-43690500D01*
X94146608Y-43690500D01*
X94146610Y-43690500D01*
X94356198Y-43651321D01*
X94555019Y-43574298D01*
X94736302Y-43462052D01*
X94893872Y-43318407D01*
X95022366Y-43148255D01*
X95026934Y-43139082D01*
X95117403Y-42957394D01*
X95117403Y-42957393D01*
X95117405Y-42957389D01*
X95175756Y-42752310D01*
X95186529Y-42636047D01*
X95212315Y-42571111D01*
X95254622Y-42540804D01*
X95363130Y-42540804D01*
X95399503Y-42561668D01*
X95431693Y-42623681D01*
X95433471Y-42636048D01*
X95444244Y-42752310D01*
X95502596Y-42957392D01*
X95502596Y-42957394D01*
X95597632Y-43148253D01*
X95725930Y-43318145D01*
X95726128Y-43318407D01*
X95883698Y-43462052D01*
X96064981Y-43574298D01*
X96263802Y-43651321D01*
X96473390Y-43690500D01*
X96473392Y-43690500D01*
X96686608Y-43690500D01*
X96686610Y-43690500D01*
X96896198Y-43651321D01*
X97095019Y-43574298D01*
X97276302Y-43462052D01*
X97433872Y-43318407D01*
X97562366Y-43148255D01*
X97566934Y-43139082D01*
X97657403Y-42957394D01*
X97657403Y-42957393D01*
X97657405Y-42957389D01*
X97715756Y-42752310D01*
X97726529Y-42636047D01*
X97752315Y-42571111D01*
X97794622Y-42540804D01*
X97903130Y-42540804D01*
X97939503Y-42561668D01*
X97971693Y-42623681D01*
X97973471Y-42636048D01*
X97984244Y-42752310D01*
X98042596Y-42957392D01*
X98042596Y-42957394D01*
X98137632Y-43148253D01*
X98265930Y-43318145D01*
X98266128Y-43318407D01*
X98423698Y-43462052D01*
X98604981Y-43574298D01*
X98803802Y-43651321D01*
X99013390Y-43690500D01*
X99013392Y-43690500D01*
X99226608Y-43690500D01*
X99226610Y-43690500D01*
X99436198Y-43651321D01*
X99635019Y-43574298D01*
X99816302Y-43462052D01*
X99973872Y-43318407D01*
X100102366Y-43148255D01*
X100106934Y-43139082D01*
X100197403Y-42957394D01*
X100197403Y-42957393D01*
X100197405Y-42957389D01*
X100255756Y-42752310D01*
X100262029Y-42684605D01*
X100287814Y-42619669D01*
X100344614Y-42578981D01*
X100414395Y-42575461D01*
X100475002Y-42610225D01*
X100507193Y-42672238D01*
X100509500Y-42696047D01*
X100509500Y-43434856D01*
X100509502Y-43434882D01*
X100512413Y-43459987D01*
X100512415Y-43459991D01*
X100557793Y-43562764D01*
X100557794Y-43562765D01*
X100637235Y-43642206D01*
X100740009Y-43687585D01*
X100765135Y-43690500D01*
X102554864Y-43690499D01*
X102554879Y-43690497D01*
X102554882Y-43690497D01*
X102579987Y-43687586D01*
X102579988Y-43687585D01*
X102579991Y-43687585D01*
X102682765Y-43642206D01*
X102762206Y-43562765D01*
X102807585Y-43459991D01*
X102810500Y-43434865D01*
X102810499Y-42540000D01*
X104564571Y-42540000D01*
X104584244Y-42752310D01*
X104642596Y-42957392D01*
X104642596Y-42957394D01*
X104737632Y-43148253D01*
X104865930Y-43318145D01*
X104866128Y-43318407D01*
X105023698Y-43462052D01*
X105204981Y-43574298D01*
X105403802Y-43651321D01*
X105613390Y-43690500D01*
X105613392Y-43690500D01*
X105826608Y-43690500D01*
X105826610Y-43690500D01*
X106036198Y-43651321D01*
X106235019Y-43574298D01*
X106416302Y-43462052D01*
X106573872Y-43318407D01*
X106702366Y-43148255D01*
X106706934Y-43139082D01*
X106797403Y-42957394D01*
X106797403Y-42957393D01*
X106797405Y-42957389D01*
X106855756Y-42752310D01*
X106866529Y-42636047D01*
X106892315Y-42571111D01*
X106936869Y-42539194D01*
X106900497Y-42518331D01*
X106868307Y-42456318D01*
X106866529Y-42443951D01*
X106860969Y-42383951D01*
X106855756Y-42327690D01*
X106797405Y-42122611D01*
X106797403Y-42122606D01*
X106797403Y-42122605D01*
X106702367Y-41931746D01*
X106573872Y-41761593D01*
X106501737Y-41695833D01*
X106416302Y-41617948D01*
X106235019Y-41505702D01*
X106235017Y-41505701D01*
X106135608Y-41467190D01*
X106036198Y-41428679D01*
X105826610Y-41389500D01*
X105613390Y-41389500D01*
X105403802Y-41428679D01*
X105403799Y-41428679D01*
X105403799Y-41428680D01*
X105204982Y-41505701D01*
X105204980Y-41505702D01*
X105023699Y-41617947D01*
X104866127Y-41761593D01*
X104737632Y-41931746D01*
X104642596Y-42122605D01*
X104642596Y-42122607D01*
X104584244Y-42327689D01*
X104564571Y-42539999D01*
X104564571Y-42540000D01*
X102810499Y-42540000D01*
X102810499Y-41645136D01*
X102810422Y-41644471D01*
X102807586Y-41620012D01*
X102807585Y-41620010D01*
X102807585Y-41620009D01*
X102762206Y-41517235D01*
X102682765Y-41437794D01*
X102662124Y-41428680D01*
X102579992Y-41392415D01*
X102554865Y-41389500D01*
X100765143Y-41389500D01*
X100765117Y-41389502D01*
X100740012Y-41392413D01*
X100740008Y-41392415D01*
X100637235Y-41437793D01*
X100557794Y-41517234D01*
X100512415Y-41620006D01*
X100512415Y-41620008D01*
X100509500Y-41645131D01*
X100509500Y-42383951D01*
X100489815Y-42450990D01*
X100437011Y-42496745D01*
X100367853Y-42506689D01*
X100304297Y-42477664D01*
X100266523Y-42418886D01*
X100262029Y-42395391D01*
X100255756Y-42327689D01*
X100220274Y-42202986D01*
X100197405Y-42122611D01*
X100197403Y-42122606D01*
X100197403Y-42122605D01*
X100102367Y-41931746D01*
X99973872Y-41761593D01*
X99901737Y-41695833D01*
X99816302Y-41617948D01*
X99635019Y-41505702D01*
X99635017Y-41505701D01*
X99535608Y-41467190D01*
X99436198Y-41428679D01*
X99226610Y-41389500D01*
X99013390Y-41389500D01*
X98803802Y-41428679D01*
X98803799Y-41428679D01*
X98803799Y-41428680D01*
X98604982Y-41505701D01*
X98604980Y-41505702D01*
X98423699Y-41617947D01*
X98266127Y-41761593D01*
X98137632Y-41931746D01*
X98042596Y-42122605D01*
X98042596Y-42122607D01*
X97984244Y-42327689D01*
X97973471Y-42443951D01*
X97947685Y-42508888D01*
X97903130Y-42540804D01*
X97794622Y-42540804D01*
X97796869Y-42539194D01*
X97760497Y-42518331D01*
X97728307Y-42456318D01*
X97726529Y-42443951D01*
X97720969Y-42383951D01*
X97715756Y-42327690D01*
X97657405Y-42122611D01*
X97657403Y-42122606D01*
X97657403Y-42122605D01*
X97562367Y-41931746D01*
X97433872Y-41761593D01*
X97361737Y-41695833D01*
X97276302Y-41617948D01*
X97095019Y-41505702D01*
X97095017Y-41505701D01*
X96995608Y-41467190D01*
X96896198Y-41428679D01*
X96686610Y-41389500D01*
X96473390Y-41389500D01*
X96263802Y-41428679D01*
X96263799Y-41428679D01*
X96263799Y-41428680D01*
X96064982Y-41505701D01*
X96064980Y-41505702D01*
X95883699Y-41617947D01*
X95726127Y-41761593D01*
X95597632Y-41931746D01*
X95502596Y-42122605D01*
X95502596Y-42122607D01*
X95444244Y-42327689D01*
X95433471Y-42443951D01*
X95407685Y-42508888D01*
X95363130Y-42540804D01*
X95254622Y-42540804D01*
X95256869Y-42539194D01*
X95220497Y-42518331D01*
X95188307Y-42456318D01*
X95186529Y-42443951D01*
X95180969Y-42383951D01*
X95175756Y-42327690D01*
X95117405Y-42122611D01*
X95117403Y-42122606D01*
X95117403Y-42122605D01*
X95022367Y-41931746D01*
X94893872Y-41761593D01*
X94821737Y-41695833D01*
X94736302Y-41617948D01*
X94555019Y-41505702D01*
X94555017Y-41505701D01*
X94455608Y-41467190D01*
X94356198Y-41428679D01*
X94146610Y-41389500D01*
X93933390Y-41389500D01*
X93723802Y-41428679D01*
X93723799Y-41428679D01*
X93723799Y-41428680D01*
X93524982Y-41505701D01*
X93524980Y-41505702D01*
X93343699Y-41617947D01*
X93186127Y-41761593D01*
X93057632Y-41931746D01*
X93002061Y-42043350D01*
X92954558Y-42094588D01*
X92886895Y-42112009D01*
X92871663Y-42110552D01*
X92863102Y-42109196D01*
X92863099Y-42109196D01*
X92846356Y-42111848D01*
X92829612Y-42114500D01*
X92829611Y-42114500D01*
X92729977Y-42130279D01*
X92722830Y-42133921D01*
X92654159Y-42146812D01*
X92589421Y-42120532D01*
X92555542Y-42078703D01*
X92482367Y-41931746D01*
X92353872Y-41761593D01*
X92281737Y-41695833D01*
X92196302Y-41617948D01*
X92015019Y-41505702D01*
X92015017Y-41505701D01*
X91915608Y-41467190D01*
X91816198Y-41428679D01*
X91606610Y-41389500D01*
X91393390Y-41389500D01*
X91183802Y-41428679D01*
X91183799Y-41428679D01*
X91183799Y-41428680D01*
X90984982Y-41505701D01*
X90984980Y-41505702D01*
X90803699Y-41617947D01*
X90646127Y-41761593D01*
X90517632Y-41931746D01*
X90422596Y-42122605D01*
X90422596Y-42122607D01*
X90364244Y-42327689D01*
X90353471Y-42443951D01*
X90327685Y-42508888D01*
X90283130Y-42540804D01*
X90319503Y-42561668D01*
X90351693Y-42623681D01*
X90353471Y-42636048D01*
X90364244Y-42752310D01*
X90422596Y-42957392D01*
X90422596Y-42957394D01*
X90499645Y-43112129D01*
X90511906Y-43180914D01*
X90485033Y-43245409D01*
X90427557Y-43285137D01*
X90388645Y-43291400D01*
X90071355Y-43291400D01*
X90004316Y-43271715D01*
X89958561Y-43218911D01*
X89948617Y-43149753D01*
X89960355Y-43112129D01*
X90037403Y-42957394D01*
X90037403Y-42957393D01*
X90037405Y-42957389D01*
X90095756Y-42752310D01*
X90106529Y-42636047D01*
X90132315Y-42571111D01*
X90176869Y-42539194D01*
X90140497Y-42518331D01*
X90108307Y-42456318D01*
X90106529Y-42443951D01*
X90100969Y-42383951D01*
X90095756Y-42327690D01*
X90037405Y-42122611D01*
X90037403Y-42122606D01*
X90037403Y-42122605D01*
X89942367Y-41931746D01*
X89813872Y-41761593D01*
X89741737Y-41695833D01*
X89656302Y-41617948D01*
X89475019Y-41505702D01*
X89475017Y-41505701D01*
X89375608Y-41467190D01*
X89276198Y-41428679D01*
X89066610Y-41389500D01*
X88853390Y-41389500D01*
X88643802Y-41428679D01*
X88643799Y-41428679D01*
X88643799Y-41428680D01*
X88444982Y-41505701D01*
X88444980Y-41505702D01*
X88263699Y-41617947D01*
X88106127Y-41761593D01*
X87977632Y-41931746D01*
X87882596Y-42122605D01*
X87882596Y-42122607D01*
X87824244Y-42327689D01*
X87804571Y-42539999D01*
X87804571Y-42540000D01*
X87824244Y-42752310D01*
X87882596Y-42957392D01*
X87882596Y-42957394D01*
X87959645Y-43112129D01*
X87971906Y-43180914D01*
X87945033Y-43245409D01*
X87887557Y-43285137D01*
X87848645Y-43291400D01*
X87163193Y-43291400D01*
X87028407Y-43291400D01*
X87028405Y-43291400D01*
X87028401Y-43291401D01*
X87005442Y-43298861D01*
X86986524Y-43303403D01*
X86962678Y-43307179D01*
X86962670Y-43307182D01*
X86941152Y-43318145D01*
X86923189Y-43325586D01*
X86900217Y-43333051D01*
X86900216Y-43333051D01*
X86880684Y-43347242D01*
X86864103Y-43357404D01*
X86842580Y-43368372D01*
X86842579Y-43368372D01*
X82832546Y-47378406D01*
X78870580Y-51340372D01*
X78840218Y-51370734D01*
X78775271Y-51435680D01*
X78764310Y-51457193D01*
X78754146Y-51473778D01*
X78739952Y-51493314D01*
X78739951Y-51493317D01*
X78732488Y-51516285D01*
X78725043Y-51534258D01*
X78714080Y-51555773D01*
X78710303Y-51579622D01*
X78705762Y-51598539D01*
X78698300Y-51621504D01*
X78698300Y-83325999D01*
X78678615Y-83393038D01*
X78672676Y-83401485D01*
X78599264Y-83497157D01*
X78538756Y-83643237D01*
X78538755Y-83643239D01*
X78518118Y-83799998D01*
X78518118Y-83800001D01*
X68368043Y-83800001D01*
X75462013Y-76706031D01*
X75474579Y-76695965D01*
X75474425Y-76695778D01*
X75480433Y-76690805D01*
X75480440Y-76690802D01*
X75503727Y-76666002D01*
X75528365Y-76639767D01*
X75531078Y-76636967D01*
X75551411Y-76616635D01*
X75554106Y-76613160D01*
X75561699Y-76604269D01*
X75574309Y-76590841D01*
X75592948Y-76570993D01*
X75603174Y-76552390D01*
X75613853Y-76536133D01*
X75626862Y-76519364D01*
X75644998Y-76477450D01*
X75650120Y-76466995D01*
X75672127Y-76426968D01*
X75677407Y-76406402D01*
X75683709Y-76387995D01*
X75692135Y-76368526D01*
X75699277Y-76323424D01*
X75701645Y-76311997D01*
X75708131Y-76286738D01*
X75713000Y-76267777D01*
X75713000Y-76246555D01*
X75714527Y-76227155D01*
X75715617Y-76220271D01*
X75717847Y-76206195D01*
X75713550Y-76160740D01*
X75713000Y-76149070D01*
X75713000Y-67950034D01*
X75721058Y-67906063D01*
X75747639Y-67835975D01*
X75747640Y-67835970D01*
X75768145Y-67667100D01*
X75747640Y-67498228D01*
X75687318Y-67339170D01*
X75590683Y-67199171D01*
X75463352Y-67086366D01*
X75463349Y-67086363D01*
X75312726Y-67007310D01*
X75147556Y-66966600D01*
X74977444Y-66966600D01*
X74812273Y-67007310D01*
X74661650Y-67086363D01*
X74534316Y-67199172D01*
X74437682Y-67339168D01*
X74377360Y-67498225D01*
X74377359Y-67498230D01*
X74356855Y-67667100D01*
X74377359Y-67835970D01*
X74377360Y-67835975D01*
X74403942Y-67906063D01*
X74412000Y-67950034D01*
X74412000Y-75864791D01*
X74392315Y-75931830D01*
X74375681Y-75952472D01*
X64600483Y-85727669D01*
X64587910Y-85737743D01*
X64588065Y-85737930D01*
X64582058Y-85742899D01*
X64534133Y-85793933D01*
X64531427Y-85796725D01*
X64511090Y-85817063D01*
X64511077Y-85817078D01*
X64508373Y-85820563D01*
X64500806Y-85829422D01*
X64469552Y-85862707D01*
X64459322Y-85881313D01*
X64448646Y-85897564D01*
X64435640Y-85914332D01*
X64435636Y-85914338D01*
X64417508Y-85956230D01*
X64412369Y-85966719D01*
X64390372Y-86006730D01*
X64390372Y-86006731D01*
X64385091Y-86027299D01*
X64378791Y-86045701D01*
X64370364Y-86065173D01*
X64363223Y-86110262D01*
X64360854Y-86121700D01*
X64349500Y-86165917D01*
X64349500Y-86187144D01*
X64347973Y-86206544D01*
X64344653Y-86227503D01*
X64348950Y-86272958D01*
X64349500Y-86284628D01*
X64349500Y-86375500D01*
X64329815Y-86442539D01*
X64277011Y-86488294D01*
X64225502Y-86499500D01*
X64155143Y-86499500D01*
X64155118Y-86499502D01*
X64130011Y-86502414D01*
X64130008Y-86502415D01*
X64027235Y-86547793D01*
X63947794Y-86627234D01*
X63902415Y-86730006D01*
X63902415Y-86730008D01*
X63899500Y-86755131D01*
X63899500Y-88444856D01*
X60300500Y-88444856D01*
X60300500Y-74920004D01*
X62695233Y-74920004D01*
X62714273Y-75174079D01*
X62770968Y-75422477D01*
X62770973Y-75422494D01*
X62864058Y-75659671D01*
X62864057Y-75659671D01*
X62991454Y-75880327D01*
X62991461Y-75880338D01*
X63033452Y-75932991D01*
X63033453Y-75932992D01*
X63797452Y-75168993D01*
X63807188Y-75198956D01*
X63895186Y-75337619D01*
X64014903Y-75450040D01*
X64149510Y-75524041D01*
X63386813Y-76286738D01*
X63547616Y-76396371D01*
X63547624Y-76396376D01*
X63777176Y-76506921D01*
X63777174Y-76506921D01*
X64020652Y-76582024D01*
X64020658Y-76582026D01*
X64272595Y-76619999D01*
X64272604Y-76620000D01*
X64527396Y-76620000D01*
X64527402Y-76619999D01*
X64720852Y-76590841D01*
X64790077Y-76600314D01*
X64843191Y-76645708D01*
X64863331Y-76712612D01*
X64844103Y-76779784D01*
X64827015Y-76801137D01*
X64000483Y-77627669D01*
X63987910Y-77637743D01*
X63988065Y-77637930D01*
X63982058Y-77642899D01*
X63934133Y-77693933D01*
X63931427Y-77696725D01*
X63911090Y-77717063D01*
X63911077Y-77717078D01*
X63908373Y-77720563D01*
X63900806Y-77729422D01*
X63869552Y-77762707D01*
X63859322Y-77781313D01*
X63848646Y-77797564D01*
X63835640Y-77814332D01*
X63835636Y-77814338D01*
X63817508Y-77856230D01*
X63812369Y-77866719D01*
X63790372Y-77906730D01*
X63790372Y-77906731D01*
X63785091Y-77927299D01*
X63778791Y-77945701D01*
X63770364Y-77965173D01*
X63763223Y-78010262D01*
X63760854Y-78021700D01*
X63749500Y-78065917D01*
X63749500Y-78087144D01*
X63747973Y-78106544D01*
X63744653Y-78127503D01*
X63748950Y-78172958D01*
X63749500Y-78184628D01*
X63749500Y-78275500D01*
X63729815Y-78342539D01*
X63677011Y-78388294D01*
X63625500Y-78399500D01*
X63055143Y-78399500D01*
X63055117Y-78399502D01*
X63030012Y-78402413D01*
X63030008Y-78402415D01*
X62927235Y-78447793D01*
X62847794Y-78527234D01*
X62802415Y-78630006D01*
X62802415Y-78630008D01*
X62799500Y-78655131D01*
X62799500Y-81344856D01*
X62799502Y-81344882D01*
X62802413Y-81369987D01*
X62802415Y-81369991D01*
X62847793Y-81472764D01*
X62847794Y-81472765D01*
X62927235Y-81552206D01*
X63030009Y-81597585D01*
X63055135Y-81600500D01*
X65744864Y-81600499D01*
X65744879Y-81600497D01*
X65744882Y-81600497D01*
X65769987Y-81597586D01*
X65769988Y-81597585D01*
X65769991Y-81597585D01*
X65872765Y-81552206D01*
X65952206Y-81472765D01*
X65997585Y-81369991D01*
X66000500Y-81344865D01*
X66000499Y-78655136D01*
X66000497Y-78655117D01*
X65997586Y-78630012D01*
X65997585Y-78630010D01*
X65997585Y-78630009D01*
X65952206Y-78527235D01*
X65872765Y-78447794D01*
X65872763Y-78447793D01*
X65769992Y-78402415D01*
X65744868Y-78399500D01*
X65744865Y-78399500D01*
X65367907Y-78399500D01*
X65300868Y-78379815D01*
X65255113Y-78327011D01*
X65245169Y-78257853D01*
X65274194Y-78194297D01*
X65280226Y-78187819D01*
X67683411Y-75784634D01*
X70322213Y-73145831D01*
X70334779Y-73135765D01*
X70334625Y-73135578D01*
X70340633Y-73130605D01*
X70340640Y-73130602D01*
X70363927Y-73105802D01*
X70388565Y-73079567D01*
X70391278Y-73076767D01*
X70411611Y-73056435D01*
X70414306Y-73052960D01*
X70421899Y-73044069D01*
X70453148Y-73010793D01*
X70463374Y-72992190D01*
X70474053Y-72975933D01*
X70487062Y-72959164D01*
X70505191Y-72917266D01*
X70510320Y-72906795D01*
X70532327Y-72866768D01*
X70537605Y-72846206D01*
X70543907Y-72827799D01*
X70552335Y-72808327D01*
X70559477Y-72763225D01*
X70561840Y-72751818D01*
X70573200Y-72707577D01*
X70573200Y-72686349D01*
X70574727Y-72666949D01*
X70578046Y-72645995D01*
X70573750Y-72600547D01*
X70573200Y-72588878D01*
X70573200Y-64370434D01*
X70581258Y-64326463D01*
X70607839Y-64256375D01*
X70607840Y-64256370D01*
X70628345Y-64087500D01*
X70607840Y-63918628D01*
X70547518Y-63759570D01*
X70450883Y-63619571D01*
X70323552Y-63506766D01*
X70323549Y-63506763D01*
X70172926Y-63427710D01*
X70007756Y-63387000D01*
X69837644Y-63387000D01*
X69672473Y-63427710D01*
X69521850Y-63506763D01*
X69394516Y-63619572D01*
X69297882Y-63759568D01*
X69237560Y-63918625D01*
X69237559Y-63918630D01*
X69217055Y-64087500D01*
X69237559Y-64256370D01*
X69237560Y-64256375D01*
X69264142Y-64326463D01*
X69272200Y-64370434D01*
X69272200Y-72304591D01*
X69252515Y-72371630D01*
X69235881Y-72392272D01*
X66281138Y-75347014D01*
X66219815Y-75380499D01*
X66150123Y-75375515D01*
X66094190Y-75333643D01*
X66069773Y-75268179D01*
X66072566Y-75231740D01*
X66085726Y-75174079D01*
X66104767Y-74920004D01*
X66104767Y-74919995D01*
X66085726Y-74665920D01*
X66029031Y-74417522D01*
X66029026Y-74417505D01*
X65935941Y-74180328D01*
X65935942Y-74180328D01*
X65808545Y-73959672D01*
X65766545Y-73907006D01*
X65002546Y-74671005D01*
X64992812Y-74641044D01*
X64904814Y-74502381D01*
X64785097Y-74389960D01*
X64650488Y-74315957D01*
X65413185Y-73553260D01*
X65252384Y-73443628D01*
X65252376Y-73443623D01*
X65022823Y-73333078D01*
X65022825Y-73333078D01*
X64779347Y-73257975D01*
X64779341Y-73257973D01*
X64527404Y-73220000D01*
X64272595Y-73220000D01*
X64020658Y-73257973D01*
X64020652Y-73257975D01*
X63777175Y-73333078D01*
X63547622Y-73443625D01*
X63547609Y-73443632D01*
X63386813Y-73553259D01*
X64152466Y-74318912D01*
X64084371Y-74345874D01*
X63951508Y-74442405D01*
X63846825Y-74568945D01*
X63798367Y-74671921D01*
X63033452Y-73907006D01*
X62991457Y-73959667D01*
X62864058Y-74180328D01*
X62770973Y-74417505D01*
X62770968Y-74417522D01*
X62714273Y-74665920D01*
X62695233Y-74919995D01*
X62695233Y-74920004D01*
X60300500Y-74920004D01*
X60300500Y-58306610D01*
X62124500Y-58306610D01*
X62163679Y-58516198D01*
X62163680Y-58516200D01*
X62236075Y-58703077D01*
X62240702Y-58715019D01*
X62352948Y-58896302D01*
X62417290Y-58966881D01*
X62496593Y-59053872D01*
X62666746Y-59182367D01*
X62857606Y-59277403D01*
X62857608Y-59277403D01*
X62857611Y-59277405D01*
X63062690Y-59335756D01*
X63221806Y-59350500D01*
X63221810Y-59350500D01*
X63578190Y-59350500D01*
X63578194Y-59350500D01*
X63737310Y-59335756D01*
X63942389Y-59277405D01*
X63942393Y-59277403D01*
X63942394Y-59277403D01*
X64133253Y-59182367D01*
X64133253Y-59182366D01*
X64133255Y-59182366D01*
X64303407Y-59053872D01*
X64447052Y-58896302D01*
X64447053Y-58896300D01*
X64450914Y-58892065D01*
X64452662Y-58893659D01*
X64500560Y-58858130D01*
X64543385Y-58850500D01*
X66249695Y-58850500D01*
X66265705Y-58852267D01*
X66265728Y-58852026D01*
X66273489Y-58852758D01*
X66273496Y-58852760D01*
X66343462Y-58850560D01*
X66347357Y-58850500D01*
X66376125Y-58850500D01*
X66380487Y-58849948D01*
X66392139Y-58849030D01*
X66437769Y-58847597D01*
X66458156Y-58841673D01*
X66477196Y-58837731D01*
X66498258Y-58835071D01*
X66540720Y-58818258D01*
X66551757Y-58814480D01*
X66595598Y-58801744D01*
X66613865Y-58790939D01*
X66631336Y-58782380D01*
X66651071Y-58774568D01*
X66688016Y-58747725D01*
X66697758Y-58741326D01*
X66737065Y-58718081D01*
X66752070Y-58703075D01*
X66766868Y-58690436D01*
X66784037Y-58677963D01*
X66813146Y-58642774D01*
X66820990Y-58634154D01*
X69772913Y-55682231D01*
X69785479Y-55672165D01*
X69785325Y-55671978D01*
X69791333Y-55667005D01*
X69791340Y-55667002D01*
X69817190Y-55639474D01*
X69839265Y-55615967D01*
X69841978Y-55613167D01*
X69862312Y-55592834D01*
X69865007Y-55589359D01*
X69872586Y-55580482D01*
X69903848Y-55547193D01*
X69914074Y-55528589D01*
X69924747Y-55512341D01*
X69937763Y-55495563D01*
X69955891Y-55453670D01*
X69961027Y-55443182D01*
X69983027Y-55403168D01*
X69988304Y-55382608D01*
X69994606Y-55364203D01*
X70003036Y-55344726D01*
X70010179Y-55299620D01*
X70012543Y-55288205D01*
X70023900Y-55243977D01*
X70023900Y-55222755D01*
X70025427Y-55203355D01*
X70028747Y-55182395D01*
X70024450Y-55136936D01*
X70023900Y-55125267D01*
X70023900Y-48488903D01*
X70025668Y-48472891D01*
X70025426Y-48472869D01*
X70026160Y-48465106D01*
X70023961Y-48395122D01*
X70023900Y-48391228D01*
X70023900Y-48362478D01*
X70023899Y-48362471D01*
X70023350Y-48358125D01*
X70022431Y-48346462D01*
X70020998Y-48300831D01*
X70015075Y-48280445D01*
X70011129Y-48261390D01*
X70008471Y-48240343D01*
X70003679Y-48228239D01*
X69991661Y-48197887D01*
X69987881Y-48186845D01*
X69975144Y-48143002D01*
X69964340Y-48124734D01*
X69955778Y-48107256D01*
X69947968Y-48087529D01*
X69947965Y-48087525D01*
X69921130Y-48050589D01*
X69914731Y-48040848D01*
X69891481Y-48001535D01*
X69891479Y-48001533D01*
X69891478Y-48001531D01*
X69876475Y-47986529D01*
X69863835Y-47971730D01*
X69863417Y-47971155D01*
X69851363Y-47954563D01*
X69851361Y-47954560D01*
X69816180Y-47925456D01*
X69807540Y-47917594D01*
X69677580Y-47787634D01*
X69649319Y-47743923D01*
X69638718Y-47715971D01*
X69638717Y-47715968D01*
X69580674Y-47631880D01*
X69542083Y-47575971D01*
X69414752Y-47463166D01*
X69414749Y-47463163D01*
X69264126Y-47384110D01*
X69098956Y-47343400D01*
X68928844Y-47343400D01*
X68763673Y-47384110D01*
X68613050Y-47463163D01*
X68485716Y-47575972D01*
X68389082Y-47715968D01*
X68328760Y-47875025D01*
X68328759Y-47875030D01*
X68308255Y-48043900D01*
X68328759Y-48212769D01*
X68328760Y-48212774D01*
X68389082Y-48371831D01*
X68408139Y-48399439D01*
X68485717Y-48511829D01*
X68613048Y-48624634D01*
X68656526Y-48647453D01*
X68706738Y-48696036D01*
X68722900Y-48757249D01*
X68722900Y-52957356D01*
X68703215Y-53024395D01*
X68650411Y-53070150D01*
X68582715Y-53080295D01*
X68523316Y-53072475D01*
X68459419Y-53044209D01*
X68451820Y-53037217D01*
X64631793Y-49217190D01*
X64598308Y-49155867D01*
X64603292Y-49086175D01*
X64607362Y-49077408D01*
X64609358Y-49072345D01*
X64609361Y-49072342D01*
X64664877Y-48931564D01*
X64675500Y-48843102D01*
X64675500Y-47556898D01*
X64664877Y-47468436D01*
X64609361Y-47327658D01*
X64609360Y-47327657D01*
X64609360Y-47327656D01*
X64517922Y-47207077D01*
X64397343Y-47115639D01*
X64256561Y-47060122D01*
X64210926Y-47054642D01*
X64168102Y-47049500D01*
X62631898Y-47049500D01*
X62592853Y-47054188D01*
X62543438Y-47060122D01*
X62402656Y-47115639D01*
X62282077Y-47207077D01*
X62190639Y-47327656D01*
X62135122Y-47468438D01*
X62131950Y-47494856D01*
X62124500Y-47556898D01*
X62124500Y-48843102D01*
X62130126Y-48889954D01*
X62135122Y-48931561D01*
X62190639Y-49072343D01*
X62282077Y-49192922D01*
X62402656Y-49284360D01*
X62402657Y-49284360D01*
X62402658Y-49284361D01*
X62543436Y-49339877D01*
X62631898Y-49350500D01*
X62924998Y-49350500D01*
X62992037Y-49370185D01*
X63037792Y-49422989D01*
X63047736Y-49492147D01*
X63018711Y-49555703D01*
X62959933Y-49593477D01*
X62958933Y-49593766D01*
X62857607Y-49622596D01*
X62857605Y-49622596D01*
X62666746Y-49717632D01*
X62496593Y-49846127D01*
X62352947Y-50003699D01*
X62240702Y-50184980D01*
X62240701Y-50184982D01*
X62163680Y-50383799D01*
X62163679Y-50383802D01*
X62124500Y-50593390D01*
X62124500Y-50806610D01*
X62163679Y-51016198D01*
X62240702Y-51215019D01*
X62352948Y-51396302D01*
X62462328Y-51516285D01*
X62496593Y-51553872D01*
X62666746Y-51682367D01*
X62857605Y-51777403D01*
X62862950Y-51779473D01*
X62862525Y-51780569D01*
X62916516Y-51814627D01*
X62946077Y-51877936D01*
X62947145Y-51887346D01*
X62949153Y-51914124D01*
X62949500Y-51923396D01*
X62949500Y-51935659D01*
X62949501Y-51935673D01*
X62951327Y-51947790D01*
X62952365Y-51957003D01*
X62954979Y-51991886D01*
X62940359Y-52060209D01*
X62891122Y-52109782D01*
X62865265Y-52120417D01*
X62857606Y-52122596D01*
X62857604Y-52122596D01*
X62666746Y-52217632D01*
X62496593Y-52346127D01*
X62352947Y-52503699D01*
X62240702Y-52684980D01*
X62240701Y-52684982D01*
X62186254Y-52825529D01*
X62163679Y-52883802D01*
X62124500Y-53093390D01*
X62124500Y-53306610D01*
X62163679Y-53516198D01*
X62240702Y-53715019D01*
X62352948Y-53896302D01*
X62496593Y-54053872D01*
X62666746Y-54182367D01*
X62857606Y-54277403D01*
X62857608Y-54277403D01*
X62857611Y-54277405D01*
X62991971Y-54315634D01*
X63045039Y-54330734D01*
X63104132Y-54368014D01*
X63133689Y-54431324D01*
X63124327Y-54500563D01*
X63079017Y-54553749D01*
X63045039Y-54569266D01*
X62857607Y-54622596D01*
X62857605Y-54622596D01*
X62666746Y-54717632D01*
X62496593Y-54846127D01*
X62352947Y-55003699D01*
X62240702Y-55184980D01*
X62240701Y-55184982D01*
X62164138Y-55382617D01*
X62163679Y-55383802D01*
X62124500Y-55593390D01*
X62124500Y-55806610D01*
X62163679Y-56016198D01*
X62240702Y-56215019D01*
X62352948Y-56396302D01*
X62440353Y-56492180D01*
X62496593Y-56553872D01*
X62666746Y-56682367D01*
X62857606Y-56777403D01*
X62857608Y-56777403D01*
X62857611Y-56777405D01*
X62991971Y-56815634D01*
X63045039Y-56830734D01*
X63104132Y-56868014D01*
X63133689Y-56931324D01*
X63124327Y-57000563D01*
X63079017Y-57053749D01*
X63045039Y-57069266D01*
X62857607Y-57122596D01*
X62857605Y-57122596D01*
X62666746Y-57217632D01*
X62496593Y-57346127D01*
X62352947Y-57503699D01*
X62240702Y-57684980D01*
X62240701Y-57684982D01*
X62163680Y-57883799D01*
X62163679Y-57883802D01*
X62124500Y-58093390D01*
X62124500Y-58306610D01*
X60300500Y-58306610D01*
X60300500Y-42607763D01*
X73385787Y-42607763D01*
X73415413Y-42877013D01*
X73415415Y-42877024D01*
X73476880Y-43112129D01*
X73483928Y-43139088D01*
X73589870Y-43388390D01*
X73703329Y-43574299D01*
X73730979Y-43619605D01*
X73730986Y-43619615D01*
X73904253Y-43827819D01*
X73904259Y-43827824D01*
X73929038Y-43850026D01*
X74105998Y-44008582D01*
X74331910Y-44158044D01*
X74577176Y-44273020D01*
X74577183Y-44273022D01*
X74577185Y-44273023D01*
X74836557Y-44351057D01*
X74836564Y-44351058D01*
X74836569Y-44351060D01*
X75104561Y-44390500D01*
X75104566Y-44390500D01*
X75307629Y-44390500D01*
X75307631Y-44390500D01*
X75307636Y-44390499D01*
X75307648Y-44390499D01*
X75345191Y-44387750D01*
X75510156Y-44375677D01*
X75622758Y-44350593D01*
X75774546Y-44316782D01*
X75774548Y-44316781D01*
X75774553Y-44316780D01*
X76027558Y-44220014D01*
X76263777Y-44087441D01*
X76478177Y-43921888D01*
X76666186Y-43726881D01*
X76823799Y-43506579D01*
X76916854Y-43325586D01*
X76947649Y-43265690D01*
X76947651Y-43265684D01*
X76947656Y-43265675D01*
X77035118Y-43009305D01*
X77084319Y-42742933D01*
X77091735Y-42540000D01*
X77644571Y-42540000D01*
X77664244Y-42752310D01*
X77722596Y-42957392D01*
X77722596Y-42957394D01*
X77817632Y-43148253D01*
X77945930Y-43318145D01*
X77946128Y-43318407D01*
X78103698Y-43462052D01*
X78284981Y-43574298D01*
X78483802Y-43651321D01*
X78693390Y-43690500D01*
X78693392Y-43690500D01*
X78906608Y-43690500D01*
X78906610Y-43690500D01*
X79116198Y-43651321D01*
X79315019Y-43574298D01*
X79496302Y-43462052D01*
X79653872Y-43318407D01*
X79782366Y-43148255D01*
X79786934Y-43139082D01*
X79877403Y-42957394D01*
X79877403Y-42957393D01*
X79877405Y-42957389D01*
X79935756Y-42752310D01*
X79946529Y-42636047D01*
X79972315Y-42571111D01*
X80014622Y-42540804D01*
X80123130Y-42540804D01*
X80159503Y-42561668D01*
X80191693Y-42623681D01*
X80193471Y-42636048D01*
X80204244Y-42752310D01*
X80262596Y-42957392D01*
X80262596Y-42957394D01*
X80357632Y-43148253D01*
X80485930Y-43318145D01*
X80486128Y-43318407D01*
X80643698Y-43462052D01*
X80824981Y-43574298D01*
X81023802Y-43651321D01*
X81233390Y-43690500D01*
X81233392Y-43690500D01*
X81446608Y-43690500D01*
X81446610Y-43690500D01*
X81656198Y-43651321D01*
X81855019Y-43574298D01*
X82036302Y-43462052D01*
X82193872Y-43318407D01*
X82322366Y-43148255D01*
X82326934Y-43139082D01*
X82417403Y-42957394D01*
X82417403Y-42957393D01*
X82417405Y-42957389D01*
X82475756Y-42752310D01*
X82486529Y-42636047D01*
X82512315Y-42571111D01*
X82554622Y-42540804D01*
X82663130Y-42540804D01*
X82699503Y-42561668D01*
X82731693Y-42623681D01*
X82733471Y-42636048D01*
X82744244Y-42752310D01*
X82802596Y-42957392D01*
X82802596Y-42957394D01*
X82897632Y-43148253D01*
X83025930Y-43318145D01*
X83026128Y-43318407D01*
X83183698Y-43462052D01*
X83364981Y-43574298D01*
X83563802Y-43651321D01*
X83773390Y-43690500D01*
X83773392Y-43690500D01*
X83986608Y-43690500D01*
X83986610Y-43690500D01*
X84196198Y-43651321D01*
X84395019Y-43574298D01*
X84576302Y-43462052D01*
X84733872Y-43318407D01*
X84862366Y-43148255D01*
X84866934Y-43139082D01*
X84957403Y-42957394D01*
X84957403Y-42957393D01*
X84957405Y-42957389D01*
X85015756Y-42752310D01*
X85035429Y-42540000D01*
X85015756Y-42327690D01*
X84957405Y-42122611D01*
X84957403Y-42122606D01*
X84957403Y-42122605D01*
X84862367Y-41931746D01*
X84733872Y-41761593D01*
X84661737Y-41695833D01*
X84576302Y-41617948D01*
X84395019Y-41505702D01*
X84395017Y-41505701D01*
X84295608Y-41467190D01*
X84196198Y-41428679D01*
X83986610Y-41389500D01*
X83773390Y-41389500D01*
X83563802Y-41428679D01*
X83563799Y-41428679D01*
X83563799Y-41428680D01*
X83364982Y-41505701D01*
X83364980Y-41505702D01*
X83183699Y-41617947D01*
X83026127Y-41761593D01*
X82897632Y-41931746D01*
X82802596Y-42122605D01*
X82802596Y-42122607D01*
X82744244Y-42327689D01*
X82733471Y-42443951D01*
X82707685Y-42508888D01*
X82663130Y-42540804D01*
X82554622Y-42540804D01*
X82556869Y-42539194D01*
X82520497Y-42518331D01*
X82488307Y-42456318D01*
X82486529Y-42443951D01*
X82480969Y-42383951D01*
X82475756Y-42327690D01*
X82417405Y-42122611D01*
X82417403Y-42122606D01*
X82417403Y-42122605D01*
X82322367Y-41931746D01*
X82193872Y-41761593D01*
X82121737Y-41695833D01*
X82036302Y-41617948D01*
X81855019Y-41505702D01*
X81855017Y-41505701D01*
X81755608Y-41467190D01*
X81656198Y-41428679D01*
X81446610Y-41389500D01*
X81233390Y-41389500D01*
X81023802Y-41428679D01*
X81023799Y-41428679D01*
X81023799Y-41428680D01*
X80824982Y-41505701D01*
X80824980Y-41505702D01*
X80643699Y-41617947D01*
X80486127Y-41761593D01*
X80357632Y-41931746D01*
X80262596Y-42122605D01*
X80262596Y-42122607D01*
X80204244Y-42327689D01*
X80193471Y-42443951D01*
X80167685Y-42508888D01*
X80123130Y-42540804D01*
X80014622Y-42540804D01*
X80016869Y-42539194D01*
X79980497Y-42518331D01*
X79948307Y-42456318D01*
X79946529Y-42443951D01*
X79940969Y-42383951D01*
X79935756Y-42327690D01*
X79877405Y-42122611D01*
X79877403Y-42122606D01*
X79877403Y-42122605D01*
X79782367Y-41931746D01*
X79653872Y-41761593D01*
X79581737Y-41695833D01*
X79496302Y-41617948D01*
X79315019Y-41505702D01*
X79315017Y-41505701D01*
X79215608Y-41467190D01*
X79116198Y-41428679D01*
X78906610Y-41389500D01*
X78693390Y-41389500D01*
X78483802Y-41428679D01*
X78483799Y-41428679D01*
X78483799Y-41428680D01*
X78284982Y-41505701D01*
X78284980Y-41505702D01*
X78103699Y-41617947D01*
X77946127Y-41761593D01*
X77817632Y-41931746D01*
X77722596Y-42122605D01*
X77722596Y-42122607D01*
X77664244Y-42327689D01*
X77644571Y-42539999D01*
X77644571Y-42540000D01*
X77091735Y-42540000D01*
X77094212Y-42472235D01*
X77064586Y-42202982D01*
X76996072Y-41940912D01*
X76890130Y-41691610D01*
X76749018Y-41460390D01*
X76730213Y-41437793D01*
X76575746Y-41252180D01*
X76575740Y-41252175D01*
X76374002Y-41071418D01*
X76148092Y-40921957D01*
X76148090Y-40921956D01*
X75902824Y-40806980D01*
X75902819Y-40806978D01*
X75902814Y-40806976D01*
X75643442Y-40728942D01*
X75643428Y-40728939D01*
X75527791Y-40711921D01*
X75375439Y-40689500D01*
X75172369Y-40689500D01*
X75172351Y-40689500D01*
X74969844Y-40704323D01*
X74969831Y-40704325D01*
X74705453Y-40763217D01*
X74705446Y-40763220D01*
X74452439Y-40859987D01*
X74216226Y-40992557D01*
X74001822Y-41158112D01*
X73813822Y-41353109D01*
X73813816Y-41353116D01*
X73656202Y-41573419D01*
X73656199Y-41573424D01*
X73532350Y-41814309D01*
X73532343Y-41814327D01*
X73444884Y-42070685D01*
X73444881Y-42070699D01*
X73395681Y-42337068D01*
X73395680Y-42337075D01*
X73385787Y-42607763D01*
X60300500Y-42607763D01*
X60300500Y-40424500D01*
X60320185Y-40357461D01*
X60372989Y-40311706D01*
X60424500Y-40300500D01*
X124344167Y-40300500D01*
X124411206Y-40320185D01*
G37*
%TD.AperFunction*%
%TD*%
M02*
