%TF.GenerationSoftware,KiCad,Pcbnew,7.0.11+dfsg-1build4*%
%TF.CreationDate,2026-10-02T12:49:10+00:00*%
%TF.ProjectId,watchmen-shield-v2,77617463-686d-4656-9e2d-736869656c64,rev?*%
%TF.SameCoordinates,Original*%
%TF.FileFunction,Soldermask,Top*%
%TF.FilePolarity,Negative*%
%FSLAX46Y46*%
G04 Gerber Fmt 4.6, Leading zero omitted, Abs format (unit mm)*
G04 Created by KiCad (PCBNEW 7.0.11+dfsg-1build4) date 2026-10-02 12:49:10*
%MOMM*%
%LPD*%
G01*
G04 APERTURE LIST*
G04 Aperture macros list*
%AMRoundRect*
0 Rectangle with rounded corners*
0 $1 Rounding radius*
0 $2 $3 $4 $5 $6 $7 $8 $9 X,Y pos of 4 corners*
0 Add a 4 corners polygon primitive as box body*
4,1,4,$2,$3,$4,$5,$6,$7,$8,$9,$2,$3,0*
0 Add four circle primitives for the rounded corners*
1,1,$1+$1,$2,$3*
1,1,$1+$1,$4,$5*
1,1,$1+$1,$6,$7*
1,1,$1+$1,$8,$9*
0 Add four rect primitives between the rounded corners*
20,1,$1+$1,$2,$3,$4,$5,0*
20,1,$1+$1,$4,$5,$6,$7,0*
20,1,$1+$1,$6,$7,$8,$9,0*
20,1,$1+$1,$8,$9,$2,$3,0*%
%AMFreePoly0*
4,1,19,0.500000,-0.750000,0.000000,-0.750000,0.000000,-0.744911,-0.071157,-0.744911,-0.207708,-0.704816,-0.327430,-0.627875,-0.420627,-0.520320,-0.479746,-0.390866,-0.500000,-0.250000,-0.500000,0.250000,-0.479746,0.390866,-0.420627,0.520320,-0.327430,0.627875,-0.207708,0.704816,-0.071157,0.744911,0.000000,0.744911,0.000000,0.750000,0.500000,0.750000,0.500000,-0.750000,0.500000,-0.750000,
$1*%
%AMFreePoly1*
4,1,19,0.000000,0.744911,0.071157,0.744911,0.207708,0.704816,0.327430,0.627875,0.420627,0.520320,0.479746,0.390866,0.500000,0.250000,0.500000,-0.250000,0.479746,-0.390866,0.420627,-0.520320,0.327430,-0.627875,0.207708,-0.704816,0.071157,-0.744911,0.000000,-0.744911,0.000000,-0.750000,-0.500000,-0.750000,-0.500000,0.750000,0.000000,0.750000,0.000000,0.744911,0.000000,0.744911,
$1*%
G04 Aperture macros list end*
%ADD10RoundRect,0.150000X-0.512500X-0.150000X0.512500X-0.150000X0.512500X0.150000X-0.512500X0.150000X0*%
%ADD11RoundRect,0.250000X0.475000X-0.250000X0.475000X0.250000X-0.475000X0.250000X-0.475000X-0.250000X0*%
%ADD12RoundRect,0.250000X0.450000X-0.262500X0.450000X0.262500X-0.450000X0.262500X-0.450000X-0.262500X0*%
%ADD13C,3.200000*%
%ADD14R,1.700000X1.700000*%
%ADD15O,1.700000X1.700000*%
%ADD16RoundRect,0.150000X-0.587500X-0.150000X0.587500X-0.150000X0.587500X0.150000X-0.587500X0.150000X0*%
%ADD17RoundRect,0.250000X-0.250000X-0.475000X0.250000X-0.475000X0.250000X0.475000X-0.250000X0.475000X0*%
%ADD18R,2.600000X2.600000*%
%ADD19C,2.600000*%
%ADD20RoundRect,0.250000X-0.725000X0.600000X-0.725000X-0.600000X0.725000X-0.600000X0.725000X0.600000X0*%
%ADD21O,1.950000X1.700000*%
%ADD22RoundRect,0.250000X-0.312500X-1.450000X0.312500X-1.450000X0.312500X1.450000X-0.312500X1.450000X0*%
%ADD23RoundRect,0.250000X-0.262500X-0.450000X0.262500X-0.450000X0.262500X0.450000X-0.262500X0.450000X0*%
%ADD24FreePoly0,0.000000*%
%ADD25FreePoly1,0.000000*%
%ADD26RoundRect,0.150000X0.825000X0.150000X-0.825000X0.150000X-0.825000X-0.150000X0.825000X-0.150000X0*%
%ADD27RoundRect,0.243750X0.456250X-0.243750X0.456250X0.243750X-0.456250X0.243750X-0.456250X-0.243750X0*%
%ADD28R,1.600000X1.600000*%
%ADD29C,1.600000*%
G04 APERTURE END LIST*
D10*
%TO.C,U2*%
X76462500Y-82850000D03*
X76462500Y-83800000D03*
X76462500Y-84750000D03*
X78737500Y-84750000D03*
X78737500Y-82850000D03*
%TD*%
D11*
%TO.C,C2*%
X71800000Y-67350000D03*
X71800000Y-65450000D03*
%TD*%
D12*
%TO.C,R7*%
X91400000Y-87512500D03*
X91400000Y-85687500D03*
%TD*%
%TO.C,R13*%
X73400000Y-85512500D03*
X73400000Y-83687500D03*
%TD*%
D13*
%TO.C,H1*%
X73970000Y-90800000D03*
%TD*%
D14*
%TO.C,J12*%
X83360000Y-86600000D03*
D15*
X85900000Y-86600000D03*
X88440000Y-86600000D03*
%TD*%
D16*
%TO.C,D2*%
X123662500Y-80950000D03*
X123662500Y-82850000D03*
X125537500Y-81900000D03*
%TD*%
D12*
%TO.C,R5*%
X123000000Y-75112500D03*
X123000000Y-73287500D03*
%TD*%
D11*
%TO.C,C5*%
X109000000Y-47550000D03*
X109000000Y-45650000D03*
%TD*%
D17*
%TO.C,C3*%
X70050000Y-46400000D03*
X71950000Y-46400000D03*
%TD*%
D12*
%TO.C,R14*%
X80300000Y-88512500D03*
X80300000Y-86687500D03*
%TD*%
D18*
%TO.C,J5*%
X64400000Y-80000000D03*
D19*
X64400000Y-74920000D03*
%TD*%
D14*
%TO.C,J11*%
X86400000Y-46600000D03*
D15*
X88940000Y-46600000D03*
X91480000Y-46600000D03*
X94020000Y-46600000D03*
X96560000Y-46600000D03*
X99100000Y-46600000D03*
X101640000Y-46600000D03*
X104180000Y-46600000D03*
%TD*%
D20*
%TO.C,J6*%
X63400000Y-48200000D03*
D21*
X63400000Y-50700000D03*
X63400000Y-53200000D03*
X63400000Y-55700000D03*
X63400000Y-58200000D03*
%TD*%
D12*
%TO.C,R2*%
X79700000Y-71512500D03*
X79700000Y-69687500D03*
%TD*%
D14*
%TO.C,J1*%
X87940000Y-90800000D03*
D15*
X90480000Y-90800000D03*
X93020000Y-90800000D03*
X95560000Y-90800000D03*
X98100000Y-90800000D03*
X100640000Y-90800000D03*
X103180000Y-90800000D03*
X105720000Y-90800000D03*
%TD*%
D22*
%TO.C,F1*%
X70862500Y-62000000D03*
X75137500Y-62000000D03*
%TD*%
D14*
%TO.C,J7*%
X94360000Y-86600000D03*
D15*
X96900000Y-86600000D03*
X99440000Y-86600000D03*
%TD*%
D23*
%TO.C,R11*%
X114087500Y-49600000D03*
X115912500Y-49600000D03*
%TD*%
D13*
%TO.C,H3*%
X126040000Y-85720000D03*
%TD*%
%TO.C,H2*%
X75240000Y-42540000D03*
%TD*%
D11*
%TO.C,C6*%
X107000000Y-47550000D03*
X107000000Y-45650000D03*
%TD*%
D12*
%TO.C,R6*%
X125500000Y-75112500D03*
X125500000Y-73287500D03*
%TD*%
D24*
%TO.C,JP2*%
X72750000Y-77200000D03*
D25*
X74050000Y-77200000D03*
%TD*%
D14*
%TO.C,J2*%
X110800000Y-90800000D03*
D15*
X113340000Y-90800000D03*
X115880000Y-90800000D03*
X118420000Y-90800000D03*
X120960000Y-90800000D03*
X123500000Y-90800000D03*
%TD*%
D17*
%TO.C,C7*%
X76650000Y-80400000D03*
X78550000Y-80400000D03*
%TD*%
D11*
%TO.C,C4*%
X125500000Y-71350000D03*
X125500000Y-69450000D03*
%TD*%
D12*
%TO.C,R4*%
X125500000Y-78912500D03*
X125500000Y-77087500D03*
%TD*%
D14*
%TO.C,J8*%
X105360000Y-86600000D03*
D15*
X107900000Y-86600000D03*
X110440000Y-86600000D03*
%TD*%
D26*
%TO.C,U1*%
X74875000Y-57845000D03*
X74875000Y-56575000D03*
X74875000Y-55305000D03*
X74875000Y-54035000D03*
X74875000Y-52765000D03*
X74875000Y-51495000D03*
X74875000Y-50225000D03*
X74875000Y-48955000D03*
X69925000Y-48955000D03*
X69925000Y-50225000D03*
X69925000Y-51495000D03*
X69925000Y-52765000D03*
X69925000Y-54035000D03*
X69925000Y-55305000D03*
X69925000Y-56575000D03*
X69925000Y-57845000D03*
%TD*%
D12*
%TO.C,R8*%
X102400000Y-87512500D03*
X102400000Y-85687500D03*
%TD*%
D14*
%TO.C,J4*%
X101660000Y-42540000D03*
D15*
X99120000Y-42540000D03*
X96580000Y-42540000D03*
X94040000Y-42540000D03*
X91500000Y-42540000D03*
X88960000Y-42540000D03*
X86420000Y-42540000D03*
X83880000Y-42540000D03*
X81340000Y-42540000D03*
X78800000Y-42540000D03*
%TD*%
D14*
%TO.C,J9*%
X125000000Y-63600000D03*
D15*
X125000000Y-66140000D03*
%TD*%
D27*
%TO.C,D1*%
X79700000Y-75737500D03*
X79700000Y-73862500D03*
%TD*%
D23*
%TO.C,R12*%
X117687500Y-49600000D03*
X119512500Y-49600000D03*
%TD*%
D16*
%TO.C,Q1*%
X75662500Y-64850000D03*
X75662500Y-66750000D03*
X77537500Y-65800000D03*
%TD*%
D12*
%TO.C,R10*%
X123000000Y-71312500D03*
X123000000Y-69487500D03*
%TD*%
D14*
%TO.C,J10*%
X111800000Y-46600000D03*
D15*
X114340000Y-46600000D03*
X116880000Y-46600000D03*
X119420000Y-46600000D03*
%TD*%
D12*
%TO.C,R3*%
X123000000Y-78912500D03*
X123000000Y-77087500D03*
%TD*%
D13*
%TO.C,H4*%
X126040000Y-57780000D03*
%TD*%
D14*
%TO.C,J3*%
X123500000Y-42540000D03*
D15*
X120960000Y-42540000D03*
X118420000Y-42540000D03*
X115880000Y-42540000D03*
X113340000Y-42540000D03*
X110800000Y-42540000D03*
X108260000Y-42540000D03*
X105720000Y-42540000D03*
%TD*%
D12*
%TO.C,R1*%
X79700000Y-66712500D03*
X79700000Y-64887500D03*
%TD*%
D14*
%TO.C,JP1*%
X115500000Y-86600000D03*
D15*
X118040000Y-86600000D03*
X120580000Y-86600000D03*
%TD*%
D28*
%TO.C,C1*%
X65000000Y-87600000D03*
D29*
X68500000Y-87600000D03*
%TD*%
M02*
