%TF.GenerationSoftware,KiCad,Pcbnew,7.0.11+dfsg-1build4*%
%TF.CreationDate,2026-10-02T12:49:10+00:00*%
%TF.ProjectId,watchmen-shield-v2,77617463-686d-4656-9e2d-736869656c64,rev?*%
%TF.SameCoordinates,Original*%
%TF.FileFunction,Copper,L1,Top*%
%TF.FilePolarity,Positive*%
%FSLAX46Y46*%
G04 Gerber Fmt 4.6, Leading zero omitted, Abs format (unit mm)*
G04 Created by KiCad (PCBNEW 7.0.11+dfsg-1build4) date 2026-10-02 12:49:10*
%MOMM*%
%LPD*%
G01*
G04 APERTURE LIST*
G04 Aperture macros list*
%AMRoundRect*
0 Rectangle with rounded corners*
0 $1 Rounding radius*
0 $2 $3 $4 $5 $6 $7 $8 $9 X,Y pos of 4 corners*
0 Add a 4 corners polygon primitive as box body*
4,1,4,$2,$3,$4,$5,$6,$7,$8,$9,$2,$3,0*
0 Add four circle primitives for the rounded corners*
1,1,$1+$1,$2,$3*
1,1,$1+$1,$4,$5*
1,1,$1+$1,$6,$7*
1,1,$1+$1,$8,$9*
0 Add four rect primitives between the rounded corners*
20,1,$1+$1,$2,$3,$4,$5,0*
20,1,$1+$1,$4,$5,$6,$7,0*
20,1,$1+$1,$6,$7,$8,$9,0*
20,1,$1+$1,$8,$9,$2,$3,0*%
%AMFreePoly0*
4,1,19,0.500000,-0.750000,0.000000,-0.750000,0.000000,-0.744911,-0.071157,-0.744911,-0.207708,-0.704816,-0.327430,-0.627875,-0.420627,-0.520320,-0.479746,-0.390866,-0.500000,-0.250000,-0.500000,0.250000,-0.479746,0.390866,-0.420627,0.520320,-0.327430,0.627875,-0.207708,0.704816,-0.071157,0.744911,0.000000,0.744911,0.000000,0.750000,0.500000,0.750000,0.500000,-0.750000,0.500000,-0.750000,
$1*%
%AMFreePoly1*
4,1,19,0.000000,0.744911,0.071157,0.744911,0.207708,0.704816,0.327430,0.627875,0.420627,0.520320,0.479746,0.390866,0.500000,0.250000,0.500000,-0.250000,0.479746,-0.390866,0.420627,-0.520320,0.327430,-0.627875,0.207708,-0.704816,0.071157,-0.744911,0.000000,-0.744911,0.000000,-0.750000,-0.500000,-0.750000,-0.500000,0.750000,0.000000,0.750000,0.000000,0.744911,0.000000,0.744911,
$1*%
G04 Aperture macros list end*
%TA.AperFunction,SMDPad,CuDef*%
%ADD10RoundRect,0.150000X-0.512500X-0.150000X0.512500X-0.150000X0.512500X0.150000X-0.512500X0.150000X0*%
%TD*%
%TA.AperFunction,SMDPad,CuDef*%
%ADD11RoundRect,0.250000X0.475000X-0.250000X0.475000X0.250000X-0.475000X0.250000X-0.475000X-0.250000X0*%
%TD*%
%TA.AperFunction,SMDPad,CuDef*%
%ADD12RoundRect,0.250000X0.450000X-0.262500X0.450000X0.262500X-0.450000X0.262500X-0.450000X-0.262500X0*%
%TD*%
%TA.AperFunction,ComponentPad*%
%ADD13R,1.700000X1.700000*%
%TD*%
%TA.AperFunction,ComponentPad*%
%ADD14O,1.700000X1.700000*%
%TD*%
%TA.AperFunction,SMDPad,CuDef*%
%ADD15RoundRect,0.150000X-0.587500X-0.150000X0.587500X-0.150000X0.587500X0.150000X-0.587500X0.150000X0*%
%TD*%
%TA.AperFunction,SMDPad,CuDef*%
%ADD16RoundRect,0.250000X-0.250000X-0.475000X0.250000X-0.475000X0.250000X0.475000X-0.250000X0.475000X0*%
%TD*%
%TA.AperFunction,ComponentPad*%
%ADD17R,2.600000X2.600000*%
%TD*%
%TA.AperFunction,ComponentPad*%
%ADD18C,2.600000*%
%TD*%
%TA.AperFunction,ComponentPad*%
%ADD19RoundRect,0.250000X-0.725000X0.600000X-0.725000X-0.600000X0.725000X-0.600000X0.725000X0.600000X0*%
%TD*%
%TA.AperFunction,ComponentPad*%
%ADD20O,1.950000X1.700000*%
%TD*%
%TA.AperFunction,SMDPad,CuDef*%
%ADD21RoundRect,0.250000X-0.312500X-1.450000X0.312500X-1.450000X0.312500X1.450000X-0.312500X1.450000X0*%
%TD*%
%TA.AperFunction,SMDPad,CuDef*%
%ADD22RoundRect,0.250000X-0.262500X-0.450000X0.262500X-0.450000X0.262500X0.450000X-0.262500X0.450000X0*%
%TD*%
%TA.AperFunction,SMDPad,CuDef*%
%ADD23FreePoly0,0.000000*%
%TD*%
%TA.AperFunction,SMDPad,CuDef*%
%ADD24FreePoly1,0.000000*%
%TD*%
%TA.AperFunction,SMDPad,CuDef*%
%ADD25RoundRect,0.150000X0.825000X0.150000X-0.825000X0.150000X-0.825000X-0.150000X0.825000X-0.150000X0*%
%TD*%
%TA.AperFunction,SMDPad,CuDef*%
%ADD26RoundRect,0.243750X0.456250X-0.243750X0.456250X0.243750X-0.456250X0.243750X-0.456250X-0.243750X0*%
%TD*%
%TA.AperFunction,ComponentPad*%
%ADD27R,1.600000X1.600000*%
%TD*%
%TA.AperFunction,ComponentPad*%
%ADD28C,1.600000*%
%TD*%
%TA.AperFunction,ViaPad*%
%ADD29C,0.600000*%
%TD*%
%TA.AperFunction,ViaPad*%
%ADD30C,0.800000*%
%TD*%
%TA.AperFunction,Conductor*%
%ADD31C,0.250000*%
%TD*%
%TA.AperFunction,Conductor*%
%ADD32C,0.300000*%
%TD*%
%TA.AperFunction,Conductor*%
%ADD33C,0.187400*%
%TD*%
%TA.AperFunction,Conductor*%
%ADD34C,0.225000*%
%TD*%
%TA.AperFunction,Conductor*%
%ADD35C,0.700000*%
%TD*%
%TA.AperFunction,Conductor*%
%ADD36C,0.525000*%
%TD*%
%TA.AperFunction,Conductor*%
%ADD37C,0.400000*%
%TD*%
G04 APERTURE END LIST*
D10*
%TO.P,U2,1*%
%TO.N,GND*%
X76462500Y-82850000D03*
%TO.P,U2,2*%
%TO.N,/D11_MOSI*%
X76462500Y-83800000D03*
%TO.P,U2,3*%
%TO.N,GND*%
X76462500Y-84750000D03*
%TO.P,U2,4*%
%TO.N,/LED_BUF*%
X78737500Y-84750000D03*
%TO.P,U2,5*%
%TO.N,+5V*%
X78737500Y-82850000D03*
%TD*%
D11*
%TO.P,C2,1*%
%TO.N,/VMOT*%
X71800000Y-67350000D03*
%TO.P,C2,2*%
%TO.N,GND*%
X71800000Y-65450000D03*
%TD*%
D12*
%TO.P,R7,1*%
%TO.N,/A1_SERVO1*%
X91400000Y-87512500D03*
%TO.P,R7,2*%
%TO.N,/SERVO1_SIG*%
X91400000Y-85687500D03*
%TD*%
%TO.P,R13,1*%
%TO.N,/D11_MOSI*%
X73400000Y-85512500D03*
%TO.P,R13,2*%
%TO.N,GND*%
X73400000Y-83687500D03*
%TD*%
D13*
%TO.P,J12,1*%
%TO.N,+5V*%
X83360000Y-86600000D03*
D14*
%TO.P,J12,2*%
%TO.N,/LED_DIN*%
X85900000Y-86600000D03*
%TO.P,J12,3*%
%TO.N,GND*%
X88440000Y-86600000D03*
%TD*%
D15*
%TO.P,D2,1*%
%TO.N,GND*%
X123662500Y-80950000D03*
%TO.P,D2,2*%
%TO.N,+3V3*%
X123662500Y-82850000D03*
%TO.P,D2,3*%
%TO.N,/SENSE_DIV*%
X125537500Y-81900000D03*
%TD*%
D12*
%TO.P,R5,1*%
%TO.N,/SENSE_SEL*%
X123000000Y-75112500D03*
%TO.P,R5,2*%
%TO.N,/A0_SENSE*%
X123000000Y-73287500D03*
%TD*%
D11*
%TO.P,C5,1*%
%TO.N,+5V*%
X109000000Y-47550000D03*
%TO.P,C5,2*%
%TO.N,GND*%
X109000000Y-45650000D03*
%TD*%
D16*
%TO.P,C3,1*%
%TO.N,/VMOT*%
X70050000Y-46400000D03*
%TO.P,C3,2*%
%TO.N,GND*%
X71950000Y-46400000D03*
%TD*%
D12*
%TO.P,R14,1*%
%TO.N,/LED_BUF*%
X80300000Y-88512500D03*
%TO.P,R14,2*%
%TO.N,/LED_DIN*%
X80300000Y-86687500D03*
%TD*%
D17*
%TO.P,J5,1*%
%TO.N,/VMOT_IN*%
X64400000Y-80000000D03*
D18*
%TO.P,J5,2*%
%TO.N,GND*%
X64400000Y-74920000D03*
%TD*%
D13*
%TO.P,J11,1*%
%TO.N,+3V3*%
X86400000Y-46600000D03*
D14*
%TO.P,J11,2*%
%TO.N,GND*%
X88940000Y-46600000D03*
%TO.P,J11,3*%
%TO.N,/SCL*%
X91480000Y-46600000D03*
%TO.P,J11,4*%
%TO.N,/SDA*%
X94020000Y-46600000D03*
%TO.P,J11,5*%
%TO.N,N/C*%
X96560000Y-46600000D03*
%TO.P,J11,6*%
X99100000Y-46600000D03*
%TO.P,J11,7*%
%TO.N,GND*%
X101640000Y-46600000D03*
%TO.P,J11,8*%
%TO.N,/D3_INT*%
X104180000Y-46600000D03*
%TD*%
D19*
%TO.P,J6,1*%
%TO.N,/STEP_4*%
X63400000Y-48200000D03*
D20*
%TO.P,J6,2*%
%TO.N,/STEP_3*%
X63400000Y-50700000D03*
%TO.P,J6,3*%
%TO.N,/STEP_2*%
X63400000Y-53200000D03*
%TO.P,J6,4*%
%TO.N,/STEP_1*%
X63400000Y-55700000D03*
%TO.P,J6,5*%
%TO.N,/VMOT*%
X63400000Y-58200000D03*
%TD*%
D12*
%TO.P,R2,1*%
%TO.N,/VMOT*%
X79700000Y-71512500D03*
%TO.P,R2,2*%
%TO.N,/PWR_LED*%
X79700000Y-69687500D03*
%TD*%
D13*
%TO.P,J1,1*%
%TO.N,N/C*%
X87940000Y-90800000D03*
D14*
%TO.P,J1,2*%
X90480000Y-90800000D03*
%TO.P,J1,3*%
X93020000Y-90800000D03*
%TO.P,J1,4*%
%TO.N,+3V3*%
X95560000Y-90800000D03*
%TO.P,J1,5*%
%TO.N,+5V*%
X98100000Y-90800000D03*
%TO.P,J1,6*%
%TO.N,GND*%
X100640000Y-90800000D03*
%TO.P,J1,7*%
X103180000Y-90800000D03*
%TO.P,J1,8*%
%TO.N,N/C*%
X105720000Y-90800000D03*
%TD*%
D21*
%TO.P,F1,1*%
%TO.N,/VMOT_IN*%
X70862500Y-62000000D03*
%TO.P,F1,2*%
%TO.N,/VMOT_F*%
X75137500Y-62000000D03*
%TD*%
D13*
%TO.P,J7,1*%
%TO.N,/SERVO1_SIG*%
X94360000Y-86600000D03*
D14*
%TO.P,J7,2*%
%TO.N,/VMOT*%
X96900000Y-86600000D03*
%TO.P,J7,3*%
%TO.N,GND*%
X99440000Y-86600000D03*
%TD*%
D22*
%TO.P,R11,1*%
%TO.N,/RADAR_TX*%
X114087500Y-49600000D03*
%TO.P,R11,2*%
%TO.N,/D0_RX*%
X115912500Y-49600000D03*
%TD*%
D11*
%TO.P,C6,1*%
%TO.N,+3V3*%
X107000000Y-47550000D03*
%TO.P,C6,2*%
%TO.N,GND*%
X107000000Y-45650000D03*
%TD*%
D12*
%TO.P,R6,1*%
%TO.N,/A0_SENSE*%
X125500000Y-75112500D03*
%TO.P,R6,2*%
%TO.N,GND*%
X125500000Y-73287500D03*
%TD*%
D23*
%TO.P,JP2,1*%
%TO.N,+5V*%
X72750000Y-77200000D03*
D24*
%TO.P,JP2,2*%
%TO.N,/VMOT*%
X74050000Y-77200000D03*
%TD*%
D13*
%TO.P,J2,1*%
%TO.N,/A0_SENSE*%
X110800000Y-90800000D03*
D14*
%TO.P,J2,2*%
%TO.N,/A1_SERVO1*%
X113340000Y-90800000D03*
%TO.P,J2,3*%
%TO.N,/A2_SERVO2*%
X115880000Y-90800000D03*
%TO.P,J2,4*%
%TO.N,N/C*%
X118420000Y-90800000D03*
%TO.P,J2,5*%
X120960000Y-90800000D03*
%TO.P,J2,6*%
X123500000Y-90800000D03*
%TD*%
D16*
%TO.P,C7,1*%
%TO.N,+5V*%
X76650000Y-80400000D03*
%TO.P,C7,2*%
%TO.N,GND*%
X78550000Y-80400000D03*
%TD*%
D11*
%TO.P,C4,1*%
%TO.N,/SW_IN*%
X125500000Y-71350000D03*
%TO.P,C4,2*%
%TO.N,GND*%
X125500000Y-69450000D03*
%TD*%
D12*
%TO.P,R4,1*%
%TO.N,/SENSE_DIV*%
X125500000Y-78912500D03*
%TO.P,R4,2*%
%TO.N,GND*%
X125500000Y-77087500D03*
%TD*%
D13*
%TO.P,J8,1*%
%TO.N,/SERVO2_SIG*%
X105360000Y-86600000D03*
D14*
%TO.P,J8,2*%
%TO.N,/VMOT*%
X107900000Y-86600000D03*
%TO.P,J8,3*%
%TO.N,GND*%
X110440000Y-86600000D03*
%TD*%
D25*
%TO.P,U1,1*%
%TO.N,/D4_IN1*%
X74875000Y-57845000D03*
%TO.P,U1,2*%
%TO.N,/D7_IN2*%
X74875000Y-56575000D03*
%TO.P,U1,3*%
%TO.N,/D8_IN3*%
X74875000Y-55305000D03*
%TO.P,U1,4*%
%TO.N,/D9_IN4*%
X74875000Y-54035000D03*
%TO.P,U1,5*%
%TO.N,GND*%
X74875000Y-52765000D03*
%TO.P,U1,6*%
X74875000Y-51495000D03*
%TO.P,U1,7*%
X74875000Y-50225000D03*
%TO.P,U1,8*%
X74875000Y-48955000D03*
%TO.P,U1,9*%
%TO.N,/VMOT*%
X69925000Y-48955000D03*
%TO.P,U1,10*%
%TO.N,N/C*%
X69925000Y-50225000D03*
%TO.P,U1,11*%
X69925000Y-51495000D03*
%TO.P,U1,12*%
X69925000Y-52765000D03*
%TO.P,U1,13*%
%TO.N,/STEP_4*%
X69925000Y-54035000D03*
%TO.P,U1,14*%
%TO.N,/STEP_3*%
X69925000Y-55305000D03*
%TO.P,U1,15*%
%TO.N,/STEP_2*%
X69925000Y-56575000D03*
%TO.P,U1,16*%
%TO.N,/STEP_1*%
X69925000Y-57845000D03*
%TD*%
D12*
%TO.P,R8,1*%
%TO.N,/A2_SERVO2*%
X102400000Y-87512500D03*
%TO.P,R8,2*%
%TO.N,/SERVO2_SIG*%
X102400000Y-85687500D03*
%TD*%
D13*
%TO.P,J4,1*%
%TO.N,/D8_IN3*%
X101660000Y-42540000D03*
D14*
%TO.P,J4,2*%
%TO.N,/D9_IN4*%
X99120000Y-42540000D03*
%TO.P,J4,3*%
%TO.N,N/C*%
X96580000Y-42540000D03*
%TO.P,J4,4*%
%TO.N,/D11_MOSI*%
X94040000Y-42540000D03*
%TO.P,J4,5*%
%TO.N,N/C*%
X91500000Y-42540000D03*
%TO.P,J4,6*%
X88960000Y-42540000D03*
%TO.P,J4,7*%
%TO.N,GND*%
X86420000Y-42540000D03*
%TO.P,J4,8*%
%TO.N,N/C*%
X83880000Y-42540000D03*
%TO.P,J4,9*%
%TO.N,/SDA*%
X81340000Y-42540000D03*
%TO.P,J4,10*%
%TO.N,/SCL*%
X78800000Y-42540000D03*
%TD*%
D13*
%TO.P,J9,1*%
%TO.N,/SW_IN*%
X125000000Y-63600000D03*
D14*
%TO.P,J9,2*%
%TO.N,GND*%
X125000000Y-66140000D03*
%TD*%
D26*
%TO.P,D1,1*%
%TO.N,GND*%
X79700000Y-75737500D03*
%TO.P,D1,2*%
%TO.N,/PWR_LED*%
X79700000Y-73862500D03*
%TD*%
D22*
%TO.P,R12,1*%
%TO.N,/D1_TX*%
X117687500Y-49600000D03*
%TO.P,R12,2*%
%TO.N,/RADAR_RX*%
X119512500Y-49600000D03*
%TD*%
D15*
%TO.P,Q1,1*%
%TO.N,/Q1_GATE*%
X75662500Y-64850000D03*
%TO.P,Q1,2*%
%TO.N,/VMOT*%
X75662500Y-66750000D03*
%TO.P,Q1,3*%
%TO.N,/VMOT_F*%
X77537500Y-65800000D03*
%TD*%
D12*
%TO.P,R10,1*%
%TO.N,/SW_IN*%
X123000000Y-71312500D03*
%TO.P,R10,2*%
%TO.N,/D2_SW*%
X123000000Y-69487500D03*
%TD*%
D13*
%TO.P,J10,1*%
%TO.N,+5V*%
X111800000Y-46600000D03*
D14*
%TO.P,J10,2*%
%TO.N,GND*%
X114340000Y-46600000D03*
%TO.P,J10,3*%
%TO.N,/RADAR_TX*%
X116880000Y-46600000D03*
%TO.P,J10,4*%
%TO.N,/RADAR_RX*%
X119420000Y-46600000D03*
%TD*%
D12*
%TO.P,R3,1*%
%TO.N,/VMOT*%
X123000000Y-78912500D03*
%TO.P,R3,2*%
%TO.N,/SENSE_DIV*%
X123000000Y-77087500D03*
%TD*%
D13*
%TO.P,J3,1*%
%TO.N,/D0_RX*%
X123500000Y-42540000D03*
D14*
%TO.P,J3,2*%
%TO.N,/D1_TX*%
X120960000Y-42540000D03*
%TO.P,J3,3*%
%TO.N,/D2_SW*%
X118420000Y-42540000D03*
%TO.P,J3,4*%
%TO.N,/D3_INT*%
X115880000Y-42540000D03*
%TO.P,J3,5*%
%TO.N,/D4_IN1*%
X113340000Y-42540000D03*
%TO.P,J3,6*%
%TO.N,N/C*%
X110800000Y-42540000D03*
%TO.P,J3,7*%
X108260000Y-42540000D03*
%TO.P,J3,8*%
%TO.N,/D7_IN2*%
X105720000Y-42540000D03*
%TD*%
D12*
%TO.P,R1,1*%
%TO.N,/Q1_GATE*%
X79700000Y-66712500D03*
%TO.P,R1,2*%
%TO.N,GND*%
X79700000Y-64887500D03*
%TD*%
D13*
%TO.P,JP1,1*%
%TO.N,/SENSE_DIV*%
X115500000Y-86600000D03*
D14*
%TO.P,JP1,2*%
%TO.N,/SENSE_SEL*%
X118040000Y-86600000D03*
%TO.P,JP1,3*%
%TO.N,+3V3*%
X120580000Y-86600000D03*
%TD*%
D27*
%TO.P,C1,1*%
%TO.N,/VMOT*%
X65000000Y-87600000D03*
D28*
%TO.P,C1,2*%
%TO.N,GND*%
X68500000Y-87600000D03*
%TD*%
D29*
%TO.N,+3V3*%
X107000000Y-48556200D03*
%TO.N,+5V*%
X82158100Y-82850000D03*
%TO.N,/A0_SENSE*%
X124418300Y-77831700D03*
%TO.N,/D0_RX*%
X116800100Y-48700000D03*
%TO.N,/D11_MOSI*%
X79123800Y-83800000D03*
%TO.N,/D1_TX*%
X118224300Y-48385000D03*
%TO.N,/D2_SW*%
X115695400Y-68572600D03*
%TO.N,/SENSE_SEL*%
X118040100Y-75112500D03*
%TO.N,/STEP_3*%
X68487200Y-54815700D03*
%TO.N,/STEP_4*%
X68445400Y-53667900D03*
%TO.N,/SW_IN*%
X124262500Y-71312500D03*
D30*
%TO.N,/VMOT*%
X75062500Y-67667100D03*
X69013900Y-48043900D03*
%TO.N,/VMOT_IN*%
X69922700Y-64087500D03*
D29*
%TO.N,GND*%
X73850000Y-46400000D03*
X94500000Y-77500000D03*
X100500000Y-53500000D03*
X61500000Y-71500000D03*
X111217310Y-44731559D03*
X64500000Y-68500000D03*
X121500000Y-59500000D03*
X94500000Y-80500000D03*
X106500000Y-74500000D03*
X61500000Y-74500000D03*
X82500000Y-71500000D03*
X61500000Y-59500000D03*
X103500000Y-77500000D03*
X76500000Y-47500000D03*
X103500000Y-80500000D03*
X100500000Y-68500000D03*
X109500000Y-62500000D03*
X61500000Y-89500000D03*
X109500000Y-68500000D03*
X82500000Y-65500000D03*
X115500000Y-77500000D03*
X115500000Y-74500000D03*
X76500000Y-89500000D03*
X67500000Y-59500000D03*
X109500000Y-53500000D03*
X103500000Y-71500000D03*
X91500000Y-65500000D03*
X73500000Y-74500000D03*
X103500000Y-59500000D03*
X97500000Y-65500000D03*
X100500000Y-50500000D03*
X67500000Y-71500000D03*
X103500000Y-68500000D03*
X73500000Y-71500000D03*
X91500000Y-62500000D03*
X72527098Y-63694628D03*
X85500000Y-65500000D03*
X61500000Y-65500000D03*
X121500000Y-62500000D03*
X100500000Y-80500000D03*
X109500000Y-56500000D03*
X97500000Y-83500000D03*
X109500000Y-59500000D03*
X75118997Y-81506497D03*
X94500000Y-59500000D03*
X70500000Y-89500000D03*
X100500000Y-71500000D03*
X88500000Y-68500000D03*
X91500000Y-71500000D03*
X118500000Y-53500000D03*
X61500000Y-77500000D03*
X67500000Y-47500000D03*
X103500000Y-62500000D03*
X100500000Y-65500000D03*
X64500000Y-44500000D03*
X85500000Y-89500000D03*
X82100000Y-75737500D03*
X85500000Y-50500000D03*
X88500000Y-59500000D03*
X94500000Y-71500000D03*
X67500000Y-77500000D03*
X97500000Y-77500000D03*
X88500000Y-83500000D03*
X76852943Y-78702943D03*
X67500000Y-68500000D03*
X127717310Y-74205940D03*
X91500000Y-83500000D03*
X67500000Y-50500000D03*
X85500000Y-83500000D03*
X106500000Y-65500000D03*
X67500000Y-89500000D03*
X73500000Y-80500000D03*
X112500000Y-77500000D03*
X106500000Y-71500000D03*
X77036525Y-86135819D03*
X73500000Y-65500000D03*
X106500000Y-56500000D03*
X85500000Y-74500000D03*
X97500000Y-71500000D03*
X121500000Y-53500000D03*
X82500000Y-59500000D03*
X70500000Y-41500000D03*
X91500000Y-59500000D03*
X67500000Y-65500000D03*
X103500000Y-65500000D03*
X106500000Y-62500000D03*
X67500000Y-80500000D03*
X73500000Y-62500000D03*
X100500000Y-74500000D03*
X76500000Y-59500000D03*
X76500000Y-68500000D03*
X73500000Y-59500000D03*
X82500000Y-50500000D03*
X76500000Y-74500000D03*
X106500000Y-77500000D03*
X82500000Y-62500000D03*
X100795381Y-85660699D03*
X61500000Y-86500000D03*
X61500000Y-62500000D03*
X121500000Y-65500000D03*
X97500000Y-53500000D03*
X91500000Y-50500000D03*
X85500000Y-71500000D03*
X124500000Y-47500000D03*
X64500000Y-41500000D03*
X70500000Y-83500000D03*
X118500000Y-59500000D03*
X82500000Y-68500000D03*
X85500000Y-59500000D03*
X106500000Y-59500000D03*
X97500000Y-80500000D03*
X64500000Y-65500000D03*
X100500000Y-62500000D03*
X124772901Y-67694628D03*
X118500000Y-71500000D03*
X70500000Y-86500000D03*
X103500000Y-44500000D03*
X82500000Y-89500000D03*
X88500000Y-80500000D03*
X91500000Y-68500000D03*
X67500000Y-44500000D03*
X97500000Y-62500000D03*
X88500000Y-65500000D03*
X72672901Y-81932128D03*
X109500000Y-74500000D03*
X124500000Y-53500000D03*
X70500000Y-74500000D03*
X88500000Y-71500000D03*
X94500000Y-62500000D03*
X79500000Y-47500000D03*
X85500000Y-62500000D03*
X88500000Y-74500000D03*
X118500000Y-62500000D03*
X85500000Y-80500000D03*
X64500000Y-83500000D03*
X94500000Y-68500000D03*
X112500000Y-86500000D03*
X121500000Y-50500000D03*
X97500000Y-74500000D03*
X97500000Y-68500000D03*
X82500000Y-80500000D03*
X61500000Y-83500000D03*
X79500000Y-44500000D03*
X103500000Y-74500000D03*
X121500000Y-80500000D03*
X127717310Y-78005940D03*
X94500000Y-65500000D03*
X61500000Y-44500000D03*
X109500000Y-80500000D03*
X67500000Y-41500000D03*
X61500000Y-80500000D03*
X85500000Y-68500000D03*
X109500000Y-65500000D03*
X106500000Y-68500000D03*
X70500000Y-77500000D03*
X106500000Y-83500000D03*
X118500000Y-56500000D03*
X61500000Y-41500000D03*
X124500000Y-50500000D03*
X115500000Y-71500000D03*
X91500000Y-77500000D03*
X121500000Y-56500000D03*
X61500000Y-68500000D03*
X80427098Y-63132128D03*
X100500000Y-77500000D03*
X88500000Y-62500000D03*
X70500000Y-44500000D03*
X64500000Y-62500000D03*
X109500000Y-71500000D03*
X94500000Y-74500000D03*
X91500000Y-74500000D03*
X118500000Y-65500000D03*
X74300974Y-47569180D03*
X64500000Y-71500000D03*
X100500000Y-59500000D03*
X103500000Y-50500000D03*
X115500000Y-83500000D03*
%TD*%
D31*
%TO.N,+3V3*%
X96736900Y-89623100D02*
X106223700Y-89623100D01*
X106223700Y-89623100D02*
X108579300Y-91978700D01*
X120580000Y-86600000D02*
X120580000Y-85423100D01*
X120580000Y-85423100D02*
X121089400Y-85423100D01*
X117150000Y-90374600D02*
X119747700Y-87776900D01*
X116374800Y-91978700D02*
X117150000Y-91203500D01*
X120580000Y-86600000D02*
X120580000Y-87776900D01*
X117150000Y-91203500D02*
X117150000Y-90374600D01*
X95560000Y-90800000D02*
X96736900Y-89623100D01*
X107000000Y-48556200D02*
X107000000Y-47550000D01*
X121089400Y-85423100D02*
X123662500Y-82850000D01*
X119747700Y-87776900D02*
X120580000Y-87776900D01*
X108579300Y-91978700D02*
X116374800Y-91978700D01*
D32*
%TO.N,+5V*%
X72750000Y-77729900D02*
X72750000Y-77200000D01*
X91750000Y-91312200D02*
X91750000Y-90300300D01*
X76650000Y-80762500D02*
X78737500Y-82850000D01*
X91750000Y-90300300D02*
X89251600Y-87801900D01*
X92439700Y-92001900D02*
X91750000Y-91312200D01*
X76650000Y-80400000D02*
X76650000Y-80762500D01*
X111800000Y-46600000D02*
X109950000Y-46600000D01*
X89251600Y-87801900D02*
X85388100Y-87801900D01*
X98100000Y-90800000D02*
X96898100Y-90800000D01*
X96898100Y-91175700D02*
X96071900Y-92001900D01*
X85388100Y-87801900D02*
X84561900Y-86975700D01*
X83360000Y-86600000D02*
X84561900Y-86600000D01*
X75420100Y-80400000D02*
X72750000Y-77729900D01*
X109950000Y-46600000D02*
X109000000Y-47550000D01*
X96071900Y-92001900D02*
X92439700Y-92001900D01*
X76650000Y-80400000D02*
X75420100Y-80400000D01*
X78737500Y-82850000D02*
X82158100Y-82850000D01*
X96898100Y-90800000D02*
X96898100Y-91175700D01*
X84561900Y-86975700D02*
X84561900Y-86600000D01*
D31*
%TO.N,/A0_SENSE*%
X124825000Y-75112500D02*
X123000000Y-73287500D01*
X124418300Y-77831700D02*
X124418300Y-75519200D01*
X124418300Y-75519200D02*
X124825000Y-75112500D01*
X125500000Y-75112500D02*
X124825000Y-75112500D01*
%TO.N,/A1_SERVO1*%
X112163100Y-90800000D02*
X112163100Y-89990800D01*
X113340000Y-90800000D02*
X112163100Y-90800000D01*
X112163100Y-89990800D02*
X111343500Y-89171200D01*
X111343500Y-89171200D02*
X93058700Y-89171200D01*
X93058700Y-89171200D02*
X91400000Y-87512500D01*
%TO.N,/A2_SERVO2*%
X112676200Y-88403100D02*
X103290600Y-88403100D01*
X103290600Y-88403100D02*
X102400000Y-87512500D01*
X115880000Y-90800000D02*
X114703100Y-90800000D01*
X114703100Y-90430000D02*
X112676200Y-88403100D01*
X114703100Y-90800000D02*
X114703100Y-90430000D01*
%TO.N,/D0_RX*%
X116800100Y-48700000D02*
X115912500Y-49587600D01*
X115912500Y-49587600D02*
X115912500Y-49600000D01*
D33*
%TO.N,/D11_MOSI*%
X76138500Y-84124000D02*
X76462500Y-83800000D01*
D31*
X73603300Y-85512500D02*
X74991800Y-84124000D01*
X76462500Y-83800000D02*
X79123800Y-83800000D01*
X73400000Y-85512500D02*
X73603300Y-85512500D01*
D33*
X74991800Y-84124000D02*
X76138500Y-84124000D01*
D31*
%TO.N,/D1_TX*%
X118224300Y-49063200D02*
X117687500Y-49600000D01*
X118224300Y-48385000D02*
X118224300Y-49063200D01*
%TO.N,/D2_SW*%
X122085100Y-68572600D02*
X115695400Y-68572600D01*
X123000000Y-69487500D02*
X122085100Y-68572600D01*
%TO.N,/D4_IN1*%
X113070000Y-47547900D02*
X113070000Y-43986900D01*
X113070000Y-43986900D02*
X113340000Y-43716900D01*
X76148200Y-57201000D02*
X103416900Y-57201000D01*
D33*
X76148200Y-57201000D02*
X75519000Y-57201000D01*
D31*
X103416900Y-57201000D02*
X113070000Y-47547900D01*
D33*
X75519000Y-57201000D02*
X74875000Y-57845000D01*
D31*
X113340000Y-42540000D02*
X113340000Y-43716900D01*
%TO.N,/D7_IN2*%
X96583500Y-55931000D02*
X76154000Y-55931000D01*
X105720000Y-42540000D02*
X105720000Y-46794500D01*
X105720000Y-46794500D02*
X96583500Y-55931000D01*
D33*
X76154000Y-55931000D02*
X75519000Y-55931000D01*
X75519000Y-55931000D02*
X74875000Y-56575000D01*
D31*
%TO.N,/D8_IN3*%
X92704300Y-54661000D02*
X76154000Y-54661000D01*
D33*
X75519000Y-54661000D02*
X74875000Y-55305000D01*
D31*
X101660000Y-43716900D02*
X100370000Y-45006900D01*
X100370000Y-45006900D02*
X100370000Y-46995300D01*
D33*
X76154000Y-54661000D02*
X75519000Y-54661000D01*
D31*
X100370000Y-46995300D02*
X92704300Y-54661000D01*
X101660000Y-42540000D02*
X101660000Y-43716900D01*
D33*
%TO.N,/D9_IN4*%
X75519000Y-53391000D02*
X74875000Y-54035000D01*
D31*
X97830000Y-45006900D02*
X97830000Y-47049600D01*
X99120000Y-42540000D02*
X99120000Y-43716900D01*
D33*
X76182300Y-53391000D02*
X75519000Y-53391000D01*
D31*
X97830000Y-47049600D02*
X91488600Y-53391000D01*
X99120000Y-43716900D02*
X97830000Y-45006900D01*
X91488600Y-53391000D02*
X76182300Y-53391000D01*
%TO.N,/LED_BUF*%
X80300000Y-88512500D02*
X78737500Y-86950000D01*
X78737500Y-86950000D02*
X78737500Y-84750000D01*
%TO.N,/LED_DIN*%
X81564400Y-85423100D02*
X84723100Y-85423100D01*
X84723100Y-85423100D02*
X85900000Y-86600000D01*
X80300000Y-86687500D02*
X81564400Y-85423100D01*
%TO.N,/PWR_LED*%
X79700000Y-69687500D02*
X80763100Y-70750600D01*
X80763100Y-72799400D02*
X79700000Y-73862500D01*
X80763100Y-70750600D02*
X80763100Y-72799400D01*
D33*
%TO.N,/Q1_GATE*%
X78121600Y-67796600D02*
X75662500Y-65337500D01*
X75662500Y-65337500D02*
X75662500Y-65312500D01*
D31*
X78615900Y-67796600D02*
X78121600Y-67796600D01*
X79700000Y-66712500D02*
X78615900Y-67796600D01*
X75662500Y-65312500D02*
X75662500Y-64850000D01*
%TO.N,/RADAR_RX*%
X119420000Y-46600000D02*
X119420000Y-49507500D01*
X119420000Y-49507500D02*
X119512500Y-49600000D01*
%TO.N,/RADAR_TX*%
X116880000Y-47776900D02*
X115910600Y-47776900D01*
X116880000Y-46600000D02*
X116880000Y-47776900D01*
X115910600Y-47776900D02*
X114087500Y-49600000D01*
%TO.N,/SCL*%
X79976900Y-42907900D02*
X82100900Y-45031900D01*
X90303100Y-46234200D02*
X90303100Y-46600000D01*
X79976900Y-42540000D02*
X79976900Y-42907900D01*
X91480000Y-46600000D02*
X90303100Y-46600000D01*
X82100900Y-45031900D02*
X89100800Y-45031900D01*
X78800000Y-42540000D02*
X79976900Y-42540000D01*
X89100800Y-45031900D02*
X90303100Y-46234200D01*
%TO.N,/SDA*%
X82516900Y-42864800D02*
X83369000Y-43716900D01*
X92843100Y-46234200D02*
X92843100Y-46600000D01*
X82516900Y-42540000D02*
X82516900Y-42864800D01*
X81340000Y-42540000D02*
X82516900Y-42540000D01*
X90325800Y-43716900D02*
X92843100Y-46234200D01*
X83369000Y-43716900D02*
X90325800Y-43716900D01*
X94020000Y-46600000D02*
X92843100Y-46600000D01*
%TO.N,/SENSE_DIV*%
X116676900Y-86232200D02*
X121009100Y-81900000D01*
X123000000Y-77299900D02*
X124612600Y-78912500D01*
X124612600Y-78912500D02*
X125500000Y-78912500D01*
X115500000Y-86600000D02*
X116676900Y-86600000D01*
X125537500Y-78950000D02*
X125537500Y-81900000D01*
X125500000Y-78912500D02*
X125537500Y-78950000D01*
X121009100Y-81900000D02*
X125537500Y-81900000D01*
X123000000Y-77087500D02*
X123000000Y-77299900D01*
X116676900Y-86600000D02*
X116676900Y-86232200D01*
%TO.N,/SENSE_SEL*%
X123000000Y-75112500D02*
X118040100Y-75112500D01*
%TO.N,/SERVO1_SIG*%
X92312500Y-86600000D02*
X91400000Y-85687500D01*
X94360000Y-86600000D02*
X92312500Y-86600000D01*
%TO.N,/SERVO2_SIG*%
X103312500Y-86600000D02*
X102400000Y-85687500D01*
X105360000Y-86600000D02*
X103312500Y-86600000D01*
D32*
%TO.N,/STEP_1*%
X63400000Y-55700000D02*
X63400000Y-56901900D01*
D34*
X64725400Y-57226000D02*
X69306000Y-57226000D01*
X69306000Y-57226000D02*
X69925000Y-57845000D01*
D32*
X63400000Y-56901900D02*
X64401300Y-56901900D01*
X64401300Y-56901900D02*
X64725400Y-57226000D01*
%TO.N,/STEP_2*%
X63400000Y-53200000D02*
X65934700Y-53200000D01*
D34*
X68690700Y-55956000D02*
X69306000Y-55956000D01*
D32*
X65934700Y-53200000D02*
X68690700Y-55956000D01*
D34*
X69306000Y-55956000D02*
X69925000Y-56575000D01*
%TO.N,/STEP_3*%
X68976500Y-55305000D02*
X68487200Y-54815700D01*
X69925000Y-55305000D02*
X68976500Y-55305000D01*
%TO.N,/STEP_4*%
X69557900Y-53667900D02*
X68445400Y-53667900D01*
X69925000Y-54035000D02*
X69557900Y-53667900D01*
D31*
%TO.N,/SW_IN*%
X124262500Y-71312500D02*
X123000000Y-71312500D01*
X124262500Y-71312500D02*
X124300000Y-71350000D01*
X124300000Y-71350000D02*
X125500000Y-71350000D01*
D35*
%TO.N,/VMOT*%
X98889800Y-84610200D02*
X105910200Y-84610200D01*
X87500000Y-77200000D02*
X96900000Y-86600000D01*
D36*
X75874700Y-71512500D02*
X79700000Y-71512500D01*
D35*
X96900000Y-86600000D02*
X98889800Y-84610200D01*
X71800000Y-67350000D02*
X64051900Y-59601900D01*
X63400000Y-58200000D02*
X63400000Y-59601900D01*
X115587500Y-78912500D02*
X107900000Y-86600000D01*
X123000000Y-78912500D02*
X115587500Y-78912500D01*
X69925000Y-46525000D02*
X69925000Y-48955000D01*
X70050000Y-46400000D02*
X69925000Y-46525000D01*
X75062500Y-70725800D02*
X75088100Y-70751400D01*
X69013900Y-48043900D02*
X69925000Y-48955000D01*
X105910200Y-84610200D02*
X107900000Y-86600000D01*
X75088100Y-70751400D02*
X75088100Y-76161900D01*
X75062500Y-67350000D02*
X75662500Y-66750000D01*
X75062500Y-67667100D02*
X75062500Y-70725800D01*
X64051900Y-59601900D02*
X63400000Y-59601900D01*
X71800000Y-67350000D02*
X75062500Y-67350000D01*
D36*
X75113600Y-70751400D02*
X75874700Y-71512500D01*
D35*
X74050000Y-77200000D02*
X87500000Y-77200000D01*
X75088100Y-70751400D02*
X75113600Y-70751400D01*
X75088100Y-76161900D02*
X74050000Y-77200000D01*
X75062500Y-67350000D02*
X75062500Y-67667100D01*
%TO.N,/VMOT_F*%
X77537500Y-64400000D02*
X77537500Y-65800000D01*
X75137500Y-62000000D02*
X77537500Y-64400000D01*
%TO.N,/VMOT_IN*%
X69922700Y-62939800D02*
X70862500Y-62000000D01*
X69922700Y-64087500D02*
X69922700Y-62939800D01*
D37*
%TO.N,GND*%
X125500000Y-73287500D02*
X127717310Y-74205940D01*
X125500000Y-77087500D02*
X127717310Y-78005940D01*
X79700000Y-64887500D02*
X80427098Y-63132128D01*
X125500000Y-69450000D02*
X124772901Y-67694628D01*
X109000000Y-45650000D02*
X111217310Y-44731559D01*
X78550000Y-80400000D02*
X76852943Y-78702943D01*
X71800000Y-65450000D02*
X72527098Y-63694628D01*
X79700000Y-75737500D02*
X82100000Y-75737500D01*
X76462500Y-82850000D02*
X75118997Y-81506497D01*
X71950000Y-46400000D02*
X73850000Y-46400000D01*
X73400000Y-83687500D02*
X72672901Y-81932128D01*
X74875000Y-48955000D02*
X74300974Y-47569180D01*
X76462500Y-84750000D02*
X77036525Y-86135819D01*
%TD*%
%TA.AperFunction,Conductor*%
%TO.N,GND*%
G36*
X102720507Y-90590156D02*
G01*
X102680000Y-90728111D01*
X102680000Y-90871889D01*
X102720507Y-91009844D01*
X102746314Y-91050000D01*
X101073686Y-91050000D01*
X101099493Y-91009844D01*
X101140000Y-90871889D01*
X101140000Y-90728111D01*
X101099493Y-90590156D01*
X101073686Y-90550000D01*
X102746314Y-90550000D01*
X102720507Y-90590156D01*
G37*
%TD.AperFunction*%
%TA.AperFunction,Conductor*%
G36*
X124205703Y-79107797D02*
G01*
X124212181Y-79113829D01*
X124264072Y-79165720D01*
X124359380Y-79261028D01*
X124380896Y-79271991D01*
X124397478Y-79282153D01*
X124417019Y-79296350D01*
X124439983Y-79303811D01*
X124457956Y-79311254D01*
X124479474Y-79322219D01*
X124479475Y-79322219D01*
X124483722Y-79324383D01*
X124534517Y-79372359D01*
X124542779Y-79389376D01*
X124565638Y-79447341D01*
X124657077Y-79567922D01*
X124777656Y-79659360D01*
X124777657Y-79659360D01*
X124777658Y-79659361D01*
X124918436Y-79714877D01*
X125002785Y-79725006D01*
X125066998Y-79752542D01*
X125106131Y-79810424D01*
X125112000Y-79848121D01*
X125112000Y-81175500D01*
X125092315Y-81242539D01*
X125039511Y-81288294D01*
X124988000Y-81299500D01*
X124920995Y-81299500D01*
X124853956Y-81279815D01*
X124808201Y-81227011D01*
X124806301Y-81214811D01*
X124793162Y-81200000D01*
X122531838Y-81200000D01*
X122535614Y-81231446D01*
X122564624Y-81305010D01*
X122570906Y-81374597D01*
X122538569Y-81436533D01*
X122477880Y-81471154D01*
X122449270Y-81474500D01*
X120941704Y-81474500D01*
X120918739Y-81481962D01*
X120899822Y-81486503D01*
X120875973Y-81490280D01*
X120854458Y-81501243D01*
X120836485Y-81508688D01*
X120813517Y-81516151D01*
X120813514Y-81516152D01*
X120793978Y-81530346D01*
X120777393Y-81540510D01*
X120755880Y-81551471D01*
X120746033Y-81561319D01*
X120731906Y-81575446D01*
X116753842Y-85553509D01*
X116692519Y-85586994D01*
X116622827Y-85582010D01*
X116578480Y-85553509D01*
X116522765Y-85497794D01*
X116419992Y-85452415D01*
X116394865Y-85449500D01*
X114605143Y-85449500D01*
X114605117Y-85449502D01*
X114580012Y-85452413D01*
X114580008Y-85452415D01*
X114477235Y-85497793D01*
X114397794Y-85577234D01*
X114352415Y-85680006D01*
X114352415Y-85680008D01*
X114349500Y-85705131D01*
X114349500Y-87494856D01*
X114349502Y-87494882D01*
X114352413Y-87519987D01*
X114352415Y-87519991D01*
X114397793Y-87622764D01*
X114397794Y-87622765D01*
X114477235Y-87702206D01*
X114580009Y-87747585D01*
X114605135Y-87750500D01*
X116394864Y-87750499D01*
X116394879Y-87750497D01*
X116394882Y-87750497D01*
X116419987Y-87747586D01*
X116419988Y-87747585D01*
X116419991Y-87747585D01*
X116522765Y-87702206D01*
X116602206Y-87622765D01*
X116647585Y-87519991D01*
X116650500Y-87494865D01*
X116650499Y-87140890D01*
X116670183Y-87073852D01*
X116722987Y-87028097D01*
X116755096Y-87018418D01*
X116810026Y-87009719D01*
X116817162Y-87006082D01*
X116885830Y-86993186D01*
X116950571Y-87019462D01*
X116984457Y-87061296D01*
X117057632Y-87208253D01*
X117165733Y-87351400D01*
X117186128Y-87378407D01*
X117343698Y-87522052D01*
X117524981Y-87634298D01*
X117723802Y-87711321D01*
X117933390Y-87750500D01*
X117933392Y-87750500D01*
X118146608Y-87750500D01*
X118146610Y-87750500D01*
X118356198Y-87711321D01*
X118555019Y-87634298D01*
X118736302Y-87522052D01*
X118893872Y-87378407D01*
X119022366Y-87208255D01*
X119039916Y-87173009D01*
X119117403Y-87017394D01*
X119117403Y-87017393D01*
X119117405Y-87017389D01*
X119175756Y-86812310D01*
X119186529Y-86696047D01*
X119212315Y-86631111D01*
X119256869Y-86599194D01*
X119220497Y-86578331D01*
X119188307Y-86516318D01*
X119186529Y-86503951D01*
X119181129Y-86445675D01*
X119175756Y-86387690D01*
X119117405Y-86182611D01*
X119117403Y-86182606D01*
X119117403Y-86182605D01*
X119022367Y-85991746D01*
X118893872Y-85821593D01*
X118862994Y-85793444D01*
X118736302Y-85677948D01*
X118555019Y-85565702D01*
X118555017Y-85565701D01*
X118356197Y-85488678D01*
X118306013Y-85479297D01*
X118243733Y-85447629D01*
X118208461Y-85387316D01*
X118211395Y-85317508D01*
X118241117Y-85269730D01*
X121149029Y-82361819D01*
X121210352Y-82328334D01*
X121236710Y-82325500D01*
X122553998Y-82325500D01*
X122621037Y-82345185D01*
X122666792Y-82397989D01*
X122676736Y-82467147D01*
X122671039Y-82490455D01*
X122627354Y-82615298D01*
X122627353Y-82615300D01*
X122624500Y-82645730D01*
X122624500Y-83054269D01*
X122627353Y-83084699D01*
X122627353Y-83084701D01*
X122653125Y-83158349D01*
X122656688Y-83228127D01*
X122623765Y-83286985D01*
X120949471Y-84961281D01*
X120888148Y-84994766D01*
X120861790Y-84997600D01*
X120623245Y-84997600D01*
X120603847Y-84996073D01*
X120580000Y-84992296D01*
X120579999Y-84992296D01*
X120567290Y-84994309D01*
X120546512Y-84997600D01*
X120546511Y-84997600D01*
X120446878Y-85013379D01*
X120446874Y-85013380D01*
X120446874Y-85013381D01*
X120416664Y-85028774D01*
X120326778Y-85074573D01*
X120326774Y-85074576D01*
X120231476Y-85169874D01*
X120231473Y-85169878D01*
X120170279Y-85289978D01*
X120149196Y-85423097D01*
X120149196Y-85423101D01*
X120149949Y-85427857D01*
X120140992Y-85497150D01*
X120095994Y-85550601D01*
X120072273Y-85562876D01*
X120064987Y-85565698D01*
X120064979Y-85565702D01*
X119883699Y-85677947D01*
X119726127Y-85821593D01*
X119597632Y-85991746D01*
X119502596Y-86182605D01*
X119502596Y-86182607D01*
X119444244Y-86387689D01*
X119433471Y-86503951D01*
X119407685Y-86568888D01*
X119363130Y-86600804D01*
X119399503Y-86621668D01*
X119431693Y-86683681D01*
X119433470Y-86696047D01*
X119444244Y-86812310D01*
X119500412Y-87009718D01*
X119502596Y-87017392D01*
X119502596Y-87017394D01*
X119597634Y-87208256D01*
X119600653Y-87213132D01*
X119599285Y-87213978D01*
X119621305Y-87272262D01*
X119606741Y-87340597D01*
X119557545Y-87390210D01*
X119553960Y-87392112D01*
X119552117Y-87393050D01*
X119532584Y-87407242D01*
X119516003Y-87417404D01*
X119494480Y-87428372D01*
X119494479Y-87428372D01*
X119470506Y-87452346D01*
X116905156Y-90017695D01*
X116843833Y-90051180D01*
X116774141Y-90046196D01*
X116733937Y-90021651D01*
X116578562Y-89880008D01*
X116576302Y-89877948D01*
X116395019Y-89765702D01*
X116395017Y-89765701D01*
X116295608Y-89727190D01*
X116196198Y-89688679D01*
X115986610Y-89649500D01*
X115773390Y-89649500D01*
X115563802Y-89688679D01*
X115563799Y-89688679D01*
X115563799Y-89688680D01*
X115364982Y-89765701D01*
X115364980Y-89765702D01*
X115183696Y-89877949D01*
X115045784Y-90003673D01*
X114982980Y-90034290D01*
X114913593Y-90026093D01*
X114874565Y-89999717D01*
X112929418Y-88054570D01*
X112907903Y-88043608D01*
X112891310Y-88033440D01*
X112871780Y-88019250D01*
X112848815Y-88011788D01*
X112830841Y-88004343D01*
X112809327Y-87993381D01*
X112804210Y-87992570D01*
X112785473Y-87989603D01*
X112766558Y-87985062D01*
X112743594Y-87977600D01*
X112743593Y-87977600D01*
X112709688Y-87977600D01*
X111002807Y-87977600D01*
X110935768Y-87957915D01*
X110890013Y-87905111D01*
X110880069Y-87835953D01*
X110909094Y-87772397D01*
X110950402Y-87741218D01*
X111067387Y-87686666D01*
X111246554Y-87561212D01*
X111401212Y-87406554D01*
X111526666Y-87227387D01*
X111619101Y-87029159D01*
X111619105Y-87029150D01*
X111667108Y-86850000D01*
X110873686Y-86850000D01*
X110899493Y-86809844D01*
X110940000Y-86671889D01*
X110940000Y-86528111D01*
X110899493Y-86390156D01*
X110873686Y-86350000D01*
X111667108Y-86350000D01*
X111667108Y-86349999D01*
X111619105Y-86170849D01*
X111619101Y-86170840D01*
X111526666Y-85972612D01*
X111526664Y-85972608D01*
X111401216Y-85793450D01*
X111401211Y-85793444D01*
X111246554Y-85638787D01*
X111067387Y-85513333D01*
X110869159Y-85420898D01*
X110869150Y-85420894D01*
X110690000Y-85372891D01*
X110690000Y-86164498D01*
X110582315Y-86115320D01*
X110475763Y-86100000D01*
X110404237Y-86100000D01*
X110297685Y-86115320D01*
X110190000Y-86164498D01*
X110190000Y-85354048D01*
X110180089Y-85340475D01*
X110175934Y-85270729D01*
X110209094Y-85210850D01*
X114719945Y-80700000D01*
X122531838Y-80700000D01*
X123412500Y-80700000D01*
X123412500Y-80250000D01*
X123912500Y-80250000D01*
X123912500Y-80700000D01*
X124793161Y-80700000D01*
X124789386Y-80668557D01*
X124733920Y-80527904D01*
X124642564Y-80407435D01*
X124522095Y-80316079D01*
X124381443Y-80260613D01*
X124293054Y-80250000D01*
X123912500Y-80250000D01*
X123412500Y-80250000D01*
X123031946Y-80250000D01*
X122943556Y-80260613D01*
X122802904Y-80316079D01*
X122682435Y-80407435D01*
X122591079Y-80527904D01*
X122535613Y-80668557D01*
X122531838Y-80700000D01*
X114719945Y-80700000D01*
X115820626Y-79599319D01*
X115881949Y-79565834D01*
X115908307Y-79563000D01*
X122108888Y-79563000D01*
X122175927Y-79582685D01*
X122183803Y-79588188D01*
X122277658Y-79659361D01*
X122418436Y-79714877D01*
X122506898Y-79725500D01*
X122506903Y-79725500D01*
X123493097Y-79725500D01*
X123493102Y-79725500D01*
X123581564Y-79714877D01*
X123722342Y-79659361D01*
X123842922Y-79567922D01*
X123934361Y-79447342D01*
X123989877Y-79306564D01*
X124000500Y-79218102D01*
X124000500Y-79201510D01*
X124020185Y-79134471D01*
X124072989Y-79088716D01*
X124142147Y-79078772D01*
X124205703Y-79107797D01*
G37*
%TD.AperFunction*%
%TA.AperFunction,Conductor*%
G36*
X101342539Y-85280385D02*
G01*
X101388294Y-85333189D01*
X101399500Y-85384700D01*
X101399500Y-85993102D01*
X101405126Y-86039954D01*
X101410122Y-86081561D01*
X101465639Y-86222343D01*
X101557077Y-86342922D01*
X101677656Y-86434360D01*
X101677657Y-86434360D01*
X101677658Y-86434361D01*
X101805171Y-86484646D01*
X101860314Y-86527551D01*
X101883507Y-86593459D01*
X101867386Y-86661444D01*
X101817070Y-86709920D01*
X101805178Y-86715351D01*
X101753663Y-86735665D01*
X101677656Y-86765639D01*
X101557077Y-86857077D01*
X101465639Y-86977656D01*
X101410122Y-87118438D01*
X101404617Y-87164284D01*
X101399500Y-87206898D01*
X101399500Y-87818102D01*
X101404181Y-87857080D01*
X101410122Y-87906561D01*
X101410122Y-87906563D01*
X101410123Y-87906564D01*
X101411488Y-87910026D01*
X101465639Y-88047343D01*
X101557077Y-88167922D01*
X101677656Y-88259360D01*
X101677657Y-88259360D01*
X101677658Y-88259361D01*
X101818436Y-88314877D01*
X101906898Y-88325500D01*
X102559890Y-88325500D01*
X102626929Y-88345185D01*
X102647571Y-88361819D01*
X102819771Y-88534019D01*
X102853256Y-88595342D01*
X102848272Y-88665034D01*
X102806400Y-88720967D01*
X102740936Y-88745384D01*
X102732090Y-88745700D01*
X93286310Y-88745700D01*
X93219271Y-88726015D01*
X93198629Y-88709381D01*
X92433133Y-87943885D01*
X92399648Y-87882562D01*
X92397699Y-87841423D01*
X92400500Y-87818102D01*
X92400500Y-87206898D01*
X92395382Y-87164281D01*
X92406934Y-87095376D01*
X92453906Y-87043652D01*
X92518498Y-87025500D01*
X93085501Y-87025500D01*
X93152540Y-87045185D01*
X93198295Y-87097989D01*
X93209501Y-87149500D01*
X93209501Y-87494856D01*
X93209502Y-87494882D01*
X93212413Y-87519987D01*
X93212415Y-87519991D01*
X93257793Y-87622764D01*
X93257794Y-87622765D01*
X93337235Y-87702206D01*
X93440009Y-87747585D01*
X93465135Y-87750500D01*
X95254864Y-87750499D01*
X95254879Y-87750497D01*
X95254882Y-87750497D01*
X95279987Y-87747586D01*
X95279988Y-87747585D01*
X95279991Y-87747585D01*
X95382765Y-87702206D01*
X95462206Y-87622765D01*
X95507585Y-87519991D01*
X95510500Y-87494865D01*
X95510499Y-86756045D01*
X95530183Y-86689008D01*
X95582987Y-86643253D01*
X95652146Y-86633309D01*
X95715702Y-86662334D01*
X95753476Y-86721112D01*
X95757970Y-86744605D01*
X95759919Y-86765639D01*
X95764244Y-86812310D01*
X95820412Y-87009718D01*
X95822596Y-87017392D01*
X95822596Y-87017394D01*
X95917632Y-87208253D01*
X96025733Y-87351400D01*
X96046128Y-87378407D01*
X96203698Y-87522052D01*
X96384981Y-87634298D01*
X96583802Y-87711321D01*
X96793390Y-87750500D01*
X96793392Y-87750500D01*
X97006608Y-87750500D01*
X97006610Y-87750500D01*
X97216198Y-87711321D01*
X97415019Y-87634298D01*
X97596302Y-87522052D01*
X97753872Y-87378407D01*
X97882366Y-87208255D01*
X97899916Y-87173009D01*
X97977403Y-87017394D01*
X97977403Y-87017393D01*
X97977405Y-87017389D01*
X98035756Y-86812310D01*
X98055429Y-86600000D01*
X98040829Y-86442444D01*
X98054244Y-86373878D01*
X98076616Y-86343328D01*
X99122927Y-85297019D01*
X99184250Y-85263534D01*
X99210608Y-85260700D01*
X101275500Y-85260700D01*
X101342539Y-85280385D01*
G37*
%TD.AperFunction*%
%TA.AperFunction,Conductor*%
G36*
X87246231Y-77870185D02*
G01*
X87266873Y-77886819D01*
X94617873Y-85237819D01*
X94651358Y-85299142D01*
X94646374Y-85368834D01*
X94604502Y-85424767D01*
X94539038Y-85449184D01*
X94530192Y-85449500D01*
X93465143Y-85449500D01*
X93465117Y-85449502D01*
X93440012Y-85452413D01*
X93440008Y-85452415D01*
X93337235Y-85497793D01*
X93257794Y-85577234D01*
X93212415Y-85680006D01*
X93212415Y-85680008D01*
X93209500Y-85705131D01*
X93209500Y-86050500D01*
X93189815Y-86117539D01*
X93137011Y-86163294D01*
X93085500Y-86174500D01*
X92540110Y-86174500D01*
X92473071Y-86154815D01*
X92452429Y-86138181D01*
X92433133Y-86118885D01*
X92399648Y-86057562D01*
X92397699Y-86016423D01*
X92400500Y-85993102D01*
X92400500Y-85381898D01*
X92389877Y-85293436D01*
X92334361Y-85152658D01*
X92334360Y-85152657D01*
X92334360Y-85152656D01*
X92242922Y-85032077D01*
X92122343Y-84940639D01*
X91981561Y-84885122D01*
X91935926Y-84879642D01*
X91893102Y-84874500D01*
X90906898Y-84874500D01*
X90867853Y-84879188D01*
X90818438Y-84885122D01*
X90677656Y-84940639D01*
X90557077Y-85032077D01*
X90465639Y-85152656D01*
X90410122Y-85293438D01*
X90407232Y-85317508D01*
X90399500Y-85381898D01*
X90399500Y-85993102D01*
X90405126Y-86039954D01*
X90410122Y-86081561D01*
X90465639Y-86222343D01*
X90557077Y-86342922D01*
X90677656Y-86434360D01*
X90677657Y-86434360D01*
X90677658Y-86434361D01*
X90805171Y-86484646D01*
X90860314Y-86527551D01*
X90883507Y-86593459D01*
X90867386Y-86661444D01*
X90817070Y-86709920D01*
X90805178Y-86715351D01*
X90753663Y-86735665D01*
X90677656Y-86765639D01*
X90557077Y-86857077D01*
X90465639Y-86977656D01*
X90410122Y-87118438D01*
X90404617Y-87164284D01*
X90399500Y-87206898D01*
X90399500Y-87818102D01*
X90404181Y-87857080D01*
X90410122Y-87906561D01*
X90410122Y-87906563D01*
X90410123Y-87906564D01*
X90428653Y-87953553D01*
X90462570Y-88039560D01*
X90468851Y-88109147D01*
X90436514Y-88171083D01*
X90375825Y-88205704D01*
X90306053Y-88202019D01*
X90259534Y-88172731D01*
X89592968Y-87506165D01*
X89583702Y-87495797D01*
X89578981Y-87489877D01*
X89561479Y-87467930D01*
X89561478Y-87467929D01*
X89561477Y-87467928D01*
X89538622Y-87452346D01*
X89527649Y-87444864D01*
X89483348Y-87390838D01*
X89475288Y-87321435D01*
X89495928Y-87271286D01*
X89526665Y-87227390D01*
X89526666Y-87227388D01*
X89619101Y-87029159D01*
X89619105Y-87029150D01*
X89667108Y-86850000D01*
X88873686Y-86850000D01*
X88899493Y-86809844D01*
X88940000Y-86671889D01*
X88940000Y-86528111D01*
X88899493Y-86390156D01*
X88873686Y-86350000D01*
X89667108Y-86350000D01*
X89667108Y-86349999D01*
X89619105Y-86170849D01*
X89619101Y-86170840D01*
X89526666Y-85972612D01*
X89526664Y-85972608D01*
X89401216Y-85793450D01*
X89401211Y-85793444D01*
X89246554Y-85638787D01*
X89067387Y-85513333D01*
X88869159Y-85420898D01*
X88869150Y-85420894D01*
X88690000Y-85372891D01*
X88690000Y-86164498D01*
X88582315Y-86115320D01*
X88475763Y-86100000D01*
X88404237Y-86100000D01*
X88297685Y-86115320D01*
X88190000Y-86164498D01*
X88190000Y-85372892D01*
X88189999Y-85372891D01*
X88010849Y-85420894D01*
X88010840Y-85420898D01*
X87812612Y-85513333D01*
X87812608Y-85513335D01*
X87633450Y-85638783D01*
X87633444Y-85638788D01*
X87478788Y-85793444D01*
X87478783Y-85793450D01*
X87353335Y-85972608D01*
X87353333Y-85972612D01*
X87260898Y-86170840D01*
X87260895Y-86170847D01*
X87237968Y-86256413D01*
X87201603Y-86316073D01*
X87138756Y-86346602D01*
X87069380Y-86338307D01*
X87015502Y-86293822D01*
X86998927Y-86258253D01*
X86977405Y-86182611D01*
X86977403Y-86182608D01*
X86977403Y-86182605D01*
X86882367Y-85991746D01*
X86753872Y-85821593D01*
X86722994Y-85793444D01*
X86596302Y-85677948D01*
X86415019Y-85565702D01*
X86415017Y-85565701D01*
X86289479Y-85517068D01*
X86216198Y-85488679D01*
X86006610Y-85449500D01*
X85793390Y-85449500D01*
X85583802Y-85488679D01*
X85583797Y-85488680D01*
X85519763Y-85513487D01*
X85450140Y-85519349D01*
X85388400Y-85486638D01*
X85387289Y-85485541D01*
X84976318Y-85074570D01*
X84954803Y-85063608D01*
X84938210Y-85053440D01*
X84918680Y-85039250D01*
X84895715Y-85031788D01*
X84877741Y-85024343D01*
X84856227Y-85013381D01*
X84851110Y-85012570D01*
X84832373Y-85009603D01*
X84813458Y-85005062D01*
X84790494Y-84997600D01*
X84790493Y-84997600D01*
X84756588Y-84997600D01*
X81631793Y-84997600D01*
X81497007Y-84997600D01*
X81497004Y-84997601D01*
X81474035Y-85005063D01*
X81455122Y-85009603D01*
X81431274Y-85013380D01*
X81409759Y-85024342D01*
X81391789Y-85031785D01*
X81368821Y-85039248D01*
X81368817Y-85039249D01*
X81349280Y-85053444D01*
X81332698Y-85063606D01*
X81311183Y-85074569D01*
X81311180Y-85074571D01*
X80547571Y-85838181D01*
X80486248Y-85871666D01*
X80459890Y-85874500D01*
X79806898Y-85874500D01*
X79767853Y-85879188D01*
X79718438Y-85885122D01*
X79577656Y-85940639D01*
X79457077Y-86032077D01*
X79385804Y-86126066D01*
X79329611Y-86167590D01*
X79259890Y-86172141D01*
X79198776Y-86138276D01*
X79165672Y-86076746D01*
X79163000Y-86051141D01*
X79163000Y-85474500D01*
X79182685Y-85407461D01*
X79235489Y-85361706D01*
X79287000Y-85350500D01*
X79304270Y-85350500D01*
X79334699Y-85347646D01*
X79334701Y-85347646D01*
X79398790Y-85325219D01*
X79462882Y-85302793D01*
X79572150Y-85222150D01*
X79652793Y-85112882D01*
X79678559Y-85039248D01*
X79697646Y-84984701D01*
X79697646Y-84984699D01*
X79700500Y-84954269D01*
X79700500Y-84545730D01*
X79697646Y-84515300D01*
X79697646Y-84515298D01*
X79664006Y-84419163D01*
X79652793Y-84387118D01*
X79599077Y-84314335D01*
X79575107Y-84248708D01*
X79590422Y-84180537D01*
X79600461Y-84165231D01*
X79648336Y-84102841D01*
X79708844Y-83956762D01*
X79729482Y-83800000D01*
X79729409Y-83799448D01*
X79708844Y-83643239D01*
X79708844Y-83643238D01*
X79648336Y-83497159D01*
X79648334Y-83497156D01*
X79644272Y-83490119D01*
X79646248Y-83488977D01*
X79625311Y-83434807D01*
X79639355Y-83366363D01*
X79688173Y-83316377D01*
X79748882Y-83300500D01*
X81716681Y-83300500D01*
X81783720Y-83320185D01*
X81792167Y-83326124D01*
X81855257Y-83374535D01*
X81855258Y-83374535D01*
X81855259Y-83374536D01*
X82001338Y-83435044D01*
X82079719Y-83445363D01*
X82158099Y-83455682D01*
X82158100Y-83455682D01*
X82158101Y-83455682D01*
X82219140Y-83447646D01*
X82314862Y-83435044D01*
X82460941Y-83374536D01*
X82586382Y-83278282D01*
X82682636Y-83152841D01*
X82743144Y-83006762D01*
X82763782Y-82850000D01*
X82743144Y-82693238D01*
X82682636Y-82547159D01*
X82586382Y-82421718D01*
X82460941Y-82325464D01*
X82417415Y-82307435D01*
X82314862Y-82264956D01*
X82314860Y-82264955D01*
X82158101Y-82244318D01*
X82158099Y-82244318D01*
X82001339Y-82264955D01*
X82001337Y-82264956D01*
X81855257Y-82325464D01*
X81792167Y-82373876D01*
X81726998Y-82399070D01*
X81716681Y-82399500D01*
X79642288Y-82399500D01*
X79575249Y-82379815D01*
X79568655Y-82375270D01*
X79462886Y-82297209D01*
X79462880Y-82297206D01*
X79334700Y-82252353D01*
X79304270Y-82249500D01*
X79304266Y-82249500D01*
X78825466Y-82249500D01*
X78758427Y-82229815D01*
X78737785Y-82213181D01*
X78534557Y-82009953D01*
X78261283Y-81736679D01*
X78227799Y-81675358D01*
X78232783Y-81605667D01*
X78264996Y-81562634D01*
X78263681Y-81561319D01*
X78272828Y-81552171D01*
X78274654Y-81549733D01*
X78275631Y-81549368D01*
X78300000Y-81525000D01*
X78300000Y-80650000D01*
X78800000Y-80650000D01*
X78800000Y-81525000D01*
X78865634Y-81525000D01*
X78865649Y-81524999D01*
X78902489Y-81522100D01*
X78902495Y-81522099D01*
X79060193Y-81476283D01*
X79060196Y-81476282D01*
X79201552Y-81392685D01*
X79201561Y-81392678D01*
X79317678Y-81276561D01*
X79317685Y-81276552D01*
X79401282Y-81135196D01*
X79401283Y-81135193D01*
X79447099Y-80977495D01*
X79447100Y-80977489D01*
X79449999Y-80940649D01*
X79450000Y-80940634D01*
X79450000Y-80650000D01*
X78800000Y-80650000D01*
X78300000Y-80650000D01*
X78300000Y-79275000D01*
X78800000Y-79275000D01*
X78800000Y-80150000D01*
X79450000Y-80150000D01*
X79450000Y-79859365D01*
X79449999Y-79859350D01*
X79447100Y-79822510D01*
X79447099Y-79822504D01*
X79401283Y-79664806D01*
X79401282Y-79664803D01*
X79317685Y-79523447D01*
X79317678Y-79523438D01*
X79201561Y-79407321D01*
X79201552Y-79407314D01*
X79060196Y-79323717D01*
X79060193Y-79323716D01*
X78902495Y-79277900D01*
X78902489Y-79277899D01*
X78865649Y-79275000D01*
X78800000Y-79275000D01*
X78300000Y-79275000D01*
X78234350Y-79275000D01*
X78197510Y-79277899D01*
X78197504Y-79277900D01*
X78039806Y-79323716D01*
X78039803Y-79323717D01*
X77898447Y-79407314D01*
X77898438Y-79407321D01*
X77782321Y-79523438D01*
X77782314Y-79523447D01*
X77698717Y-79664803D01*
X77698716Y-79664804D01*
X77668666Y-79768238D01*
X77631059Y-79827123D01*
X77567587Y-79856329D01*
X77498400Y-79846583D01*
X77445466Y-79800978D01*
X77434238Y-79779137D01*
X77389151Y-79664804D01*
X77384361Y-79652657D01*
X77292922Y-79532077D01*
X77172343Y-79440639D01*
X77076192Y-79402722D01*
X77031564Y-79385123D01*
X77031563Y-79385122D01*
X77031561Y-79385122D01*
X76985926Y-79379642D01*
X76943102Y-79374500D01*
X76356898Y-79374500D01*
X76317853Y-79379188D01*
X76268438Y-79385122D01*
X76127656Y-79440639D01*
X76007077Y-79532077D01*
X75915639Y-79652656D01*
X75860122Y-79793438D01*
X75859217Y-79800978D01*
X75854497Y-79840285D01*
X75826961Y-79904497D01*
X75769079Y-79943631D01*
X75731382Y-79949500D01*
X75658065Y-79949500D01*
X75591026Y-79929815D01*
X75570384Y-79913181D01*
X74114342Y-78457139D01*
X74080857Y-78395816D01*
X74085841Y-78326124D01*
X74127713Y-78270191D01*
X74184376Y-78246720D01*
X74208016Y-78243322D01*
X74345971Y-78202815D01*
X74425120Y-78166669D01*
X74426725Y-78165638D01*
X74455263Y-78147297D01*
X74546074Y-78088937D01*
X74611836Y-78031954D01*
X74684390Y-77948221D01*
X74705981Y-77923304D01*
X74705982Y-77923301D01*
X74705990Y-77923293D01*
X74716165Y-77907459D01*
X74768968Y-77861706D01*
X74820480Y-77850500D01*
X87179192Y-77850500D01*
X87246231Y-77870185D01*
G37*
%TD.AperFunction*%
%TA.AperFunction,Conductor*%
G36*
X110592540Y-47070185D02*
G01*
X110638295Y-47122989D01*
X110649501Y-47174500D01*
X110649501Y-47494856D01*
X110649502Y-47494882D01*
X110652413Y-47519987D01*
X110652415Y-47519991D01*
X110697793Y-47622764D01*
X110697794Y-47622765D01*
X110777235Y-47702206D01*
X110880009Y-47747585D01*
X110905135Y-47750500D01*
X111966289Y-47750499D01*
X112033328Y-47770183D01*
X112079083Y-47822987D01*
X112089027Y-47892146D01*
X112060002Y-47955702D01*
X112053970Y-47962180D01*
X103276971Y-56739181D01*
X103215648Y-56772666D01*
X103189290Y-56775500D01*
X76274500Y-56775500D01*
X76207461Y-56755815D01*
X76161706Y-56703011D01*
X76150500Y-56651500D01*
X76150500Y-56480500D01*
X76170185Y-56413461D01*
X76222989Y-56367706D01*
X76274500Y-56356500D01*
X96650892Y-56356500D01*
X96650893Y-56356500D01*
X96673860Y-56349036D01*
X96692776Y-56344495D01*
X96716626Y-56340719D01*
X96738136Y-56329757D01*
X96756114Y-56322310D01*
X96779081Y-56314849D01*
X96798618Y-56300653D01*
X96815206Y-56290488D01*
X96836720Y-56279528D01*
X96932028Y-56184220D01*
X96932028Y-56184219D01*
X105762819Y-47353426D01*
X105824142Y-47319942D01*
X105893834Y-47324926D01*
X105949767Y-47366798D01*
X105974184Y-47432262D01*
X105974500Y-47441108D01*
X105974500Y-47843102D01*
X105978334Y-47875028D01*
X105985122Y-47931561D01*
X105985122Y-47931563D01*
X105985123Y-47931564D01*
X106000000Y-47969289D01*
X106040639Y-48072343D01*
X106132077Y-48192922D01*
X106252657Y-48284361D01*
X106283067Y-48296352D01*
X106331258Y-48315357D01*
X106386401Y-48358262D01*
X106409595Y-48424169D01*
X106408707Y-48446895D01*
X106394318Y-48556197D01*
X106394318Y-48556201D01*
X106414955Y-48712960D01*
X106414956Y-48712962D01*
X106430602Y-48750736D01*
X106475464Y-48859041D01*
X106571718Y-48984482D01*
X106697159Y-49080736D01*
X106843238Y-49141244D01*
X106921619Y-49151563D01*
X106999999Y-49161882D01*
X107000000Y-49161882D01*
X107000001Y-49161882D01*
X107052254Y-49155002D01*
X107156762Y-49141244D01*
X107302841Y-49080736D01*
X107428282Y-48984482D01*
X107524536Y-48859041D01*
X107585044Y-48712962D01*
X107600953Y-48592118D01*
X107605682Y-48556201D01*
X107605682Y-48556198D01*
X107591292Y-48446896D01*
X107602058Y-48377861D01*
X107648438Y-48325605D01*
X107668732Y-48315360D01*
X107747342Y-48284361D01*
X107867922Y-48192922D01*
X107901196Y-48149044D01*
X107957388Y-48107521D01*
X108027109Y-48102969D01*
X108088224Y-48136834D01*
X108098804Y-48149044D01*
X108132077Y-48192922D01*
X108252656Y-48284360D01*
X108252657Y-48284360D01*
X108252658Y-48284361D01*
X108393436Y-48339877D01*
X108481898Y-48350500D01*
X108481903Y-48350500D01*
X109518097Y-48350500D01*
X109518102Y-48350500D01*
X109606564Y-48339877D01*
X109747342Y-48284361D01*
X109867922Y-48192922D01*
X109959361Y-48072342D01*
X110014877Y-47931564D01*
X110025500Y-47843102D01*
X110025500Y-47256898D01*
X110022469Y-47231663D01*
X110034018Y-47162760D01*
X110057905Y-47129197D01*
X110100287Y-47086817D01*
X110161611Y-47053333D01*
X110187966Y-47050500D01*
X110525501Y-47050500D01*
X110592540Y-47070185D01*
G37*
%TD.AperFunction*%
%TA.AperFunction,Conductor*%
G36*
X103010617Y-46861691D02*
G01*
X103064496Y-46906176D01*
X103081072Y-46941745D01*
X103100509Y-47010059D01*
X103102596Y-47017392D01*
X103102596Y-47017394D01*
X103197632Y-47208253D01*
X103317650Y-47367181D01*
X103326128Y-47378407D01*
X103483698Y-47522052D01*
X103664981Y-47634298D01*
X103863802Y-47711321D01*
X103917020Y-47721269D01*
X103979299Y-47752936D01*
X104014572Y-47813248D01*
X104011638Y-47883056D01*
X103981914Y-47930838D01*
X96443571Y-55469181D01*
X96382248Y-55502666D01*
X96355890Y-55505500D01*
X76274500Y-55505500D01*
X76207461Y-55485815D01*
X76161706Y-55433011D01*
X76150500Y-55381500D01*
X76150500Y-55210500D01*
X76170185Y-55143461D01*
X76222989Y-55097706D01*
X76274500Y-55086500D01*
X92771692Y-55086500D01*
X92771693Y-55086500D01*
X92794660Y-55079036D01*
X92813576Y-55074495D01*
X92837426Y-55070719D01*
X92858936Y-55059757D01*
X92876914Y-55052310D01*
X92899881Y-55044849D01*
X92919418Y-55030653D01*
X92936006Y-55020488D01*
X92957520Y-55009528D01*
X93052828Y-54914220D01*
X100531961Y-47435086D01*
X100593282Y-47401603D01*
X100662974Y-47406587D01*
X100707321Y-47435088D01*
X100833445Y-47561212D01*
X101012612Y-47686666D01*
X101210843Y-47779103D01*
X101390000Y-47827106D01*
X101390000Y-47035501D01*
X101497685Y-47084680D01*
X101604237Y-47100000D01*
X101675763Y-47100000D01*
X101782315Y-47084680D01*
X101890000Y-47035501D01*
X101890000Y-47827105D01*
X102069156Y-47779103D01*
X102069157Y-47779103D01*
X102267387Y-47686666D01*
X102446554Y-47561212D01*
X102601212Y-47406554D01*
X102726666Y-47227387D01*
X102819101Y-47029159D01*
X102819106Y-47029148D01*
X102842031Y-46943588D01*
X102878395Y-46883927D01*
X102941242Y-46853397D01*
X103010617Y-46861691D01*
G37*
%TD.AperFunction*%
%TA.AperFunction,Conductor*%
G36*
X124411206Y-40320185D02*
G01*
X124431848Y-40336819D01*
X125703181Y-41608152D01*
X125736666Y-41669475D01*
X125739500Y-41695833D01*
X125739500Y-52882860D01*
X125738312Y-52899987D01*
X125737227Y-52907764D01*
X125739368Y-52954078D01*
X125739500Y-52959803D01*
X125739500Y-52977842D01*
X125739947Y-52982671D01*
X125741181Y-52993305D01*
X125742415Y-53019990D01*
X125745213Y-53026327D01*
X125753666Y-53053626D01*
X125754938Y-53060432D01*
X125768998Y-53083140D01*
X125777004Y-53098329D01*
X125787791Y-53122760D01*
X125787793Y-53122762D01*
X125787794Y-53122765D01*
X125787796Y-53122767D01*
X125792688Y-53127659D01*
X125810435Y-53150064D01*
X125814079Y-53155950D01*
X125814080Y-53155951D01*
X125814081Y-53155952D01*
X125835396Y-53172048D01*
X125848350Y-53183321D01*
X128243180Y-55578151D01*
X128276665Y-55639474D01*
X128279499Y-55665832D01*
X128279499Y-88084165D01*
X128259814Y-88151204D01*
X128243180Y-88171846D01*
X125874986Y-90540041D01*
X125862035Y-90551312D01*
X125855767Y-90556044D01*
X125824522Y-90590318D01*
X125820574Y-90594453D01*
X125807827Y-90607200D01*
X125804752Y-90610903D01*
X125798086Y-90619318D01*
X125780083Y-90639067D01*
X125780083Y-90639068D01*
X125777579Y-90645531D01*
X125764259Y-90670800D01*
X125760345Y-90676514D01*
X125760342Y-90676519D01*
X125754225Y-90702524D01*
X125749149Y-90718914D01*
X125739500Y-90743823D01*
X125739500Y-90750749D01*
X125736207Y-90779135D01*
X125734621Y-90785876D01*
X125734621Y-90785882D01*
X125738311Y-90812333D01*
X125739500Y-90829464D01*
X125739500Y-92915500D01*
X125719815Y-92982539D01*
X125667011Y-93028294D01*
X125615500Y-93039500D01*
X60424500Y-93039500D01*
X60357461Y-93019815D01*
X60311706Y-92967011D01*
X60300500Y-92915500D01*
X60300500Y-90867763D01*
X72115787Y-90867763D01*
X72145413Y-91137013D01*
X72145415Y-91137024D01*
X72213926Y-91399082D01*
X72213928Y-91399088D01*
X72319870Y-91648390D01*
X72460979Y-91879605D01*
X72460986Y-91879615D01*
X72634253Y-92087819D01*
X72634259Y-92087824D01*
X72835998Y-92268582D01*
X73061910Y-92418044D01*
X73307176Y-92533020D01*
X73307183Y-92533022D01*
X73307185Y-92533023D01*
X73566557Y-92611057D01*
X73566564Y-92611058D01*
X73566569Y-92611060D01*
X73834561Y-92650500D01*
X73834566Y-92650500D01*
X74037629Y-92650500D01*
X74037631Y-92650500D01*
X74037636Y-92650499D01*
X74037648Y-92650499D01*
X74075191Y-92647750D01*
X74240156Y-92635677D01*
X74352758Y-92610593D01*
X74504546Y-92576782D01*
X74504548Y-92576781D01*
X74504553Y-92576780D01*
X74757558Y-92480014D01*
X74993777Y-92347441D01*
X75208177Y-92181888D01*
X75396186Y-91986881D01*
X75553799Y-91766579D01*
X75650545Y-91578407D01*
X75677649Y-91525690D01*
X75677651Y-91525684D01*
X75677656Y-91525675D01*
X75765118Y-91269305D01*
X75814319Y-91002933D01*
X75824212Y-90732235D01*
X75794586Y-90462982D01*
X75726072Y-90200912D01*
X75620130Y-89951610D01*
X75479018Y-89720390D01*
X75443213Y-89677366D01*
X75305746Y-89512180D01*
X75305740Y-89512175D01*
X75104002Y-89331418D01*
X74878092Y-89181957D01*
X74878090Y-89181956D01*
X74632824Y-89066980D01*
X74632819Y-89066978D01*
X74632814Y-89066976D01*
X74373442Y-88988942D01*
X74373428Y-88988939D01*
X74257791Y-88971921D01*
X74105439Y-88949500D01*
X73902369Y-88949500D01*
X73902351Y-88949500D01*
X73699844Y-88964323D01*
X73699831Y-88964325D01*
X73435453Y-89023217D01*
X73435446Y-89023220D01*
X73182439Y-89119987D01*
X72946226Y-89252557D01*
X72946224Y-89252558D01*
X72946223Y-89252559D01*
X72937414Y-89259361D01*
X72731822Y-89418112D01*
X72543822Y-89613109D01*
X72543816Y-89613116D01*
X72386202Y-89833419D01*
X72386199Y-89833424D01*
X72262350Y-90074309D01*
X72262343Y-90074327D01*
X72174884Y-90330685D01*
X72174881Y-90330699D01*
X72159100Y-90416137D01*
X72136535Y-90538307D01*
X72125681Y-90597068D01*
X72125680Y-90597075D01*
X72115787Y-90867763D01*
X60300500Y-90867763D01*
X60300500Y-88444856D01*
X63899500Y-88444856D01*
X63899502Y-88444882D01*
X63902413Y-88469987D01*
X63902415Y-88469991D01*
X63947793Y-88572764D01*
X63947794Y-88572765D01*
X64027235Y-88652206D01*
X64130009Y-88697585D01*
X64155135Y-88700500D01*
X65844864Y-88700499D01*
X65844879Y-88700497D01*
X65844882Y-88700497D01*
X65869987Y-88697586D01*
X65869988Y-88697585D01*
X65869991Y-88697585D01*
X65972765Y-88652206D01*
X66052206Y-88572765D01*
X66097585Y-88469991D01*
X66100500Y-88444865D01*
X66100499Y-87600000D01*
X67294859Y-87600000D01*
X67315378Y-87821439D01*
X67376240Y-88035350D01*
X67475369Y-88234428D01*
X67491137Y-88255308D01*
X67491138Y-88255308D01*
X68102046Y-87644400D01*
X68114835Y-87725148D01*
X68172359Y-87838045D01*
X68261955Y-87927641D01*
X68374852Y-87985165D01*
X68455599Y-87997953D01*
X67846672Y-88606879D01*
X67846672Y-88606880D01*
X67962821Y-88678797D01*
X67962822Y-88678798D01*
X68170195Y-88759134D01*
X68388807Y-88800000D01*
X68611193Y-88800000D01*
X68829809Y-88759133D01*
X69037168Y-88678801D01*
X69037181Y-88678795D01*
X69153326Y-88606879D01*
X68544401Y-87997953D01*
X68625148Y-87985165D01*
X68738045Y-87927641D01*
X68827641Y-87838045D01*
X68885165Y-87725148D01*
X68897953Y-87644400D01*
X69508861Y-88255308D01*
X69524631Y-88234425D01*
X69524633Y-88234422D01*
X69623759Y-88035350D01*
X69684621Y-87821439D01*
X69705141Y-87600000D01*
X69705141Y-87599999D01*
X69684621Y-87378560D01*
X69623759Y-87164649D01*
X69524635Y-86965580D01*
X69524630Y-86965572D01*
X69508860Y-86944690D01*
X68897953Y-87555598D01*
X68885165Y-87474852D01*
X68827641Y-87361955D01*
X68738045Y-87272359D01*
X68625148Y-87214835D01*
X68544401Y-87202046D01*
X69153327Y-86593119D01*
X69037178Y-86521202D01*
X69037177Y-86521201D01*
X68829804Y-86440865D01*
X68611193Y-86400000D01*
X68388807Y-86400000D01*
X68170195Y-86440865D01*
X67962824Y-86521200D01*
X67962823Y-86521201D01*
X67846671Y-86593119D01*
X68455599Y-87202046D01*
X68374852Y-87214835D01*
X68261955Y-87272359D01*
X68172359Y-87361955D01*
X68114835Y-87474852D01*
X68102046Y-87555599D01*
X67491138Y-86944691D01*
X67491137Y-86944691D01*
X67475368Y-86965574D01*
X67376240Y-87164649D01*
X67315378Y-87378560D01*
X67294859Y-87599999D01*
X67294859Y-87600000D01*
X66100499Y-87600000D01*
X66100499Y-86755136D01*
X66099278Y-86744605D01*
X66097586Y-86730012D01*
X66097585Y-86730010D01*
X66097585Y-86730009D01*
X66052206Y-86627235D01*
X65972765Y-86547794D01*
X65972763Y-86547793D01*
X65869992Y-86502415D01*
X65844865Y-86499500D01*
X64155143Y-86499500D01*
X64155117Y-86499502D01*
X64130012Y-86502413D01*
X64130008Y-86502415D01*
X64027235Y-86547793D01*
X63947794Y-86627234D01*
X63902415Y-86730006D01*
X63902415Y-86730008D01*
X63899500Y-86755131D01*
X63899500Y-88444856D01*
X60300500Y-88444856D01*
X60300500Y-83437500D01*
X72300000Y-83437500D01*
X73150000Y-83437500D01*
X73150000Y-82775000D01*
X73650000Y-82775000D01*
X73650000Y-83437500D01*
X74500000Y-83437500D01*
X74500000Y-83359365D01*
X74499999Y-83359350D01*
X74497100Y-83322510D01*
X74497099Y-83322504D01*
X74451283Y-83164806D01*
X74451282Y-83164803D01*
X74367685Y-83023447D01*
X74367678Y-83023438D01*
X74251561Y-82907321D01*
X74251552Y-82907314D01*
X74110196Y-82823717D01*
X74110193Y-82823716D01*
X73952495Y-82777900D01*
X73952489Y-82777899D01*
X73915649Y-82775000D01*
X73650000Y-82775000D01*
X73150000Y-82775000D01*
X72884350Y-82775000D01*
X72847510Y-82777899D01*
X72847504Y-82777900D01*
X72689806Y-82823716D01*
X72689803Y-82823717D01*
X72548447Y-82907314D01*
X72548438Y-82907321D01*
X72432321Y-83023438D01*
X72432314Y-83023447D01*
X72348717Y-83164803D01*
X72348716Y-83164806D01*
X72302900Y-83322504D01*
X72302899Y-83322510D01*
X72300000Y-83359350D01*
X72300000Y-83437500D01*
X60300500Y-83437500D01*
X60300500Y-82600000D01*
X75406838Y-82600000D01*
X76212500Y-82600000D01*
X76212500Y-82150000D01*
X75906946Y-82150000D01*
X75818556Y-82160613D01*
X75677904Y-82216079D01*
X75557435Y-82307435D01*
X75466079Y-82427904D01*
X75410613Y-82568557D01*
X75406838Y-82600000D01*
X60300500Y-82600000D01*
X60300500Y-81344856D01*
X62799500Y-81344856D01*
X62799502Y-81344882D01*
X62802413Y-81369987D01*
X62802415Y-81369991D01*
X62847793Y-81472764D01*
X62847794Y-81472765D01*
X62927235Y-81552206D01*
X63030009Y-81597585D01*
X63055135Y-81600500D01*
X65744864Y-81600499D01*
X65744879Y-81600497D01*
X65744882Y-81600497D01*
X65769987Y-81597586D01*
X65769988Y-81597585D01*
X65769991Y-81597585D01*
X65872765Y-81552206D01*
X65952206Y-81472765D01*
X65997585Y-81369991D01*
X66000500Y-81344865D01*
X66000499Y-78655136D01*
X66000497Y-78655117D01*
X65997586Y-78630012D01*
X65997585Y-78630010D01*
X65997585Y-78630009D01*
X65952206Y-78527235D01*
X65872765Y-78447794D01*
X65842734Y-78434534D01*
X65769992Y-78402415D01*
X65744865Y-78399500D01*
X63055143Y-78399500D01*
X63055117Y-78399502D01*
X63030012Y-78402413D01*
X63030008Y-78402415D01*
X62927235Y-78447793D01*
X62847794Y-78527234D01*
X62802415Y-78630006D01*
X62802415Y-78630008D01*
X62799500Y-78655131D01*
X62799500Y-81344856D01*
X60300500Y-81344856D01*
X60300500Y-74920004D01*
X62695233Y-74920004D01*
X62714273Y-75174079D01*
X62770968Y-75422477D01*
X62770973Y-75422494D01*
X62864058Y-75659671D01*
X62864057Y-75659671D01*
X62991454Y-75880327D01*
X62991461Y-75880338D01*
X63033452Y-75932991D01*
X63033453Y-75932992D01*
X63797452Y-75168993D01*
X63807188Y-75198956D01*
X63895186Y-75337619D01*
X64014903Y-75450040D01*
X64149510Y-75524041D01*
X63386813Y-76286738D01*
X63547616Y-76396371D01*
X63547624Y-76396376D01*
X63777176Y-76506921D01*
X63777174Y-76506921D01*
X64020652Y-76582024D01*
X64020658Y-76582026D01*
X64272595Y-76619999D01*
X64272604Y-76620000D01*
X64527396Y-76620000D01*
X64527404Y-76619999D01*
X64779341Y-76582026D01*
X64779347Y-76582024D01*
X65022824Y-76506921D01*
X65252376Y-76396376D01*
X65252377Y-76396375D01*
X65413185Y-76286738D01*
X64647534Y-75521086D01*
X64715629Y-75494126D01*
X64848492Y-75397595D01*
X64953175Y-75271055D01*
X65001631Y-75168079D01*
X65766544Y-75932992D01*
X65766546Y-75932991D01*
X65808544Y-75880330D01*
X65935941Y-75659671D01*
X66029026Y-75422494D01*
X66029031Y-75422477D01*
X66085726Y-75174079D01*
X66104767Y-74920004D01*
X66104767Y-74919995D01*
X66085726Y-74665920D01*
X66029031Y-74417522D01*
X66029026Y-74417505D01*
X65935941Y-74180328D01*
X65935942Y-74180328D01*
X65808545Y-73959672D01*
X65766545Y-73907006D01*
X65002546Y-74671004D01*
X64992812Y-74641044D01*
X64904814Y-74502381D01*
X64785097Y-74389960D01*
X64650488Y-74315957D01*
X65413185Y-73553260D01*
X65252384Y-73443628D01*
X65252376Y-73443623D01*
X65022823Y-73333078D01*
X65022825Y-73333078D01*
X64779347Y-73257975D01*
X64779341Y-73257973D01*
X64527404Y-73220000D01*
X64272595Y-73220000D01*
X64020658Y-73257973D01*
X64020652Y-73257975D01*
X63777175Y-73333078D01*
X63547622Y-73443625D01*
X63547609Y-73443632D01*
X63386813Y-73553259D01*
X64152466Y-74318912D01*
X64084371Y-74345874D01*
X63951508Y-74442405D01*
X63846825Y-74568945D01*
X63798367Y-74671921D01*
X63033452Y-73907006D01*
X62991457Y-73959667D01*
X62864058Y-74180328D01*
X62770973Y-74417505D01*
X62770968Y-74417522D01*
X62714273Y-74665920D01*
X62695233Y-74919995D01*
X62695233Y-74920004D01*
X60300500Y-74920004D01*
X60300500Y-58306610D01*
X62124500Y-58306610D01*
X62163679Y-58516198D01*
X62240702Y-58715019D01*
X62352948Y-58896302D01*
X62496593Y-59053872D01*
X62603637Y-59134709D01*
X62666745Y-59182366D01*
X62680771Y-59189350D01*
X62732007Y-59236850D01*
X62749500Y-59300350D01*
X62749500Y-59528689D01*
X62747304Y-59551920D01*
X62745624Y-59560726D01*
X62745624Y-59560730D01*
X62749255Y-59618442D01*
X62749500Y-59626228D01*
X62749500Y-59642830D01*
X62751579Y-59659298D01*
X62752311Y-59667040D01*
X62755943Y-59724759D01*
X62758714Y-59733284D01*
X62763805Y-59756059D01*
X62764928Y-59764953D01*
X62764930Y-59764960D01*
X62786221Y-59818739D01*
X62788857Y-59826062D01*
X62806731Y-59881069D01*
X62806733Y-59881074D01*
X62811534Y-59888638D01*
X62822129Y-59909430D01*
X62825432Y-59917771D01*
X62825436Y-59917778D01*
X62859434Y-59964572D01*
X62863802Y-59970998D01*
X62881890Y-59999500D01*
X62894797Y-60019839D01*
X62901332Y-60025976D01*
X62916761Y-60043477D01*
X62922033Y-60050733D01*
X62922035Y-60050736D01*
X62966600Y-60087603D01*
X62972439Y-60092750D01*
X63014607Y-60132348D01*
X63014609Y-60132349D01*
X63014612Y-60132351D01*
X63022459Y-60136665D01*
X63041763Y-60149783D01*
X63048674Y-60155500D01*
X63048675Y-60155501D01*
X63074364Y-60167589D01*
X63101007Y-60180126D01*
X63107934Y-60183655D01*
X63158632Y-60211527D01*
X63167321Y-60213758D01*
X63189271Y-60221660D01*
X63197387Y-60225479D01*
X63254207Y-60236317D01*
X63261777Y-60238009D01*
X63317823Y-60252400D01*
X63326790Y-60252400D01*
X63350022Y-60254596D01*
X63351706Y-60254917D01*
X63358830Y-60256276D01*
X63358831Y-60256275D01*
X63358832Y-60256276D01*
X63416543Y-60252645D01*
X63424329Y-60252400D01*
X63731092Y-60252400D01*
X63798131Y-60272085D01*
X63818773Y-60288719D01*
X70738181Y-67208127D01*
X70771666Y-67269450D01*
X70774500Y-67295808D01*
X70774500Y-67643102D01*
X70777382Y-67667100D01*
X70785122Y-67731561D01*
X70840639Y-67872343D01*
X70932077Y-67992922D01*
X71052656Y-68084360D01*
X71052657Y-68084360D01*
X71052658Y-68084361D01*
X71193436Y-68139877D01*
X71281898Y-68150500D01*
X71281903Y-68150500D01*
X72318097Y-68150500D01*
X72318102Y-68150500D01*
X72406564Y-68139877D01*
X72547342Y-68084361D01*
X72624704Y-68025695D01*
X72690014Y-68000873D01*
X72699628Y-68000500D01*
X74288000Y-68000500D01*
X74355039Y-68020185D01*
X74400794Y-68072989D01*
X74412000Y-68124500D01*
X74412000Y-70640294D01*
X74410232Y-70656305D01*
X74410474Y-70656328D01*
X74409740Y-70664094D01*
X74411939Y-70734062D01*
X74412000Y-70737957D01*
X74412000Y-70766720D01*
X74412001Y-70766738D01*
X74412553Y-70771111D01*
X74413468Y-70782741D01*
X74414902Y-70828367D01*
X74414903Y-70828370D01*
X74420823Y-70848748D01*
X74424768Y-70867796D01*
X74427429Y-70888859D01*
X74428891Y-70892551D01*
X74437600Y-70938202D01*
X74437600Y-75841091D01*
X74417915Y-75908130D01*
X74401281Y-75928772D01*
X74221537Y-76108515D01*
X74160214Y-76142000D01*
X74125013Y-76144518D01*
X74121894Y-76144295D01*
X74121889Y-76144295D01*
X73550000Y-76144295D01*
X73547267Y-76144421D01*
X73521796Y-76145598D01*
X73521793Y-76145599D01*
X73439949Y-76168885D01*
X73370082Y-76168297D01*
X73361228Y-76165247D01*
X73360437Y-76164940D01*
X73360433Y-76164939D01*
X73250000Y-76144295D01*
X72678111Y-76144295D01*
X72678110Y-76144295D01*
X72591991Y-76156676D01*
X72591979Y-76156679D01*
X72454029Y-76197185D01*
X72374879Y-76233331D01*
X72374874Y-76233333D01*
X72253926Y-76311062D01*
X72253919Y-76311068D01*
X72188168Y-76368041D01*
X72188165Y-76368043D01*
X72094018Y-76476695D01*
X72094002Y-76476717D01*
X72046975Y-76549893D01*
X72046962Y-76549916D01*
X71987242Y-76680684D01*
X71962726Y-76764179D01*
X71942265Y-76906493D01*
X71942265Y-76993507D01*
X71943033Y-76998847D01*
X71944295Y-77016493D01*
X71944295Y-77383506D01*
X71943034Y-77401142D01*
X71942708Y-77403418D01*
X71942265Y-77406497D01*
X71942265Y-77493506D01*
X71962726Y-77635820D01*
X71987242Y-77719315D01*
X72046962Y-77850083D01*
X72046975Y-77850106D01*
X72094002Y-77923282D01*
X72094018Y-77923304D01*
X72188165Y-78031956D01*
X72188168Y-78031958D01*
X72253919Y-78088931D01*
X72253926Y-78088937D01*
X72374874Y-78166666D01*
X72374877Y-78166667D01*
X72374880Y-78166669D01*
X72454029Y-78202815D01*
X72591984Y-78243322D01*
X72591996Y-78243323D01*
X72596315Y-78244264D01*
X72596063Y-78245421D01*
X72654784Y-78272235D01*
X72661267Y-78278271D01*
X75078730Y-80695733D01*
X75087995Y-80706100D01*
X75110221Y-80733970D01*
X75110223Y-80733972D01*
X75157463Y-80766180D01*
X75161245Y-80768863D01*
X75207218Y-80802793D01*
X75214754Y-80806776D01*
X75222419Y-80810467D01*
X75222427Y-80810472D01*
X75247288Y-80818140D01*
X75277080Y-80827330D01*
X75281471Y-80828774D01*
X75335401Y-80847646D01*
X75335405Y-80847646D01*
X75343798Y-80849234D01*
X75352195Y-80850500D01*
X75352198Y-80850500D01*
X75409345Y-80850500D01*
X75413983Y-80850587D01*
X75471109Y-80852725D01*
X75471109Y-80852724D01*
X75471110Y-80852725D01*
X75471110Y-80852724D01*
X75480342Y-80851685D01*
X75480435Y-80852513D01*
X75495739Y-80850500D01*
X75731382Y-80850500D01*
X75798421Y-80870185D01*
X75844176Y-80922989D01*
X75854496Y-80959713D01*
X75856632Y-80977489D01*
X75860122Y-81006561D01*
X75915639Y-81147343D01*
X76007077Y-81267922D01*
X76127656Y-81359360D01*
X76127657Y-81359360D01*
X76127658Y-81359361D01*
X76268436Y-81414877D01*
X76356898Y-81425500D01*
X76624534Y-81425500D01*
X76691573Y-81445185D01*
X76712215Y-81461819D01*
X77199026Y-81948630D01*
X77232511Y-82009953D01*
X77227527Y-82079645D01*
X77185655Y-82135578D01*
X77120191Y-82159995D01*
X77096562Y-82159427D01*
X77018055Y-82150000D01*
X76712500Y-82150000D01*
X76712500Y-82600000D01*
X77518161Y-82600000D01*
X77515572Y-82578438D01*
X77527124Y-82509530D01*
X77574096Y-82457806D01*
X77641576Y-82439688D01*
X77708139Y-82460928D01*
X77726369Y-82475973D01*
X77745264Y-82494868D01*
X77778749Y-82556191D01*
X77778729Y-82609000D01*
X77777353Y-82615298D01*
X77774500Y-82645730D01*
X77774500Y-83054269D01*
X77777353Y-83084699D01*
X77777354Y-83084701D01*
X77821039Y-83209545D01*
X77824601Y-83279324D01*
X77789873Y-83339951D01*
X77727879Y-83372179D01*
X77703998Y-83374500D01*
X77600730Y-83374500D01*
X77533691Y-83354815D01*
X77487936Y-83302011D01*
X77477992Y-83232853D01*
X77485376Y-83205010D01*
X77514385Y-83131446D01*
X77518162Y-83100000D01*
X75406838Y-83100000D01*
X75410613Y-83131442D01*
X75466080Y-83272097D01*
X75520878Y-83344359D01*
X75545701Y-83409670D01*
X75539116Y-83460238D01*
X75502353Y-83565301D01*
X75499500Y-83595730D01*
X75499500Y-83605800D01*
X75479815Y-83672839D01*
X75427011Y-83718594D01*
X75375500Y-83729800D01*
X75175165Y-83729800D01*
X75136847Y-83723731D01*
X75059196Y-83698500D01*
X75059193Y-83698500D01*
X74924407Y-83698500D01*
X74924403Y-83698500D01*
X74796219Y-83740150D01*
X74714609Y-83799443D01*
X74714603Y-83799448D01*
X74612871Y-83901181D01*
X74551548Y-83934666D01*
X74525190Y-83937500D01*
X72300000Y-83937500D01*
X72300000Y-84015649D01*
X72302899Y-84052489D01*
X72302900Y-84052495D01*
X72348716Y-84210193D01*
X72348717Y-84210196D01*
X72432314Y-84351552D01*
X72432321Y-84351561D01*
X72548438Y-84467678D01*
X72548446Y-84467684D01*
X72684627Y-84548221D01*
X72732310Y-84599290D01*
X72744814Y-84668032D01*
X72718169Y-84732621D01*
X72682289Y-84763034D01*
X72677659Y-84765637D01*
X72557077Y-84857077D01*
X72465639Y-84977656D01*
X72410122Y-85118438D01*
X72406013Y-85152658D01*
X72399500Y-85206898D01*
X72399500Y-85818102D01*
X72403503Y-85851434D01*
X72410122Y-85906561D01*
X72465639Y-86047343D01*
X72557077Y-86167922D01*
X72677656Y-86259360D01*
X72677657Y-86259360D01*
X72677658Y-86259361D01*
X72818436Y-86314877D01*
X72906898Y-86325500D01*
X72906903Y-86325500D01*
X73893097Y-86325500D01*
X73893102Y-86325500D01*
X73981564Y-86314877D01*
X74122342Y-86259361D01*
X74242922Y-86167922D01*
X74334361Y-86047342D01*
X74389877Y-85906564D01*
X74400500Y-85818102D01*
X74400500Y-85368410D01*
X74420185Y-85301371D01*
X74436819Y-85280729D01*
X74717548Y-85000000D01*
X75406838Y-85000000D01*
X75410613Y-85031442D01*
X75466079Y-85172095D01*
X75557435Y-85292564D01*
X75677904Y-85383920D01*
X75818556Y-85439386D01*
X75906946Y-85450000D01*
X76212500Y-85450000D01*
X76212500Y-85000000D01*
X76712500Y-85000000D01*
X76712500Y-85450000D01*
X77018054Y-85450000D01*
X77106443Y-85439386D01*
X77247095Y-85383920D01*
X77367564Y-85292564D01*
X77458920Y-85172095D01*
X77514386Y-85031442D01*
X77518162Y-85000000D01*
X76712500Y-85000000D01*
X76212500Y-85000000D01*
X75406838Y-85000000D01*
X74717548Y-85000000D01*
X75163029Y-84554519D01*
X75224352Y-84521034D01*
X75250710Y-84518200D01*
X76200935Y-84518200D01*
X76221524Y-84511509D01*
X76240445Y-84506967D01*
X76261833Y-84503580D01*
X76261832Y-84503580D01*
X76271477Y-84502053D01*
X76271673Y-84503297D01*
X76292491Y-84500000D01*
X77518161Y-84500000D01*
X77514385Y-84468553D01*
X77485376Y-84394990D01*
X77479094Y-84325403D01*
X77511431Y-84263467D01*
X77572120Y-84228846D01*
X77600730Y-84225500D01*
X77703998Y-84225500D01*
X77771037Y-84245185D01*
X77816792Y-84297989D01*
X77826736Y-84367147D01*
X77821039Y-84390455D01*
X77777354Y-84515298D01*
X77777353Y-84515300D01*
X77774500Y-84545730D01*
X77774500Y-84954269D01*
X77777353Y-84984699D01*
X77777353Y-84984701D01*
X77822206Y-85112880D01*
X77822207Y-85112882D01*
X77902850Y-85222150D01*
X78012118Y-85302793D01*
X78052857Y-85317048D01*
X78140299Y-85347646D01*
X78170730Y-85350500D01*
X78170734Y-85350500D01*
X78188000Y-85350500D01*
X78255039Y-85370185D01*
X78300794Y-85422989D01*
X78312000Y-85474500D01*
X78312000Y-87017394D01*
X78319462Y-87040358D01*
X78324003Y-87059273D01*
X78324324Y-87061296D01*
X78327781Y-87083127D01*
X78338743Y-87104641D01*
X78346188Y-87122615D01*
X78353650Y-87145580D01*
X78367840Y-87165110D01*
X78378008Y-87181703D01*
X78388970Y-87203218D01*
X79266865Y-88081113D01*
X79300350Y-88142436D01*
X79302300Y-88183573D01*
X79300086Y-88202019D01*
X79299500Y-88206898D01*
X79299500Y-88818102D01*
X79300761Y-88828600D01*
X79310122Y-88906561D01*
X79365639Y-89047343D01*
X79457077Y-89167922D01*
X79577656Y-89259360D01*
X79577657Y-89259360D01*
X79577658Y-89259361D01*
X79718436Y-89314877D01*
X79806898Y-89325500D01*
X79806903Y-89325500D01*
X80793097Y-89325500D01*
X80793102Y-89325500D01*
X80881564Y-89314877D01*
X81022342Y-89259361D01*
X81142922Y-89167922D01*
X81234361Y-89047342D01*
X81289877Y-88906564D01*
X81300500Y-88818102D01*
X81300500Y-88206898D01*
X81289877Y-88118436D01*
X81234361Y-87977658D01*
X81234360Y-87977657D01*
X81234360Y-87977656D01*
X81142922Y-87857077D01*
X81022343Y-87765639D01*
X80965976Y-87743411D01*
X80894826Y-87715353D01*
X80839685Y-87672449D01*
X80816492Y-87606541D01*
X80832612Y-87538557D01*
X80882929Y-87490080D01*
X80894814Y-87484651D01*
X81022342Y-87434361D01*
X81142922Y-87342922D01*
X81234361Y-87222342D01*
X81289877Y-87081564D01*
X81300500Y-86993102D01*
X81300500Y-86381898D01*
X81297699Y-86358578D01*
X81309248Y-86289673D01*
X81333130Y-86256116D01*
X81704329Y-85884919D01*
X81765652Y-85851434D01*
X81792010Y-85848600D01*
X82085500Y-85848600D01*
X82152539Y-85868285D01*
X82198294Y-85921089D01*
X82209500Y-85972600D01*
X82209500Y-87494856D01*
X82209502Y-87494882D01*
X82212413Y-87519987D01*
X82212415Y-87519991D01*
X82257793Y-87622764D01*
X82257794Y-87622765D01*
X82337235Y-87702206D01*
X82440009Y-87747585D01*
X82465135Y-87750500D01*
X84254864Y-87750499D01*
X84254879Y-87750497D01*
X84254882Y-87750497D01*
X84279987Y-87747586D01*
X84279988Y-87747585D01*
X84279991Y-87747585D01*
X84382765Y-87702206D01*
X84429353Y-87655618D01*
X84490676Y-87622133D01*
X84560368Y-87627117D01*
X84604715Y-87655618D01*
X85046730Y-88097633D01*
X85055995Y-88108000D01*
X85078221Y-88135870D01*
X85078223Y-88135872D01*
X85125463Y-88168080D01*
X85129241Y-88170760D01*
X85146602Y-88183573D01*
X85175218Y-88204693D01*
X85182765Y-88208681D01*
X85190422Y-88212368D01*
X85190427Y-88212372D01*
X85245083Y-88229230D01*
X85249442Y-88230665D01*
X85303400Y-88249546D01*
X85303405Y-88249546D01*
X85311798Y-88251134D01*
X85320195Y-88252400D01*
X85320198Y-88252400D01*
X85377361Y-88252400D01*
X85381998Y-88252487D01*
X85439109Y-88254624D01*
X85439109Y-88254623D01*
X85439110Y-88254624D01*
X85439110Y-88254623D01*
X85448343Y-88253584D01*
X85448436Y-88254413D01*
X85463736Y-88252400D01*
X89013634Y-88252400D01*
X89080673Y-88272085D01*
X89101315Y-88288719D01*
X89762096Y-88949500D01*
X90281783Y-89469186D01*
X90315268Y-89530509D01*
X90310284Y-89600201D01*
X90268412Y-89656134D01*
X90216890Y-89678755D01*
X90163802Y-89688679D01*
X90163800Y-89688679D01*
X90163798Y-89688680D01*
X89964982Y-89765701D01*
X89964980Y-89765702D01*
X89783699Y-89877947D01*
X89626127Y-90021593D01*
X89497632Y-90191746D01*
X89402596Y-90382605D01*
X89402596Y-90382607D01*
X89344244Y-90587689D01*
X89337970Y-90655394D01*
X89312183Y-90720331D01*
X89255383Y-90761018D01*
X89185602Y-90764538D01*
X89124995Y-90729772D01*
X89092806Y-90667759D01*
X89090499Y-90643952D01*
X89090499Y-89905143D01*
X89090499Y-89905137D01*
X89090499Y-89905136D01*
X89090497Y-89905117D01*
X89087586Y-89880012D01*
X89087585Y-89880010D01*
X89087585Y-89880009D01*
X89042206Y-89777235D01*
X88962765Y-89697794D01*
X88942124Y-89688680D01*
X88859992Y-89652415D01*
X88834865Y-89649500D01*
X87045143Y-89649500D01*
X87045117Y-89649502D01*
X87020012Y-89652413D01*
X87020008Y-89652415D01*
X86917235Y-89697793D01*
X86837794Y-89777234D01*
X86792415Y-89880006D01*
X86792415Y-89880008D01*
X86789500Y-89905131D01*
X86789500Y-91694856D01*
X86789502Y-91694882D01*
X86792413Y-91719987D01*
X86792415Y-91719991D01*
X86837793Y-91822764D01*
X86837794Y-91822765D01*
X86917235Y-91902206D01*
X87020009Y-91947585D01*
X87045135Y-91950500D01*
X88834864Y-91950499D01*
X88834879Y-91950497D01*
X88834882Y-91950497D01*
X88859987Y-91947586D01*
X88859988Y-91947585D01*
X88859991Y-91947585D01*
X88962765Y-91902206D01*
X89042206Y-91822765D01*
X89087585Y-91719991D01*
X89090500Y-91694865D01*
X89090499Y-90956046D01*
X89110183Y-90889009D01*
X89162987Y-90843254D01*
X89232146Y-90833310D01*
X89295702Y-90862335D01*
X89333476Y-90921113D01*
X89337970Y-90944606D01*
X89343374Y-91002924D01*
X89344244Y-91012310D01*
X89400509Y-91210059D01*
X89402596Y-91217392D01*
X89402596Y-91217394D01*
X89497632Y-91408253D01*
X89623142Y-91574453D01*
X89626128Y-91578407D01*
X89783698Y-91722052D01*
X89964981Y-91834298D01*
X90163802Y-91911321D01*
X90373390Y-91950500D01*
X90373392Y-91950500D01*
X90586608Y-91950500D01*
X90586610Y-91950500D01*
X90796198Y-91911321D01*
X90995019Y-91834298D01*
X91176302Y-91722052D01*
X91269354Y-91637222D01*
X91332158Y-91606605D01*
X91401545Y-91614802D01*
X91443790Y-91644516D01*
X91465945Y-91668394D01*
X91465947Y-91668395D01*
X91465948Y-91668396D01*
X91473210Y-91674188D01*
X91472689Y-91674841D01*
X91484930Y-91684234D01*
X92098330Y-92297633D01*
X92107595Y-92308000D01*
X92129821Y-92335870D01*
X92129823Y-92335872D01*
X92177063Y-92368080D01*
X92180841Y-92370760D01*
X92189918Y-92377459D01*
X92226818Y-92404693D01*
X92234354Y-92408676D01*
X92242019Y-92412367D01*
X92242027Y-92412372D01*
X92266888Y-92420040D01*
X92296680Y-92429230D01*
X92301071Y-92430674D01*
X92355001Y-92449546D01*
X92355005Y-92449546D01*
X92363379Y-92451130D01*
X92371796Y-92452399D01*
X92371798Y-92452400D01*
X92428962Y-92452400D01*
X92433598Y-92452486D01*
X92490710Y-92454624D01*
X92499944Y-92453584D01*
X92500037Y-92454413D01*
X92515336Y-92452400D01*
X96039638Y-92452400D01*
X96053520Y-92453179D01*
X96057108Y-92453584D01*
X96088933Y-92457170D01*
X96088933Y-92457169D01*
X96088935Y-92457170D01*
X96145136Y-92446535D01*
X96149626Y-92445772D01*
X96206187Y-92437248D01*
X96206191Y-92437245D01*
X96214347Y-92434730D01*
X96222369Y-92431924D01*
X96222370Y-92431923D01*
X96222372Y-92431923D01*
X96272988Y-92405170D01*
X96276993Y-92403148D01*
X96328542Y-92378325D01*
X96328543Y-92378323D01*
X96328545Y-92378323D01*
X96335595Y-92373516D01*
X96342434Y-92368467D01*
X96342438Y-92368466D01*
X96382874Y-92328028D01*
X96386160Y-92324862D01*
X96428094Y-92285955D01*
X96428096Y-92285950D01*
X96433887Y-92278690D01*
X96434543Y-92279213D01*
X96443932Y-92266970D01*
X97102965Y-91607936D01*
X97164286Y-91574453D01*
X97233977Y-91579437D01*
X97274180Y-91603980D01*
X97403698Y-91722052D01*
X97584981Y-91834298D01*
X97783802Y-91911321D01*
X97993390Y-91950500D01*
X97993392Y-91950500D01*
X98206608Y-91950500D01*
X98206610Y-91950500D01*
X98416198Y-91911321D01*
X98615019Y-91834298D01*
X98796302Y-91722052D01*
X98953872Y-91578407D01*
X99082366Y-91408255D01*
X99099458Y-91373929D01*
X99177403Y-91217394D01*
X99177403Y-91217392D01*
X99177405Y-91217389D01*
X99198928Y-91141744D01*
X99236206Y-91082653D01*
X99299515Y-91053095D01*
X99368755Y-91062457D01*
X99421942Y-91107766D01*
X99437968Y-91143587D01*
X99460894Y-91229150D01*
X99460898Y-91229159D01*
X99553333Y-91427387D01*
X99678787Y-91606554D01*
X99833445Y-91761212D01*
X100012612Y-91886666D01*
X100210843Y-91979103D01*
X100390000Y-92027106D01*
X100390000Y-91235501D01*
X100497685Y-91284680D01*
X100604237Y-91300000D01*
X100675763Y-91300000D01*
X100782315Y-91284680D01*
X100890000Y-91235501D01*
X100890000Y-92027106D01*
X101069156Y-91979103D01*
X101069157Y-91979103D01*
X101267387Y-91886666D01*
X101446554Y-91761212D01*
X101601212Y-91606554D01*
X101726666Y-91427387D01*
X101797618Y-91275232D01*
X101843790Y-91222793D01*
X101910984Y-91203641D01*
X101977865Y-91223857D01*
X102022382Y-91275232D01*
X102093333Y-91427387D01*
X102218787Y-91606554D01*
X102373445Y-91761212D01*
X102552612Y-91886666D01*
X102750843Y-91979103D01*
X102930000Y-92027106D01*
X102930000Y-91235501D01*
X103037685Y-91284680D01*
X103144237Y-91300000D01*
X103215763Y-91300000D01*
X103322315Y-91284680D01*
X103430000Y-91235501D01*
X103430000Y-92027106D01*
X103609156Y-91979103D01*
X103609157Y-91979103D01*
X103807387Y-91886666D01*
X103986554Y-91761212D01*
X104141212Y-91606554D01*
X104266666Y-91427387D01*
X104359101Y-91229159D01*
X104359106Y-91229148D01*
X104382031Y-91143588D01*
X104418395Y-91083927D01*
X104481242Y-91053397D01*
X104550617Y-91061691D01*
X104604496Y-91106176D01*
X104621072Y-91141745D01*
X104640509Y-91210059D01*
X104642596Y-91217392D01*
X104642596Y-91217394D01*
X104737632Y-91408253D01*
X104863142Y-91574453D01*
X104866128Y-91578407D01*
X105023698Y-91722052D01*
X105204981Y-91834298D01*
X105403802Y-91911321D01*
X105613390Y-91950500D01*
X105613392Y-91950500D01*
X105826608Y-91950500D01*
X105826610Y-91950500D01*
X106036198Y-91911321D01*
X106235019Y-91834298D01*
X106416302Y-91722052D01*
X106573872Y-91578407D01*
X106702366Y-91408255D01*
X106719458Y-91373929D01*
X106797403Y-91217394D01*
X106797403Y-91217393D01*
X106797402Y-91217393D01*
X106797405Y-91217389D01*
X106832435Y-91094273D01*
X106869713Y-91035182D01*
X106933023Y-91005625D01*
X107002263Y-91014987D01*
X107039381Y-91040529D01*
X108230772Y-92231920D01*
X108326080Y-92327228D01*
X108347600Y-92338193D01*
X108364175Y-92348349D01*
X108383719Y-92362549D01*
X108406681Y-92370009D01*
X108424654Y-92377453D01*
X108446174Y-92388419D01*
X108470024Y-92392195D01*
X108488945Y-92396739D01*
X108508577Y-92403118D01*
X108511907Y-92404200D01*
X108511908Y-92404200D01*
X116442192Y-92404200D01*
X116442193Y-92404200D01*
X116465160Y-92396736D01*
X116484076Y-92392195D01*
X116507926Y-92388419D01*
X116529436Y-92377457D01*
X116547414Y-92370010D01*
X116570381Y-92362549D01*
X116589918Y-92348353D01*
X116606506Y-92338188D01*
X116628020Y-92327228D01*
X116723328Y-92231920D01*
X117384033Y-91571214D01*
X117445354Y-91537731D01*
X117515045Y-91542715D01*
X117563350Y-91575360D01*
X117566123Y-91578402D01*
X117566126Y-91578405D01*
X117566128Y-91578407D01*
X117723698Y-91722052D01*
X117904981Y-91834298D01*
X118103802Y-91911321D01*
X118313390Y-91950500D01*
X118313392Y-91950500D01*
X118526608Y-91950500D01*
X118526610Y-91950500D01*
X118736198Y-91911321D01*
X118935019Y-91834298D01*
X119116302Y-91722052D01*
X119273872Y-91578407D01*
X119402366Y-91408255D01*
X119419458Y-91373929D01*
X119497403Y-91217394D01*
X119497403Y-91217393D01*
X119497405Y-91217389D01*
X119555756Y-91012310D01*
X119566529Y-90896047D01*
X119592315Y-90831111D01*
X119634622Y-90800804D01*
X119743130Y-90800804D01*
X119779503Y-90821668D01*
X119811693Y-90883681D01*
X119813470Y-90896047D01*
X119824244Y-91012310D01*
X119880509Y-91210059D01*
X119882596Y-91217392D01*
X119882596Y-91217394D01*
X119977632Y-91408253D01*
X120103142Y-91574453D01*
X120106128Y-91578407D01*
X120263698Y-91722052D01*
X120444981Y-91834298D01*
X120643802Y-91911321D01*
X120853390Y-91950500D01*
X120853392Y-91950500D01*
X121066608Y-91950500D01*
X121066610Y-91950500D01*
X121276198Y-91911321D01*
X121475019Y-91834298D01*
X121656302Y-91722052D01*
X121813872Y-91578407D01*
X121942366Y-91408255D01*
X121959458Y-91373929D01*
X122037403Y-91217394D01*
X122037403Y-91217393D01*
X122037405Y-91217389D01*
X122095756Y-91012310D01*
X122106529Y-90896047D01*
X122132315Y-90831111D01*
X122174622Y-90800804D01*
X122283130Y-90800804D01*
X122319503Y-90821668D01*
X122351693Y-90883681D01*
X122353470Y-90896047D01*
X122364244Y-91012310D01*
X122420509Y-91210059D01*
X122422596Y-91217392D01*
X122422596Y-91217394D01*
X122517632Y-91408253D01*
X122643142Y-91574453D01*
X122646128Y-91578407D01*
X122803698Y-91722052D01*
X122984981Y-91834298D01*
X123183802Y-91911321D01*
X123393390Y-91950500D01*
X123393392Y-91950500D01*
X123606608Y-91950500D01*
X123606610Y-91950500D01*
X123816198Y-91911321D01*
X124015019Y-91834298D01*
X124196302Y-91722052D01*
X124353872Y-91578407D01*
X124482366Y-91408255D01*
X124499458Y-91373929D01*
X124577403Y-91217394D01*
X124577403Y-91217393D01*
X124577405Y-91217389D01*
X124635756Y-91012310D01*
X124655429Y-90800000D01*
X124635756Y-90587690D01*
X124577405Y-90382611D01*
X124577403Y-90382606D01*
X124577403Y-90382605D01*
X124482367Y-90191746D01*
X124353872Y-90021593D01*
X124320230Y-89990924D01*
X124196302Y-89877948D01*
X124015019Y-89765702D01*
X124015017Y-89765701D01*
X123915608Y-89727190D01*
X123816198Y-89688679D01*
X123606610Y-89649500D01*
X123393390Y-89649500D01*
X123183802Y-89688679D01*
X123183799Y-89688679D01*
X123183799Y-89688680D01*
X122984982Y-89765701D01*
X122984980Y-89765702D01*
X122803699Y-89877947D01*
X122646127Y-90021593D01*
X122517632Y-90191746D01*
X122422596Y-90382605D01*
X122422596Y-90382607D01*
X122364244Y-90587689D01*
X122353471Y-90703951D01*
X122327685Y-90768888D01*
X122283130Y-90800804D01*
X122174622Y-90800804D01*
X122176869Y-90799194D01*
X122140497Y-90778331D01*
X122108307Y-90716318D01*
X122106529Y-90703951D01*
X122103987Y-90676519D01*
X122095756Y-90587690D01*
X122037405Y-90382611D01*
X122037403Y-90382606D01*
X122037403Y-90382605D01*
X121942367Y-90191746D01*
X121813872Y-90021593D01*
X121780230Y-89990924D01*
X121656302Y-89877948D01*
X121475019Y-89765702D01*
X121475017Y-89765701D01*
X121375608Y-89727190D01*
X121276198Y-89688679D01*
X121066610Y-89649500D01*
X120853390Y-89649500D01*
X120643802Y-89688679D01*
X120643799Y-89688679D01*
X120643799Y-89688680D01*
X120444982Y-89765701D01*
X120444980Y-89765702D01*
X120263699Y-89877947D01*
X120106127Y-90021593D01*
X119977632Y-90191746D01*
X119882596Y-90382605D01*
X119882596Y-90382607D01*
X119824244Y-90587689D01*
X119813471Y-90703951D01*
X119787685Y-90768888D01*
X119743130Y-90800804D01*
X119634622Y-90800804D01*
X119636869Y-90799194D01*
X119600497Y-90778331D01*
X119568307Y-90716318D01*
X119566529Y-90703951D01*
X119563987Y-90676519D01*
X119555756Y-90587690D01*
X119497405Y-90382611D01*
X119497403Y-90382606D01*
X119497403Y-90382605D01*
X119402367Y-90191746D01*
X119273872Y-90021593D01*
X119240230Y-89990924D01*
X119116302Y-89877948D01*
X118935019Y-89765702D01*
X118935017Y-89765701D01*
X118861927Y-89737386D01*
X118736198Y-89688679D01*
X118731062Y-89687718D01*
X118715921Y-89684888D01*
X118653641Y-89653218D01*
X118618369Y-89592905D01*
X118621305Y-89523097D01*
X118651026Y-89475321D01*
X119887629Y-88238719D01*
X119948952Y-88205234D01*
X119975310Y-88202400D01*
X120536755Y-88202400D01*
X120556152Y-88203926D01*
X120580000Y-88207704D01*
X120580002Y-88207704D01*
X120713121Y-88186620D01*
X120713121Y-88186619D01*
X120713126Y-88186619D01*
X120833220Y-88125428D01*
X120928528Y-88030120D01*
X120989719Y-87910026D01*
X120998105Y-87857078D01*
X121010804Y-87776900D01*
X121010051Y-87772147D01*
X121019004Y-87702855D01*
X121063999Y-87649402D01*
X121087734Y-87637120D01*
X121095019Y-87634298D01*
X121276302Y-87522052D01*
X121433872Y-87378407D01*
X121562366Y-87208255D01*
X121579916Y-87173009D01*
X121657403Y-87017394D01*
X121657403Y-87017393D01*
X121657405Y-87017389D01*
X121715756Y-86812310D01*
X121735429Y-86600000D01*
X121715756Y-86387690D01*
X121657405Y-86182611D01*
X121657403Y-86182606D01*
X121657403Y-86182605D01*
X121562367Y-85991746D01*
X121473826Y-85874500D01*
X121438138Y-85827242D01*
X121423224Y-85787763D01*
X124185787Y-85787763D01*
X124215413Y-86057013D01*
X124215415Y-86057024D01*
X124283926Y-86319082D01*
X124283928Y-86319088D01*
X124389870Y-86568390D01*
X124488505Y-86730009D01*
X124530979Y-86799605D01*
X124530986Y-86799615D01*
X124704253Y-87007819D01*
X124704259Y-87007824D01*
X124858005Y-87145580D01*
X124905998Y-87188582D01*
X125131910Y-87338044D01*
X125377176Y-87453020D01*
X125377183Y-87453022D01*
X125377185Y-87453023D01*
X125636557Y-87531057D01*
X125636564Y-87531058D01*
X125636569Y-87531060D01*
X125904561Y-87570500D01*
X125904566Y-87570500D01*
X126107629Y-87570500D01*
X126107631Y-87570500D01*
X126107636Y-87570499D01*
X126107648Y-87570499D01*
X126145191Y-87567750D01*
X126310156Y-87555677D01*
X126422758Y-87530593D01*
X126574546Y-87496782D01*
X126574548Y-87496781D01*
X126574553Y-87496780D01*
X126827558Y-87400014D01*
X127063777Y-87267441D01*
X127278177Y-87101888D01*
X127466186Y-86906881D01*
X127623799Y-86686579D01*
X127708825Y-86521202D01*
X127747649Y-86445690D01*
X127747651Y-86445684D01*
X127747656Y-86445675D01*
X127835118Y-86189305D01*
X127884319Y-85922933D01*
X127894212Y-85652235D01*
X127864586Y-85382982D01*
X127796072Y-85120912D01*
X127690130Y-84871610D01*
X127549018Y-84640390D01*
X127547845Y-84638981D01*
X127375746Y-84432180D01*
X127375740Y-84432175D01*
X127174002Y-84251418D01*
X126948092Y-84101957D01*
X126927106Y-84092119D01*
X126702824Y-83986980D01*
X126702819Y-83986978D01*
X126702814Y-83986976D01*
X126443442Y-83908942D01*
X126443428Y-83908939D01*
X126327791Y-83891921D01*
X126175439Y-83869500D01*
X125972369Y-83869500D01*
X125972351Y-83869500D01*
X125769844Y-83884323D01*
X125769831Y-83884325D01*
X125505453Y-83943217D01*
X125505446Y-83943220D01*
X125252439Y-84039987D01*
X125016226Y-84172557D01*
X125016224Y-84172558D01*
X125016223Y-84172559D01*
X125005891Y-84180537D01*
X124801822Y-84338112D01*
X124613822Y-84533109D01*
X124613816Y-84533116D01*
X124456202Y-84753419D01*
X124456199Y-84753424D01*
X124332350Y-84994309D01*
X124332343Y-84994327D01*
X124244884Y-85250685D01*
X124244881Y-85250699D01*
X124235933Y-85299142D01*
X124196371Y-85513335D01*
X124195681Y-85517068D01*
X124195680Y-85517075D01*
X124185787Y-85787763D01*
X121423224Y-85787763D01*
X121413447Y-85761883D01*
X121428012Y-85693548D01*
X121449412Y-85664836D01*
X123627429Y-83486819D01*
X123688752Y-83453334D01*
X123715110Y-83450500D01*
X124304270Y-83450500D01*
X124334699Y-83447646D01*
X124334701Y-83447646D01*
X124398790Y-83425219D01*
X124462882Y-83402793D01*
X124572150Y-83322150D01*
X124652793Y-83212882D01*
X124681290Y-83131442D01*
X124697646Y-83084701D01*
X124697646Y-83084699D01*
X124700500Y-83054269D01*
X124700500Y-82645733D01*
X124698599Y-82625467D01*
X124711937Y-82556882D01*
X124760237Y-82506396D01*
X124828165Y-82490038D01*
X124863011Y-82496845D01*
X124864073Y-82497216D01*
X124865301Y-82497646D01*
X124865300Y-82497646D01*
X124895730Y-82500500D01*
X124895734Y-82500500D01*
X126179270Y-82500500D01*
X126209699Y-82497646D01*
X126209701Y-82497646D01*
X126296860Y-82467147D01*
X126337882Y-82452793D01*
X126447150Y-82372150D01*
X126527793Y-82262882D01*
X126550219Y-82198790D01*
X126572646Y-82134701D01*
X126572646Y-82134699D01*
X126575500Y-82104269D01*
X126575500Y-81695730D01*
X126572646Y-81665300D01*
X126572646Y-81665298D01*
X126533060Y-81552171D01*
X126527793Y-81537118D01*
X126447150Y-81427850D01*
X126337882Y-81347207D01*
X126337880Y-81347206D01*
X126209700Y-81302353D01*
X126179270Y-81299500D01*
X126179266Y-81299500D01*
X126087000Y-81299500D01*
X126019961Y-81279815D01*
X125974206Y-81227011D01*
X125963000Y-81175500D01*
X125963000Y-79839115D01*
X125982685Y-79772076D01*
X126035489Y-79726321D01*
X126072217Y-79715999D01*
X126081564Y-79714877D01*
X126222342Y-79659361D01*
X126342922Y-79567922D01*
X126434361Y-79447342D01*
X126489877Y-79306564D01*
X126500500Y-79218102D01*
X126500500Y-78606898D01*
X126489877Y-78518436D01*
X126434361Y-78377658D01*
X126434360Y-78377657D01*
X126434360Y-78377656D01*
X126342922Y-78257077D01*
X126222340Y-78165637D01*
X126217714Y-78163036D01*
X126168929Y-78113019D01*
X126154929Y-78044566D01*
X126180160Y-77979411D01*
X126215373Y-77948221D01*
X126351549Y-77867687D01*
X126351561Y-77867678D01*
X126467678Y-77751561D01*
X126467685Y-77751552D01*
X126551282Y-77610196D01*
X126551283Y-77610193D01*
X126597099Y-77452495D01*
X126597100Y-77452489D01*
X126599999Y-77415649D01*
X126600000Y-77415634D01*
X126600000Y-77337500D01*
X125374000Y-77337500D01*
X125306961Y-77317815D01*
X125261206Y-77265011D01*
X125250000Y-77213500D01*
X125250000Y-76175000D01*
X125750000Y-76175000D01*
X125750000Y-76837500D01*
X126600000Y-76837500D01*
X126600000Y-76759365D01*
X126599999Y-76759350D01*
X126597100Y-76722510D01*
X126597099Y-76722504D01*
X126551283Y-76564806D01*
X126551282Y-76564803D01*
X126467685Y-76423447D01*
X126467678Y-76423438D01*
X126351561Y-76307321D01*
X126351552Y-76307314D01*
X126210196Y-76223717D01*
X126210193Y-76223716D01*
X126052495Y-76177900D01*
X126052489Y-76177899D01*
X126015649Y-76175000D01*
X125750000Y-76175000D01*
X125250000Y-76175000D01*
X124984366Y-76175000D01*
X124984334Y-76175001D01*
X124977522Y-76175537D01*
X124909145Y-76161169D01*
X124859391Y-76112115D01*
X124843800Y-76051919D01*
X124843800Y-76045695D01*
X124863485Y-75978656D01*
X124916289Y-75932901D01*
X124982584Y-75922580D01*
X125006898Y-75925500D01*
X125006899Y-75925500D01*
X125993097Y-75925500D01*
X125993102Y-75925500D01*
X126081564Y-75914877D01*
X126222342Y-75859361D01*
X126342922Y-75767922D01*
X126434361Y-75647342D01*
X126489877Y-75506564D01*
X126500500Y-75418102D01*
X126500500Y-74806898D01*
X126489877Y-74718436D01*
X126434361Y-74577658D01*
X126434360Y-74577657D01*
X126434360Y-74577656D01*
X126342922Y-74457077D01*
X126222340Y-74365637D01*
X126217714Y-74363036D01*
X126168929Y-74313019D01*
X126154929Y-74244566D01*
X126180160Y-74179411D01*
X126215373Y-74148221D01*
X126351549Y-74067687D01*
X126351561Y-74067678D01*
X126467678Y-73951561D01*
X126467685Y-73951552D01*
X126551282Y-73810196D01*
X126551283Y-73810193D01*
X126597099Y-73652495D01*
X126597100Y-73652489D01*
X126599999Y-73615649D01*
X126600000Y-73615634D01*
X126600000Y-73537500D01*
X124400000Y-73537500D01*
X124400000Y-73615649D01*
X124402899Y-73652489D01*
X124446768Y-73803487D01*
X124446568Y-73873356D01*
X124408625Y-73932026D01*
X124344987Y-73960869D01*
X124275857Y-73950728D01*
X124240010Y-73925762D01*
X124033133Y-73718885D01*
X123999648Y-73657562D01*
X123997699Y-73616423D01*
X124000500Y-73593102D01*
X124000500Y-72981898D01*
X123989877Y-72893436D01*
X123934361Y-72752658D01*
X123934360Y-72752657D01*
X123934360Y-72752656D01*
X123842922Y-72632077D01*
X123722343Y-72540639D01*
X123581561Y-72485122D01*
X123535926Y-72479642D01*
X123493102Y-72474500D01*
X122506898Y-72474500D01*
X122467853Y-72479188D01*
X122418438Y-72485122D01*
X122277656Y-72540639D01*
X122157077Y-72632077D01*
X122065639Y-72752656D01*
X122010122Y-72893438D01*
X122004188Y-72942853D01*
X121999500Y-72981898D01*
X121999500Y-73593102D01*
X122002206Y-73615634D01*
X122010122Y-73681561D01*
X122065639Y-73822343D01*
X122157077Y-73942922D01*
X122277656Y-74034360D01*
X122277657Y-74034360D01*
X122277658Y-74034361D01*
X122405171Y-74084646D01*
X122460314Y-74127551D01*
X122483507Y-74193459D01*
X122467386Y-74261444D01*
X122417070Y-74309920D01*
X122405178Y-74315351D01*
X122353663Y-74335665D01*
X122277656Y-74365639D01*
X122157077Y-74457077D01*
X122065639Y-74577657D01*
X122053481Y-74608489D01*
X122010576Y-74663633D01*
X121944668Y-74686827D01*
X121938126Y-74687000D01*
X118514101Y-74687000D01*
X118447062Y-74667315D01*
X118438615Y-74661376D01*
X118342942Y-74587964D01*
X118196862Y-74527456D01*
X118196860Y-74527455D01*
X118040101Y-74506818D01*
X118040099Y-74506818D01*
X117883339Y-74527455D01*
X117883337Y-74527456D01*
X117737260Y-74587963D01*
X117611818Y-74684218D01*
X117515563Y-74809660D01*
X117455056Y-74955737D01*
X117455055Y-74955739D01*
X117434418Y-75112498D01*
X117434418Y-75112501D01*
X117455055Y-75269260D01*
X117455056Y-75269262D01*
X117505998Y-75392248D01*
X117515564Y-75415341D01*
X117611818Y-75540782D01*
X117737259Y-75637036D01*
X117883338Y-75697544D01*
X117961719Y-75707863D01*
X118040099Y-75718182D01*
X118040100Y-75718182D01*
X118040101Y-75718182D01*
X118092354Y-75711302D01*
X118196862Y-75697544D01*
X118342941Y-75637036D01*
X118377538Y-75610489D01*
X118438615Y-75563624D01*
X118503785Y-75538430D01*
X118514101Y-75538000D01*
X121938126Y-75538000D01*
X122005165Y-75557685D01*
X122050920Y-75610489D01*
X122053478Y-75616504D01*
X122061575Y-75637036D01*
X122065639Y-75647342D01*
X122157077Y-75767922D01*
X122277656Y-75859360D01*
X122277657Y-75859360D01*
X122277658Y-75859361D01*
X122418436Y-75914877D01*
X122506898Y-75925500D01*
X122506903Y-75925500D01*
X123493097Y-75925500D01*
X123493102Y-75925500D01*
X123581564Y-75914877D01*
X123722342Y-75859361D01*
X123793875Y-75805116D01*
X123859186Y-75780293D01*
X123927550Y-75794721D01*
X123977261Y-75843819D01*
X123992800Y-75903920D01*
X123992800Y-76296079D01*
X123973115Y-76363118D01*
X123920311Y-76408873D01*
X123851153Y-76418817D01*
X123793875Y-76394883D01*
X123722343Y-76340639D01*
X123581561Y-76285122D01*
X123535926Y-76279642D01*
X123493102Y-76274500D01*
X122506898Y-76274500D01*
X122467853Y-76279188D01*
X122418438Y-76285122D01*
X122277656Y-76340639D01*
X122157077Y-76432077D01*
X122065639Y-76552656D01*
X122010122Y-76693438D01*
X122005561Y-76731423D01*
X121999500Y-76781898D01*
X121999500Y-77393102D01*
X122001109Y-77406497D01*
X122010122Y-77481561D01*
X122065639Y-77622343D01*
X122157077Y-77742922D01*
X122277656Y-77834360D01*
X122277657Y-77834360D01*
X122277658Y-77834361D01*
X122405171Y-77884646D01*
X122460314Y-77927551D01*
X122483507Y-77993459D01*
X122467386Y-78061444D01*
X122417070Y-78109920D01*
X122405178Y-78115351D01*
X122360757Y-78132868D01*
X122277658Y-78165638D01*
X122228634Y-78202815D01*
X122183812Y-78236804D01*
X122118502Y-78261627D01*
X122108888Y-78262000D01*
X115673006Y-78262000D01*
X115656995Y-78260232D01*
X115656973Y-78260474D01*
X115649206Y-78259739D01*
X115579224Y-78261939D01*
X115575329Y-78262000D01*
X115546575Y-78262000D01*
X115546569Y-78262000D01*
X115546563Y-78262001D01*
X115542199Y-78262552D01*
X115530569Y-78263467D01*
X115484933Y-78264901D01*
X115470373Y-78269130D01*
X115464540Y-78270825D01*
X115445496Y-78274769D01*
X115424442Y-78277429D01*
X115424440Y-78277429D01*
X115381996Y-78294233D01*
X115370950Y-78298015D01*
X115327101Y-78310754D01*
X115308825Y-78321563D01*
X115291360Y-78330119D01*
X115271624Y-78337933D01*
X115234687Y-78364769D01*
X115224928Y-78371180D01*
X115185636Y-78394417D01*
X115170624Y-78409429D01*
X115155836Y-78422058D01*
X115138667Y-78434532D01*
X115138665Y-78434534D01*
X115109556Y-78469719D01*
X115101696Y-78478356D01*
X108157250Y-85422802D01*
X108095927Y-85456287D01*
X108046785Y-85457010D01*
X108006610Y-85449500D01*
X107793390Y-85449500D01*
X107793388Y-85449500D01*
X107753212Y-85457010D01*
X107683697Y-85449978D01*
X107642748Y-85422802D01*
X106430634Y-84210688D01*
X106420561Y-84198114D01*
X106420374Y-84198270D01*
X106415398Y-84192254D01*
X106364367Y-84144334D01*
X106361569Y-84141623D01*
X106341235Y-84121289D01*
X106337748Y-84118584D01*
X106328869Y-84111000D01*
X106295596Y-84079754D01*
X106295588Y-84079748D01*
X106276992Y-84069525D01*
X106260731Y-84058844D01*
X106243963Y-84045837D01*
X106227609Y-84038760D01*
X106202053Y-84027701D01*
X106191594Y-84022577D01*
X106151568Y-84000573D01*
X106151565Y-84000572D01*
X106131001Y-83995292D01*
X106112596Y-83988990D01*
X106093127Y-83980565D01*
X106093121Y-83980563D01*
X106048037Y-83973423D01*
X106036598Y-83971054D01*
X105992380Y-83959700D01*
X105992377Y-83959700D01*
X105971155Y-83959700D01*
X105951755Y-83958173D01*
X105930796Y-83954853D01*
X105930795Y-83954853D01*
X105888022Y-83958896D01*
X105885340Y-83959150D01*
X105873670Y-83959700D01*
X98975304Y-83959700D01*
X98959293Y-83957932D01*
X98959271Y-83958174D01*
X98951504Y-83957440D01*
X98951503Y-83957440D01*
X98881537Y-83959639D01*
X98877642Y-83959700D01*
X98848875Y-83959700D01*
X98848872Y-83959700D01*
X98848857Y-83959701D01*
X98844487Y-83960253D01*
X98832859Y-83961168D01*
X98787235Y-83962602D01*
X98787225Y-83962604D01*
X98766849Y-83968523D01*
X98747808Y-83972466D01*
X98726753Y-83975126D01*
X98726737Y-83975130D01*
X98684291Y-83991935D01*
X98673245Y-83995717D01*
X98629402Y-84008455D01*
X98611132Y-84019260D01*
X98593663Y-84027818D01*
X98573928Y-84035632D01*
X98573926Y-84035633D01*
X98537001Y-84062460D01*
X98527242Y-84068871D01*
X98487932Y-84092120D01*
X98472926Y-84107126D01*
X98458136Y-84119758D01*
X98440967Y-84132232D01*
X98440965Y-84132234D01*
X98411856Y-84167419D01*
X98403996Y-84176056D01*
X97157250Y-85422802D01*
X97095927Y-85456287D01*
X97046785Y-85457010D01*
X97006610Y-85449500D01*
X96793390Y-85449500D01*
X96793388Y-85449500D01*
X96753212Y-85457010D01*
X96683697Y-85449978D01*
X96642748Y-85422802D01*
X88020434Y-76800488D01*
X88010361Y-76787914D01*
X88010174Y-76788070D01*
X88005198Y-76782054D01*
X87954167Y-76734134D01*
X87951369Y-76731423D01*
X87931035Y-76711089D01*
X87927548Y-76708384D01*
X87918669Y-76700800D01*
X87885396Y-76669554D01*
X87885388Y-76669548D01*
X87866792Y-76659325D01*
X87850531Y-76648644D01*
X87833763Y-76635637D01*
X87817409Y-76628560D01*
X87791853Y-76617501D01*
X87781394Y-76612377D01*
X87741368Y-76590373D01*
X87741365Y-76590372D01*
X87720801Y-76585092D01*
X87702396Y-76578790D01*
X87682927Y-76570365D01*
X87682921Y-76570363D01*
X87637837Y-76563223D01*
X87626398Y-76560854D01*
X87582180Y-76549500D01*
X87582177Y-76549500D01*
X87560955Y-76549500D01*
X87541555Y-76547973D01*
X87520596Y-76544653D01*
X87520595Y-76544653D01*
X87485475Y-76547973D01*
X87475140Y-76548950D01*
X87463470Y-76549500D01*
X80785485Y-76549500D01*
X80718446Y-76529815D01*
X80672691Y-76477011D01*
X80662747Y-76407853D01*
X80678753Y-76362379D01*
X80751750Y-76238946D01*
X80797128Y-76082751D01*
X80799999Y-76046270D01*
X80800000Y-76046258D01*
X80800000Y-75987500D01*
X78600001Y-75987500D01*
X78600001Y-76046275D01*
X78602871Y-76082752D01*
X78648249Y-76238946D01*
X78721247Y-76362379D01*
X78738430Y-76430103D01*
X78716270Y-76496366D01*
X78661804Y-76540129D01*
X78614515Y-76549500D01*
X75820041Y-76549500D01*
X75753002Y-76529815D01*
X75707247Y-76477011D01*
X75697303Y-76407853D01*
X75699935Y-76394668D01*
X75703005Y-76382709D01*
X75709308Y-76364298D01*
X75717735Y-76344826D01*
X75724877Y-76299728D01*
X75727244Y-76288304D01*
X75728061Y-76285122D01*
X75738600Y-76244077D01*
X75738600Y-76222849D01*
X75740127Y-76203449D01*
X75741119Y-76197185D01*
X75743446Y-76182495D01*
X75739150Y-76137047D01*
X75738600Y-76125378D01*
X75738600Y-72203835D01*
X75758285Y-72136796D01*
X75811089Y-72091041D01*
X75866572Y-72082726D01*
X75866572Y-72080358D01*
X75874701Y-72080358D01*
X75903540Y-72076561D01*
X75919726Y-72075500D01*
X78725403Y-72075500D01*
X78792442Y-72095185D01*
X78824207Y-72124575D01*
X78857077Y-72167922D01*
X78977656Y-72259360D01*
X78977657Y-72259360D01*
X78977658Y-72259361D01*
X79118436Y-72314877D01*
X79206898Y-72325500D01*
X79206903Y-72325500D01*
X80193103Y-72325500D01*
X80198815Y-72324814D01*
X80267723Y-72336364D01*
X80319448Y-72383336D01*
X80337600Y-72447929D01*
X80337600Y-72571790D01*
X80317915Y-72638829D01*
X80301281Y-72659471D01*
X79922571Y-73038181D01*
X79861248Y-73071666D01*
X79834890Y-73074500D01*
X79201140Y-73074500D01*
X79135544Y-73082377D01*
X79113677Y-73085003D01*
X78974502Y-73139887D01*
X78974500Y-73139888D01*
X78855288Y-73230288D01*
X78764888Y-73349500D01*
X78764887Y-73349502D01*
X78710003Y-73488677D01*
X78710003Y-73488679D01*
X78699500Y-73576140D01*
X78699500Y-74148860D01*
X78703169Y-74179411D01*
X78710003Y-74236322D01*
X78764887Y-74375497D01*
X78764888Y-74375499D01*
X78855288Y-74494711D01*
X78974498Y-74585110D01*
X78974499Y-74585110D01*
X78974500Y-74585111D01*
X79098947Y-74634187D01*
X79154088Y-74677091D01*
X79177281Y-74742999D01*
X79161161Y-74810983D01*
X79110844Y-74859460D01*
X79088049Y-74868616D01*
X78986059Y-74898247D01*
X78986053Y-74898249D01*
X78846057Y-74981042D01*
X78846049Y-74981048D01*
X78731048Y-75096049D01*
X78731042Y-75096057D01*
X78648249Y-75236053D01*
X78602871Y-75392248D01*
X78600000Y-75428729D01*
X78600000Y-75487500D01*
X80799999Y-75487500D01*
X80799999Y-75428746D01*
X80799998Y-75428724D01*
X80797128Y-75392247D01*
X80751750Y-75236053D01*
X80668957Y-75096057D01*
X80668951Y-75096049D01*
X80553950Y-74981048D01*
X80553942Y-74981042D01*
X80413946Y-74898249D01*
X80413941Y-74898247D01*
X80311950Y-74868616D01*
X80253064Y-74831010D01*
X80223858Y-74767537D01*
X80233604Y-74698351D01*
X80279208Y-74645416D01*
X80301041Y-74634191D01*
X80425500Y-74585111D01*
X80544711Y-74494711D01*
X80635111Y-74375500D01*
X80689997Y-74236321D01*
X80700500Y-74148860D01*
X80700500Y-73576140D01*
X80695636Y-73535640D01*
X80707186Y-73466735D01*
X80731067Y-73433179D01*
X81087653Y-73076595D01*
X81111628Y-73052620D01*
X81122593Y-73031098D01*
X81132754Y-73014518D01*
X81146949Y-72994981D01*
X81154409Y-72972016D01*
X81161859Y-72954034D01*
X81172818Y-72932528D01*
X81172818Y-72932527D01*
X81172819Y-72932526D01*
X81176595Y-72908676D01*
X81181136Y-72889760D01*
X81188600Y-72866793D01*
X81188600Y-72732007D01*
X81188600Y-70717112D01*
X81188600Y-70683207D01*
X81182390Y-70664096D01*
X81181139Y-70660245D01*
X81176595Y-70641321D01*
X81172819Y-70617474D01*
X81161853Y-70595954D01*
X81154408Y-70577978D01*
X81150439Y-70565763D01*
X81146949Y-70555019D01*
X81132749Y-70535475D01*
X81122593Y-70518900D01*
X81111628Y-70497380D01*
X81016320Y-70402072D01*
X80733133Y-70118885D01*
X80699648Y-70057562D01*
X80697699Y-70016423D01*
X80700500Y-69993102D01*
X80700500Y-69381898D01*
X80689877Y-69293436D01*
X80634361Y-69152658D01*
X80634360Y-69152657D01*
X80634360Y-69152656D01*
X80542922Y-69032077D01*
X80422343Y-68940639D01*
X80281561Y-68885122D01*
X80235926Y-68879642D01*
X80193102Y-68874500D01*
X79206898Y-68874500D01*
X79167853Y-68879188D01*
X79118438Y-68885122D01*
X78977656Y-68940639D01*
X78857077Y-69032077D01*
X78765639Y-69152656D01*
X78710122Y-69293438D01*
X78704188Y-69342853D01*
X78699500Y-69381898D01*
X78699500Y-69993102D01*
X78705126Y-70039954D01*
X78710122Y-70081561D01*
X78765639Y-70222343D01*
X78857077Y-70342922D01*
X78977656Y-70434360D01*
X78977657Y-70434360D01*
X78977658Y-70434361D01*
X79105171Y-70484646D01*
X79160314Y-70527551D01*
X79183507Y-70593459D01*
X79167386Y-70661444D01*
X79117070Y-70709920D01*
X79105178Y-70715351D01*
X79074483Y-70727456D01*
X78977656Y-70765639D01*
X78857077Y-70857077D01*
X78824207Y-70900425D01*
X78768015Y-70941948D01*
X78725403Y-70949500D01*
X76159264Y-70949500D01*
X76092225Y-70929815D01*
X76071583Y-70913181D01*
X75764610Y-70606208D01*
X75734361Y-70556847D01*
X75719067Y-70509775D01*
X75713000Y-70471463D01*
X75713000Y-68572601D01*
X115089718Y-68572601D01*
X115110355Y-68729360D01*
X115110356Y-68729362D01*
X115170864Y-68875441D01*
X115267118Y-69000882D01*
X115392559Y-69097136D01*
X115538638Y-69157644D01*
X115617019Y-69167963D01*
X115695399Y-69178282D01*
X115695400Y-69178282D01*
X115695401Y-69178282D01*
X115747654Y-69171402D01*
X115852162Y-69157644D01*
X115998241Y-69097136D01*
X116015728Y-69083717D01*
X116093915Y-69023724D01*
X116159085Y-68998530D01*
X116169401Y-68998100D01*
X121857490Y-68998100D01*
X121924529Y-69017785D01*
X121945171Y-69034419D01*
X121966865Y-69056113D01*
X122000350Y-69117436D01*
X122002300Y-69158573D01*
X121999934Y-69178282D01*
X121999500Y-69181898D01*
X121999500Y-69793102D01*
X122005126Y-69839954D01*
X122010122Y-69881561D01*
X122065639Y-70022343D01*
X122157077Y-70142922D01*
X122277656Y-70234360D01*
X122277657Y-70234360D01*
X122277658Y-70234361D01*
X122405171Y-70284646D01*
X122460314Y-70327551D01*
X122483507Y-70393459D01*
X122467386Y-70461444D01*
X122417070Y-70509920D01*
X122405178Y-70515351D01*
X122354130Y-70535482D01*
X122277656Y-70565639D01*
X122157077Y-70657077D01*
X122065639Y-70777656D01*
X122010122Y-70918438D01*
X122004188Y-70967853D01*
X121999500Y-71006898D01*
X121999500Y-71618102D01*
X122002502Y-71643102D01*
X122010122Y-71706561D01*
X122065639Y-71847343D01*
X122157077Y-71967922D01*
X122277656Y-72059360D01*
X122277657Y-72059360D01*
X122277658Y-72059361D01*
X122418436Y-72114877D01*
X122506898Y-72125500D01*
X122506903Y-72125500D01*
X123493097Y-72125500D01*
X123493102Y-72125500D01*
X123581564Y-72114877D01*
X123722342Y-72059361D01*
X123842922Y-71967922D01*
X123888523Y-71907787D01*
X123944715Y-71866265D01*
X124014436Y-71861713D01*
X124034778Y-71868151D01*
X124105738Y-71897544D01*
X124183549Y-71907788D01*
X124262499Y-71918182D01*
X124262500Y-71918182D01*
X124262501Y-71918182D01*
X124280737Y-71915780D01*
X124419262Y-71897544D01*
X124437742Y-71889888D01*
X124507211Y-71882419D01*
X124569691Y-71913692D01*
X124584001Y-71929523D01*
X124632079Y-71992923D01*
X124752656Y-72084360D01*
X124752657Y-72084360D01*
X124752658Y-72084361D01*
X124893436Y-72139877D01*
X124907520Y-72141568D01*
X124971736Y-72169103D01*
X125010870Y-72226985D01*
X125012499Y-72296835D01*
X124976106Y-72356478D01*
X124927335Y-72383760D01*
X124789806Y-72423716D01*
X124789803Y-72423717D01*
X124648447Y-72507314D01*
X124648438Y-72507321D01*
X124532321Y-72623438D01*
X124532314Y-72623447D01*
X124448717Y-72764803D01*
X124448716Y-72764806D01*
X124402900Y-72922504D01*
X124402899Y-72922510D01*
X124400000Y-72959350D01*
X124400000Y-73037500D01*
X126600000Y-73037500D01*
X126600000Y-72959365D01*
X126599999Y-72959350D01*
X126597100Y-72922510D01*
X126597099Y-72922504D01*
X126551283Y-72764806D01*
X126551282Y-72764803D01*
X126467685Y-72623447D01*
X126467678Y-72623438D01*
X126351561Y-72507321D01*
X126351552Y-72507314D01*
X126210196Y-72423717D01*
X126210193Y-72423716D01*
X126072664Y-72383760D01*
X126013778Y-72346154D01*
X125984572Y-72282681D01*
X125994318Y-72213495D01*
X126039922Y-72160560D01*
X126092477Y-72141568D01*
X126106564Y-72139877D01*
X126247342Y-72084361D01*
X126367922Y-71992922D01*
X126459361Y-71872342D01*
X126514877Y-71731564D01*
X126525500Y-71643102D01*
X126525500Y-71056898D01*
X126514877Y-70968436D01*
X126459361Y-70827658D01*
X126459360Y-70827657D01*
X126459360Y-70827656D01*
X126367922Y-70707077D01*
X126247343Y-70615639D01*
X126191098Y-70593459D01*
X126120865Y-70565762D01*
X126065723Y-70522858D01*
X126042530Y-70456950D01*
X126058650Y-70388965D01*
X126108967Y-70340489D01*
X126131763Y-70331332D01*
X126235197Y-70301281D01*
X126376552Y-70217685D01*
X126376561Y-70217678D01*
X126492678Y-70101561D01*
X126492685Y-70101552D01*
X126576282Y-69960196D01*
X126576283Y-69960193D01*
X126622099Y-69802495D01*
X126622100Y-69802489D01*
X126624999Y-69765649D01*
X126625000Y-69765634D01*
X126625000Y-69700000D01*
X124375000Y-69700000D01*
X124375000Y-69765649D01*
X124377899Y-69802489D01*
X124377900Y-69802495D01*
X124423716Y-69960193D01*
X124423717Y-69960196D01*
X124507314Y-70101552D01*
X124507321Y-70101561D01*
X124623438Y-70217678D01*
X124623447Y-70217685D01*
X124764803Y-70301282D01*
X124764806Y-70301283D01*
X124868237Y-70331333D01*
X124927122Y-70368939D01*
X124956329Y-70432411D01*
X124946583Y-70501598D01*
X124900979Y-70554532D01*
X124879132Y-70565763D01*
X124752660Y-70615637D01*
X124752658Y-70615638D01*
X124632082Y-70707074D01*
X124632078Y-70707078D01*
X124627277Y-70713409D01*
X124571082Y-70754929D01*
X124501361Y-70759477D01*
X124481027Y-70753039D01*
X124419262Y-70727456D01*
X124419260Y-70727455D01*
X124262501Y-70706818D01*
X124262499Y-70706818D01*
X124105739Y-70727455D01*
X124105737Y-70727456D01*
X124080386Y-70737957D01*
X124039413Y-70754929D01*
X124034780Y-70756848D01*
X123965310Y-70764317D01*
X123902831Y-70733042D01*
X123888523Y-70717212D01*
X123842922Y-70657077D01*
X123722343Y-70565639D01*
X123684339Y-70550652D01*
X123594826Y-70515353D01*
X123539685Y-70472449D01*
X123516492Y-70406541D01*
X123532612Y-70338557D01*
X123582929Y-70290080D01*
X123594814Y-70284651D01*
X123722342Y-70234361D01*
X123842922Y-70142922D01*
X123934361Y-70022342D01*
X123989877Y-69881564D01*
X124000500Y-69793102D01*
X124000500Y-69200000D01*
X124375000Y-69200000D01*
X125250000Y-69200000D01*
X125250000Y-68550000D01*
X125750000Y-68550000D01*
X125750000Y-69200000D01*
X126625000Y-69200000D01*
X126625000Y-69134365D01*
X126624999Y-69134350D01*
X126622100Y-69097510D01*
X126622099Y-69097504D01*
X126576283Y-68939806D01*
X126576282Y-68939803D01*
X126492685Y-68798447D01*
X126492678Y-68798438D01*
X126376561Y-68682321D01*
X126376552Y-68682314D01*
X126235196Y-68598717D01*
X126235193Y-68598716D01*
X126077495Y-68552900D01*
X126077489Y-68552899D01*
X126040649Y-68550000D01*
X125750000Y-68550000D01*
X125250000Y-68550000D01*
X124959350Y-68550000D01*
X124922510Y-68552899D01*
X124922504Y-68552900D01*
X124764806Y-68598716D01*
X124764803Y-68598717D01*
X124623447Y-68682314D01*
X124623438Y-68682321D01*
X124507321Y-68798438D01*
X124507314Y-68798447D01*
X124423717Y-68939803D01*
X124423716Y-68939806D01*
X124377900Y-69097504D01*
X124377899Y-69097510D01*
X124375000Y-69134350D01*
X124375000Y-69200000D01*
X124000500Y-69200000D01*
X124000500Y-69181898D01*
X123989877Y-69093436D01*
X123934361Y-68952658D01*
X123934360Y-68952657D01*
X123934360Y-68952656D01*
X123842922Y-68832077D01*
X123722343Y-68740639D01*
X123581561Y-68685122D01*
X123535926Y-68679642D01*
X123493102Y-68674500D01*
X123493097Y-68674500D01*
X122840110Y-68674500D01*
X122773071Y-68654815D01*
X122752429Y-68638181D01*
X122338318Y-68224070D01*
X122316803Y-68213108D01*
X122300210Y-68202940D01*
X122280680Y-68188750D01*
X122257715Y-68181288D01*
X122239741Y-68173843D01*
X122218227Y-68162881D01*
X122213110Y-68162070D01*
X122194373Y-68159103D01*
X122175458Y-68154562D01*
X122152494Y-68147100D01*
X122152493Y-68147100D01*
X122118588Y-68147100D01*
X116169401Y-68147100D01*
X116102362Y-68127415D01*
X116093915Y-68121476D01*
X115998242Y-68048064D01*
X115852162Y-67987556D01*
X115852160Y-67987555D01*
X115695401Y-67966918D01*
X115695399Y-67966918D01*
X115538639Y-67987555D01*
X115538637Y-67987556D01*
X115392560Y-68048063D01*
X115267118Y-68144318D01*
X115170863Y-68269760D01*
X115110356Y-68415837D01*
X115110355Y-68415839D01*
X115089718Y-68572598D01*
X115089718Y-68572601D01*
X75713000Y-68572601D01*
X75713000Y-67950034D01*
X75721058Y-67906063D01*
X75747639Y-67835975D01*
X75747640Y-67835970D01*
X75768145Y-67667100D01*
X75764291Y-67635364D01*
X75775750Y-67566444D01*
X75799700Y-67532744D01*
X75945628Y-67386816D01*
X76006951Y-67353334D01*
X76033308Y-67350500D01*
X76304270Y-67350500D01*
X76334699Y-67347646D01*
X76334701Y-67347646D01*
X76398790Y-67325219D01*
X76462882Y-67302793D01*
X76572150Y-67222150D01*
X76652793Y-67112882D01*
X76652796Y-67112871D01*
X76652981Y-67112524D01*
X76653295Y-67112200D01*
X76658311Y-67105405D01*
X76659240Y-67106091D01*
X76701707Y-67062449D01*
X76769771Y-67046666D01*
X76835563Y-67070186D01*
X76850296Y-67082778D01*
X77713197Y-67945679D01*
X77736000Y-67977064D01*
X77773071Y-68049818D01*
X77773076Y-68049825D01*
X77868374Y-68145123D01*
X77868378Y-68145126D01*
X77868380Y-68145128D01*
X77988474Y-68206319D01*
X77988476Y-68206319D01*
X77988478Y-68206320D01*
X78088107Y-68222100D01*
X78088112Y-68222100D01*
X78683292Y-68222100D01*
X78683293Y-68222100D01*
X78706260Y-68214636D01*
X78725176Y-68210095D01*
X78749026Y-68206319D01*
X78770536Y-68195357D01*
X78788514Y-68187910D01*
X78811481Y-68180449D01*
X78831018Y-68166253D01*
X78847606Y-68156088D01*
X78869120Y-68145128D01*
X78964428Y-68049820D01*
X79452429Y-67561819D01*
X79513752Y-67528334D01*
X79540110Y-67525500D01*
X80193097Y-67525500D01*
X80193102Y-67525500D01*
X80281564Y-67514877D01*
X80422342Y-67459361D01*
X80542922Y-67367922D01*
X80634361Y-67247342D01*
X80689877Y-67106564D01*
X80700500Y-67018102D01*
X80700500Y-66406898D01*
X80689877Y-66318436D01*
X80634361Y-66177658D01*
X80634360Y-66177657D01*
X80634360Y-66177656D01*
X80542922Y-66057077D01*
X80422340Y-65965637D01*
X80417714Y-65963036D01*
X80368929Y-65913019D01*
X80364221Y-65889999D01*
X123772891Y-65889999D01*
X123772892Y-65890000D01*
X124566314Y-65890000D01*
X124540507Y-65930156D01*
X124500000Y-66068111D01*
X124500000Y-66211889D01*
X124540507Y-66349844D01*
X124566314Y-66390000D01*
X123772892Y-66390000D01*
X123820894Y-66569150D01*
X123820898Y-66569159D01*
X123913333Y-66767387D01*
X124038787Y-66946554D01*
X124193445Y-67101212D01*
X124372612Y-67226666D01*
X124570843Y-67319103D01*
X124750000Y-67367106D01*
X124750000Y-66575501D01*
X124857685Y-66624680D01*
X124964237Y-66640000D01*
X125035763Y-66640000D01*
X125142315Y-66624680D01*
X125250000Y-66575501D01*
X125250000Y-67367105D01*
X125429156Y-67319103D01*
X125429157Y-67319103D01*
X125627387Y-67226666D01*
X125806554Y-67101212D01*
X125961212Y-66946554D01*
X126086666Y-66767387D01*
X126179101Y-66569159D01*
X126179105Y-66569150D01*
X126227108Y-66390000D01*
X125433686Y-66390000D01*
X125459493Y-66349844D01*
X125500000Y-66211889D01*
X125500000Y-66068111D01*
X125459493Y-65930156D01*
X125433686Y-65890000D01*
X126227108Y-65890000D01*
X126227108Y-65889999D01*
X126179105Y-65710849D01*
X126179101Y-65710840D01*
X126086666Y-65512612D01*
X126086664Y-65512608D01*
X125961216Y-65333450D01*
X125961211Y-65333444D01*
X125806554Y-65178787D01*
X125627386Y-65053332D01*
X125627384Y-65053331D01*
X125484881Y-64986881D01*
X125432441Y-64940709D01*
X125413289Y-64873515D01*
X125433505Y-64806634D01*
X125486670Y-64761300D01*
X125537284Y-64750499D01*
X125894864Y-64750499D01*
X125894879Y-64750497D01*
X125894882Y-64750497D01*
X125919987Y-64747586D01*
X125919988Y-64747585D01*
X125919991Y-64747585D01*
X126022765Y-64702206D01*
X126102206Y-64622765D01*
X126147585Y-64519991D01*
X126150500Y-64494865D01*
X126150499Y-62705136D01*
X126149722Y-62698432D01*
X126147586Y-62680012D01*
X126147585Y-62680010D01*
X126147585Y-62680009D01*
X126102206Y-62577235D01*
X126022765Y-62497794D01*
X126001546Y-62488425D01*
X125919992Y-62452415D01*
X125894865Y-62449500D01*
X124105143Y-62449500D01*
X124105117Y-62449502D01*
X124080012Y-62452413D01*
X124080008Y-62452415D01*
X123977235Y-62497793D01*
X123897794Y-62577234D01*
X123852415Y-62680006D01*
X123852415Y-62680008D01*
X123849500Y-62705131D01*
X123849500Y-64494856D01*
X123849502Y-64494882D01*
X123852413Y-64519987D01*
X123852415Y-64519991D01*
X123897793Y-64622764D01*
X123897794Y-64622765D01*
X123977235Y-64702206D01*
X124080009Y-64747585D01*
X124105135Y-64750500D01*
X124462715Y-64750499D01*
X124529752Y-64770183D01*
X124575507Y-64822987D01*
X124585451Y-64892146D01*
X124556426Y-64955701D01*
X124515118Y-64986881D01*
X124372613Y-65053333D01*
X124372608Y-65053335D01*
X124193450Y-65178783D01*
X124193444Y-65178788D01*
X124038788Y-65333444D01*
X124038783Y-65333450D01*
X123913335Y-65512608D01*
X123913333Y-65512612D01*
X123820898Y-65710840D01*
X123820894Y-65710849D01*
X123772891Y-65889999D01*
X80364221Y-65889999D01*
X80354929Y-65844566D01*
X80380160Y-65779411D01*
X80415373Y-65748221D01*
X80551549Y-65667687D01*
X80551561Y-65667678D01*
X80667678Y-65551561D01*
X80667685Y-65551552D01*
X80751282Y-65410196D01*
X80751283Y-65410193D01*
X80797099Y-65252495D01*
X80797100Y-65252489D01*
X80799999Y-65215649D01*
X80800000Y-65215634D01*
X80800000Y-65137500D01*
X78600000Y-65137500D01*
X78600000Y-65195028D01*
X78580315Y-65262067D01*
X78527511Y-65307822D01*
X78458353Y-65317766D01*
X78402367Y-65294799D01*
X78337882Y-65247207D01*
X78271044Y-65223819D01*
X78214268Y-65183097D01*
X78188522Y-65118144D01*
X78188000Y-65106778D01*
X78188000Y-64637500D01*
X78600000Y-64637500D01*
X79450000Y-64637500D01*
X79450000Y-63975000D01*
X79950000Y-63975000D01*
X79950000Y-64637500D01*
X80800000Y-64637500D01*
X80800000Y-64559365D01*
X80799999Y-64559350D01*
X80797100Y-64522510D01*
X80797099Y-64522504D01*
X80751283Y-64364806D01*
X80751282Y-64364803D01*
X80667685Y-64223447D01*
X80667678Y-64223438D01*
X80551561Y-64107321D01*
X80551552Y-64107314D01*
X80410196Y-64023717D01*
X80410193Y-64023716D01*
X80252495Y-63977900D01*
X80252489Y-63977899D01*
X80215649Y-63975000D01*
X79950000Y-63975000D01*
X79450000Y-63975000D01*
X79184350Y-63975000D01*
X79147510Y-63977899D01*
X79147504Y-63977900D01*
X78989806Y-64023716D01*
X78989803Y-64023717D01*
X78848447Y-64107314D01*
X78848438Y-64107321D01*
X78732321Y-64223438D01*
X78732314Y-64223447D01*
X78648717Y-64364803D01*
X78648716Y-64364806D01*
X78602900Y-64522504D01*
X78602899Y-64522510D01*
X78600000Y-64559350D01*
X78600000Y-64637500D01*
X78188000Y-64637500D01*
X78188000Y-64485503D01*
X78189768Y-64469491D01*
X78189526Y-64469469D01*
X78190260Y-64461706D01*
X78188061Y-64391722D01*
X78188000Y-64387828D01*
X78188000Y-64359078D01*
X78187999Y-64359071D01*
X78187450Y-64354725D01*
X78186531Y-64343062D01*
X78185098Y-64297431D01*
X78179176Y-64277050D01*
X78175231Y-64257995D01*
X78172572Y-64236949D01*
X78172571Y-64236947D01*
X78172571Y-64236942D01*
X78155767Y-64194501D01*
X78151984Y-64183452D01*
X78147737Y-64168834D01*
X78139245Y-64139602D01*
X78138642Y-64138583D01*
X78128436Y-64121324D01*
X78119878Y-64103855D01*
X78112068Y-64084129D01*
X78085221Y-64047179D01*
X78078831Y-64037449D01*
X78055581Y-63998135D01*
X78040575Y-63983129D01*
X78027935Y-63968330D01*
X78015461Y-63951160D01*
X77980280Y-63922056D01*
X77971640Y-63914194D01*
X76036819Y-61979373D01*
X76003334Y-61918050D01*
X76000500Y-61891692D01*
X76000500Y-60506903D01*
X76000500Y-60506898D01*
X75989877Y-60418436D01*
X75934361Y-60277658D01*
X75934360Y-60277657D01*
X75934360Y-60277656D01*
X75842922Y-60157077D01*
X75722343Y-60065639D01*
X75581561Y-60010122D01*
X75535926Y-60004642D01*
X75493102Y-59999500D01*
X74781898Y-59999500D01*
X74742853Y-60004188D01*
X74693438Y-60010122D01*
X74552656Y-60065639D01*
X74432077Y-60157077D01*
X74340639Y-60277656D01*
X74285122Y-60418438D01*
X74279188Y-60467853D01*
X74274500Y-60506898D01*
X74274500Y-63493102D01*
X74280126Y-63539954D01*
X74285122Y-63581561D01*
X74340639Y-63722343D01*
X74432077Y-63842922D01*
X74552656Y-63934360D01*
X74552657Y-63934360D01*
X74552658Y-63934361D01*
X74693436Y-63989877D01*
X74781898Y-64000500D01*
X74781903Y-64000500D01*
X75493097Y-64000500D01*
X75493102Y-64000500D01*
X75581564Y-63989877D01*
X75722342Y-63934361D01*
X75842922Y-63842922D01*
X75850819Y-63832507D01*
X75907011Y-63790984D01*
X75976732Y-63786431D01*
X76037305Y-63819751D01*
X76255373Y-64037819D01*
X76288858Y-64099142D01*
X76283874Y-64168834D01*
X76242002Y-64224767D01*
X76176538Y-64249184D01*
X76167692Y-64249500D01*
X75020730Y-64249500D01*
X74990300Y-64252353D01*
X74990298Y-64252353D01*
X74862119Y-64297206D01*
X74862117Y-64297207D01*
X74752850Y-64377850D01*
X74672207Y-64487117D01*
X74672206Y-64487119D01*
X74627353Y-64615298D01*
X74627353Y-64615300D01*
X74624500Y-64645730D01*
X74624500Y-65054269D01*
X74627353Y-65084699D01*
X74627353Y-65084701D01*
X74667699Y-65200000D01*
X74672207Y-65212882D01*
X74752850Y-65322150D01*
X74862118Y-65402793D01*
X74883275Y-65410196D01*
X74990299Y-65447646D01*
X75020730Y-65450500D01*
X75020734Y-65450500D01*
X75179277Y-65450500D01*
X75246316Y-65470185D01*
X75289761Y-65518204D01*
X75313971Y-65565718D01*
X75313976Y-65565725D01*
X75409274Y-65661023D01*
X75409283Y-65661030D01*
X75431060Y-65672126D01*
X75462446Y-65694929D01*
X75657855Y-65890338D01*
X75691340Y-65951661D01*
X75686356Y-66021353D01*
X75644484Y-66077286D01*
X75579020Y-66101703D01*
X75574073Y-66101958D01*
X75559932Y-66102402D01*
X75471420Y-66128117D01*
X75414762Y-66144577D01*
X75380172Y-66149500D01*
X75020730Y-66149500D01*
X74990300Y-66152353D01*
X74990298Y-66152353D01*
X74862119Y-66197206D01*
X74862117Y-66197207D01*
X74752850Y-66277850D01*
X74672207Y-66387117D01*
X74672206Y-66387119D01*
X74627353Y-66515298D01*
X74627353Y-66515300D01*
X74624500Y-66545730D01*
X74624500Y-66575500D01*
X74604815Y-66642539D01*
X74552011Y-66688294D01*
X74500500Y-66699500D01*
X72699628Y-66699500D01*
X72632589Y-66679815D01*
X72624717Y-66674314D01*
X72547342Y-66615639D01*
X72547341Y-66615638D01*
X72483386Y-66590418D01*
X72420865Y-66565762D01*
X72365723Y-66522858D01*
X72342530Y-66456950D01*
X72358650Y-66388965D01*
X72408967Y-66340489D01*
X72431763Y-66331332D01*
X72535197Y-66301281D01*
X72676552Y-66217685D01*
X72676561Y-66217678D01*
X72792678Y-66101561D01*
X72792685Y-66101552D01*
X72876282Y-65960196D01*
X72876283Y-65960193D01*
X72922099Y-65802495D01*
X72922100Y-65802489D01*
X72924999Y-65765649D01*
X72925000Y-65765634D01*
X72925000Y-65700000D01*
X71674000Y-65700000D01*
X71606961Y-65680315D01*
X71561206Y-65627511D01*
X71550000Y-65576000D01*
X71550000Y-64550000D01*
X72050000Y-64550000D01*
X72050000Y-65200000D01*
X72925000Y-65200000D01*
X72925000Y-65134365D01*
X72924999Y-65134350D01*
X72922100Y-65097510D01*
X72922099Y-65097504D01*
X72876283Y-64939806D01*
X72876282Y-64939803D01*
X72792685Y-64798447D01*
X72792678Y-64798438D01*
X72676561Y-64682321D01*
X72676552Y-64682314D01*
X72535196Y-64598717D01*
X72535193Y-64598716D01*
X72377495Y-64552900D01*
X72377489Y-64552899D01*
X72340649Y-64550000D01*
X72050000Y-64550000D01*
X71550000Y-64550000D01*
X71259350Y-64550000D01*
X71222510Y-64552899D01*
X71222504Y-64552900D01*
X71064806Y-64598716D01*
X71064803Y-64598717D01*
X70923447Y-64682314D01*
X70923438Y-64682321D01*
X70807321Y-64798438D01*
X70807314Y-64798447D01*
X70723717Y-64939803D01*
X70723716Y-64939806D01*
X70689020Y-65059231D01*
X70651414Y-65118117D01*
X70587941Y-65147323D01*
X70518755Y-65137577D01*
X70482263Y-65112317D01*
X70255565Y-64885619D01*
X70222080Y-64824296D01*
X70227064Y-64754604D01*
X70268936Y-64698671D01*
X70285618Y-64688143D01*
X70323552Y-64668234D01*
X70450883Y-64555429D01*
X70547518Y-64415430D01*
X70607840Y-64256372D01*
X70625667Y-64109552D01*
X70653289Y-64045376D01*
X70711223Y-64006319D01*
X70748763Y-64000500D01*
X71218097Y-64000500D01*
X71218102Y-64000500D01*
X71306564Y-63989877D01*
X71447342Y-63934361D01*
X71567922Y-63842922D01*
X71659361Y-63722342D01*
X71714877Y-63581564D01*
X71725500Y-63493102D01*
X71725500Y-60506898D01*
X71714877Y-60418436D01*
X71659361Y-60277658D01*
X71659360Y-60277657D01*
X71659360Y-60277656D01*
X71567922Y-60157077D01*
X71447343Y-60065639D01*
X71306561Y-60010122D01*
X71260926Y-60004642D01*
X71218102Y-59999500D01*
X70506898Y-59999500D01*
X70467853Y-60004188D01*
X70418438Y-60010122D01*
X70277656Y-60065639D01*
X70157077Y-60157077D01*
X70065639Y-60277656D01*
X70010122Y-60418438D01*
X70004188Y-60467853D01*
X69999500Y-60506898D01*
X69999500Y-60506903D01*
X69999500Y-61891691D01*
X69979815Y-61958730D01*
X69963181Y-61979372D01*
X69523184Y-62419368D01*
X69510610Y-62429443D01*
X69510765Y-62429630D01*
X69504758Y-62434599D01*
X69456833Y-62485633D01*
X69454127Y-62488425D01*
X69433790Y-62508763D01*
X69433777Y-62508778D01*
X69431073Y-62512263D01*
X69423506Y-62521122D01*
X69392252Y-62554407D01*
X69382022Y-62573013D01*
X69371346Y-62589264D01*
X69358340Y-62606032D01*
X69358336Y-62606038D01*
X69340208Y-62647930D01*
X69335069Y-62658419D01*
X69313072Y-62698430D01*
X69313072Y-62698431D01*
X69307791Y-62718999D01*
X69301491Y-62737401D01*
X69293064Y-62756873D01*
X69285923Y-62801962D01*
X69283554Y-62813400D01*
X69272200Y-62857617D01*
X69272200Y-62878844D01*
X69270673Y-62898244D01*
X69267353Y-62919203D01*
X69271650Y-62964658D01*
X69272200Y-62976328D01*
X69272200Y-63602892D01*
X69252515Y-63669931D01*
X69199711Y-63715686D01*
X69130553Y-63725630D01*
X69066997Y-63696605D01*
X69060519Y-63690573D01*
X64572334Y-59202388D01*
X64562261Y-59189814D01*
X64562074Y-59189970D01*
X64557098Y-59183954D01*
X64506067Y-59136034D01*
X64503269Y-59133323D01*
X64482935Y-59112989D01*
X64479448Y-59110284D01*
X64470569Y-59102700D01*
X64445590Y-59079243D01*
X64410195Y-59019002D01*
X64412989Y-58949188D01*
X64438840Y-58905310D01*
X64447052Y-58896302D01*
X64559298Y-58715019D01*
X64636321Y-58516198D01*
X64675500Y-58306610D01*
X64675500Y-58093390D01*
X64636321Y-57883802D01*
X64636318Y-57883794D01*
X64621733Y-57846144D01*
X64615870Y-57776521D01*
X64648580Y-57714781D01*
X64709476Y-57680526D01*
X64741997Y-57677437D01*
X64762314Y-57678197D01*
X64776408Y-57678725D01*
X64776408Y-57678724D01*
X64776410Y-57678725D01*
X64907587Y-57643576D01*
X64907587Y-57643575D01*
X64908896Y-57643225D01*
X64940990Y-57639000D01*
X68525500Y-57639000D01*
X68592539Y-57658685D01*
X68638294Y-57711489D01*
X68649500Y-57763000D01*
X68649500Y-58049269D01*
X68652353Y-58079699D01*
X68652353Y-58079701D01*
X68697206Y-58207880D01*
X68697207Y-58207882D01*
X68777850Y-58317150D01*
X68887118Y-58397793D01*
X68929845Y-58412744D01*
X69015299Y-58442646D01*
X69045730Y-58445500D01*
X69045734Y-58445500D01*
X70804270Y-58445500D01*
X70834699Y-58442646D01*
X70834701Y-58442646D01*
X70898790Y-58420219D01*
X70962882Y-58397793D01*
X71072150Y-58317150D01*
X71152793Y-58207882D01*
X71175219Y-58143790D01*
X71197646Y-58079701D01*
X71197646Y-58079699D01*
X71200500Y-58049269D01*
X71200500Y-57640730D01*
X71197646Y-57610300D01*
X71197646Y-57610298D01*
X71152793Y-57482119D01*
X71152792Y-57482117D01*
X71072150Y-57372850D01*
X70986677Y-57309768D01*
X70944428Y-57254123D01*
X70938969Y-57184467D01*
X70972036Y-57122917D01*
X70986670Y-57110236D01*
X71072150Y-57047150D01*
X71152793Y-56937882D01*
X71196344Y-56813421D01*
X71197646Y-56809701D01*
X71197646Y-56809699D01*
X71200500Y-56779269D01*
X71200500Y-56370730D01*
X71197646Y-56340300D01*
X71197646Y-56340298D01*
X71164006Y-56244163D01*
X71152793Y-56212118D01*
X71072150Y-56102850D01*
X70986677Y-56039768D01*
X70944428Y-55984123D01*
X70938969Y-55914467D01*
X70972036Y-55852917D01*
X70986670Y-55840236D01*
X71072150Y-55777150D01*
X71152793Y-55667882D01*
X71184191Y-55578151D01*
X71197646Y-55539701D01*
X71197646Y-55539699D01*
X71200500Y-55509269D01*
X71200500Y-55100730D01*
X71197646Y-55070300D01*
X71197646Y-55070298D01*
X71152793Y-54942119D01*
X71152792Y-54942117D01*
X71072150Y-54832850D01*
X70986677Y-54769768D01*
X70944428Y-54714123D01*
X70938969Y-54644467D01*
X70972036Y-54582917D01*
X70986670Y-54570236D01*
X71072150Y-54507150D01*
X71152793Y-54397882D01*
X71176289Y-54330734D01*
X71197646Y-54269701D01*
X71197646Y-54269699D01*
X71200500Y-54239269D01*
X71200500Y-53830730D01*
X71197646Y-53800300D01*
X71197646Y-53800298D01*
X71152793Y-53672119D01*
X71152792Y-53672117D01*
X71149680Y-53667901D01*
X71072150Y-53562850D01*
X70986677Y-53499768D01*
X70944428Y-53444123D01*
X70938969Y-53374467D01*
X70972036Y-53312917D01*
X70986670Y-53300236D01*
X71072150Y-53237150D01*
X71152793Y-53127882D01*
X71176395Y-53060432D01*
X71192293Y-53015000D01*
X73506838Y-53015000D01*
X73510613Y-53046442D01*
X73566079Y-53187095D01*
X73657436Y-53307566D01*
X73730701Y-53363125D01*
X73772225Y-53419318D01*
X73776776Y-53489039D01*
X73742911Y-53550153D01*
X73729411Y-53561698D01*
X73727850Y-53562849D01*
X73647207Y-53672117D01*
X73647206Y-53672119D01*
X73602353Y-53800298D01*
X73602353Y-53800300D01*
X73599500Y-53830730D01*
X73599500Y-54239269D01*
X73602353Y-54269699D01*
X73602353Y-54269701D01*
X73647206Y-54397880D01*
X73647207Y-54397882D01*
X73727850Y-54507150D01*
X73813321Y-54570230D01*
X73855571Y-54625877D01*
X73861030Y-54695534D01*
X73827962Y-54757083D01*
X73813321Y-54769769D01*
X73727850Y-54832850D01*
X73647207Y-54942117D01*
X73647206Y-54942119D01*
X73602353Y-55070298D01*
X73602353Y-55070300D01*
X73599500Y-55100730D01*
X73599500Y-55509269D01*
X73602353Y-55539699D01*
X73602353Y-55539701D01*
X73647206Y-55667880D01*
X73647207Y-55667882D01*
X73727850Y-55777150D01*
X73813321Y-55840230D01*
X73855571Y-55895877D01*
X73861030Y-55965534D01*
X73827962Y-56027083D01*
X73813321Y-56039769D01*
X73803557Y-56046976D01*
X73727850Y-56102850D01*
X73647207Y-56212117D01*
X73647206Y-56212119D01*
X73602353Y-56340298D01*
X73602353Y-56340300D01*
X73599500Y-56370730D01*
X73599500Y-56779269D01*
X73602353Y-56809699D01*
X73602353Y-56809701D01*
X73642138Y-56923396D01*
X73647207Y-56937882D01*
X73727850Y-57047150D01*
X73813321Y-57110230D01*
X73855571Y-57165877D01*
X73861030Y-57235534D01*
X73827962Y-57297083D01*
X73813321Y-57309769D01*
X73812081Y-57310685D01*
X73727850Y-57372850D01*
X73647207Y-57482117D01*
X73647206Y-57482119D01*
X73602353Y-57610298D01*
X73602353Y-57610300D01*
X73599500Y-57640730D01*
X73599500Y-58049269D01*
X73602353Y-58079699D01*
X73602353Y-58079701D01*
X73647206Y-58207880D01*
X73647207Y-58207882D01*
X73727850Y-58317150D01*
X73837118Y-58397793D01*
X73879845Y-58412744D01*
X73965299Y-58442646D01*
X73995730Y-58445500D01*
X73995734Y-58445500D01*
X75754270Y-58445500D01*
X75784699Y-58442646D01*
X75784701Y-58442646D01*
X75848790Y-58420219D01*
X75912882Y-58397793D01*
X76022150Y-58317150D01*
X76102793Y-58207882D01*
X76125219Y-58143790D01*
X76147646Y-58079701D01*
X76147646Y-58079699D01*
X76150500Y-58049269D01*
X76150500Y-57847763D01*
X124185787Y-57847763D01*
X124215413Y-58117013D01*
X124215415Y-58117024D01*
X124267735Y-58317149D01*
X124283928Y-58379088D01*
X124389870Y-58628390D01*
X124442738Y-58715017D01*
X124530979Y-58859605D01*
X124530986Y-58859615D01*
X124704253Y-59067819D01*
X124704259Y-59067824D01*
X124809240Y-59161887D01*
X124905998Y-59248582D01*
X125131910Y-59398044D01*
X125377176Y-59513020D01*
X125377183Y-59513022D01*
X125377185Y-59513023D01*
X125636557Y-59591057D01*
X125636564Y-59591058D01*
X125636569Y-59591060D01*
X125904561Y-59630500D01*
X125904566Y-59630500D01*
X126107629Y-59630500D01*
X126107631Y-59630500D01*
X126107636Y-59630499D01*
X126107648Y-59630499D01*
X126145191Y-59627750D01*
X126310156Y-59615677D01*
X126422758Y-59590593D01*
X126574546Y-59556782D01*
X126574548Y-59556781D01*
X126574553Y-59556780D01*
X126827558Y-59460014D01*
X127063777Y-59327441D01*
X127278177Y-59161888D01*
X127466186Y-58966881D01*
X127623799Y-58746579D01*
X127742246Y-58516198D01*
X127747649Y-58505690D01*
X127747651Y-58505684D01*
X127747656Y-58505675D01*
X127835118Y-58249305D01*
X127884319Y-57982933D01*
X127894212Y-57712235D01*
X127864586Y-57442982D01*
X127796072Y-57180912D01*
X127690130Y-56931610D01*
X127549018Y-56700390D01*
X127470604Y-56606165D01*
X127375746Y-56492180D01*
X127375740Y-56492175D01*
X127174002Y-56311418D01*
X126948092Y-56161957D01*
X126822005Y-56102850D01*
X126702824Y-56046980D01*
X126702819Y-56046978D01*
X126702814Y-56046976D01*
X126443442Y-55968942D01*
X126443428Y-55968939D01*
X126327791Y-55951921D01*
X126175439Y-55929500D01*
X125972369Y-55929500D01*
X125972351Y-55929500D01*
X125769844Y-55944323D01*
X125769831Y-55944325D01*
X125505453Y-56003217D01*
X125505446Y-56003220D01*
X125252439Y-56099987D01*
X125016226Y-56232557D01*
X124801822Y-56398112D01*
X124613822Y-56593109D01*
X124613816Y-56593116D01*
X124456202Y-56813419D01*
X124456199Y-56813424D01*
X124332350Y-57054309D01*
X124332343Y-57054327D01*
X124244884Y-57310685D01*
X124244881Y-57310699D01*
X124195681Y-57577068D01*
X124195680Y-57577075D01*
X124185787Y-57847763D01*
X76150500Y-57847763D01*
X76150500Y-57750500D01*
X76170185Y-57683461D01*
X76222989Y-57637706D01*
X76274500Y-57626500D01*
X103484292Y-57626500D01*
X103484293Y-57626500D01*
X103507260Y-57619036D01*
X103526176Y-57614495D01*
X103550026Y-57610719D01*
X103571536Y-57599757D01*
X103589514Y-57592310D01*
X103612481Y-57584849D01*
X103632018Y-57570653D01*
X103648606Y-57560488D01*
X103670120Y-57549528D01*
X103765428Y-57454220D01*
X113394554Y-47825094D01*
X113418528Y-47801120D01*
X113429488Y-47779606D01*
X113439653Y-47763018D01*
X113453849Y-47743481D01*
X113461310Y-47720514D01*
X113468753Y-47702545D01*
X113474086Y-47692079D01*
X113522063Y-47641289D01*
X113589885Y-47624498D01*
X113655690Y-47646809D01*
X113712612Y-47686667D01*
X113910843Y-47779103D01*
X114090000Y-47827106D01*
X114090000Y-47035501D01*
X114197685Y-47084680D01*
X114304237Y-47100000D01*
X114375763Y-47100000D01*
X114482315Y-47084680D01*
X114590000Y-47035501D01*
X114590000Y-47827105D01*
X114769156Y-47779103D01*
X114769157Y-47779103D01*
X114967387Y-47686666D01*
X115146554Y-47561212D01*
X115301212Y-47406554D01*
X115426666Y-47227387D01*
X115519101Y-47029159D01*
X115519106Y-47029148D01*
X115542031Y-46943588D01*
X115578395Y-46883927D01*
X115641242Y-46853397D01*
X115710617Y-46861691D01*
X115764496Y-46906176D01*
X115781072Y-46941745D01*
X115800509Y-47010059D01*
X115802596Y-47017392D01*
X115802597Y-47017394D01*
X115886860Y-47186619D01*
X115899121Y-47255404D01*
X115872248Y-47319899D01*
X115814771Y-47359627D01*
X115795261Y-47364363D01*
X115777474Y-47367180D01*
X115755959Y-47378142D01*
X115737989Y-47385585D01*
X115715021Y-47393048D01*
X115715017Y-47393049D01*
X115695480Y-47407244D01*
X115678898Y-47417406D01*
X115657383Y-47428369D01*
X115657380Y-47428371D01*
X115633406Y-47452346D01*
X114518885Y-48566865D01*
X114457562Y-48600350D01*
X114416424Y-48602300D01*
X114401263Y-48600479D01*
X114393102Y-48599500D01*
X113781898Y-48599500D01*
X113742853Y-48604188D01*
X113693438Y-48610122D01*
X113552656Y-48665639D01*
X113432077Y-48757077D01*
X113340639Y-48877656D01*
X113285122Y-49018438D01*
X113279188Y-49067853D01*
X113274500Y-49106898D01*
X113274500Y-50093102D01*
X113277309Y-50116492D01*
X113285122Y-50181561D01*
X113285122Y-50181563D01*
X113285123Y-50181564D01*
X113286471Y-50184982D01*
X113340639Y-50322343D01*
X113432077Y-50442922D01*
X113552656Y-50534360D01*
X113552657Y-50534360D01*
X113552658Y-50534361D01*
X113693436Y-50589877D01*
X113781898Y-50600500D01*
X113781903Y-50600500D01*
X114393097Y-50600500D01*
X114393102Y-50600500D01*
X114481564Y-50589877D01*
X114622342Y-50534361D01*
X114742922Y-50442922D01*
X114834361Y-50322342D01*
X114884646Y-50194826D01*
X114927551Y-50139685D01*
X114993459Y-50116492D01*
X115061443Y-50132612D01*
X115109920Y-50182929D01*
X115115348Y-50194814D01*
X115150652Y-50284339D01*
X115165639Y-50322343D01*
X115257077Y-50442922D01*
X115377656Y-50534360D01*
X115377657Y-50534360D01*
X115377658Y-50534361D01*
X115518436Y-50589877D01*
X115606898Y-50600500D01*
X115606903Y-50600500D01*
X116218097Y-50600500D01*
X116218102Y-50600500D01*
X116306564Y-50589877D01*
X116447342Y-50534361D01*
X116567922Y-50442922D01*
X116659361Y-50322342D01*
X116684646Y-50258223D01*
X116727551Y-50203081D01*
X116793459Y-50179888D01*
X116861443Y-50196008D01*
X116909920Y-50246325D01*
X116915350Y-50258214D01*
X116930886Y-50297612D01*
X116940639Y-50322343D01*
X117032077Y-50442922D01*
X117152656Y-50534360D01*
X117152657Y-50534360D01*
X117152658Y-50534361D01*
X117293436Y-50589877D01*
X117381898Y-50600500D01*
X117381903Y-50600500D01*
X117993097Y-50600500D01*
X117993102Y-50600500D01*
X118081564Y-50589877D01*
X118222342Y-50534361D01*
X118342922Y-50442922D01*
X118434361Y-50322342D01*
X118484646Y-50194826D01*
X118527551Y-50139685D01*
X118593459Y-50116492D01*
X118661443Y-50132612D01*
X118709920Y-50182929D01*
X118715348Y-50194814D01*
X118750652Y-50284339D01*
X118765639Y-50322343D01*
X118857077Y-50442922D01*
X118977656Y-50534360D01*
X118977657Y-50534360D01*
X118977658Y-50534361D01*
X119118436Y-50589877D01*
X119206898Y-50600500D01*
X119206903Y-50600500D01*
X119818097Y-50600500D01*
X119818102Y-50600500D01*
X119906564Y-50589877D01*
X120047342Y-50534361D01*
X120167922Y-50442922D01*
X120259361Y-50322342D01*
X120314877Y-50181564D01*
X120325500Y-50093102D01*
X120325500Y-49106898D01*
X120314877Y-49018436D01*
X120259361Y-48877658D01*
X120259360Y-48877657D01*
X120259360Y-48877656D01*
X120167922Y-48757077D01*
X120047341Y-48665638D01*
X120047339Y-48665637D01*
X119924010Y-48617002D01*
X119868866Y-48574096D01*
X119845673Y-48508189D01*
X119845500Y-48501648D01*
X119845500Y-47753919D01*
X119865185Y-47686880D01*
X119917989Y-47641125D01*
X119924687Y-47638300D01*
X119935019Y-47634298D01*
X120116302Y-47522052D01*
X120273872Y-47378407D01*
X120402366Y-47208255D01*
X120432697Y-47147342D01*
X120497403Y-47017394D01*
X120497403Y-47017393D01*
X120497405Y-47017389D01*
X120555756Y-46812310D01*
X120575429Y-46600000D01*
X120574406Y-46588965D01*
X120571422Y-46556754D01*
X120555756Y-46387690D01*
X120497405Y-46182611D01*
X120497403Y-46182606D01*
X120497403Y-46182605D01*
X120402367Y-45991746D01*
X120273872Y-45821593D01*
X120256412Y-45805676D01*
X120116302Y-45677948D01*
X119935019Y-45565702D01*
X119935017Y-45565701D01*
X119825922Y-45523438D01*
X119736198Y-45488679D01*
X119526610Y-45449500D01*
X119313390Y-45449500D01*
X119103802Y-45488679D01*
X119103799Y-45488679D01*
X119103799Y-45488680D01*
X118904982Y-45565701D01*
X118904980Y-45565702D01*
X118723699Y-45677947D01*
X118566127Y-45821593D01*
X118437632Y-45991746D01*
X118342596Y-46182605D01*
X118342596Y-46182607D01*
X118284244Y-46387689D01*
X118273471Y-46503951D01*
X118247685Y-46568888D01*
X118203130Y-46600804D01*
X118239503Y-46621668D01*
X118271693Y-46683681D01*
X118273470Y-46696047D01*
X118284244Y-46812310D01*
X118340509Y-47010059D01*
X118342596Y-47017392D01*
X118342596Y-47017394D01*
X118437632Y-47208253D01*
X118557650Y-47367181D01*
X118566128Y-47378407D01*
X118723698Y-47522052D01*
X118904981Y-47634298D01*
X118915290Y-47638291D01*
X118970692Y-47680860D01*
X118994285Y-47746626D01*
X118994500Y-47753919D01*
X118994500Y-48051854D01*
X118974815Y-48118893D01*
X118922011Y-48164648D01*
X118852853Y-48174592D01*
X118789297Y-48145567D01*
X118755939Y-48099307D01*
X118748836Y-48082160D01*
X118748836Y-48082159D01*
X118652582Y-47956718D01*
X118527141Y-47860464D01*
X118485225Y-47843102D01*
X118381062Y-47799956D01*
X118381060Y-47799955D01*
X118224301Y-47779318D01*
X118224299Y-47779318D01*
X118067539Y-47799955D01*
X118067537Y-47799956D01*
X117921460Y-47860463D01*
X117796018Y-47956718D01*
X117699763Y-48082160D01*
X117639256Y-48228237D01*
X117639255Y-48228239D01*
X117619558Y-48377861D01*
X117618618Y-48385000D01*
X117628209Y-48457853D01*
X117628402Y-48459314D01*
X117617637Y-48528350D01*
X117571257Y-48580605D01*
X117505463Y-48599500D01*
X117491302Y-48599500D01*
X117424263Y-48579815D01*
X117378508Y-48527011D01*
X117376741Y-48522952D01*
X117324637Y-48397161D01*
X117324636Y-48397160D01*
X117324636Y-48397159D01*
X117228382Y-48271718D01*
X117228380Y-48271717D01*
X117228380Y-48271716D01*
X117216465Y-48262574D01*
X117203937Y-48252960D01*
X117162735Y-48196535D01*
X117158580Y-48126789D01*
X117191744Y-48066904D01*
X117228524Y-48030124D01*
X117228528Y-48030120D01*
X117289719Y-47910026D01*
X117295262Y-47875028D01*
X117310804Y-47776900D01*
X117310051Y-47772147D01*
X117319004Y-47702855D01*
X117363999Y-47649402D01*
X117387734Y-47637120D01*
X117395019Y-47634298D01*
X117576302Y-47522052D01*
X117733872Y-47378407D01*
X117862366Y-47208255D01*
X117892697Y-47147342D01*
X117957403Y-47017394D01*
X117957403Y-47017393D01*
X117957405Y-47017389D01*
X118015756Y-46812310D01*
X118026529Y-46696047D01*
X118052315Y-46631111D01*
X118096869Y-46599194D01*
X118060497Y-46578331D01*
X118028307Y-46516318D01*
X118026529Y-46503951D01*
X118022624Y-46461810D01*
X118015756Y-46387690D01*
X117957405Y-46182611D01*
X117957403Y-46182606D01*
X117957403Y-46182605D01*
X117862367Y-45991746D01*
X117733872Y-45821593D01*
X117716412Y-45805676D01*
X117576302Y-45677948D01*
X117395019Y-45565702D01*
X117395017Y-45565701D01*
X117285922Y-45523438D01*
X117196198Y-45488679D01*
X116986610Y-45449500D01*
X116773390Y-45449500D01*
X116563802Y-45488679D01*
X116563799Y-45488679D01*
X116563799Y-45488680D01*
X116364982Y-45565701D01*
X116364980Y-45565702D01*
X116183699Y-45677947D01*
X116026127Y-45821593D01*
X115897632Y-45991746D01*
X115802597Y-46182605D01*
X115781072Y-46258255D01*
X115743792Y-46317348D01*
X115680482Y-46346905D01*
X115611242Y-46337541D01*
X115558056Y-46292231D01*
X115542031Y-46256412D01*
X115519105Y-46170849D01*
X115519101Y-46170840D01*
X115426666Y-45972612D01*
X115426664Y-45972608D01*
X115301216Y-45793450D01*
X115301211Y-45793444D01*
X115146554Y-45638787D01*
X114967387Y-45513333D01*
X114769159Y-45420898D01*
X114769150Y-45420894D01*
X114590000Y-45372891D01*
X114590000Y-46164498D01*
X114482315Y-46115320D01*
X114375763Y-46100000D01*
X114304237Y-46100000D01*
X114197685Y-46115320D01*
X114090000Y-46164498D01*
X114090000Y-45372892D01*
X114089999Y-45372891D01*
X113910849Y-45420894D01*
X113910840Y-45420898D01*
X113712612Y-45513333D01*
X113712608Y-45513336D01*
X113690623Y-45528730D01*
X113624416Y-45551057D01*
X113556649Y-45534046D01*
X113508837Y-45483098D01*
X113495500Y-45427155D01*
X113495500Y-44214510D01*
X113515185Y-44147471D01*
X113531819Y-44126829D01*
X113593221Y-44065427D01*
X113664554Y-43994094D01*
X113688528Y-43970120D01*
X113699490Y-43948605D01*
X113709652Y-43932021D01*
X113723850Y-43912481D01*
X113731311Y-43889514D01*
X113738760Y-43871533D01*
X113749718Y-43850029D01*
X113749718Y-43850028D01*
X113749718Y-43850027D01*
X113749719Y-43850026D01*
X113753496Y-43826173D01*
X113758035Y-43807266D01*
X113765500Y-43784293D01*
X113765500Y-43693919D01*
X113785185Y-43626880D01*
X113837989Y-43581125D01*
X113844687Y-43578300D01*
X113855019Y-43574298D01*
X114036302Y-43462052D01*
X114193872Y-43318407D01*
X114322366Y-43148255D01*
X114326934Y-43139082D01*
X114417403Y-42957394D01*
X114417403Y-42957393D01*
X114417405Y-42957389D01*
X114475756Y-42752310D01*
X114486529Y-42636047D01*
X114512315Y-42571111D01*
X114554622Y-42540804D01*
X114663130Y-42540804D01*
X114699503Y-42561668D01*
X114731693Y-42623681D01*
X114733471Y-42636048D01*
X114744244Y-42752310D01*
X114802596Y-42957392D01*
X114802596Y-42957394D01*
X114897632Y-43148253D01*
X115000261Y-43284154D01*
X115026128Y-43318407D01*
X115183698Y-43462052D01*
X115364981Y-43574298D01*
X115563802Y-43651321D01*
X115773390Y-43690500D01*
X115773392Y-43690500D01*
X115986608Y-43690500D01*
X115986610Y-43690500D01*
X116196198Y-43651321D01*
X116395019Y-43574298D01*
X116576302Y-43462052D01*
X116733872Y-43318407D01*
X116862366Y-43148255D01*
X116866934Y-43139082D01*
X116957403Y-42957394D01*
X116957403Y-42957393D01*
X116957405Y-42957389D01*
X117015756Y-42752310D01*
X117026529Y-42636047D01*
X117052315Y-42571111D01*
X117094622Y-42540804D01*
X117203130Y-42540804D01*
X117239503Y-42561668D01*
X117271693Y-42623681D01*
X117273471Y-42636048D01*
X117284244Y-42752310D01*
X117342596Y-42957392D01*
X117342596Y-42957394D01*
X117437632Y-43148253D01*
X117540261Y-43284154D01*
X117566128Y-43318407D01*
X117723698Y-43462052D01*
X117904981Y-43574298D01*
X118103802Y-43651321D01*
X118313390Y-43690500D01*
X118313392Y-43690500D01*
X118526608Y-43690500D01*
X118526610Y-43690500D01*
X118736198Y-43651321D01*
X118935019Y-43574298D01*
X119116302Y-43462052D01*
X119273872Y-43318407D01*
X119402366Y-43148255D01*
X119406934Y-43139082D01*
X119497403Y-42957394D01*
X119497403Y-42957393D01*
X119497405Y-42957389D01*
X119555756Y-42752310D01*
X119566529Y-42636047D01*
X119592315Y-42571111D01*
X119634622Y-42540804D01*
X119743130Y-42540804D01*
X119779503Y-42561668D01*
X119811693Y-42623681D01*
X119813471Y-42636048D01*
X119824244Y-42752310D01*
X119882596Y-42957392D01*
X119882596Y-42957394D01*
X119977632Y-43148253D01*
X120080261Y-43284154D01*
X120106128Y-43318407D01*
X120263698Y-43462052D01*
X120444981Y-43574298D01*
X120643802Y-43651321D01*
X120853390Y-43690500D01*
X120853392Y-43690500D01*
X121066608Y-43690500D01*
X121066610Y-43690500D01*
X121276198Y-43651321D01*
X121475019Y-43574298D01*
X121656302Y-43462052D01*
X121813872Y-43318407D01*
X121942366Y-43148255D01*
X121946934Y-43139082D01*
X122037403Y-42957394D01*
X122037403Y-42957393D01*
X122037405Y-42957389D01*
X122095756Y-42752310D01*
X122102029Y-42684605D01*
X122127814Y-42619669D01*
X122184614Y-42578981D01*
X122254395Y-42575461D01*
X122315002Y-42610225D01*
X122347193Y-42672238D01*
X122349500Y-42696047D01*
X122349500Y-43434856D01*
X122349502Y-43434882D01*
X122352413Y-43459987D01*
X122352415Y-43459991D01*
X122397793Y-43562764D01*
X122397794Y-43562765D01*
X122477235Y-43642206D01*
X122580009Y-43687585D01*
X122605135Y-43690500D01*
X124394864Y-43690499D01*
X124394879Y-43690497D01*
X124394882Y-43690497D01*
X124419987Y-43687586D01*
X124419988Y-43687585D01*
X124419991Y-43687585D01*
X124522765Y-43642206D01*
X124602206Y-43562765D01*
X124647585Y-43459991D01*
X124650500Y-43434865D01*
X124650499Y-41645136D01*
X124650422Y-41644471D01*
X124647586Y-41620012D01*
X124647585Y-41620010D01*
X124647585Y-41620009D01*
X124602206Y-41517235D01*
X124522765Y-41437794D01*
X124502124Y-41428680D01*
X124419992Y-41392415D01*
X124394865Y-41389500D01*
X122605143Y-41389500D01*
X122605117Y-41389502D01*
X122580012Y-41392413D01*
X122580008Y-41392415D01*
X122477235Y-41437793D01*
X122397794Y-41517234D01*
X122352415Y-41620006D01*
X122352415Y-41620008D01*
X122349500Y-41645131D01*
X122349500Y-42383951D01*
X122329815Y-42450990D01*
X122277011Y-42496745D01*
X122207853Y-42506689D01*
X122144297Y-42477664D01*
X122106523Y-42418886D01*
X122102029Y-42395391D01*
X122095756Y-42327689D01*
X122060274Y-42202986D01*
X122037405Y-42122611D01*
X122037403Y-42122606D01*
X122037403Y-42122605D01*
X121942367Y-41931746D01*
X121813872Y-41761593D01*
X121741737Y-41695833D01*
X121656302Y-41617948D01*
X121475019Y-41505702D01*
X121475017Y-41505701D01*
X121375608Y-41467190D01*
X121276198Y-41428679D01*
X121066610Y-41389500D01*
X120853390Y-41389500D01*
X120643802Y-41428679D01*
X120643799Y-41428679D01*
X120643799Y-41428680D01*
X120444982Y-41505701D01*
X120444980Y-41505702D01*
X120263699Y-41617947D01*
X120106127Y-41761593D01*
X119977632Y-41931746D01*
X119882596Y-42122605D01*
X119882596Y-42122607D01*
X119824244Y-42327689D01*
X119813471Y-42443951D01*
X119787685Y-42508888D01*
X119743130Y-42540804D01*
X119634622Y-42540804D01*
X119636869Y-42539194D01*
X119600497Y-42518331D01*
X119568307Y-42456318D01*
X119566529Y-42443951D01*
X119560969Y-42383951D01*
X119555756Y-42327690D01*
X119497405Y-42122611D01*
X119497403Y-42122606D01*
X119497403Y-42122605D01*
X119402367Y-41931746D01*
X119273872Y-41761593D01*
X119201737Y-41695833D01*
X119116302Y-41617948D01*
X118935019Y-41505702D01*
X118935017Y-41505701D01*
X118835608Y-41467190D01*
X118736198Y-41428679D01*
X118526610Y-41389500D01*
X118313390Y-41389500D01*
X118103802Y-41428679D01*
X118103799Y-41428679D01*
X118103799Y-41428680D01*
X117904982Y-41505701D01*
X117904980Y-41505702D01*
X117723699Y-41617947D01*
X117566127Y-41761593D01*
X117437632Y-41931746D01*
X117342596Y-42122605D01*
X117342596Y-42122607D01*
X117284244Y-42327689D01*
X117273471Y-42443951D01*
X117247685Y-42508888D01*
X117203130Y-42540804D01*
X117094622Y-42540804D01*
X117096869Y-42539194D01*
X117060497Y-42518331D01*
X117028307Y-42456318D01*
X117026529Y-42443951D01*
X117020969Y-42383951D01*
X117015756Y-42327690D01*
X116957405Y-42122611D01*
X116957403Y-42122606D01*
X116957403Y-42122605D01*
X116862367Y-41931746D01*
X116733872Y-41761593D01*
X116661737Y-41695833D01*
X116576302Y-41617948D01*
X116395019Y-41505702D01*
X116395017Y-41505701D01*
X116295608Y-41467190D01*
X116196198Y-41428679D01*
X115986610Y-41389500D01*
X115773390Y-41389500D01*
X115563802Y-41428679D01*
X115563799Y-41428679D01*
X115563799Y-41428680D01*
X115364982Y-41505701D01*
X115364980Y-41505702D01*
X115183699Y-41617947D01*
X115026127Y-41761593D01*
X114897632Y-41931746D01*
X114802596Y-42122605D01*
X114802596Y-42122607D01*
X114744244Y-42327689D01*
X114733471Y-42443951D01*
X114707685Y-42508888D01*
X114663130Y-42540804D01*
X114554622Y-42540804D01*
X114556869Y-42539194D01*
X114520497Y-42518331D01*
X114488307Y-42456318D01*
X114486529Y-42443951D01*
X114480969Y-42383951D01*
X114475756Y-42327690D01*
X114417405Y-42122611D01*
X114417403Y-42122606D01*
X114417403Y-42122605D01*
X114322367Y-41931746D01*
X114193872Y-41761593D01*
X114121737Y-41695833D01*
X114036302Y-41617948D01*
X113855019Y-41505702D01*
X113855017Y-41505701D01*
X113755608Y-41467190D01*
X113656198Y-41428679D01*
X113446610Y-41389500D01*
X113233390Y-41389500D01*
X113023802Y-41428679D01*
X113023799Y-41428679D01*
X113023799Y-41428680D01*
X112824982Y-41505701D01*
X112824980Y-41505702D01*
X112643699Y-41617947D01*
X112486127Y-41761593D01*
X112357632Y-41931746D01*
X112262596Y-42122605D01*
X112262596Y-42122607D01*
X112204244Y-42327689D01*
X112193471Y-42443951D01*
X112167685Y-42508888D01*
X112123130Y-42540804D01*
X112159503Y-42561668D01*
X112191693Y-42623681D01*
X112193471Y-42636048D01*
X112204244Y-42752310D01*
X112262596Y-42957392D01*
X112262596Y-42957394D01*
X112357632Y-43148253D01*
X112460261Y-43284154D01*
X112486128Y-43318407D01*
X112643698Y-43462052D01*
X112643700Y-43462053D01*
X112643701Y-43462054D01*
X112726387Y-43513251D01*
X112773023Y-43565279D01*
X112784127Y-43634260D01*
X112756174Y-43698295D01*
X112748793Y-43706358D01*
X112721472Y-43733679D01*
X112710510Y-43755193D01*
X112700346Y-43771778D01*
X112686152Y-43791314D01*
X112686151Y-43791317D01*
X112678688Y-43814285D01*
X112671243Y-43832258D01*
X112660280Y-43853773D01*
X112656503Y-43877622D01*
X112651962Y-43896539D01*
X112644500Y-43919504D01*
X112644500Y-45325500D01*
X112624815Y-45392539D01*
X112572011Y-45438294D01*
X112520500Y-45449500D01*
X110905143Y-45449500D01*
X110905117Y-45449502D01*
X110880012Y-45452413D01*
X110880008Y-45452415D01*
X110777235Y-45497793D01*
X110697794Y-45577234D01*
X110652415Y-45680006D01*
X110652415Y-45680008D01*
X110649500Y-45705131D01*
X110649500Y-46025500D01*
X110629815Y-46092539D01*
X110577011Y-46138294D01*
X110525500Y-46149500D01*
X110243949Y-46149500D01*
X110176910Y-46129815D01*
X110131155Y-46077011D01*
X110121211Y-46007853D01*
X110121967Y-46003220D01*
X110122100Y-46002491D01*
X110124999Y-45965649D01*
X110125000Y-45965634D01*
X110125000Y-45900000D01*
X106874000Y-45900000D01*
X106806961Y-45880315D01*
X106761206Y-45827511D01*
X106750000Y-45776000D01*
X106750000Y-44750000D01*
X107250000Y-44750000D01*
X107250000Y-45400000D01*
X108750000Y-45400000D01*
X108750000Y-44750000D01*
X109250000Y-44750000D01*
X109250000Y-45400000D01*
X110125000Y-45400000D01*
X110125000Y-45334365D01*
X110124999Y-45334350D01*
X110122100Y-45297510D01*
X110122099Y-45297504D01*
X110076283Y-45139806D01*
X110076282Y-45139803D01*
X109992685Y-44998447D01*
X109992678Y-44998438D01*
X109876561Y-44882321D01*
X109876552Y-44882314D01*
X109735196Y-44798717D01*
X109735193Y-44798716D01*
X109577495Y-44752900D01*
X109577489Y-44752899D01*
X109540649Y-44750000D01*
X109250000Y-44750000D01*
X108750000Y-44750000D01*
X108459350Y-44750000D01*
X108422510Y-44752899D01*
X108422504Y-44752900D01*
X108264806Y-44798716D01*
X108264803Y-44798717D01*
X108123447Y-44882314D01*
X108123438Y-44882321D01*
X108087681Y-44918079D01*
X108026358Y-44951564D01*
X107956666Y-44946580D01*
X107912319Y-44918079D01*
X107876561Y-44882321D01*
X107876552Y-44882314D01*
X107735196Y-44798717D01*
X107735193Y-44798716D01*
X107577495Y-44752900D01*
X107577489Y-44752899D01*
X107540649Y-44750000D01*
X107250000Y-44750000D01*
X106750000Y-44750000D01*
X106459350Y-44750000D01*
X106422510Y-44752899D01*
X106304094Y-44787302D01*
X106234225Y-44787102D01*
X106175555Y-44749159D01*
X106146712Y-44685521D01*
X106145500Y-44668225D01*
X106145500Y-43693919D01*
X106165185Y-43626880D01*
X106217989Y-43581125D01*
X106224687Y-43578300D01*
X106235019Y-43574298D01*
X106416302Y-43462052D01*
X106573872Y-43318407D01*
X106702366Y-43148255D01*
X106706934Y-43139082D01*
X106797403Y-42957394D01*
X106797403Y-42957393D01*
X106797405Y-42957389D01*
X106855756Y-42752310D01*
X106866529Y-42636047D01*
X106892315Y-42571111D01*
X106934622Y-42540804D01*
X107043130Y-42540804D01*
X107079503Y-42561668D01*
X107111693Y-42623681D01*
X107113471Y-42636048D01*
X107124244Y-42752310D01*
X107182596Y-42957392D01*
X107182596Y-42957394D01*
X107277632Y-43148253D01*
X107380261Y-43284154D01*
X107406128Y-43318407D01*
X107563698Y-43462052D01*
X107744981Y-43574298D01*
X107943802Y-43651321D01*
X108153390Y-43690500D01*
X108153392Y-43690500D01*
X108366608Y-43690500D01*
X108366610Y-43690500D01*
X108576198Y-43651321D01*
X108775019Y-43574298D01*
X108956302Y-43462052D01*
X109113872Y-43318407D01*
X109242366Y-43148255D01*
X109246934Y-43139082D01*
X109337403Y-42957394D01*
X109337403Y-42957393D01*
X109337405Y-42957389D01*
X109395756Y-42752310D01*
X109406529Y-42636047D01*
X109432315Y-42571111D01*
X109474622Y-42540804D01*
X109583130Y-42540804D01*
X109619503Y-42561668D01*
X109651693Y-42623681D01*
X109653471Y-42636048D01*
X109664244Y-42752310D01*
X109722596Y-42957392D01*
X109722596Y-42957394D01*
X109817632Y-43148253D01*
X109920261Y-43284154D01*
X109946128Y-43318407D01*
X110103698Y-43462052D01*
X110284981Y-43574298D01*
X110483802Y-43651321D01*
X110693390Y-43690500D01*
X110693392Y-43690500D01*
X110906608Y-43690500D01*
X110906610Y-43690500D01*
X111116198Y-43651321D01*
X111315019Y-43574298D01*
X111496302Y-43462052D01*
X111653872Y-43318407D01*
X111782366Y-43148255D01*
X111786934Y-43139082D01*
X111877403Y-42957394D01*
X111877403Y-42957393D01*
X111877405Y-42957389D01*
X111935756Y-42752310D01*
X111946529Y-42636047D01*
X111972315Y-42571111D01*
X112016869Y-42539194D01*
X111980497Y-42518331D01*
X111948307Y-42456318D01*
X111946529Y-42443951D01*
X111940969Y-42383951D01*
X111935756Y-42327690D01*
X111877405Y-42122611D01*
X111877403Y-42122606D01*
X111877403Y-42122605D01*
X111782367Y-41931746D01*
X111653872Y-41761593D01*
X111581737Y-41695833D01*
X111496302Y-41617948D01*
X111315019Y-41505702D01*
X111315017Y-41505701D01*
X111215608Y-41467190D01*
X111116198Y-41428679D01*
X110906610Y-41389500D01*
X110693390Y-41389500D01*
X110483802Y-41428679D01*
X110483799Y-41428679D01*
X110483799Y-41428680D01*
X110284982Y-41505701D01*
X110284980Y-41505702D01*
X110103699Y-41617947D01*
X109946127Y-41761593D01*
X109817632Y-41931746D01*
X109722596Y-42122605D01*
X109722596Y-42122607D01*
X109664244Y-42327689D01*
X109653471Y-42443951D01*
X109627685Y-42508888D01*
X109583130Y-42540804D01*
X109474622Y-42540804D01*
X109476869Y-42539194D01*
X109440497Y-42518331D01*
X109408307Y-42456318D01*
X109406529Y-42443951D01*
X109400969Y-42383951D01*
X109395756Y-42327690D01*
X109337405Y-42122611D01*
X109337403Y-42122606D01*
X109337403Y-42122605D01*
X109242367Y-41931746D01*
X109113872Y-41761593D01*
X109041737Y-41695833D01*
X108956302Y-41617948D01*
X108775019Y-41505702D01*
X108775017Y-41505701D01*
X108675608Y-41467190D01*
X108576198Y-41428679D01*
X108366610Y-41389500D01*
X108153390Y-41389500D01*
X107943802Y-41428679D01*
X107943799Y-41428679D01*
X107943799Y-41428680D01*
X107744982Y-41505701D01*
X107744980Y-41505702D01*
X107563699Y-41617947D01*
X107406127Y-41761593D01*
X107277632Y-41931746D01*
X107182596Y-42122605D01*
X107182596Y-42122607D01*
X107124244Y-42327689D01*
X107113471Y-42443951D01*
X107087685Y-42508888D01*
X107043130Y-42540804D01*
X106934622Y-42540804D01*
X106936869Y-42539194D01*
X106900497Y-42518331D01*
X106868307Y-42456318D01*
X106866529Y-42443951D01*
X106860969Y-42383951D01*
X106855756Y-42327690D01*
X106797405Y-42122611D01*
X106797403Y-42122606D01*
X106797403Y-42122605D01*
X106702367Y-41931746D01*
X106573872Y-41761593D01*
X106501737Y-41695833D01*
X106416302Y-41617948D01*
X106235019Y-41505702D01*
X106235017Y-41505701D01*
X106135608Y-41467190D01*
X106036198Y-41428679D01*
X105826610Y-41389500D01*
X105613390Y-41389500D01*
X105403802Y-41428679D01*
X105403799Y-41428679D01*
X105403799Y-41428680D01*
X105204982Y-41505701D01*
X105204980Y-41505702D01*
X105023699Y-41617947D01*
X104866127Y-41761593D01*
X104737632Y-41931746D01*
X104642596Y-42122605D01*
X104642596Y-42122607D01*
X104584244Y-42327689D01*
X104564571Y-42539999D01*
X104564571Y-42540000D01*
X104584244Y-42752310D01*
X104642596Y-42957392D01*
X104642596Y-42957394D01*
X104737632Y-43148253D01*
X104840261Y-43284154D01*
X104866128Y-43318407D01*
X105023698Y-43462052D01*
X105204981Y-43574298D01*
X105215290Y-43578291D01*
X105270692Y-43620860D01*
X105294285Y-43686626D01*
X105294500Y-43693919D01*
X105294500Y-45796754D01*
X105274815Y-45863793D01*
X105222011Y-45909548D01*
X105152853Y-45919492D01*
X105089297Y-45890467D01*
X105071546Y-45871481D01*
X105033872Y-45821593D01*
X105016412Y-45805676D01*
X104876302Y-45677948D01*
X104695019Y-45565702D01*
X104695017Y-45565701D01*
X104585922Y-45523438D01*
X104496198Y-45488679D01*
X104286610Y-45449500D01*
X104073390Y-45449500D01*
X103863802Y-45488679D01*
X103863799Y-45488679D01*
X103863799Y-45488680D01*
X103664982Y-45565701D01*
X103664980Y-45565702D01*
X103483699Y-45677947D01*
X103326127Y-45821593D01*
X103197632Y-45991746D01*
X103102597Y-46182605D01*
X103081072Y-46258255D01*
X103043792Y-46317348D01*
X102980482Y-46346905D01*
X102911242Y-46337541D01*
X102858056Y-46292231D01*
X102842031Y-46256412D01*
X102819105Y-46170849D01*
X102819101Y-46170840D01*
X102726666Y-45972612D01*
X102726664Y-45972608D01*
X102601216Y-45793450D01*
X102601211Y-45793444D01*
X102446554Y-45638787D01*
X102267387Y-45513333D01*
X102069159Y-45420898D01*
X102069150Y-45420894D01*
X101890000Y-45372891D01*
X101890000Y-46164498D01*
X101782315Y-46115320D01*
X101675763Y-46100000D01*
X101604237Y-46100000D01*
X101497685Y-46115320D01*
X101390000Y-46164498D01*
X101390000Y-45372892D01*
X101389999Y-45372891D01*
X101210849Y-45420894D01*
X101210840Y-45420898D01*
X101012612Y-45513333D01*
X101012608Y-45513336D01*
X100990623Y-45528730D01*
X100924416Y-45551057D01*
X100856649Y-45534046D01*
X100808837Y-45483098D01*
X100795500Y-45427155D01*
X100795500Y-45234510D01*
X100815185Y-45167471D01*
X100831819Y-45146829D01*
X101408567Y-44570081D01*
X101984553Y-43994095D01*
X101984554Y-43994094D01*
X102008528Y-43970120D01*
X102019493Y-43948598D01*
X102029654Y-43932018D01*
X102043849Y-43912481D01*
X102051309Y-43889516D01*
X102058759Y-43871534D01*
X102059395Y-43870287D01*
X102069719Y-43850026D01*
X102073495Y-43826176D01*
X102078037Y-43807257D01*
X102085500Y-43784293D01*
X102085500Y-43784291D01*
X102088138Y-43776175D01*
X102127578Y-43718501D01*
X102191939Y-43691307D01*
X102206067Y-43690499D01*
X102554856Y-43690499D01*
X102554864Y-43690499D01*
X102554879Y-43690497D01*
X102554882Y-43690497D01*
X102579987Y-43687586D01*
X102579988Y-43687585D01*
X102579991Y-43687585D01*
X102682765Y-43642206D01*
X102762206Y-43562765D01*
X102807585Y-43459991D01*
X102810500Y-43434865D01*
X102810499Y-41645136D01*
X102810422Y-41644471D01*
X102807586Y-41620012D01*
X102807585Y-41620010D01*
X102807585Y-41620009D01*
X102762206Y-41517235D01*
X102682765Y-41437794D01*
X102662124Y-41428680D01*
X102579992Y-41392415D01*
X102554865Y-41389500D01*
X100765143Y-41389500D01*
X100765117Y-41389502D01*
X100740012Y-41392413D01*
X100740008Y-41392415D01*
X100637235Y-41437793D01*
X100557794Y-41517234D01*
X100512415Y-41620006D01*
X100512415Y-41620008D01*
X100509500Y-41645131D01*
X100509500Y-42383951D01*
X100489815Y-42450990D01*
X100437011Y-42496745D01*
X100367853Y-42506689D01*
X100304297Y-42477664D01*
X100266523Y-42418886D01*
X100262029Y-42395391D01*
X100255756Y-42327689D01*
X100220274Y-42202986D01*
X100197405Y-42122611D01*
X100197403Y-42122606D01*
X100197403Y-42122605D01*
X100102367Y-41931746D01*
X99973872Y-41761593D01*
X99901737Y-41695833D01*
X99816302Y-41617948D01*
X99635019Y-41505702D01*
X99635017Y-41505701D01*
X99535608Y-41467190D01*
X99436198Y-41428679D01*
X99226610Y-41389500D01*
X99013390Y-41389500D01*
X98803802Y-41428679D01*
X98803799Y-41428679D01*
X98803799Y-41428680D01*
X98604982Y-41505701D01*
X98604980Y-41505702D01*
X98423699Y-41617947D01*
X98266127Y-41761593D01*
X98137632Y-41931746D01*
X98042596Y-42122605D01*
X98042596Y-42122607D01*
X97984244Y-42327689D01*
X97973471Y-42443951D01*
X97947685Y-42508888D01*
X97903130Y-42540804D01*
X97939503Y-42561668D01*
X97971693Y-42623681D01*
X97973471Y-42636048D01*
X97984244Y-42752310D01*
X98042596Y-42957392D01*
X98042596Y-42957394D01*
X98137632Y-43148253D01*
X98240261Y-43284154D01*
X98266128Y-43318407D01*
X98423698Y-43462052D01*
X98423700Y-43462053D01*
X98423701Y-43462054D01*
X98506387Y-43513251D01*
X98553023Y-43565279D01*
X98564127Y-43634260D01*
X98536174Y-43698295D01*
X98528791Y-43706359D01*
X97665071Y-44570081D01*
X97576780Y-44658372D01*
X97551782Y-44683370D01*
X97481471Y-44753680D01*
X97470510Y-44775193D01*
X97460346Y-44791778D01*
X97446152Y-44811314D01*
X97446151Y-44811317D01*
X97438688Y-44834285D01*
X97431243Y-44852258D01*
X97420280Y-44873773D01*
X97416503Y-44897622D01*
X97411962Y-44916539D01*
X97404500Y-44939504D01*
X97404500Y-45547085D01*
X97384815Y-45614124D01*
X97332011Y-45659879D01*
X97262853Y-45669823D01*
X97215223Y-45652512D01*
X97075024Y-45565705D01*
X97075017Y-45565701D01*
X96965922Y-45523438D01*
X96876198Y-45488679D01*
X96666610Y-45449500D01*
X96453390Y-45449500D01*
X96243802Y-45488679D01*
X96243799Y-45488679D01*
X96243799Y-45488680D01*
X96044982Y-45565701D01*
X96044980Y-45565702D01*
X95863699Y-45677947D01*
X95706127Y-45821593D01*
X95577632Y-45991746D01*
X95482596Y-46182605D01*
X95482596Y-46182607D01*
X95424244Y-46387689D01*
X95413471Y-46503951D01*
X95387685Y-46568888D01*
X95343130Y-46600804D01*
X95379503Y-46621668D01*
X95411693Y-46683681D01*
X95413470Y-46696047D01*
X95424244Y-46812310D01*
X95480509Y-47010059D01*
X95482596Y-47017392D01*
X95482596Y-47017394D01*
X95577632Y-47208253D01*
X95697650Y-47367181D01*
X95706128Y-47378407D01*
X95863698Y-47522052D01*
X96044981Y-47634298D01*
X96165601Y-47681026D01*
X96243796Y-47711319D01*
X96243802Y-47711321D01*
X96284465Y-47718922D01*
X96346744Y-47750588D01*
X96382018Y-47810901D01*
X96379085Y-47880709D01*
X96349360Y-47928491D01*
X91348671Y-52929181D01*
X91287348Y-52962666D01*
X91260990Y-52965500D01*
X76148807Y-52965500D01*
X76049177Y-52981279D01*
X76047347Y-52982211D01*
X76045237Y-52983286D01*
X75988947Y-52996800D01*
X75581436Y-52996800D01*
X75456565Y-52996800D01*
X75456562Y-52996800D01*
X75456560Y-52996801D01*
X75435965Y-53003492D01*
X75417053Y-53008032D01*
X75386031Y-53012946D01*
X75385833Y-53011701D01*
X75365009Y-53015000D01*
X73506838Y-53015000D01*
X71192293Y-53015000D01*
X71197646Y-52999701D01*
X71197646Y-52999699D01*
X71200500Y-52969269D01*
X71200500Y-52560730D01*
X71197646Y-52530300D01*
X71197646Y-52530298D01*
X71152793Y-52402119D01*
X71152792Y-52402117D01*
X71072150Y-52292850D01*
X70986677Y-52229768D01*
X70944428Y-52174123D01*
X70938969Y-52104467D01*
X70972036Y-52042917D01*
X70986670Y-52030236D01*
X71072150Y-51967150D01*
X71152793Y-51857882D01*
X71181290Y-51776442D01*
X71192292Y-51745000D01*
X73506838Y-51745000D01*
X73510613Y-51776442D01*
X73566079Y-51917095D01*
X73657439Y-52037570D01*
X73662188Y-52042319D01*
X73695673Y-52103642D01*
X73690689Y-52173334D01*
X73662188Y-52217681D01*
X73657439Y-52222429D01*
X73566079Y-52342904D01*
X73510613Y-52483557D01*
X73506838Y-52515000D01*
X74625000Y-52515000D01*
X74625000Y-51745000D01*
X75125000Y-51745000D01*
X75125000Y-52515000D01*
X76243161Y-52515000D01*
X76239386Y-52483557D01*
X76183920Y-52342904D01*
X76092560Y-52222429D01*
X76087812Y-52217681D01*
X76054327Y-52156358D01*
X76059311Y-52086666D01*
X76087812Y-52042319D01*
X76092560Y-52037570D01*
X76183920Y-51917095D01*
X76239386Y-51776442D01*
X76243162Y-51745000D01*
X75125000Y-51745000D01*
X74625000Y-51745000D01*
X73506838Y-51745000D01*
X71192292Y-51745000D01*
X71197646Y-51729701D01*
X71197646Y-51729699D01*
X71200500Y-51699269D01*
X71200500Y-51290730D01*
X71197646Y-51260300D01*
X71197646Y-51260298D01*
X71152793Y-51132119D01*
X71152792Y-51132117D01*
X71072150Y-51022850D01*
X70986677Y-50959768D01*
X70944428Y-50904123D01*
X70938969Y-50834467D01*
X70972036Y-50772917D01*
X70986670Y-50760236D01*
X71072150Y-50697150D01*
X71152793Y-50587882D01*
X71181290Y-50506442D01*
X71192292Y-50475000D01*
X73506838Y-50475000D01*
X73510613Y-50506442D01*
X73566079Y-50647095D01*
X73657439Y-50767570D01*
X73662188Y-50772319D01*
X73695673Y-50833642D01*
X73690689Y-50903334D01*
X73662188Y-50947681D01*
X73657439Y-50952429D01*
X73566079Y-51072904D01*
X73510613Y-51213557D01*
X73506838Y-51245000D01*
X74625000Y-51245000D01*
X74625000Y-50475000D01*
X75125000Y-50475000D01*
X75125000Y-51245000D01*
X76243161Y-51245000D01*
X76239386Y-51213557D01*
X76183920Y-51072904D01*
X76092560Y-50952429D01*
X76087812Y-50947681D01*
X76054327Y-50886358D01*
X76059311Y-50816666D01*
X76087812Y-50772319D01*
X76092560Y-50767570D01*
X76183920Y-50647095D01*
X76239386Y-50506442D01*
X76243162Y-50475000D01*
X75125000Y-50475000D01*
X74625000Y-50475000D01*
X73506838Y-50475000D01*
X71192292Y-50475000D01*
X71197646Y-50459701D01*
X71197646Y-50459699D01*
X71200500Y-50429269D01*
X71200500Y-50020730D01*
X71197646Y-49990300D01*
X71197646Y-49990298D01*
X71152793Y-49862119D01*
X71152792Y-49862117D01*
X71072150Y-49752850D01*
X70986677Y-49689768D01*
X70944428Y-49634123D01*
X70938969Y-49564467D01*
X70972036Y-49502917D01*
X70986670Y-49490236D01*
X71072150Y-49427150D01*
X71152793Y-49317882D01*
X71181290Y-49236442D01*
X71192292Y-49205000D01*
X73506838Y-49205000D01*
X73510613Y-49236442D01*
X73566079Y-49377095D01*
X73657439Y-49497570D01*
X73662188Y-49502319D01*
X73695673Y-49563642D01*
X73690689Y-49633334D01*
X73662188Y-49677681D01*
X73657439Y-49682429D01*
X73566079Y-49802904D01*
X73510613Y-49943557D01*
X73506838Y-49975000D01*
X74625000Y-49975000D01*
X74625000Y-49205000D01*
X75125000Y-49205000D01*
X75125000Y-49975000D01*
X76243161Y-49975000D01*
X76239386Y-49943557D01*
X76183920Y-49802904D01*
X76092560Y-49682429D01*
X76087812Y-49677681D01*
X76054327Y-49616358D01*
X76059311Y-49546666D01*
X76087812Y-49502319D01*
X76092560Y-49497570D01*
X76183920Y-49377095D01*
X76239386Y-49236442D01*
X76243162Y-49205000D01*
X75125000Y-49205000D01*
X74625000Y-49205000D01*
X73506838Y-49205000D01*
X71192292Y-49205000D01*
X71197646Y-49189701D01*
X71197646Y-49189699D01*
X71200500Y-49159269D01*
X71200500Y-48750730D01*
X71197646Y-48720300D01*
X71197646Y-48720298D01*
X71192293Y-48705000D01*
X73506838Y-48705000D01*
X74625000Y-48705000D01*
X74625000Y-48255000D01*
X75125000Y-48255000D01*
X75125000Y-48705000D01*
X76243161Y-48705000D01*
X76239386Y-48673557D01*
X76183920Y-48532904D01*
X76092564Y-48412435D01*
X75972095Y-48321079D01*
X75831443Y-48265613D01*
X75743054Y-48255000D01*
X75125000Y-48255000D01*
X74625000Y-48255000D01*
X74006946Y-48255000D01*
X73918556Y-48265613D01*
X73777904Y-48321079D01*
X73657435Y-48412435D01*
X73566079Y-48532904D01*
X73510613Y-48673557D01*
X73506838Y-48705000D01*
X71192293Y-48705000D01*
X71152793Y-48592119D01*
X71152792Y-48592117D01*
X71139492Y-48574096D01*
X71072150Y-48482850D01*
X70962882Y-48402207D01*
X70962880Y-48402206D01*
X70834700Y-48357353D01*
X70804270Y-48354500D01*
X70804266Y-48354500D01*
X70699500Y-48354500D01*
X70632461Y-48334815D01*
X70586706Y-48282011D01*
X70575500Y-48230500D01*
X70575500Y-47418555D01*
X70595185Y-47351516D01*
X70624575Y-47319751D01*
X70692922Y-47267922D01*
X70784361Y-47147342D01*
X70790920Y-47130710D01*
X70834237Y-47020864D01*
X70877141Y-46965724D01*
X70943048Y-46942530D01*
X71011033Y-46958650D01*
X71059510Y-47008967D01*
X71068666Y-47031762D01*
X71098715Y-47135193D01*
X71098717Y-47135196D01*
X71182314Y-47276552D01*
X71182321Y-47276561D01*
X71298438Y-47392678D01*
X71298447Y-47392685D01*
X71439803Y-47476282D01*
X71439806Y-47476283D01*
X71597504Y-47522099D01*
X71597510Y-47522100D01*
X71634350Y-47524999D01*
X71634366Y-47525000D01*
X71700000Y-47525000D01*
X71700000Y-46650000D01*
X72200000Y-46650000D01*
X72200000Y-47525000D01*
X72265634Y-47525000D01*
X72265649Y-47524999D01*
X72302489Y-47522100D01*
X72302495Y-47522099D01*
X72460193Y-47476283D01*
X72460196Y-47476282D01*
X72601552Y-47392685D01*
X72601561Y-47392678D01*
X72717678Y-47276561D01*
X72717685Y-47276552D01*
X72801282Y-47135196D01*
X72801283Y-47135193D01*
X72847099Y-46977495D01*
X72847100Y-46977489D01*
X72849999Y-46940649D01*
X72850000Y-46940634D01*
X72850000Y-46650000D01*
X72200000Y-46650000D01*
X71700000Y-46650000D01*
X71700000Y-45275000D01*
X72200000Y-45275000D01*
X72200000Y-46150000D01*
X72850000Y-46150000D01*
X72850000Y-45859365D01*
X72849999Y-45859350D01*
X72847100Y-45822510D01*
X72847099Y-45822504D01*
X72801283Y-45664806D01*
X72801282Y-45664803D01*
X72717685Y-45523447D01*
X72717678Y-45523438D01*
X72601561Y-45407321D01*
X72601552Y-45407314D01*
X72460196Y-45323717D01*
X72460193Y-45323716D01*
X72302495Y-45277900D01*
X72302489Y-45277899D01*
X72265649Y-45275000D01*
X72200000Y-45275000D01*
X71700000Y-45275000D01*
X71634350Y-45275000D01*
X71597510Y-45277899D01*
X71597504Y-45277900D01*
X71439806Y-45323716D01*
X71439803Y-45323717D01*
X71298447Y-45407314D01*
X71298438Y-45407321D01*
X71182321Y-45523438D01*
X71182314Y-45523447D01*
X71098717Y-45664803D01*
X71098716Y-45664804D01*
X71068666Y-45768238D01*
X71031059Y-45827123D01*
X70967587Y-45856329D01*
X70898400Y-45846583D01*
X70845466Y-45800978D01*
X70834238Y-45779137D01*
X70789151Y-45664804D01*
X70784361Y-45652657D01*
X70692922Y-45532077D01*
X70572343Y-45440639D01*
X70458687Y-45395819D01*
X70431564Y-45385123D01*
X70431563Y-45385122D01*
X70431561Y-45385122D01*
X70385926Y-45379642D01*
X70343102Y-45374500D01*
X69756898Y-45374500D01*
X69717853Y-45379188D01*
X69668438Y-45385122D01*
X69527656Y-45440639D01*
X69407077Y-45532077D01*
X69315639Y-45652656D01*
X69260122Y-45793438D01*
X69256031Y-45827511D01*
X69249500Y-45881898D01*
X69249500Y-46918102D01*
X69253154Y-46948528D01*
X69260122Y-47006563D01*
X69265854Y-47021096D01*
X69274500Y-47066587D01*
X69274500Y-47228393D01*
X69254815Y-47295432D01*
X69202011Y-47341187D01*
X69132853Y-47351131D01*
X69120826Y-47348790D01*
X69098957Y-47343400D01*
X69098956Y-47343400D01*
X68928844Y-47343400D01*
X68763673Y-47384110D01*
X68613050Y-47463163D01*
X68485716Y-47575972D01*
X68389082Y-47715968D01*
X68328760Y-47875025D01*
X68328760Y-47875028D01*
X68308255Y-48043900D01*
X68328759Y-48212769D01*
X68328760Y-48212774D01*
X68389082Y-48371831D01*
X68425209Y-48424169D01*
X68483204Y-48508189D01*
X68485718Y-48511830D01*
X68610514Y-48622390D01*
X68647641Y-48681579D01*
X68651746Y-48726779D01*
X68649501Y-48750730D01*
X68649500Y-48750736D01*
X68649500Y-49159269D01*
X68652353Y-49189699D01*
X68652353Y-49189701D01*
X68692938Y-49305682D01*
X68697207Y-49317882D01*
X68777850Y-49427150D01*
X68863321Y-49490230D01*
X68905571Y-49545877D01*
X68911030Y-49615534D01*
X68877962Y-49677083D01*
X68863321Y-49689769D01*
X68825569Y-49717632D01*
X68777850Y-49752850D01*
X68697207Y-49862117D01*
X68697206Y-49862119D01*
X68652353Y-49990298D01*
X68652353Y-49990300D01*
X68649500Y-50020730D01*
X68649500Y-50429269D01*
X68652353Y-50459699D01*
X68652353Y-50459701D01*
X68697206Y-50587880D01*
X68697207Y-50587882D01*
X68777850Y-50697150D01*
X68863321Y-50760230D01*
X68905571Y-50815877D01*
X68911030Y-50885534D01*
X68877962Y-50947083D01*
X68863321Y-50959769D01*
X68786863Y-51016198D01*
X68777850Y-51022850D01*
X68697207Y-51132117D01*
X68697206Y-51132119D01*
X68652353Y-51260298D01*
X68652353Y-51260300D01*
X68649500Y-51290730D01*
X68649500Y-51699269D01*
X68652353Y-51729699D01*
X68652353Y-51729701D01*
X68693137Y-51846251D01*
X68697207Y-51857882D01*
X68777850Y-51967150D01*
X68863321Y-52030230D01*
X68905571Y-52085877D01*
X68911030Y-52155534D01*
X68877962Y-52217083D01*
X68863321Y-52229769D01*
X68777850Y-52292850D01*
X68697207Y-52402117D01*
X68697206Y-52402119D01*
X68652353Y-52530298D01*
X68652353Y-52530300D01*
X68649500Y-52560730D01*
X68649500Y-52947693D01*
X68629815Y-53014732D01*
X68577011Y-53060487D01*
X68509315Y-53070632D01*
X68445401Y-53062218D01*
X68445399Y-53062218D01*
X68288639Y-53082855D01*
X68288637Y-53082856D01*
X68142560Y-53143363D01*
X68017118Y-53239618D01*
X67920863Y-53365060D01*
X67860356Y-53511137D01*
X67860355Y-53511139D01*
X67839718Y-53667898D01*
X67839718Y-53667901D01*
X67860355Y-53824660D01*
X67860356Y-53824662D01*
X67920864Y-53970741D01*
X68017118Y-54096182D01*
X68099587Y-54159462D01*
X68140788Y-54215889D01*
X68144943Y-54285635D01*
X68110731Y-54346555D01*
X68099586Y-54356212D01*
X68058918Y-54387417D01*
X68058917Y-54387418D01*
X68014872Y-54444819D01*
X67958444Y-54486021D01*
X67888698Y-54490176D01*
X67828816Y-54457013D01*
X66276068Y-52904265D01*
X66266802Y-52893897D01*
X66244579Y-52866030D01*
X66244578Y-52866029D01*
X66244577Y-52866028D01*
X66219050Y-52848624D01*
X66197333Y-52833818D01*
X66193569Y-52831147D01*
X66147586Y-52797209D01*
X66139997Y-52793198D01*
X66132375Y-52789528D01*
X66077749Y-52772679D01*
X66073344Y-52771230D01*
X66019395Y-52752352D01*
X66011026Y-52750768D01*
X66002604Y-52749500D01*
X66002602Y-52749500D01*
X65945438Y-52749500D01*
X65940801Y-52749413D01*
X65938785Y-52749337D01*
X65883689Y-52747275D01*
X65874456Y-52748316D01*
X65874362Y-52747486D01*
X65859064Y-52749500D01*
X64668203Y-52749500D01*
X64601164Y-52729815D01*
X64564255Y-52688654D01*
X64562316Y-52689855D01*
X64482367Y-52560734D01*
X64447052Y-52503698D01*
X64303407Y-52346128D01*
X64299138Y-52342904D01*
X64133253Y-52217632D01*
X63942393Y-52122596D01*
X63754960Y-52069266D01*
X63695867Y-52031986D01*
X63666310Y-51968677D01*
X63675672Y-51899437D01*
X63720982Y-51846251D01*
X63754960Y-51830734D01*
X63942389Y-51777405D01*
X63942393Y-51777403D01*
X63942394Y-51777403D01*
X64133253Y-51682367D01*
X64133253Y-51682366D01*
X64133255Y-51682366D01*
X64303407Y-51553872D01*
X64447052Y-51396302D01*
X64559298Y-51215019D01*
X64636321Y-51016198D01*
X64675500Y-50806610D01*
X64675500Y-50593390D01*
X64636321Y-50383802D01*
X64559298Y-50184981D01*
X64447052Y-50003698D01*
X64303407Y-49846128D01*
X64246170Y-49802904D01*
X64133253Y-49717632D01*
X63942393Y-49622596D01*
X63848539Y-49595892D01*
X63841066Y-49593765D01*
X63781974Y-49556486D01*
X63752417Y-49493177D01*
X63761779Y-49423937D01*
X63807089Y-49370751D01*
X63873961Y-49350504D01*
X63875002Y-49350500D01*
X64168097Y-49350500D01*
X64168102Y-49350500D01*
X64256564Y-49339877D01*
X64397342Y-49284361D01*
X64517922Y-49192922D01*
X64609361Y-49072342D01*
X64664877Y-48931564D01*
X64675500Y-48843102D01*
X64675500Y-47556898D01*
X64664877Y-47468436D01*
X64609361Y-47327658D01*
X64609360Y-47327657D01*
X64609360Y-47327656D01*
X64517922Y-47207077D01*
X64397343Y-47115639D01*
X64263081Y-47062693D01*
X64256564Y-47060123D01*
X64256563Y-47060122D01*
X64256561Y-47060122D01*
X64210926Y-47054642D01*
X64168102Y-47049500D01*
X62631898Y-47049500D01*
X62592853Y-47054188D01*
X62543438Y-47060122D01*
X62402656Y-47115639D01*
X62282077Y-47207077D01*
X62190639Y-47327656D01*
X62135122Y-47468438D01*
X62133673Y-47480507D01*
X62124500Y-47556898D01*
X62124500Y-48843102D01*
X62128650Y-48877658D01*
X62135122Y-48931561D01*
X62190639Y-49072343D01*
X62282077Y-49192922D01*
X62402656Y-49284360D01*
X62402657Y-49284360D01*
X62402658Y-49284361D01*
X62543436Y-49339877D01*
X62631898Y-49350500D01*
X62631903Y-49350500D01*
X62924998Y-49350500D01*
X62992037Y-49370185D01*
X63037792Y-49422989D01*
X63047736Y-49492147D01*
X63018711Y-49555703D01*
X62959933Y-49593477D01*
X62958952Y-49593760D01*
X62951461Y-49595892D01*
X62857607Y-49622596D01*
X62857605Y-49622596D01*
X62666746Y-49717632D01*
X62496593Y-49846127D01*
X62352947Y-50003699D01*
X62240702Y-50184980D01*
X62240701Y-50184982D01*
X62187488Y-50322343D01*
X62163679Y-50383802D01*
X62124500Y-50593390D01*
X62124500Y-50806610D01*
X62163679Y-51016198D01*
X62163680Y-51016200D01*
X62240135Y-51213557D01*
X62240702Y-51215019D01*
X62352948Y-51396302D01*
X62496593Y-51553872D01*
X62666746Y-51682367D01*
X62857606Y-51777403D01*
X62857608Y-51777403D01*
X62857611Y-51777405D01*
X62991971Y-51815634D01*
X63045039Y-51830734D01*
X63104132Y-51868014D01*
X63133689Y-51931324D01*
X63124327Y-52000563D01*
X63079017Y-52053749D01*
X63045039Y-52069266D01*
X62857607Y-52122596D01*
X62857605Y-52122596D01*
X62666746Y-52217632D01*
X62496593Y-52346127D01*
X62352947Y-52503699D01*
X62240702Y-52684980D01*
X62240701Y-52684982D01*
X62170564Y-52866030D01*
X62163679Y-52883802D01*
X62124500Y-53093390D01*
X62124500Y-53306610D01*
X62163679Y-53516198D01*
X62163680Y-53516200D01*
X62224082Y-53672119D01*
X62240702Y-53715019D01*
X62352948Y-53896302D01*
X62420807Y-53970739D01*
X62496593Y-54053872D01*
X62666746Y-54182367D01*
X62857606Y-54277403D01*
X62857608Y-54277403D01*
X62857611Y-54277405D01*
X62991971Y-54315634D01*
X63045039Y-54330734D01*
X63104132Y-54368014D01*
X63133689Y-54431324D01*
X63124327Y-54500563D01*
X63079017Y-54553749D01*
X63045039Y-54569266D01*
X62857607Y-54622596D01*
X62857605Y-54622596D01*
X62666746Y-54717632D01*
X62496593Y-54846127D01*
X62352947Y-55003699D01*
X62240702Y-55184980D01*
X62240701Y-55184982D01*
X62164571Y-55381500D01*
X62163679Y-55383802D01*
X62124500Y-55593390D01*
X62124500Y-55806610D01*
X62163679Y-56016198D01*
X62175604Y-56046980D01*
X62239578Y-56212119D01*
X62240702Y-56215019D01*
X62352948Y-56396302D01*
X62446668Y-56499107D01*
X62496593Y-56553872D01*
X62666746Y-56682367D01*
X62857605Y-56777403D01*
X62862950Y-56779473D01*
X62862525Y-56780569D01*
X62916516Y-56814627D01*
X62946077Y-56877936D01*
X62947145Y-56887346D01*
X62949153Y-56914124D01*
X62949500Y-56923396D01*
X62949500Y-56935659D01*
X62949501Y-56935673D01*
X62951327Y-56947790D01*
X62952365Y-56957003D01*
X62954979Y-56991886D01*
X62940359Y-57060209D01*
X62891122Y-57109782D01*
X62865265Y-57120417D01*
X62857606Y-57122596D01*
X62857604Y-57122596D01*
X62666746Y-57217632D01*
X62496593Y-57346127D01*
X62352947Y-57503699D01*
X62240702Y-57684980D01*
X62240701Y-57684982D01*
X62163682Y-57883794D01*
X62163679Y-57883802D01*
X62124500Y-58093390D01*
X62124500Y-58306610D01*
X60300500Y-58306610D01*
X60300500Y-42607763D01*
X73385787Y-42607763D01*
X73415413Y-42877013D01*
X73415415Y-42877024D01*
X73476880Y-43112129D01*
X73483928Y-43139088D01*
X73589870Y-43388390D01*
X73705765Y-43578290D01*
X73730979Y-43619605D01*
X73730986Y-43619615D01*
X73904253Y-43827819D01*
X73904259Y-43827824D01*
X74006581Y-43919504D01*
X74105998Y-44008582D01*
X74331910Y-44158044D01*
X74577176Y-44273020D01*
X74577183Y-44273022D01*
X74577185Y-44273023D01*
X74836557Y-44351057D01*
X74836564Y-44351058D01*
X74836569Y-44351060D01*
X75104561Y-44390500D01*
X75104566Y-44390500D01*
X75307629Y-44390500D01*
X75307631Y-44390500D01*
X75307636Y-44390499D01*
X75307648Y-44390499D01*
X75345191Y-44387750D01*
X75510156Y-44375677D01*
X75622758Y-44350593D01*
X75774546Y-44316782D01*
X75774548Y-44316781D01*
X75774553Y-44316780D01*
X76027558Y-44220014D01*
X76263777Y-44087441D01*
X76478177Y-43921888D01*
X76666186Y-43726881D01*
X76823799Y-43506579D01*
X76913016Y-43333051D01*
X76947649Y-43265690D01*
X76947651Y-43265684D01*
X76947656Y-43265675D01*
X77035118Y-43009305D01*
X77084319Y-42742933D01*
X77091735Y-42540000D01*
X77644571Y-42540000D01*
X77664244Y-42752310D01*
X77722596Y-42957392D01*
X77722596Y-42957394D01*
X77817632Y-43148253D01*
X77920261Y-43284154D01*
X77946128Y-43318407D01*
X78103698Y-43462052D01*
X78284981Y-43574298D01*
X78483802Y-43651321D01*
X78693390Y-43690500D01*
X78693392Y-43690500D01*
X78906608Y-43690500D01*
X78906610Y-43690500D01*
X79116198Y-43651321D01*
X79315019Y-43574298D01*
X79496302Y-43462052D01*
X79635315Y-43335323D01*
X79698117Y-43304708D01*
X79767504Y-43312905D01*
X79806533Y-43339281D01*
X81752372Y-45285120D01*
X81847680Y-45380428D01*
X81869196Y-45391391D01*
X81885778Y-45401553D01*
X81905319Y-45415750D01*
X81928283Y-45423211D01*
X81946262Y-45430657D01*
X81967774Y-45441619D01*
X81991621Y-45445395D01*
X82010543Y-45449939D01*
X82033501Y-45457399D01*
X82033507Y-45457400D01*
X82067412Y-45457400D01*
X85160405Y-45457400D01*
X85227444Y-45477085D01*
X85273199Y-45529889D01*
X85283143Y-45599047D01*
X85273840Y-45631485D01*
X85264492Y-45652657D01*
X85252415Y-45680009D01*
X85249500Y-45705131D01*
X85249500Y-47494856D01*
X85249502Y-47494882D01*
X85252413Y-47519987D01*
X85252415Y-47519991D01*
X85297793Y-47622764D01*
X85297794Y-47622765D01*
X85377235Y-47702206D01*
X85480009Y-47747585D01*
X85505135Y-47750500D01*
X87294864Y-47750499D01*
X87294879Y-47750497D01*
X87294882Y-47750497D01*
X87319987Y-47747586D01*
X87319988Y-47747585D01*
X87319991Y-47747585D01*
X87422765Y-47702206D01*
X87502206Y-47622765D01*
X87547585Y-47519991D01*
X87550500Y-47494865D01*
X87550499Y-45705136D01*
X87550497Y-45705117D01*
X87547586Y-45680012D01*
X87547585Y-45680011D01*
X87547585Y-45680009D01*
X87526159Y-45631485D01*
X87517088Y-45562208D01*
X87546911Y-45499023D01*
X87606160Y-45461992D01*
X87639594Y-45457400D01*
X88873190Y-45457400D01*
X88940229Y-45477085D01*
X88960871Y-45493719D01*
X89841281Y-46374129D01*
X89874766Y-46435452D01*
X89877600Y-46461810D01*
X89877600Y-46556754D01*
X89876073Y-46576151D01*
X89872296Y-46600000D01*
X89877429Y-46632411D01*
X89877600Y-46633487D01*
X89877600Y-46633489D01*
X89893379Y-46733121D01*
X89893380Y-46733124D01*
X89893381Y-46733126D01*
X89935424Y-46815639D01*
X89954573Y-46853221D01*
X89954576Y-46853225D01*
X90049874Y-46948523D01*
X90049878Y-46948526D01*
X90049880Y-46948528D01*
X90169974Y-47009719D01*
X90169976Y-47009719D01*
X90169978Y-47009720D01*
X90303097Y-47030804D01*
X90303098Y-47030803D01*
X90303100Y-47030804D01*
X90311658Y-47029448D01*
X90380950Y-47038399D01*
X90434405Y-47083392D01*
X90442061Y-47096649D01*
X90497632Y-47208253D01*
X90617650Y-47367181D01*
X90626128Y-47378407D01*
X90783698Y-47522052D01*
X90964981Y-47634298D01*
X91163802Y-47711321D01*
X91373390Y-47750500D01*
X91373392Y-47750500D01*
X91586608Y-47750500D01*
X91586610Y-47750500D01*
X91796198Y-47711321D01*
X91995019Y-47634298D01*
X92176302Y-47522052D01*
X92333872Y-47378407D01*
X92462366Y-47208255D01*
X92535543Y-47061293D01*
X92583044Y-47010059D01*
X92650707Y-46992637D01*
X92702833Y-47006080D01*
X92709974Y-47009719D01*
X92709975Y-47009719D01*
X92709977Y-47009720D01*
X92843097Y-47030804D01*
X92843098Y-47030803D01*
X92843100Y-47030804D01*
X92851658Y-47029448D01*
X92920950Y-47038399D01*
X92974405Y-47083392D01*
X92982061Y-47096649D01*
X93037632Y-47208253D01*
X93157650Y-47367181D01*
X93166128Y-47378407D01*
X93323698Y-47522052D01*
X93504981Y-47634298D01*
X93703802Y-47711321D01*
X93913390Y-47750500D01*
X93913392Y-47750500D01*
X94126608Y-47750500D01*
X94126610Y-47750500D01*
X94336198Y-47711321D01*
X94535019Y-47634298D01*
X94716302Y-47522052D01*
X94873872Y-47378407D01*
X95002366Y-47208255D01*
X95032697Y-47147342D01*
X95097403Y-47017394D01*
X95097403Y-47017393D01*
X95097405Y-47017389D01*
X95155756Y-46812310D01*
X95166529Y-46696047D01*
X95192315Y-46631111D01*
X95236869Y-46599194D01*
X95200497Y-46578331D01*
X95168307Y-46516318D01*
X95166529Y-46503951D01*
X95162624Y-46461810D01*
X95155756Y-46387690D01*
X95097405Y-46182611D01*
X95097403Y-46182606D01*
X95097403Y-46182605D01*
X95002367Y-45991746D01*
X94873872Y-45821593D01*
X94856412Y-45805676D01*
X94716302Y-45677948D01*
X94535019Y-45565702D01*
X94535017Y-45565701D01*
X94425922Y-45523438D01*
X94336198Y-45488679D01*
X94126610Y-45449500D01*
X93913390Y-45449500D01*
X93703802Y-45488679D01*
X93703799Y-45488679D01*
X93703799Y-45488680D01*
X93504982Y-45565701D01*
X93504980Y-45565702D01*
X93323696Y-45677949D01*
X93183587Y-45805676D01*
X93120783Y-45836293D01*
X93051396Y-45828096D01*
X93012368Y-45801720D01*
X91071125Y-43860477D01*
X91037640Y-43799154D01*
X91042624Y-43729462D01*
X91084496Y-43673529D01*
X91149960Y-43649112D01*
X91181591Y-43650907D01*
X91183798Y-43651319D01*
X91183802Y-43651321D01*
X91393390Y-43690500D01*
X91393392Y-43690500D01*
X91606608Y-43690500D01*
X91606610Y-43690500D01*
X91816198Y-43651321D01*
X92015019Y-43574298D01*
X92196302Y-43462052D01*
X92353872Y-43318407D01*
X92482366Y-43148255D01*
X92486934Y-43139082D01*
X92577403Y-42957394D01*
X92577403Y-42957393D01*
X92577405Y-42957389D01*
X92635756Y-42752310D01*
X92646529Y-42636047D01*
X92672315Y-42571111D01*
X92714622Y-42540804D01*
X92823130Y-42540804D01*
X92859503Y-42561668D01*
X92891693Y-42623681D01*
X92893471Y-42636048D01*
X92904244Y-42752310D01*
X92962596Y-42957392D01*
X92962596Y-42957394D01*
X93057632Y-43148253D01*
X93160261Y-43284154D01*
X93186128Y-43318407D01*
X93343698Y-43462052D01*
X93524981Y-43574298D01*
X93723802Y-43651321D01*
X93933390Y-43690500D01*
X93933392Y-43690500D01*
X94146608Y-43690500D01*
X94146610Y-43690500D01*
X94356198Y-43651321D01*
X94555019Y-43574298D01*
X94736302Y-43462052D01*
X94893872Y-43318407D01*
X95022366Y-43148255D01*
X95026934Y-43139082D01*
X95117403Y-42957394D01*
X95117403Y-42957393D01*
X95117405Y-42957389D01*
X95175756Y-42752310D01*
X95186529Y-42636047D01*
X95212315Y-42571111D01*
X95254622Y-42540804D01*
X95363130Y-42540804D01*
X95399503Y-42561668D01*
X95431693Y-42623681D01*
X95433471Y-42636048D01*
X95444244Y-42752310D01*
X95502596Y-42957392D01*
X95502596Y-42957394D01*
X95597632Y-43148253D01*
X95700261Y-43284154D01*
X95726128Y-43318407D01*
X95883698Y-43462052D01*
X96064981Y-43574298D01*
X96263802Y-43651321D01*
X96473390Y-43690500D01*
X96473392Y-43690500D01*
X96686608Y-43690500D01*
X96686610Y-43690500D01*
X96896198Y-43651321D01*
X97095019Y-43574298D01*
X97276302Y-43462052D01*
X97433872Y-43318407D01*
X97562366Y-43148255D01*
X97566934Y-43139082D01*
X97657403Y-42957394D01*
X97657403Y-42957393D01*
X97657405Y-42957389D01*
X97715756Y-42752310D01*
X97726529Y-42636047D01*
X97752315Y-42571111D01*
X97796869Y-42539194D01*
X97760497Y-42518331D01*
X97728307Y-42456318D01*
X97726529Y-42443951D01*
X97720969Y-42383951D01*
X97715756Y-42327690D01*
X97657405Y-42122611D01*
X97657403Y-42122606D01*
X97657403Y-42122605D01*
X97562367Y-41931746D01*
X97433872Y-41761593D01*
X97361737Y-41695833D01*
X97276302Y-41617948D01*
X97095019Y-41505702D01*
X97095017Y-41505701D01*
X96995608Y-41467190D01*
X96896198Y-41428679D01*
X96686610Y-41389500D01*
X96473390Y-41389500D01*
X96263802Y-41428679D01*
X96263799Y-41428679D01*
X96263799Y-41428680D01*
X96064982Y-41505701D01*
X96064980Y-41505702D01*
X95883699Y-41617947D01*
X95726127Y-41761593D01*
X95597632Y-41931746D01*
X95502596Y-42122605D01*
X95502596Y-42122607D01*
X95444244Y-42327689D01*
X95433471Y-42443951D01*
X95407685Y-42508888D01*
X95363130Y-42540804D01*
X95254622Y-42540804D01*
X95256869Y-42539194D01*
X95220497Y-42518331D01*
X95188307Y-42456318D01*
X95186529Y-42443951D01*
X95180969Y-42383951D01*
X95175756Y-42327690D01*
X95117405Y-42122611D01*
X95117403Y-42122606D01*
X95117403Y-42122605D01*
X95022367Y-41931746D01*
X94893872Y-41761593D01*
X94821737Y-41695833D01*
X94736302Y-41617948D01*
X94555019Y-41505702D01*
X94555017Y-41505701D01*
X94455608Y-41467190D01*
X94356198Y-41428679D01*
X94146610Y-41389500D01*
X93933390Y-41389500D01*
X93723802Y-41428679D01*
X93723799Y-41428679D01*
X93723799Y-41428680D01*
X93524982Y-41505701D01*
X93524980Y-41505702D01*
X93343699Y-41617947D01*
X93186127Y-41761593D01*
X93057632Y-41931746D01*
X92962596Y-42122605D01*
X92962596Y-42122607D01*
X92904244Y-42327689D01*
X92893471Y-42443951D01*
X92867685Y-42508888D01*
X92823130Y-42540804D01*
X92714622Y-42540804D01*
X92716869Y-42539194D01*
X92680497Y-42518331D01*
X92648307Y-42456318D01*
X92646529Y-42443951D01*
X92640969Y-42383951D01*
X92635756Y-42327690D01*
X92577405Y-42122611D01*
X92577403Y-42122606D01*
X92577403Y-42122605D01*
X92482367Y-41931746D01*
X92353872Y-41761593D01*
X92281737Y-41695833D01*
X92196302Y-41617948D01*
X92015019Y-41505702D01*
X92015017Y-41505701D01*
X91915608Y-41467190D01*
X91816198Y-41428679D01*
X91606610Y-41389500D01*
X91393390Y-41389500D01*
X91183802Y-41428679D01*
X91183799Y-41428679D01*
X91183799Y-41428680D01*
X90984982Y-41505701D01*
X90984980Y-41505702D01*
X90803699Y-41617947D01*
X90646127Y-41761593D01*
X90517632Y-41931746D01*
X90422596Y-42122605D01*
X90422596Y-42122607D01*
X90364244Y-42327689D01*
X90353471Y-42443951D01*
X90327685Y-42508888D01*
X90283130Y-42540804D01*
X90319503Y-42561668D01*
X90351693Y-42623681D01*
X90353471Y-42636048D01*
X90364244Y-42752310D01*
X90422596Y-42957392D01*
X90422596Y-42957394D01*
X90499645Y-43112129D01*
X90511906Y-43180914D01*
X90485033Y-43245409D01*
X90427557Y-43285137D01*
X90388645Y-43291400D01*
X90071355Y-43291400D01*
X90004316Y-43271715D01*
X89958561Y-43218911D01*
X89948617Y-43149753D01*
X89960355Y-43112129D01*
X90037403Y-42957394D01*
X90037403Y-42957393D01*
X90037405Y-42957389D01*
X90095756Y-42752310D01*
X90106529Y-42636047D01*
X90132315Y-42571111D01*
X90176869Y-42539194D01*
X90140497Y-42518331D01*
X90108307Y-42456318D01*
X90106529Y-42443951D01*
X90100969Y-42383951D01*
X90095756Y-42327690D01*
X90037405Y-42122611D01*
X90037403Y-42122606D01*
X90037403Y-42122605D01*
X89942367Y-41931746D01*
X89813872Y-41761593D01*
X89741737Y-41695833D01*
X89656302Y-41617948D01*
X89475019Y-41505702D01*
X89475017Y-41505701D01*
X89375608Y-41467190D01*
X89276198Y-41428679D01*
X89066610Y-41389500D01*
X88853390Y-41389500D01*
X88643802Y-41428679D01*
X88643799Y-41428679D01*
X88643799Y-41428680D01*
X88444982Y-41505701D01*
X88444980Y-41505702D01*
X88263699Y-41617947D01*
X88106127Y-41761593D01*
X87977632Y-41931746D01*
X87882596Y-42122605D01*
X87882596Y-42122607D01*
X87824244Y-42327689D01*
X87804571Y-42539999D01*
X87804571Y-42540000D01*
X87824244Y-42752310D01*
X87882596Y-42957392D01*
X87882596Y-42957394D01*
X87959645Y-43112129D01*
X87971906Y-43180914D01*
X87945033Y-43245409D01*
X87887557Y-43285137D01*
X87848645Y-43291400D01*
X84991355Y-43291400D01*
X84924316Y-43271715D01*
X84878561Y-43218911D01*
X84868617Y-43149753D01*
X84880355Y-43112129D01*
X84957403Y-42957394D01*
X84957403Y-42957393D01*
X84957405Y-42957389D01*
X85015756Y-42752310D01*
X85035429Y-42540000D01*
X85015756Y-42327690D01*
X84957405Y-42122611D01*
X84957403Y-42122606D01*
X84957403Y-42122605D01*
X84862367Y-41931746D01*
X84733872Y-41761593D01*
X84661737Y-41695833D01*
X84576302Y-41617948D01*
X84395019Y-41505702D01*
X84395017Y-41505701D01*
X84295608Y-41467190D01*
X84196198Y-41428679D01*
X83986610Y-41389500D01*
X83773390Y-41389500D01*
X83563802Y-41428679D01*
X83563799Y-41428679D01*
X83563799Y-41428680D01*
X83364982Y-41505701D01*
X83364980Y-41505702D01*
X83183699Y-41617947D01*
X83026127Y-41761593D01*
X82897634Y-41931744D01*
X82824457Y-42078704D01*
X82776954Y-42129941D01*
X82709291Y-42147362D01*
X82657167Y-42133919D01*
X82650024Y-42130280D01*
X82650023Y-42130279D01*
X82550389Y-42114500D01*
X82550388Y-42114500D01*
X82533644Y-42111848D01*
X82516901Y-42109196D01*
X82516897Y-42109196D01*
X82508335Y-42110552D01*
X82439042Y-42101597D01*
X82385590Y-42056601D01*
X82377944Y-42043362D01*
X82322366Y-41931745D01*
X82193872Y-41761593D01*
X82036302Y-41617948D01*
X81855019Y-41505702D01*
X81855017Y-41505701D01*
X81755608Y-41467190D01*
X81656198Y-41428679D01*
X81446610Y-41389500D01*
X81233390Y-41389500D01*
X81023802Y-41428679D01*
X81023799Y-41428679D01*
X81023799Y-41428680D01*
X80824982Y-41505701D01*
X80824980Y-41505702D01*
X80643699Y-41617947D01*
X80486127Y-41761593D01*
X80357634Y-41931744D01*
X80284457Y-42078704D01*
X80236954Y-42129941D01*
X80169291Y-42147362D01*
X80117167Y-42133919D01*
X80110024Y-42130280D01*
X80110023Y-42130279D01*
X80010389Y-42114500D01*
X80010388Y-42114500D01*
X79993644Y-42111848D01*
X79976901Y-42109196D01*
X79976897Y-42109196D01*
X79968335Y-42110552D01*
X79899042Y-42101597D01*
X79845590Y-42056601D01*
X79837944Y-42043362D01*
X79782366Y-41931745D01*
X79653872Y-41761593D01*
X79496302Y-41617948D01*
X79315019Y-41505702D01*
X79315017Y-41505701D01*
X79215608Y-41467190D01*
X79116198Y-41428679D01*
X78906610Y-41389500D01*
X78693390Y-41389500D01*
X78483802Y-41428679D01*
X78483799Y-41428679D01*
X78483799Y-41428680D01*
X78284982Y-41505701D01*
X78284980Y-41505702D01*
X78103699Y-41617947D01*
X77946127Y-41761593D01*
X77817632Y-41931746D01*
X77722596Y-42122605D01*
X77722596Y-42122607D01*
X77664244Y-42327689D01*
X77644571Y-42539999D01*
X77644571Y-42540000D01*
X77091735Y-42540000D01*
X77094212Y-42472235D01*
X77064586Y-42202982D01*
X76996072Y-41940912D01*
X76890130Y-41691610D01*
X76749018Y-41460390D01*
X76730213Y-41437793D01*
X76575746Y-41252180D01*
X76575740Y-41252175D01*
X76374002Y-41071418D01*
X76148092Y-40921957D01*
X76148090Y-40921956D01*
X75902824Y-40806980D01*
X75902819Y-40806978D01*
X75902814Y-40806976D01*
X75643442Y-40728942D01*
X75643428Y-40728939D01*
X75527791Y-40711921D01*
X75375439Y-40689500D01*
X75172369Y-40689500D01*
X75172351Y-40689500D01*
X74969844Y-40704323D01*
X74969831Y-40704325D01*
X74705453Y-40763217D01*
X74705446Y-40763220D01*
X74452439Y-40859987D01*
X74216226Y-40992557D01*
X74001822Y-41158112D01*
X73813822Y-41353109D01*
X73813816Y-41353116D01*
X73656202Y-41573419D01*
X73656199Y-41573424D01*
X73532350Y-41814309D01*
X73532343Y-41814327D01*
X73444884Y-42070685D01*
X73444881Y-42070699D01*
X73395681Y-42337068D01*
X73395680Y-42337075D01*
X73385787Y-42607763D01*
X60300500Y-42607763D01*
X60300500Y-40424500D01*
X60320185Y-40357461D01*
X60372989Y-40311706D01*
X60424500Y-40300500D01*
X124344167Y-40300500D01*
X124411206Y-40320185D01*
G37*
%TD.AperFunction*%
%TD*%
M02*
