%TF.GenerationSoftware,KiCad,Pcbnew,7.0.11+dfsg-1build4*%
%TF.CreationDate,2026-10-02T09:29:19+00:00*%
%TF.ProjectId,watchmen-shield,77617463-686d-4656-9e2d-736869656c64,rev?*%
%TF.SameCoordinates,Original*%
%TF.FileFunction,Copper,L2,Bot*%
%TF.FilePolarity,Positive*%
%FSLAX46Y46*%
G04 Gerber Fmt 4.6, Leading zero omitted, Abs format (unit mm)*
G04 Created by KiCad (PCBNEW 7.0.11+dfsg-1build4) date 2026-10-02 09:29:19*
%MOMM*%
%LPD*%
G01*
G04 APERTURE LIST*
G04 Aperture macros list*
%AMRoundRect*
0 Rectangle with rounded corners*
0 $1 Rounding radius*
0 $2 $3 $4 $5 $6 $7 $8 $9 X,Y pos of 4 corners*
0 Add a 4 corners polygon primitive as box body*
4,1,4,$2,$3,$4,$5,$6,$7,$8,$9,$2,$3,0*
0 Add four circle primitives for the rounded corners*
1,1,$1+$1,$2,$3*
1,1,$1+$1,$4,$5*
1,1,$1+$1,$6,$7*
1,1,$1+$1,$8,$9*
0 Add four rect primitives between the rounded corners*
20,1,$1+$1,$2,$3,$4,$5,0*
20,1,$1+$1,$4,$5,$6,$7,0*
20,1,$1+$1,$6,$7,$8,$9,0*
20,1,$1+$1,$8,$9,$2,$3,0*%
G04 Aperture macros list end*
%TA.AperFunction,ComponentPad*%
%ADD10R,1.600000X1.600000*%
%TD*%
%TA.AperFunction,ComponentPad*%
%ADD11C,1.600000*%
%TD*%
%TA.AperFunction,ComponentPad*%
%ADD12R,1.700000X1.700000*%
%TD*%
%TA.AperFunction,ComponentPad*%
%ADD13O,1.700000X1.700000*%
%TD*%
%TA.AperFunction,ComponentPad*%
%ADD14RoundRect,0.250000X-0.725000X0.600000X-0.725000X-0.600000X0.725000X-0.600000X0.725000X0.600000X0*%
%TD*%
%TA.AperFunction,ComponentPad*%
%ADD15O,1.950000X1.700000*%
%TD*%
%TA.AperFunction,ComponentPad*%
%ADD16R,2.600000X2.600000*%
%TD*%
%TA.AperFunction,ComponentPad*%
%ADD17C,2.600000*%
%TD*%
%TA.AperFunction,ViaPad*%
%ADD18C,0.600000*%
%TD*%
%TA.AperFunction,ViaPad*%
%ADD19C,0.800000*%
%TD*%
%TA.AperFunction,Conductor*%
%ADD20C,0.250000*%
%TD*%
%TA.AperFunction,Conductor*%
%ADD21C,0.300000*%
%TD*%
%TA.AperFunction,Conductor*%
%ADD22C,0.700000*%
%TD*%
G04 APERTURE END LIST*
D10*
%TO.P,C1,1*%
%TO.N,/VMOT*%
X65000000Y-87600000D03*
D11*
%TO.P,C1,2*%
%TO.N,GND*%
X68500000Y-87600000D03*
%TD*%
D12*
%TO.P,J2,1*%
%TO.N,/A0_SENSE*%
X110800000Y-90800000D03*
D13*
%TO.P,J2,2*%
%TO.N,/A1_SERVO1*%
X113340000Y-90800000D03*
%TO.P,J2,3*%
%TO.N,/A2_SERVO2*%
X115880000Y-90800000D03*
%TO.P,J2,4*%
%TO.N,N/C*%
X118420000Y-90800000D03*
%TO.P,J2,5*%
X120960000Y-90800000D03*
%TO.P,J2,6*%
X123500000Y-90800000D03*
%TD*%
D12*
%TO.P,J1,1*%
%TO.N,N/C*%
X87940000Y-90800000D03*
D13*
%TO.P,J1,2*%
X90480000Y-90800000D03*
%TO.P,J1,3*%
X93020000Y-90800000D03*
%TO.P,J1,4*%
%TO.N,+3V3*%
X95560000Y-90800000D03*
%TO.P,J1,5*%
%TO.N,+5V*%
X98100000Y-90800000D03*
%TO.P,J1,6*%
%TO.N,GND*%
X100640000Y-90800000D03*
%TO.P,J1,7*%
X103180000Y-90800000D03*
%TO.P,J1,8*%
%TO.N,N/C*%
X105720000Y-90800000D03*
%TD*%
D14*
%TO.P,J6,1*%
%TO.N,/STEP_4*%
X63400000Y-48200000D03*
D15*
%TO.P,J6,2*%
%TO.N,/STEP_3*%
X63400000Y-50700000D03*
%TO.P,J6,3*%
%TO.N,/STEP_2*%
X63400000Y-53200000D03*
%TO.P,J6,4*%
%TO.N,/STEP_1*%
X63400000Y-55700000D03*
%TO.P,J6,5*%
%TO.N,/VMOT*%
X63400000Y-58200000D03*
%TD*%
D12*
%TO.P,J4,1*%
%TO.N,/D8_IN3*%
X101660000Y-42540000D03*
D13*
%TO.P,J4,2*%
%TO.N,/D9_IN4*%
X99120000Y-42540000D03*
%TO.P,J4,3*%
%TO.N,N/C*%
X96580000Y-42540000D03*
%TO.P,J4,4*%
%TO.N,/D11_MOSI*%
X94040000Y-42540000D03*
%TO.P,J4,5*%
%TO.N,N/C*%
X91500000Y-42540000D03*
%TO.P,J4,6*%
X88960000Y-42540000D03*
%TO.P,J4,7*%
%TO.N,GND*%
X86420000Y-42540000D03*
%TO.P,J4,8*%
%TO.N,N/C*%
X83880000Y-42540000D03*
%TO.P,J4,9*%
%TO.N,/SDA*%
X81340000Y-42540000D03*
%TO.P,J4,10*%
%TO.N,/SCL*%
X78800000Y-42540000D03*
%TD*%
D12*
%TO.P,J10,1*%
%TO.N,+5V*%
X111800000Y-46600000D03*
D13*
%TO.P,J10,2*%
%TO.N,GND*%
X114340000Y-46600000D03*
%TO.P,J10,3*%
%TO.N,/RADAR_TX*%
X116880000Y-46600000D03*
%TO.P,J10,4*%
%TO.N,/RADAR_RX*%
X119420000Y-46600000D03*
%TD*%
D12*
%TO.P,JP1,1*%
%TO.N,/SENSE_DIV*%
X115500000Y-86600000D03*
D13*
%TO.P,JP1,2*%
%TO.N,/SENSE_SEL*%
X118040000Y-86600000D03*
%TO.P,JP1,3*%
%TO.N,+3V3*%
X120580000Y-86600000D03*
%TD*%
D12*
%TO.P,J11,1*%
%TO.N,+3V3*%
X86400000Y-46600000D03*
D13*
%TO.P,J11,2*%
%TO.N,GND*%
X88940000Y-46600000D03*
%TO.P,J11,3*%
%TO.N,/SCL*%
X91480000Y-46600000D03*
%TO.P,J11,4*%
%TO.N,/SDA*%
X94020000Y-46600000D03*
%TO.P,J11,5*%
%TO.N,N/C*%
X96560000Y-46600000D03*
%TO.P,J11,6*%
X99100000Y-46600000D03*
%TO.P,J11,7*%
%TO.N,GND*%
X101640000Y-46600000D03*
%TO.P,J11,8*%
%TO.N,/D3_INT*%
X104180000Y-46600000D03*
%TD*%
D16*
%TO.P,J5,1*%
%TO.N,/VMOT_IN*%
X64400000Y-80000000D03*
D17*
%TO.P,J5,2*%
%TO.N,GND*%
X64400000Y-74920000D03*
%TD*%
D12*
%TO.P,J3,1*%
%TO.N,/D0_RX*%
X123500000Y-42540000D03*
D13*
%TO.P,J3,2*%
%TO.N,/D1_TX*%
X120960000Y-42540000D03*
%TO.P,J3,3*%
%TO.N,/D2_SW*%
X118420000Y-42540000D03*
%TO.P,J3,4*%
%TO.N,/D3_INT*%
X115880000Y-42540000D03*
%TO.P,J3,5*%
%TO.N,/D4_IN1*%
X113340000Y-42540000D03*
%TO.P,J3,6*%
%TO.N,N/C*%
X110800000Y-42540000D03*
%TO.P,J3,7*%
X108260000Y-42540000D03*
%TO.P,J3,8*%
%TO.N,/D7_IN2*%
X105720000Y-42540000D03*
%TD*%
D12*
%TO.P,J8,1*%
%TO.N,/SERVO2_SIG*%
X105360000Y-86600000D03*
D13*
%TO.P,J8,2*%
%TO.N,/VMOT*%
X107900000Y-86600000D03*
%TO.P,J8,3*%
%TO.N,GND*%
X110440000Y-86600000D03*
%TD*%
D12*
%TO.P,J9,1*%
%TO.N,/SW_IN*%
X125000000Y-63600000D03*
D13*
%TO.P,J9,2*%
%TO.N,GND*%
X125000000Y-66140000D03*
%TD*%
D12*
%TO.P,J12,1*%
%TO.N,+5V*%
X83360000Y-86600000D03*
D13*
%TO.P,J12,2*%
%TO.N,/LED_DIN*%
X85900000Y-86600000D03*
%TO.P,J12,3*%
%TO.N,GND*%
X88440000Y-86600000D03*
%TD*%
D12*
%TO.P,J7,1*%
%TO.N,/SERVO1_SIG*%
X94360000Y-86600000D03*
D13*
%TO.P,J7,2*%
%TO.N,/VMOT*%
X96900000Y-86600000D03*
%TO.P,J7,3*%
%TO.N,GND*%
X99440000Y-86600000D03*
%TD*%
D18*
%TO.N,+3V3*%
X104020700Y-87833700D03*
X100116800Y-48186300D03*
%TO.N,+5V*%
X82158100Y-83681200D03*
X83678900Y-49428500D03*
%TO.N,/D0_RX*%
X116800100Y-48700000D03*
%TO.N,/D11_MOSI*%
X78569000Y-83885100D03*
%TO.N,/D2_SW*%
X122100300Y-68587800D03*
%TO.N,/D7_IN2*%
X77334600Y-56258700D03*
%TO.N,/Q1_GATE*%
X78468500Y-65060100D03*
X74578500Y-64272600D03*
%TO.N,/SENSE_SEL*%
X121973600Y-77846100D03*
%TO.N,/STEP_3*%
X68487200Y-54815700D03*
%TO.N,/STEP_4*%
X68445400Y-53667900D03*
%TO.N,/SW_IN*%
X124234400Y-71312500D03*
D19*
%TO.N,/VMOT*%
X125108600Y-80037700D03*
X69013900Y-48043900D03*
X75113600Y-67742700D03*
%TO.N,/VMOT_IN*%
X69922700Y-64087500D03*
D18*
%TO.N,GND*%
X70500000Y-89500000D03*
X80427098Y-77492871D03*
X112500000Y-86500000D03*
X61500000Y-65500000D03*
X73850000Y-46400000D03*
X67500000Y-50500000D03*
X61500000Y-89500000D03*
X124772901Y-67694628D03*
X79500000Y-59500000D03*
X79500000Y-56500000D03*
X115500000Y-83500000D03*
X61500000Y-80500000D03*
X73500000Y-62500000D03*
X76500000Y-47500000D03*
X118500000Y-83500000D03*
X73500000Y-71500000D03*
X67500000Y-77500000D03*
X61500000Y-59500000D03*
X72672901Y-81932128D03*
X124500000Y-47500000D03*
X112500000Y-83500000D03*
X67500000Y-44500000D03*
X67500000Y-41500000D03*
X64500000Y-71500000D03*
X67500000Y-89500000D03*
X75118997Y-81506497D03*
X67500000Y-59500000D03*
X76852943Y-78702943D03*
X79500000Y-47500000D03*
X61500000Y-86500000D03*
X72527098Y-63694628D03*
X61500000Y-77500000D03*
X73500000Y-65500000D03*
X77036525Y-86135819D03*
X64500000Y-44500000D03*
X70500000Y-41500000D03*
X61500000Y-44500000D03*
X111217310Y-44731559D03*
X85500000Y-89500000D03*
X64500000Y-83500000D03*
X70500000Y-77500000D03*
X70500000Y-74500000D03*
X79700000Y-62987500D03*
X76500000Y-74500000D03*
X101195382Y-86471200D03*
X109500000Y-83500000D03*
X124216372Y-75866372D03*
X67500000Y-65500000D03*
X64500000Y-62500000D03*
X70500000Y-44500000D03*
X90073686Y-86471200D03*
X61500000Y-41500000D03*
X61500000Y-71500000D03*
X79500000Y-53500000D03*
X82500000Y-89500000D03*
X61500000Y-62500000D03*
X67500000Y-68500000D03*
X67500000Y-71500000D03*
X127717310Y-74205940D03*
X73500000Y-80500000D03*
X74300974Y-47569180D03*
X70500000Y-83500000D03*
X76500000Y-68500000D03*
X106500000Y-83500000D03*
X76500000Y-89500000D03*
X73500000Y-59500000D03*
X61500000Y-68500000D03*
X79500000Y-44500000D03*
X64500000Y-65500000D03*
X64500000Y-68500000D03*
X67500000Y-80500000D03*
X113651872Y-48053397D03*
X61500000Y-83500000D03*
X70500000Y-86500000D03*
X61500000Y-74500000D03*
X73500000Y-74500000D03*
X124500000Y-53500000D03*
X124500000Y-50500000D03*
X64500000Y-41500000D03*
X67500000Y-47500000D03*
%TD*%
D20*
%TO.N,+3V3*%
X86400000Y-47663500D02*
X86400000Y-47775400D01*
X95560000Y-89623100D02*
X94471000Y-89623100D01*
X95560000Y-89624600D02*
X95560000Y-89623100D01*
X86810900Y-48186300D02*
X100116800Y-48186300D01*
X86400000Y-46600000D02*
X86400000Y-47663500D01*
X95560000Y-89736500D02*
X95560000Y-89624600D01*
X98860800Y-85423100D02*
X101610100Y-85423100D01*
X83758900Y-82088300D02*
X83758900Y-50418000D01*
X86400000Y-47775400D02*
X86810900Y-48186300D01*
X83758900Y-50418000D02*
X86400000Y-47776900D01*
X87020000Y-85349400D02*
X83758900Y-82088300D01*
X90197300Y-85349400D02*
X87020000Y-85349400D01*
X86400000Y-47775400D02*
X86400000Y-47776900D01*
X95560000Y-89623100D02*
X98170000Y-87013100D01*
X98170000Y-87013100D02*
X98170000Y-86113900D01*
X98170000Y-86113900D02*
X98860800Y-85423100D01*
X95560000Y-90800000D02*
X95560000Y-89736500D01*
X94471000Y-89623100D02*
X90197300Y-85349400D01*
X101610100Y-85423100D02*
X104020700Y-87833700D01*
D21*
%TO.N,+5V*%
X82158100Y-86600000D02*
X82158100Y-83681200D01*
X83678900Y-49428500D02*
X82158100Y-50949300D01*
X82158100Y-50949300D02*
X82158100Y-83681200D01*
X83360000Y-86600000D02*
X82158100Y-86600000D01*
D20*
%TO.N,/D0_RX*%
X121469500Y-41329300D02*
X122323100Y-42182900D01*
X117150000Y-43170200D02*
X117150000Y-42041700D01*
X115684400Y-44635800D02*
X117150000Y-43170200D01*
X123500000Y-42540000D02*
X122323100Y-42540000D01*
X122323100Y-42182900D02*
X122323100Y-42540000D01*
X117150000Y-42041700D02*
X117862400Y-41329300D01*
X116800100Y-48700000D02*
X115684400Y-47584300D01*
X117862400Y-41329300D02*
X121469500Y-41329300D01*
X115684400Y-47584300D02*
X115684400Y-44635800D01*
%TO.N,/D11_MOSI*%
X76651600Y-55045300D02*
X76651600Y-62065900D01*
X92076700Y-43716900D02*
X86474100Y-43716900D01*
X76830600Y-53360400D02*
X76830600Y-54866300D01*
X79137500Y-64551800D02*
X79137500Y-83316600D01*
X94040000Y-42540000D02*
X92863100Y-42540000D01*
X92863100Y-42930500D02*
X92076700Y-43716900D01*
X76651600Y-62065900D02*
X79137500Y-64551800D01*
X92863100Y-42540000D02*
X92863100Y-42930500D01*
X76830600Y-54866300D02*
X76651600Y-55045300D01*
X86474100Y-43716900D02*
X76830600Y-53360400D01*
X79137500Y-83316600D02*
X78569000Y-83885100D01*
%TO.N,/D2_SW*%
X118420000Y-42540000D02*
X118420000Y-43716900D01*
X122100300Y-47397200D02*
X122100300Y-68587800D01*
X118420000Y-43716900D02*
X122100300Y-47397200D01*
%TO.N,/D7_IN2*%
X77334600Y-53495500D02*
X86661300Y-44168800D01*
X86661300Y-44168800D02*
X102914300Y-44168800D01*
X102914300Y-44168800D02*
X104543100Y-42540000D01*
X105720000Y-42540000D02*
X104543100Y-42540000D01*
X77334600Y-56258700D02*
X77334600Y-53495500D01*
%TO.N,/Q1_GATE*%
X75366000Y-65060100D02*
X74578500Y-64272600D01*
X78468500Y-65060100D02*
X75366000Y-65060100D01*
%TO.N,/SENSE_SEL*%
X122787000Y-81043900D02*
X122787000Y-78659500D01*
X122787000Y-78659500D02*
X121973600Y-77846100D01*
X118040000Y-85423100D02*
X118407800Y-85423100D01*
X118040000Y-86600000D02*
X118040000Y-85423100D01*
X118407800Y-85423100D02*
X122787000Y-81043900D01*
D21*
%TO.N,/STEP_3*%
X65573400Y-51901900D02*
X68487200Y-54815700D01*
X63400000Y-50700000D02*
X63400000Y-51901900D01*
X63400000Y-51901900D02*
X65573400Y-51901900D01*
%TO.N,/STEP_4*%
X68445400Y-53667900D02*
X63400000Y-48622500D01*
X63400000Y-48622500D02*
X63400000Y-48200000D01*
D20*
%TO.N,/SW_IN*%
X123782100Y-65627000D02*
X123782100Y-70860200D01*
X125000000Y-64776900D02*
X124632200Y-64776900D01*
X125000000Y-63600000D02*
X125000000Y-64776900D01*
X123782100Y-70860200D02*
X124234400Y-71312500D01*
X124632200Y-64776900D02*
X123782100Y-65627000D01*
D22*
%TO.N,/VMOT*%
X75113600Y-76134500D02*
X75113600Y-67742700D01*
X66335200Y-58200000D02*
X63400000Y-58200000D01*
X69013900Y-48043900D02*
X69383100Y-48413100D01*
X65000000Y-86248100D02*
X75113600Y-76134500D01*
X125207100Y-82724500D02*
X125207100Y-80136200D01*
X69383100Y-55152100D02*
X66335200Y-58200000D01*
X125207100Y-80136200D02*
X125108600Y-80037700D01*
X69383100Y-48413100D02*
X69383100Y-55152100D01*
X122962200Y-86276400D02*
X122962200Y-84969400D01*
X107900000Y-86600000D02*
X109304500Y-88004500D01*
X109304500Y-88004500D02*
X121234100Y-88004500D01*
X65000000Y-87600000D02*
X65000000Y-86248100D01*
X121234100Y-88004500D02*
X122962200Y-86276400D01*
X122962200Y-84969400D02*
X125207100Y-82724500D01*
%TO.N,/VMOT_IN*%
X64400000Y-80000000D02*
X64400000Y-78148100D01*
X69922700Y-72625400D02*
X69922700Y-64087500D01*
X64400000Y-78148100D02*
X69922700Y-72625400D01*
%TD*%
%TA.AperFunction,Conductor*%
%TO.N,GND*%
G36*
X102720507Y-90590156D02*
G01*
X102680000Y-90728111D01*
X102680000Y-90871889D01*
X102720507Y-91009844D01*
X102746314Y-91050000D01*
X101073686Y-91050000D01*
X101099493Y-91009844D01*
X101140000Y-90871889D01*
X101140000Y-90728111D01*
X101099493Y-90590156D01*
X101073686Y-90550000D01*
X102746314Y-90550000D01*
X102720507Y-90590156D01*
G37*
%TD.AperFunction*%
%TA.AperFunction,Conductor*%
G36*
X121505703Y-78226907D02*
G01*
X121522872Y-78245129D01*
X121545318Y-78274382D01*
X121670759Y-78370636D01*
X121816838Y-78431144D01*
X121936398Y-78446884D01*
X122000295Y-78475150D01*
X122007894Y-78482142D01*
X122325181Y-78799429D01*
X122358666Y-78860752D01*
X122361500Y-78887110D01*
X122361500Y-80816290D01*
X122341815Y-80883329D01*
X122325181Y-80903971D01*
X118267871Y-84961281D01*
X118206548Y-84994766D01*
X118180190Y-84997600D01*
X118083245Y-84997600D01*
X118063847Y-84996073D01*
X118040000Y-84992296D01*
X118039999Y-84992296D01*
X118027612Y-84994258D01*
X118006512Y-84997600D01*
X118006511Y-84997600D01*
X117906878Y-85013379D01*
X117906874Y-85013380D01*
X117906874Y-85013381D01*
X117876664Y-85028774D01*
X117786778Y-85074573D01*
X117786774Y-85074576D01*
X117691476Y-85169874D01*
X117691473Y-85169878D01*
X117630279Y-85289978D01*
X117609196Y-85423097D01*
X117609196Y-85423101D01*
X117609949Y-85427857D01*
X117600992Y-85497150D01*
X117555994Y-85550601D01*
X117532273Y-85562876D01*
X117524987Y-85565698D01*
X117524979Y-85565702D01*
X117343699Y-85677947D01*
X117186127Y-85821593D01*
X117057632Y-85991746D01*
X116962596Y-86182605D01*
X116962596Y-86182607D01*
X116904244Y-86387689D01*
X116897970Y-86455394D01*
X116872183Y-86520331D01*
X116815383Y-86561018D01*
X116745602Y-86564538D01*
X116684995Y-86529772D01*
X116652806Y-86467759D01*
X116650499Y-86443952D01*
X116650499Y-85705143D01*
X116650499Y-85705137D01*
X116650499Y-85705136D01*
X116649663Y-85697928D01*
X116647586Y-85680012D01*
X116647585Y-85680010D01*
X116647585Y-85680009D01*
X116602206Y-85577235D01*
X116522765Y-85497794D01*
X116502124Y-85488680D01*
X116419992Y-85452415D01*
X116394865Y-85449500D01*
X114605143Y-85449500D01*
X114605117Y-85449502D01*
X114580012Y-85452413D01*
X114580008Y-85452415D01*
X114477235Y-85497793D01*
X114397794Y-85577234D01*
X114352415Y-85680006D01*
X114352415Y-85680008D01*
X114352415Y-85680009D01*
X114349500Y-85705135D01*
X114349500Y-86528111D01*
X114349501Y-87230000D01*
X114329816Y-87297039D01*
X114277013Y-87342794D01*
X114225501Y-87354000D01*
X111662268Y-87354000D01*
X111595229Y-87334315D01*
X111549474Y-87281511D01*
X111539530Y-87212353D01*
X111549886Y-87177596D01*
X111619100Y-87029164D01*
X111619105Y-87029150D01*
X111667108Y-86850000D01*
X110873686Y-86850000D01*
X110899493Y-86809844D01*
X110940000Y-86671889D01*
X110940000Y-86528111D01*
X110899493Y-86390156D01*
X110873686Y-86350000D01*
X111667108Y-86350000D01*
X111667108Y-86349999D01*
X111619105Y-86170849D01*
X111619101Y-86170840D01*
X111526666Y-85972612D01*
X111526664Y-85972608D01*
X111401216Y-85793450D01*
X111401211Y-85793444D01*
X111246554Y-85638787D01*
X111067387Y-85513333D01*
X110869159Y-85420898D01*
X110869150Y-85420894D01*
X110690000Y-85372891D01*
X110690000Y-86164498D01*
X110582315Y-86115320D01*
X110475763Y-86100000D01*
X110404237Y-86100000D01*
X110297685Y-86115320D01*
X110190000Y-86164498D01*
X110190000Y-85372892D01*
X110189999Y-85372891D01*
X110010849Y-85420894D01*
X110010840Y-85420898D01*
X109812612Y-85513333D01*
X109812608Y-85513335D01*
X109633450Y-85638783D01*
X109633444Y-85638788D01*
X109478788Y-85793444D01*
X109478783Y-85793450D01*
X109353335Y-85972608D01*
X109353333Y-85972612D01*
X109260898Y-86170840D01*
X109260895Y-86170847D01*
X109237968Y-86256413D01*
X109201603Y-86316073D01*
X109138756Y-86346602D01*
X109069380Y-86338307D01*
X109015502Y-86293822D01*
X108998927Y-86258253D01*
X108977405Y-86182611D01*
X108977403Y-86182608D01*
X108977403Y-86182605D01*
X108882367Y-85991746D01*
X108753872Y-85821593D01*
X108724246Y-85794585D01*
X108596302Y-85677948D01*
X108415019Y-85565702D01*
X108415017Y-85565701D01*
X108289479Y-85517068D01*
X108216198Y-85488679D01*
X108006610Y-85449500D01*
X107793390Y-85449500D01*
X107583802Y-85488679D01*
X107583799Y-85488679D01*
X107583799Y-85488680D01*
X107384982Y-85565701D01*
X107384980Y-85565702D01*
X107203699Y-85677947D01*
X107046127Y-85821593D01*
X106917632Y-85991746D01*
X106822596Y-86182605D01*
X106822596Y-86182607D01*
X106764244Y-86387689D01*
X106757970Y-86455394D01*
X106732183Y-86520331D01*
X106675383Y-86561018D01*
X106605602Y-86564538D01*
X106544995Y-86529772D01*
X106512806Y-86467759D01*
X106510499Y-86443952D01*
X106510499Y-85705143D01*
X106510499Y-85705137D01*
X106510499Y-85705136D01*
X106509663Y-85697928D01*
X106507586Y-85680012D01*
X106507585Y-85680010D01*
X106507585Y-85680009D01*
X106462206Y-85577235D01*
X106382765Y-85497794D01*
X106362124Y-85488680D01*
X106279992Y-85452415D01*
X106254865Y-85449500D01*
X104465143Y-85449500D01*
X104465117Y-85449502D01*
X104440012Y-85452413D01*
X104440008Y-85452415D01*
X104337235Y-85497793D01*
X104257794Y-85577234D01*
X104212415Y-85680006D01*
X104212415Y-85680008D01*
X104209500Y-85705131D01*
X104209500Y-87111479D01*
X104189815Y-87178518D01*
X104137011Y-87224273D01*
X104069313Y-87234418D01*
X104057898Y-87232915D01*
X103994002Y-87204647D01*
X103986404Y-87197657D01*
X101887294Y-85098546D01*
X101863318Y-85074570D01*
X101841803Y-85063608D01*
X101825210Y-85053440D01*
X101805680Y-85039250D01*
X101782715Y-85031788D01*
X101764741Y-85024343D01*
X101743227Y-85013381D01*
X101738110Y-85012570D01*
X101719373Y-85009603D01*
X101700458Y-85005062D01*
X101677494Y-84997600D01*
X101677493Y-84997600D01*
X101643588Y-84997600D01*
X98928193Y-84997600D01*
X98793407Y-84997600D01*
X98793404Y-84997601D01*
X98770435Y-85005063D01*
X98751522Y-85009603D01*
X98727674Y-85013380D01*
X98706159Y-85024342D01*
X98688189Y-85031785D01*
X98665221Y-85039248D01*
X98665217Y-85039249D01*
X98645680Y-85053444D01*
X98629098Y-85063606D01*
X98607583Y-85074569D01*
X98607580Y-85074571D01*
X97916780Y-85765372D01*
X97916776Y-85765376D01*
X97893398Y-85788752D01*
X97832074Y-85822234D01*
X97762382Y-85817247D01*
X97722182Y-85792704D01*
X97717847Y-85788752D01*
X97596302Y-85677948D01*
X97415019Y-85565702D01*
X97415017Y-85565701D01*
X97289479Y-85517068D01*
X97216198Y-85488679D01*
X97006610Y-85449500D01*
X96793390Y-85449500D01*
X96583802Y-85488679D01*
X96583799Y-85488679D01*
X96583799Y-85488680D01*
X96384982Y-85565701D01*
X96384980Y-85565702D01*
X96203699Y-85677947D01*
X96046127Y-85821593D01*
X95917632Y-85991746D01*
X95822596Y-86182605D01*
X95822596Y-86182607D01*
X95764244Y-86387689D01*
X95757970Y-86455394D01*
X95732183Y-86520331D01*
X95675383Y-86561018D01*
X95605602Y-86564538D01*
X95544995Y-86529772D01*
X95512806Y-86467759D01*
X95510499Y-86443952D01*
X95510499Y-85705143D01*
X95510499Y-85705137D01*
X95510499Y-85705136D01*
X95509663Y-85697928D01*
X95507586Y-85680012D01*
X95507585Y-85680010D01*
X95507585Y-85680009D01*
X95462206Y-85577235D01*
X95382765Y-85497794D01*
X95362124Y-85488680D01*
X95279992Y-85452415D01*
X95254865Y-85449500D01*
X93465143Y-85449500D01*
X93465117Y-85449502D01*
X93440012Y-85452413D01*
X93440008Y-85452415D01*
X93337235Y-85497793D01*
X93257794Y-85577234D01*
X93212415Y-85680006D01*
X93212415Y-85680008D01*
X93209500Y-85705131D01*
X93209500Y-87460490D01*
X93189815Y-87527529D01*
X93137011Y-87573284D01*
X93067853Y-87583228D01*
X93004297Y-87554203D01*
X92997819Y-87548171D01*
X90450518Y-85000870D01*
X90429003Y-84989908D01*
X90412410Y-84979740D01*
X90392880Y-84965550D01*
X90369915Y-84958088D01*
X90351941Y-84950643D01*
X90330427Y-84939681D01*
X90325310Y-84938870D01*
X90306573Y-84935903D01*
X90287658Y-84931362D01*
X90264694Y-84923900D01*
X90264693Y-84923900D01*
X90230788Y-84923900D01*
X87247610Y-84923900D01*
X87180571Y-84904215D01*
X87159929Y-84887581D01*
X84220719Y-81948371D01*
X84187234Y-81887048D01*
X84184400Y-81860690D01*
X84184400Y-80919062D01*
X84204085Y-80852023D01*
X84256889Y-80806268D01*
X84326047Y-80796324D01*
X84389603Y-80825349D01*
X84415787Y-80857062D01*
X84499727Y-81002450D01*
X84499729Y-81002453D01*
X84499730Y-81002454D01*
X84643406Y-81189697D01*
X84643412Y-81189704D01*
X84810295Y-81356587D01*
X84810302Y-81356593D01*
X84920306Y-81441001D01*
X84997550Y-81500273D01*
X85087499Y-81552205D01*
X85201943Y-81618280D01*
X85201948Y-81618282D01*
X85201951Y-81618284D01*
X85420007Y-81708606D01*
X85647986Y-81769693D01*
X85881989Y-81800500D01*
X85881996Y-81800500D01*
X119618004Y-81800500D01*
X119618011Y-81800500D01*
X119852014Y-81769693D01*
X120079993Y-81708606D01*
X120298049Y-81618284D01*
X120502450Y-81500273D01*
X120689699Y-81356592D01*
X120856592Y-81189699D01*
X121000273Y-81002450D01*
X121118284Y-80798049D01*
X121208606Y-80579993D01*
X121269693Y-80352014D01*
X121300500Y-80118011D01*
X121300500Y-80000000D01*
X121300500Y-79952405D01*
X121300500Y-78320620D01*
X121320185Y-78253581D01*
X121372989Y-78207826D01*
X121442147Y-78197882D01*
X121505703Y-78226907D01*
G37*
%TD.AperFunction*%
%TA.AperFunction,Conductor*%
G36*
X124411206Y-40320185D02*
G01*
X124431848Y-40336819D01*
X125703181Y-41608152D01*
X125736666Y-41669475D01*
X125739500Y-41695833D01*
X125739500Y-52882860D01*
X125738312Y-52899987D01*
X125737227Y-52907764D01*
X125739368Y-52954078D01*
X125739500Y-52959803D01*
X125739500Y-52977842D01*
X125739947Y-52982671D01*
X125741181Y-52993305D01*
X125742415Y-53019991D01*
X125744923Y-53025672D01*
X125745213Y-53026327D01*
X125753666Y-53053626D01*
X125754938Y-53060432D01*
X125768998Y-53083140D01*
X125777004Y-53098329D01*
X125787791Y-53122760D01*
X125787793Y-53122762D01*
X125787794Y-53122765D01*
X125787796Y-53122767D01*
X125792688Y-53127659D01*
X125810435Y-53150064D01*
X125814079Y-53155950D01*
X125814080Y-53155951D01*
X125814081Y-53155952D01*
X125825823Y-53164819D01*
X125835396Y-53172048D01*
X125848350Y-53183321D01*
X128243180Y-55578151D01*
X128276665Y-55639474D01*
X128279499Y-55665832D01*
X128279499Y-88084165D01*
X128259814Y-88151204D01*
X128243180Y-88171846D01*
X125874986Y-90540041D01*
X125862035Y-90551312D01*
X125855767Y-90556044D01*
X125824522Y-90590318D01*
X125820574Y-90594453D01*
X125807827Y-90607200D01*
X125804752Y-90610903D01*
X125798086Y-90619318D01*
X125780083Y-90639067D01*
X125780083Y-90639068D01*
X125777579Y-90645531D01*
X125764259Y-90670800D01*
X125760345Y-90676514D01*
X125760342Y-90676519D01*
X125754225Y-90702524D01*
X125749149Y-90718914D01*
X125739500Y-90743823D01*
X125739500Y-90750749D01*
X125736207Y-90779135D01*
X125734621Y-90785876D01*
X125734621Y-90785882D01*
X125738311Y-90812333D01*
X125739500Y-90829464D01*
X125739500Y-92915500D01*
X125719815Y-92982539D01*
X125667011Y-93028294D01*
X125615500Y-93039500D01*
X60424500Y-93039500D01*
X60357461Y-93019815D01*
X60311706Y-92967011D01*
X60300500Y-92915500D01*
X60300500Y-90867763D01*
X72115787Y-90867763D01*
X72145413Y-91137013D01*
X72145415Y-91137024D01*
X72188023Y-91300000D01*
X72213928Y-91399088D01*
X72319870Y-91648390D01*
X72460979Y-91879605D01*
X72460986Y-91879615D01*
X72634253Y-92087819D01*
X72634259Y-92087824D01*
X72835998Y-92268582D01*
X73061910Y-92418044D01*
X73307176Y-92533020D01*
X73307183Y-92533022D01*
X73307185Y-92533023D01*
X73566557Y-92611057D01*
X73566564Y-92611058D01*
X73566569Y-92611060D01*
X73834561Y-92650500D01*
X73834566Y-92650500D01*
X74037629Y-92650500D01*
X74037631Y-92650500D01*
X74037636Y-92650499D01*
X74037648Y-92650499D01*
X74075191Y-92647750D01*
X74240156Y-92635677D01*
X74352758Y-92610593D01*
X74504546Y-92576782D01*
X74504548Y-92576781D01*
X74504553Y-92576780D01*
X74757558Y-92480014D01*
X74993777Y-92347441D01*
X75208177Y-92181888D01*
X75396186Y-91986881D01*
X75553799Y-91766579D01*
X75590674Y-91694856D01*
X86789500Y-91694856D01*
X86789502Y-91694882D01*
X86792413Y-91719987D01*
X86792415Y-91719991D01*
X86837793Y-91822764D01*
X86837794Y-91822765D01*
X86917235Y-91902206D01*
X87020009Y-91947585D01*
X87045135Y-91950500D01*
X88834864Y-91950499D01*
X88834879Y-91950497D01*
X88834882Y-91950497D01*
X88859987Y-91947586D01*
X88859988Y-91947585D01*
X88859991Y-91947585D01*
X88962765Y-91902206D01*
X89042206Y-91822765D01*
X89087585Y-91719991D01*
X89090500Y-91694865D01*
X89090499Y-90956046D01*
X89110183Y-90889009D01*
X89162987Y-90843254D01*
X89232146Y-90833310D01*
X89295702Y-90862335D01*
X89333476Y-90921113D01*
X89337970Y-90944606D01*
X89343374Y-91002924D01*
X89344244Y-91012310D01*
X89381596Y-91143588D01*
X89402596Y-91217392D01*
X89402596Y-91217394D01*
X89497632Y-91408253D01*
X89626127Y-91578406D01*
X89626128Y-91578407D01*
X89783698Y-91722052D01*
X89964981Y-91834298D01*
X90163802Y-91911321D01*
X90373390Y-91950500D01*
X90373392Y-91950500D01*
X90586608Y-91950500D01*
X90586610Y-91950500D01*
X90796198Y-91911321D01*
X90995019Y-91834298D01*
X91176302Y-91722052D01*
X91333872Y-91578407D01*
X91462366Y-91408255D01*
X91516270Y-91300000D01*
X91557403Y-91217394D01*
X91557403Y-91217393D01*
X91557405Y-91217389D01*
X91615756Y-91012310D01*
X91626529Y-90896047D01*
X91652315Y-90831111D01*
X91694622Y-90800804D01*
X91803130Y-90800804D01*
X91839503Y-90821668D01*
X91871693Y-90883681D01*
X91873470Y-90896047D01*
X91884244Y-91012310D01*
X91921596Y-91143588D01*
X91942596Y-91217392D01*
X91942596Y-91217394D01*
X92037632Y-91408253D01*
X92166127Y-91578406D01*
X92166128Y-91578407D01*
X92323698Y-91722052D01*
X92504981Y-91834298D01*
X92703802Y-91911321D01*
X92913390Y-91950500D01*
X92913392Y-91950500D01*
X93126608Y-91950500D01*
X93126610Y-91950500D01*
X93336198Y-91911321D01*
X93535019Y-91834298D01*
X93716302Y-91722052D01*
X93873872Y-91578407D01*
X94002366Y-91408255D01*
X94056270Y-91300000D01*
X94097403Y-91217394D01*
X94097403Y-91217393D01*
X94097405Y-91217389D01*
X94155756Y-91012310D01*
X94166529Y-90896047D01*
X94192315Y-90831111D01*
X94236869Y-90799194D01*
X94200497Y-90778331D01*
X94168307Y-90716318D01*
X94166529Y-90703951D01*
X94163987Y-90676519D01*
X94155756Y-90587690D01*
X94097405Y-90382611D01*
X94097403Y-90382606D01*
X94097403Y-90382605D01*
X94002367Y-90191746D01*
X93873872Y-90021593D01*
X93865994Y-90014411D01*
X93716302Y-89877948D01*
X93535019Y-89765702D01*
X93535017Y-89765701D01*
X93435608Y-89727190D01*
X93336198Y-89688679D01*
X93126610Y-89649500D01*
X92913390Y-89649500D01*
X92703802Y-89688679D01*
X92703799Y-89688679D01*
X92703799Y-89688680D01*
X92504982Y-89765701D01*
X92504980Y-89765702D01*
X92323699Y-89877947D01*
X92166127Y-90021593D01*
X92037632Y-90191746D01*
X91942596Y-90382605D01*
X91942596Y-90382607D01*
X91884244Y-90587689D01*
X91873471Y-90703951D01*
X91847685Y-90768888D01*
X91803130Y-90800804D01*
X91694622Y-90800804D01*
X91696869Y-90799194D01*
X91660497Y-90778331D01*
X91628307Y-90716318D01*
X91626529Y-90703951D01*
X91623987Y-90676519D01*
X91615756Y-90587690D01*
X91557405Y-90382611D01*
X91557403Y-90382606D01*
X91557403Y-90382605D01*
X91462367Y-90191746D01*
X91333872Y-90021593D01*
X91325994Y-90014411D01*
X91176302Y-89877948D01*
X90995019Y-89765702D01*
X90995017Y-89765701D01*
X90895608Y-89727190D01*
X90796198Y-89688679D01*
X90586610Y-89649500D01*
X90373390Y-89649500D01*
X90163802Y-89688679D01*
X90163799Y-89688679D01*
X90163799Y-89688680D01*
X89964982Y-89765701D01*
X89964980Y-89765702D01*
X89783699Y-89877947D01*
X89626127Y-90021593D01*
X89497632Y-90191746D01*
X89402596Y-90382605D01*
X89402596Y-90382607D01*
X89344244Y-90587689D01*
X89337970Y-90655394D01*
X89312183Y-90720331D01*
X89255383Y-90761018D01*
X89185602Y-90764538D01*
X89124995Y-90729772D01*
X89092806Y-90667759D01*
X89090499Y-90643952D01*
X89090499Y-89905143D01*
X89090499Y-89905136D01*
X89090497Y-89905117D01*
X89087586Y-89880012D01*
X89087585Y-89880010D01*
X89087585Y-89880009D01*
X89042206Y-89777235D01*
X88962765Y-89697794D01*
X88942124Y-89688680D01*
X88859992Y-89652415D01*
X88834865Y-89649500D01*
X87045143Y-89649500D01*
X87045117Y-89649502D01*
X87020012Y-89652413D01*
X87020008Y-89652415D01*
X86917235Y-89697793D01*
X86837794Y-89777234D01*
X86792415Y-89880006D01*
X86792415Y-89880008D01*
X86789500Y-89905131D01*
X86789500Y-91694856D01*
X75590674Y-91694856D01*
X75650545Y-91578407D01*
X75677649Y-91525690D01*
X75677651Y-91525684D01*
X75677656Y-91525675D01*
X75765118Y-91269305D01*
X75814319Y-91002933D01*
X75824212Y-90732235D01*
X75794586Y-90462982D01*
X75726072Y-90200912D01*
X75620130Y-89951610D01*
X75479018Y-89720390D01*
X75422449Y-89652415D01*
X75305746Y-89512180D01*
X75305740Y-89512175D01*
X75104002Y-89331418D01*
X74878092Y-89181957D01*
X74833986Y-89161281D01*
X74632824Y-89066980D01*
X74632819Y-89066978D01*
X74632814Y-89066976D01*
X74373442Y-88988942D01*
X74373428Y-88988939D01*
X74257791Y-88971921D01*
X74105439Y-88949500D01*
X73902369Y-88949500D01*
X73902351Y-88949500D01*
X73699844Y-88964323D01*
X73699831Y-88964325D01*
X73435453Y-89023217D01*
X73435446Y-89023220D01*
X73182439Y-89119987D01*
X72946226Y-89252557D01*
X72731822Y-89418112D01*
X72543822Y-89613109D01*
X72543816Y-89613116D01*
X72386202Y-89833419D01*
X72386199Y-89833424D01*
X72262350Y-90074309D01*
X72262343Y-90074327D01*
X72174884Y-90330685D01*
X72174881Y-90330699D01*
X72151661Y-90456412D01*
X72136535Y-90538307D01*
X72125681Y-90597068D01*
X72125680Y-90597075D01*
X72115787Y-90867763D01*
X60300500Y-90867763D01*
X60300500Y-88444856D01*
X63899500Y-88444856D01*
X63899502Y-88444882D01*
X63902413Y-88469987D01*
X63902415Y-88469991D01*
X63947793Y-88572764D01*
X63947794Y-88572765D01*
X64027235Y-88652206D01*
X64130009Y-88697585D01*
X64155135Y-88700500D01*
X65844864Y-88700499D01*
X65844879Y-88700497D01*
X65844882Y-88700497D01*
X65869987Y-88697586D01*
X65869988Y-88697585D01*
X65869991Y-88697585D01*
X65972765Y-88652206D01*
X66052206Y-88572765D01*
X66097585Y-88469991D01*
X66100500Y-88444865D01*
X66100499Y-87600000D01*
X67294859Y-87600000D01*
X67315378Y-87821439D01*
X67376240Y-88035350D01*
X67475369Y-88234428D01*
X67491137Y-88255308D01*
X67491138Y-88255308D01*
X68102046Y-87644400D01*
X68114835Y-87725148D01*
X68172359Y-87838045D01*
X68261955Y-87927641D01*
X68374852Y-87985165D01*
X68455599Y-87997953D01*
X67846672Y-88606879D01*
X67846672Y-88606880D01*
X67962821Y-88678797D01*
X67962822Y-88678798D01*
X68170195Y-88759134D01*
X68388807Y-88800000D01*
X68611193Y-88800000D01*
X68829809Y-88759133D01*
X69037168Y-88678801D01*
X69037181Y-88678795D01*
X69153326Y-88606879D01*
X68544401Y-87997953D01*
X68625148Y-87985165D01*
X68738045Y-87927641D01*
X68827641Y-87838045D01*
X68885165Y-87725148D01*
X68897953Y-87644400D01*
X69508861Y-88255308D01*
X69524631Y-88234425D01*
X69524633Y-88234422D01*
X69623759Y-88035350D01*
X69684621Y-87821439D01*
X69705141Y-87600000D01*
X69705141Y-87599999D01*
X69684621Y-87378560D01*
X69623759Y-87164649D01*
X69524635Y-86965580D01*
X69524630Y-86965572D01*
X69508860Y-86944690D01*
X68897953Y-87555598D01*
X68885165Y-87474852D01*
X68827641Y-87361955D01*
X68738045Y-87272359D01*
X68625148Y-87214835D01*
X68544401Y-87202046D01*
X69153327Y-86593119D01*
X69037178Y-86521202D01*
X69037177Y-86521201D01*
X68829804Y-86440865D01*
X68611193Y-86400000D01*
X68388807Y-86400000D01*
X68170195Y-86440865D01*
X67962824Y-86521200D01*
X67962823Y-86521201D01*
X67846671Y-86593119D01*
X68455599Y-87202046D01*
X68374852Y-87214835D01*
X68261955Y-87272359D01*
X68172359Y-87361955D01*
X68114835Y-87474852D01*
X68102046Y-87555599D01*
X67491138Y-86944691D01*
X67491137Y-86944691D01*
X67475368Y-86965574D01*
X67376240Y-87164649D01*
X67315378Y-87378560D01*
X67294859Y-87599999D01*
X67294859Y-87600000D01*
X66100499Y-87600000D01*
X66100499Y-86755136D01*
X66099278Y-86744606D01*
X66097586Y-86730012D01*
X66097585Y-86730010D01*
X66097585Y-86730009D01*
X66052206Y-86627235D01*
X65972765Y-86547794D01*
X65972763Y-86547793D01*
X65893818Y-86512935D01*
X65840442Y-86467849D01*
X65819915Y-86401062D01*
X65838754Y-86333780D01*
X65856220Y-86311824D01*
X75513113Y-76654931D01*
X75525679Y-76644865D01*
X75525525Y-76644678D01*
X75531533Y-76639705D01*
X75531540Y-76639702D01*
X75554827Y-76614902D01*
X75579465Y-76588667D01*
X75582178Y-76585867D01*
X75586021Y-76582024D01*
X75602511Y-76565535D01*
X75605206Y-76562060D01*
X75612799Y-76553169D01*
X75644048Y-76519893D01*
X75654274Y-76501290D01*
X75664953Y-76485033D01*
X75677962Y-76468264D01*
X75696091Y-76426366D01*
X75701220Y-76415895D01*
X75723227Y-76375868D01*
X75728505Y-76355306D01*
X75734807Y-76336899D01*
X75743235Y-76317427D01*
X75750377Y-76272325D01*
X75752740Y-76260918D01*
X75764100Y-76216677D01*
X75764100Y-76195449D01*
X75765627Y-76176049D01*
X75768946Y-76155095D01*
X75764650Y-76109647D01*
X75764100Y-76097978D01*
X75764100Y-68025634D01*
X75772158Y-67981663D01*
X75798739Y-67911575D01*
X75798740Y-67911570D01*
X75819245Y-67742700D01*
X75798740Y-67573828D01*
X75738418Y-67414770D01*
X75641783Y-67274771D01*
X75514452Y-67161966D01*
X75514449Y-67161963D01*
X75363826Y-67082910D01*
X75198656Y-67042200D01*
X75028544Y-67042200D01*
X74863373Y-67082910D01*
X74712750Y-67161963D01*
X74585416Y-67274772D01*
X74488782Y-67414768D01*
X74428460Y-67573825D01*
X74428459Y-67573830D01*
X74407955Y-67742700D01*
X74428459Y-67911570D01*
X74428460Y-67911575D01*
X74455042Y-67981663D01*
X74463100Y-68025634D01*
X74463100Y-75813691D01*
X74443415Y-75880730D01*
X74426781Y-75901372D01*
X64600483Y-85727669D01*
X64587910Y-85737743D01*
X64588065Y-85737930D01*
X64582058Y-85742899D01*
X64534133Y-85793933D01*
X64531427Y-85796725D01*
X64511090Y-85817063D01*
X64511077Y-85817078D01*
X64508373Y-85820563D01*
X64500806Y-85829422D01*
X64469552Y-85862707D01*
X64459322Y-85881313D01*
X64448646Y-85897564D01*
X64435640Y-85914332D01*
X64435636Y-85914338D01*
X64417508Y-85956230D01*
X64412369Y-85966719D01*
X64390372Y-86006730D01*
X64390372Y-86006731D01*
X64385091Y-86027299D01*
X64378791Y-86045701D01*
X64370364Y-86065173D01*
X64363223Y-86110262D01*
X64360854Y-86121700D01*
X64349500Y-86165917D01*
X64349500Y-86187144D01*
X64347973Y-86206544D01*
X64344653Y-86227503D01*
X64348950Y-86272958D01*
X64349500Y-86284628D01*
X64349500Y-86375500D01*
X64329815Y-86442539D01*
X64277011Y-86488294D01*
X64225502Y-86499500D01*
X64155143Y-86499500D01*
X64155118Y-86499502D01*
X64130011Y-86502414D01*
X64130008Y-86502415D01*
X64027235Y-86547793D01*
X63947794Y-86627234D01*
X63902415Y-86730006D01*
X63902415Y-86730008D01*
X63899500Y-86755131D01*
X63899500Y-88444856D01*
X60300500Y-88444856D01*
X60300500Y-74920004D01*
X62695233Y-74920004D01*
X62714273Y-75174079D01*
X62770968Y-75422477D01*
X62770973Y-75422494D01*
X62864058Y-75659671D01*
X62864057Y-75659671D01*
X62991454Y-75880327D01*
X62991461Y-75880338D01*
X63033452Y-75932991D01*
X63033453Y-75932992D01*
X63797452Y-75168993D01*
X63807188Y-75198956D01*
X63895186Y-75337619D01*
X64014903Y-75450040D01*
X64149510Y-75524041D01*
X63386813Y-76286738D01*
X63547616Y-76396371D01*
X63547624Y-76396376D01*
X63777176Y-76506921D01*
X63777174Y-76506921D01*
X64020652Y-76582024D01*
X64020658Y-76582026D01*
X64272595Y-76619999D01*
X64272604Y-76620000D01*
X64527396Y-76620000D01*
X64527402Y-76619999D01*
X64720852Y-76590841D01*
X64790077Y-76600314D01*
X64843191Y-76645708D01*
X64863331Y-76712612D01*
X64844103Y-76779784D01*
X64827015Y-76801137D01*
X64000483Y-77627669D01*
X63987910Y-77637743D01*
X63988065Y-77637930D01*
X63982058Y-77642899D01*
X63934133Y-77693933D01*
X63931427Y-77696725D01*
X63911090Y-77717063D01*
X63911077Y-77717078D01*
X63908373Y-77720563D01*
X63900806Y-77729422D01*
X63869552Y-77762707D01*
X63859322Y-77781313D01*
X63848646Y-77797564D01*
X63835640Y-77814332D01*
X63835636Y-77814338D01*
X63817508Y-77856230D01*
X63812369Y-77866719D01*
X63790372Y-77906730D01*
X63790372Y-77906731D01*
X63785091Y-77927299D01*
X63778791Y-77945701D01*
X63770364Y-77965173D01*
X63763223Y-78010262D01*
X63760854Y-78021700D01*
X63749500Y-78065917D01*
X63749500Y-78087144D01*
X63747973Y-78106543D01*
X63744653Y-78127505D01*
X63748950Y-78172958D01*
X63749500Y-78184628D01*
X63749500Y-78275500D01*
X63729815Y-78342539D01*
X63677011Y-78388294D01*
X63625500Y-78399500D01*
X63055143Y-78399500D01*
X63055117Y-78399502D01*
X63030012Y-78402413D01*
X63030008Y-78402415D01*
X62927235Y-78447793D01*
X62847794Y-78527234D01*
X62802415Y-78630006D01*
X62802415Y-78630008D01*
X62799500Y-78655131D01*
X62799500Y-81344856D01*
X62799502Y-81344882D01*
X62802413Y-81369987D01*
X62802415Y-81369991D01*
X62847793Y-81472764D01*
X62847794Y-81472765D01*
X62927235Y-81552206D01*
X63030009Y-81597585D01*
X63055135Y-81600500D01*
X65744864Y-81600499D01*
X65744879Y-81600497D01*
X65744882Y-81600497D01*
X65769987Y-81597586D01*
X65769988Y-81597585D01*
X65769991Y-81597585D01*
X65872765Y-81552206D01*
X65952206Y-81472765D01*
X65997585Y-81369991D01*
X66000500Y-81344865D01*
X66000499Y-78655136D01*
X66000497Y-78655117D01*
X65997586Y-78630012D01*
X65997585Y-78630010D01*
X65997585Y-78630009D01*
X65952206Y-78527235D01*
X65872765Y-78447794D01*
X65847164Y-78436490D01*
X65769992Y-78402415D01*
X65744868Y-78399500D01*
X65744865Y-78399500D01*
X65367907Y-78399500D01*
X65300868Y-78379815D01*
X65255113Y-78327011D01*
X65245169Y-78257853D01*
X65274194Y-78194297D01*
X65280226Y-78187819D01*
X67654354Y-75813691D01*
X70322213Y-73145831D01*
X70334779Y-73135765D01*
X70334625Y-73135578D01*
X70340633Y-73130605D01*
X70340640Y-73130602D01*
X70363927Y-73105802D01*
X70388565Y-73079567D01*
X70391278Y-73076767D01*
X70411611Y-73056435D01*
X70414306Y-73052960D01*
X70421899Y-73044069D01*
X70453148Y-73010793D01*
X70463374Y-72992190D01*
X70474053Y-72975933D01*
X70487062Y-72959164D01*
X70505191Y-72917266D01*
X70510320Y-72906795D01*
X70532327Y-72866768D01*
X70537605Y-72846206D01*
X70543907Y-72827799D01*
X70552335Y-72808327D01*
X70559477Y-72763225D01*
X70561840Y-72751818D01*
X70573200Y-72707577D01*
X70573200Y-72686349D01*
X70574727Y-72666949D01*
X70578046Y-72645995D01*
X70573750Y-72600547D01*
X70573200Y-72588878D01*
X70573200Y-64370434D01*
X70581258Y-64326463D01*
X70601685Y-64272601D01*
X73972818Y-64272601D01*
X73993455Y-64429360D01*
X73993456Y-64429362D01*
X74020589Y-64494868D01*
X74053964Y-64575441D01*
X74150218Y-64700882D01*
X74275659Y-64797136D01*
X74421738Y-64857644D01*
X74541298Y-64873384D01*
X74605195Y-64901650D01*
X74612794Y-64908642D01*
X75010401Y-65306248D01*
X75010404Y-65306252D01*
X75017472Y-65313320D01*
X75112780Y-65408628D01*
X75134301Y-65419593D01*
X75150880Y-65429753D01*
X75170419Y-65443949D01*
X75193381Y-65451409D01*
X75211354Y-65458853D01*
X75232874Y-65469819D01*
X75256724Y-65473595D01*
X75275645Y-65478139D01*
X75297489Y-65485236D01*
X75298607Y-65485600D01*
X75332512Y-65485600D01*
X77994499Y-65485600D01*
X78061538Y-65505285D01*
X78069985Y-65511224D01*
X78165657Y-65584635D01*
X78165658Y-65584635D01*
X78165659Y-65584636D01*
X78311738Y-65645144D01*
X78365182Y-65652180D01*
X78468499Y-65665782D01*
X78468500Y-65665782D01*
X78571815Y-65652180D01*
X78640850Y-65662945D01*
X78693106Y-65709325D01*
X78712000Y-65775119D01*
X78712000Y-83088988D01*
X78692315Y-83156027D01*
X78675681Y-83176669D01*
X78603292Y-83249058D01*
X78541969Y-83282543D01*
X78531796Y-83284316D01*
X78412239Y-83300055D01*
X78412237Y-83300056D01*
X78266160Y-83360563D01*
X78140718Y-83456818D01*
X78044463Y-83582260D01*
X77983956Y-83728337D01*
X77983955Y-83728339D01*
X77963318Y-83885098D01*
X77963318Y-83885101D01*
X77983955Y-84041860D01*
X77983956Y-84041862D01*
X78038092Y-84172559D01*
X78044464Y-84187941D01*
X78140718Y-84313382D01*
X78266159Y-84409636D01*
X78412238Y-84470144D01*
X78490619Y-84480463D01*
X78568999Y-84490782D01*
X78569000Y-84490782D01*
X78569001Y-84490782D01*
X78621254Y-84483902D01*
X78725762Y-84470144D01*
X78871841Y-84409636D01*
X78997282Y-84313382D01*
X79093536Y-84187941D01*
X79154044Y-84041862D01*
X79169784Y-83922298D01*
X79198050Y-83858404D01*
X79205017Y-83850829D01*
X79462053Y-83593795D01*
X79486028Y-83569820D01*
X79496993Y-83548298D01*
X79507154Y-83531718D01*
X79521349Y-83512181D01*
X79528809Y-83489216D01*
X79536259Y-83471234D01*
X79547218Y-83449728D01*
X79547218Y-83449727D01*
X79547219Y-83449726D01*
X79550995Y-83425876D01*
X79555536Y-83406960D01*
X79563000Y-83383993D01*
X79563000Y-83249207D01*
X79563000Y-64518312D01*
X79563000Y-64484407D01*
X79562636Y-64483289D01*
X79555539Y-64461445D01*
X79550995Y-64442521D01*
X79547219Y-64418674D01*
X79536253Y-64397154D01*
X79528808Y-64379178D01*
X79523233Y-64362020D01*
X79521349Y-64356219D01*
X79507149Y-64336675D01*
X79496993Y-64320100D01*
X79486028Y-64298580D01*
X79390720Y-64203272D01*
X77113419Y-61925971D01*
X77079934Y-61864648D01*
X77077100Y-61838290D01*
X77077100Y-56971876D01*
X77096785Y-56904837D01*
X77149589Y-56859082D01*
X77217284Y-56848937D01*
X77334600Y-56864382D01*
X77334601Y-56864382D01*
X77386854Y-56857502D01*
X77491362Y-56843744D01*
X77637441Y-56783236D01*
X77762882Y-56686982D01*
X77859136Y-56561541D01*
X77919644Y-56415462D01*
X77940282Y-56258700D01*
X77936840Y-56232559D01*
X77919644Y-56101939D01*
X77919644Y-56101938D01*
X77859136Y-55955859D01*
X77859135Y-55955858D01*
X77859135Y-55955857D01*
X77785724Y-55860185D01*
X77760530Y-55795015D01*
X77760100Y-55784699D01*
X77760100Y-53723109D01*
X77779785Y-53656070D01*
X77796414Y-53635433D01*
X85037821Y-46394025D01*
X85099142Y-46360542D01*
X85168834Y-46365526D01*
X85224767Y-46407398D01*
X85249184Y-46472862D01*
X85249500Y-46481708D01*
X85249500Y-47494856D01*
X85249502Y-47494882D01*
X85252413Y-47519987D01*
X85252415Y-47519991D01*
X85297793Y-47622764D01*
X85297794Y-47622765D01*
X85377235Y-47702206D01*
X85480009Y-47747585D01*
X85505135Y-47750500D01*
X85525287Y-47750499D01*
X85592324Y-47770181D01*
X85638081Y-47822983D01*
X85648028Y-47892141D01*
X85619005Y-47955698D01*
X85612970Y-47962180D01*
X84406728Y-49168422D01*
X84345405Y-49201907D01*
X84275713Y-49196923D01*
X84219780Y-49155051D01*
X84204486Y-49128194D01*
X84203436Y-49125660D01*
X84203436Y-49125659D01*
X84107182Y-49000218D01*
X83981741Y-48903964D01*
X83867785Y-48856762D01*
X83835662Y-48843456D01*
X83835660Y-48843455D01*
X83678901Y-48822818D01*
X83678899Y-48822818D01*
X83522139Y-48843455D01*
X83522137Y-48843456D01*
X83376060Y-48903963D01*
X83250618Y-49000218D01*
X83154363Y-49125660D01*
X83093856Y-49271738D01*
X83083475Y-49350583D01*
X83055208Y-49414479D01*
X83048217Y-49422077D01*
X81862363Y-50607932D01*
X81851998Y-50617195D01*
X81824133Y-50639417D01*
X81824130Y-50639421D01*
X81791923Y-50686657D01*
X81789244Y-50690432D01*
X81755306Y-50736418D01*
X81751316Y-50743967D01*
X81747628Y-50751625D01*
X81730773Y-50806267D01*
X81729325Y-50810668D01*
X81710453Y-50864604D01*
X81708871Y-50872959D01*
X81707600Y-50881400D01*
X81707600Y-50938560D01*
X81707513Y-50943197D01*
X81705375Y-51000309D01*
X81706416Y-51009543D01*
X81705585Y-51009636D01*
X81707600Y-51024935D01*
X81707600Y-83239780D01*
X81687915Y-83306819D01*
X81681976Y-83315266D01*
X81633564Y-83378357D01*
X81573056Y-83524437D01*
X81573055Y-83524439D01*
X81552418Y-83681198D01*
X81552418Y-83681201D01*
X81573055Y-83837960D01*
X81573057Y-83837965D01*
X81633561Y-83984036D01*
X81633564Y-83984041D01*
X81681976Y-84047133D01*
X81707170Y-84112302D01*
X81707600Y-84122619D01*
X81707600Y-86535268D01*
X81704491Y-86562860D01*
X81703784Y-86565954D01*
X81707253Y-86612228D01*
X81707600Y-86621496D01*
X81707600Y-86633759D01*
X81707601Y-86633773D01*
X81709427Y-86645890D01*
X81710465Y-86655101D01*
X81713933Y-86701375D01*
X81713933Y-86701377D01*
X81713934Y-86701378D01*
X81714949Y-86703965D01*
X81715091Y-86704325D01*
X81722279Y-86731149D01*
X81722751Y-86734285D01*
X81722752Y-86734287D01*
X81733232Y-86756049D01*
X81742884Y-86776091D01*
X81746587Y-86784580D01*
X81747598Y-86787153D01*
X81763547Y-86827792D01*
X81763547Y-86827793D01*
X81765526Y-86830274D01*
X81780294Y-86853777D01*
X81781671Y-86856637D01*
X81781672Y-86856638D01*
X81781674Y-86856640D01*
X81781675Y-86856642D01*
X81813243Y-86890664D01*
X81819281Y-86897680D01*
X81848221Y-86933970D01*
X81850847Y-86935760D01*
X81871882Y-86953863D01*
X81874045Y-86956194D01*
X81914239Y-86979400D01*
X81922078Y-86984326D01*
X81936513Y-86994167D01*
X81960427Y-87010472D01*
X81963456Y-87011406D01*
X81988908Y-87022510D01*
X81991655Y-87024096D01*
X82036905Y-87034423D01*
X82045845Y-87036818D01*
X82090198Y-87050500D01*
X82099387Y-87051885D01*
X82098998Y-87054463D01*
X82152540Y-87070185D01*
X82198295Y-87122989D01*
X82209501Y-87174500D01*
X82209501Y-87494856D01*
X82209502Y-87494882D01*
X82212413Y-87519987D01*
X82212415Y-87519991D01*
X82257793Y-87622764D01*
X82257794Y-87622765D01*
X82337235Y-87702206D01*
X82440009Y-87747585D01*
X82465135Y-87750500D01*
X84254864Y-87750499D01*
X84254879Y-87750497D01*
X84254882Y-87750497D01*
X84279987Y-87747586D01*
X84279988Y-87747585D01*
X84279991Y-87747585D01*
X84382765Y-87702206D01*
X84462206Y-87622765D01*
X84507585Y-87519991D01*
X84510500Y-87494865D01*
X84510499Y-86756046D01*
X84530183Y-86689009D01*
X84582987Y-86643254D01*
X84652146Y-86633310D01*
X84715702Y-86662335D01*
X84753476Y-86721113D01*
X84757970Y-86744606D01*
X84761877Y-86786765D01*
X84764244Y-86812310D01*
X84819873Y-87007824D01*
X84822596Y-87017392D01*
X84822596Y-87017394D01*
X84917632Y-87208253D01*
X85033704Y-87361955D01*
X85046128Y-87378407D01*
X85203698Y-87522052D01*
X85384981Y-87634298D01*
X85583802Y-87711321D01*
X85793390Y-87750500D01*
X85793392Y-87750500D01*
X86006608Y-87750500D01*
X86006610Y-87750500D01*
X86216198Y-87711321D01*
X86415019Y-87634298D01*
X86596302Y-87522052D01*
X86753872Y-87378407D01*
X86882366Y-87208255D01*
X86904079Y-87164649D01*
X86977403Y-87017394D01*
X86977403Y-87017393D01*
X86977405Y-87017389D01*
X87035756Y-86812310D01*
X87055429Y-86600000D01*
X87035756Y-86387690D01*
X86977405Y-86182611D01*
X86977403Y-86182606D01*
X86977403Y-86182605D01*
X86908023Y-86043272D01*
X86882366Y-85991745D01*
X86868684Y-85973627D01*
X86843992Y-85908266D01*
X86858557Y-85839931D01*
X86907754Y-85790318D01*
X86967638Y-85774900D01*
X86986512Y-85774900D01*
X89969690Y-85774900D01*
X90036729Y-85794585D01*
X90057371Y-85811219D01*
X94122472Y-89876320D01*
X94217780Y-89971628D01*
X94239294Y-89982590D01*
X94255884Y-89992756D01*
X94275420Y-90006950D01*
X94298383Y-90014411D01*
X94316359Y-90021856D01*
X94337874Y-90032819D01*
X94361728Y-90036596D01*
X94380639Y-90041136D01*
X94403607Y-90048600D01*
X94437512Y-90048600D01*
X94448645Y-90048600D01*
X94515684Y-90068285D01*
X94561439Y-90121089D01*
X94571383Y-90190247D01*
X94559645Y-90227871D01*
X94482596Y-90382605D01*
X94482596Y-90382607D01*
X94424244Y-90587689D01*
X94413471Y-90703951D01*
X94387685Y-90768888D01*
X94343130Y-90800804D01*
X94379503Y-90821668D01*
X94411693Y-90883681D01*
X94413470Y-90896047D01*
X94424244Y-91012310D01*
X94461596Y-91143588D01*
X94482596Y-91217392D01*
X94482596Y-91217394D01*
X94577632Y-91408253D01*
X94706127Y-91578406D01*
X94706128Y-91578407D01*
X94863698Y-91722052D01*
X95044981Y-91834298D01*
X95243802Y-91911321D01*
X95453390Y-91950500D01*
X95453392Y-91950500D01*
X95666608Y-91950500D01*
X95666610Y-91950500D01*
X95876198Y-91911321D01*
X96075019Y-91834298D01*
X96256302Y-91722052D01*
X96413872Y-91578407D01*
X96542366Y-91408255D01*
X96596270Y-91300000D01*
X96637403Y-91217394D01*
X96637403Y-91217393D01*
X96637405Y-91217389D01*
X96695756Y-91012310D01*
X96706529Y-90896047D01*
X96732315Y-90831111D01*
X96774622Y-90800804D01*
X96883130Y-90800804D01*
X96919503Y-90821668D01*
X96951693Y-90883681D01*
X96953470Y-90896047D01*
X96964244Y-91012310D01*
X97001596Y-91143588D01*
X97022596Y-91217392D01*
X97022596Y-91217394D01*
X97117632Y-91408253D01*
X97246127Y-91578406D01*
X97246128Y-91578407D01*
X97403698Y-91722052D01*
X97584981Y-91834298D01*
X97783802Y-91911321D01*
X97993390Y-91950500D01*
X97993392Y-91950500D01*
X98206608Y-91950500D01*
X98206610Y-91950500D01*
X98416198Y-91911321D01*
X98615019Y-91834298D01*
X98796302Y-91722052D01*
X98953872Y-91578407D01*
X99082366Y-91408255D01*
X99136270Y-91300000D01*
X99177403Y-91217394D01*
X99177403Y-91217392D01*
X99177405Y-91217389D01*
X99198928Y-91141744D01*
X99236206Y-91082653D01*
X99299515Y-91053095D01*
X99368755Y-91062457D01*
X99421942Y-91107766D01*
X99437968Y-91143587D01*
X99460894Y-91229150D01*
X99460898Y-91229159D01*
X99553333Y-91427387D01*
X99678787Y-91606554D01*
X99833445Y-91761212D01*
X100012612Y-91886666D01*
X100210843Y-91979103D01*
X100390000Y-92027106D01*
X100390000Y-91235501D01*
X100497685Y-91284680D01*
X100604237Y-91300000D01*
X100675763Y-91300000D01*
X100782315Y-91284680D01*
X100890000Y-91235501D01*
X100890000Y-92027106D01*
X101069156Y-91979103D01*
X101069157Y-91979103D01*
X101267387Y-91886666D01*
X101446554Y-91761212D01*
X101601212Y-91606554D01*
X101726666Y-91427387D01*
X101797618Y-91275232D01*
X101843790Y-91222793D01*
X101910984Y-91203641D01*
X101977865Y-91223857D01*
X102022382Y-91275232D01*
X102093333Y-91427387D01*
X102218787Y-91606554D01*
X102373445Y-91761212D01*
X102552612Y-91886666D01*
X102750843Y-91979103D01*
X102930000Y-92027106D01*
X102930000Y-91235501D01*
X103037685Y-91284680D01*
X103144237Y-91300000D01*
X103215763Y-91300000D01*
X103322315Y-91284680D01*
X103430000Y-91235501D01*
X103430000Y-92027106D01*
X103609156Y-91979103D01*
X103609157Y-91979103D01*
X103807387Y-91886666D01*
X103986554Y-91761212D01*
X104141212Y-91606554D01*
X104266666Y-91427387D01*
X104359101Y-91229159D01*
X104359106Y-91229148D01*
X104382031Y-91143588D01*
X104418395Y-91083927D01*
X104481242Y-91053397D01*
X104550617Y-91061691D01*
X104604496Y-91106176D01*
X104621072Y-91141745D01*
X104642596Y-91217392D01*
X104642596Y-91217394D01*
X104737632Y-91408253D01*
X104866127Y-91578406D01*
X104866128Y-91578407D01*
X105023698Y-91722052D01*
X105204981Y-91834298D01*
X105403802Y-91911321D01*
X105613390Y-91950500D01*
X105613392Y-91950500D01*
X105826608Y-91950500D01*
X105826610Y-91950500D01*
X106036198Y-91911321D01*
X106235019Y-91834298D01*
X106416302Y-91722052D01*
X106446134Y-91694856D01*
X109649500Y-91694856D01*
X109649502Y-91694882D01*
X109652413Y-91719987D01*
X109652415Y-91719991D01*
X109697793Y-91822764D01*
X109697794Y-91822765D01*
X109777235Y-91902206D01*
X109880009Y-91947585D01*
X109905135Y-91950500D01*
X111694864Y-91950499D01*
X111694879Y-91950497D01*
X111694882Y-91950497D01*
X111719987Y-91947586D01*
X111719988Y-91947585D01*
X111719991Y-91947585D01*
X111822765Y-91902206D01*
X111902206Y-91822765D01*
X111947585Y-91719991D01*
X111950500Y-91694865D01*
X111950499Y-90956046D01*
X111970183Y-90889009D01*
X112022987Y-90843254D01*
X112092146Y-90833310D01*
X112155702Y-90862335D01*
X112193476Y-90921113D01*
X112197970Y-90944606D01*
X112203374Y-91002924D01*
X112204244Y-91012310D01*
X112241596Y-91143588D01*
X112262596Y-91217392D01*
X112262596Y-91217394D01*
X112357632Y-91408253D01*
X112486127Y-91578406D01*
X112486128Y-91578407D01*
X112643698Y-91722052D01*
X112824981Y-91834298D01*
X113023802Y-91911321D01*
X113233390Y-91950500D01*
X113233392Y-91950500D01*
X113446608Y-91950500D01*
X113446610Y-91950500D01*
X113656198Y-91911321D01*
X113855019Y-91834298D01*
X114036302Y-91722052D01*
X114193872Y-91578407D01*
X114322366Y-91408255D01*
X114376270Y-91300000D01*
X114417403Y-91217394D01*
X114417403Y-91217393D01*
X114417405Y-91217389D01*
X114475756Y-91012310D01*
X114486529Y-90896047D01*
X114512315Y-90831111D01*
X114554622Y-90800804D01*
X114663130Y-90800804D01*
X114699503Y-90821668D01*
X114731693Y-90883681D01*
X114733470Y-90896047D01*
X114744244Y-91012310D01*
X114781596Y-91143588D01*
X114802596Y-91217392D01*
X114802596Y-91217394D01*
X114897632Y-91408253D01*
X115026127Y-91578406D01*
X115026128Y-91578407D01*
X115183698Y-91722052D01*
X115364981Y-91834298D01*
X115563802Y-91911321D01*
X115773390Y-91950500D01*
X115773392Y-91950500D01*
X115986608Y-91950500D01*
X115986610Y-91950500D01*
X116196198Y-91911321D01*
X116395019Y-91834298D01*
X116576302Y-91722052D01*
X116733872Y-91578407D01*
X116862366Y-91408255D01*
X116916270Y-91300000D01*
X116957403Y-91217394D01*
X116957403Y-91217393D01*
X116957405Y-91217389D01*
X117015756Y-91012310D01*
X117026529Y-90896047D01*
X117052315Y-90831111D01*
X117094622Y-90800804D01*
X117203130Y-90800804D01*
X117239503Y-90821668D01*
X117271693Y-90883681D01*
X117273470Y-90896047D01*
X117284244Y-91012310D01*
X117321596Y-91143588D01*
X117342596Y-91217392D01*
X117342596Y-91217394D01*
X117437632Y-91408253D01*
X117566127Y-91578406D01*
X117566128Y-91578407D01*
X117723698Y-91722052D01*
X117904981Y-91834298D01*
X118103802Y-91911321D01*
X118313390Y-91950500D01*
X118313392Y-91950500D01*
X118526608Y-91950500D01*
X118526610Y-91950500D01*
X118736198Y-91911321D01*
X118935019Y-91834298D01*
X119116302Y-91722052D01*
X119273872Y-91578407D01*
X119402366Y-91408255D01*
X119456270Y-91300000D01*
X119497403Y-91217394D01*
X119497403Y-91217393D01*
X119497405Y-91217389D01*
X119555756Y-91012310D01*
X119566529Y-90896047D01*
X119592315Y-90831111D01*
X119634622Y-90800804D01*
X119743130Y-90800804D01*
X119779503Y-90821668D01*
X119811693Y-90883681D01*
X119813470Y-90896047D01*
X119824244Y-91012310D01*
X119861596Y-91143588D01*
X119882596Y-91217392D01*
X119882596Y-91217394D01*
X119977632Y-91408253D01*
X120106127Y-91578406D01*
X120106128Y-91578407D01*
X120263698Y-91722052D01*
X120444981Y-91834298D01*
X120643802Y-91911321D01*
X120853390Y-91950500D01*
X120853392Y-91950500D01*
X121066608Y-91950500D01*
X121066610Y-91950500D01*
X121276198Y-91911321D01*
X121475019Y-91834298D01*
X121656302Y-91722052D01*
X121813872Y-91578407D01*
X121942366Y-91408255D01*
X121996270Y-91300000D01*
X122037403Y-91217394D01*
X122037403Y-91217393D01*
X122037405Y-91217389D01*
X122095756Y-91012310D01*
X122106529Y-90896047D01*
X122132315Y-90831111D01*
X122174622Y-90800804D01*
X122283130Y-90800804D01*
X122319503Y-90821668D01*
X122351693Y-90883681D01*
X122353470Y-90896047D01*
X122364244Y-91012310D01*
X122401596Y-91143588D01*
X122422596Y-91217392D01*
X122422596Y-91217394D01*
X122517632Y-91408253D01*
X122646127Y-91578406D01*
X122646128Y-91578407D01*
X122803698Y-91722052D01*
X122984981Y-91834298D01*
X123183802Y-91911321D01*
X123393390Y-91950500D01*
X123393392Y-91950500D01*
X123606608Y-91950500D01*
X123606610Y-91950500D01*
X123816198Y-91911321D01*
X124015019Y-91834298D01*
X124196302Y-91722052D01*
X124353872Y-91578407D01*
X124482366Y-91408255D01*
X124536270Y-91300000D01*
X124577403Y-91217394D01*
X124577403Y-91217393D01*
X124577405Y-91217389D01*
X124635756Y-91012310D01*
X124655429Y-90800000D01*
X124635756Y-90587690D01*
X124577405Y-90382611D01*
X124577403Y-90382606D01*
X124577403Y-90382605D01*
X124482367Y-90191746D01*
X124353872Y-90021593D01*
X124345994Y-90014411D01*
X124196302Y-89877948D01*
X124015019Y-89765702D01*
X124015017Y-89765701D01*
X123915608Y-89727190D01*
X123816198Y-89688679D01*
X123606610Y-89649500D01*
X123393390Y-89649500D01*
X123183802Y-89688679D01*
X123183799Y-89688679D01*
X123183799Y-89688680D01*
X122984982Y-89765701D01*
X122984980Y-89765702D01*
X122803699Y-89877947D01*
X122646127Y-90021593D01*
X122517632Y-90191746D01*
X122422596Y-90382605D01*
X122422596Y-90382607D01*
X122364244Y-90587689D01*
X122353471Y-90703951D01*
X122327685Y-90768888D01*
X122283130Y-90800804D01*
X122174622Y-90800804D01*
X122176869Y-90799194D01*
X122140497Y-90778331D01*
X122108307Y-90716318D01*
X122106529Y-90703951D01*
X122103987Y-90676519D01*
X122095756Y-90587690D01*
X122037405Y-90382611D01*
X122037403Y-90382606D01*
X122037403Y-90382605D01*
X121942367Y-90191746D01*
X121813872Y-90021593D01*
X121805994Y-90014411D01*
X121656302Y-89877948D01*
X121475019Y-89765702D01*
X121475017Y-89765701D01*
X121375608Y-89727190D01*
X121276198Y-89688679D01*
X121066610Y-89649500D01*
X120853390Y-89649500D01*
X120643802Y-89688679D01*
X120643799Y-89688679D01*
X120643799Y-89688680D01*
X120444982Y-89765701D01*
X120444980Y-89765702D01*
X120263699Y-89877947D01*
X120106127Y-90021593D01*
X119977632Y-90191746D01*
X119882596Y-90382605D01*
X119882596Y-90382607D01*
X119824244Y-90587689D01*
X119813471Y-90703951D01*
X119787685Y-90768888D01*
X119743130Y-90800804D01*
X119634622Y-90800804D01*
X119636869Y-90799194D01*
X119600497Y-90778331D01*
X119568307Y-90716318D01*
X119566529Y-90703951D01*
X119563987Y-90676519D01*
X119555756Y-90587690D01*
X119497405Y-90382611D01*
X119497403Y-90382606D01*
X119497403Y-90382605D01*
X119402367Y-90191746D01*
X119273872Y-90021593D01*
X119265994Y-90014411D01*
X119116302Y-89877948D01*
X118935019Y-89765702D01*
X118935017Y-89765701D01*
X118835608Y-89727190D01*
X118736198Y-89688679D01*
X118526610Y-89649500D01*
X118313390Y-89649500D01*
X118103802Y-89688679D01*
X118103799Y-89688679D01*
X118103799Y-89688680D01*
X117904982Y-89765701D01*
X117904980Y-89765702D01*
X117723699Y-89877947D01*
X117566127Y-90021593D01*
X117437632Y-90191746D01*
X117342596Y-90382605D01*
X117342596Y-90382607D01*
X117284244Y-90587689D01*
X117273471Y-90703951D01*
X117247685Y-90768888D01*
X117203130Y-90800804D01*
X117094622Y-90800804D01*
X117096869Y-90799194D01*
X117060497Y-90778331D01*
X117028307Y-90716318D01*
X117026529Y-90703951D01*
X117023987Y-90676519D01*
X117015756Y-90587690D01*
X116957405Y-90382611D01*
X116957403Y-90382606D01*
X116957403Y-90382605D01*
X116862367Y-90191746D01*
X116733872Y-90021593D01*
X116725994Y-90014411D01*
X116576302Y-89877948D01*
X116395019Y-89765702D01*
X116395017Y-89765701D01*
X116295608Y-89727190D01*
X116196198Y-89688679D01*
X115986610Y-89649500D01*
X115773390Y-89649500D01*
X115563802Y-89688679D01*
X115563799Y-89688679D01*
X115563799Y-89688680D01*
X115364982Y-89765701D01*
X115364980Y-89765702D01*
X115183699Y-89877947D01*
X115026127Y-90021593D01*
X114897632Y-90191746D01*
X114802596Y-90382605D01*
X114802596Y-90382607D01*
X114744244Y-90587689D01*
X114733471Y-90703951D01*
X114707685Y-90768888D01*
X114663130Y-90800804D01*
X114554622Y-90800804D01*
X114556869Y-90799194D01*
X114520497Y-90778331D01*
X114488307Y-90716318D01*
X114486529Y-90703951D01*
X114483987Y-90676519D01*
X114475756Y-90587690D01*
X114417405Y-90382611D01*
X114417403Y-90382606D01*
X114417403Y-90382605D01*
X114322367Y-90191746D01*
X114193872Y-90021593D01*
X114185994Y-90014411D01*
X114036302Y-89877948D01*
X113855019Y-89765702D01*
X113855017Y-89765701D01*
X113755608Y-89727190D01*
X113656198Y-89688679D01*
X113446610Y-89649500D01*
X113233390Y-89649500D01*
X113023802Y-89688679D01*
X113023799Y-89688679D01*
X113023799Y-89688680D01*
X112824982Y-89765701D01*
X112824980Y-89765702D01*
X112643699Y-89877947D01*
X112486127Y-90021593D01*
X112357632Y-90191746D01*
X112262596Y-90382605D01*
X112262596Y-90382607D01*
X112204244Y-90587689D01*
X112197970Y-90655394D01*
X112172183Y-90720331D01*
X112115383Y-90761018D01*
X112045602Y-90764538D01*
X111984995Y-90729772D01*
X111952806Y-90667759D01*
X111950499Y-90643952D01*
X111950499Y-89905143D01*
X111950499Y-89905136D01*
X111950497Y-89905117D01*
X111947586Y-89880012D01*
X111947585Y-89880010D01*
X111947585Y-89880009D01*
X111902206Y-89777235D01*
X111822765Y-89697794D01*
X111802124Y-89688680D01*
X111719992Y-89652415D01*
X111694865Y-89649500D01*
X109905143Y-89649500D01*
X109905117Y-89649502D01*
X109880012Y-89652413D01*
X109880008Y-89652415D01*
X109777235Y-89697793D01*
X109697794Y-89777234D01*
X109652415Y-89880006D01*
X109652415Y-89880008D01*
X109649500Y-89905131D01*
X109649500Y-91694856D01*
X106446134Y-91694856D01*
X106573872Y-91578407D01*
X106702366Y-91408255D01*
X106756270Y-91300000D01*
X106797403Y-91217394D01*
X106797403Y-91217393D01*
X106797405Y-91217389D01*
X106855756Y-91012310D01*
X106875429Y-90800000D01*
X106855756Y-90587690D01*
X106797405Y-90382611D01*
X106797403Y-90382606D01*
X106797403Y-90382605D01*
X106702367Y-90191746D01*
X106573872Y-90021593D01*
X106565994Y-90014411D01*
X106416302Y-89877948D01*
X106235019Y-89765702D01*
X106235017Y-89765701D01*
X106135608Y-89727190D01*
X106036198Y-89688679D01*
X105826610Y-89649500D01*
X105613390Y-89649500D01*
X105403802Y-89688679D01*
X105403799Y-89688679D01*
X105403799Y-89688680D01*
X105204982Y-89765701D01*
X105204980Y-89765702D01*
X105023699Y-89877947D01*
X104866127Y-90021593D01*
X104737632Y-90191746D01*
X104642597Y-90382605D01*
X104621072Y-90458255D01*
X104583792Y-90517348D01*
X104520482Y-90546905D01*
X104451242Y-90537541D01*
X104398056Y-90492231D01*
X104382031Y-90456412D01*
X104359105Y-90370849D01*
X104359101Y-90370840D01*
X104266666Y-90172612D01*
X104266664Y-90172608D01*
X104141216Y-89993450D01*
X104141211Y-89993444D01*
X103986554Y-89838787D01*
X103807387Y-89713333D01*
X103609159Y-89620898D01*
X103609150Y-89620894D01*
X103430000Y-89572891D01*
X103430000Y-90364498D01*
X103322315Y-90315320D01*
X103215763Y-90300000D01*
X103144237Y-90300000D01*
X103037685Y-90315320D01*
X102930000Y-90364498D01*
X102930000Y-89572892D01*
X102929999Y-89572891D01*
X102750849Y-89620894D01*
X102750840Y-89620898D01*
X102552612Y-89713333D01*
X102552608Y-89713335D01*
X102373450Y-89838783D01*
X102373444Y-89838788D01*
X102218788Y-89993444D01*
X102218783Y-89993450D01*
X102093335Y-90172608D01*
X102093333Y-90172612D01*
X102022382Y-90324767D01*
X101976209Y-90377206D01*
X101909016Y-90396358D01*
X101842135Y-90376142D01*
X101797618Y-90324767D01*
X101726666Y-90172612D01*
X101726664Y-90172608D01*
X101601216Y-89993450D01*
X101601211Y-89993444D01*
X101446554Y-89838787D01*
X101267387Y-89713333D01*
X101069159Y-89620898D01*
X101069150Y-89620894D01*
X100890000Y-89572891D01*
X100890000Y-90364498D01*
X100782315Y-90315320D01*
X100675763Y-90300000D01*
X100604237Y-90300000D01*
X100497685Y-90315320D01*
X100390000Y-90364498D01*
X100390000Y-89572892D01*
X100389999Y-89572891D01*
X100210849Y-89620894D01*
X100210840Y-89620898D01*
X100012612Y-89713333D01*
X100012608Y-89713335D01*
X99833450Y-89838783D01*
X99833444Y-89838788D01*
X99678788Y-89993444D01*
X99678783Y-89993450D01*
X99553335Y-90172608D01*
X99553333Y-90172612D01*
X99460898Y-90370840D01*
X99460895Y-90370847D01*
X99437968Y-90456413D01*
X99401603Y-90516073D01*
X99338756Y-90546602D01*
X99269380Y-90538307D01*
X99215502Y-90493822D01*
X99198927Y-90458253D01*
X99177405Y-90382611D01*
X99177403Y-90382608D01*
X99177403Y-90382605D01*
X99082367Y-90191746D01*
X98953872Y-90021593D01*
X98945994Y-90014411D01*
X98796302Y-89877948D01*
X98615019Y-89765702D01*
X98615017Y-89765701D01*
X98515608Y-89727190D01*
X98416198Y-89688679D01*
X98206610Y-89649500D01*
X97993390Y-89649500D01*
X97783802Y-89688679D01*
X97783799Y-89688679D01*
X97783799Y-89688680D01*
X97584982Y-89765701D01*
X97584980Y-89765702D01*
X97403699Y-89877947D01*
X97246127Y-90021593D01*
X97117632Y-90191746D01*
X97022596Y-90382605D01*
X97022596Y-90382607D01*
X96964244Y-90587689D01*
X96953471Y-90703951D01*
X96927685Y-90768888D01*
X96883130Y-90800804D01*
X96774622Y-90800804D01*
X96776869Y-90799194D01*
X96740497Y-90778331D01*
X96708307Y-90716318D01*
X96706529Y-90703951D01*
X96703987Y-90676519D01*
X96695756Y-90587690D01*
X96637405Y-90382611D01*
X96637403Y-90382606D01*
X96637403Y-90382605D01*
X96542367Y-90191746D01*
X96413872Y-90021593D01*
X96405994Y-90014411D01*
X96256302Y-89877948D01*
X96193049Y-89838783D01*
X96173610Y-89826747D01*
X96126975Y-89774719D01*
X96115871Y-89705737D01*
X96143824Y-89641703D01*
X96151195Y-89633651D01*
X98340862Y-87443985D01*
X98402181Y-87410503D01*
X98471873Y-87415487D01*
X98516220Y-87443987D01*
X98633447Y-87561213D01*
X98812612Y-87686666D01*
X99010843Y-87779103D01*
X99190000Y-87827106D01*
X99190000Y-87035501D01*
X99297685Y-87084680D01*
X99404237Y-87100000D01*
X99475763Y-87100000D01*
X99582315Y-87084680D01*
X99690000Y-87035501D01*
X99690000Y-87827105D01*
X99869156Y-87779103D01*
X99869157Y-87779103D01*
X100067387Y-87686666D01*
X100246554Y-87561212D01*
X100401212Y-87406554D01*
X100526666Y-87227387D01*
X100619101Y-87029159D01*
X100619105Y-87029150D01*
X100667108Y-86850000D01*
X99873686Y-86850000D01*
X99899493Y-86809844D01*
X99940000Y-86671889D01*
X99940000Y-86528111D01*
X99899493Y-86390156D01*
X99873686Y-86350000D01*
X100667108Y-86350000D01*
X100667108Y-86349999D01*
X100619105Y-86170849D01*
X100619101Y-86170840D01*
X100551098Y-86025005D01*
X100540606Y-85955927D01*
X100569126Y-85892143D01*
X100627602Y-85853904D01*
X100663480Y-85848600D01*
X101382490Y-85848600D01*
X101449529Y-85868285D01*
X101470171Y-85884919D01*
X103384657Y-87799404D01*
X103418142Y-87860727D01*
X103419915Y-87870899D01*
X103430797Y-87953553D01*
X103435656Y-87990462D01*
X103496164Y-88136541D01*
X103592418Y-88261982D01*
X103717859Y-88358236D01*
X103863938Y-88418744D01*
X103942319Y-88429063D01*
X104020699Y-88439382D01*
X104020700Y-88439382D01*
X104020701Y-88439382D01*
X104072954Y-88432502D01*
X104177462Y-88418744D01*
X104323541Y-88358236D01*
X104448982Y-88261982D01*
X104545236Y-88136541D01*
X104605744Y-87990462D01*
X104623142Y-87858313D01*
X104651409Y-87794417D01*
X104709733Y-87755946D01*
X104746081Y-87750499D01*
X106254856Y-87750499D01*
X106254864Y-87750499D01*
X106254879Y-87750497D01*
X106254882Y-87750497D01*
X106279987Y-87747586D01*
X106279988Y-87747585D01*
X106279991Y-87747585D01*
X106382765Y-87702206D01*
X106462206Y-87622765D01*
X106507585Y-87519991D01*
X106510500Y-87494865D01*
X106510499Y-86756046D01*
X106530183Y-86689009D01*
X106582987Y-86643254D01*
X106652146Y-86633310D01*
X106715702Y-86662335D01*
X106753476Y-86721113D01*
X106757970Y-86744606D01*
X106761877Y-86786765D01*
X106764244Y-86812310D01*
X106819873Y-87007824D01*
X106822596Y-87017392D01*
X106822596Y-87017394D01*
X106917632Y-87208253D01*
X107033704Y-87361955D01*
X107046128Y-87378407D01*
X107203698Y-87522052D01*
X107384981Y-87634298D01*
X107583802Y-87711321D01*
X107793390Y-87750500D01*
X107793392Y-87750500D01*
X108006611Y-87750500D01*
X108006611Y-87750499D01*
X108046783Y-87742990D01*
X108116298Y-87750019D01*
X108157251Y-87777197D01*
X108784064Y-88404010D01*
X108794135Y-88416580D01*
X108794322Y-88416426D01*
X108799295Y-88422437D01*
X108799297Y-88422439D01*
X108799298Y-88422440D01*
X108849935Y-88469991D01*
X108850332Y-88470364D01*
X108853129Y-88473075D01*
X108873467Y-88493413D01*
X108876950Y-88496115D01*
X108885826Y-88503696D01*
X108905935Y-88522579D01*
X108919107Y-88534948D01*
X108919110Y-88534950D01*
X108919112Y-88534951D01*
X108937707Y-88545174D01*
X108953968Y-88555856D01*
X108970732Y-88568859D01*
X108970736Y-88568862D01*
X109012638Y-88586994D01*
X109023112Y-88592125D01*
X109063132Y-88614127D01*
X109083704Y-88619408D01*
X109102094Y-88625705D01*
X109121574Y-88634135D01*
X109166675Y-88641277D01*
X109178086Y-88643641D01*
X109222323Y-88655000D01*
X109243545Y-88655000D01*
X109262944Y-88656526D01*
X109283905Y-88659847D01*
X109329360Y-88655550D01*
X109341030Y-88655000D01*
X121148595Y-88655000D01*
X121164605Y-88656767D01*
X121164628Y-88656526D01*
X121172389Y-88657258D01*
X121172396Y-88657260D01*
X121242362Y-88655060D01*
X121246257Y-88655000D01*
X121275025Y-88655000D01*
X121279387Y-88654448D01*
X121291039Y-88653530D01*
X121336669Y-88652097D01*
X121357056Y-88646173D01*
X121376096Y-88642231D01*
X121397158Y-88639571D01*
X121439620Y-88622758D01*
X121450657Y-88618980D01*
X121494498Y-88606244D01*
X121512765Y-88595439D01*
X121530236Y-88586880D01*
X121549971Y-88579068D01*
X121586916Y-88552225D01*
X121596658Y-88545826D01*
X121635965Y-88522581D01*
X121650970Y-88507575D01*
X121665768Y-88494936D01*
X121682937Y-88482463D01*
X121712046Y-88447274D01*
X121719890Y-88438654D01*
X123361713Y-86796831D01*
X123374279Y-86786765D01*
X123374125Y-86786578D01*
X123380133Y-86781605D01*
X123380140Y-86781602D01*
X123414881Y-86744606D01*
X123428065Y-86730567D01*
X123430778Y-86727767D01*
X123437432Y-86721113D01*
X123451111Y-86707435D01*
X123453806Y-86703960D01*
X123461399Y-86695069D01*
X123469372Y-86686579D01*
X123492648Y-86661793D01*
X123502874Y-86643190D01*
X123513553Y-86626933D01*
X123526562Y-86610164D01*
X123544691Y-86568266D01*
X123549820Y-86557795D01*
X123571827Y-86517768D01*
X123577105Y-86497206D01*
X123583407Y-86478799D01*
X123591835Y-86459327D01*
X123598977Y-86414228D01*
X123601341Y-86402813D01*
X123612700Y-86358577D01*
X123612700Y-86337350D01*
X123614227Y-86317950D01*
X123615198Y-86311820D01*
X123617546Y-86296996D01*
X123613250Y-86251548D01*
X123612700Y-86239879D01*
X123612700Y-85290207D01*
X123632385Y-85223168D01*
X123649014Y-85202531D01*
X124292100Y-84559445D01*
X124353422Y-84525961D01*
X124423114Y-84530945D01*
X124479047Y-84572817D01*
X124503464Y-84638281D01*
X124488612Y-84706554D01*
X124480628Y-84719277D01*
X124456206Y-84753411D01*
X124456199Y-84753424D01*
X124332350Y-84994309D01*
X124332343Y-84994327D01*
X124244884Y-85250685D01*
X124244882Y-85250695D01*
X124196371Y-85513335D01*
X124195681Y-85517068D01*
X124195680Y-85517075D01*
X124185787Y-85787763D01*
X124215413Y-86057013D01*
X124215415Y-86057024D01*
X124283630Y-86317950D01*
X124283928Y-86319088D01*
X124389870Y-86568390D01*
X124504397Y-86756049D01*
X124530979Y-86799605D01*
X124530986Y-86799615D01*
X124704253Y-87007819D01*
X124704259Y-87007824D01*
X124785363Y-87080493D01*
X124905998Y-87188582D01*
X125131910Y-87338044D01*
X125377176Y-87453020D01*
X125377183Y-87453022D01*
X125377185Y-87453023D01*
X125636557Y-87531057D01*
X125636564Y-87531058D01*
X125636569Y-87531060D01*
X125904561Y-87570500D01*
X125904566Y-87570500D01*
X126107629Y-87570500D01*
X126107631Y-87570500D01*
X126107636Y-87570499D01*
X126107648Y-87570499D01*
X126145191Y-87567750D01*
X126310156Y-87555677D01*
X126422758Y-87530593D01*
X126574546Y-87496782D01*
X126574548Y-87496781D01*
X126574553Y-87496780D01*
X126827558Y-87400014D01*
X127063777Y-87267441D01*
X127278177Y-87101888D01*
X127466186Y-86906881D01*
X127623799Y-86686579D01*
X127708825Y-86521202D01*
X127747649Y-86445690D01*
X127747651Y-86445684D01*
X127747656Y-86445675D01*
X127835118Y-86189305D01*
X127884319Y-85922933D01*
X127894212Y-85652235D01*
X127864586Y-85382982D01*
X127796072Y-85120912D01*
X127690130Y-84871610D01*
X127549018Y-84640390D01*
X127531104Y-84618864D01*
X127375746Y-84432180D01*
X127375740Y-84432175D01*
X127174002Y-84251418D01*
X126948092Y-84101957D01*
X126948090Y-84101956D01*
X126702824Y-83986980D01*
X126702819Y-83986978D01*
X126702814Y-83986976D01*
X126443442Y-83908942D01*
X126443428Y-83908939D01*
X126327791Y-83891921D01*
X126175439Y-83869500D01*
X125972369Y-83869500D01*
X125972351Y-83869500D01*
X125769844Y-83884323D01*
X125769831Y-83884325D01*
X125505453Y-83943217D01*
X125505446Y-83943220D01*
X125252439Y-84039987D01*
X125032056Y-84163672D01*
X124963960Y-84179317D01*
X124898216Y-84155662D01*
X124855698Y-84100219D01*
X124849904Y-84030590D01*
X124882674Y-83968882D01*
X124883571Y-83967973D01*
X125606613Y-83244931D01*
X125619179Y-83234865D01*
X125619025Y-83234678D01*
X125625033Y-83229705D01*
X125625040Y-83229702D01*
X125648327Y-83204902D01*
X125672965Y-83178667D01*
X125675678Y-83175867D01*
X125696011Y-83155535D01*
X125698706Y-83152060D01*
X125706299Y-83143169D01*
X125737548Y-83109893D01*
X125747774Y-83091290D01*
X125758453Y-83075033D01*
X125771462Y-83058264D01*
X125789598Y-83016350D01*
X125794720Y-83005895D01*
X125816727Y-82965868D01*
X125822007Y-82945302D01*
X125828309Y-82926895D01*
X125836735Y-82907426D01*
X125843877Y-82862324D01*
X125846245Y-82850897D01*
X125857599Y-82806679D01*
X125857600Y-82806677D01*
X125857600Y-82785455D01*
X125859127Y-82766055D01*
X125862447Y-82745095D01*
X125858150Y-82699640D01*
X125857600Y-82687970D01*
X125857600Y-80221702D01*
X125859368Y-80205689D01*
X125859126Y-80205667D01*
X125859858Y-80197911D01*
X125859860Y-80197904D01*
X125857661Y-80127936D01*
X125857600Y-80124041D01*
X125857600Y-80095277D01*
X125857599Y-80095270D01*
X125857049Y-80090916D01*
X125856130Y-80079254D01*
X125854697Y-80033631D01*
X125848776Y-80013253D01*
X125844831Y-79994204D01*
X125842171Y-79973142D01*
X125825363Y-79930691D01*
X125821580Y-79919642D01*
X125808843Y-79875800D01*
X125798040Y-79857534D01*
X125789478Y-79840056D01*
X125789327Y-79839675D01*
X125781668Y-79820329D01*
X125781666Y-79820326D01*
X125781665Y-79820324D01*
X125778188Y-79815538D01*
X125762563Y-79786622D01*
X125733418Y-79709770D01*
X125733417Y-79709768D01*
X125636783Y-79569771D01*
X125509452Y-79456966D01*
X125509449Y-79456963D01*
X125358826Y-79377910D01*
X125193656Y-79337200D01*
X125023544Y-79337200D01*
X124858373Y-79377910D01*
X124707750Y-79456963D01*
X124580416Y-79569772D01*
X124483782Y-79709768D01*
X124423460Y-79868825D01*
X124423459Y-79868830D01*
X124402955Y-80037700D01*
X124423459Y-80206569D01*
X124423460Y-80206574D01*
X124478618Y-80352014D01*
X124483782Y-80365630D01*
X124534650Y-80439325D01*
X124556533Y-80505678D01*
X124556600Y-80509764D01*
X124556600Y-82403691D01*
X124536915Y-82470730D01*
X124520281Y-82491372D01*
X122562684Y-84448968D01*
X122550110Y-84459043D01*
X122550265Y-84459230D01*
X122544258Y-84464199D01*
X122496333Y-84515233D01*
X122493627Y-84518025D01*
X122473290Y-84538363D01*
X122473277Y-84538378D01*
X122470573Y-84541863D01*
X122463006Y-84550722D01*
X122431752Y-84584007D01*
X122421522Y-84602613D01*
X122410846Y-84618864D01*
X122397840Y-84635632D01*
X122397836Y-84635638D01*
X122379708Y-84677530D01*
X122374569Y-84688019D01*
X122352572Y-84728030D01*
X122352572Y-84728031D01*
X122347291Y-84748599D01*
X122340991Y-84767001D01*
X122332564Y-84786473D01*
X122325423Y-84831562D01*
X122323054Y-84843000D01*
X122311700Y-84887217D01*
X122311700Y-84908444D01*
X122310173Y-84927843D01*
X122306853Y-84948805D01*
X122311150Y-84994258D01*
X122311700Y-85005928D01*
X122311700Y-85955591D01*
X122292015Y-86022630D01*
X122275381Y-86043272D01*
X121912627Y-86406025D01*
X121851304Y-86439510D01*
X121781612Y-86434526D01*
X121725679Y-86392654D01*
X121705681Y-86352281D01*
X121657405Y-86182611D01*
X121657403Y-86182606D01*
X121657403Y-86182605D01*
X121562367Y-85991746D01*
X121433872Y-85821593D01*
X121404246Y-85794585D01*
X121276302Y-85677948D01*
X121095019Y-85565702D01*
X121095017Y-85565701D01*
X120969479Y-85517068D01*
X120896198Y-85488679D01*
X120686610Y-85449500D01*
X120473390Y-85449500D01*
X120263802Y-85488679D01*
X120263799Y-85488679D01*
X120263799Y-85488680D01*
X120064982Y-85565701D01*
X120064980Y-85565702D01*
X119883699Y-85677947D01*
X119726127Y-85821593D01*
X119597632Y-85991746D01*
X119502596Y-86182605D01*
X119502596Y-86182607D01*
X119444244Y-86387689D01*
X119433471Y-86503951D01*
X119407685Y-86568888D01*
X119363130Y-86600804D01*
X119399503Y-86621668D01*
X119431693Y-86683681D01*
X119433470Y-86696047D01*
X119444244Y-86812310D01*
X119499873Y-87007824D01*
X119502596Y-87017392D01*
X119502596Y-87017394D01*
X119580940Y-87174729D01*
X119593201Y-87243514D01*
X119566328Y-87308009D01*
X119508852Y-87347736D01*
X119469940Y-87354000D01*
X119150060Y-87354000D01*
X119083021Y-87334315D01*
X119037266Y-87281511D01*
X119027322Y-87212353D01*
X119039060Y-87174729D01*
X119117403Y-87017394D01*
X119117403Y-87017393D01*
X119117405Y-87017389D01*
X119175756Y-86812310D01*
X119186529Y-86696047D01*
X119212315Y-86631111D01*
X119256869Y-86599194D01*
X119220497Y-86578331D01*
X119188307Y-86516318D01*
X119186529Y-86503951D01*
X119184198Y-86478793D01*
X119175756Y-86387690D01*
X119117405Y-86182611D01*
X119117403Y-86182606D01*
X119117403Y-86182605D01*
X119022367Y-85991746D01*
X118893870Y-85821591D01*
X118841897Y-85774211D01*
X118805615Y-85714500D01*
X118807376Y-85644652D01*
X118837752Y-85594895D01*
X123111554Y-81321094D01*
X123135528Y-81297120D01*
X123146488Y-81275606D01*
X123156653Y-81259018D01*
X123170849Y-81239481D01*
X123178310Y-81216514D01*
X123185759Y-81198534D01*
X123196718Y-81177028D01*
X123196718Y-81177027D01*
X123196719Y-81177026D01*
X123200495Y-81153176D01*
X123205036Y-81134260D01*
X123212500Y-81111293D01*
X123212500Y-80976507D01*
X123212500Y-78626012D01*
X123212500Y-78592107D01*
X123205039Y-78569145D01*
X123200495Y-78550221D01*
X123196719Y-78526374D01*
X123185753Y-78504854D01*
X123178308Y-78486878D01*
X123176769Y-78482142D01*
X123170849Y-78463919D01*
X123156649Y-78444375D01*
X123146493Y-78427800D01*
X123135528Y-78406280D01*
X123040220Y-78310972D01*
X122609642Y-77880394D01*
X122576157Y-77819071D01*
X122574384Y-77808898D01*
X122570752Y-77781313D01*
X122558644Y-77689338D01*
X122498136Y-77543259D01*
X122401882Y-77417818D01*
X122276441Y-77321564D01*
X122130362Y-77261056D01*
X122130360Y-77261055D01*
X121973601Y-77240418D01*
X121973599Y-77240418D01*
X121816839Y-77261055D01*
X121816837Y-77261056D01*
X121670760Y-77321563D01*
X121670759Y-77321564D01*
X121545318Y-77417818D01*
X121545317Y-77417819D01*
X121545316Y-77417820D01*
X121522875Y-77447066D01*
X121466447Y-77488268D01*
X121396701Y-77492423D01*
X121335781Y-77458210D01*
X121303029Y-77396493D01*
X121300500Y-77371579D01*
X121300500Y-70927594D01*
X123356600Y-70927594D01*
X123364062Y-70950558D01*
X123368603Y-70969473D01*
X123371570Y-70988210D01*
X123372381Y-70993327D01*
X123383343Y-71014841D01*
X123390788Y-71032815D01*
X123398250Y-71055780D01*
X123412440Y-71075310D01*
X123422608Y-71091903D01*
X123433570Y-71113418D01*
X123598357Y-71278205D01*
X123631842Y-71339528D01*
X123633615Y-71349700D01*
X123649356Y-71469262D01*
X123709864Y-71615341D01*
X123806118Y-71740782D01*
X123931559Y-71837036D01*
X124077638Y-71897544D01*
X124156019Y-71907863D01*
X124234399Y-71918182D01*
X124234400Y-71918182D01*
X124234401Y-71918182D01*
X124286654Y-71911302D01*
X124391162Y-71897544D01*
X124537241Y-71837036D01*
X124662682Y-71740782D01*
X124758936Y-71615341D01*
X124819444Y-71469262D01*
X124840082Y-71312500D01*
X124839624Y-71309023D01*
X124819444Y-71155739D01*
X124819444Y-71155738D01*
X124758936Y-71009659D01*
X124662682Y-70884218D01*
X124537241Y-70787964D01*
X124391162Y-70727456D01*
X124378224Y-70725752D01*
X124315414Y-70717483D01*
X124251517Y-70689216D01*
X124213047Y-70630891D01*
X124207600Y-70594544D01*
X124207600Y-67344361D01*
X124227285Y-67277322D01*
X124280089Y-67231567D01*
X124349247Y-67221623D01*
X124384005Y-67231979D01*
X124570843Y-67319103D01*
X124750000Y-67367106D01*
X124750000Y-66575501D01*
X124857685Y-66624680D01*
X124964237Y-66640000D01*
X125035763Y-66640000D01*
X125142315Y-66624680D01*
X125250000Y-66575501D01*
X125250000Y-67367105D01*
X125429156Y-67319103D01*
X125429157Y-67319103D01*
X125627387Y-67226666D01*
X125806554Y-67101212D01*
X125961212Y-66946554D01*
X126086666Y-66767387D01*
X126179101Y-66569159D01*
X126179105Y-66569150D01*
X126227108Y-66390000D01*
X125433686Y-66390000D01*
X125459493Y-66349844D01*
X125500000Y-66211889D01*
X125500000Y-66068111D01*
X125459493Y-65930156D01*
X125433686Y-65890000D01*
X126227108Y-65890000D01*
X126227108Y-65889999D01*
X126179105Y-65710849D01*
X126179101Y-65710840D01*
X126086666Y-65512612D01*
X126086664Y-65512608D01*
X125961216Y-65333450D01*
X125961211Y-65333444D01*
X125806554Y-65178787D01*
X125627387Y-65053332D01*
X125488238Y-64988446D01*
X125435799Y-64942273D01*
X125416647Y-64875080D01*
X125418169Y-64856668D01*
X125418420Y-64855088D01*
X125448354Y-64791959D01*
X125507668Y-64755032D01*
X125540891Y-64750499D01*
X125894856Y-64750499D01*
X125894864Y-64750499D01*
X125894879Y-64750497D01*
X125894882Y-64750497D01*
X125919987Y-64747586D01*
X125919988Y-64747585D01*
X125919991Y-64747585D01*
X126022765Y-64702206D01*
X126102206Y-64622765D01*
X126147585Y-64519991D01*
X126150500Y-64494865D01*
X126150499Y-62705136D01*
X126150497Y-62705117D01*
X126147586Y-62680012D01*
X126147585Y-62680010D01*
X126147585Y-62680009D01*
X126102206Y-62577235D01*
X126022765Y-62497794D01*
X126022763Y-62497793D01*
X125919992Y-62452415D01*
X125894865Y-62449500D01*
X124105143Y-62449500D01*
X124105117Y-62449502D01*
X124080012Y-62452413D01*
X124080008Y-62452415D01*
X123977235Y-62497793D01*
X123897794Y-62577234D01*
X123852415Y-62680006D01*
X123852415Y-62680008D01*
X123849500Y-62705131D01*
X123849500Y-64494856D01*
X123849502Y-64494882D01*
X123852413Y-64519987D01*
X123852415Y-64519991D01*
X123897793Y-64622764D01*
X123953509Y-64678480D01*
X123986994Y-64739803D01*
X123982010Y-64809495D01*
X123953509Y-64853842D01*
X123681924Y-65125428D01*
X123528880Y-65278472D01*
X123501104Y-65306248D01*
X123433571Y-65373780D01*
X123422610Y-65395293D01*
X123412446Y-65411878D01*
X123398252Y-65431414D01*
X123398251Y-65431417D01*
X123390788Y-65454385D01*
X123383343Y-65472358D01*
X123372380Y-65493873D01*
X123368603Y-65517722D01*
X123364062Y-65536639D01*
X123356600Y-65559604D01*
X123356600Y-70927594D01*
X121300500Y-70927594D01*
X121300500Y-68849484D01*
X121320185Y-68782445D01*
X121372989Y-68736690D01*
X121442147Y-68726746D01*
X121505703Y-68755771D01*
X121539061Y-68802032D01*
X121575762Y-68890638D01*
X121575763Y-68890639D01*
X121575764Y-68890641D01*
X121672018Y-69016082D01*
X121797459Y-69112336D01*
X121943538Y-69172844D01*
X122021919Y-69183163D01*
X122100299Y-69193482D01*
X122100300Y-69193482D01*
X122100301Y-69193482D01*
X122152554Y-69186602D01*
X122257062Y-69172844D01*
X122403141Y-69112336D01*
X122528582Y-69016082D01*
X122624836Y-68890641D01*
X122685344Y-68744562D01*
X122705982Y-68587800D01*
X122685344Y-68431038D01*
X122624836Y-68284959D01*
X122624835Y-68284958D01*
X122624835Y-68284957D01*
X122551424Y-68189285D01*
X122526230Y-68124115D01*
X122525800Y-68113799D01*
X122525800Y-57847763D01*
X124185787Y-57847763D01*
X124215413Y-58117013D01*
X124215415Y-58117024D01*
X124283926Y-58379082D01*
X124283928Y-58379088D01*
X124389870Y-58628390D01*
X124530079Y-58858130D01*
X124530979Y-58859605D01*
X124530986Y-58859615D01*
X124704253Y-59067819D01*
X124704259Y-59067824D01*
X124905998Y-59248582D01*
X125131910Y-59398044D01*
X125377176Y-59513020D01*
X125377183Y-59513022D01*
X125377185Y-59513023D01*
X125636557Y-59591057D01*
X125636564Y-59591058D01*
X125636569Y-59591060D01*
X125904561Y-59630500D01*
X125904566Y-59630500D01*
X126107629Y-59630500D01*
X126107631Y-59630500D01*
X126107636Y-59630499D01*
X126107648Y-59630499D01*
X126145191Y-59627750D01*
X126310156Y-59615677D01*
X126422758Y-59590593D01*
X126574546Y-59556782D01*
X126574548Y-59556781D01*
X126574553Y-59556780D01*
X126827558Y-59460014D01*
X127063777Y-59327441D01*
X127278177Y-59161888D01*
X127466186Y-58966881D01*
X127623799Y-58746579D01*
X127742246Y-58516198D01*
X127747649Y-58505690D01*
X127747651Y-58505684D01*
X127747656Y-58505675D01*
X127835118Y-58249305D01*
X127884319Y-57982933D01*
X127894212Y-57712235D01*
X127864586Y-57442982D01*
X127796072Y-57180912D01*
X127690130Y-56931610D01*
X127549018Y-56700390D01*
X127459747Y-56593119D01*
X127375746Y-56492180D01*
X127375740Y-56492175D01*
X127174002Y-56311418D01*
X126948092Y-56161957D01*
X126948090Y-56161956D01*
X126702824Y-56046980D01*
X126702819Y-56046978D01*
X126702814Y-56046976D01*
X126443442Y-55968942D01*
X126443428Y-55968939D01*
X126327791Y-55951921D01*
X126175439Y-55929500D01*
X125972369Y-55929500D01*
X125972351Y-55929500D01*
X125769844Y-55944323D01*
X125769831Y-55944325D01*
X125505453Y-56003217D01*
X125505446Y-56003220D01*
X125252439Y-56099987D01*
X125016226Y-56232557D01*
X124801822Y-56398112D01*
X124613822Y-56593109D01*
X124613816Y-56593116D01*
X124456202Y-56813419D01*
X124456199Y-56813424D01*
X124332350Y-57054309D01*
X124332343Y-57054327D01*
X124244884Y-57310685D01*
X124244881Y-57310699D01*
X124195681Y-57577068D01*
X124195680Y-57577075D01*
X124185787Y-57847763D01*
X122525800Y-57847763D01*
X122525800Y-47329808D01*
X122525799Y-47329804D01*
X122518339Y-47306845D01*
X122513795Y-47287921D01*
X122510019Y-47264074D01*
X122499053Y-47242554D01*
X122491608Y-47224578D01*
X122484149Y-47201619D01*
X122469953Y-47182080D01*
X122459793Y-47165501D01*
X122448828Y-47143980D01*
X122353520Y-47048672D01*
X122353518Y-47048670D01*
X119011207Y-43706359D01*
X118977722Y-43645036D01*
X118982706Y-43575344D01*
X119024578Y-43519411D01*
X119033586Y-43513267D01*
X119116302Y-43462052D01*
X119273872Y-43318407D01*
X119402366Y-43148255D01*
X119409229Y-43134472D01*
X119497403Y-42957394D01*
X119497403Y-42957393D01*
X119497405Y-42957389D01*
X119555756Y-42752310D01*
X119566529Y-42636047D01*
X119592315Y-42571111D01*
X119636869Y-42539194D01*
X119600497Y-42518331D01*
X119568307Y-42456318D01*
X119566529Y-42443951D01*
X119560969Y-42383951D01*
X119555756Y-42327690D01*
X119497405Y-42122611D01*
X119403523Y-41934070D01*
X119391264Y-41865286D01*
X119418137Y-41800791D01*
X119475614Y-41761063D01*
X119514525Y-41754800D01*
X119865475Y-41754800D01*
X119932514Y-41774485D01*
X119978269Y-41827289D01*
X119988213Y-41896447D01*
X119976476Y-41934069D01*
X119973067Y-41940917D01*
X119882595Y-42122611D01*
X119824244Y-42327689D01*
X119813471Y-42443951D01*
X119787685Y-42508888D01*
X119743130Y-42540804D01*
X119779503Y-42561668D01*
X119811693Y-42623681D01*
X119813470Y-42636047D01*
X119824244Y-42752310D01*
X119880509Y-42950059D01*
X119882596Y-42957392D01*
X119882596Y-42957394D01*
X119977632Y-43148253D01*
X120106127Y-43318406D01*
X120106128Y-43318407D01*
X120263698Y-43462052D01*
X120444981Y-43574298D01*
X120643802Y-43651321D01*
X120853390Y-43690500D01*
X120853392Y-43690500D01*
X121066608Y-43690500D01*
X121066610Y-43690500D01*
X121276198Y-43651321D01*
X121475019Y-43574298D01*
X121656302Y-43462052D01*
X121813872Y-43318407D01*
X121942366Y-43148255D01*
X122015543Y-43001293D01*
X122063044Y-42950059D01*
X122130707Y-42932637D01*
X122182833Y-42946080D01*
X122189974Y-42949719D01*
X122244898Y-42958418D01*
X122308032Y-42988346D01*
X122344963Y-43047657D01*
X122349500Y-43080891D01*
X122349500Y-43434856D01*
X122349502Y-43434882D01*
X122352413Y-43459987D01*
X122352415Y-43459991D01*
X122397793Y-43562764D01*
X122397794Y-43562765D01*
X122477235Y-43642206D01*
X122580009Y-43687585D01*
X122605135Y-43690500D01*
X124394864Y-43690499D01*
X124394879Y-43690497D01*
X124394882Y-43690497D01*
X124419987Y-43687586D01*
X124419988Y-43687585D01*
X124419991Y-43687585D01*
X124522765Y-43642206D01*
X124602206Y-43562765D01*
X124647585Y-43459991D01*
X124650500Y-43434865D01*
X124650499Y-41645136D01*
X124650422Y-41644471D01*
X124647586Y-41620012D01*
X124647585Y-41620010D01*
X124647585Y-41620009D01*
X124602206Y-41517235D01*
X124522765Y-41437794D01*
X124502124Y-41428680D01*
X124419992Y-41392415D01*
X124394865Y-41389500D01*
X122605143Y-41389500D01*
X122605117Y-41389502D01*
X122580012Y-41392413D01*
X122580008Y-41392415D01*
X122477236Y-41437793D01*
X122416169Y-41498860D01*
X122354845Y-41532344D01*
X122285154Y-41527359D01*
X122240807Y-41498859D01*
X121722718Y-40980770D01*
X121701203Y-40969808D01*
X121684610Y-40959640D01*
X121665080Y-40945450D01*
X121642115Y-40937988D01*
X121624141Y-40930543D01*
X121602627Y-40919581D01*
X121597510Y-40918770D01*
X121578773Y-40915803D01*
X121559858Y-40911262D01*
X121536894Y-40903800D01*
X121536893Y-40903800D01*
X121502988Y-40903800D01*
X117929793Y-40903800D01*
X117795007Y-40903800D01*
X117795004Y-40903801D01*
X117772035Y-40911263D01*
X117753122Y-40915803D01*
X117729274Y-40919580D01*
X117707759Y-40930542D01*
X117689789Y-40937985D01*
X117666821Y-40945448D01*
X117666817Y-40945449D01*
X117647280Y-40959644D01*
X117630698Y-40969806D01*
X117609183Y-40980769D01*
X117609180Y-40980771D01*
X116896780Y-41693172D01*
X116896777Y-41693175D01*
X116867017Y-41722933D01*
X116805693Y-41756416D01*
X116736002Y-41751429D01*
X116695800Y-41726886D01*
X116661737Y-41695833D01*
X116576302Y-41617948D01*
X116395019Y-41505702D01*
X116395017Y-41505701D01*
X116295608Y-41467190D01*
X116196198Y-41428679D01*
X115986610Y-41389500D01*
X115773390Y-41389500D01*
X115563802Y-41428679D01*
X115563799Y-41428679D01*
X115563799Y-41428680D01*
X115364982Y-41505701D01*
X115364980Y-41505702D01*
X115183699Y-41617947D01*
X115026127Y-41761593D01*
X114897632Y-41931746D01*
X114802596Y-42122605D01*
X114802596Y-42122607D01*
X114744244Y-42327689D01*
X114733471Y-42443951D01*
X114707685Y-42508888D01*
X114663130Y-42540804D01*
X114699503Y-42561668D01*
X114731693Y-42623681D01*
X114733470Y-42636047D01*
X114744244Y-42752310D01*
X114800509Y-42950059D01*
X114802596Y-42957392D01*
X114802596Y-42957394D01*
X114897632Y-43148253D01*
X115026127Y-43318406D01*
X115026128Y-43318407D01*
X115183698Y-43462052D01*
X115364981Y-43574298D01*
X115563802Y-43651321D01*
X115756623Y-43687365D01*
X115818901Y-43719032D01*
X115854174Y-43779344D01*
X115851240Y-43849152D01*
X115821516Y-43896934D01*
X115498440Y-44220012D01*
X115431180Y-44287272D01*
X115401673Y-44316779D01*
X115335871Y-44382580D01*
X115324910Y-44404093D01*
X115314746Y-44420678D01*
X115300552Y-44440214D01*
X115300551Y-44440217D01*
X115293088Y-44463185D01*
X115285643Y-44481158D01*
X115274680Y-44502673D01*
X115270903Y-44526522D01*
X115266362Y-44545439D01*
X115258900Y-44568404D01*
X115258900Y-47651694D01*
X115266362Y-47674658D01*
X115270903Y-47693573D01*
X115273714Y-47711319D01*
X115274681Y-47717427D01*
X115285643Y-47738941D01*
X115293088Y-47756915D01*
X115300550Y-47779880D01*
X115314740Y-47799410D01*
X115324908Y-47816003D01*
X115335870Y-47837518D01*
X116164057Y-48665705D01*
X116197542Y-48727028D01*
X116199315Y-48737200D01*
X116215056Y-48856761D01*
X116215056Y-48856762D01*
X116274477Y-49000218D01*
X116275564Y-49002841D01*
X116371818Y-49128282D01*
X116497259Y-49224536D01*
X116643338Y-49285044D01*
X116721719Y-49295363D01*
X116800099Y-49305682D01*
X116800100Y-49305682D01*
X116800101Y-49305682D01*
X116852354Y-49298802D01*
X116956862Y-49285044D01*
X117102941Y-49224536D01*
X117228382Y-49128282D01*
X117324636Y-49002841D01*
X117385144Y-48856762D01*
X117402224Y-48727028D01*
X117405782Y-48700001D01*
X117405782Y-48699998D01*
X117386063Y-48550221D01*
X117385144Y-48543238D01*
X117324636Y-48397159D01*
X117228382Y-48271718D01*
X117102941Y-48175464D01*
X116956862Y-48114956D01*
X116929663Y-48111375D01*
X116837300Y-48099215D01*
X116773404Y-48070948D01*
X116765816Y-48063968D01*
X116661682Y-47959835D01*
X116628200Y-47898516D01*
X116633184Y-47828824D01*
X116675055Y-47772890D01*
X116740519Y-47748473D01*
X116767677Y-47750014D01*
X116767682Y-47749971D01*
X116768890Y-47750082D01*
X116772148Y-47750267D01*
X116773390Y-47750500D01*
X116773392Y-47750500D01*
X116986608Y-47750500D01*
X116986610Y-47750500D01*
X117196198Y-47711321D01*
X117395019Y-47634298D01*
X117576302Y-47522052D01*
X117733872Y-47378407D01*
X117862366Y-47208255D01*
X117865670Y-47201619D01*
X117957403Y-47017394D01*
X117957403Y-47017393D01*
X117957405Y-47017389D01*
X118015756Y-46812310D01*
X118026529Y-46696047D01*
X118052315Y-46631111D01*
X118096869Y-46599194D01*
X118060497Y-46578331D01*
X118028307Y-46516318D01*
X118026529Y-46503951D01*
X118022569Y-46461216D01*
X118015756Y-46387690D01*
X117957405Y-46182611D01*
X117957403Y-46182606D01*
X117957403Y-46182605D01*
X117862367Y-45991746D01*
X117733872Y-45821593D01*
X117576302Y-45677948D01*
X117395019Y-45565702D01*
X117395017Y-45565701D01*
X117228049Y-45501018D01*
X117196198Y-45488679D01*
X116986610Y-45449500D01*
X116773390Y-45449500D01*
X116563802Y-45488679D01*
X116563799Y-45488679D01*
X116563799Y-45488680D01*
X116364982Y-45565701D01*
X116299177Y-45606446D01*
X116231816Y-45625000D01*
X116165117Y-45604192D01*
X116120256Y-45550626D01*
X116109900Y-45501018D01*
X116109900Y-44863410D01*
X116129585Y-44796371D01*
X116146219Y-44775729D01*
X116763906Y-44158042D01*
X117474553Y-43447395D01*
X117498528Y-43423420D01*
X117498529Y-43423416D01*
X117501975Y-43419971D01*
X117563298Y-43386485D01*
X117632989Y-43391468D01*
X117673196Y-43416014D01*
X117707620Y-43447395D01*
X117723698Y-43462052D01*
X117904981Y-43574298D01*
X117915290Y-43578291D01*
X117970692Y-43620860D01*
X117994285Y-43686626D01*
X117994500Y-43693919D01*
X117994500Y-43784294D01*
X118001962Y-43807258D01*
X118006503Y-43826173D01*
X118006765Y-43827824D01*
X118010281Y-43850027D01*
X118021243Y-43871541D01*
X118028688Y-43889515D01*
X118036150Y-43912480D01*
X118050340Y-43932010D01*
X118060508Y-43948603D01*
X118071470Y-43970118D01*
X119347110Y-45245758D01*
X119380595Y-45307081D01*
X119375611Y-45376773D01*
X119333739Y-45432706D01*
X119282214Y-45455327D01*
X119103802Y-45488679D01*
X119103799Y-45488679D01*
X119103799Y-45488680D01*
X118904982Y-45565701D01*
X118904980Y-45565702D01*
X118723699Y-45677947D01*
X118566127Y-45821593D01*
X118437632Y-45991746D01*
X118342596Y-46182605D01*
X118342596Y-46182607D01*
X118284244Y-46387689D01*
X118273471Y-46503951D01*
X118247685Y-46568888D01*
X118203130Y-46600804D01*
X118239503Y-46621668D01*
X118271693Y-46683681D01*
X118273471Y-46696048D01*
X118284244Y-46812310D01*
X118342596Y-47017392D01*
X118342596Y-47017394D01*
X118437632Y-47208253D01*
X118566125Y-47378403D01*
X118566128Y-47378407D01*
X118723698Y-47522052D01*
X118904981Y-47634298D01*
X119103802Y-47711321D01*
X119313390Y-47750500D01*
X119313392Y-47750500D01*
X119526608Y-47750500D01*
X119526610Y-47750500D01*
X119736198Y-47711321D01*
X119935019Y-47634298D01*
X120116302Y-47522052D01*
X120273872Y-47378407D01*
X120402366Y-47208255D01*
X120405670Y-47201619D01*
X120497403Y-47017394D01*
X120497403Y-47017393D01*
X120497405Y-47017389D01*
X120555756Y-46812310D01*
X120561736Y-46747773D01*
X120587520Y-46682838D01*
X120644320Y-46642150D01*
X120714101Y-46638629D01*
X120772887Y-46671534D01*
X121638481Y-47537128D01*
X121671966Y-47598451D01*
X121674800Y-47624809D01*
X121674800Y-68113799D01*
X121655115Y-68180838D01*
X121649176Y-68189285D01*
X121575764Y-68284957D01*
X121539061Y-68373568D01*
X121495220Y-68427971D01*
X121428926Y-68450036D01*
X121361226Y-68432757D01*
X121313616Y-68381619D01*
X121300500Y-68326115D01*
X121300500Y-52381995D01*
X121300500Y-52381989D01*
X121269693Y-52147986D01*
X121208606Y-51920007D01*
X121118284Y-51701951D01*
X121118282Y-51701948D01*
X121118280Y-51701943D01*
X121076118Y-51628918D01*
X121000273Y-51497550D01*
X120894120Y-51359208D01*
X120856593Y-51310302D01*
X120856587Y-51310295D01*
X120689704Y-51143412D01*
X120689697Y-51143406D01*
X120502454Y-50999730D01*
X120502453Y-50999729D01*
X120502450Y-50999727D01*
X120396506Y-50938560D01*
X120298056Y-50881719D01*
X120298045Y-50881714D01*
X120079993Y-50791394D01*
X119931581Y-50751627D01*
X119852014Y-50730307D01*
X119852013Y-50730306D01*
X119852010Y-50730306D01*
X119618020Y-50699501D01*
X119618017Y-50699500D01*
X119618011Y-50699500D01*
X119556173Y-50699500D01*
X86047595Y-50699500D01*
X86000000Y-50699500D01*
X85881989Y-50699500D01*
X85881983Y-50699500D01*
X85881979Y-50699501D01*
X85647989Y-50730306D01*
X85420006Y-50791394D01*
X85201954Y-50881714D01*
X85201943Y-50881719D01*
X84997545Y-50999730D01*
X84810302Y-51143406D01*
X84810295Y-51143412D01*
X84643412Y-51310295D01*
X84643406Y-51310302D01*
X84499732Y-51497542D01*
X84499728Y-51497547D01*
X84499727Y-51497550D01*
X84442651Y-51596406D01*
X84415787Y-51642938D01*
X84365219Y-51691153D01*
X84296612Y-51704375D01*
X84231748Y-51678407D01*
X84191220Y-51621493D01*
X84184400Y-51580937D01*
X84184400Y-50645610D01*
X84204085Y-50578571D01*
X84220719Y-50557929D01*
X85229148Y-49549500D01*
X86313070Y-48465577D01*
X86374391Y-48432094D01*
X86444083Y-48437078D01*
X86488430Y-48465579D01*
X86557677Y-48534826D01*
X86557679Y-48534827D01*
X86557680Y-48534828D01*
X86579200Y-48545793D01*
X86595775Y-48555949D01*
X86615319Y-48570149D01*
X86638281Y-48577609D01*
X86656254Y-48585053D01*
X86677774Y-48596019D01*
X86701624Y-48599795D01*
X86720545Y-48604339D01*
X86742389Y-48611436D01*
X86743507Y-48611800D01*
X86777412Y-48611800D01*
X99642799Y-48611800D01*
X99709838Y-48631485D01*
X99718285Y-48637424D01*
X99813957Y-48710835D01*
X99813958Y-48710835D01*
X99813959Y-48710836D01*
X99960038Y-48771344D01*
X100038419Y-48781663D01*
X100116799Y-48791982D01*
X100116800Y-48791982D01*
X100116801Y-48791982D01*
X100169054Y-48785102D01*
X100273562Y-48771344D01*
X100419641Y-48710836D01*
X100545082Y-48614582D01*
X100641336Y-48489141D01*
X100701844Y-48343062D01*
X100722482Y-48186300D01*
X100721055Y-48175464D01*
X100701844Y-48029539D01*
X100701844Y-48029538D01*
X100641336Y-47883459D01*
X100545082Y-47758018D01*
X100419641Y-47661764D01*
X100396993Y-47652383D01*
X100273562Y-47601256D01*
X100273560Y-47601255D01*
X100116801Y-47580618D01*
X100116799Y-47580618D01*
X100058598Y-47588280D01*
X99989562Y-47577514D01*
X99937307Y-47531134D01*
X99918422Y-47463865D01*
X99938903Y-47397065D01*
X99950779Y-47381799D01*
X99953862Y-47378415D01*
X99953872Y-47378407D01*
X100082366Y-47208255D01*
X100085670Y-47201619D01*
X100177403Y-47017394D01*
X100177403Y-47017393D01*
X100177405Y-47017389D01*
X100235756Y-46812310D01*
X100255429Y-46600000D01*
X103024571Y-46600000D01*
X103044244Y-46812310D01*
X103102596Y-47017392D01*
X103102596Y-47017394D01*
X103197632Y-47208253D01*
X103326125Y-47378403D01*
X103326128Y-47378407D01*
X103483698Y-47522052D01*
X103664981Y-47634298D01*
X103863802Y-47711321D01*
X104073390Y-47750500D01*
X104073392Y-47750500D01*
X104286608Y-47750500D01*
X104286610Y-47750500D01*
X104496198Y-47711321D01*
X104695019Y-47634298D01*
X104876302Y-47522052D01*
X104906134Y-47494856D01*
X110649500Y-47494856D01*
X110649502Y-47494882D01*
X110652413Y-47519987D01*
X110652415Y-47519991D01*
X110697793Y-47622764D01*
X110697794Y-47622765D01*
X110777235Y-47702206D01*
X110880009Y-47747585D01*
X110905135Y-47750500D01*
X112694864Y-47750499D01*
X112694879Y-47750497D01*
X112694882Y-47750497D01*
X112719987Y-47747586D01*
X112719988Y-47747585D01*
X112719991Y-47747585D01*
X112822765Y-47702206D01*
X112902206Y-47622765D01*
X112947585Y-47519991D01*
X112950500Y-47494865D01*
X112950499Y-45705136D01*
X112950497Y-45705117D01*
X112947586Y-45680012D01*
X112947585Y-45680010D01*
X112947585Y-45680009D01*
X112902206Y-45577235D01*
X112822765Y-45497794D01*
X112802124Y-45488680D01*
X112719992Y-45452415D01*
X112694865Y-45449500D01*
X110905143Y-45449500D01*
X110905117Y-45449502D01*
X110880012Y-45452413D01*
X110880008Y-45452415D01*
X110777235Y-45497793D01*
X110697794Y-45577234D01*
X110652415Y-45680006D01*
X110652415Y-45680008D01*
X110649500Y-45705131D01*
X110649500Y-47494856D01*
X104906134Y-47494856D01*
X105033872Y-47378407D01*
X105162366Y-47208255D01*
X105165670Y-47201619D01*
X105257403Y-47017394D01*
X105257403Y-47017393D01*
X105257405Y-47017389D01*
X105315756Y-46812310D01*
X105335429Y-46600000D01*
X105315756Y-46387690D01*
X105257405Y-46182611D01*
X105257403Y-46182606D01*
X105257403Y-46182605D01*
X105162367Y-45991746D01*
X105033872Y-45821593D01*
X104876302Y-45677948D01*
X104695019Y-45565702D01*
X104695017Y-45565701D01*
X104528049Y-45501018D01*
X104496198Y-45488679D01*
X104286610Y-45449500D01*
X104073390Y-45449500D01*
X103863802Y-45488679D01*
X103863799Y-45488679D01*
X103863799Y-45488680D01*
X103664982Y-45565701D01*
X103664980Y-45565702D01*
X103483699Y-45677947D01*
X103326127Y-45821593D01*
X103197632Y-45991746D01*
X103102596Y-46182605D01*
X103102596Y-46182607D01*
X103044244Y-46387689D01*
X103024571Y-46599999D01*
X103024571Y-46600000D01*
X100255429Y-46600000D01*
X100235756Y-46387690D01*
X100177405Y-46182611D01*
X100177403Y-46182606D01*
X100177403Y-46182605D01*
X100082367Y-45991746D01*
X99953872Y-45821593D01*
X99796302Y-45677948D01*
X99615019Y-45565702D01*
X99615017Y-45565701D01*
X99448049Y-45501018D01*
X99416198Y-45488679D01*
X99206610Y-45449500D01*
X98993390Y-45449500D01*
X98783802Y-45488679D01*
X98783799Y-45488679D01*
X98783799Y-45488680D01*
X98584982Y-45565701D01*
X98584980Y-45565702D01*
X98403699Y-45677947D01*
X98246127Y-45821593D01*
X98117632Y-45991746D01*
X98022596Y-46182605D01*
X98022596Y-46182607D01*
X97964244Y-46387689D01*
X97953471Y-46503951D01*
X97927685Y-46568888D01*
X97883130Y-46600804D01*
X97919503Y-46621668D01*
X97951693Y-46683681D01*
X97953471Y-46696048D01*
X97964244Y-46812310D01*
X98022596Y-47017392D01*
X98022596Y-47017394D01*
X98117632Y-47208253D01*
X98246125Y-47378403D01*
X98246128Y-47378407D01*
X98403698Y-47522052D01*
X98418366Y-47531134D01*
X98418752Y-47531373D01*
X98465387Y-47583401D01*
X98476491Y-47652383D01*
X98448538Y-47716417D01*
X98390402Y-47755174D01*
X98353474Y-47760800D01*
X97306526Y-47760800D01*
X97239487Y-47741115D01*
X97193732Y-47688311D01*
X97183788Y-47619153D01*
X97212813Y-47555597D01*
X97241248Y-47531373D01*
X97241634Y-47531134D01*
X97256302Y-47522052D01*
X97413872Y-47378407D01*
X97542366Y-47208255D01*
X97545670Y-47201619D01*
X97637403Y-47017394D01*
X97637403Y-47017393D01*
X97637405Y-47017389D01*
X97695756Y-46812310D01*
X97706529Y-46696047D01*
X97732315Y-46631111D01*
X97776869Y-46599194D01*
X97740497Y-46578331D01*
X97708307Y-46516318D01*
X97706529Y-46503951D01*
X97702569Y-46461216D01*
X97695756Y-46387690D01*
X97637405Y-46182611D01*
X97637403Y-46182606D01*
X97637403Y-46182605D01*
X97542367Y-45991746D01*
X97413872Y-45821593D01*
X97256302Y-45677948D01*
X97075019Y-45565702D01*
X97075017Y-45565701D01*
X96908049Y-45501018D01*
X96876198Y-45488679D01*
X96666610Y-45449500D01*
X96453390Y-45449500D01*
X96243802Y-45488679D01*
X96243799Y-45488679D01*
X96243799Y-45488680D01*
X96044982Y-45565701D01*
X96044980Y-45565702D01*
X95863699Y-45677947D01*
X95706127Y-45821593D01*
X95577632Y-45991746D01*
X95482596Y-46182605D01*
X95482596Y-46182607D01*
X95424244Y-46387689D01*
X95413471Y-46503951D01*
X95387685Y-46568888D01*
X95343130Y-46600804D01*
X95379503Y-46621668D01*
X95411693Y-46683681D01*
X95413471Y-46696048D01*
X95424244Y-46812310D01*
X95482596Y-47017392D01*
X95482596Y-47017394D01*
X95577632Y-47208253D01*
X95706125Y-47378403D01*
X95706128Y-47378407D01*
X95863698Y-47522052D01*
X95878366Y-47531134D01*
X95878752Y-47531373D01*
X95925387Y-47583401D01*
X95936491Y-47652383D01*
X95908538Y-47716417D01*
X95850402Y-47755174D01*
X95813474Y-47760800D01*
X94766526Y-47760800D01*
X94699487Y-47741115D01*
X94653732Y-47688311D01*
X94643788Y-47619153D01*
X94672813Y-47555597D01*
X94701248Y-47531373D01*
X94701634Y-47531134D01*
X94716302Y-47522052D01*
X94873872Y-47378407D01*
X95002366Y-47208255D01*
X95005670Y-47201619D01*
X95097403Y-47017394D01*
X95097403Y-47017393D01*
X95097405Y-47017389D01*
X95155756Y-46812310D01*
X95166529Y-46696047D01*
X95192315Y-46631111D01*
X95236869Y-46599194D01*
X95200497Y-46578331D01*
X95168307Y-46516318D01*
X95166529Y-46503951D01*
X95162569Y-46461216D01*
X95155756Y-46387690D01*
X95097405Y-46182611D01*
X95097403Y-46182606D01*
X95097403Y-46182605D01*
X95002367Y-45991746D01*
X94873872Y-45821593D01*
X94716302Y-45677948D01*
X94535019Y-45565702D01*
X94535017Y-45565701D01*
X94368049Y-45501018D01*
X94336198Y-45488679D01*
X94126610Y-45449500D01*
X93913390Y-45449500D01*
X93703802Y-45488679D01*
X93703799Y-45488679D01*
X93703799Y-45488680D01*
X93504982Y-45565701D01*
X93504980Y-45565702D01*
X93323699Y-45677947D01*
X93166127Y-45821593D01*
X93037632Y-45991746D01*
X92942596Y-46182605D01*
X92942596Y-46182607D01*
X92884244Y-46387689D01*
X92873471Y-46503951D01*
X92847685Y-46568888D01*
X92803130Y-46600804D01*
X92839503Y-46621668D01*
X92871693Y-46683681D01*
X92873471Y-46696048D01*
X92884244Y-46812310D01*
X92942596Y-47017392D01*
X92942596Y-47017394D01*
X93037632Y-47208253D01*
X93166125Y-47378403D01*
X93166128Y-47378407D01*
X93323698Y-47522052D01*
X93338366Y-47531134D01*
X93338752Y-47531373D01*
X93385387Y-47583401D01*
X93396491Y-47652383D01*
X93368538Y-47716417D01*
X93310402Y-47755174D01*
X93273474Y-47760800D01*
X92226526Y-47760800D01*
X92159487Y-47741115D01*
X92113732Y-47688311D01*
X92103788Y-47619153D01*
X92132813Y-47555597D01*
X92161248Y-47531373D01*
X92161634Y-47531134D01*
X92176302Y-47522052D01*
X92333872Y-47378407D01*
X92462366Y-47208255D01*
X92465670Y-47201619D01*
X92557403Y-47017394D01*
X92557403Y-47017393D01*
X92557405Y-47017389D01*
X92615756Y-46812310D01*
X92626529Y-46696047D01*
X92652315Y-46631111D01*
X92696869Y-46599194D01*
X92660497Y-46578331D01*
X92628307Y-46516318D01*
X92626529Y-46503951D01*
X92622569Y-46461216D01*
X92615756Y-46387690D01*
X92557405Y-46182611D01*
X92557403Y-46182606D01*
X92557403Y-46182605D01*
X92462367Y-45991746D01*
X92333872Y-45821593D01*
X92176302Y-45677948D01*
X91995019Y-45565702D01*
X91995017Y-45565701D01*
X91828049Y-45501018D01*
X91796198Y-45488679D01*
X91586610Y-45449500D01*
X91373390Y-45449500D01*
X91163802Y-45488679D01*
X91163799Y-45488679D01*
X91163799Y-45488680D01*
X90964982Y-45565701D01*
X90964980Y-45565702D01*
X90783699Y-45677947D01*
X90626127Y-45821593D01*
X90497632Y-45991746D01*
X90402596Y-46182605D01*
X90402596Y-46182607D01*
X90344244Y-46387689D01*
X90324571Y-46599999D01*
X90324571Y-46600000D01*
X90344244Y-46812310D01*
X90402596Y-47017392D01*
X90402596Y-47017394D01*
X90497632Y-47208253D01*
X90626125Y-47378403D01*
X90626128Y-47378407D01*
X90783698Y-47522052D01*
X90798366Y-47531134D01*
X90798752Y-47531373D01*
X90845387Y-47583401D01*
X90856491Y-47652383D01*
X90828538Y-47716417D01*
X90770402Y-47755174D01*
X90733474Y-47760800D01*
X87631558Y-47760800D01*
X87564519Y-47741115D01*
X87518764Y-47688311D01*
X87508820Y-47619153D01*
X87518124Y-47586713D01*
X87547585Y-47519991D01*
X87550500Y-47494865D01*
X87550499Y-45705136D01*
X87550497Y-45705117D01*
X87547586Y-45680012D01*
X87547585Y-45680010D01*
X87547585Y-45680009D01*
X87502206Y-45577235D01*
X87422765Y-45497794D01*
X87402124Y-45488680D01*
X87319992Y-45452415D01*
X87294868Y-45449500D01*
X87294865Y-45449500D01*
X86281709Y-45449500D01*
X86214670Y-45429815D01*
X86168915Y-45377011D01*
X86158971Y-45307853D01*
X86187996Y-45244297D01*
X86194028Y-45237819D01*
X86801229Y-44630619D01*
X86862552Y-44597134D01*
X86888910Y-44594300D01*
X102981692Y-44594300D01*
X102981693Y-44594300D01*
X103004660Y-44586836D01*
X103023576Y-44582295D01*
X103047426Y-44578519D01*
X103068936Y-44567557D01*
X103086914Y-44560110D01*
X103109881Y-44552649D01*
X103129418Y-44538453D01*
X103146006Y-44528288D01*
X103167520Y-44517328D01*
X103262828Y-44422020D01*
X103262828Y-44422019D01*
X104550375Y-43134470D01*
X104611696Y-43100987D01*
X104681388Y-43105971D01*
X104737008Y-43147426D01*
X104865928Y-43318143D01*
X104866128Y-43318407D01*
X105023698Y-43462052D01*
X105204981Y-43574298D01*
X105403802Y-43651321D01*
X105613390Y-43690500D01*
X105613392Y-43690500D01*
X105826608Y-43690500D01*
X105826610Y-43690500D01*
X106036198Y-43651321D01*
X106235019Y-43574298D01*
X106416302Y-43462052D01*
X106573872Y-43318407D01*
X106702366Y-43148255D01*
X106709229Y-43134472D01*
X106797403Y-42957394D01*
X106797403Y-42957393D01*
X106797405Y-42957389D01*
X106855756Y-42752310D01*
X106866529Y-42636047D01*
X106892315Y-42571111D01*
X106934622Y-42540804D01*
X107043130Y-42540804D01*
X107079503Y-42561668D01*
X107111693Y-42623681D01*
X107113470Y-42636047D01*
X107124244Y-42752310D01*
X107180509Y-42950059D01*
X107182596Y-42957392D01*
X107182596Y-42957394D01*
X107277632Y-43148253D01*
X107406127Y-43318406D01*
X107406128Y-43318407D01*
X107563698Y-43462052D01*
X107744981Y-43574298D01*
X107943802Y-43651321D01*
X108153390Y-43690500D01*
X108153392Y-43690500D01*
X108366608Y-43690500D01*
X108366610Y-43690500D01*
X108576198Y-43651321D01*
X108775019Y-43574298D01*
X108956302Y-43462052D01*
X109113872Y-43318407D01*
X109242366Y-43148255D01*
X109249229Y-43134472D01*
X109337403Y-42957394D01*
X109337403Y-42957393D01*
X109337405Y-42957389D01*
X109395756Y-42752310D01*
X109406529Y-42636047D01*
X109432315Y-42571111D01*
X109474622Y-42540804D01*
X109583130Y-42540804D01*
X109619503Y-42561668D01*
X109651693Y-42623681D01*
X109653470Y-42636047D01*
X109664244Y-42752310D01*
X109720509Y-42950059D01*
X109722596Y-42957392D01*
X109722596Y-42957394D01*
X109817632Y-43148253D01*
X109946127Y-43318406D01*
X109946128Y-43318407D01*
X110103698Y-43462052D01*
X110284981Y-43574298D01*
X110483802Y-43651321D01*
X110693390Y-43690500D01*
X110693392Y-43690500D01*
X110906608Y-43690500D01*
X110906610Y-43690500D01*
X111116198Y-43651321D01*
X111315019Y-43574298D01*
X111496302Y-43462052D01*
X111653872Y-43318407D01*
X111782366Y-43148255D01*
X111789229Y-43134472D01*
X111877403Y-42957394D01*
X111877403Y-42957393D01*
X111877405Y-42957389D01*
X111935756Y-42752310D01*
X111946529Y-42636047D01*
X111972315Y-42571111D01*
X112014622Y-42540804D01*
X112123130Y-42540804D01*
X112159503Y-42561668D01*
X112191693Y-42623681D01*
X112193470Y-42636047D01*
X112204244Y-42752310D01*
X112260509Y-42950059D01*
X112262596Y-42957392D01*
X112262596Y-42957394D01*
X112357632Y-43148253D01*
X112486127Y-43318406D01*
X112486128Y-43318407D01*
X112643698Y-43462052D01*
X112824981Y-43574298D01*
X113023802Y-43651321D01*
X113233390Y-43690500D01*
X113233392Y-43690500D01*
X113446608Y-43690500D01*
X113446610Y-43690500D01*
X113656198Y-43651321D01*
X113855019Y-43574298D01*
X114036302Y-43462052D01*
X114193872Y-43318407D01*
X114322366Y-43148255D01*
X114329229Y-43134472D01*
X114417403Y-42957394D01*
X114417403Y-42957393D01*
X114417405Y-42957389D01*
X114475756Y-42752310D01*
X114486529Y-42636047D01*
X114512315Y-42571111D01*
X114556869Y-42539194D01*
X114520497Y-42518331D01*
X114488307Y-42456318D01*
X114486529Y-42443951D01*
X114480969Y-42383951D01*
X114475756Y-42327690D01*
X114417405Y-42122611D01*
X114417403Y-42122606D01*
X114417403Y-42122605D01*
X114322367Y-41931746D01*
X114193872Y-41761593D01*
X114121737Y-41695833D01*
X114036302Y-41617948D01*
X113855019Y-41505702D01*
X113855017Y-41505701D01*
X113755608Y-41467190D01*
X113656198Y-41428679D01*
X113446610Y-41389500D01*
X113233390Y-41389500D01*
X113023802Y-41428679D01*
X113023799Y-41428679D01*
X113023799Y-41428680D01*
X112824982Y-41505701D01*
X112824980Y-41505702D01*
X112643699Y-41617947D01*
X112486127Y-41761593D01*
X112357632Y-41931746D01*
X112262596Y-42122605D01*
X112262596Y-42122607D01*
X112204244Y-42327689D01*
X112193471Y-42443951D01*
X112167685Y-42508888D01*
X112123130Y-42540804D01*
X112014622Y-42540804D01*
X112016869Y-42539194D01*
X111980497Y-42518331D01*
X111948307Y-42456318D01*
X111946529Y-42443951D01*
X111940969Y-42383951D01*
X111935756Y-42327690D01*
X111877405Y-42122611D01*
X111877403Y-42122606D01*
X111877403Y-42122605D01*
X111782367Y-41931746D01*
X111653872Y-41761593D01*
X111581737Y-41695833D01*
X111496302Y-41617948D01*
X111315019Y-41505702D01*
X111315017Y-41505701D01*
X111215608Y-41467190D01*
X111116198Y-41428679D01*
X110906610Y-41389500D01*
X110693390Y-41389500D01*
X110483802Y-41428679D01*
X110483799Y-41428679D01*
X110483799Y-41428680D01*
X110284982Y-41505701D01*
X110284980Y-41505702D01*
X110103699Y-41617947D01*
X109946127Y-41761593D01*
X109817632Y-41931746D01*
X109722596Y-42122605D01*
X109722596Y-42122607D01*
X109664244Y-42327689D01*
X109653471Y-42443951D01*
X109627685Y-42508888D01*
X109583130Y-42540804D01*
X109474622Y-42540804D01*
X109476869Y-42539194D01*
X109440497Y-42518331D01*
X109408307Y-42456318D01*
X109406529Y-42443951D01*
X109400969Y-42383951D01*
X109395756Y-42327690D01*
X109337405Y-42122611D01*
X109337403Y-42122606D01*
X109337403Y-42122605D01*
X109242367Y-41931746D01*
X109113872Y-41761593D01*
X109041737Y-41695833D01*
X108956302Y-41617948D01*
X108775019Y-41505702D01*
X108775017Y-41505701D01*
X108675608Y-41467190D01*
X108576198Y-41428679D01*
X108366610Y-41389500D01*
X108153390Y-41389500D01*
X107943802Y-41428679D01*
X107943799Y-41428679D01*
X107943799Y-41428680D01*
X107744982Y-41505701D01*
X107744980Y-41505702D01*
X107563699Y-41617947D01*
X107406127Y-41761593D01*
X107277632Y-41931746D01*
X107182596Y-42122605D01*
X107182596Y-42122607D01*
X107124244Y-42327689D01*
X107113471Y-42443951D01*
X107087685Y-42508888D01*
X107043130Y-42540804D01*
X106934622Y-42540804D01*
X106936869Y-42539194D01*
X106900497Y-42518331D01*
X106868307Y-42456318D01*
X106866529Y-42443951D01*
X106860969Y-42383951D01*
X106855756Y-42327690D01*
X106797405Y-42122611D01*
X106797403Y-42122606D01*
X106797403Y-42122605D01*
X106702367Y-41931746D01*
X106573872Y-41761593D01*
X106501737Y-41695833D01*
X106416302Y-41617948D01*
X106235019Y-41505702D01*
X106235017Y-41505701D01*
X106135608Y-41467190D01*
X106036198Y-41428679D01*
X105826610Y-41389500D01*
X105613390Y-41389500D01*
X105403802Y-41428679D01*
X105403799Y-41428679D01*
X105403799Y-41428680D01*
X105204982Y-41505701D01*
X105204980Y-41505702D01*
X105023699Y-41617947D01*
X104866127Y-41761593D01*
X104737632Y-41931746D01*
X104680856Y-42045771D01*
X104633354Y-42097008D01*
X104569856Y-42114500D01*
X104475704Y-42114500D01*
X104452739Y-42121962D01*
X104433822Y-42126503D01*
X104409973Y-42130280D01*
X104388458Y-42141243D01*
X104370485Y-42148688D01*
X104347518Y-42156150D01*
X104347516Y-42156151D01*
X104327983Y-42170343D01*
X104311401Y-42180505D01*
X104289881Y-42191470D01*
X104289879Y-42191472D01*
X104194571Y-42286781D01*
X103022180Y-43459171D01*
X102960857Y-43492656D01*
X102891165Y-43487672D01*
X102835232Y-43445800D01*
X102810815Y-43380336D01*
X102810499Y-43371517D01*
X102810499Y-41645136D01*
X102810422Y-41644471D01*
X102807586Y-41620012D01*
X102807585Y-41620010D01*
X102807585Y-41620009D01*
X102762206Y-41517235D01*
X102682765Y-41437794D01*
X102662124Y-41428680D01*
X102579992Y-41392415D01*
X102554865Y-41389500D01*
X100765143Y-41389500D01*
X100765117Y-41389502D01*
X100740012Y-41392413D01*
X100740008Y-41392415D01*
X100637235Y-41437793D01*
X100557794Y-41517234D01*
X100512415Y-41620006D01*
X100512415Y-41620008D01*
X100509500Y-41645131D01*
X100509500Y-42383951D01*
X100489815Y-42450990D01*
X100437011Y-42496745D01*
X100367853Y-42506689D01*
X100304297Y-42477664D01*
X100266523Y-42418886D01*
X100262029Y-42395391D01*
X100255756Y-42327689D01*
X100220274Y-42202986D01*
X100197405Y-42122611D01*
X100197403Y-42122606D01*
X100197403Y-42122605D01*
X100102367Y-41931746D01*
X99973872Y-41761593D01*
X99901737Y-41695833D01*
X99816302Y-41617948D01*
X99635019Y-41505702D01*
X99635017Y-41505701D01*
X99535608Y-41467190D01*
X99436198Y-41428679D01*
X99226610Y-41389500D01*
X99013390Y-41389500D01*
X98803802Y-41428679D01*
X98803799Y-41428679D01*
X98803799Y-41428680D01*
X98604982Y-41505701D01*
X98604980Y-41505702D01*
X98423699Y-41617947D01*
X98266127Y-41761593D01*
X98137632Y-41931746D01*
X98042596Y-42122605D01*
X98042596Y-42122607D01*
X97984244Y-42327689D01*
X97973471Y-42443951D01*
X97947685Y-42508888D01*
X97903130Y-42540804D01*
X97939503Y-42561668D01*
X97971693Y-42623681D01*
X97973470Y-42636047D01*
X97984244Y-42752310D01*
X98040509Y-42950059D01*
X98042596Y-42957392D01*
X98042596Y-42957394D01*
X98137632Y-43148253D01*
X98266127Y-43318406D01*
X98266128Y-43318407D01*
X98423698Y-43462052D01*
X98507392Y-43513873D01*
X98554027Y-43565901D01*
X98565131Y-43634883D01*
X98537178Y-43698917D01*
X98479043Y-43737673D01*
X98442114Y-43743300D01*
X97257886Y-43743300D01*
X97190847Y-43723615D01*
X97145092Y-43670811D01*
X97135148Y-43601653D01*
X97164173Y-43538097D01*
X97192608Y-43513873D01*
X97276302Y-43462052D01*
X97433872Y-43318407D01*
X97562366Y-43148255D01*
X97569229Y-43134472D01*
X97657403Y-42957394D01*
X97657403Y-42957393D01*
X97657405Y-42957389D01*
X97715756Y-42752310D01*
X97726529Y-42636047D01*
X97752315Y-42571111D01*
X97796869Y-42539194D01*
X97760497Y-42518331D01*
X97728307Y-42456318D01*
X97726529Y-42443951D01*
X97720969Y-42383951D01*
X97715756Y-42327690D01*
X97657405Y-42122611D01*
X97657403Y-42122606D01*
X97657403Y-42122605D01*
X97562367Y-41931746D01*
X97433872Y-41761593D01*
X97361737Y-41695833D01*
X97276302Y-41617948D01*
X97095019Y-41505702D01*
X97095017Y-41505701D01*
X96995608Y-41467190D01*
X96896198Y-41428679D01*
X96686610Y-41389500D01*
X96473390Y-41389500D01*
X96263802Y-41428679D01*
X96263799Y-41428679D01*
X96263799Y-41428680D01*
X96064982Y-41505701D01*
X96064980Y-41505702D01*
X95883699Y-41617947D01*
X95726127Y-41761593D01*
X95597632Y-41931746D01*
X95502596Y-42122605D01*
X95502596Y-42122607D01*
X95444244Y-42327689D01*
X95433471Y-42443951D01*
X95407685Y-42508888D01*
X95363130Y-42540804D01*
X95399503Y-42561668D01*
X95431693Y-42623681D01*
X95433470Y-42636047D01*
X95444244Y-42752310D01*
X95500509Y-42950059D01*
X95502596Y-42957392D01*
X95502596Y-42957394D01*
X95597632Y-43148253D01*
X95726127Y-43318406D01*
X95726128Y-43318407D01*
X95883698Y-43462052D01*
X95967392Y-43513873D01*
X96014027Y-43565901D01*
X96025131Y-43634883D01*
X95997178Y-43698917D01*
X95939043Y-43737673D01*
X95902114Y-43743300D01*
X94717886Y-43743300D01*
X94650847Y-43723615D01*
X94605092Y-43670811D01*
X94595148Y-43601653D01*
X94624173Y-43538097D01*
X94652608Y-43513873D01*
X94736302Y-43462052D01*
X94893872Y-43318407D01*
X95022366Y-43148255D01*
X95029229Y-43134472D01*
X95117403Y-42957394D01*
X95117403Y-42957393D01*
X95117405Y-42957389D01*
X95175756Y-42752310D01*
X95186529Y-42636047D01*
X95212315Y-42571111D01*
X95256869Y-42539194D01*
X95220497Y-42518331D01*
X95188307Y-42456318D01*
X95186529Y-42443951D01*
X95180969Y-42383951D01*
X95175756Y-42327690D01*
X95117405Y-42122611D01*
X95117403Y-42122606D01*
X95117403Y-42122605D01*
X95022367Y-41931746D01*
X94893872Y-41761593D01*
X94821737Y-41695833D01*
X94736302Y-41617948D01*
X94555019Y-41505702D01*
X94555017Y-41505701D01*
X94455608Y-41467190D01*
X94356198Y-41428679D01*
X94146610Y-41389500D01*
X93933390Y-41389500D01*
X93723802Y-41428679D01*
X93723799Y-41428679D01*
X93723799Y-41428680D01*
X93524982Y-41505701D01*
X93524980Y-41505702D01*
X93343699Y-41617947D01*
X93186127Y-41761593D01*
X93057632Y-41931746D01*
X93002061Y-42043350D01*
X92954558Y-42094588D01*
X92886895Y-42112009D01*
X92871663Y-42110552D01*
X92863102Y-42109196D01*
X92863099Y-42109196D01*
X92846356Y-42111848D01*
X92829612Y-42114500D01*
X92829611Y-42114500D01*
X92729977Y-42130279D01*
X92722830Y-42133921D01*
X92654159Y-42146812D01*
X92589421Y-42120532D01*
X92555542Y-42078703D01*
X92482367Y-41931746D01*
X92353872Y-41761593D01*
X92281737Y-41695833D01*
X92196302Y-41617948D01*
X92015019Y-41505702D01*
X92015017Y-41505701D01*
X91915608Y-41467190D01*
X91816198Y-41428679D01*
X91606610Y-41389500D01*
X91393390Y-41389500D01*
X91183802Y-41428679D01*
X91183799Y-41428679D01*
X91183799Y-41428680D01*
X90984982Y-41505701D01*
X90984980Y-41505702D01*
X90803699Y-41617947D01*
X90646127Y-41761593D01*
X90517632Y-41931746D01*
X90422596Y-42122605D01*
X90422596Y-42122607D01*
X90364244Y-42327689D01*
X90353471Y-42443951D01*
X90327685Y-42508888D01*
X90283130Y-42540804D01*
X90319503Y-42561668D01*
X90351693Y-42623681D01*
X90353470Y-42636047D01*
X90364244Y-42752310D01*
X90420509Y-42950059D01*
X90422596Y-42957392D01*
X90422596Y-42957394D01*
X90499645Y-43112129D01*
X90511906Y-43180914D01*
X90485033Y-43245409D01*
X90427557Y-43285137D01*
X90388645Y-43291400D01*
X90071355Y-43291400D01*
X90004316Y-43271715D01*
X89958561Y-43218911D01*
X89948617Y-43149753D01*
X89960355Y-43112129D01*
X90037403Y-42957394D01*
X90037403Y-42957393D01*
X90037405Y-42957389D01*
X90095756Y-42752310D01*
X90106529Y-42636047D01*
X90132315Y-42571111D01*
X90176869Y-42539194D01*
X90140497Y-42518331D01*
X90108307Y-42456318D01*
X90106529Y-42443951D01*
X90100969Y-42383951D01*
X90095756Y-42327690D01*
X90037405Y-42122611D01*
X90037403Y-42122606D01*
X90037403Y-42122605D01*
X89942367Y-41931746D01*
X89813872Y-41761593D01*
X89741737Y-41695833D01*
X89656302Y-41617948D01*
X89475019Y-41505702D01*
X89475017Y-41505701D01*
X89375608Y-41467190D01*
X89276198Y-41428679D01*
X89066610Y-41389500D01*
X88853390Y-41389500D01*
X88643802Y-41428679D01*
X88643799Y-41428679D01*
X88643799Y-41428680D01*
X88444982Y-41505701D01*
X88444980Y-41505702D01*
X88263699Y-41617947D01*
X88106127Y-41761593D01*
X87977632Y-41931746D01*
X87882596Y-42122605D01*
X87882596Y-42122607D01*
X87863003Y-42191470D01*
X87824244Y-42327690D01*
X87804571Y-42540000D01*
X87824244Y-42752310D01*
X87880509Y-42950059D01*
X87882596Y-42957392D01*
X87882596Y-42957394D01*
X87959645Y-43112129D01*
X87971906Y-43180914D01*
X87945033Y-43245409D01*
X87887557Y-43285137D01*
X87848645Y-43291400D01*
X86406704Y-43291400D01*
X86383739Y-43298862D01*
X86364822Y-43303403D01*
X86340973Y-43307180D01*
X86319458Y-43318143D01*
X86301486Y-43325588D01*
X86278518Y-43333051D01*
X86278516Y-43333052D01*
X86258984Y-43347243D01*
X86242399Y-43357406D01*
X86220882Y-43368369D01*
X86220880Y-43368371D01*
X81392700Y-48196552D01*
X76577380Y-53011872D01*
X76552035Y-53037217D01*
X76482071Y-53107180D01*
X76471110Y-53128693D01*
X76460946Y-53145278D01*
X76446752Y-53164814D01*
X76446751Y-53164817D01*
X76439288Y-53187785D01*
X76431843Y-53205758D01*
X76420880Y-53227273D01*
X76417103Y-53251122D01*
X76412562Y-53270039D01*
X76405100Y-53293004D01*
X76405100Y-54638689D01*
X76385415Y-54705728D01*
X76368781Y-54726370D01*
X76303072Y-54792078D01*
X76292110Y-54813593D01*
X76281946Y-54830178D01*
X76267752Y-54849714D01*
X76267751Y-54849717D01*
X76260288Y-54872685D01*
X76252843Y-54890658D01*
X76241880Y-54912173D01*
X76238103Y-54936022D01*
X76233562Y-54954939D01*
X76226100Y-54977904D01*
X76226100Y-62133294D01*
X76233562Y-62156258D01*
X76238103Y-62175173D01*
X76241070Y-62193910D01*
X76241881Y-62199027D01*
X76252843Y-62220541D01*
X76260288Y-62238515D01*
X76267750Y-62261480D01*
X76281940Y-62281010D01*
X76292108Y-62297603D01*
X76303070Y-62319118D01*
X78284649Y-64300697D01*
X78318134Y-64362020D01*
X78313150Y-64431712D01*
X78271278Y-64487645D01*
X78244422Y-64502939D01*
X78165656Y-64535565D01*
X78069985Y-64608976D01*
X78004815Y-64634170D01*
X77994499Y-64634600D01*
X75593609Y-64634600D01*
X75526570Y-64614915D01*
X75505928Y-64598281D01*
X75214542Y-64306894D01*
X75181057Y-64245571D01*
X75179284Y-64235398D01*
X75163544Y-64115839D01*
X75163544Y-64115838D01*
X75103036Y-63969759D01*
X75006782Y-63844318D01*
X74881341Y-63748064D01*
X74735262Y-63687556D01*
X74735260Y-63687555D01*
X74578501Y-63666918D01*
X74578499Y-63666918D01*
X74421739Y-63687555D01*
X74421737Y-63687556D01*
X74275660Y-63748063D01*
X74150218Y-63844318D01*
X74053963Y-63969760D01*
X73993456Y-64115837D01*
X73993455Y-64115839D01*
X73972818Y-64272598D01*
X73972818Y-64272601D01*
X70601685Y-64272601D01*
X70607839Y-64256375D01*
X70607840Y-64256370D01*
X70609151Y-64245571D01*
X70628345Y-64087500D01*
X70607840Y-63918628D01*
X70547518Y-63759570D01*
X70539575Y-63748063D01*
X70497809Y-63687555D01*
X70450883Y-63619571D01*
X70323552Y-63506766D01*
X70323549Y-63506763D01*
X70172926Y-63427710D01*
X70007756Y-63387000D01*
X69837644Y-63387000D01*
X69672473Y-63427710D01*
X69521850Y-63506763D01*
X69394516Y-63619572D01*
X69297882Y-63759568D01*
X69237560Y-63918625D01*
X69237559Y-63918630D01*
X69217055Y-64087500D01*
X69237559Y-64256370D01*
X69237560Y-64256375D01*
X69264142Y-64326463D01*
X69272200Y-64370434D01*
X69272200Y-72304591D01*
X69252515Y-72371630D01*
X69235881Y-72392272D01*
X66281138Y-75347014D01*
X66219815Y-75380499D01*
X66150123Y-75375515D01*
X66094190Y-75333643D01*
X66069773Y-75268179D01*
X66072566Y-75231740D01*
X66085726Y-75174079D01*
X66104767Y-74920004D01*
X66104767Y-74919995D01*
X66085726Y-74665920D01*
X66029031Y-74417522D01*
X66029026Y-74417505D01*
X65935941Y-74180328D01*
X65935942Y-74180328D01*
X65808545Y-73959672D01*
X65766545Y-73907006D01*
X65002546Y-74671005D01*
X64992812Y-74641044D01*
X64904814Y-74502381D01*
X64785097Y-74389960D01*
X64650488Y-74315957D01*
X65413185Y-73553260D01*
X65252384Y-73443628D01*
X65252376Y-73443623D01*
X65022823Y-73333078D01*
X65022825Y-73333078D01*
X64779347Y-73257975D01*
X64779341Y-73257973D01*
X64527404Y-73220000D01*
X64272595Y-73220000D01*
X64020658Y-73257973D01*
X64020652Y-73257975D01*
X63777175Y-73333078D01*
X63547622Y-73443625D01*
X63547609Y-73443632D01*
X63386813Y-73553259D01*
X64152466Y-74318912D01*
X64084371Y-74345874D01*
X63951508Y-74442405D01*
X63846825Y-74568945D01*
X63798367Y-74671921D01*
X63033452Y-73907006D01*
X62991457Y-73959667D01*
X62864058Y-74180328D01*
X62770973Y-74417505D01*
X62770968Y-74417522D01*
X62714273Y-74665920D01*
X62695233Y-74919995D01*
X62695233Y-74920004D01*
X60300500Y-74920004D01*
X60300500Y-58306610D01*
X62124500Y-58306610D01*
X62163679Y-58516198D01*
X62163680Y-58516200D01*
X62236075Y-58703077D01*
X62240702Y-58715019D01*
X62352948Y-58896302D01*
X62417290Y-58966881D01*
X62496593Y-59053872D01*
X62666746Y-59182367D01*
X62857606Y-59277403D01*
X62857608Y-59277403D01*
X62857611Y-59277405D01*
X63062690Y-59335756D01*
X63221806Y-59350500D01*
X63221810Y-59350500D01*
X63578190Y-59350500D01*
X63578194Y-59350500D01*
X63737310Y-59335756D01*
X63942389Y-59277405D01*
X63942393Y-59277403D01*
X63942394Y-59277403D01*
X64133253Y-59182367D01*
X64133253Y-59182366D01*
X64133255Y-59182366D01*
X64303407Y-59053872D01*
X64447052Y-58896302D01*
X64447053Y-58896300D01*
X64450914Y-58892065D01*
X64452662Y-58893659D01*
X64500560Y-58858130D01*
X64543385Y-58850500D01*
X66249695Y-58850500D01*
X66265705Y-58852267D01*
X66265728Y-58852026D01*
X66273489Y-58852758D01*
X66273496Y-58852760D01*
X66343462Y-58850560D01*
X66347357Y-58850500D01*
X66376125Y-58850500D01*
X66380487Y-58849948D01*
X66392139Y-58849030D01*
X66437769Y-58847597D01*
X66458156Y-58841673D01*
X66477196Y-58837731D01*
X66498258Y-58835071D01*
X66540720Y-58818258D01*
X66551757Y-58814480D01*
X66595598Y-58801744D01*
X66613865Y-58790939D01*
X66631336Y-58782380D01*
X66651071Y-58774568D01*
X66688016Y-58747725D01*
X66697758Y-58741326D01*
X66737065Y-58718081D01*
X66752070Y-58703075D01*
X66766868Y-58690436D01*
X66784037Y-58677963D01*
X66813146Y-58642774D01*
X66820990Y-58634154D01*
X69782613Y-55672531D01*
X69795179Y-55662465D01*
X69795025Y-55662278D01*
X69801033Y-55657305D01*
X69801040Y-55657302D01*
X69824327Y-55632502D01*
X69848965Y-55606267D01*
X69851678Y-55603467D01*
X69872012Y-55583134D01*
X69874707Y-55579659D01*
X69882286Y-55570782D01*
X69913548Y-55537493D01*
X69923774Y-55518889D01*
X69934447Y-55502641D01*
X69947463Y-55485863D01*
X69965591Y-55443970D01*
X69970727Y-55433482D01*
X69992727Y-55393468D01*
X69998004Y-55372908D01*
X70004306Y-55354503D01*
X70012736Y-55335026D01*
X70019879Y-55289920D01*
X70022243Y-55278505D01*
X70033600Y-55234277D01*
X70033600Y-55213055D01*
X70035127Y-55193655D01*
X70038447Y-55172695D01*
X70034150Y-55127236D01*
X70033600Y-55115567D01*
X70033600Y-48498603D01*
X70035368Y-48482591D01*
X70035126Y-48482569D01*
X70035860Y-48474806D01*
X70033661Y-48404822D01*
X70033600Y-48400928D01*
X70033600Y-48372178D01*
X70033599Y-48372171D01*
X70033556Y-48371831D01*
X70033049Y-48367819D01*
X70032131Y-48356162D01*
X70030698Y-48310531D01*
X70024776Y-48290150D01*
X70020831Y-48271095D01*
X70018172Y-48250049D01*
X70018171Y-48250047D01*
X70018171Y-48250042D01*
X70001367Y-48207601D01*
X69997584Y-48196552D01*
X69994606Y-48186301D01*
X69984845Y-48152702D01*
X69984242Y-48151683D01*
X69974036Y-48134424D01*
X69965478Y-48116955D01*
X69957668Y-48097229D01*
X69930821Y-48060279D01*
X69924431Y-48050549D01*
X69901181Y-48011235D01*
X69886175Y-47996229D01*
X69873535Y-47981430D01*
X69861061Y-47964260D01*
X69825880Y-47935156D01*
X69817240Y-47927294D01*
X69677580Y-47787634D01*
X69649319Y-47743923D01*
X69647430Y-47738941D01*
X69638718Y-47715970D01*
X69629217Y-47702206D01*
X69582343Y-47634297D01*
X69542083Y-47575971D01*
X69414752Y-47463166D01*
X69414749Y-47463163D01*
X69264126Y-47384110D01*
X69098956Y-47343400D01*
X68928844Y-47343400D01*
X68763673Y-47384110D01*
X68613050Y-47463163D01*
X68485716Y-47575972D01*
X68389082Y-47715968D01*
X68328760Y-47875025D01*
X68328759Y-47875030D01*
X68308255Y-48043900D01*
X68328759Y-48212769D01*
X68328760Y-48212774D01*
X68389082Y-48371831D01*
X68434120Y-48437078D01*
X68485717Y-48511829D01*
X68613048Y-48624634D01*
X68666226Y-48652544D01*
X68716438Y-48701127D01*
X68732600Y-48762340D01*
X68732600Y-52958633D01*
X68712915Y-53025672D01*
X68660111Y-53071427D01*
X68592415Y-53081572D01*
X68523316Y-53072475D01*
X68459419Y-53044209D01*
X68451820Y-53037217D01*
X64631793Y-49217190D01*
X64598308Y-49155867D01*
X64603292Y-49086175D01*
X64607362Y-49077408D01*
X64609358Y-49072345D01*
X64609361Y-49072342D01*
X64664877Y-48931564D01*
X64675500Y-48843102D01*
X64675500Y-47556898D01*
X64664877Y-47468436D01*
X64609361Y-47327658D01*
X64609360Y-47327657D01*
X64609360Y-47327656D01*
X64517922Y-47207077D01*
X64397343Y-47115639D01*
X64256561Y-47060122D01*
X64210926Y-47054642D01*
X64168102Y-47049500D01*
X62631898Y-47049500D01*
X62592853Y-47054188D01*
X62543438Y-47060122D01*
X62402656Y-47115639D01*
X62282077Y-47207077D01*
X62190639Y-47327656D01*
X62135122Y-47468438D01*
X62131950Y-47494856D01*
X62124500Y-47556898D01*
X62124500Y-48843102D01*
X62130126Y-48889954D01*
X62135122Y-48931561D01*
X62190639Y-49072343D01*
X62282077Y-49192922D01*
X62402656Y-49284360D01*
X62402657Y-49284360D01*
X62402658Y-49284361D01*
X62543436Y-49339877D01*
X62631898Y-49350500D01*
X62924998Y-49350500D01*
X62992037Y-49370185D01*
X63037792Y-49422989D01*
X63047736Y-49492147D01*
X63018711Y-49555703D01*
X62959933Y-49593477D01*
X62958933Y-49593766D01*
X62857607Y-49622596D01*
X62857605Y-49622596D01*
X62666746Y-49717632D01*
X62496593Y-49846127D01*
X62352947Y-50003699D01*
X62240702Y-50184980D01*
X62240701Y-50184982D01*
X62163680Y-50383799D01*
X62163679Y-50383802D01*
X62124500Y-50593390D01*
X62124500Y-50806610D01*
X62163679Y-51016198D01*
X62163680Y-51016200D01*
X62212961Y-51143412D01*
X62240702Y-51215019D01*
X62352948Y-51396302D01*
X62496593Y-51553872D01*
X62666746Y-51682367D01*
X62857605Y-51777403D01*
X62862950Y-51779473D01*
X62862525Y-51780569D01*
X62916516Y-51814627D01*
X62946077Y-51877936D01*
X62947145Y-51887346D01*
X62949153Y-51914124D01*
X62949500Y-51923396D01*
X62949500Y-51935659D01*
X62949501Y-51935673D01*
X62951327Y-51947790D01*
X62952365Y-51957003D01*
X62954979Y-51991886D01*
X62940359Y-52060209D01*
X62891122Y-52109782D01*
X62865265Y-52120417D01*
X62857606Y-52122596D01*
X62857604Y-52122596D01*
X62666746Y-52217632D01*
X62496593Y-52346127D01*
X62352947Y-52503699D01*
X62240702Y-52684980D01*
X62240701Y-52684982D01*
X62186254Y-52825529D01*
X62163679Y-52883802D01*
X62124500Y-53093390D01*
X62124500Y-53306610D01*
X62163679Y-53516198D01*
X62240702Y-53715019D01*
X62352948Y-53896302D01*
X62496593Y-54053872D01*
X62666746Y-54182367D01*
X62857606Y-54277403D01*
X62857608Y-54277403D01*
X62857611Y-54277405D01*
X62991971Y-54315634D01*
X63045039Y-54330734D01*
X63104132Y-54368014D01*
X63133689Y-54431324D01*
X63124327Y-54500563D01*
X63079017Y-54553749D01*
X63045039Y-54569266D01*
X62857607Y-54622596D01*
X62857605Y-54622596D01*
X62666746Y-54717632D01*
X62496593Y-54846127D01*
X62352947Y-55003699D01*
X62240702Y-55184980D01*
X62240701Y-55184982D01*
X62163680Y-55383799D01*
X62163679Y-55383802D01*
X62124500Y-55593390D01*
X62124500Y-55806610D01*
X62163679Y-56016198D01*
X62240702Y-56215019D01*
X62352948Y-56396302D01*
X62440353Y-56492180D01*
X62496593Y-56553872D01*
X62666746Y-56682367D01*
X62857606Y-56777403D01*
X62857608Y-56777403D01*
X62857611Y-56777405D01*
X62991971Y-56815634D01*
X63045039Y-56830734D01*
X63104132Y-56868014D01*
X63133689Y-56931324D01*
X63124327Y-57000563D01*
X63079017Y-57053749D01*
X63045039Y-57069266D01*
X62857607Y-57122596D01*
X62857605Y-57122596D01*
X62666746Y-57217632D01*
X62496593Y-57346127D01*
X62352947Y-57503699D01*
X62240702Y-57684980D01*
X62240701Y-57684982D01*
X62163680Y-57883799D01*
X62163679Y-57883802D01*
X62124500Y-58093390D01*
X62124500Y-58306610D01*
X60300500Y-58306610D01*
X60300500Y-42607763D01*
X73385787Y-42607763D01*
X73415413Y-42877013D01*
X73415415Y-42877024D01*
X73468713Y-43080891D01*
X73483928Y-43139088D01*
X73589870Y-43388390D01*
X73703967Y-43575344D01*
X73730979Y-43619605D01*
X73730986Y-43619615D01*
X73904253Y-43827819D01*
X73904259Y-43827824D01*
X74009240Y-43921887D01*
X74105998Y-44008582D01*
X74331910Y-44158044D01*
X74577176Y-44273020D01*
X74577183Y-44273022D01*
X74577185Y-44273023D01*
X74836557Y-44351057D01*
X74836564Y-44351058D01*
X74836569Y-44351060D01*
X75104561Y-44390500D01*
X75104566Y-44390500D01*
X75307629Y-44390500D01*
X75307631Y-44390500D01*
X75307636Y-44390499D01*
X75307648Y-44390499D01*
X75345191Y-44387750D01*
X75510156Y-44375677D01*
X75622758Y-44350593D01*
X75774546Y-44316782D01*
X75774548Y-44316781D01*
X75774553Y-44316780D01*
X76027558Y-44220014D01*
X76263777Y-44087441D01*
X76478177Y-43921888D01*
X76666186Y-43726881D01*
X76823799Y-43506579D01*
X76906306Y-43346102D01*
X76947649Y-43265690D01*
X76947651Y-43265684D01*
X76947656Y-43265675D01*
X77035118Y-43009305D01*
X77084319Y-42742933D01*
X77091735Y-42540000D01*
X77644571Y-42540000D01*
X77664244Y-42752310D01*
X77720509Y-42950059D01*
X77722596Y-42957392D01*
X77722596Y-42957394D01*
X77817632Y-43148253D01*
X77946127Y-43318406D01*
X77946128Y-43318407D01*
X78103698Y-43462052D01*
X78284981Y-43574298D01*
X78483802Y-43651321D01*
X78693390Y-43690500D01*
X78693392Y-43690500D01*
X78906608Y-43690500D01*
X78906610Y-43690500D01*
X79116198Y-43651321D01*
X79315019Y-43574298D01*
X79496302Y-43462052D01*
X79653872Y-43318407D01*
X79782366Y-43148255D01*
X79789229Y-43134472D01*
X79877403Y-42957394D01*
X79877403Y-42957393D01*
X79877405Y-42957389D01*
X79935756Y-42752310D01*
X79946529Y-42636047D01*
X79972315Y-42571111D01*
X80014622Y-42540804D01*
X80123130Y-42540804D01*
X80159503Y-42561668D01*
X80191693Y-42623681D01*
X80193470Y-42636047D01*
X80204244Y-42752310D01*
X80260509Y-42950059D01*
X80262596Y-42957392D01*
X80262596Y-42957394D01*
X80357632Y-43148253D01*
X80486127Y-43318406D01*
X80486128Y-43318407D01*
X80643698Y-43462052D01*
X80824981Y-43574298D01*
X81023802Y-43651321D01*
X81233390Y-43690500D01*
X81233392Y-43690500D01*
X81446608Y-43690500D01*
X81446610Y-43690500D01*
X81656198Y-43651321D01*
X81855019Y-43574298D01*
X82036302Y-43462052D01*
X82193872Y-43318407D01*
X82322366Y-43148255D01*
X82329229Y-43134472D01*
X82417403Y-42957394D01*
X82417403Y-42957393D01*
X82417405Y-42957389D01*
X82475756Y-42752310D01*
X82486529Y-42636047D01*
X82512315Y-42571111D01*
X82554622Y-42540804D01*
X82663130Y-42540804D01*
X82699503Y-42561668D01*
X82731693Y-42623681D01*
X82733470Y-42636047D01*
X82744244Y-42752310D01*
X82800509Y-42950059D01*
X82802596Y-42957392D01*
X82802596Y-42957394D01*
X82897632Y-43148253D01*
X83026127Y-43318406D01*
X83026128Y-43318407D01*
X83183698Y-43462052D01*
X83364981Y-43574298D01*
X83563802Y-43651321D01*
X83773390Y-43690500D01*
X83773392Y-43690500D01*
X83986608Y-43690500D01*
X83986610Y-43690500D01*
X84196198Y-43651321D01*
X84395019Y-43574298D01*
X84576302Y-43462052D01*
X84733872Y-43318407D01*
X84862366Y-43148255D01*
X84869229Y-43134472D01*
X84957403Y-42957394D01*
X84957403Y-42957393D01*
X84957405Y-42957389D01*
X85015756Y-42752310D01*
X85035429Y-42540000D01*
X85015756Y-42327690D01*
X84957405Y-42122611D01*
X84957403Y-42122606D01*
X84957403Y-42122605D01*
X84862367Y-41931746D01*
X84733872Y-41761593D01*
X84661737Y-41695833D01*
X84576302Y-41617948D01*
X84395019Y-41505702D01*
X84395017Y-41505701D01*
X84295608Y-41467190D01*
X84196198Y-41428679D01*
X83986610Y-41389500D01*
X83773390Y-41389500D01*
X83563802Y-41428679D01*
X83563799Y-41428679D01*
X83563799Y-41428680D01*
X83364982Y-41505701D01*
X83364980Y-41505702D01*
X83183699Y-41617947D01*
X83026127Y-41761593D01*
X82897632Y-41931746D01*
X82802596Y-42122605D01*
X82802596Y-42122607D01*
X82744244Y-42327689D01*
X82733471Y-42443951D01*
X82707685Y-42508888D01*
X82663130Y-42540804D01*
X82554622Y-42540804D01*
X82556869Y-42539194D01*
X82520497Y-42518331D01*
X82488307Y-42456318D01*
X82486529Y-42443951D01*
X82480969Y-42383951D01*
X82475756Y-42327690D01*
X82417405Y-42122611D01*
X82417403Y-42122606D01*
X82417403Y-42122605D01*
X82322367Y-41931746D01*
X82193872Y-41761593D01*
X82121737Y-41695833D01*
X82036302Y-41617948D01*
X81855019Y-41505702D01*
X81855017Y-41505701D01*
X81755608Y-41467190D01*
X81656198Y-41428679D01*
X81446610Y-41389500D01*
X81233390Y-41389500D01*
X81023802Y-41428679D01*
X81023799Y-41428679D01*
X81023799Y-41428680D01*
X80824982Y-41505701D01*
X80824980Y-41505702D01*
X80643699Y-41617947D01*
X80486127Y-41761593D01*
X80357632Y-41931746D01*
X80262596Y-42122605D01*
X80262596Y-42122607D01*
X80204244Y-42327689D01*
X80193471Y-42443951D01*
X80167685Y-42508888D01*
X80123130Y-42540804D01*
X80014622Y-42540804D01*
X80016869Y-42539194D01*
X79980497Y-42518331D01*
X79948307Y-42456318D01*
X79946529Y-42443951D01*
X79940969Y-42383951D01*
X79935756Y-42327690D01*
X79877405Y-42122611D01*
X79877403Y-42122606D01*
X79877403Y-42122605D01*
X79782367Y-41931746D01*
X79653872Y-41761593D01*
X79581737Y-41695833D01*
X79496302Y-41617948D01*
X79315019Y-41505702D01*
X79315017Y-41505701D01*
X79215608Y-41467190D01*
X79116198Y-41428679D01*
X78906610Y-41389500D01*
X78693390Y-41389500D01*
X78483802Y-41428679D01*
X78483799Y-41428679D01*
X78483799Y-41428680D01*
X78284982Y-41505701D01*
X78284980Y-41505702D01*
X78103699Y-41617947D01*
X77946127Y-41761593D01*
X77817632Y-41931746D01*
X77722596Y-42122605D01*
X77722596Y-42122607D01*
X77703003Y-42191470D01*
X77664244Y-42327690D01*
X77644571Y-42540000D01*
X77091735Y-42540000D01*
X77094212Y-42472235D01*
X77064586Y-42202982D01*
X76996072Y-41940912D01*
X76890130Y-41691610D01*
X76749018Y-41460390D01*
X76730213Y-41437793D01*
X76575746Y-41252180D01*
X76575740Y-41252175D01*
X76374002Y-41071418D01*
X76148092Y-40921957D01*
X76143024Y-40919581D01*
X75902824Y-40806980D01*
X75902819Y-40806978D01*
X75902814Y-40806976D01*
X75643442Y-40728942D01*
X75643428Y-40728939D01*
X75527791Y-40711921D01*
X75375439Y-40689500D01*
X75172369Y-40689500D01*
X75172351Y-40689500D01*
X74969844Y-40704323D01*
X74969831Y-40704325D01*
X74705453Y-40763217D01*
X74705446Y-40763220D01*
X74452439Y-40859987D01*
X74216226Y-40992557D01*
X74001822Y-41158112D01*
X73813822Y-41353109D01*
X73813816Y-41353116D01*
X73656202Y-41573419D01*
X73656199Y-41573424D01*
X73532350Y-41814309D01*
X73532343Y-41814327D01*
X73444884Y-42070685D01*
X73444881Y-42070699D01*
X73420721Y-42201500D01*
X73404970Y-42286780D01*
X73395681Y-42337068D01*
X73395680Y-42337075D01*
X73385787Y-42607763D01*
X60300500Y-42607763D01*
X60300500Y-40424500D01*
X60320185Y-40357461D01*
X60372989Y-40311706D01*
X60424500Y-40300500D01*
X124344167Y-40300500D01*
X124411206Y-40320185D01*
G37*
%TD.AperFunction*%
%TD*%
M02*
