M48
; DRILL file {KiCad 7.0.11+dfsg-1build4} date Fri Oct  2 09:29:19 2026
; FORMAT={-:-/ absolute / metric / decimal}
; #@! TF.CreationDate,2026-10-02T09:29:19+00:00
; #@! TF.GenerationSoftware,Kicad,Pcbnew,7.0.11+dfsg-1build4
; #@! TF.FileFunction,MixedPlating,1,2
FMAT,2
METRIC
; #@! TA.AperFunction,Plated,PTH,ViaDrill
T1C0.300
; #@! TA.AperFunction,Plated,PTH,ViaDrill
T2C0.400
; #@! TA.AperFunction,Plated,PTH,ComponentDrill
T3C0.800
; #@! TA.AperFunction,Plated,PTH,ComponentDrill
T4C0.950
; #@! TA.AperFunction,Plated,PTH,ComponentDrill
T5C1.000
; #@! TA.AperFunction,Plated,PTH,ComponentDrill
T6C1.300
; #@! TA.AperFunction,NonPlated,NPTH,ComponentDrill
T7C3.200
%
G90
G05
T1
X61.5Y-41.5
X61.5Y-44.5
X61.5Y-59.5
X61.5Y-62.5
X61.5Y-65.5
X61.5Y-68.5
X61.5Y-71.5
X61.5Y-74.5
X61.5Y-77.5
X61.5Y-80.5
X61.5Y-83.5
X61.5Y-86.5
X61.5Y-89.5
X64.5Y-41.5
X64.5Y-44.5
X64.5Y-62.5
X64.5Y-65.5
X64.5Y-68.5
X64.5Y-71.5
X64.5Y-83.5
X67.5Y-41.5
X67.5Y-44.5
X67.5Y-47.5
X67.5Y-50.5
X67.5Y-59.5
X67.5Y-65.5
X67.5Y-68.5
X67.5Y-71.5
X67.5Y-77.5
X67.5Y-80.5
X67.5Y-89.5
X68.445Y-53.668
X68.487Y-54.816
X70.5Y-41.5
X70.5Y-44.5
X70.5Y-74.5
X70.5Y-77.5
X70.5Y-83.5
X70.5Y-86.5
X70.5Y-89.5
X72.527Y-63.695
X72.673Y-81.932
X73.5Y-59.5
X73.5Y-62.5
X73.5Y-65.5
X73.5Y-71.5
X73.5Y-74.5
X73.5Y-80.5
X73.85Y-46.4
X74.301Y-47.569
X74.578Y-64.273
X75.119Y-81.506
X76.5Y-47.5
X76.5Y-68.5
X76.5Y-74.5
X76.5Y-89.5
X76.853Y-78.703
X77.037Y-86.136
X77.335Y-56.259
X78.468Y-65.06
X78.569Y-83.885
X79.5Y-44.5
X79.5Y-47.5
X79.5Y-53.5
X79.5Y-56.5
X79.5Y-59.5
X79.7Y-62.987
X80.427Y-77.493
X82.158Y-83.681
X82.5Y-89.5
X83.679Y-49.428
X85.5Y-89.5
X90.074Y-86.471
X100.117Y-48.186
X101.195Y-86.471
X104.021Y-87.834
X106.5Y-83.5
X109.5Y-83.5
X111.217Y-44.732
X112.5Y-83.5
X112.5Y-86.5
X113.652Y-48.053
X115.5Y-83.5
X116.8Y-48.7
X118.5Y-83.5
X121.974Y-77.846
X122.1Y-68.588
X124.216Y-75.866
X124.234Y-71.312
X124.5Y-47.5
X124.5Y-50.5
X124.5Y-53.5
X124.773Y-67.695
X127.717Y-74.206
T2
X69.014Y-48.044
X69.923Y-64.087
X75.114Y-67.743
X125.109Y-80.038
T3
X65.0Y-87.6
X68.5Y-87.6
T4
X63.4Y-48.2
X63.4Y-50.7
X63.4Y-53.2
X63.4Y-55.7
X63.4Y-58.2
T5
X78.8Y-42.54
X81.34Y-42.54
X83.36Y-86.6
X83.88Y-42.54
X85.9Y-86.6
X86.4Y-46.6
X86.42Y-42.54
X87.94Y-90.8
X88.44Y-86.6
X88.94Y-46.6
X88.96Y-42.54
X90.48Y-90.8
X91.48Y-46.6
X91.5Y-42.54
X93.02Y-90.8
X94.02Y-46.6
X94.04Y-42.54
X94.36Y-86.6
X95.56Y-90.8
X96.56Y-46.6
X96.58Y-42.54
X96.9Y-86.6
X98.1Y-90.8
X99.1Y-46.6
X99.12Y-42.54
X99.44Y-86.6
X100.64Y-90.8
X101.64Y-46.6
X101.66Y-42.54
X103.18Y-90.8
X104.18Y-46.6
X105.36Y-86.6
X105.72Y-42.54
X105.72Y-90.8
X107.9Y-86.6
X108.26Y-42.54
X110.44Y-86.6
X110.8Y-42.54
X110.8Y-90.8
X111.8Y-46.6
X113.34Y-42.54
X113.34Y-90.8
X114.34Y-46.6
X115.5Y-86.6
X115.88Y-42.54
X115.88Y-90.8
X116.88Y-46.6
X118.04Y-86.6
X118.42Y-42.54
X118.42Y-90.8
X119.42Y-46.6
X120.58Y-86.6
X120.96Y-42.54
X120.96Y-90.8
X123.5Y-42.54
X123.5Y-90.8
X125.0Y-63.6
X125.0Y-66.14
T6
X64.4Y-74.92
X64.4Y-80.0
T7
X73.97Y-90.8
X75.24Y-42.54
X126.04Y-57.78
X126.04Y-85.72
M30
