%TF.GenerationSoftware,KiCad,Pcbnew,7.0.11+dfsg-1build4*%
%TF.CreationDate,2026-10-02T09:29:19+00:00*%
%TF.ProjectId,watchmen-shield,77617463-686d-4656-9e2d-736869656c64,rev?*%
%TF.SameCoordinates,Original*%
%TF.FileFunction,Legend,Top*%
%TF.FilePolarity,Positive*%
%FSLAX46Y46*%
G04 Gerber Fmt 4.6, Leading zero omitted, Abs format (unit mm)*
G04 Created by KiCad (PCBNEW 7.0.11+dfsg-1build4) date 2026-10-02 09:29:19*
%MOMM*%
%LPD*%
G01*
G04 APERTURE LIST*
%ADD10C,0.120000*%
G04 APERTURE END LIST*
D10*
X114850000Y-85017592D02*
X114850000Y-84317592D01*
X114850000Y-84317592D02*
X115016667Y-84317592D01*
X115016667Y-84317592D02*
X115116667Y-84350925D01*
X115116667Y-84350925D02*
X115183334Y-84417592D01*
X115183334Y-84417592D02*
X115216667Y-84484259D01*
X115216667Y-84484259D02*
X115250000Y-84617592D01*
X115250000Y-84617592D02*
X115250000Y-84717592D01*
X115250000Y-84717592D02*
X115216667Y-84850925D01*
X115216667Y-84850925D02*
X115183334Y-84917592D01*
X115183334Y-84917592D02*
X115116667Y-84984259D01*
X115116667Y-84984259D02*
X115016667Y-85017592D01*
X115016667Y-85017592D02*
X114850000Y-85017592D01*
X115550000Y-85017592D02*
X115550000Y-84317592D01*
X115783333Y-84317592D02*
X116016667Y-85017592D01*
X116016667Y-85017592D02*
X116250000Y-84317592D01*
X122200000Y-63884260D02*
X122300000Y-63917593D01*
X122300000Y-63917593D02*
X122466667Y-63917593D01*
X122466667Y-63917593D02*
X122533333Y-63884260D01*
X122533333Y-63884260D02*
X122566667Y-63850926D01*
X122566667Y-63850926D02*
X122600000Y-63784260D01*
X122600000Y-63784260D02*
X122600000Y-63717593D01*
X122600000Y-63717593D02*
X122566667Y-63650926D01*
X122566667Y-63650926D02*
X122533333Y-63617593D01*
X122533333Y-63617593D02*
X122466667Y-63584260D01*
X122466667Y-63584260D02*
X122333333Y-63550926D01*
X122333333Y-63550926D02*
X122266667Y-63517593D01*
X122266667Y-63517593D02*
X122233333Y-63484260D01*
X122233333Y-63484260D02*
X122200000Y-63417593D01*
X122200000Y-63417593D02*
X122200000Y-63350926D01*
X122200000Y-63350926D02*
X122233333Y-63284260D01*
X122233333Y-63284260D02*
X122266667Y-63250926D01*
X122266667Y-63250926D02*
X122333333Y-63217593D01*
X122333333Y-63217593D02*
X122500000Y-63217593D01*
X122500000Y-63217593D02*
X122600000Y-63250926D01*
X122833334Y-63217593D02*
X123000000Y-63917593D01*
X123000000Y-63917593D02*
X123133334Y-63417593D01*
X123133334Y-63417593D02*
X123266667Y-63917593D01*
X123266667Y-63917593D02*
X123433334Y-63217593D01*
X85183333Y-85017592D02*
X85183333Y-84317592D01*
X85183333Y-84317592D02*
X85350000Y-84317592D01*
X85350000Y-84317592D02*
X85450000Y-84350925D01*
X85450000Y-84350925D02*
X85516667Y-84417592D01*
X85516667Y-84417592D02*
X85550000Y-84484259D01*
X85550000Y-84484259D02*
X85583333Y-84617592D01*
X85583333Y-84617592D02*
X85583333Y-84717592D01*
X85583333Y-84717592D02*
X85550000Y-84850925D01*
X85550000Y-84850925D02*
X85516667Y-84917592D01*
X85516667Y-84917592D02*
X85450000Y-84984259D01*
X85450000Y-84984259D02*
X85350000Y-85017592D01*
X85350000Y-85017592D02*
X85183333Y-85017592D01*
X85883333Y-85017592D02*
X85883333Y-84317592D01*
X86216666Y-85017592D02*
X86216666Y-84317592D01*
X86216666Y-84317592D02*
X86616666Y-85017592D01*
X86616666Y-85017592D02*
X86616666Y-84317592D01*
X89471428Y-45063855D02*
X89471428Y-44263855D01*
X89471428Y-44263855D02*
X89738094Y-44835283D01*
X89738094Y-44835283D02*
X90004761Y-44263855D01*
X90004761Y-44263855D02*
X90004761Y-45063855D01*
X90385714Y-45063855D02*
X90385714Y-44263855D01*
X90385714Y-44263855D02*
X90690476Y-44263855D01*
X90690476Y-44263855D02*
X90766666Y-44301950D01*
X90766666Y-44301950D02*
X90804761Y-44340045D01*
X90804761Y-44340045D02*
X90842857Y-44416236D01*
X90842857Y-44416236D02*
X90842857Y-44530521D01*
X90842857Y-44530521D02*
X90804761Y-44606712D01*
X90804761Y-44606712D02*
X90766666Y-44644807D01*
X90766666Y-44644807D02*
X90690476Y-44682902D01*
X90690476Y-44682902D02*
X90385714Y-44682902D01*
X91185714Y-44263855D02*
X91185714Y-44911474D01*
X91185714Y-44911474D02*
X91223809Y-44987664D01*
X91223809Y-44987664D02*
X91261904Y-45025760D01*
X91261904Y-45025760D02*
X91338095Y-45063855D01*
X91338095Y-45063855D02*
X91490476Y-45063855D01*
X91490476Y-45063855D02*
X91566666Y-45025760D01*
X91566666Y-45025760D02*
X91604761Y-44987664D01*
X91604761Y-44987664D02*
X91642857Y-44911474D01*
X91642857Y-44911474D02*
X91642857Y-44263855D01*
X92366666Y-44263855D02*
X92214285Y-44263855D01*
X92214285Y-44263855D02*
X92138094Y-44301950D01*
X92138094Y-44301950D02*
X92099999Y-44340045D01*
X92099999Y-44340045D02*
X92023809Y-44454331D01*
X92023809Y-44454331D02*
X91985713Y-44606712D01*
X91985713Y-44606712D02*
X91985713Y-44911474D01*
X91985713Y-44911474D02*
X92023809Y-44987664D01*
X92023809Y-44987664D02*
X92061904Y-45025760D01*
X92061904Y-45025760D02*
X92138094Y-45063855D01*
X92138094Y-45063855D02*
X92290475Y-45063855D01*
X92290475Y-45063855D02*
X92366666Y-45025760D01*
X92366666Y-45025760D02*
X92404761Y-44987664D01*
X92404761Y-44987664D02*
X92442856Y-44911474D01*
X92442856Y-44911474D02*
X92442856Y-44720998D01*
X92442856Y-44720998D02*
X92404761Y-44644807D01*
X92404761Y-44644807D02*
X92366666Y-44606712D01*
X92366666Y-44606712D02*
X92290475Y-44568617D01*
X92290475Y-44568617D02*
X92138094Y-44568617D01*
X92138094Y-44568617D02*
X92061904Y-44606712D01*
X92061904Y-44606712D02*
X92023809Y-44644807D01*
X92023809Y-44644807D02*
X91985713Y-44720998D01*
X92938095Y-44263855D02*
X93014285Y-44263855D01*
X93014285Y-44263855D02*
X93090476Y-44301950D01*
X93090476Y-44301950D02*
X93128571Y-44340045D01*
X93128571Y-44340045D02*
X93166666Y-44416236D01*
X93166666Y-44416236D02*
X93204761Y-44568617D01*
X93204761Y-44568617D02*
X93204761Y-44759093D01*
X93204761Y-44759093D02*
X93166666Y-44911474D01*
X93166666Y-44911474D02*
X93128571Y-44987664D01*
X93128571Y-44987664D02*
X93090476Y-45025760D01*
X93090476Y-45025760D02*
X93014285Y-45063855D01*
X93014285Y-45063855D02*
X92938095Y-45063855D01*
X92938095Y-45063855D02*
X92861904Y-45025760D01*
X92861904Y-45025760D02*
X92823809Y-44987664D01*
X92823809Y-44987664D02*
X92785714Y-44911474D01*
X92785714Y-44911474D02*
X92747618Y-44759093D01*
X92747618Y-44759093D02*
X92747618Y-44568617D01*
X92747618Y-44568617D02*
X92785714Y-44416236D01*
X92785714Y-44416236D02*
X92823809Y-44340045D01*
X92823809Y-44340045D02*
X92861904Y-44301950D01*
X92861904Y-44301950D02*
X92938095Y-44263855D01*
X93928571Y-44263855D02*
X93547619Y-44263855D01*
X93547619Y-44263855D02*
X93509523Y-44644807D01*
X93509523Y-44644807D02*
X93547619Y-44606712D01*
X93547619Y-44606712D02*
X93623809Y-44568617D01*
X93623809Y-44568617D02*
X93814285Y-44568617D01*
X93814285Y-44568617D02*
X93890476Y-44606712D01*
X93890476Y-44606712D02*
X93928571Y-44644807D01*
X93928571Y-44644807D02*
X93966666Y-44720998D01*
X93966666Y-44720998D02*
X93966666Y-44911474D01*
X93966666Y-44911474D02*
X93928571Y-44987664D01*
X93928571Y-44987664D02*
X93890476Y-45025760D01*
X93890476Y-45025760D02*
X93814285Y-45063855D01*
X93814285Y-45063855D02*
X93623809Y-45063855D01*
X93623809Y-45063855D02*
X93547619Y-45025760D01*
X93547619Y-45025760D02*
X93509523Y-44987664D01*
X94461905Y-44263855D02*
X94538095Y-44263855D01*
X94538095Y-44263855D02*
X94614286Y-44301950D01*
X94614286Y-44301950D02*
X94652381Y-44340045D01*
X94652381Y-44340045D02*
X94690476Y-44416236D01*
X94690476Y-44416236D02*
X94728571Y-44568617D01*
X94728571Y-44568617D02*
X94728571Y-44759093D01*
X94728571Y-44759093D02*
X94690476Y-44911474D01*
X94690476Y-44911474D02*
X94652381Y-44987664D01*
X94652381Y-44987664D02*
X94614286Y-45025760D01*
X94614286Y-45025760D02*
X94538095Y-45063855D01*
X94538095Y-45063855D02*
X94461905Y-45063855D01*
X94461905Y-45063855D02*
X94385714Y-45025760D01*
X94385714Y-45025760D02*
X94347619Y-44987664D01*
X94347619Y-44987664D02*
X94309524Y-44911474D01*
X94309524Y-44911474D02*
X94271428Y-44759093D01*
X94271428Y-44759093D02*
X94271428Y-44568617D01*
X94271428Y-44568617D02*
X94309524Y-44416236D01*
X94309524Y-44416236D02*
X94347619Y-44340045D01*
X94347619Y-44340045D02*
X94385714Y-44301950D01*
X94385714Y-44301950D02*
X94461905Y-44263855D01*
X95909524Y-45368617D02*
X95871429Y-45330521D01*
X95871429Y-45330521D02*
X95795238Y-45216236D01*
X95795238Y-45216236D02*
X95757143Y-45140045D01*
X95757143Y-45140045D02*
X95719048Y-45025760D01*
X95719048Y-45025760D02*
X95680953Y-44835283D01*
X95680953Y-44835283D02*
X95680953Y-44682902D01*
X95680953Y-44682902D02*
X95719048Y-44492426D01*
X95719048Y-44492426D02*
X95757143Y-44378140D01*
X95757143Y-44378140D02*
X95795238Y-44301950D01*
X95795238Y-44301950D02*
X95871429Y-44187664D01*
X95871429Y-44187664D02*
X95909524Y-44149569D01*
X96633333Y-44301950D02*
X96557143Y-44263855D01*
X96557143Y-44263855D02*
X96442857Y-44263855D01*
X96442857Y-44263855D02*
X96328571Y-44301950D01*
X96328571Y-44301950D02*
X96252381Y-44378140D01*
X96252381Y-44378140D02*
X96214286Y-44454331D01*
X96214286Y-44454331D02*
X96176190Y-44606712D01*
X96176190Y-44606712D02*
X96176190Y-44720998D01*
X96176190Y-44720998D02*
X96214286Y-44873379D01*
X96214286Y-44873379D02*
X96252381Y-44949569D01*
X96252381Y-44949569D02*
X96328571Y-45025760D01*
X96328571Y-45025760D02*
X96442857Y-45063855D01*
X96442857Y-45063855D02*
X96519048Y-45063855D01*
X96519048Y-45063855D02*
X96633333Y-45025760D01*
X96633333Y-45025760D02*
X96671429Y-44987664D01*
X96671429Y-44987664D02*
X96671429Y-44720998D01*
X96671429Y-44720998D02*
X96519048Y-44720998D01*
X97166667Y-44682902D02*
X97166667Y-45063855D01*
X96900000Y-44263855D02*
X97166667Y-44682902D01*
X97166667Y-44682902D02*
X97433333Y-44263855D01*
X97700000Y-44759093D02*
X98309524Y-44759093D01*
X99071428Y-44263855D02*
X98690476Y-44263855D01*
X98690476Y-44263855D02*
X98652380Y-44644807D01*
X98652380Y-44644807D02*
X98690476Y-44606712D01*
X98690476Y-44606712D02*
X98766666Y-44568617D01*
X98766666Y-44568617D02*
X98957142Y-44568617D01*
X98957142Y-44568617D02*
X99033333Y-44606712D01*
X99033333Y-44606712D02*
X99071428Y-44644807D01*
X99071428Y-44644807D02*
X99109523Y-44720998D01*
X99109523Y-44720998D02*
X99109523Y-44911474D01*
X99109523Y-44911474D02*
X99071428Y-44987664D01*
X99071428Y-44987664D02*
X99033333Y-45025760D01*
X99033333Y-45025760D02*
X98957142Y-45063855D01*
X98957142Y-45063855D02*
X98766666Y-45063855D01*
X98766666Y-45063855D02*
X98690476Y-45025760D01*
X98690476Y-45025760D02*
X98652380Y-44987664D01*
X99414285Y-44340045D02*
X99452381Y-44301950D01*
X99452381Y-44301950D02*
X99528571Y-44263855D01*
X99528571Y-44263855D02*
X99719047Y-44263855D01*
X99719047Y-44263855D02*
X99795238Y-44301950D01*
X99795238Y-44301950D02*
X99833333Y-44340045D01*
X99833333Y-44340045D02*
X99871428Y-44416236D01*
X99871428Y-44416236D02*
X99871428Y-44492426D01*
X99871428Y-44492426D02*
X99833333Y-44606712D01*
X99833333Y-44606712D02*
X99376190Y-45063855D01*
X99376190Y-45063855D02*
X99871428Y-45063855D01*
X100633333Y-45063855D02*
X100176190Y-45063855D01*
X100404762Y-45063855D02*
X100404762Y-44263855D01*
X100404762Y-44263855D02*
X100328571Y-44378140D01*
X100328571Y-44378140D02*
X100252381Y-44454331D01*
X100252381Y-44454331D02*
X100176190Y-44492426D01*
X100900000Y-45368617D02*
X100938095Y-45330521D01*
X100938095Y-45330521D02*
X101014286Y-45216236D01*
X101014286Y-45216236D02*
X101052381Y-45140045D01*
X101052381Y-45140045D02*
X101090476Y-45025760D01*
X101090476Y-45025760D02*
X101128572Y-44835283D01*
X101128572Y-44835283D02*
X101128572Y-44682902D01*
X101128572Y-44682902D02*
X101090476Y-44492426D01*
X101090476Y-44492426D02*
X101052381Y-44378140D01*
X101052381Y-44378140D02*
X101014286Y-44301950D01*
X101014286Y-44301950D02*
X100938095Y-44187664D01*
X100938095Y-44187664D02*
X100900000Y-44149569D01*
X119303333Y-48817593D02*
X119070000Y-48484260D01*
X118903333Y-48817593D02*
X118903333Y-48117593D01*
X118903333Y-48117593D02*
X119170000Y-48117593D01*
X119170000Y-48117593D02*
X119236667Y-48150926D01*
X119236667Y-48150926D02*
X119270000Y-48184260D01*
X119270000Y-48184260D02*
X119303333Y-48250926D01*
X119303333Y-48250926D02*
X119303333Y-48350926D01*
X119303333Y-48350926D02*
X119270000Y-48417593D01*
X119270000Y-48417593D02*
X119236667Y-48450926D01*
X119236667Y-48450926D02*
X119170000Y-48484260D01*
X119170000Y-48484260D02*
X118903333Y-48484260D01*
X119536667Y-48117593D02*
X120003333Y-48817593D01*
X120003333Y-48117593D02*
X119536667Y-48817593D01*
X110173333Y-84750925D02*
X110706667Y-84750925D01*
X113790476Y-45063855D02*
X113523809Y-44682902D01*
X113333333Y-45063855D02*
X113333333Y-44263855D01*
X113333333Y-44263855D02*
X113638095Y-44263855D01*
X113638095Y-44263855D02*
X113714285Y-44301950D01*
X113714285Y-44301950D02*
X113752380Y-44340045D01*
X113752380Y-44340045D02*
X113790476Y-44416236D01*
X113790476Y-44416236D02*
X113790476Y-44530521D01*
X113790476Y-44530521D02*
X113752380Y-44606712D01*
X113752380Y-44606712D02*
X113714285Y-44644807D01*
X113714285Y-44644807D02*
X113638095Y-44682902D01*
X113638095Y-44682902D02*
X113333333Y-44682902D01*
X114133333Y-45063855D02*
X114133333Y-44263855D01*
X114133333Y-44263855D02*
X114323809Y-44263855D01*
X114323809Y-44263855D02*
X114438095Y-44301950D01*
X114438095Y-44301950D02*
X114514285Y-44378140D01*
X114514285Y-44378140D02*
X114552380Y-44454331D01*
X114552380Y-44454331D02*
X114590476Y-44606712D01*
X114590476Y-44606712D02*
X114590476Y-44720998D01*
X114590476Y-44720998D02*
X114552380Y-44873379D01*
X114552380Y-44873379D02*
X114514285Y-44949569D01*
X114514285Y-44949569D02*
X114438095Y-45025760D01*
X114438095Y-45025760D02*
X114323809Y-45063855D01*
X114323809Y-45063855D02*
X114133333Y-45063855D01*
X114933333Y-44759093D02*
X115542857Y-44759093D01*
X116076190Y-44263855D02*
X116152380Y-44263855D01*
X116152380Y-44263855D02*
X116228571Y-44301950D01*
X116228571Y-44301950D02*
X116266666Y-44340045D01*
X116266666Y-44340045D02*
X116304761Y-44416236D01*
X116304761Y-44416236D02*
X116342856Y-44568617D01*
X116342856Y-44568617D02*
X116342856Y-44759093D01*
X116342856Y-44759093D02*
X116304761Y-44911474D01*
X116304761Y-44911474D02*
X116266666Y-44987664D01*
X116266666Y-44987664D02*
X116228571Y-45025760D01*
X116228571Y-45025760D02*
X116152380Y-45063855D01*
X116152380Y-45063855D02*
X116076190Y-45063855D01*
X116076190Y-45063855D02*
X115999999Y-45025760D01*
X115999999Y-45025760D02*
X115961904Y-44987664D01*
X115961904Y-44987664D02*
X115923809Y-44911474D01*
X115923809Y-44911474D02*
X115885713Y-44759093D01*
X115885713Y-44759093D02*
X115885713Y-44568617D01*
X115885713Y-44568617D02*
X115923809Y-44416236D01*
X115923809Y-44416236D02*
X115961904Y-44340045D01*
X115961904Y-44340045D02*
X115999999Y-44301950D01*
X115999999Y-44301950D02*
X116076190Y-44263855D01*
X116609523Y-44263855D02*
X117104761Y-44263855D01*
X117104761Y-44263855D02*
X116838095Y-44568617D01*
X116838095Y-44568617D02*
X116952380Y-44568617D01*
X116952380Y-44568617D02*
X117028571Y-44606712D01*
X117028571Y-44606712D02*
X117066666Y-44644807D01*
X117066666Y-44644807D02*
X117104761Y-44720998D01*
X117104761Y-44720998D02*
X117104761Y-44911474D01*
X117104761Y-44911474D02*
X117066666Y-44987664D01*
X117066666Y-44987664D02*
X117028571Y-45025760D01*
X117028571Y-45025760D02*
X116952380Y-45063855D01*
X116952380Y-45063855D02*
X116723809Y-45063855D01*
X116723809Y-45063855D02*
X116647618Y-45025760D01*
X116647618Y-45025760D02*
X116609523Y-44987664D01*
X117447619Y-45063855D02*
X117447619Y-44263855D01*
X117447619Y-44263855D02*
X117638095Y-44263855D01*
X117638095Y-44263855D02*
X117752381Y-44301950D01*
X117752381Y-44301950D02*
X117828571Y-44378140D01*
X117828571Y-44378140D02*
X117866666Y-44454331D01*
X117866666Y-44454331D02*
X117904762Y-44606712D01*
X117904762Y-44606712D02*
X117904762Y-44720998D01*
X117904762Y-44720998D02*
X117866666Y-44873379D01*
X117866666Y-44873379D02*
X117828571Y-44949569D01*
X117828571Y-44949569D02*
X117752381Y-45025760D01*
X117752381Y-45025760D02*
X117638095Y-45063855D01*
X117638095Y-45063855D02*
X117447619Y-45063855D01*
X94160000Y-84984259D02*
X94260000Y-85017592D01*
X94260000Y-85017592D02*
X94426667Y-85017592D01*
X94426667Y-85017592D02*
X94493333Y-84984259D01*
X94493333Y-84984259D02*
X94526667Y-84950925D01*
X94526667Y-84950925D02*
X94560000Y-84884259D01*
X94560000Y-84884259D02*
X94560000Y-84817592D01*
X94560000Y-84817592D02*
X94526667Y-84750925D01*
X94526667Y-84750925D02*
X94493333Y-84717592D01*
X94493333Y-84717592D02*
X94426667Y-84684259D01*
X94426667Y-84684259D02*
X94293333Y-84650925D01*
X94293333Y-84650925D02*
X94226667Y-84617592D01*
X94226667Y-84617592D02*
X94193333Y-84584259D01*
X94193333Y-84584259D02*
X94160000Y-84517592D01*
X94160000Y-84517592D02*
X94160000Y-84450925D01*
X94160000Y-84450925D02*
X94193333Y-84384259D01*
X94193333Y-84384259D02*
X94226667Y-84350925D01*
X94226667Y-84350925D02*
X94293333Y-84317592D01*
X94293333Y-84317592D02*
X94460000Y-84317592D01*
X94460000Y-84317592D02*
X94560000Y-84350925D01*
X83226667Y-84317592D02*
X82893333Y-84317592D01*
X82893333Y-84317592D02*
X82860000Y-84650925D01*
X82860000Y-84650925D02*
X82893333Y-84617592D01*
X82893333Y-84617592D02*
X82960000Y-84584259D01*
X82960000Y-84584259D02*
X83126667Y-84584259D01*
X83126667Y-84584259D02*
X83193333Y-84617592D01*
X83193333Y-84617592D02*
X83226667Y-84650925D01*
X83226667Y-84650925D02*
X83260000Y-84717592D01*
X83260000Y-84717592D02*
X83260000Y-84884259D01*
X83260000Y-84884259D02*
X83226667Y-84950925D01*
X83226667Y-84950925D02*
X83193333Y-84984259D01*
X83193333Y-84984259D02*
X83126667Y-85017592D01*
X83126667Y-85017592D02*
X82960000Y-85017592D01*
X82960000Y-85017592D02*
X82893333Y-84984259D01*
X82893333Y-84984259D02*
X82860000Y-84950925D01*
X83460000Y-84317592D02*
X83693334Y-85017592D01*
X83693334Y-85017592D02*
X83926667Y-84317592D01*
X107633333Y-84750925D02*
X108166667Y-84750925D01*
X107900000Y-85017592D02*
X107900000Y-84484259D01*
X61990474Y-42563855D02*
X62180950Y-43363855D01*
X62180950Y-43363855D02*
X62333331Y-42792426D01*
X62333331Y-42792426D02*
X62485712Y-43363855D01*
X62485712Y-43363855D02*
X62676189Y-42563855D01*
X62942855Y-43135283D02*
X63323808Y-43135283D01*
X62866665Y-43363855D02*
X63133332Y-42563855D01*
X63133332Y-42563855D02*
X63399998Y-43363855D01*
X63552379Y-42563855D02*
X64009522Y-42563855D01*
X63780950Y-43363855D02*
X63780950Y-42563855D01*
X64733332Y-43287664D02*
X64695236Y-43325760D01*
X64695236Y-43325760D02*
X64580951Y-43363855D01*
X64580951Y-43363855D02*
X64504760Y-43363855D01*
X64504760Y-43363855D02*
X64390474Y-43325760D01*
X64390474Y-43325760D02*
X64314284Y-43249569D01*
X64314284Y-43249569D02*
X64276189Y-43173379D01*
X64276189Y-43173379D02*
X64238093Y-43020998D01*
X64238093Y-43020998D02*
X64238093Y-42906712D01*
X64238093Y-42906712D02*
X64276189Y-42754331D01*
X64276189Y-42754331D02*
X64314284Y-42678140D01*
X64314284Y-42678140D02*
X64390474Y-42601950D01*
X64390474Y-42601950D02*
X64504760Y-42563855D01*
X64504760Y-42563855D02*
X64580951Y-42563855D01*
X64580951Y-42563855D02*
X64695236Y-42601950D01*
X64695236Y-42601950D02*
X64733332Y-42640045D01*
X65076189Y-43363855D02*
X65076189Y-42563855D01*
X65076189Y-42944807D02*
X65533332Y-42944807D01*
X65533332Y-43363855D02*
X65533332Y-42563855D01*
X65914284Y-43363855D02*
X65914284Y-42563855D01*
X65914284Y-42563855D02*
X66180950Y-43135283D01*
X66180950Y-43135283D02*
X66447617Y-42563855D01*
X66447617Y-42563855D02*
X66447617Y-43363855D01*
X66828570Y-42944807D02*
X67095236Y-42944807D01*
X67209522Y-43363855D02*
X66828570Y-43363855D01*
X66828570Y-43363855D02*
X66828570Y-42563855D01*
X66828570Y-42563855D02*
X67209522Y-42563855D01*
X67552380Y-43363855D02*
X67552380Y-42563855D01*
X67552380Y-42563855D02*
X68009523Y-43363855D01*
X68009523Y-43363855D02*
X68009523Y-42563855D01*
X68923808Y-42830521D02*
X69114284Y-43363855D01*
X69114284Y-43363855D02*
X69304761Y-42830521D01*
X70028570Y-43363855D02*
X69571427Y-43363855D01*
X69799999Y-43363855D02*
X69799999Y-42563855D01*
X69799999Y-42563855D02*
X69723808Y-42678140D01*
X69723808Y-42678140D02*
X69647618Y-42754331D01*
X69647618Y-42754331D02*
X69571427Y-42792426D01*
X70371428Y-43287664D02*
X70409523Y-43325760D01*
X70409523Y-43325760D02*
X70371428Y-43363855D01*
X70371428Y-43363855D02*
X70333332Y-43325760D01*
X70333332Y-43325760D02*
X70371428Y-43287664D01*
X70371428Y-43287664D02*
X70371428Y-43363855D01*
X70904761Y-42563855D02*
X70980951Y-42563855D01*
X70980951Y-42563855D02*
X71057142Y-42601950D01*
X71057142Y-42601950D02*
X71095237Y-42640045D01*
X71095237Y-42640045D02*
X71133332Y-42716236D01*
X71133332Y-42716236D02*
X71171427Y-42868617D01*
X71171427Y-42868617D02*
X71171427Y-43059093D01*
X71171427Y-43059093D02*
X71133332Y-43211474D01*
X71133332Y-43211474D02*
X71095237Y-43287664D01*
X71095237Y-43287664D02*
X71057142Y-43325760D01*
X71057142Y-43325760D02*
X70980951Y-43363855D01*
X70980951Y-43363855D02*
X70904761Y-43363855D01*
X70904761Y-43363855D02*
X70828570Y-43325760D01*
X70828570Y-43325760D02*
X70790475Y-43287664D01*
X70790475Y-43287664D02*
X70752380Y-43211474D01*
X70752380Y-43211474D02*
X70714284Y-43059093D01*
X70714284Y-43059093D02*
X70714284Y-42868617D01*
X70714284Y-42868617D02*
X70752380Y-42716236D01*
X70752380Y-42716236D02*
X70790475Y-42640045D01*
X70790475Y-42640045D02*
X70828570Y-42601950D01*
X70828570Y-42601950D02*
X70904761Y-42563855D01*
X90646666Y-48784260D02*
X90746666Y-48817593D01*
X90746666Y-48817593D02*
X90913333Y-48817593D01*
X90913333Y-48817593D02*
X90979999Y-48784260D01*
X90979999Y-48784260D02*
X91013333Y-48750926D01*
X91013333Y-48750926D02*
X91046666Y-48684260D01*
X91046666Y-48684260D02*
X91046666Y-48617593D01*
X91046666Y-48617593D02*
X91013333Y-48550926D01*
X91013333Y-48550926D02*
X90979999Y-48517593D01*
X90979999Y-48517593D02*
X90913333Y-48484260D01*
X90913333Y-48484260D02*
X90779999Y-48450926D01*
X90779999Y-48450926D02*
X90713333Y-48417593D01*
X90713333Y-48417593D02*
X90679999Y-48384260D01*
X90679999Y-48384260D02*
X90646666Y-48317593D01*
X90646666Y-48317593D02*
X90646666Y-48250926D01*
X90646666Y-48250926D02*
X90679999Y-48184260D01*
X90679999Y-48184260D02*
X90713333Y-48150926D01*
X90713333Y-48150926D02*
X90779999Y-48117593D01*
X90779999Y-48117593D02*
X90946666Y-48117593D01*
X90946666Y-48117593D02*
X91046666Y-48150926D01*
X91746666Y-48750926D02*
X91713333Y-48784260D01*
X91713333Y-48784260D02*
X91613333Y-48817593D01*
X91613333Y-48817593D02*
X91546666Y-48817593D01*
X91546666Y-48817593D02*
X91446666Y-48784260D01*
X91446666Y-48784260D02*
X91380000Y-48717593D01*
X91380000Y-48717593D02*
X91346666Y-48650926D01*
X91346666Y-48650926D02*
X91313333Y-48517593D01*
X91313333Y-48517593D02*
X91313333Y-48417593D01*
X91313333Y-48417593D02*
X91346666Y-48284260D01*
X91346666Y-48284260D02*
X91380000Y-48217593D01*
X91380000Y-48217593D02*
X91446666Y-48150926D01*
X91446666Y-48150926D02*
X91546666Y-48117593D01*
X91546666Y-48117593D02*
X91613333Y-48117593D01*
X91613333Y-48117593D02*
X91713333Y-48150926D01*
X91713333Y-48150926D02*
X91746666Y-48184260D01*
X92380000Y-48817593D02*
X92046666Y-48817593D01*
X92046666Y-48817593D02*
X92046666Y-48117593D01*
X88406667Y-48150926D02*
X88340000Y-48117593D01*
X88340000Y-48117593D02*
X88240000Y-48117593D01*
X88240000Y-48117593D02*
X88140000Y-48150926D01*
X88140000Y-48150926D02*
X88073334Y-48217593D01*
X88073334Y-48217593D02*
X88040000Y-48284260D01*
X88040000Y-48284260D02*
X88006667Y-48417593D01*
X88006667Y-48417593D02*
X88006667Y-48517593D01*
X88006667Y-48517593D02*
X88040000Y-48650926D01*
X88040000Y-48650926D02*
X88073334Y-48717593D01*
X88073334Y-48717593D02*
X88140000Y-48784260D01*
X88140000Y-48784260D02*
X88240000Y-48817593D01*
X88240000Y-48817593D02*
X88306667Y-48817593D01*
X88306667Y-48817593D02*
X88406667Y-48784260D01*
X88406667Y-48784260D02*
X88440000Y-48750926D01*
X88440000Y-48750926D02*
X88440000Y-48517593D01*
X88440000Y-48517593D02*
X88306667Y-48517593D01*
X88740000Y-48817593D02*
X88740000Y-48117593D01*
X88740000Y-48117593D02*
X89140000Y-48817593D01*
X89140000Y-48817593D02*
X89140000Y-48117593D01*
X89473333Y-48817593D02*
X89473333Y-48117593D01*
X89473333Y-48117593D02*
X89640000Y-48117593D01*
X89640000Y-48117593D02*
X89740000Y-48150926D01*
X89740000Y-48150926D02*
X89806667Y-48217593D01*
X89806667Y-48217593D02*
X89840000Y-48284260D01*
X89840000Y-48284260D02*
X89873333Y-48417593D01*
X89873333Y-48417593D02*
X89873333Y-48517593D01*
X89873333Y-48517593D02*
X89840000Y-48650926D01*
X89840000Y-48650926D02*
X89806667Y-48717593D01*
X89806667Y-48717593D02*
X89740000Y-48784260D01*
X89740000Y-48784260D02*
X89640000Y-48817593D01*
X89640000Y-48817593D02*
X89473333Y-48817593D01*
X99173333Y-84750925D02*
X99706667Y-84750925D01*
X105160000Y-84984259D02*
X105260000Y-85017592D01*
X105260000Y-85017592D02*
X105426667Y-85017592D01*
X105426667Y-85017592D02*
X105493333Y-84984259D01*
X105493333Y-84984259D02*
X105526667Y-84950925D01*
X105526667Y-84950925D02*
X105560000Y-84884259D01*
X105560000Y-84884259D02*
X105560000Y-84817592D01*
X105560000Y-84817592D02*
X105526667Y-84750925D01*
X105526667Y-84750925D02*
X105493333Y-84717592D01*
X105493333Y-84717592D02*
X105426667Y-84684259D01*
X105426667Y-84684259D02*
X105293333Y-84650925D01*
X105293333Y-84650925D02*
X105226667Y-84617592D01*
X105226667Y-84617592D02*
X105193333Y-84584259D01*
X105193333Y-84584259D02*
X105160000Y-84517592D01*
X105160000Y-84517592D02*
X105160000Y-84450925D01*
X105160000Y-84450925D02*
X105193333Y-84384259D01*
X105193333Y-84384259D02*
X105226667Y-84350925D01*
X105226667Y-84350925D02*
X105293333Y-84317592D01*
X105293333Y-84317592D02*
X105460000Y-84317592D01*
X105460000Y-84317592D02*
X105560000Y-84350925D01*
X114723809Y-88885283D02*
X115104762Y-88885283D01*
X114647619Y-89113855D02*
X114914286Y-88313855D01*
X114914286Y-88313855D02*
X115180952Y-89113855D01*
X115600000Y-88313855D02*
X115676190Y-88313855D01*
X115676190Y-88313855D02*
X115752381Y-88351950D01*
X115752381Y-88351950D02*
X115790476Y-88390045D01*
X115790476Y-88390045D02*
X115828571Y-88466236D01*
X115828571Y-88466236D02*
X115866666Y-88618617D01*
X115866666Y-88618617D02*
X115866666Y-88809093D01*
X115866666Y-88809093D02*
X115828571Y-88961474D01*
X115828571Y-88961474D02*
X115790476Y-89037664D01*
X115790476Y-89037664D02*
X115752381Y-89075760D01*
X115752381Y-89075760D02*
X115676190Y-89113855D01*
X115676190Y-89113855D02*
X115600000Y-89113855D01*
X115600000Y-89113855D02*
X115523809Y-89075760D01*
X115523809Y-89075760D02*
X115485714Y-89037664D01*
X115485714Y-89037664D02*
X115447619Y-88961474D01*
X115447619Y-88961474D02*
X115409523Y-88809093D01*
X115409523Y-88809093D02*
X115409523Y-88618617D01*
X115409523Y-88618617D02*
X115447619Y-88466236D01*
X115447619Y-88466236D02*
X115485714Y-88390045D01*
X115485714Y-88390045D02*
X115523809Y-88351950D01*
X115523809Y-88351950D02*
X115600000Y-88313855D01*
X116209524Y-88809093D02*
X116819048Y-88809093D01*
X117733333Y-89190045D02*
X117657143Y-89151950D01*
X117657143Y-89151950D02*
X117580952Y-89075760D01*
X117580952Y-89075760D02*
X117466666Y-88961474D01*
X117466666Y-88961474D02*
X117390476Y-88923379D01*
X117390476Y-88923379D02*
X117314285Y-88923379D01*
X117352381Y-89113855D02*
X117276190Y-89075760D01*
X117276190Y-89075760D02*
X117200000Y-88999569D01*
X117200000Y-88999569D02*
X117161904Y-88847188D01*
X117161904Y-88847188D02*
X117161904Y-88580521D01*
X117161904Y-88580521D02*
X117200000Y-88428140D01*
X117200000Y-88428140D02*
X117276190Y-88351950D01*
X117276190Y-88351950D02*
X117352381Y-88313855D01*
X117352381Y-88313855D02*
X117504762Y-88313855D01*
X117504762Y-88313855D02*
X117580952Y-88351950D01*
X117580952Y-88351950D02*
X117657143Y-88428140D01*
X117657143Y-88428140D02*
X117695238Y-88580521D01*
X117695238Y-88580521D02*
X117695238Y-88847188D01*
X117695238Y-88847188D02*
X117657143Y-88999569D01*
X117657143Y-88999569D02*
X117580952Y-89075760D01*
X117580952Y-89075760D02*
X117504762Y-89113855D01*
X117504762Y-89113855D02*
X117352381Y-89113855D01*
X118038095Y-88313855D02*
X118038095Y-88961474D01*
X118038095Y-88961474D02*
X118076190Y-89037664D01*
X118076190Y-89037664D02*
X118114285Y-89075760D01*
X118114285Y-89075760D02*
X118190476Y-89113855D01*
X118190476Y-89113855D02*
X118342857Y-89113855D01*
X118342857Y-89113855D02*
X118419047Y-89075760D01*
X118419047Y-89075760D02*
X118457142Y-89037664D01*
X118457142Y-89037664D02*
X118495238Y-88961474D01*
X118495238Y-88961474D02*
X118495238Y-88313855D01*
X118876190Y-88694807D02*
X119142856Y-88694807D01*
X119257142Y-89113855D02*
X118876190Y-89113855D01*
X118876190Y-89113855D02*
X118876190Y-88313855D01*
X118876190Y-88313855D02*
X119257142Y-88313855D01*
X119980952Y-89113855D02*
X119600000Y-89113855D01*
X119600000Y-89113855D02*
X119600000Y-88313855D01*
X120628571Y-89113855D02*
X120247619Y-89113855D01*
X120247619Y-89113855D02*
X120247619Y-88313855D01*
X120895238Y-88694807D02*
X121161904Y-88694807D01*
X121276190Y-89113855D02*
X120895238Y-89113855D01*
X120895238Y-89113855D02*
X120895238Y-88313855D01*
X120895238Y-88313855D02*
X121276190Y-88313855D01*
X85466666Y-48117593D02*
X85700000Y-48817593D01*
X85700000Y-48817593D02*
X85933333Y-48117593D01*
X86566666Y-48750926D02*
X86533333Y-48784260D01*
X86533333Y-48784260D02*
X86433333Y-48817593D01*
X86433333Y-48817593D02*
X86366666Y-48817593D01*
X86366666Y-48817593D02*
X86266666Y-48784260D01*
X86266666Y-48784260D02*
X86200000Y-48717593D01*
X86200000Y-48717593D02*
X86166666Y-48650926D01*
X86166666Y-48650926D02*
X86133333Y-48517593D01*
X86133333Y-48517593D02*
X86133333Y-48417593D01*
X86133333Y-48417593D02*
X86166666Y-48284260D01*
X86166666Y-48284260D02*
X86200000Y-48217593D01*
X86200000Y-48217593D02*
X86266666Y-48150926D01*
X86266666Y-48150926D02*
X86366666Y-48117593D01*
X86366666Y-48117593D02*
X86433333Y-48117593D01*
X86433333Y-48117593D02*
X86533333Y-48150926D01*
X86533333Y-48150926D02*
X86566666Y-48184260D01*
X87266666Y-48750926D02*
X87233333Y-48784260D01*
X87233333Y-48784260D02*
X87133333Y-48817593D01*
X87133333Y-48817593D02*
X87066666Y-48817593D01*
X87066666Y-48817593D02*
X86966666Y-48784260D01*
X86966666Y-48784260D02*
X86900000Y-48717593D01*
X86900000Y-48717593D02*
X86866666Y-48650926D01*
X86866666Y-48650926D02*
X86833333Y-48517593D01*
X86833333Y-48517593D02*
X86833333Y-48417593D01*
X86833333Y-48417593D02*
X86866666Y-48284260D01*
X86866666Y-48284260D02*
X86900000Y-48217593D01*
X86900000Y-48217593D02*
X86966666Y-48150926D01*
X86966666Y-48150926D02*
X87066666Y-48117593D01*
X87066666Y-48117593D02*
X87133333Y-48117593D01*
X87133333Y-48117593D02*
X87233333Y-48150926D01*
X87233333Y-48150926D02*
X87266666Y-48184260D01*
X65366666Y-48150926D02*
X65466666Y-48184260D01*
X65466666Y-48184260D02*
X65499999Y-48217593D01*
X65499999Y-48217593D02*
X65533332Y-48284260D01*
X65533332Y-48284260D02*
X65533332Y-48384260D01*
X65533332Y-48384260D02*
X65499999Y-48450926D01*
X65499999Y-48450926D02*
X65466666Y-48484260D01*
X65466666Y-48484260D02*
X65399999Y-48517593D01*
X65399999Y-48517593D02*
X65133332Y-48517593D01*
X65133332Y-48517593D02*
X65133332Y-47817593D01*
X65133332Y-47817593D02*
X65366666Y-47817593D01*
X65366666Y-47817593D02*
X65433332Y-47850926D01*
X65433332Y-47850926D02*
X65466666Y-47884260D01*
X65466666Y-47884260D02*
X65499999Y-47950926D01*
X65499999Y-47950926D02*
X65499999Y-48017593D01*
X65499999Y-48017593D02*
X65466666Y-48084260D01*
X65466666Y-48084260D02*
X65433332Y-48117593D01*
X65433332Y-48117593D02*
X65366666Y-48150926D01*
X65366666Y-48150926D02*
X65133332Y-48150926D01*
X66166666Y-48517593D02*
X65833332Y-48517593D01*
X65833332Y-48517593D02*
X65833332Y-47817593D01*
X105766666Y-89075760D02*
X105880952Y-89113855D01*
X105880952Y-89113855D02*
X106071428Y-89113855D01*
X106071428Y-89113855D02*
X106147619Y-89075760D01*
X106147619Y-89075760D02*
X106185714Y-89037664D01*
X106185714Y-89037664D02*
X106223809Y-88961474D01*
X106223809Y-88961474D02*
X106223809Y-88885283D01*
X106223809Y-88885283D02*
X106185714Y-88809093D01*
X106185714Y-88809093D02*
X106147619Y-88770998D01*
X106147619Y-88770998D02*
X106071428Y-88732902D01*
X106071428Y-88732902D02*
X105919047Y-88694807D01*
X105919047Y-88694807D02*
X105842857Y-88656712D01*
X105842857Y-88656712D02*
X105804762Y-88618617D01*
X105804762Y-88618617D02*
X105766666Y-88542426D01*
X105766666Y-88542426D02*
X105766666Y-88466236D01*
X105766666Y-88466236D02*
X105804762Y-88390045D01*
X105804762Y-88390045D02*
X105842857Y-88351950D01*
X105842857Y-88351950D02*
X105919047Y-88313855D01*
X105919047Y-88313855D02*
X106109524Y-88313855D01*
X106109524Y-88313855D02*
X106223809Y-88351950D01*
X106566667Y-88694807D02*
X106833333Y-88694807D01*
X106947619Y-89113855D02*
X106566667Y-89113855D01*
X106566667Y-89113855D02*
X106566667Y-88313855D01*
X106566667Y-88313855D02*
X106947619Y-88313855D01*
X107747620Y-89113855D02*
X107480953Y-88732902D01*
X107290477Y-89113855D02*
X107290477Y-88313855D01*
X107290477Y-88313855D02*
X107595239Y-88313855D01*
X107595239Y-88313855D02*
X107671429Y-88351950D01*
X107671429Y-88351950D02*
X107709524Y-88390045D01*
X107709524Y-88390045D02*
X107747620Y-88466236D01*
X107747620Y-88466236D02*
X107747620Y-88580521D01*
X107747620Y-88580521D02*
X107709524Y-88656712D01*
X107709524Y-88656712D02*
X107671429Y-88694807D01*
X107671429Y-88694807D02*
X107595239Y-88732902D01*
X107595239Y-88732902D02*
X107290477Y-88732902D01*
X107976191Y-88313855D02*
X108242858Y-89113855D01*
X108242858Y-89113855D02*
X108509524Y-88313855D01*
X108928572Y-88313855D02*
X109080953Y-88313855D01*
X109080953Y-88313855D02*
X109157143Y-88351950D01*
X109157143Y-88351950D02*
X109233334Y-88428140D01*
X109233334Y-88428140D02*
X109271429Y-88580521D01*
X109271429Y-88580521D02*
X109271429Y-88847188D01*
X109271429Y-88847188D02*
X109233334Y-88999569D01*
X109233334Y-88999569D02*
X109157143Y-89075760D01*
X109157143Y-89075760D02*
X109080953Y-89113855D01*
X109080953Y-89113855D02*
X108928572Y-89113855D01*
X108928572Y-89113855D02*
X108852381Y-89075760D01*
X108852381Y-89075760D02*
X108776191Y-88999569D01*
X108776191Y-88999569D02*
X108738095Y-88847188D01*
X108738095Y-88847188D02*
X108738095Y-88580521D01*
X108738095Y-88580521D02*
X108776191Y-88428140D01*
X108776191Y-88428140D02*
X108852381Y-88351950D01*
X108852381Y-88351950D02*
X108928572Y-88313855D01*
X109576190Y-88390045D02*
X109614286Y-88351950D01*
X109614286Y-88351950D02*
X109690476Y-88313855D01*
X109690476Y-88313855D02*
X109880952Y-88313855D01*
X109880952Y-88313855D02*
X109957143Y-88351950D01*
X109957143Y-88351950D02*
X109995238Y-88390045D01*
X109995238Y-88390045D02*
X110033333Y-88466236D01*
X110033333Y-88466236D02*
X110033333Y-88542426D01*
X110033333Y-88542426D02*
X109995238Y-88656712D01*
X109995238Y-88656712D02*
X109538095Y-89113855D01*
X109538095Y-89113855D02*
X110033333Y-89113855D01*
X71500000Y-78617593D02*
X71166666Y-78617593D01*
X71166666Y-78617593D02*
X71133333Y-78950926D01*
X71133333Y-78950926D02*
X71166666Y-78917593D01*
X71166666Y-78917593D02*
X71233333Y-78884260D01*
X71233333Y-78884260D02*
X71400000Y-78884260D01*
X71400000Y-78884260D02*
X71466666Y-78917593D01*
X71466666Y-78917593D02*
X71500000Y-78950926D01*
X71500000Y-78950926D02*
X71533333Y-79017593D01*
X71533333Y-79017593D02*
X71533333Y-79184260D01*
X71533333Y-79184260D02*
X71500000Y-79250926D01*
X71500000Y-79250926D02*
X71466666Y-79284260D01*
X71466666Y-79284260D02*
X71400000Y-79317593D01*
X71400000Y-79317593D02*
X71233333Y-79317593D01*
X71233333Y-79317593D02*
X71166666Y-79284260D01*
X71166666Y-79284260D02*
X71133333Y-79250926D01*
X71733333Y-78617593D02*
X71966667Y-79317593D01*
X71966667Y-79317593D02*
X72200000Y-78617593D01*
X72433333Y-78850926D02*
X72966667Y-79050926D01*
X72966667Y-79050926D02*
X72433333Y-79250926D01*
X73200000Y-78617593D02*
X73433334Y-79317593D01*
X73433334Y-79317593D02*
X73666667Y-78617593D01*
X73900000Y-79317593D02*
X73900000Y-78617593D01*
X73900000Y-78617593D02*
X74133334Y-79117593D01*
X74133334Y-79117593D02*
X74366667Y-78617593D01*
X74366667Y-78617593D02*
X74366667Y-79317593D01*
X74833334Y-78617593D02*
X74966667Y-78617593D01*
X74966667Y-78617593D02*
X75033334Y-78650926D01*
X75033334Y-78650926D02*
X75100000Y-78717593D01*
X75100000Y-78717593D02*
X75133334Y-78850926D01*
X75133334Y-78850926D02*
X75133334Y-79084260D01*
X75133334Y-79084260D02*
X75100000Y-79217593D01*
X75100000Y-79217593D02*
X75033334Y-79284260D01*
X75033334Y-79284260D02*
X74966667Y-79317593D01*
X74966667Y-79317593D02*
X74833334Y-79317593D01*
X74833334Y-79317593D02*
X74766667Y-79284260D01*
X74766667Y-79284260D02*
X74700000Y-79217593D01*
X74700000Y-79217593D02*
X74666667Y-79084260D01*
X74666667Y-79084260D02*
X74666667Y-78850926D01*
X74666667Y-78850926D02*
X74700000Y-78717593D01*
X74700000Y-78717593D02*
X74766667Y-78650926D01*
X74766667Y-78650926D02*
X74833334Y-78617593D01*
X75333333Y-78617593D02*
X75733333Y-78617593D01*
X75533333Y-79317593D02*
X75533333Y-78617593D01*
X100790000Y-48617593D02*
X101123333Y-48617593D01*
X100723333Y-48817593D02*
X100956667Y-48117593D01*
X100956667Y-48117593D02*
X101190000Y-48817593D01*
X101423333Y-48817593D02*
X101423333Y-48117593D01*
X101423333Y-48117593D02*
X101590000Y-48117593D01*
X101590000Y-48117593D02*
X101690000Y-48150926D01*
X101690000Y-48150926D02*
X101756667Y-48217593D01*
X101756667Y-48217593D02*
X101790000Y-48284260D01*
X101790000Y-48284260D02*
X101823333Y-48417593D01*
X101823333Y-48417593D02*
X101823333Y-48517593D01*
X101823333Y-48517593D02*
X101790000Y-48650926D01*
X101790000Y-48650926D02*
X101756667Y-48717593D01*
X101756667Y-48717593D02*
X101690000Y-48784260D01*
X101690000Y-48784260D02*
X101590000Y-48817593D01*
X101590000Y-48817593D02*
X101423333Y-48817593D01*
X102256667Y-48117593D02*
X102323333Y-48117593D01*
X102323333Y-48117593D02*
X102390000Y-48150926D01*
X102390000Y-48150926D02*
X102423333Y-48184260D01*
X102423333Y-48184260D02*
X102456667Y-48250926D01*
X102456667Y-48250926D02*
X102490000Y-48384260D01*
X102490000Y-48384260D02*
X102490000Y-48550926D01*
X102490000Y-48550926D02*
X102456667Y-48684260D01*
X102456667Y-48684260D02*
X102423333Y-48750926D01*
X102423333Y-48750926D02*
X102390000Y-48784260D01*
X102390000Y-48784260D02*
X102323333Y-48817593D01*
X102323333Y-48817593D02*
X102256667Y-48817593D01*
X102256667Y-48817593D02*
X102190000Y-48784260D01*
X102190000Y-48784260D02*
X102156667Y-48750926D01*
X102156667Y-48750926D02*
X102123333Y-48684260D01*
X102123333Y-48684260D02*
X102090000Y-48550926D01*
X102090000Y-48550926D02*
X102090000Y-48384260D01*
X102090000Y-48384260D02*
X102123333Y-48250926D01*
X102123333Y-48250926D02*
X102156667Y-48184260D01*
X102156667Y-48184260D02*
X102190000Y-48150926D01*
X102190000Y-48150926D02*
X102256667Y-48117593D01*
X93170000Y-48784260D02*
X93270000Y-48817593D01*
X93270000Y-48817593D02*
X93436667Y-48817593D01*
X93436667Y-48817593D02*
X93503333Y-48784260D01*
X93503333Y-48784260D02*
X93536667Y-48750926D01*
X93536667Y-48750926D02*
X93570000Y-48684260D01*
X93570000Y-48684260D02*
X93570000Y-48617593D01*
X93570000Y-48617593D02*
X93536667Y-48550926D01*
X93536667Y-48550926D02*
X93503333Y-48517593D01*
X93503333Y-48517593D02*
X93436667Y-48484260D01*
X93436667Y-48484260D02*
X93303333Y-48450926D01*
X93303333Y-48450926D02*
X93236667Y-48417593D01*
X93236667Y-48417593D02*
X93203333Y-48384260D01*
X93203333Y-48384260D02*
X93170000Y-48317593D01*
X93170000Y-48317593D02*
X93170000Y-48250926D01*
X93170000Y-48250926D02*
X93203333Y-48184260D01*
X93203333Y-48184260D02*
X93236667Y-48150926D01*
X93236667Y-48150926D02*
X93303333Y-48117593D01*
X93303333Y-48117593D02*
X93470000Y-48117593D01*
X93470000Y-48117593D02*
X93570000Y-48150926D01*
X93870000Y-48817593D02*
X93870000Y-48117593D01*
X93870000Y-48117593D02*
X94036667Y-48117593D01*
X94036667Y-48117593D02*
X94136667Y-48150926D01*
X94136667Y-48150926D02*
X94203334Y-48217593D01*
X94203334Y-48217593D02*
X94236667Y-48284260D01*
X94236667Y-48284260D02*
X94270000Y-48417593D01*
X94270000Y-48417593D02*
X94270000Y-48517593D01*
X94270000Y-48517593D02*
X94236667Y-48650926D01*
X94236667Y-48650926D02*
X94203334Y-48717593D01*
X94203334Y-48717593D02*
X94136667Y-48784260D01*
X94136667Y-48784260D02*
X94036667Y-48817593D01*
X94036667Y-48817593D02*
X93870000Y-48817593D01*
X94536667Y-48617593D02*
X94870000Y-48617593D01*
X94470000Y-48817593D02*
X94703334Y-48117593D01*
X94703334Y-48117593D02*
X94936667Y-48817593D01*
X65183333Y-55317593D02*
X65316666Y-55317593D01*
X65316666Y-55317593D02*
X65383333Y-55350926D01*
X65383333Y-55350926D02*
X65449999Y-55417593D01*
X65449999Y-55417593D02*
X65483333Y-55550926D01*
X65483333Y-55550926D02*
X65483333Y-55784260D01*
X65483333Y-55784260D02*
X65449999Y-55917593D01*
X65449999Y-55917593D02*
X65383333Y-55984260D01*
X65383333Y-55984260D02*
X65316666Y-56017593D01*
X65316666Y-56017593D02*
X65183333Y-56017593D01*
X65183333Y-56017593D02*
X65116666Y-55984260D01*
X65116666Y-55984260D02*
X65049999Y-55917593D01*
X65049999Y-55917593D02*
X65016666Y-55784260D01*
X65016666Y-55784260D02*
X65016666Y-55550926D01*
X65016666Y-55550926D02*
X65049999Y-55417593D01*
X65049999Y-55417593D02*
X65116666Y-55350926D01*
X65116666Y-55350926D02*
X65183333Y-55317593D01*
X66183332Y-56017593D02*
X65949999Y-55684260D01*
X65783332Y-56017593D02*
X65783332Y-55317593D01*
X65783332Y-55317593D02*
X66049999Y-55317593D01*
X66049999Y-55317593D02*
X66116666Y-55350926D01*
X66116666Y-55350926D02*
X66149999Y-55384260D01*
X66149999Y-55384260D02*
X66183332Y-55450926D01*
X66183332Y-55450926D02*
X66183332Y-55550926D01*
X66183332Y-55550926D02*
X66149999Y-55617593D01*
X66149999Y-55617593D02*
X66116666Y-55650926D01*
X66116666Y-55650926D02*
X66049999Y-55684260D01*
X66049999Y-55684260D02*
X65783332Y-55684260D01*
X122266667Y-65790926D02*
X122200000Y-65757593D01*
X122200000Y-65757593D02*
X122100000Y-65757593D01*
X122100000Y-65757593D02*
X122000000Y-65790926D01*
X122000000Y-65790926D02*
X121933334Y-65857593D01*
X121933334Y-65857593D02*
X121900000Y-65924260D01*
X121900000Y-65924260D02*
X121866667Y-66057593D01*
X121866667Y-66057593D02*
X121866667Y-66157593D01*
X121866667Y-66157593D02*
X121900000Y-66290926D01*
X121900000Y-66290926D02*
X121933334Y-66357593D01*
X121933334Y-66357593D02*
X122000000Y-66424260D01*
X122000000Y-66424260D02*
X122100000Y-66457593D01*
X122100000Y-66457593D02*
X122166667Y-66457593D01*
X122166667Y-66457593D02*
X122266667Y-66424260D01*
X122266667Y-66424260D02*
X122300000Y-66390926D01*
X122300000Y-66390926D02*
X122300000Y-66157593D01*
X122300000Y-66157593D02*
X122166667Y-66157593D01*
X122600000Y-66457593D02*
X122600000Y-65757593D01*
X122600000Y-65757593D02*
X123000000Y-66457593D01*
X123000000Y-66457593D02*
X123000000Y-65757593D01*
X123333333Y-66457593D02*
X123333333Y-65757593D01*
X123333333Y-65757593D02*
X123500000Y-65757593D01*
X123500000Y-65757593D02*
X123600000Y-65790926D01*
X123600000Y-65790926D02*
X123666667Y-65857593D01*
X123666667Y-65857593D02*
X123700000Y-65924260D01*
X123700000Y-65924260D02*
X123733333Y-66057593D01*
X123733333Y-66057593D02*
X123733333Y-66157593D01*
X123733333Y-66157593D02*
X123700000Y-66290926D01*
X123700000Y-66290926D02*
X123666667Y-66357593D01*
X123666667Y-66357593D02*
X123600000Y-66424260D01*
X123600000Y-66424260D02*
X123500000Y-66457593D01*
X123500000Y-66457593D02*
X123333333Y-66457593D01*
X70663855Y-80238094D02*
X69863855Y-80238094D01*
X69863855Y-80238094D02*
X70435283Y-79971428D01*
X70435283Y-79971428D02*
X69863855Y-79704761D01*
X69863855Y-79704761D02*
X70663855Y-79704761D01*
X69863855Y-79171427D02*
X69863855Y-79019046D01*
X69863855Y-79019046D02*
X69901950Y-78942856D01*
X69901950Y-78942856D02*
X69978140Y-78866665D01*
X69978140Y-78866665D02*
X70130521Y-78828570D01*
X70130521Y-78828570D02*
X70397188Y-78828570D01*
X70397188Y-78828570D02*
X70549569Y-78866665D01*
X70549569Y-78866665D02*
X70625760Y-78942856D01*
X70625760Y-78942856D02*
X70663855Y-79019046D01*
X70663855Y-79019046D02*
X70663855Y-79171427D01*
X70663855Y-79171427D02*
X70625760Y-79247618D01*
X70625760Y-79247618D02*
X70549569Y-79323808D01*
X70549569Y-79323808D02*
X70397188Y-79361904D01*
X70397188Y-79361904D02*
X70130521Y-79361904D01*
X70130521Y-79361904D02*
X69978140Y-79323808D01*
X69978140Y-79323808D02*
X69901950Y-79247618D01*
X69901950Y-79247618D02*
X69863855Y-79171427D01*
X69863855Y-78599999D02*
X69863855Y-78142856D01*
X70663855Y-78371428D02*
X69863855Y-78371428D01*
X69863855Y-77723808D02*
X69863855Y-77571427D01*
X69863855Y-77571427D02*
X69901950Y-77495237D01*
X69901950Y-77495237D02*
X69978140Y-77419046D01*
X69978140Y-77419046D02*
X70130521Y-77380951D01*
X70130521Y-77380951D02*
X70397188Y-77380951D01*
X70397188Y-77380951D02*
X70549569Y-77419046D01*
X70549569Y-77419046D02*
X70625760Y-77495237D01*
X70625760Y-77495237D02*
X70663855Y-77571427D01*
X70663855Y-77571427D02*
X70663855Y-77723808D01*
X70663855Y-77723808D02*
X70625760Y-77799999D01*
X70625760Y-77799999D02*
X70549569Y-77876189D01*
X70549569Y-77876189D02*
X70397188Y-77914285D01*
X70397188Y-77914285D02*
X70130521Y-77914285D01*
X70130521Y-77914285D02*
X69978140Y-77876189D01*
X69978140Y-77876189D02*
X69901950Y-77799999D01*
X69901950Y-77799999D02*
X69863855Y-77723808D01*
X70663855Y-76580951D02*
X70282902Y-76847618D01*
X70663855Y-77038094D02*
X69863855Y-77038094D01*
X69863855Y-77038094D02*
X69863855Y-76733332D01*
X69863855Y-76733332D02*
X69901950Y-76657142D01*
X69901950Y-76657142D02*
X69940045Y-76619047D01*
X69940045Y-76619047D02*
X70016236Y-76580951D01*
X70016236Y-76580951D02*
X70130521Y-76580951D01*
X70130521Y-76580951D02*
X70206712Y-76619047D01*
X70206712Y-76619047D02*
X70244807Y-76657142D01*
X70244807Y-76657142D02*
X70282902Y-76733332D01*
X70282902Y-76733332D02*
X70282902Y-77038094D01*
X69863855Y-75247618D02*
X69863855Y-75628570D01*
X69863855Y-75628570D02*
X70244807Y-75666666D01*
X70244807Y-75666666D02*
X70206712Y-75628570D01*
X70206712Y-75628570D02*
X70168617Y-75552380D01*
X70168617Y-75552380D02*
X70168617Y-75361904D01*
X70168617Y-75361904D02*
X70206712Y-75285713D01*
X70206712Y-75285713D02*
X70244807Y-75247618D01*
X70244807Y-75247618D02*
X70320998Y-75209523D01*
X70320998Y-75209523D02*
X70511474Y-75209523D01*
X70511474Y-75209523D02*
X70587664Y-75247618D01*
X70587664Y-75247618D02*
X70625760Y-75285713D01*
X70625760Y-75285713D02*
X70663855Y-75361904D01*
X70663855Y-75361904D02*
X70663855Y-75552380D01*
X70663855Y-75552380D02*
X70625760Y-75628570D01*
X70625760Y-75628570D02*
X70587664Y-75666666D01*
X69863855Y-74980951D02*
X70663855Y-74714284D01*
X70663855Y-74714284D02*
X69863855Y-74447618D01*
X113806667Y-48150926D02*
X113740000Y-48117593D01*
X113740000Y-48117593D02*
X113640000Y-48117593D01*
X113640000Y-48117593D02*
X113540000Y-48150926D01*
X113540000Y-48150926D02*
X113473334Y-48217593D01*
X113473334Y-48217593D02*
X113440000Y-48284260D01*
X113440000Y-48284260D02*
X113406667Y-48417593D01*
X113406667Y-48417593D02*
X113406667Y-48517593D01*
X113406667Y-48517593D02*
X113440000Y-48650926D01*
X113440000Y-48650926D02*
X113473334Y-48717593D01*
X113473334Y-48717593D02*
X113540000Y-48784260D01*
X113540000Y-48784260D02*
X113640000Y-48817593D01*
X113640000Y-48817593D02*
X113706667Y-48817593D01*
X113706667Y-48817593D02*
X113806667Y-48784260D01*
X113806667Y-48784260D02*
X113840000Y-48750926D01*
X113840000Y-48750926D02*
X113840000Y-48517593D01*
X113840000Y-48517593D02*
X113706667Y-48517593D01*
X114140000Y-48817593D02*
X114140000Y-48117593D01*
X114140000Y-48117593D02*
X114540000Y-48817593D01*
X114540000Y-48817593D02*
X114540000Y-48117593D01*
X114873333Y-48817593D02*
X114873333Y-48117593D01*
X114873333Y-48117593D02*
X115040000Y-48117593D01*
X115040000Y-48117593D02*
X115140000Y-48150926D01*
X115140000Y-48150926D02*
X115206667Y-48217593D01*
X115206667Y-48217593D02*
X115240000Y-48284260D01*
X115240000Y-48284260D02*
X115273333Y-48417593D01*
X115273333Y-48417593D02*
X115273333Y-48517593D01*
X115273333Y-48517593D02*
X115240000Y-48650926D01*
X115240000Y-48650926D02*
X115206667Y-48717593D01*
X115206667Y-48717593D02*
X115140000Y-48784260D01*
X115140000Y-48784260D02*
X115040000Y-48817593D01*
X115040000Y-48817593D02*
X114873333Y-48817593D01*
X65466665Y-58517593D02*
X65233332Y-58184260D01*
X65066665Y-58517593D02*
X65066665Y-57817593D01*
X65066665Y-57817593D02*
X65333332Y-57817593D01*
X65333332Y-57817593D02*
X65399999Y-57850926D01*
X65399999Y-57850926D02*
X65433332Y-57884260D01*
X65433332Y-57884260D02*
X65466665Y-57950926D01*
X65466665Y-57950926D02*
X65466665Y-58050926D01*
X65466665Y-58050926D02*
X65433332Y-58117593D01*
X65433332Y-58117593D02*
X65399999Y-58150926D01*
X65399999Y-58150926D02*
X65333332Y-58184260D01*
X65333332Y-58184260D02*
X65066665Y-58184260D01*
X65766665Y-58517593D02*
X65766665Y-57817593D01*
X65766665Y-57817593D02*
X65933332Y-57817593D01*
X65933332Y-57817593D02*
X66033332Y-57850926D01*
X66033332Y-57850926D02*
X66099999Y-57917593D01*
X66099999Y-57917593D02*
X66133332Y-57984260D01*
X66133332Y-57984260D02*
X66166665Y-58117593D01*
X66166665Y-58117593D02*
X66166665Y-58217593D01*
X66166665Y-58217593D02*
X66133332Y-58350926D01*
X66133332Y-58350926D02*
X66099999Y-58417593D01*
X66099999Y-58417593D02*
X66033332Y-58484260D01*
X66033332Y-58484260D02*
X65933332Y-58517593D01*
X65933332Y-58517593D02*
X65766665Y-58517593D01*
X65066665Y-51017593D02*
X65066665Y-50317593D01*
X65066665Y-50317593D02*
X65333332Y-50317593D01*
X65333332Y-50317593D02*
X65399999Y-50350926D01*
X65399999Y-50350926D02*
X65433332Y-50384260D01*
X65433332Y-50384260D02*
X65466665Y-50450926D01*
X65466665Y-50450926D02*
X65466665Y-50550926D01*
X65466665Y-50550926D02*
X65433332Y-50617593D01*
X65433332Y-50617593D02*
X65399999Y-50650926D01*
X65399999Y-50650926D02*
X65333332Y-50684260D01*
X65333332Y-50684260D02*
X65066665Y-50684260D01*
X65766665Y-51017593D02*
X65766665Y-50317593D01*
X66166665Y-51017593D02*
X65866665Y-50617593D01*
X66166665Y-50317593D02*
X65766665Y-50717593D01*
X116346666Y-48117593D02*
X116746666Y-48117593D01*
X116546666Y-48817593D02*
X116546666Y-48117593D01*
X116913333Y-48117593D02*
X117379999Y-48817593D01*
X117379999Y-48117593D02*
X116913333Y-48817593D01*
X94766666Y-89075760D02*
X94880952Y-89113855D01*
X94880952Y-89113855D02*
X95071428Y-89113855D01*
X95071428Y-89113855D02*
X95147619Y-89075760D01*
X95147619Y-89075760D02*
X95185714Y-89037664D01*
X95185714Y-89037664D02*
X95223809Y-88961474D01*
X95223809Y-88961474D02*
X95223809Y-88885283D01*
X95223809Y-88885283D02*
X95185714Y-88809093D01*
X95185714Y-88809093D02*
X95147619Y-88770998D01*
X95147619Y-88770998D02*
X95071428Y-88732902D01*
X95071428Y-88732902D02*
X94919047Y-88694807D01*
X94919047Y-88694807D02*
X94842857Y-88656712D01*
X94842857Y-88656712D02*
X94804762Y-88618617D01*
X94804762Y-88618617D02*
X94766666Y-88542426D01*
X94766666Y-88542426D02*
X94766666Y-88466236D01*
X94766666Y-88466236D02*
X94804762Y-88390045D01*
X94804762Y-88390045D02*
X94842857Y-88351950D01*
X94842857Y-88351950D02*
X94919047Y-88313855D01*
X94919047Y-88313855D02*
X95109524Y-88313855D01*
X95109524Y-88313855D02*
X95223809Y-88351950D01*
X95566667Y-88694807D02*
X95833333Y-88694807D01*
X95947619Y-89113855D02*
X95566667Y-89113855D01*
X95566667Y-89113855D02*
X95566667Y-88313855D01*
X95566667Y-88313855D02*
X95947619Y-88313855D01*
X96747620Y-89113855D02*
X96480953Y-88732902D01*
X96290477Y-89113855D02*
X96290477Y-88313855D01*
X96290477Y-88313855D02*
X96595239Y-88313855D01*
X96595239Y-88313855D02*
X96671429Y-88351950D01*
X96671429Y-88351950D02*
X96709524Y-88390045D01*
X96709524Y-88390045D02*
X96747620Y-88466236D01*
X96747620Y-88466236D02*
X96747620Y-88580521D01*
X96747620Y-88580521D02*
X96709524Y-88656712D01*
X96709524Y-88656712D02*
X96671429Y-88694807D01*
X96671429Y-88694807D02*
X96595239Y-88732902D01*
X96595239Y-88732902D02*
X96290477Y-88732902D01*
X96976191Y-88313855D02*
X97242858Y-89113855D01*
X97242858Y-89113855D02*
X97509524Y-88313855D01*
X97928572Y-88313855D02*
X98080953Y-88313855D01*
X98080953Y-88313855D02*
X98157143Y-88351950D01*
X98157143Y-88351950D02*
X98233334Y-88428140D01*
X98233334Y-88428140D02*
X98271429Y-88580521D01*
X98271429Y-88580521D02*
X98271429Y-88847188D01*
X98271429Y-88847188D02*
X98233334Y-88999569D01*
X98233334Y-88999569D02*
X98157143Y-89075760D01*
X98157143Y-89075760D02*
X98080953Y-89113855D01*
X98080953Y-89113855D02*
X97928572Y-89113855D01*
X97928572Y-89113855D02*
X97852381Y-89075760D01*
X97852381Y-89075760D02*
X97776191Y-88999569D01*
X97776191Y-88999569D02*
X97738095Y-88847188D01*
X97738095Y-88847188D02*
X97738095Y-88580521D01*
X97738095Y-88580521D02*
X97776191Y-88428140D01*
X97776191Y-88428140D02*
X97852381Y-88351950D01*
X97852381Y-88351950D02*
X97928572Y-88313855D01*
X99033333Y-89113855D02*
X98576190Y-89113855D01*
X98804762Y-89113855D02*
X98804762Y-88313855D01*
X98804762Y-88313855D02*
X98728571Y-88428140D01*
X98728571Y-88428140D02*
X98652381Y-88504331D01*
X98652381Y-88504331D02*
X98576190Y-88542426D01*
X87906667Y-84350925D02*
X87840000Y-84317592D01*
X87840000Y-84317592D02*
X87740000Y-84317592D01*
X87740000Y-84317592D02*
X87640000Y-84350925D01*
X87640000Y-84350925D02*
X87573334Y-84417592D01*
X87573334Y-84417592D02*
X87540000Y-84484259D01*
X87540000Y-84484259D02*
X87506667Y-84617592D01*
X87506667Y-84617592D02*
X87506667Y-84717592D01*
X87506667Y-84717592D02*
X87540000Y-84850925D01*
X87540000Y-84850925D02*
X87573334Y-84917592D01*
X87573334Y-84917592D02*
X87640000Y-84984259D01*
X87640000Y-84984259D02*
X87740000Y-85017592D01*
X87740000Y-85017592D02*
X87806667Y-85017592D01*
X87806667Y-85017592D02*
X87906667Y-84984259D01*
X87906667Y-84984259D02*
X87940000Y-84950925D01*
X87940000Y-84950925D02*
X87940000Y-84717592D01*
X87940000Y-84717592D02*
X87806667Y-84717592D01*
X88240000Y-85017592D02*
X88240000Y-84317592D01*
X88240000Y-84317592D02*
X88640000Y-85017592D01*
X88640000Y-85017592D02*
X88640000Y-84317592D01*
X88973333Y-85017592D02*
X88973333Y-84317592D01*
X88973333Y-84317592D02*
X89140000Y-84317592D01*
X89140000Y-84317592D02*
X89240000Y-84350925D01*
X89240000Y-84350925D02*
X89306667Y-84417592D01*
X89306667Y-84417592D02*
X89340000Y-84484259D01*
X89340000Y-84484259D02*
X89373333Y-84617592D01*
X89373333Y-84617592D02*
X89373333Y-84717592D01*
X89373333Y-84717592D02*
X89340000Y-84850925D01*
X89340000Y-84850925D02*
X89306667Y-84917592D01*
X89306667Y-84917592D02*
X89240000Y-84984259D01*
X89240000Y-84984259D02*
X89140000Y-85017592D01*
X89140000Y-85017592D02*
X88973333Y-85017592D01*
X83252380Y-88313855D02*
X83442856Y-89113855D01*
X83442856Y-89113855D02*
X83595237Y-88542426D01*
X83595237Y-88542426D02*
X83747618Y-89113855D01*
X83747618Y-89113855D02*
X83938095Y-88313855D01*
X84204761Y-89075760D02*
X84319047Y-89113855D01*
X84319047Y-89113855D02*
X84509523Y-89113855D01*
X84509523Y-89113855D02*
X84585714Y-89075760D01*
X84585714Y-89075760D02*
X84623809Y-89037664D01*
X84623809Y-89037664D02*
X84661904Y-88961474D01*
X84661904Y-88961474D02*
X84661904Y-88885283D01*
X84661904Y-88885283D02*
X84623809Y-88809093D01*
X84623809Y-88809093D02*
X84585714Y-88770998D01*
X84585714Y-88770998D02*
X84509523Y-88732902D01*
X84509523Y-88732902D02*
X84357142Y-88694807D01*
X84357142Y-88694807D02*
X84280952Y-88656712D01*
X84280952Y-88656712D02*
X84242857Y-88618617D01*
X84242857Y-88618617D02*
X84204761Y-88542426D01*
X84204761Y-88542426D02*
X84204761Y-88466236D01*
X84204761Y-88466236D02*
X84242857Y-88390045D01*
X84242857Y-88390045D02*
X84280952Y-88351950D01*
X84280952Y-88351950D02*
X84357142Y-88313855D01*
X84357142Y-88313855D02*
X84547619Y-88313855D01*
X84547619Y-88313855D02*
X84661904Y-88351950D01*
X84966666Y-88390045D02*
X85004762Y-88351950D01*
X85004762Y-88351950D02*
X85080952Y-88313855D01*
X85080952Y-88313855D02*
X85271428Y-88313855D01*
X85271428Y-88313855D02*
X85347619Y-88351950D01*
X85347619Y-88351950D02*
X85385714Y-88390045D01*
X85385714Y-88390045D02*
X85423809Y-88466236D01*
X85423809Y-88466236D02*
X85423809Y-88542426D01*
X85423809Y-88542426D02*
X85385714Y-88656712D01*
X85385714Y-88656712D02*
X84928571Y-89113855D01*
X84928571Y-89113855D02*
X85423809Y-89113855D01*
X85880952Y-88656712D02*
X85804762Y-88618617D01*
X85804762Y-88618617D02*
X85766667Y-88580521D01*
X85766667Y-88580521D02*
X85728571Y-88504331D01*
X85728571Y-88504331D02*
X85728571Y-88466236D01*
X85728571Y-88466236D02*
X85766667Y-88390045D01*
X85766667Y-88390045D02*
X85804762Y-88351950D01*
X85804762Y-88351950D02*
X85880952Y-88313855D01*
X85880952Y-88313855D02*
X86033333Y-88313855D01*
X86033333Y-88313855D02*
X86109524Y-88351950D01*
X86109524Y-88351950D02*
X86147619Y-88390045D01*
X86147619Y-88390045D02*
X86185714Y-88466236D01*
X86185714Y-88466236D02*
X86185714Y-88504331D01*
X86185714Y-88504331D02*
X86147619Y-88580521D01*
X86147619Y-88580521D02*
X86109524Y-88618617D01*
X86109524Y-88618617D02*
X86033333Y-88656712D01*
X86033333Y-88656712D02*
X85880952Y-88656712D01*
X85880952Y-88656712D02*
X85804762Y-88694807D01*
X85804762Y-88694807D02*
X85766667Y-88732902D01*
X85766667Y-88732902D02*
X85728571Y-88809093D01*
X85728571Y-88809093D02*
X85728571Y-88961474D01*
X85728571Y-88961474D02*
X85766667Y-89037664D01*
X85766667Y-89037664D02*
X85804762Y-89075760D01*
X85804762Y-89075760D02*
X85880952Y-89113855D01*
X85880952Y-89113855D02*
X86033333Y-89113855D01*
X86033333Y-89113855D02*
X86109524Y-89075760D01*
X86109524Y-89075760D02*
X86147619Y-89037664D01*
X86147619Y-89037664D02*
X86185714Y-88961474D01*
X86185714Y-88961474D02*
X86185714Y-88809093D01*
X86185714Y-88809093D02*
X86147619Y-88732902D01*
X86147619Y-88732902D02*
X86109524Y-88694807D01*
X86109524Y-88694807D02*
X86033333Y-88656712D01*
X86947619Y-89113855D02*
X86490476Y-89113855D01*
X86719048Y-89113855D02*
X86719048Y-88313855D01*
X86719048Y-88313855D02*
X86642857Y-88428140D01*
X86642857Y-88428140D02*
X86566667Y-88504331D01*
X86566667Y-88504331D02*
X86490476Y-88542426D01*
X87252381Y-88390045D02*
X87290477Y-88351950D01*
X87290477Y-88351950D02*
X87366667Y-88313855D01*
X87366667Y-88313855D02*
X87557143Y-88313855D01*
X87557143Y-88313855D02*
X87633334Y-88351950D01*
X87633334Y-88351950D02*
X87671429Y-88390045D01*
X87671429Y-88390045D02*
X87709524Y-88466236D01*
X87709524Y-88466236D02*
X87709524Y-88542426D01*
X87709524Y-88542426D02*
X87671429Y-88656712D01*
X87671429Y-88656712D02*
X87214286Y-89113855D01*
X87214286Y-89113855D02*
X87709524Y-89113855D01*
X88319048Y-88694807D02*
X88433334Y-88732902D01*
X88433334Y-88732902D02*
X88471429Y-88770998D01*
X88471429Y-88770998D02*
X88509525Y-88847188D01*
X88509525Y-88847188D02*
X88509525Y-88961474D01*
X88509525Y-88961474D02*
X88471429Y-89037664D01*
X88471429Y-89037664D02*
X88433334Y-89075760D01*
X88433334Y-89075760D02*
X88357144Y-89113855D01*
X88357144Y-89113855D02*
X88052382Y-89113855D01*
X88052382Y-89113855D02*
X88052382Y-88313855D01*
X88052382Y-88313855D02*
X88319048Y-88313855D01*
X88319048Y-88313855D02*
X88395239Y-88351950D01*
X88395239Y-88351950D02*
X88433334Y-88390045D01*
X88433334Y-88390045D02*
X88471429Y-88466236D01*
X88471429Y-88466236D02*
X88471429Y-88542426D01*
X88471429Y-88542426D02*
X88433334Y-88618617D01*
X88433334Y-88618617D02*
X88395239Y-88656712D01*
X88395239Y-88656712D02*
X88319048Y-88694807D01*
X88319048Y-88694807D02*
X88052382Y-88694807D01*
X95676667Y-48117593D02*
X96143333Y-48817593D01*
X96143333Y-48117593D02*
X95676667Y-48817593D01*
X96410000Y-48817593D02*
X96410000Y-48117593D01*
X96410000Y-48117593D02*
X96576667Y-48117593D01*
X96576667Y-48117593D02*
X96676667Y-48150926D01*
X96676667Y-48150926D02*
X96743334Y-48217593D01*
X96743334Y-48217593D02*
X96776667Y-48284260D01*
X96776667Y-48284260D02*
X96810000Y-48417593D01*
X96810000Y-48417593D02*
X96810000Y-48517593D01*
X96810000Y-48517593D02*
X96776667Y-48650926D01*
X96776667Y-48650926D02*
X96743334Y-48717593D01*
X96743334Y-48717593D02*
X96676667Y-48784260D01*
X96676667Y-48784260D02*
X96576667Y-48817593D01*
X96576667Y-48817593D02*
X96410000Y-48817593D01*
X97076667Y-48617593D02*
X97410000Y-48617593D01*
X97010000Y-48817593D02*
X97243334Y-48117593D01*
X97243334Y-48117593D02*
X97476667Y-48817593D01*
X124542857Y-61963855D02*
X124276190Y-61582902D01*
X124085714Y-61963855D02*
X124085714Y-61163855D01*
X124085714Y-61163855D02*
X124390476Y-61163855D01*
X124390476Y-61163855D02*
X124466666Y-61201950D01*
X124466666Y-61201950D02*
X124504761Y-61240045D01*
X124504761Y-61240045D02*
X124542857Y-61316236D01*
X124542857Y-61316236D02*
X124542857Y-61430521D01*
X124542857Y-61430521D02*
X124504761Y-61506712D01*
X124504761Y-61506712D02*
X124466666Y-61544807D01*
X124466666Y-61544807D02*
X124390476Y-61582902D01*
X124390476Y-61582902D02*
X124085714Y-61582902D01*
X124885714Y-61544807D02*
X125152380Y-61544807D01*
X125266666Y-61963855D02*
X124885714Y-61963855D01*
X124885714Y-61963855D02*
X124885714Y-61163855D01*
X124885714Y-61163855D02*
X125266666Y-61163855D01*
X125876190Y-61544807D02*
X125609524Y-61544807D01*
X125609524Y-61963855D02*
X125609524Y-61163855D01*
X125609524Y-61163855D02*
X125990476Y-61163855D01*
X68295238Y-80059093D02*
X68904762Y-80059093D01*
X68600000Y-80363855D02*
X68600000Y-79754331D01*
X98233333Y-48117593D02*
X98699999Y-48817593D01*
X98699999Y-48117593D02*
X98233333Y-48817593D01*
X99366666Y-48750926D02*
X99333333Y-48784260D01*
X99333333Y-48784260D02*
X99233333Y-48817593D01*
X99233333Y-48817593D02*
X99166666Y-48817593D01*
X99166666Y-48817593D02*
X99066666Y-48784260D01*
X99066666Y-48784260D02*
X99000000Y-48717593D01*
X99000000Y-48717593D02*
X98966666Y-48650926D01*
X98966666Y-48650926D02*
X98933333Y-48517593D01*
X98933333Y-48517593D02*
X98933333Y-48417593D01*
X98933333Y-48417593D02*
X98966666Y-48284260D01*
X98966666Y-48284260D02*
X99000000Y-48217593D01*
X99000000Y-48217593D02*
X99066666Y-48150926D01*
X99066666Y-48150926D02*
X99166666Y-48117593D01*
X99166666Y-48117593D02*
X99233333Y-48117593D01*
X99233333Y-48117593D02*
X99333333Y-48150926D01*
X99333333Y-48150926D02*
X99366666Y-48184260D01*
X100000000Y-48817593D02*
X99666666Y-48817593D01*
X99666666Y-48817593D02*
X99666666Y-48117593D01*
X103546667Y-48817593D02*
X103546667Y-48117593D01*
X103880000Y-48817593D02*
X103880000Y-48117593D01*
X103880000Y-48117593D02*
X104280000Y-48817593D01*
X104280000Y-48817593D02*
X104280000Y-48117593D01*
X104513333Y-48117593D02*
X104913333Y-48117593D01*
X104713333Y-48817593D02*
X104713333Y-48117593D01*
X117540000Y-84817592D02*
X117873333Y-84817592D01*
X117473333Y-85017592D02*
X117706667Y-84317592D01*
X117706667Y-84317592D02*
X117940000Y-85017592D01*
X118306667Y-84317592D02*
X118373333Y-84317592D01*
X118373333Y-84317592D02*
X118440000Y-84350925D01*
X118440000Y-84350925D02*
X118473333Y-84384259D01*
X118473333Y-84384259D02*
X118506667Y-84450925D01*
X118506667Y-84450925D02*
X118540000Y-84584259D01*
X118540000Y-84584259D02*
X118540000Y-84750925D01*
X118540000Y-84750925D02*
X118506667Y-84884259D01*
X118506667Y-84884259D02*
X118473333Y-84950925D01*
X118473333Y-84950925D02*
X118440000Y-84984259D01*
X118440000Y-84984259D02*
X118373333Y-85017592D01*
X118373333Y-85017592D02*
X118306667Y-85017592D01*
X118306667Y-85017592D02*
X118240000Y-84984259D01*
X118240000Y-84984259D02*
X118206667Y-84950925D01*
X118206667Y-84950925D02*
X118173333Y-84884259D01*
X118173333Y-84884259D02*
X118140000Y-84750925D01*
X118140000Y-84750925D02*
X118140000Y-84584259D01*
X118140000Y-84584259D02*
X118173333Y-84450925D01*
X118173333Y-84450925D02*
X118206667Y-84384259D01*
X118206667Y-84384259D02*
X118240000Y-84350925D01*
X118240000Y-84350925D02*
X118306667Y-84317592D01*
X65283333Y-53184260D02*
X65283333Y-53517593D01*
X65049999Y-52817593D02*
X65283333Y-53184260D01*
X65283333Y-53184260D02*
X65516666Y-52817593D01*
X65749999Y-53150926D02*
X65983333Y-53150926D01*
X66083333Y-53517593D02*
X65749999Y-53517593D01*
X65749999Y-53517593D02*
X65749999Y-52817593D01*
X65749999Y-52817593D02*
X66083333Y-52817593D01*
X111666667Y-48117593D02*
X111333333Y-48117593D01*
X111333333Y-48117593D02*
X111300000Y-48450926D01*
X111300000Y-48450926D02*
X111333333Y-48417593D01*
X111333333Y-48417593D02*
X111400000Y-48384260D01*
X111400000Y-48384260D02*
X111566667Y-48384260D01*
X111566667Y-48384260D02*
X111633333Y-48417593D01*
X111633333Y-48417593D02*
X111666667Y-48450926D01*
X111666667Y-48450926D02*
X111700000Y-48517593D01*
X111700000Y-48517593D02*
X111700000Y-48684260D01*
X111700000Y-48684260D02*
X111666667Y-48750926D01*
X111666667Y-48750926D02*
X111633333Y-48784260D01*
X111633333Y-48784260D02*
X111566667Y-48817593D01*
X111566667Y-48817593D02*
X111400000Y-48817593D01*
X111400000Y-48817593D02*
X111333333Y-48784260D01*
X111333333Y-48784260D02*
X111300000Y-48750926D01*
X111900000Y-48117593D02*
X112133334Y-48817593D01*
X112133334Y-48817593D02*
X112366667Y-48117593D01*
X96633333Y-84750925D02*
X97166667Y-84750925D01*
X96900000Y-85017592D02*
X96900000Y-84484259D01*
X67725760Y-55657143D02*
X67763855Y-55542857D01*
X67763855Y-55542857D02*
X67763855Y-55352381D01*
X67763855Y-55352381D02*
X67725760Y-55276190D01*
X67725760Y-55276190D02*
X67687664Y-55238095D01*
X67687664Y-55238095D02*
X67611474Y-55200000D01*
X67611474Y-55200000D02*
X67535283Y-55200000D01*
X67535283Y-55200000D02*
X67459093Y-55238095D01*
X67459093Y-55238095D02*
X67420998Y-55276190D01*
X67420998Y-55276190D02*
X67382902Y-55352381D01*
X67382902Y-55352381D02*
X67344807Y-55504762D01*
X67344807Y-55504762D02*
X67306712Y-55580952D01*
X67306712Y-55580952D02*
X67268617Y-55619047D01*
X67268617Y-55619047D02*
X67192426Y-55657143D01*
X67192426Y-55657143D02*
X67116236Y-55657143D01*
X67116236Y-55657143D02*
X67040045Y-55619047D01*
X67040045Y-55619047D02*
X67001950Y-55580952D01*
X67001950Y-55580952D02*
X66963855Y-55504762D01*
X66963855Y-55504762D02*
X66963855Y-55314285D01*
X66963855Y-55314285D02*
X67001950Y-55200000D01*
X66963855Y-54971428D02*
X66963855Y-54514285D01*
X67763855Y-54742857D02*
X66963855Y-54742857D01*
X67344807Y-54247618D02*
X67344807Y-53980952D01*
X67763855Y-53866666D02*
X67763855Y-54247618D01*
X67763855Y-54247618D02*
X66963855Y-54247618D01*
X66963855Y-54247618D02*
X66963855Y-53866666D01*
X67763855Y-53523808D02*
X66963855Y-53523808D01*
X66963855Y-53523808D02*
X66963855Y-53219046D01*
X66963855Y-53219046D02*
X67001950Y-53142856D01*
X67001950Y-53142856D02*
X67040045Y-53104761D01*
X67040045Y-53104761D02*
X67116236Y-53066665D01*
X67116236Y-53066665D02*
X67230521Y-53066665D01*
X67230521Y-53066665D02*
X67306712Y-53104761D01*
X67306712Y-53104761D02*
X67344807Y-53142856D01*
X67344807Y-53142856D02*
X67382902Y-53219046D01*
X67382902Y-53219046D02*
X67382902Y-53523808D01*
X67763855Y-52723808D02*
X66963855Y-52723808D01*
X66963855Y-52723808D02*
X66963855Y-52419046D01*
X66963855Y-52419046D02*
X67001950Y-52342856D01*
X67001950Y-52342856D02*
X67040045Y-52304761D01*
X67040045Y-52304761D02*
X67116236Y-52266665D01*
X67116236Y-52266665D02*
X67230521Y-52266665D01*
X67230521Y-52266665D02*
X67306712Y-52304761D01*
X67306712Y-52304761D02*
X67344807Y-52342856D01*
X67344807Y-52342856D02*
X67382902Y-52419046D01*
X67382902Y-52419046D02*
X67382902Y-52723808D01*
X67344807Y-51923808D02*
X67344807Y-51657142D01*
X67763855Y-51542856D02*
X67763855Y-51923808D01*
X67763855Y-51923808D02*
X66963855Y-51923808D01*
X66963855Y-51923808D02*
X66963855Y-51542856D01*
X67763855Y-50742855D02*
X67382902Y-51009522D01*
X67763855Y-51199998D02*
X66963855Y-51199998D01*
X66963855Y-51199998D02*
X66963855Y-50895236D01*
X66963855Y-50895236D02*
X67001950Y-50819046D01*
X67001950Y-50819046D02*
X67040045Y-50780951D01*
X67040045Y-50780951D02*
X67116236Y-50742855D01*
X67116236Y-50742855D02*
X67230521Y-50742855D01*
X67230521Y-50742855D02*
X67306712Y-50780951D01*
X67306712Y-50780951D02*
X67344807Y-50819046D01*
X67344807Y-50819046D02*
X67382902Y-50895236D01*
X67382902Y-50895236D02*
X67382902Y-51199998D01*
X119713333Y-84317592D02*
X120146666Y-84317592D01*
X120146666Y-84317592D02*
X119913333Y-84584259D01*
X119913333Y-84584259D02*
X120013333Y-84584259D01*
X120013333Y-84584259D02*
X120079999Y-84617592D01*
X120079999Y-84617592D02*
X120113333Y-84650925D01*
X120113333Y-84650925D02*
X120146666Y-84717592D01*
X120146666Y-84717592D02*
X120146666Y-84884259D01*
X120146666Y-84884259D02*
X120113333Y-84950925D01*
X120113333Y-84950925D02*
X120079999Y-84984259D01*
X120079999Y-84984259D02*
X120013333Y-85017592D01*
X120013333Y-85017592D02*
X119813333Y-85017592D01*
X119813333Y-85017592D02*
X119746666Y-84984259D01*
X119746666Y-84984259D02*
X119713333Y-84950925D01*
X120346666Y-84317592D02*
X120580000Y-85017592D01*
X120580000Y-85017592D02*
X120813333Y-84317592D01*
X120980000Y-84317592D02*
X121413333Y-84317592D01*
X121413333Y-84317592D02*
X121180000Y-84584259D01*
X121180000Y-84584259D02*
X121280000Y-84584259D01*
X121280000Y-84584259D02*
X121346666Y-84617592D01*
X121346666Y-84617592D02*
X121380000Y-84650925D01*
X121380000Y-84650925D02*
X121413333Y-84717592D01*
X121413333Y-84717592D02*
X121413333Y-84884259D01*
X121413333Y-84884259D02*
X121380000Y-84950925D01*
X121380000Y-84950925D02*
X121346666Y-84984259D01*
X121346666Y-84984259D02*
X121280000Y-85017592D01*
X121280000Y-85017592D02*
X121080000Y-85017592D01*
X121080000Y-85017592D02*
X121013333Y-84984259D01*
X121013333Y-84984259D02*
X120980000Y-84950925D01*
%TO.C,R12*%
X118372936Y-48865000D02*
X118827064Y-48865000D01*
X118372936Y-50335000D02*
X118827064Y-50335000D01*
%TO.C,F1*%
X71613748Y-60290000D02*
X74386252Y-60290000D01*
X71613748Y-63710000D02*
X74386252Y-63710000D01*
%TO.C,C1*%
X62340302Y-85285000D02*
X63140302Y-85285000D01*
X62740302Y-84885000D02*
X62740302Y-85685000D01*
X66750000Y-83520000D02*
X66750000Y-91680000D01*
X66790000Y-83520000D02*
X66790000Y-91680000D01*
X66830000Y-83520000D02*
X66830000Y-91680000D01*
X66870000Y-83521000D02*
X66870000Y-91679000D01*
X66910000Y-83523000D02*
X66910000Y-91677000D01*
X66950000Y-83524000D02*
X66950000Y-91676000D01*
X66990000Y-83526000D02*
X66990000Y-91674000D01*
X67030000Y-83529000D02*
X67030000Y-91671000D01*
X67070000Y-83532000D02*
X67070000Y-91668000D01*
X67110000Y-83535000D02*
X67110000Y-91665000D01*
X67150000Y-83539000D02*
X67150000Y-91661000D01*
X67190000Y-83543000D02*
X67190000Y-91657000D01*
X67230000Y-83548000D02*
X67230000Y-91652000D01*
X67270000Y-83552000D02*
X67270000Y-91648000D01*
X67310000Y-83558000D02*
X67310000Y-91642000D01*
X67350000Y-83563000D02*
X67350000Y-91637000D01*
X67390000Y-83570000D02*
X67390000Y-91630000D01*
X67430000Y-83576000D02*
X67430000Y-91624000D01*
X67471000Y-83583000D02*
X67471000Y-86560000D01*
X67471000Y-88640000D02*
X67471000Y-91617000D01*
X67511000Y-83590000D02*
X67511000Y-86560000D01*
X67511000Y-88640000D02*
X67511000Y-91610000D01*
X67551000Y-83598000D02*
X67551000Y-86560000D01*
X67551000Y-88640000D02*
X67551000Y-91602000D01*
X67591000Y-83606000D02*
X67591000Y-86560000D01*
X67591000Y-88640000D02*
X67591000Y-91594000D01*
X67631000Y-83615000D02*
X67631000Y-86560000D01*
X67631000Y-88640000D02*
X67631000Y-91585000D01*
X67671000Y-83624000D02*
X67671000Y-86560000D01*
X67671000Y-88640000D02*
X67671000Y-91576000D01*
X67711000Y-83633000D02*
X67711000Y-86560000D01*
X67711000Y-88640000D02*
X67711000Y-91567000D01*
X67751000Y-83643000D02*
X67751000Y-86560000D01*
X67751000Y-88640000D02*
X67751000Y-91557000D01*
X67791000Y-83653000D02*
X67791000Y-86560000D01*
X67791000Y-88640000D02*
X67791000Y-91547000D01*
X67831000Y-83664000D02*
X67831000Y-86560000D01*
X67831000Y-88640000D02*
X67831000Y-91536000D01*
X67871000Y-83675000D02*
X67871000Y-86560000D01*
X67871000Y-88640000D02*
X67871000Y-91525000D01*
X67911000Y-83686000D02*
X67911000Y-86560000D01*
X67911000Y-88640000D02*
X67911000Y-91514000D01*
X67951000Y-83698000D02*
X67951000Y-86560000D01*
X67951000Y-88640000D02*
X67951000Y-91502000D01*
X67991000Y-83711000D02*
X67991000Y-86560000D01*
X67991000Y-88640000D02*
X67991000Y-91489000D01*
X68031000Y-83723000D02*
X68031000Y-86560000D01*
X68031000Y-88640000D02*
X68031000Y-91477000D01*
X68071000Y-83737000D02*
X68071000Y-86560000D01*
X68071000Y-88640000D02*
X68071000Y-91463000D01*
X68111000Y-83750000D02*
X68111000Y-86560000D01*
X68111000Y-88640000D02*
X68111000Y-91450000D01*
X68151000Y-83765000D02*
X68151000Y-86560000D01*
X68151000Y-88640000D02*
X68151000Y-91435000D01*
X68191000Y-83779000D02*
X68191000Y-86560000D01*
X68191000Y-88640000D02*
X68191000Y-91421000D01*
X68231000Y-83795000D02*
X68231000Y-86560000D01*
X68231000Y-88640000D02*
X68231000Y-91405000D01*
X68271000Y-83810000D02*
X68271000Y-86560000D01*
X68271000Y-88640000D02*
X68271000Y-91390000D01*
X68311000Y-83826000D02*
X68311000Y-86560000D01*
X68311000Y-88640000D02*
X68311000Y-91374000D01*
X68351000Y-83843000D02*
X68351000Y-86560000D01*
X68351000Y-88640000D02*
X68351000Y-91357000D01*
X68391000Y-83860000D02*
X68391000Y-86560000D01*
X68391000Y-88640000D02*
X68391000Y-91340000D01*
X68431000Y-83878000D02*
X68431000Y-86560000D01*
X68431000Y-88640000D02*
X68431000Y-91322000D01*
X68471000Y-83896000D02*
X68471000Y-86560000D01*
X68471000Y-88640000D02*
X68471000Y-91304000D01*
X68511000Y-83914000D02*
X68511000Y-86560000D01*
X68511000Y-88640000D02*
X68511000Y-91286000D01*
X68551000Y-83934000D02*
X68551000Y-86560000D01*
X68551000Y-88640000D02*
X68551000Y-91266000D01*
X68591000Y-83953000D02*
X68591000Y-86560000D01*
X68591000Y-88640000D02*
X68591000Y-91247000D01*
X68631000Y-83973000D02*
X68631000Y-86560000D01*
X68631000Y-88640000D02*
X68631000Y-91227000D01*
X68671000Y-83994000D02*
X68671000Y-86560000D01*
X68671000Y-88640000D02*
X68671000Y-91206000D01*
X68711000Y-84016000D02*
X68711000Y-86560000D01*
X68711000Y-88640000D02*
X68711000Y-91184000D01*
X68751000Y-84038000D02*
X68751000Y-86560000D01*
X68751000Y-88640000D02*
X68751000Y-91162000D01*
X68791000Y-84060000D02*
X68791000Y-86560000D01*
X68791000Y-88640000D02*
X68791000Y-91140000D01*
X68831000Y-84083000D02*
X68831000Y-86560000D01*
X68831000Y-88640000D02*
X68831000Y-91117000D01*
X68871000Y-84107000D02*
X68871000Y-86560000D01*
X68871000Y-88640000D02*
X68871000Y-91093000D01*
X68911000Y-84131000D02*
X68911000Y-86560000D01*
X68911000Y-88640000D02*
X68911000Y-91069000D01*
X68951000Y-84156000D02*
X68951000Y-86560000D01*
X68951000Y-88640000D02*
X68951000Y-91044000D01*
X68991000Y-84182000D02*
X68991000Y-86560000D01*
X68991000Y-88640000D02*
X68991000Y-91018000D01*
X69031000Y-84208000D02*
X69031000Y-86560000D01*
X69031000Y-88640000D02*
X69031000Y-90992000D01*
X69071000Y-84235000D02*
X69071000Y-86560000D01*
X69071000Y-88640000D02*
X69071000Y-90965000D01*
X69111000Y-84262000D02*
X69111000Y-86560000D01*
X69111000Y-88640000D02*
X69111000Y-90938000D01*
X69151000Y-84291000D02*
X69151000Y-86560000D01*
X69151000Y-88640000D02*
X69151000Y-90909000D01*
X69191000Y-84320000D02*
X69191000Y-86560000D01*
X69191000Y-88640000D02*
X69191000Y-90880000D01*
X69231000Y-84350000D02*
X69231000Y-86560000D01*
X69231000Y-88640000D02*
X69231000Y-90850000D01*
X69271000Y-84380000D02*
X69271000Y-86560000D01*
X69271000Y-88640000D02*
X69271000Y-90820000D01*
X69311000Y-84411000D02*
X69311000Y-86560000D01*
X69311000Y-88640000D02*
X69311000Y-90789000D01*
X69351000Y-84444000D02*
X69351000Y-86560000D01*
X69351000Y-88640000D02*
X69351000Y-90756000D01*
X69391000Y-84476000D02*
X69391000Y-86560000D01*
X69391000Y-88640000D02*
X69391000Y-90724000D01*
X69431000Y-84510000D02*
X69431000Y-86560000D01*
X69431000Y-88640000D02*
X69431000Y-90690000D01*
X69471000Y-84545000D02*
X69471000Y-86560000D01*
X69471000Y-88640000D02*
X69471000Y-90655000D01*
X69511000Y-84581000D02*
X69511000Y-86560000D01*
X69511000Y-88640000D02*
X69511000Y-90619000D01*
X69551000Y-84617000D02*
X69551000Y-90583000D01*
X69591000Y-84655000D02*
X69591000Y-90545000D01*
X69631000Y-84693000D02*
X69631000Y-90507000D01*
X69671000Y-84733000D02*
X69671000Y-90467000D01*
X69711000Y-84774000D02*
X69711000Y-90426000D01*
X69751000Y-84816000D02*
X69751000Y-90384000D01*
X69791000Y-84859000D02*
X69791000Y-90341000D01*
X69831000Y-84903000D02*
X69831000Y-90297000D01*
X69871000Y-84949000D02*
X69871000Y-90251000D01*
X69911000Y-84996000D02*
X69911000Y-90204000D01*
X69951000Y-85044000D02*
X69951000Y-90156000D01*
X69991000Y-85095000D02*
X69991000Y-90105000D01*
X70031000Y-85146000D02*
X70031000Y-90054000D01*
X70071000Y-85200000D02*
X70071000Y-90000000D01*
X70111000Y-85255000D02*
X70111000Y-89945000D01*
X70151000Y-85313000D02*
X70151000Y-89887000D01*
X70191000Y-85372000D02*
X70191000Y-89828000D01*
X70231000Y-85434000D02*
X70231000Y-89766000D01*
X70271000Y-85498000D02*
X70271000Y-89702000D01*
X70311000Y-85566000D02*
X70311000Y-89634000D01*
X70351000Y-85636000D02*
X70351000Y-89564000D01*
X70391000Y-85710000D02*
X70391000Y-89490000D01*
X70431000Y-85787000D02*
X70431000Y-89413000D01*
X70471000Y-85869000D02*
X70471000Y-89331000D01*
X70511000Y-85955000D02*
X70511000Y-89245000D01*
X70551000Y-86048000D02*
X70551000Y-89152000D01*
X70591000Y-86147000D02*
X70591000Y-89053000D01*
X70631000Y-86254000D02*
X70631000Y-88946000D01*
X70671000Y-86371000D02*
X70671000Y-88829000D01*
X70711000Y-86502000D02*
X70711000Y-88698000D01*
X70751000Y-86652000D02*
X70751000Y-88548000D01*
X70791000Y-86832000D02*
X70791000Y-88368000D01*
X70831000Y-87067000D02*
X70831000Y-88133000D01*
X70870000Y-87600000D02*
G75*
G03*
X62630000Y-87600000I-4120000J0D01*
G01*
X62630000Y-87600000D02*
G75*
G03*
X70870000Y-87600000I4120000J0D01*
G01*
%TO.C,J2*%
X109470000Y-92130000D02*
X109470000Y-90800000D01*
X110800000Y-92130000D02*
X109470000Y-92130000D01*
X112070000Y-92130000D02*
X124830000Y-92130000D01*
X112070000Y-92130000D02*
X112070000Y-89470000D01*
X124830000Y-92130000D02*
X124830000Y-89470000D01*
X112070000Y-89470000D02*
X124830000Y-89470000D01*
%TO.C,J1*%
X86610000Y-92130000D02*
X86610000Y-90800000D01*
X87940000Y-92130000D02*
X86610000Y-92130000D01*
X89210000Y-92130000D02*
X107050000Y-92130000D01*
X89210000Y-92130000D02*
X89210000Y-89470000D01*
X107050000Y-92130000D02*
X107050000Y-89470000D01*
X89210000Y-89470000D02*
X107050000Y-89470000D01*
%TO.C,U2*%
X77600000Y-82240000D02*
X76800000Y-82240000D01*
X77600000Y-82240000D02*
X78400000Y-82240000D01*
X77600000Y-85360000D02*
X76800000Y-85360000D01*
X77600000Y-85360000D02*
X78400000Y-85360000D01*
X76300000Y-82290000D02*
X76060000Y-81960000D01*
X76540000Y-81960000D01*
X76300000Y-82290000D01*
G36*
X76300000Y-82290000D02*
G01*
X76060000Y-81960000D01*
X76540000Y-81960000D01*
X76300000Y-82290000D01*
G37*
%TO.C,R13*%
X72665000Y-84827064D02*
X72665000Y-84372936D01*
X74135000Y-84827064D02*
X74135000Y-84372936D01*
%TO.C,J6*%
X66150000Y-45350000D02*
X64900000Y-45350000D01*
X65860000Y-45640000D02*
X59890000Y-45640000D01*
X59890000Y-45640000D02*
X59890000Y-60760000D01*
X65850000Y-45650000D02*
X65100000Y-45650000D01*
X65100000Y-45650000D02*
X65100000Y-47450000D01*
X63600000Y-45650000D02*
X63600000Y-46400000D01*
X63600000Y-46400000D02*
X60650000Y-46400000D01*
X60650000Y-46400000D02*
X60650000Y-53200000D01*
X66150000Y-46600000D02*
X66150000Y-45350000D01*
X65850000Y-47450000D02*
X65850000Y-45650000D01*
X65100000Y-47450000D02*
X65850000Y-47450000D01*
X65850000Y-48950000D02*
X65100000Y-48950000D01*
X65100000Y-48950000D02*
X65100000Y-57450000D01*
X65850000Y-57450000D02*
X65850000Y-48950000D01*
X65100000Y-57450000D02*
X65850000Y-57450000D01*
X65850000Y-58950000D02*
X65100000Y-58950000D01*
X65100000Y-58950000D02*
X65100000Y-60750000D01*
X63600000Y-60000000D02*
X60650000Y-60000000D01*
X60650000Y-60000000D02*
X60650000Y-53200000D01*
X65850000Y-60750000D02*
X65850000Y-58950000D01*
X65100000Y-60750000D02*
X65850000Y-60750000D01*
X63600000Y-60750000D02*
X63600000Y-60000000D01*
X65860000Y-60760000D02*
X65860000Y-45640000D01*
X59890000Y-60760000D02*
X65860000Y-60760000D01*
%TO.C,R11*%
X114772936Y-48865000D02*
X115227064Y-48865000D01*
X114772936Y-50335000D02*
X115227064Y-50335000D01*
%TO.C,C5*%
X108265000Y-46861252D02*
X108265000Y-46338748D01*
X109735000Y-46861252D02*
X109735000Y-46338748D01*
%TO.C,R1*%
X78965000Y-66027064D02*
X78965000Y-65572936D01*
X80435000Y-66027064D02*
X80435000Y-65572936D01*
%TO.C,C3*%
X70738748Y-45665000D02*
X71261252Y-45665000D01*
X70738748Y-47135000D02*
X71261252Y-47135000D01*
%TO.C,R4*%
X124765000Y-78227064D02*
X124765000Y-77772936D01*
X126235000Y-78227064D02*
X126235000Y-77772936D01*
%TO.C,C7*%
X77338748Y-79665000D02*
X77861252Y-79665000D01*
X77338748Y-81135000D02*
X77861252Y-81135000D01*
%TO.C,C4*%
X124765000Y-70661252D02*
X124765000Y-70138748D01*
X126235000Y-70661252D02*
X126235000Y-70138748D01*
%TO.C,J4*%
X102990000Y-41210000D02*
X102990000Y-42540000D01*
X101660000Y-41210000D02*
X102990000Y-41210000D01*
X100390000Y-41210000D02*
X77470000Y-41210000D01*
X100390000Y-41210000D02*
X100390000Y-43870000D01*
X77470000Y-41210000D02*
X77470000Y-43870000D01*
X100390000Y-43870000D02*
X77470000Y-43870000D01*
%TO.C,J10*%
X110470000Y-47930000D02*
X110470000Y-46600000D01*
X111800000Y-47930000D02*
X110470000Y-47930000D01*
X113070000Y-47930000D02*
X120750000Y-47930000D01*
X113070000Y-47930000D02*
X113070000Y-45270000D01*
X120750000Y-47930000D02*
X120750000Y-45270000D01*
X113070000Y-45270000D02*
X120750000Y-45270000D01*
%TO.C,D1*%
X78740000Y-76485000D02*
X80660000Y-76485000D01*
X80660000Y-76485000D02*
X80660000Y-73800000D01*
X78740000Y-73800000D02*
X78740000Y-76485000D01*
%TO.C,R5*%
X122265000Y-74427064D02*
X122265000Y-73972936D01*
X123735000Y-74427064D02*
X123735000Y-73972936D01*
%TO.C,JP1*%
X114170000Y-87930000D02*
X114170000Y-86600000D01*
X115500000Y-87930000D02*
X114170000Y-87930000D01*
X116770000Y-87930000D02*
X121910000Y-87930000D01*
X116770000Y-87930000D02*
X116770000Y-85270000D01*
X121910000Y-87930000D02*
X121910000Y-85270000D01*
X116770000Y-85270000D02*
X121910000Y-85270000D01*
%TO.C,R2*%
X78965000Y-70827064D02*
X78965000Y-70372936D01*
X80435000Y-70827064D02*
X80435000Y-70372936D01*
%TO.C,C6*%
X106265000Y-46861252D02*
X106265000Y-46338748D01*
X107735000Y-46861252D02*
X107735000Y-46338748D01*
%TO.C,R14*%
X79565000Y-87827064D02*
X79565000Y-87372936D01*
X81035000Y-87827064D02*
X81035000Y-87372936D01*
%TO.C,Q1*%
X76600000Y-64240000D02*
X75950000Y-64240000D01*
X76600000Y-64240000D02*
X77250000Y-64240000D01*
X76600000Y-67360000D02*
X75950000Y-67360000D01*
X76600000Y-67360000D02*
X77250000Y-67360000D01*
X75437500Y-64290000D02*
X75197500Y-63960000D01*
X75677500Y-63960000D01*
X75437500Y-64290000D01*
G36*
X75437500Y-64290000D02*
G01*
X75197500Y-63960000D01*
X75677500Y-63960000D01*
X75437500Y-64290000D01*
G37*
%TO.C,J11*%
X87670000Y-47930000D02*
X105510000Y-47930000D01*
X87670000Y-47930000D02*
X87670000Y-45270000D01*
X105510000Y-47930000D02*
X105510000Y-45270000D01*
X85070000Y-46600000D02*
X85070000Y-45270000D01*
X85070000Y-45270000D02*
X86400000Y-45270000D01*
X87670000Y-45270000D02*
X105510000Y-45270000D01*
%TO.C,R7*%
X90665000Y-86827064D02*
X90665000Y-86372936D01*
X92135000Y-86827064D02*
X92135000Y-86372936D01*
%TO.C,R3*%
X122265000Y-78227064D02*
X122265000Y-77772936D01*
X123735000Y-78227064D02*
X123735000Y-77772936D01*
%TO.C,J5*%
X68560000Y-82840000D02*
X69300000Y-82840000D01*
X69300000Y-82840000D02*
X69300000Y-82340000D01*
X59139000Y-82600000D02*
X69060000Y-82600000D01*
X59139000Y-82600000D02*
X59139000Y-72320000D01*
X62099000Y-82600000D02*
X62099000Y-72320000D01*
X67000000Y-82600000D02*
X67000000Y-72320000D01*
X68500000Y-82600000D02*
X68500000Y-72320000D01*
X69060000Y-82600000D02*
X69060000Y-72320000D01*
X65423000Y-76147000D02*
X65469000Y-76194000D01*
X65639000Y-75954000D02*
X65674000Y-75989000D01*
X63125000Y-73850000D02*
X63161000Y-73885000D01*
X63331000Y-73645000D02*
X63377000Y-73692000D01*
X59139000Y-72320000D02*
X69060000Y-72320000D01*
X63716001Y-81534999D02*
G75*
G03*
X65083042Y-81535426I684000J1534992D01*
G01*
X62865001Y-79316001D02*
G75*
G03*
X62864574Y-80683042I1534992J-684000D01*
G01*
X65934999Y-80684000D02*
G75*
G03*
X66080252Y-79971195I-1535000J683999D01*
G01*
X66079999Y-80000000D02*
G75*
G03*
X65934755Y-79316682I-1679999J0D01*
G01*
X65084000Y-78465000D02*
G75*
G03*
X63716958Y-78464574I-684000J-1535000D01*
G01*
X66080000Y-74920000D02*
G75*
G03*
X62720000Y-74920000I-1680000J0D01*
G01*
X62720000Y-74920000D02*
G75*
G03*
X66080000Y-74920000I1680000J0D01*
G01*
%TO.C,J3*%
X124830000Y-41210000D02*
X124830000Y-42540000D01*
X123500000Y-41210000D02*
X124830000Y-41210000D01*
X122230000Y-41210000D02*
X104390000Y-41210000D01*
X122230000Y-41210000D02*
X122230000Y-43870000D01*
X104390000Y-41210000D02*
X104390000Y-43870000D01*
X122230000Y-43870000D02*
X104390000Y-43870000D01*
%TO.C,R6*%
X124765000Y-74427064D02*
X124765000Y-73972936D01*
X126235000Y-74427064D02*
X126235000Y-73972936D01*
%TO.C,JP2*%
X72000000Y-77500000D02*
X72000000Y-76900000D01*
X72700000Y-76200000D02*
X74100000Y-76200000D01*
X74100000Y-78200000D02*
X72700000Y-78200000D01*
X74800000Y-76900000D02*
X74800000Y-77500000D01*
X72700000Y-76200000D02*
G75*
G03*
X72000000Y-76900000I-1J-699999D01*
G01*
X72000000Y-77500000D02*
G75*
G03*
X72700000Y-78200000I699999J-1D01*
G01*
X74800000Y-76900000D02*
G75*
G03*
X74100000Y-76200000I-700000J0D01*
G01*
X74100000Y-78200000D02*
G75*
G03*
X74800000Y-77500000I0J700000D01*
G01*
%TO.C,R8*%
X101665000Y-86827064D02*
X101665000Y-86372936D01*
X103135000Y-86827064D02*
X103135000Y-86372936D01*
%TO.C,C2*%
X71065000Y-66661252D02*
X71065000Y-66138748D01*
X72535000Y-66661252D02*
X72535000Y-66138748D01*
%TO.C,J8*%
X104030000Y-87930000D02*
X104030000Y-86600000D01*
X105360000Y-87930000D02*
X104030000Y-87930000D01*
X106630000Y-87930000D02*
X111770000Y-87930000D01*
X106630000Y-87930000D02*
X106630000Y-85270000D01*
X111770000Y-87930000D02*
X111770000Y-85270000D01*
X106630000Y-85270000D02*
X111770000Y-85270000D01*
%TO.C,U1*%
X72400000Y-58460000D02*
X74350000Y-58460000D01*
X72400000Y-58460000D02*
X70450000Y-58460000D01*
X72400000Y-48340000D02*
X74350000Y-48340000D01*
X72400000Y-48340000D02*
X70450000Y-48340000D01*
X75340000Y-58735000D02*
X74860000Y-58735000D01*
X75100000Y-58405000D01*
X75340000Y-58735000D01*
G36*
X75340000Y-58735000D02*
G01*
X74860000Y-58735000D01*
X75100000Y-58405000D01*
X75340000Y-58735000D01*
G37*
%TO.C,R10*%
X122265000Y-70627064D02*
X122265000Y-70172936D01*
X123735000Y-70627064D02*
X123735000Y-70172936D01*
%TO.C,J9*%
X123670000Y-62270000D02*
X125000000Y-62270000D01*
X123670000Y-63600000D02*
X123670000Y-62270000D01*
X123670000Y-64870000D02*
X123670000Y-67470000D01*
X123670000Y-64870000D02*
X126330000Y-64870000D01*
X123670000Y-67470000D02*
X126330000Y-67470000D01*
X126330000Y-64870000D02*
X126330000Y-67470000D01*
%TO.C,J12*%
X82030000Y-87930000D02*
X82030000Y-86600000D01*
X83360000Y-87930000D02*
X82030000Y-87930000D01*
X84630000Y-87930000D02*
X89770000Y-87930000D01*
X84630000Y-87930000D02*
X84630000Y-85270000D01*
X89770000Y-87930000D02*
X89770000Y-85270000D01*
X84630000Y-85270000D02*
X89770000Y-85270000D01*
%TO.C,D2*%
X124600000Y-80340000D02*
X123950000Y-80340000D01*
X124600000Y-80340000D02*
X125250000Y-80340000D01*
X124600000Y-83460000D02*
X123950000Y-83460000D01*
X124600000Y-83460000D02*
X125250000Y-83460000D01*
X123437500Y-80390000D02*
X123197500Y-80060000D01*
X123677500Y-80060000D01*
X123437500Y-80390000D01*
G36*
X123437500Y-80390000D02*
G01*
X123197500Y-80060000D01*
X123677500Y-80060000D01*
X123437500Y-80390000D01*
G37*
%TO.C,J7*%
X93030000Y-87930000D02*
X93030000Y-86600000D01*
X94360000Y-87930000D02*
X93030000Y-87930000D01*
X95630000Y-87930000D02*
X100770000Y-87930000D01*
X95630000Y-87930000D02*
X95630000Y-85270000D01*
X100770000Y-87930000D02*
X100770000Y-85270000D01*
X95630000Y-85270000D02*
X100770000Y-85270000D01*
%TD*%
M02*
