%TF.GenerationSoftware,KiCad,Pcbnew,7.0.11+dfsg-1build4*%
%TF.CreationDate,2026-10-02T09:29:19+00:00*%
%TF.ProjectId,watchmen-shield,77617463-686d-4656-9e2d-736869656c64,rev?*%
%TF.SameCoordinates,Original*%
%TF.FileFunction,Legend,Bot*%
%TF.FilePolarity,Positive*%
%FSLAX46Y46*%
G04 Gerber Fmt 4.6, Leading zero omitted, Abs format (unit mm)*
G04 Created by KiCad (PCBNEW 7.0.11+dfsg-1build4) date 2026-10-02 09:29:19*
%MOMM*%
%LPD*%
G01*
G04 APERTURE LIST*
%ADD10C,0.120000*%
%ADD11C,0.150000*%
G04 APERTURE END LIST*
D10*
X94890000Y-44757593D02*
X94890000Y-44057593D01*
X94890000Y-44057593D02*
X94723333Y-44057593D01*
X94723333Y-44057593D02*
X94623333Y-44090926D01*
X94623333Y-44090926D02*
X94556667Y-44157593D01*
X94556667Y-44157593D02*
X94523333Y-44224260D01*
X94523333Y-44224260D02*
X94490000Y-44357593D01*
X94490000Y-44357593D02*
X94490000Y-44457593D01*
X94490000Y-44457593D02*
X94523333Y-44590926D01*
X94523333Y-44590926D02*
X94556667Y-44657593D01*
X94556667Y-44657593D02*
X94623333Y-44724260D01*
X94623333Y-44724260D02*
X94723333Y-44757593D01*
X94723333Y-44757593D02*
X94890000Y-44757593D01*
X93823333Y-44757593D02*
X94223333Y-44757593D01*
X94023333Y-44757593D02*
X94023333Y-44057593D01*
X94023333Y-44057593D02*
X94090000Y-44157593D01*
X94090000Y-44157593D02*
X94156667Y-44224260D01*
X94156667Y-44224260D02*
X94223333Y-44257593D01*
X93156666Y-44757593D02*
X93556666Y-44757593D01*
X93356666Y-44757593D02*
X93356666Y-44057593D01*
X93356666Y-44057593D02*
X93423333Y-44157593D01*
X93423333Y-44157593D02*
X93490000Y-44224260D01*
X93490000Y-44224260D02*
X93556666Y-44257593D01*
X118919999Y-89017593D02*
X118586666Y-89017593D01*
X118986666Y-89217593D02*
X118753333Y-88517593D01*
X118753333Y-88517593D02*
X118519999Y-89217593D01*
X118353333Y-88517593D02*
X117919999Y-88517593D01*
X117919999Y-88517593D02*
X118153333Y-88784260D01*
X118153333Y-88784260D02*
X118053333Y-88784260D01*
X118053333Y-88784260D02*
X117986666Y-88817593D01*
X117986666Y-88817593D02*
X117953333Y-88850926D01*
X117953333Y-88850926D02*
X117919999Y-88917593D01*
X117919999Y-88917593D02*
X117919999Y-89084260D01*
X117919999Y-89084260D02*
X117953333Y-89150926D01*
X117953333Y-89150926D02*
X117986666Y-89184260D01*
X117986666Y-89184260D02*
X118053333Y-89217593D01*
X118053333Y-89217593D02*
X118253333Y-89217593D01*
X118253333Y-89217593D02*
X118319999Y-89184260D01*
X118319999Y-89184260D02*
X118353333Y-89150926D01*
X97430000Y-44757593D02*
X97430000Y-44057593D01*
X97430000Y-44057593D02*
X97263333Y-44057593D01*
X97263333Y-44057593D02*
X97163333Y-44090926D01*
X97163333Y-44090926D02*
X97096667Y-44157593D01*
X97096667Y-44157593D02*
X97063333Y-44224260D01*
X97063333Y-44224260D02*
X97030000Y-44357593D01*
X97030000Y-44357593D02*
X97030000Y-44457593D01*
X97030000Y-44457593D02*
X97063333Y-44590926D01*
X97063333Y-44590926D02*
X97096667Y-44657593D01*
X97096667Y-44657593D02*
X97163333Y-44724260D01*
X97163333Y-44724260D02*
X97263333Y-44757593D01*
X97263333Y-44757593D02*
X97430000Y-44757593D01*
X96363333Y-44757593D02*
X96763333Y-44757593D01*
X96563333Y-44757593D02*
X96563333Y-44057593D01*
X96563333Y-44057593D02*
X96630000Y-44157593D01*
X96630000Y-44157593D02*
X96696667Y-44224260D01*
X96696667Y-44224260D02*
X96763333Y-44257593D01*
X95930000Y-44057593D02*
X95863333Y-44057593D01*
X95863333Y-44057593D02*
X95796666Y-44090926D01*
X95796666Y-44090926D02*
X95763333Y-44124260D01*
X95763333Y-44124260D02*
X95730000Y-44190926D01*
X95730000Y-44190926D02*
X95696666Y-44324260D01*
X95696666Y-44324260D02*
X95696666Y-44490926D01*
X95696666Y-44490926D02*
X95730000Y-44624260D01*
X95730000Y-44624260D02*
X95763333Y-44690926D01*
X95763333Y-44690926D02*
X95796666Y-44724260D01*
X95796666Y-44724260D02*
X95863333Y-44757593D01*
X95863333Y-44757593D02*
X95930000Y-44757593D01*
X95930000Y-44757593D02*
X95996666Y-44724260D01*
X95996666Y-44724260D02*
X96030000Y-44690926D01*
X96030000Y-44690926D02*
X96063333Y-44624260D01*
X96063333Y-44624260D02*
X96096666Y-44490926D01*
X96096666Y-44490926D02*
X96096666Y-44324260D01*
X96096666Y-44324260D02*
X96063333Y-44190926D01*
X96063333Y-44190926D02*
X96030000Y-44124260D01*
X96030000Y-44124260D02*
X95996666Y-44090926D01*
X95996666Y-44090926D02*
X95930000Y-44057593D01*
X113839999Y-89017593D02*
X113506666Y-89017593D01*
X113906666Y-89217593D02*
X113673333Y-88517593D01*
X113673333Y-88517593D02*
X113439999Y-89217593D01*
X112839999Y-89217593D02*
X113239999Y-89217593D01*
X113039999Y-89217593D02*
X113039999Y-88517593D01*
X113039999Y-88517593D02*
X113106666Y-88617593D01*
X113106666Y-88617593D02*
X113173333Y-88684260D01*
X113173333Y-88684260D02*
X113239999Y-88717593D01*
X82189999Y-44724260D02*
X82089999Y-44757593D01*
X82089999Y-44757593D02*
X81923333Y-44757593D01*
X81923333Y-44757593D02*
X81856666Y-44724260D01*
X81856666Y-44724260D02*
X81823333Y-44690926D01*
X81823333Y-44690926D02*
X81789999Y-44624260D01*
X81789999Y-44624260D02*
X81789999Y-44557593D01*
X81789999Y-44557593D02*
X81823333Y-44490926D01*
X81823333Y-44490926D02*
X81856666Y-44457593D01*
X81856666Y-44457593D02*
X81923333Y-44424260D01*
X81923333Y-44424260D02*
X82056666Y-44390926D01*
X82056666Y-44390926D02*
X82123333Y-44357593D01*
X82123333Y-44357593D02*
X82156666Y-44324260D01*
X82156666Y-44324260D02*
X82189999Y-44257593D01*
X82189999Y-44257593D02*
X82189999Y-44190926D01*
X82189999Y-44190926D02*
X82156666Y-44124260D01*
X82156666Y-44124260D02*
X82123333Y-44090926D01*
X82123333Y-44090926D02*
X82056666Y-44057593D01*
X82056666Y-44057593D02*
X81889999Y-44057593D01*
X81889999Y-44057593D02*
X81789999Y-44090926D01*
X81489999Y-44757593D02*
X81489999Y-44057593D01*
X81489999Y-44057593D02*
X81323332Y-44057593D01*
X81323332Y-44057593D02*
X81223332Y-44090926D01*
X81223332Y-44090926D02*
X81156666Y-44157593D01*
X81156666Y-44157593D02*
X81123332Y-44224260D01*
X81123332Y-44224260D02*
X81089999Y-44357593D01*
X81089999Y-44357593D02*
X81089999Y-44457593D01*
X81089999Y-44457593D02*
X81123332Y-44590926D01*
X81123332Y-44590926D02*
X81156666Y-44657593D01*
X81156666Y-44657593D02*
X81223332Y-44724260D01*
X81223332Y-44724260D02*
X81323332Y-44757593D01*
X81323332Y-44757593D02*
X81489999Y-44757593D01*
X80823332Y-44557593D02*
X80489999Y-44557593D01*
X80889999Y-44757593D02*
X80656666Y-44057593D01*
X80656666Y-44057593D02*
X80423332Y-44757593D01*
X99636666Y-44757593D02*
X99636666Y-44057593D01*
X99636666Y-44057593D02*
X99469999Y-44057593D01*
X99469999Y-44057593D02*
X99369999Y-44090926D01*
X99369999Y-44090926D02*
X99303333Y-44157593D01*
X99303333Y-44157593D02*
X99269999Y-44224260D01*
X99269999Y-44224260D02*
X99236666Y-44357593D01*
X99236666Y-44357593D02*
X99236666Y-44457593D01*
X99236666Y-44457593D02*
X99269999Y-44590926D01*
X99269999Y-44590926D02*
X99303333Y-44657593D01*
X99303333Y-44657593D02*
X99369999Y-44724260D01*
X99369999Y-44724260D02*
X99469999Y-44757593D01*
X99469999Y-44757593D02*
X99636666Y-44757593D01*
X98903333Y-44757593D02*
X98769999Y-44757593D01*
X98769999Y-44757593D02*
X98703333Y-44724260D01*
X98703333Y-44724260D02*
X98669999Y-44690926D01*
X98669999Y-44690926D02*
X98603333Y-44590926D01*
X98603333Y-44590926D02*
X98569999Y-44457593D01*
X98569999Y-44457593D02*
X98569999Y-44190926D01*
X98569999Y-44190926D02*
X98603333Y-44124260D01*
X98603333Y-44124260D02*
X98636666Y-44090926D01*
X98636666Y-44090926D02*
X98703333Y-44057593D01*
X98703333Y-44057593D02*
X98836666Y-44057593D01*
X98836666Y-44057593D02*
X98903333Y-44090926D01*
X98903333Y-44090926D02*
X98936666Y-44124260D01*
X98936666Y-44124260D02*
X98969999Y-44190926D01*
X98969999Y-44190926D02*
X98969999Y-44357593D01*
X98969999Y-44357593D02*
X98936666Y-44424260D01*
X98936666Y-44424260D02*
X98903333Y-44457593D01*
X98903333Y-44457593D02*
X98836666Y-44490926D01*
X98836666Y-44490926D02*
X98703333Y-44490926D01*
X98703333Y-44490926D02*
X98636666Y-44457593D01*
X98636666Y-44457593D02*
X98603333Y-44424260D01*
X98603333Y-44424260D02*
X98569999Y-44357593D01*
X101173332Y-88550926D02*
X101239999Y-88517593D01*
X101239999Y-88517593D02*
X101339999Y-88517593D01*
X101339999Y-88517593D02*
X101439999Y-88550926D01*
X101439999Y-88550926D02*
X101506666Y-88617593D01*
X101506666Y-88617593D02*
X101539999Y-88684260D01*
X101539999Y-88684260D02*
X101573332Y-88817593D01*
X101573332Y-88817593D02*
X101573332Y-88917593D01*
X101573332Y-88917593D02*
X101539999Y-89050926D01*
X101539999Y-89050926D02*
X101506666Y-89117593D01*
X101506666Y-89117593D02*
X101439999Y-89184260D01*
X101439999Y-89184260D02*
X101339999Y-89217593D01*
X101339999Y-89217593D02*
X101273332Y-89217593D01*
X101273332Y-89217593D02*
X101173332Y-89184260D01*
X101173332Y-89184260D02*
X101139999Y-89150926D01*
X101139999Y-89150926D02*
X101139999Y-88917593D01*
X101139999Y-88917593D02*
X101273332Y-88917593D01*
X100839999Y-89217593D02*
X100839999Y-88517593D01*
X100839999Y-88517593D02*
X100439999Y-89217593D01*
X100439999Y-89217593D02*
X100439999Y-88517593D01*
X100106666Y-89217593D02*
X100106666Y-88517593D01*
X100106666Y-88517593D02*
X99939999Y-88517593D01*
X99939999Y-88517593D02*
X99839999Y-88550926D01*
X99839999Y-88550926D02*
X99773333Y-88617593D01*
X99773333Y-88617593D02*
X99739999Y-88684260D01*
X99739999Y-88684260D02*
X99706666Y-88817593D01*
X99706666Y-88817593D02*
X99706666Y-88917593D01*
X99706666Y-88917593D02*
X99739999Y-89050926D01*
X99739999Y-89050926D02*
X99773333Y-89117593D01*
X99773333Y-89117593D02*
X99839999Y-89184260D01*
X99839999Y-89184260D02*
X99939999Y-89217593D01*
X99939999Y-89217593D02*
X100106666Y-89217593D01*
X118936666Y-44757593D02*
X118936666Y-44057593D01*
X118936666Y-44057593D02*
X118769999Y-44057593D01*
X118769999Y-44057593D02*
X118669999Y-44090926D01*
X118669999Y-44090926D02*
X118603333Y-44157593D01*
X118603333Y-44157593D02*
X118569999Y-44224260D01*
X118569999Y-44224260D02*
X118536666Y-44357593D01*
X118536666Y-44357593D02*
X118536666Y-44457593D01*
X118536666Y-44457593D02*
X118569999Y-44590926D01*
X118569999Y-44590926D02*
X118603333Y-44657593D01*
X118603333Y-44657593D02*
X118669999Y-44724260D01*
X118669999Y-44724260D02*
X118769999Y-44757593D01*
X118769999Y-44757593D02*
X118936666Y-44757593D01*
X118269999Y-44124260D02*
X118236666Y-44090926D01*
X118236666Y-44090926D02*
X118169999Y-44057593D01*
X118169999Y-44057593D02*
X118003333Y-44057593D01*
X118003333Y-44057593D02*
X117936666Y-44090926D01*
X117936666Y-44090926D02*
X117903333Y-44124260D01*
X117903333Y-44124260D02*
X117869999Y-44190926D01*
X117869999Y-44190926D02*
X117869999Y-44257593D01*
X117869999Y-44257593D02*
X117903333Y-44357593D01*
X117903333Y-44357593D02*
X118303333Y-44757593D01*
X118303333Y-44757593D02*
X117869999Y-44757593D01*
X116396666Y-44757593D02*
X116396666Y-44057593D01*
X116396666Y-44057593D02*
X116229999Y-44057593D01*
X116229999Y-44057593D02*
X116129999Y-44090926D01*
X116129999Y-44090926D02*
X116063333Y-44157593D01*
X116063333Y-44157593D02*
X116029999Y-44224260D01*
X116029999Y-44224260D02*
X115996666Y-44357593D01*
X115996666Y-44357593D02*
X115996666Y-44457593D01*
X115996666Y-44457593D02*
X116029999Y-44590926D01*
X116029999Y-44590926D02*
X116063333Y-44657593D01*
X116063333Y-44657593D02*
X116129999Y-44724260D01*
X116129999Y-44724260D02*
X116229999Y-44757593D01*
X116229999Y-44757593D02*
X116396666Y-44757593D01*
X115763333Y-44057593D02*
X115329999Y-44057593D01*
X115329999Y-44057593D02*
X115563333Y-44324260D01*
X115563333Y-44324260D02*
X115463333Y-44324260D01*
X115463333Y-44324260D02*
X115396666Y-44357593D01*
X115396666Y-44357593D02*
X115363333Y-44390926D01*
X115363333Y-44390926D02*
X115329999Y-44457593D01*
X115329999Y-44457593D02*
X115329999Y-44624260D01*
X115329999Y-44624260D02*
X115363333Y-44690926D01*
X115363333Y-44690926D02*
X115396666Y-44724260D01*
X115396666Y-44724260D02*
X115463333Y-44757593D01*
X115463333Y-44757593D02*
X115663333Y-44757593D01*
X115663333Y-44757593D02*
X115729999Y-44724260D01*
X115729999Y-44724260D02*
X115763333Y-44690926D01*
X86953332Y-44090926D02*
X87019999Y-44057593D01*
X87019999Y-44057593D02*
X87119999Y-44057593D01*
X87119999Y-44057593D02*
X87219999Y-44090926D01*
X87219999Y-44090926D02*
X87286666Y-44157593D01*
X87286666Y-44157593D02*
X87319999Y-44224260D01*
X87319999Y-44224260D02*
X87353332Y-44357593D01*
X87353332Y-44357593D02*
X87353332Y-44457593D01*
X87353332Y-44457593D02*
X87319999Y-44590926D01*
X87319999Y-44590926D02*
X87286666Y-44657593D01*
X87286666Y-44657593D02*
X87219999Y-44724260D01*
X87219999Y-44724260D02*
X87119999Y-44757593D01*
X87119999Y-44757593D02*
X87053332Y-44757593D01*
X87053332Y-44757593D02*
X86953332Y-44724260D01*
X86953332Y-44724260D02*
X86919999Y-44690926D01*
X86919999Y-44690926D02*
X86919999Y-44457593D01*
X86919999Y-44457593D02*
X87053332Y-44457593D01*
X86619999Y-44757593D02*
X86619999Y-44057593D01*
X86619999Y-44057593D02*
X86219999Y-44757593D01*
X86219999Y-44757593D02*
X86219999Y-44057593D01*
X85886666Y-44757593D02*
X85886666Y-44057593D01*
X85886666Y-44057593D02*
X85719999Y-44057593D01*
X85719999Y-44057593D02*
X85619999Y-44090926D01*
X85619999Y-44090926D02*
X85553333Y-44157593D01*
X85553333Y-44157593D02*
X85519999Y-44224260D01*
X85519999Y-44224260D02*
X85486666Y-44357593D01*
X85486666Y-44357593D02*
X85486666Y-44457593D01*
X85486666Y-44457593D02*
X85519999Y-44590926D01*
X85519999Y-44590926D02*
X85553333Y-44657593D01*
X85553333Y-44657593D02*
X85619999Y-44724260D01*
X85619999Y-44724260D02*
X85719999Y-44757593D01*
X85719999Y-44757593D02*
X85886666Y-44757593D01*
X84696666Y-44557593D02*
X84363333Y-44557593D01*
X84763333Y-44757593D02*
X84530000Y-44057593D01*
X84530000Y-44057593D02*
X84296666Y-44757593D01*
X83663333Y-44757593D02*
X83896666Y-44424260D01*
X84063333Y-44757593D02*
X84063333Y-44057593D01*
X84063333Y-44057593D02*
X83796666Y-44057593D01*
X83796666Y-44057593D02*
X83730000Y-44090926D01*
X83730000Y-44090926D02*
X83696666Y-44124260D01*
X83696666Y-44124260D02*
X83663333Y-44190926D01*
X83663333Y-44190926D02*
X83663333Y-44290926D01*
X83663333Y-44290926D02*
X83696666Y-44357593D01*
X83696666Y-44357593D02*
X83730000Y-44390926D01*
X83730000Y-44390926D02*
X83796666Y-44424260D01*
X83796666Y-44424260D02*
X84063333Y-44424260D01*
X83130000Y-44390926D02*
X83363333Y-44390926D01*
X83363333Y-44757593D02*
X83363333Y-44057593D01*
X83363333Y-44057593D02*
X83030000Y-44057593D01*
X113856666Y-44757593D02*
X113856666Y-44057593D01*
X113856666Y-44057593D02*
X113689999Y-44057593D01*
X113689999Y-44057593D02*
X113589999Y-44090926D01*
X113589999Y-44090926D02*
X113523333Y-44157593D01*
X113523333Y-44157593D02*
X113489999Y-44224260D01*
X113489999Y-44224260D02*
X113456666Y-44357593D01*
X113456666Y-44357593D02*
X113456666Y-44457593D01*
X113456666Y-44457593D02*
X113489999Y-44590926D01*
X113489999Y-44590926D02*
X113523333Y-44657593D01*
X113523333Y-44657593D02*
X113589999Y-44724260D01*
X113589999Y-44724260D02*
X113689999Y-44757593D01*
X113689999Y-44757593D02*
X113856666Y-44757593D01*
X112856666Y-44290926D02*
X112856666Y-44757593D01*
X113023333Y-44024260D02*
X113189999Y-44524260D01*
X113189999Y-44524260D02*
X112756666Y-44524260D01*
X108776666Y-44757593D02*
X108776666Y-44057593D01*
X108776666Y-44057593D02*
X108609999Y-44057593D01*
X108609999Y-44057593D02*
X108509999Y-44090926D01*
X108509999Y-44090926D02*
X108443333Y-44157593D01*
X108443333Y-44157593D02*
X108409999Y-44224260D01*
X108409999Y-44224260D02*
X108376666Y-44357593D01*
X108376666Y-44357593D02*
X108376666Y-44457593D01*
X108376666Y-44457593D02*
X108409999Y-44590926D01*
X108409999Y-44590926D02*
X108443333Y-44657593D01*
X108443333Y-44657593D02*
X108509999Y-44724260D01*
X108509999Y-44724260D02*
X108609999Y-44757593D01*
X108609999Y-44757593D02*
X108776666Y-44757593D01*
X107776666Y-44057593D02*
X107909999Y-44057593D01*
X107909999Y-44057593D02*
X107976666Y-44090926D01*
X107976666Y-44090926D02*
X108009999Y-44124260D01*
X108009999Y-44124260D02*
X108076666Y-44224260D01*
X108076666Y-44224260D02*
X108109999Y-44357593D01*
X108109999Y-44357593D02*
X108109999Y-44624260D01*
X108109999Y-44624260D02*
X108076666Y-44690926D01*
X108076666Y-44690926D02*
X108043333Y-44724260D01*
X108043333Y-44724260D02*
X107976666Y-44757593D01*
X107976666Y-44757593D02*
X107843333Y-44757593D01*
X107843333Y-44757593D02*
X107776666Y-44724260D01*
X107776666Y-44724260D02*
X107743333Y-44690926D01*
X107743333Y-44690926D02*
X107709999Y-44624260D01*
X107709999Y-44624260D02*
X107709999Y-44457593D01*
X107709999Y-44457593D02*
X107743333Y-44390926D01*
X107743333Y-44390926D02*
X107776666Y-44357593D01*
X107776666Y-44357593D02*
X107843333Y-44324260D01*
X107843333Y-44324260D02*
X107976666Y-44324260D01*
X107976666Y-44324260D02*
X108043333Y-44357593D01*
X108043333Y-44357593D02*
X108076666Y-44390926D01*
X108076666Y-44390926D02*
X108109999Y-44457593D01*
X123999999Y-89017593D02*
X123666666Y-89017593D01*
X124066666Y-89217593D02*
X123833333Y-88517593D01*
X123833333Y-88517593D02*
X123599999Y-89217593D01*
X123033333Y-88517593D02*
X123366666Y-88517593D01*
X123366666Y-88517593D02*
X123399999Y-88850926D01*
X123399999Y-88850926D02*
X123366666Y-88817593D01*
X123366666Y-88817593D02*
X123299999Y-88784260D01*
X123299999Y-88784260D02*
X123133333Y-88784260D01*
X123133333Y-88784260D02*
X123066666Y-88817593D01*
X123066666Y-88817593D02*
X123033333Y-88850926D01*
X123033333Y-88850926D02*
X122999999Y-88917593D01*
X122999999Y-88917593D02*
X122999999Y-89084260D01*
X122999999Y-89084260D02*
X123033333Y-89150926D01*
X123033333Y-89150926D02*
X123066666Y-89184260D01*
X123066666Y-89184260D02*
X123133333Y-89217593D01*
X123133333Y-89217593D02*
X123299999Y-89217593D01*
X123299999Y-89217593D02*
X123366666Y-89184260D01*
X123366666Y-89184260D02*
X123399999Y-89150926D01*
D11*
X121754819Y-56690475D02*
X122754819Y-56928570D01*
X122754819Y-56928570D02*
X122040533Y-57119046D01*
X122040533Y-57119046D02*
X122754819Y-57309522D01*
X122754819Y-57309522D02*
X121754819Y-57547618D01*
X122754819Y-58357141D02*
X122231009Y-58357141D01*
X122231009Y-58357141D02*
X122135771Y-58309522D01*
X122135771Y-58309522D02*
X122088152Y-58214284D01*
X122088152Y-58214284D02*
X122088152Y-58023808D01*
X122088152Y-58023808D02*
X122135771Y-57928570D01*
X122707200Y-58357141D02*
X122754819Y-58261903D01*
X122754819Y-58261903D02*
X122754819Y-58023808D01*
X122754819Y-58023808D02*
X122707200Y-57928570D01*
X122707200Y-57928570D02*
X122611961Y-57880951D01*
X122611961Y-57880951D02*
X122516723Y-57880951D01*
X122516723Y-57880951D02*
X122421485Y-57928570D01*
X122421485Y-57928570D02*
X122373866Y-58023808D01*
X122373866Y-58023808D02*
X122373866Y-58261903D01*
X122373866Y-58261903D02*
X122326247Y-58357141D01*
X122088152Y-58690475D02*
X122088152Y-59071427D01*
X121754819Y-58833332D02*
X122611961Y-58833332D01*
X122611961Y-58833332D02*
X122707200Y-58880951D01*
X122707200Y-58880951D02*
X122754819Y-58976189D01*
X122754819Y-58976189D02*
X122754819Y-59071427D01*
X122707200Y-59833332D02*
X122754819Y-59738094D01*
X122754819Y-59738094D02*
X122754819Y-59547618D01*
X122754819Y-59547618D02*
X122707200Y-59452380D01*
X122707200Y-59452380D02*
X122659580Y-59404761D01*
X122659580Y-59404761D02*
X122564342Y-59357142D01*
X122564342Y-59357142D02*
X122278628Y-59357142D01*
X122278628Y-59357142D02*
X122183390Y-59404761D01*
X122183390Y-59404761D02*
X122135771Y-59452380D01*
X122135771Y-59452380D02*
X122088152Y-59547618D01*
X122088152Y-59547618D02*
X122088152Y-59738094D01*
X122088152Y-59738094D02*
X122135771Y-59833332D01*
X122754819Y-60261904D02*
X121754819Y-60261904D01*
X122754819Y-60690475D02*
X122231009Y-60690475D01*
X122231009Y-60690475D02*
X122135771Y-60642856D01*
X122135771Y-60642856D02*
X122088152Y-60547618D01*
X122088152Y-60547618D02*
X122088152Y-60404761D01*
X122088152Y-60404761D02*
X122135771Y-60309523D01*
X122135771Y-60309523D02*
X122183390Y-60261904D01*
X122754819Y-61166666D02*
X122088152Y-61166666D01*
X122183390Y-61166666D02*
X122135771Y-61214285D01*
X122135771Y-61214285D02*
X122088152Y-61309523D01*
X122088152Y-61309523D02*
X122088152Y-61452380D01*
X122088152Y-61452380D02*
X122135771Y-61547618D01*
X122135771Y-61547618D02*
X122231009Y-61595237D01*
X122231009Y-61595237D02*
X122754819Y-61595237D01*
X122231009Y-61595237D02*
X122135771Y-61642856D01*
X122135771Y-61642856D02*
X122088152Y-61738094D01*
X122088152Y-61738094D02*
X122088152Y-61880951D01*
X122088152Y-61880951D02*
X122135771Y-61976190D01*
X122135771Y-61976190D02*
X122231009Y-62023809D01*
X122231009Y-62023809D02*
X122754819Y-62023809D01*
X122707200Y-62880951D02*
X122754819Y-62785713D01*
X122754819Y-62785713D02*
X122754819Y-62595237D01*
X122754819Y-62595237D02*
X122707200Y-62499999D01*
X122707200Y-62499999D02*
X122611961Y-62452380D01*
X122611961Y-62452380D02*
X122231009Y-62452380D01*
X122231009Y-62452380D02*
X122135771Y-62499999D01*
X122135771Y-62499999D02*
X122088152Y-62595237D01*
X122088152Y-62595237D02*
X122088152Y-62785713D01*
X122088152Y-62785713D02*
X122135771Y-62880951D01*
X122135771Y-62880951D02*
X122231009Y-62928570D01*
X122231009Y-62928570D02*
X122326247Y-62928570D01*
X122326247Y-62928570D02*
X122421485Y-62452380D01*
X122088152Y-63357142D02*
X122754819Y-63357142D01*
X122183390Y-63357142D02*
X122135771Y-63404761D01*
X122135771Y-63404761D02*
X122088152Y-63499999D01*
X122088152Y-63499999D02*
X122088152Y-63642856D01*
X122088152Y-63642856D02*
X122135771Y-63738094D01*
X122135771Y-63738094D02*
X122231009Y-63785713D01*
X122231009Y-63785713D02*
X122754819Y-63785713D01*
X122707200Y-64976190D02*
X122754819Y-65119047D01*
X122754819Y-65119047D02*
X122754819Y-65357142D01*
X122754819Y-65357142D02*
X122707200Y-65452380D01*
X122707200Y-65452380D02*
X122659580Y-65499999D01*
X122659580Y-65499999D02*
X122564342Y-65547618D01*
X122564342Y-65547618D02*
X122469104Y-65547618D01*
X122469104Y-65547618D02*
X122373866Y-65499999D01*
X122373866Y-65499999D02*
X122326247Y-65452380D01*
X122326247Y-65452380D02*
X122278628Y-65357142D01*
X122278628Y-65357142D02*
X122231009Y-65166666D01*
X122231009Y-65166666D02*
X122183390Y-65071428D01*
X122183390Y-65071428D02*
X122135771Y-65023809D01*
X122135771Y-65023809D02*
X122040533Y-64976190D01*
X122040533Y-64976190D02*
X121945295Y-64976190D01*
X121945295Y-64976190D02*
X121850057Y-65023809D01*
X121850057Y-65023809D02*
X121802438Y-65071428D01*
X121802438Y-65071428D02*
X121754819Y-65166666D01*
X121754819Y-65166666D02*
X121754819Y-65404761D01*
X121754819Y-65404761D02*
X121802438Y-65547618D01*
X122754819Y-65976190D02*
X121754819Y-65976190D01*
X122754819Y-66404761D02*
X122231009Y-66404761D01*
X122231009Y-66404761D02*
X122135771Y-66357142D01*
X122135771Y-66357142D02*
X122088152Y-66261904D01*
X122088152Y-66261904D02*
X122088152Y-66119047D01*
X122088152Y-66119047D02*
X122135771Y-66023809D01*
X122135771Y-66023809D02*
X122183390Y-65976190D01*
X122754819Y-66880952D02*
X122088152Y-66880952D01*
X121754819Y-66880952D02*
X121802438Y-66833333D01*
X121802438Y-66833333D02*
X121850057Y-66880952D01*
X121850057Y-66880952D02*
X121802438Y-66928571D01*
X121802438Y-66928571D02*
X121754819Y-66880952D01*
X121754819Y-66880952D02*
X121850057Y-66880952D01*
X122707200Y-67738094D02*
X122754819Y-67642856D01*
X122754819Y-67642856D02*
X122754819Y-67452380D01*
X122754819Y-67452380D02*
X122707200Y-67357142D01*
X122707200Y-67357142D02*
X122611961Y-67309523D01*
X122611961Y-67309523D02*
X122231009Y-67309523D01*
X122231009Y-67309523D02*
X122135771Y-67357142D01*
X122135771Y-67357142D02*
X122088152Y-67452380D01*
X122088152Y-67452380D02*
X122088152Y-67642856D01*
X122088152Y-67642856D02*
X122135771Y-67738094D01*
X122135771Y-67738094D02*
X122231009Y-67785713D01*
X122231009Y-67785713D02*
X122326247Y-67785713D01*
X122326247Y-67785713D02*
X122421485Y-67309523D01*
X122754819Y-68357142D02*
X122707200Y-68261904D01*
X122707200Y-68261904D02*
X122611961Y-68214285D01*
X122611961Y-68214285D02*
X121754819Y-68214285D01*
X122754819Y-69166666D02*
X121754819Y-69166666D01*
X122707200Y-69166666D02*
X122754819Y-69071428D01*
X122754819Y-69071428D02*
X122754819Y-68880952D01*
X122754819Y-68880952D02*
X122707200Y-68785714D01*
X122707200Y-68785714D02*
X122659580Y-68738095D01*
X122659580Y-68738095D02*
X122564342Y-68690476D01*
X122564342Y-68690476D02*
X122278628Y-68690476D01*
X122278628Y-68690476D02*
X122183390Y-68738095D01*
X122183390Y-68738095D02*
X122135771Y-68785714D01*
X122135771Y-68785714D02*
X122088152Y-68880952D01*
X122088152Y-68880952D02*
X122088152Y-69071428D01*
X122088152Y-69071428D02*
X122135771Y-69166666D01*
X122373866Y-70404762D02*
X122373866Y-71166667D01*
X122469104Y-72357143D02*
X122469104Y-72833333D01*
X122754819Y-72261905D02*
X121754819Y-72595238D01*
X121754819Y-72595238D02*
X122754819Y-72928571D01*
X122754819Y-73261905D02*
X122088152Y-73261905D01*
X122278628Y-73261905D02*
X122183390Y-73309524D01*
X122183390Y-73309524D02*
X122135771Y-73357143D01*
X122135771Y-73357143D02*
X122088152Y-73452381D01*
X122088152Y-73452381D02*
X122088152Y-73547619D01*
X122754819Y-74309524D02*
X121754819Y-74309524D01*
X122707200Y-74309524D02*
X122754819Y-74214286D01*
X122754819Y-74214286D02*
X122754819Y-74023810D01*
X122754819Y-74023810D02*
X122707200Y-73928572D01*
X122707200Y-73928572D02*
X122659580Y-73880953D01*
X122659580Y-73880953D02*
X122564342Y-73833334D01*
X122564342Y-73833334D02*
X122278628Y-73833334D01*
X122278628Y-73833334D02*
X122183390Y-73880953D01*
X122183390Y-73880953D02*
X122135771Y-73928572D01*
X122135771Y-73928572D02*
X122088152Y-74023810D01*
X122088152Y-74023810D02*
X122088152Y-74214286D01*
X122088152Y-74214286D02*
X122135771Y-74309524D01*
X122088152Y-75214286D02*
X122754819Y-75214286D01*
X122088152Y-74785715D02*
X122611961Y-74785715D01*
X122611961Y-74785715D02*
X122707200Y-74833334D01*
X122707200Y-74833334D02*
X122754819Y-74928572D01*
X122754819Y-74928572D02*
X122754819Y-75071429D01*
X122754819Y-75071429D02*
X122707200Y-75166667D01*
X122707200Y-75166667D02*
X122659580Y-75214286D01*
X122754819Y-75690477D02*
X122088152Y-75690477D01*
X121754819Y-75690477D02*
X121802438Y-75642858D01*
X121802438Y-75642858D02*
X121850057Y-75690477D01*
X121850057Y-75690477D02*
X121802438Y-75738096D01*
X121802438Y-75738096D02*
X121754819Y-75690477D01*
X121754819Y-75690477D02*
X121850057Y-75690477D01*
X122088152Y-76166667D02*
X122754819Y-76166667D01*
X122183390Y-76166667D02*
X122135771Y-76214286D01*
X122135771Y-76214286D02*
X122088152Y-76309524D01*
X122088152Y-76309524D02*
X122088152Y-76452381D01*
X122088152Y-76452381D02*
X122135771Y-76547619D01*
X122135771Y-76547619D02*
X122231009Y-76595238D01*
X122231009Y-76595238D02*
X122754819Y-76595238D01*
X122754819Y-77214286D02*
X122707200Y-77119048D01*
X122707200Y-77119048D02*
X122659580Y-77071429D01*
X122659580Y-77071429D02*
X122564342Y-77023810D01*
X122564342Y-77023810D02*
X122278628Y-77023810D01*
X122278628Y-77023810D02*
X122183390Y-77071429D01*
X122183390Y-77071429D02*
X122135771Y-77119048D01*
X122135771Y-77119048D02*
X122088152Y-77214286D01*
X122088152Y-77214286D02*
X122088152Y-77357143D01*
X122088152Y-77357143D02*
X122135771Y-77452381D01*
X122135771Y-77452381D02*
X122183390Y-77500000D01*
X122183390Y-77500000D02*
X122278628Y-77547619D01*
X122278628Y-77547619D02*
X122564342Y-77547619D01*
X122564342Y-77547619D02*
X122659580Y-77500000D01*
X122659580Y-77500000D02*
X122707200Y-77452381D01*
X122707200Y-77452381D02*
X122754819Y-77357143D01*
X122754819Y-77357143D02*
X122754819Y-77214286D01*
X121754819Y-78738096D02*
X122564342Y-78738096D01*
X122564342Y-78738096D02*
X122659580Y-78785715D01*
X122659580Y-78785715D02*
X122707200Y-78833334D01*
X122707200Y-78833334D02*
X122754819Y-78928572D01*
X122754819Y-78928572D02*
X122754819Y-79119048D01*
X122754819Y-79119048D02*
X122707200Y-79214286D01*
X122707200Y-79214286D02*
X122659580Y-79261905D01*
X122659580Y-79261905D02*
X122564342Y-79309524D01*
X122564342Y-79309524D02*
X121754819Y-79309524D01*
X122754819Y-79785715D02*
X121754819Y-79785715D01*
X121754819Y-79785715D02*
X122754819Y-80357143D01*
X122754819Y-80357143D02*
X121754819Y-80357143D01*
X121754819Y-81023810D02*
X121754819Y-81214286D01*
X121754819Y-81214286D02*
X121802438Y-81309524D01*
X121802438Y-81309524D02*
X121897676Y-81404762D01*
X121897676Y-81404762D02*
X122088152Y-81452381D01*
X122088152Y-81452381D02*
X122421485Y-81452381D01*
X122421485Y-81452381D02*
X122611961Y-81404762D01*
X122611961Y-81404762D02*
X122707200Y-81309524D01*
X122707200Y-81309524D02*
X122754819Y-81214286D01*
X122754819Y-81214286D02*
X122754819Y-81023810D01*
X122754819Y-81023810D02*
X122707200Y-80928572D01*
X122707200Y-80928572D02*
X122611961Y-80833334D01*
X122611961Y-80833334D02*
X122421485Y-80785715D01*
X122421485Y-80785715D02*
X122088152Y-80785715D01*
X122088152Y-80785715D02*
X121897676Y-80833334D01*
X121897676Y-80833334D02*
X121802438Y-80928572D01*
X121802438Y-80928572D02*
X121754819Y-81023810D01*
X122850057Y-83309524D02*
X122802438Y-83214286D01*
X122802438Y-83214286D02*
X122707200Y-83119048D01*
X122707200Y-83119048D02*
X122564342Y-82976191D01*
X122564342Y-82976191D02*
X122516723Y-82880953D01*
X122516723Y-82880953D02*
X122516723Y-82785715D01*
X122754819Y-82833334D02*
X122707200Y-82738096D01*
X122707200Y-82738096D02*
X122611961Y-82642858D01*
X122611961Y-82642858D02*
X122421485Y-82595239D01*
X122421485Y-82595239D02*
X122088152Y-82595239D01*
X122088152Y-82595239D02*
X121897676Y-82642858D01*
X121897676Y-82642858D02*
X121802438Y-82738096D01*
X121802438Y-82738096D02*
X121754819Y-82833334D01*
X121754819Y-82833334D02*
X121754819Y-83023810D01*
X121754819Y-83023810D02*
X121802438Y-83119048D01*
X121802438Y-83119048D02*
X121897676Y-83214286D01*
X121897676Y-83214286D02*
X122088152Y-83261905D01*
X122088152Y-83261905D02*
X122421485Y-83261905D01*
X122421485Y-83261905D02*
X122611961Y-83214286D01*
X122611961Y-83214286D02*
X122707200Y-83119048D01*
X122707200Y-83119048D02*
X122754819Y-83023810D01*
X122754819Y-83023810D02*
X122754819Y-82833334D01*
D10*
X98233333Y-88517593D02*
X98566666Y-88517593D01*
X98566666Y-88517593D02*
X98599999Y-88850926D01*
X98599999Y-88850926D02*
X98566666Y-88817593D01*
X98566666Y-88817593D02*
X98499999Y-88784260D01*
X98499999Y-88784260D02*
X98333333Y-88784260D01*
X98333333Y-88784260D02*
X98266666Y-88817593D01*
X98266666Y-88817593D02*
X98233333Y-88850926D01*
X98233333Y-88850926D02*
X98199999Y-88917593D01*
X98199999Y-88917593D02*
X98199999Y-89084260D01*
X98199999Y-89084260D02*
X98233333Y-89150926D01*
X98233333Y-89150926D02*
X98266666Y-89184260D01*
X98266666Y-89184260D02*
X98333333Y-89217593D01*
X98333333Y-89217593D02*
X98499999Y-89217593D01*
X98499999Y-89217593D02*
X98566666Y-89184260D01*
X98566666Y-89184260D02*
X98599999Y-89150926D01*
X97999999Y-88517593D02*
X97766666Y-89217593D01*
X97766666Y-89217593D02*
X97533332Y-88517593D01*
X88489999Y-89217593D02*
X88489999Y-88517593D01*
X88489999Y-88517593D02*
X88089999Y-89217593D01*
X88089999Y-89217593D02*
X88089999Y-88517593D01*
X87356666Y-89150926D02*
X87389999Y-89184260D01*
X87389999Y-89184260D02*
X87489999Y-89217593D01*
X87489999Y-89217593D02*
X87556666Y-89217593D01*
X87556666Y-89217593D02*
X87656666Y-89184260D01*
X87656666Y-89184260D02*
X87723333Y-89117593D01*
X87723333Y-89117593D02*
X87756666Y-89050926D01*
X87756666Y-89050926D02*
X87789999Y-88917593D01*
X87789999Y-88917593D02*
X87789999Y-88817593D01*
X87789999Y-88817593D02*
X87756666Y-88684260D01*
X87756666Y-88684260D02*
X87723333Y-88617593D01*
X87723333Y-88617593D02*
X87656666Y-88550926D01*
X87656666Y-88550926D02*
X87556666Y-88517593D01*
X87556666Y-88517593D02*
X87489999Y-88517593D01*
X87489999Y-88517593D02*
X87389999Y-88550926D01*
X87389999Y-88550926D02*
X87356666Y-88584260D01*
X121459999Y-89017593D02*
X121126666Y-89017593D01*
X121526666Y-89217593D02*
X121293333Y-88517593D01*
X121293333Y-88517593D02*
X121059999Y-89217593D01*
X120526666Y-88750926D02*
X120526666Y-89217593D01*
X120693333Y-88484260D02*
X120859999Y-88984260D01*
X120859999Y-88984260D02*
X120426666Y-88984260D01*
X91196666Y-89217593D02*
X91196666Y-88517593D01*
X90730000Y-88517593D02*
X90596666Y-88517593D01*
X90596666Y-88517593D02*
X90530000Y-88550926D01*
X90530000Y-88550926D02*
X90463333Y-88617593D01*
X90463333Y-88617593D02*
X90430000Y-88750926D01*
X90430000Y-88750926D02*
X90430000Y-88984260D01*
X90430000Y-88984260D02*
X90463333Y-89117593D01*
X90463333Y-89117593D02*
X90530000Y-89184260D01*
X90530000Y-89184260D02*
X90596666Y-89217593D01*
X90596666Y-89217593D02*
X90730000Y-89217593D01*
X90730000Y-89217593D02*
X90796666Y-89184260D01*
X90796666Y-89184260D02*
X90863333Y-89117593D01*
X90863333Y-89117593D02*
X90896666Y-88984260D01*
X90896666Y-88984260D02*
X90896666Y-88750926D01*
X90896666Y-88750926D02*
X90863333Y-88617593D01*
X90863333Y-88617593D02*
X90796666Y-88550926D01*
X90796666Y-88550926D02*
X90730000Y-88517593D01*
X89730000Y-89217593D02*
X89963333Y-88884260D01*
X90130000Y-89217593D02*
X90130000Y-88517593D01*
X90130000Y-88517593D02*
X89863333Y-88517593D01*
X89863333Y-88517593D02*
X89796667Y-88550926D01*
X89796667Y-88550926D02*
X89763333Y-88584260D01*
X89763333Y-88584260D02*
X89730000Y-88650926D01*
X89730000Y-88650926D02*
X89730000Y-88750926D01*
X89730000Y-88750926D02*
X89763333Y-88817593D01*
X89763333Y-88817593D02*
X89796667Y-88850926D01*
X89796667Y-88850926D02*
X89863333Y-88884260D01*
X89863333Y-88884260D02*
X90130000Y-88884260D01*
X79633333Y-44724260D02*
X79533333Y-44757593D01*
X79533333Y-44757593D02*
X79366667Y-44757593D01*
X79366667Y-44757593D02*
X79300000Y-44724260D01*
X79300000Y-44724260D02*
X79266667Y-44690926D01*
X79266667Y-44690926D02*
X79233333Y-44624260D01*
X79233333Y-44624260D02*
X79233333Y-44557593D01*
X79233333Y-44557593D02*
X79266667Y-44490926D01*
X79266667Y-44490926D02*
X79300000Y-44457593D01*
X79300000Y-44457593D02*
X79366667Y-44424260D01*
X79366667Y-44424260D02*
X79500000Y-44390926D01*
X79500000Y-44390926D02*
X79566667Y-44357593D01*
X79566667Y-44357593D02*
X79600000Y-44324260D01*
X79600000Y-44324260D02*
X79633333Y-44257593D01*
X79633333Y-44257593D02*
X79633333Y-44190926D01*
X79633333Y-44190926D02*
X79600000Y-44124260D01*
X79600000Y-44124260D02*
X79566667Y-44090926D01*
X79566667Y-44090926D02*
X79500000Y-44057593D01*
X79500000Y-44057593D02*
X79333333Y-44057593D01*
X79333333Y-44057593D02*
X79233333Y-44090926D01*
X78533333Y-44690926D02*
X78566666Y-44724260D01*
X78566666Y-44724260D02*
X78666666Y-44757593D01*
X78666666Y-44757593D02*
X78733333Y-44757593D01*
X78733333Y-44757593D02*
X78833333Y-44724260D01*
X78833333Y-44724260D02*
X78900000Y-44657593D01*
X78900000Y-44657593D02*
X78933333Y-44590926D01*
X78933333Y-44590926D02*
X78966666Y-44457593D01*
X78966666Y-44457593D02*
X78966666Y-44357593D01*
X78966666Y-44357593D02*
X78933333Y-44224260D01*
X78933333Y-44224260D02*
X78900000Y-44157593D01*
X78900000Y-44157593D02*
X78833333Y-44090926D01*
X78833333Y-44090926D02*
X78733333Y-44057593D01*
X78733333Y-44057593D02*
X78666666Y-44057593D01*
X78666666Y-44057593D02*
X78566666Y-44090926D01*
X78566666Y-44090926D02*
X78533333Y-44124260D01*
X77900000Y-44757593D02*
X78233333Y-44757593D01*
X78233333Y-44757593D02*
X78233333Y-44057593D01*
X106236666Y-44757593D02*
X106236666Y-44057593D01*
X106236666Y-44057593D02*
X106069999Y-44057593D01*
X106069999Y-44057593D02*
X105969999Y-44090926D01*
X105969999Y-44090926D02*
X105903333Y-44157593D01*
X105903333Y-44157593D02*
X105869999Y-44224260D01*
X105869999Y-44224260D02*
X105836666Y-44357593D01*
X105836666Y-44357593D02*
X105836666Y-44457593D01*
X105836666Y-44457593D02*
X105869999Y-44590926D01*
X105869999Y-44590926D02*
X105903333Y-44657593D01*
X105903333Y-44657593D02*
X105969999Y-44724260D01*
X105969999Y-44724260D02*
X106069999Y-44757593D01*
X106069999Y-44757593D02*
X106236666Y-44757593D01*
X105603333Y-44057593D02*
X105136666Y-44057593D01*
X105136666Y-44057593D02*
X105436666Y-44757593D01*
X124016666Y-44757593D02*
X124016666Y-44057593D01*
X124016666Y-44057593D02*
X123849999Y-44057593D01*
X123849999Y-44057593D02*
X123749999Y-44090926D01*
X123749999Y-44090926D02*
X123683333Y-44157593D01*
X123683333Y-44157593D02*
X123649999Y-44224260D01*
X123649999Y-44224260D02*
X123616666Y-44357593D01*
X123616666Y-44357593D02*
X123616666Y-44457593D01*
X123616666Y-44457593D02*
X123649999Y-44590926D01*
X123649999Y-44590926D02*
X123683333Y-44657593D01*
X123683333Y-44657593D02*
X123749999Y-44724260D01*
X123749999Y-44724260D02*
X123849999Y-44757593D01*
X123849999Y-44757593D02*
X124016666Y-44757593D01*
X123183333Y-44057593D02*
X123116666Y-44057593D01*
X123116666Y-44057593D02*
X123049999Y-44090926D01*
X123049999Y-44090926D02*
X123016666Y-44124260D01*
X123016666Y-44124260D02*
X122983333Y-44190926D01*
X122983333Y-44190926D02*
X122949999Y-44324260D01*
X122949999Y-44324260D02*
X122949999Y-44490926D01*
X122949999Y-44490926D02*
X122983333Y-44624260D01*
X122983333Y-44624260D02*
X123016666Y-44690926D01*
X123016666Y-44690926D02*
X123049999Y-44724260D01*
X123049999Y-44724260D02*
X123116666Y-44757593D01*
X123116666Y-44757593D02*
X123183333Y-44757593D01*
X123183333Y-44757593D02*
X123249999Y-44724260D01*
X123249999Y-44724260D02*
X123283333Y-44690926D01*
X123283333Y-44690926D02*
X123316666Y-44624260D01*
X123316666Y-44624260D02*
X123349999Y-44490926D01*
X123349999Y-44490926D02*
X123349999Y-44324260D01*
X123349999Y-44324260D02*
X123316666Y-44190926D01*
X123316666Y-44190926D02*
X123283333Y-44124260D01*
X123283333Y-44124260D02*
X123249999Y-44090926D01*
X123249999Y-44090926D02*
X123183333Y-44057593D01*
X116379999Y-89017593D02*
X116046666Y-89017593D01*
X116446666Y-89217593D02*
X116213333Y-88517593D01*
X116213333Y-88517593D02*
X115979999Y-89217593D01*
X115779999Y-88584260D02*
X115746666Y-88550926D01*
X115746666Y-88550926D02*
X115679999Y-88517593D01*
X115679999Y-88517593D02*
X115513333Y-88517593D01*
X115513333Y-88517593D02*
X115446666Y-88550926D01*
X115446666Y-88550926D02*
X115413333Y-88584260D01*
X115413333Y-88584260D02*
X115379999Y-88650926D01*
X115379999Y-88650926D02*
X115379999Y-88717593D01*
X115379999Y-88717593D02*
X115413333Y-88817593D01*
X115413333Y-88817593D02*
X115813333Y-89217593D01*
X115813333Y-89217593D02*
X115379999Y-89217593D01*
X92350000Y-44757593D02*
X92350000Y-44057593D01*
X92350000Y-44057593D02*
X92183333Y-44057593D01*
X92183333Y-44057593D02*
X92083333Y-44090926D01*
X92083333Y-44090926D02*
X92016667Y-44157593D01*
X92016667Y-44157593D02*
X91983333Y-44224260D01*
X91983333Y-44224260D02*
X91950000Y-44357593D01*
X91950000Y-44357593D02*
X91950000Y-44457593D01*
X91950000Y-44457593D02*
X91983333Y-44590926D01*
X91983333Y-44590926D02*
X92016667Y-44657593D01*
X92016667Y-44657593D02*
X92083333Y-44724260D01*
X92083333Y-44724260D02*
X92183333Y-44757593D01*
X92183333Y-44757593D02*
X92350000Y-44757593D01*
X91283333Y-44757593D02*
X91683333Y-44757593D01*
X91483333Y-44757593D02*
X91483333Y-44057593D01*
X91483333Y-44057593D02*
X91550000Y-44157593D01*
X91550000Y-44157593D02*
X91616667Y-44224260D01*
X91616667Y-44224260D02*
X91683333Y-44257593D01*
X91016666Y-44124260D02*
X90983333Y-44090926D01*
X90983333Y-44090926D02*
X90916666Y-44057593D01*
X90916666Y-44057593D02*
X90750000Y-44057593D01*
X90750000Y-44057593D02*
X90683333Y-44090926D01*
X90683333Y-44090926D02*
X90650000Y-44124260D01*
X90650000Y-44124260D02*
X90616666Y-44190926D01*
X90616666Y-44190926D02*
X90616666Y-44257593D01*
X90616666Y-44257593D02*
X90650000Y-44357593D01*
X90650000Y-44357593D02*
X91050000Y-44757593D01*
X91050000Y-44757593D02*
X90616666Y-44757593D01*
X106486666Y-88517593D02*
X106253333Y-89217593D01*
X106253333Y-89217593D02*
X106019999Y-88517593D01*
X105786666Y-89217593D02*
X105786666Y-88517593D01*
X105453333Y-89217593D02*
X105453333Y-88517593D01*
X105453333Y-88517593D02*
X105053333Y-89217593D01*
X105053333Y-89217593D02*
X105053333Y-88517593D01*
X96426667Y-88517593D02*
X95993333Y-88517593D01*
X95993333Y-88517593D02*
X96226667Y-88784260D01*
X96226667Y-88784260D02*
X96126667Y-88784260D01*
X96126667Y-88784260D02*
X96060000Y-88817593D01*
X96060000Y-88817593D02*
X96026667Y-88850926D01*
X96026667Y-88850926D02*
X95993333Y-88917593D01*
X95993333Y-88917593D02*
X95993333Y-89084260D01*
X95993333Y-89084260D02*
X96026667Y-89150926D01*
X96026667Y-89150926D02*
X96060000Y-89184260D01*
X96060000Y-89184260D02*
X96126667Y-89217593D01*
X96126667Y-89217593D02*
X96326667Y-89217593D01*
X96326667Y-89217593D02*
X96393333Y-89184260D01*
X96393333Y-89184260D02*
X96426667Y-89150926D01*
X95793333Y-88517593D02*
X95560000Y-89217593D01*
X95560000Y-89217593D02*
X95326666Y-88517593D01*
X95160000Y-88517593D02*
X94726666Y-88517593D01*
X94726666Y-88517593D02*
X94960000Y-88784260D01*
X94960000Y-88784260D02*
X94860000Y-88784260D01*
X94860000Y-88784260D02*
X94793333Y-88817593D01*
X94793333Y-88817593D02*
X94760000Y-88850926D01*
X94760000Y-88850926D02*
X94726666Y-88917593D01*
X94726666Y-88917593D02*
X94726666Y-89084260D01*
X94726666Y-89084260D02*
X94760000Y-89150926D01*
X94760000Y-89150926D02*
X94793333Y-89184260D01*
X94793333Y-89184260D02*
X94860000Y-89217593D01*
X94860000Y-89217593D02*
X95060000Y-89217593D01*
X95060000Y-89217593D02*
X95126666Y-89184260D01*
X95126666Y-89184260D02*
X95160000Y-89150926D01*
X111316666Y-44757593D02*
X111316666Y-44057593D01*
X111316666Y-44057593D02*
X111149999Y-44057593D01*
X111149999Y-44057593D02*
X111049999Y-44090926D01*
X111049999Y-44090926D02*
X110983333Y-44157593D01*
X110983333Y-44157593D02*
X110949999Y-44224260D01*
X110949999Y-44224260D02*
X110916666Y-44357593D01*
X110916666Y-44357593D02*
X110916666Y-44457593D01*
X110916666Y-44457593D02*
X110949999Y-44590926D01*
X110949999Y-44590926D02*
X110983333Y-44657593D01*
X110983333Y-44657593D02*
X111049999Y-44724260D01*
X111049999Y-44724260D02*
X111149999Y-44757593D01*
X111149999Y-44757593D02*
X111316666Y-44757593D01*
X110283333Y-44057593D02*
X110616666Y-44057593D01*
X110616666Y-44057593D02*
X110649999Y-44390926D01*
X110649999Y-44390926D02*
X110616666Y-44357593D01*
X110616666Y-44357593D02*
X110549999Y-44324260D01*
X110549999Y-44324260D02*
X110383333Y-44324260D01*
X110383333Y-44324260D02*
X110316666Y-44357593D01*
X110316666Y-44357593D02*
X110283333Y-44390926D01*
X110283333Y-44390926D02*
X110249999Y-44457593D01*
X110249999Y-44457593D02*
X110249999Y-44624260D01*
X110249999Y-44624260D02*
X110283333Y-44690926D01*
X110283333Y-44690926D02*
X110316666Y-44724260D01*
X110316666Y-44724260D02*
X110383333Y-44757593D01*
X110383333Y-44757593D02*
X110549999Y-44757593D01*
X110549999Y-44757593D02*
X110616666Y-44724260D01*
X110616666Y-44724260D02*
X110649999Y-44690926D01*
X102176666Y-44757593D02*
X102176666Y-44057593D01*
X102176666Y-44057593D02*
X102009999Y-44057593D01*
X102009999Y-44057593D02*
X101909999Y-44090926D01*
X101909999Y-44090926D02*
X101843333Y-44157593D01*
X101843333Y-44157593D02*
X101809999Y-44224260D01*
X101809999Y-44224260D02*
X101776666Y-44357593D01*
X101776666Y-44357593D02*
X101776666Y-44457593D01*
X101776666Y-44457593D02*
X101809999Y-44590926D01*
X101809999Y-44590926D02*
X101843333Y-44657593D01*
X101843333Y-44657593D02*
X101909999Y-44724260D01*
X101909999Y-44724260D02*
X102009999Y-44757593D01*
X102009999Y-44757593D02*
X102176666Y-44757593D01*
X101376666Y-44357593D02*
X101443333Y-44324260D01*
X101443333Y-44324260D02*
X101476666Y-44290926D01*
X101476666Y-44290926D02*
X101509999Y-44224260D01*
X101509999Y-44224260D02*
X101509999Y-44190926D01*
X101509999Y-44190926D02*
X101476666Y-44124260D01*
X101476666Y-44124260D02*
X101443333Y-44090926D01*
X101443333Y-44090926D02*
X101376666Y-44057593D01*
X101376666Y-44057593D02*
X101243333Y-44057593D01*
X101243333Y-44057593D02*
X101176666Y-44090926D01*
X101176666Y-44090926D02*
X101143333Y-44124260D01*
X101143333Y-44124260D02*
X101109999Y-44190926D01*
X101109999Y-44190926D02*
X101109999Y-44224260D01*
X101109999Y-44224260D02*
X101143333Y-44290926D01*
X101143333Y-44290926D02*
X101176666Y-44324260D01*
X101176666Y-44324260D02*
X101243333Y-44357593D01*
X101243333Y-44357593D02*
X101376666Y-44357593D01*
X101376666Y-44357593D02*
X101443333Y-44390926D01*
X101443333Y-44390926D02*
X101476666Y-44424260D01*
X101476666Y-44424260D02*
X101509999Y-44490926D01*
X101509999Y-44490926D02*
X101509999Y-44624260D01*
X101509999Y-44624260D02*
X101476666Y-44690926D01*
X101476666Y-44690926D02*
X101443333Y-44724260D01*
X101443333Y-44724260D02*
X101376666Y-44757593D01*
X101376666Y-44757593D02*
X101243333Y-44757593D01*
X101243333Y-44757593D02*
X101176666Y-44724260D01*
X101176666Y-44724260D02*
X101143333Y-44690926D01*
X101143333Y-44690926D02*
X101109999Y-44624260D01*
X101109999Y-44624260D02*
X101109999Y-44490926D01*
X101109999Y-44490926D02*
X101143333Y-44424260D01*
X101143333Y-44424260D02*
X101176666Y-44390926D01*
X101176666Y-44390926D02*
X101243333Y-44357593D01*
X93403333Y-89217593D02*
X93636666Y-88884260D01*
X93803333Y-89217593D02*
X93803333Y-88517593D01*
X93803333Y-88517593D02*
X93536666Y-88517593D01*
X93536666Y-88517593D02*
X93470000Y-88550926D01*
X93470000Y-88550926D02*
X93436666Y-88584260D01*
X93436666Y-88584260D02*
X93403333Y-88650926D01*
X93403333Y-88650926D02*
X93403333Y-88750926D01*
X93403333Y-88750926D02*
X93436666Y-88817593D01*
X93436666Y-88817593D02*
X93470000Y-88850926D01*
X93470000Y-88850926D02*
X93536666Y-88884260D01*
X93536666Y-88884260D02*
X93803333Y-88884260D01*
X93136666Y-89184260D02*
X93036666Y-89217593D01*
X93036666Y-89217593D02*
X92870000Y-89217593D01*
X92870000Y-89217593D02*
X92803333Y-89184260D01*
X92803333Y-89184260D02*
X92770000Y-89150926D01*
X92770000Y-89150926D02*
X92736666Y-89084260D01*
X92736666Y-89084260D02*
X92736666Y-89017593D01*
X92736666Y-89017593D02*
X92770000Y-88950926D01*
X92770000Y-88950926D02*
X92803333Y-88917593D01*
X92803333Y-88917593D02*
X92870000Y-88884260D01*
X92870000Y-88884260D02*
X93003333Y-88850926D01*
X93003333Y-88850926D02*
X93070000Y-88817593D01*
X93070000Y-88817593D02*
X93103333Y-88784260D01*
X93103333Y-88784260D02*
X93136666Y-88717593D01*
X93136666Y-88717593D02*
X93136666Y-88650926D01*
X93136666Y-88650926D02*
X93103333Y-88584260D01*
X93103333Y-88584260D02*
X93070000Y-88550926D01*
X93070000Y-88550926D02*
X93003333Y-88517593D01*
X93003333Y-88517593D02*
X92836666Y-88517593D01*
X92836666Y-88517593D02*
X92736666Y-88550926D01*
X92536666Y-88517593D02*
X92136666Y-88517593D01*
X92336666Y-89217593D02*
X92336666Y-88517593D01*
X121476666Y-44757593D02*
X121476666Y-44057593D01*
X121476666Y-44057593D02*
X121309999Y-44057593D01*
X121309999Y-44057593D02*
X121209999Y-44090926D01*
X121209999Y-44090926D02*
X121143333Y-44157593D01*
X121143333Y-44157593D02*
X121109999Y-44224260D01*
X121109999Y-44224260D02*
X121076666Y-44357593D01*
X121076666Y-44357593D02*
X121076666Y-44457593D01*
X121076666Y-44457593D02*
X121109999Y-44590926D01*
X121109999Y-44590926D02*
X121143333Y-44657593D01*
X121143333Y-44657593D02*
X121209999Y-44724260D01*
X121209999Y-44724260D02*
X121309999Y-44757593D01*
X121309999Y-44757593D02*
X121476666Y-44757593D01*
X120409999Y-44757593D02*
X120809999Y-44757593D01*
X120609999Y-44757593D02*
X120609999Y-44057593D01*
X120609999Y-44057593D02*
X120676666Y-44157593D01*
X120676666Y-44157593D02*
X120743333Y-44224260D01*
X120743333Y-44224260D02*
X120809999Y-44257593D01*
X103713332Y-88550926D02*
X103779999Y-88517593D01*
X103779999Y-88517593D02*
X103879999Y-88517593D01*
X103879999Y-88517593D02*
X103979999Y-88550926D01*
X103979999Y-88550926D02*
X104046666Y-88617593D01*
X104046666Y-88617593D02*
X104079999Y-88684260D01*
X104079999Y-88684260D02*
X104113332Y-88817593D01*
X104113332Y-88817593D02*
X104113332Y-88917593D01*
X104113332Y-88917593D02*
X104079999Y-89050926D01*
X104079999Y-89050926D02*
X104046666Y-89117593D01*
X104046666Y-89117593D02*
X103979999Y-89184260D01*
X103979999Y-89184260D02*
X103879999Y-89217593D01*
X103879999Y-89217593D02*
X103813332Y-89217593D01*
X103813332Y-89217593D02*
X103713332Y-89184260D01*
X103713332Y-89184260D02*
X103679999Y-89150926D01*
X103679999Y-89150926D02*
X103679999Y-88917593D01*
X103679999Y-88917593D02*
X103813332Y-88917593D01*
X103379999Y-89217593D02*
X103379999Y-88517593D01*
X103379999Y-88517593D02*
X102979999Y-89217593D01*
X102979999Y-89217593D02*
X102979999Y-88517593D01*
X102646666Y-89217593D02*
X102646666Y-88517593D01*
X102646666Y-88517593D02*
X102479999Y-88517593D01*
X102479999Y-88517593D02*
X102379999Y-88550926D01*
X102379999Y-88550926D02*
X102313333Y-88617593D01*
X102313333Y-88617593D02*
X102279999Y-88684260D01*
X102279999Y-88684260D02*
X102246666Y-88817593D01*
X102246666Y-88817593D02*
X102246666Y-88917593D01*
X102246666Y-88917593D02*
X102279999Y-89050926D01*
X102279999Y-89050926D02*
X102313333Y-89117593D01*
X102313333Y-89117593D02*
X102379999Y-89184260D01*
X102379999Y-89184260D02*
X102479999Y-89217593D01*
X102479999Y-89217593D02*
X102646666Y-89217593D01*
X89810000Y-44757593D02*
X89810000Y-44057593D01*
X89810000Y-44057593D02*
X89643333Y-44057593D01*
X89643333Y-44057593D02*
X89543333Y-44090926D01*
X89543333Y-44090926D02*
X89476667Y-44157593D01*
X89476667Y-44157593D02*
X89443333Y-44224260D01*
X89443333Y-44224260D02*
X89410000Y-44357593D01*
X89410000Y-44357593D02*
X89410000Y-44457593D01*
X89410000Y-44457593D02*
X89443333Y-44590926D01*
X89443333Y-44590926D02*
X89476667Y-44657593D01*
X89476667Y-44657593D02*
X89543333Y-44724260D01*
X89543333Y-44724260D02*
X89643333Y-44757593D01*
X89643333Y-44757593D02*
X89810000Y-44757593D01*
X88743333Y-44757593D02*
X89143333Y-44757593D01*
X88943333Y-44757593D02*
X88943333Y-44057593D01*
X88943333Y-44057593D02*
X89010000Y-44157593D01*
X89010000Y-44157593D02*
X89076667Y-44224260D01*
X89076667Y-44224260D02*
X89143333Y-44257593D01*
X88510000Y-44057593D02*
X88076666Y-44057593D01*
X88076666Y-44057593D02*
X88310000Y-44324260D01*
X88310000Y-44324260D02*
X88210000Y-44324260D01*
X88210000Y-44324260D02*
X88143333Y-44357593D01*
X88143333Y-44357593D02*
X88110000Y-44390926D01*
X88110000Y-44390926D02*
X88076666Y-44457593D01*
X88076666Y-44457593D02*
X88076666Y-44624260D01*
X88076666Y-44624260D02*
X88110000Y-44690926D01*
X88110000Y-44690926D02*
X88143333Y-44724260D01*
X88143333Y-44724260D02*
X88210000Y-44757593D01*
X88210000Y-44757593D02*
X88410000Y-44757593D01*
X88410000Y-44757593D02*
X88476666Y-44724260D01*
X88476666Y-44724260D02*
X88510000Y-44690926D01*
X111299999Y-89017593D02*
X110966666Y-89017593D01*
X111366666Y-89217593D02*
X111133333Y-88517593D01*
X111133333Y-88517593D02*
X110899999Y-89217593D01*
X110533333Y-88517593D02*
X110466666Y-88517593D01*
X110466666Y-88517593D02*
X110399999Y-88550926D01*
X110399999Y-88550926D02*
X110366666Y-88584260D01*
X110366666Y-88584260D02*
X110333333Y-88650926D01*
X110333333Y-88650926D02*
X110299999Y-88784260D01*
X110299999Y-88784260D02*
X110299999Y-88950926D01*
X110299999Y-88950926D02*
X110333333Y-89084260D01*
X110333333Y-89084260D02*
X110366666Y-89150926D01*
X110366666Y-89150926D02*
X110399999Y-89184260D01*
X110399999Y-89184260D02*
X110466666Y-89217593D01*
X110466666Y-89217593D02*
X110533333Y-89217593D01*
X110533333Y-89217593D02*
X110599999Y-89184260D01*
X110599999Y-89184260D02*
X110633333Y-89150926D01*
X110633333Y-89150926D02*
X110666666Y-89084260D01*
X110666666Y-89084260D02*
X110699999Y-88950926D01*
X110699999Y-88950926D02*
X110699999Y-88784260D01*
X110699999Y-88784260D02*
X110666666Y-88650926D01*
X110666666Y-88650926D02*
X110633333Y-88584260D01*
X110633333Y-88584260D02*
X110599999Y-88550926D01*
X110599999Y-88550926D02*
X110533333Y-88517593D01*
M02*
