%TF.GenerationSoftware,KiCad,Pcbnew,7.0.11+dfsg-1build4*%
%TF.CreationDate,2026-10-02T09:29:19+00:00*%
%TF.ProjectId,watchmen-shield,77617463-686d-4656-9e2d-736869656c64,rev?*%
%TF.SameCoordinates,Original*%
%TF.FileFunction,Copper,L1,Top*%
%TF.FilePolarity,Positive*%
%FSLAX46Y46*%
G04 Gerber Fmt 4.6, Leading zero omitted, Abs format (unit mm)*
G04 Created by KiCad (PCBNEW 7.0.11+dfsg-1build4) date 2026-10-02 09:29:19*
%MOMM*%
%LPD*%
G01*
G04 APERTURE LIST*
G04 Aperture macros list*
%AMRoundRect*
0 Rectangle with rounded corners*
0 $1 Rounding radius*
0 $2 $3 $4 $5 $6 $7 $8 $9 X,Y pos of 4 corners*
0 Add a 4 corners polygon primitive as box body*
4,1,4,$2,$3,$4,$5,$6,$7,$8,$9,$2,$3,0*
0 Add four circle primitives for the rounded corners*
1,1,$1+$1,$2,$3*
1,1,$1+$1,$4,$5*
1,1,$1+$1,$6,$7*
1,1,$1+$1,$8,$9*
0 Add four rect primitives between the rounded corners*
20,1,$1+$1,$2,$3,$4,$5,0*
20,1,$1+$1,$4,$5,$6,$7,0*
20,1,$1+$1,$6,$7,$8,$9,0*
20,1,$1+$1,$8,$9,$2,$3,0*%
%AMFreePoly0*
4,1,19,0.500000,-0.750000,0.000000,-0.750000,0.000000,-0.744911,-0.071157,-0.744911,-0.207708,-0.704816,-0.327430,-0.627875,-0.420627,-0.520320,-0.479746,-0.390866,-0.500000,-0.250000,-0.500000,0.250000,-0.479746,0.390866,-0.420627,0.520320,-0.327430,0.627875,-0.207708,0.704816,-0.071157,0.744911,0.000000,0.744911,0.000000,0.750000,0.500000,0.750000,0.500000,-0.750000,0.500000,-0.750000,
$1*%
%AMFreePoly1*
4,1,19,0.000000,0.744911,0.071157,0.744911,0.207708,0.704816,0.327430,0.627875,0.420627,0.520320,0.479746,0.390866,0.500000,0.250000,0.500000,-0.250000,0.479746,-0.390866,0.420627,-0.520320,0.327430,-0.627875,0.207708,-0.704816,0.071157,-0.744911,0.000000,-0.744911,0.000000,-0.750000,-0.500000,-0.750000,-0.500000,0.750000,0.000000,0.750000,0.000000,0.744911,0.000000,0.744911,
$1*%
G04 Aperture macros list end*
%TA.AperFunction,SMDPad,CuDef*%
%ADD10RoundRect,0.250000X-0.262500X-0.450000X0.262500X-0.450000X0.262500X0.450000X-0.262500X0.450000X0*%
%TD*%
%TA.AperFunction,SMDPad,CuDef*%
%ADD11RoundRect,0.250000X-0.312500X-1.450000X0.312500X-1.450000X0.312500X1.450000X-0.312500X1.450000X0*%
%TD*%
%TA.AperFunction,ComponentPad*%
%ADD12R,1.600000X1.600000*%
%TD*%
%TA.AperFunction,ComponentPad*%
%ADD13C,1.600000*%
%TD*%
%TA.AperFunction,ComponentPad*%
%ADD14R,1.700000X1.700000*%
%TD*%
%TA.AperFunction,ComponentPad*%
%ADD15O,1.700000X1.700000*%
%TD*%
%TA.AperFunction,SMDPad,CuDef*%
%ADD16RoundRect,0.150000X-0.512500X-0.150000X0.512500X-0.150000X0.512500X0.150000X-0.512500X0.150000X0*%
%TD*%
%TA.AperFunction,SMDPad,CuDef*%
%ADD17RoundRect,0.250000X0.450000X-0.262500X0.450000X0.262500X-0.450000X0.262500X-0.450000X-0.262500X0*%
%TD*%
%TA.AperFunction,ComponentPad*%
%ADD18RoundRect,0.250000X-0.725000X0.600000X-0.725000X-0.600000X0.725000X-0.600000X0.725000X0.600000X0*%
%TD*%
%TA.AperFunction,ComponentPad*%
%ADD19O,1.950000X1.700000*%
%TD*%
%TA.AperFunction,SMDPad,CuDef*%
%ADD20RoundRect,0.250000X0.475000X-0.250000X0.475000X0.250000X-0.475000X0.250000X-0.475000X-0.250000X0*%
%TD*%
%TA.AperFunction,SMDPad,CuDef*%
%ADD21RoundRect,0.250000X-0.250000X-0.475000X0.250000X-0.475000X0.250000X0.475000X-0.250000X0.475000X0*%
%TD*%
%TA.AperFunction,SMDPad,CuDef*%
%ADD22RoundRect,0.243750X0.456250X-0.243750X0.456250X0.243750X-0.456250X0.243750X-0.456250X-0.243750X0*%
%TD*%
%TA.AperFunction,SMDPad,CuDef*%
%ADD23RoundRect,0.150000X-0.587500X-0.150000X0.587500X-0.150000X0.587500X0.150000X-0.587500X0.150000X0*%
%TD*%
%TA.AperFunction,ComponentPad*%
%ADD24R,2.600000X2.600000*%
%TD*%
%TA.AperFunction,ComponentPad*%
%ADD25C,2.600000*%
%TD*%
%TA.AperFunction,SMDPad,CuDef*%
%ADD26FreePoly0,0.000000*%
%TD*%
%TA.AperFunction,SMDPad,CuDef*%
%ADD27FreePoly1,0.000000*%
%TD*%
%TA.AperFunction,SMDPad,CuDef*%
%ADD28RoundRect,0.150000X0.825000X0.150000X-0.825000X0.150000X-0.825000X-0.150000X0.825000X-0.150000X0*%
%TD*%
%TA.AperFunction,ViaPad*%
%ADD29C,0.600000*%
%TD*%
%TA.AperFunction,ViaPad*%
%ADD30C,0.800000*%
%TD*%
%TA.AperFunction,Conductor*%
%ADD31C,0.250000*%
%TD*%
%TA.AperFunction,Conductor*%
%ADD32C,0.300000*%
%TD*%
%TA.AperFunction,Conductor*%
%ADD33C,0.187400*%
%TD*%
%TA.AperFunction,Conductor*%
%ADD34C,0.225000*%
%TD*%
%TA.AperFunction,Conductor*%
%ADD35C,0.700000*%
%TD*%
%TA.AperFunction,Conductor*%
%ADD36C,0.525000*%
%TD*%
%TA.AperFunction,Conductor*%
%ADD37C,0.400000*%
%TD*%
G04 APERTURE END LIST*
D10*
%TO.P,R12,1*%
%TO.N,/D1_TX*%
X117687500Y-49600000D03*
%TO.P,R12,2*%
%TO.N,/RADAR_RX*%
X119512500Y-49600000D03*
%TD*%
D11*
%TO.P,F1,1*%
%TO.N,/VMOT_IN*%
X70862500Y-62000000D03*
%TO.P,F1,2*%
%TO.N,/VMOT_F*%
X75137500Y-62000000D03*
%TD*%
D12*
%TO.P,C1,1*%
%TO.N,/VMOT*%
X65000000Y-87600000D03*
D13*
%TO.P,C1,2*%
%TO.N,GND*%
X68500000Y-87600000D03*
%TD*%
D14*
%TO.P,J2,1*%
%TO.N,/A0_SENSE*%
X110800000Y-90800000D03*
D15*
%TO.P,J2,2*%
%TO.N,/A1_SERVO1*%
X113340000Y-90800000D03*
%TO.P,J2,3*%
%TO.N,/A2_SERVO2*%
X115880000Y-90800000D03*
%TO.P,J2,4*%
%TO.N,N/C*%
X118420000Y-90800000D03*
%TO.P,J2,5*%
X120960000Y-90800000D03*
%TO.P,J2,6*%
X123500000Y-90800000D03*
%TD*%
D14*
%TO.P,J1,1*%
%TO.N,N/C*%
X87940000Y-90800000D03*
D15*
%TO.P,J1,2*%
X90480000Y-90800000D03*
%TO.P,J1,3*%
X93020000Y-90800000D03*
%TO.P,J1,4*%
%TO.N,+3V3*%
X95560000Y-90800000D03*
%TO.P,J1,5*%
%TO.N,+5V*%
X98100000Y-90800000D03*
%TO.P,J1,6*%
%TO.N,GND*%
X100640000Y-90800000D03*
%TO.P,J1,7*%
X103180000Y-90800000D03*
%TO.P,J1,8*%
%TO.N,N/C*%
X105720000Y-90800000D03*
%TD*%
D16*
%TO.P,U2,1*%
%TO.N,GND*%
X76462500Y-82850000D03*
%TO.P,U2,2*%
%TO.N,/D11_MOSI*%
X76462500Y-83800000D03*
%TO.P,U2,3*%
%TO.N,GND*%
X76462500Y-84750000D03*
%TO.P,U2,4*%
%TO.N,/LED_BUF*%
X78737500Y-84750000D03*
%TO.P,U2,5*%
%TO.N,+5V*%
X78737500Y-82850000D03*
%TD*%
D17*
%TO.P,R13,1*%
%TO.N,/D11_MOSI*%
X73400000Y-85512500D03*
%TO.P,R13,2*%
%TO.N,GND*%
X73400000Y-83687500D03*
%TD*%
D18*
%TO.P,J6,1*%
%TO.N,/STEP_4*%
X63400000Y-48200000D03*
D19*
%TO.P,J6,2*%
%TO.N,/STEP_3*%
X63400000Y-50700000D03*
%TO.P,J6,3*%
%TO.N,/STEP_2*%
X63400000Y-53200000D03*
%TO.P,J6,4*%
%TO.N,/STEP_1*%
X63400000Y-55700000D03*
%TO.P,J6,5*%
%TO.N,/VMOT*%
X63400000Y-58200000D03*
%TD*%
D10*
%TO.P,R11,1*%
%TO.N,/RADAR_TX*%
X114087500Y-49600000D03*
%TO.P,R11,2*%
%TO.N,/D0_RX*%
X115912500Y-49600000D03*
%TD*%
D20*
%TO.P,C5,1*%
%TO.N,+5V*%
X109000000Y-47550000D03*
%TO.P,C5,2*%
%TO.N,GND*%
X109000000Y-45650000D03*
%TD*%
D17*
%TO.P,R1,1*%
%TO.N,/Q1_GATE*%
X79700000Y-66712500D03*
%TO.P,R1,2*%
%TO.N,GND*%
X79700000Y-64887500D03*
%TD*%
D21*
%TO.P,C3,1*%
%TO.N,/VMOT*%
X70050000Y-46400000D03*
%TO.P,C3,2*%
%TO.N,GND*%
X71950000Y-46400000D03*
%TD*%
D17*
%TO.P,R4,1*%
%TO.N,/SENSE_DIV*%
X125500000Y-78912500D03*
%TO.P,R4,2*%
%TO.N,GND*%
X125500000Y-77087500D03*
%TD*%
D21*
%TO.P,C7,1*%
%TO.N,+5V*%
X76650000Y-80400000D03*
%TO.P,C7,2*%
%TO.N,GND*%
X78550000Y-80400000D03*
%TD*%
D20*
%TO.P,C4,1*%
%TO.N,/SW_IN*%
X125500000Y-71350000D03*
%TO.P,C4,2*%
%TO.N,GND*%
X125500000Y-69450000D03*
%TD*%
D14*
%TO.P,J4,1*%
%TO.N,/D8_IN3*%
X101660000Y-42540000D03*
D15*
%TO.P,J4,2*%
%TO.N,/D9_IN4*%
X99120000Y-42540000D03*
%TO.P,J4,3*%
%TO.N,N/C*%
X96580000Y-42540000D03*
%TO.P,J4,4*%
%TO.N,/D11_MOSI*%
X94040000Y-42540000D03*
%TO.P,J4,5*%
%TO.N,N/C*%
X91500000Y-42540000D03*
%TO.P,J4,6*%
X88960000Y-42540000D03*
%TO.P,J4,7*%
%TO.N,GND*%
X86420000Y-42540000D03*
%TO.P,J4,8*%
%TO.N,N/C*%
X83880000Y-42540000D03*
%TO.P,J4,9*%
%TO.N,/SDA*%
X81340000Y-42540000D03*
%TO.P,J4,10*%
%TO.N,/SCL*%
X78800000Y-42540000D03*
%TD*%
D14*
%TO.P,J10,1*%
%TO.N,+5V*%
X111800000Y-46600000D03*
D15*
%TO.P,J10,2*%
%TO.N,GND*%
X114340000Y-46600000D03*
%TO.P,J10,3*%
%TO.N,/RADAR_TX*%
X116880000Y-46600000D03*
%TO.P,J10,4*%
%TO.N,/RADAR_RX*%
X119420000Y-46600000D03*
%TD*%
D22*
%TO.P,D1,1*%
%TO.N,GND*%
X79700000Y-75737500D03*
%TO.P,D1,2*%
%TO.N,/PWR_LED*%
X79700000Y-73862500D03*
%TD*%
D17*
%TO.P,R5,1*%
%TO.N,/SENSE_SEL*%
X123000000Y-75112500D03*
%TO.P,R5,2*%
%TO.N,/A0_SENSE*%
X123000000Y-73287500D03*
%TD*%
D14*
%TO.P,JP1,1*%
%TO.N,/SENSE_DIV*%
X115500000Y-86600000D03*
D15*
%TO.P,JP1,2*%
%TO.N,/SENSE_SEL*%
X118040000Y-86600000D03*
%TO.P,JP1,3*%
%TO.N,+3V3*%
X120580000Y-86600000D03*
%TD*%
D17*
%TO.P,R2,1*%
%TO.N,/VMOT*%
X79700000Y-71512500D03*
%TO.P,R2,2*%
%TO.N,/PWR_LED*%
X79700000Y-69687500D03*
%TD*%
D20*
%TO.P,C6,1*%
%TO.N,+3V3*%
X107000000Y-47550000D03*
%TO.P,C6,2*%
%TO.N,GND*%
X107000000Y-45650000D03*
%TD*%
D17*
%TO.P,R14,1*%
%TO.N,/LED_BUF*%
X80300000Y-88512500D03*
%TO.P,R14,2*%
%TO.N,/LED_DIN*%
X80300000Y-86687500D03*
%TD*%
D23*
%TO.P,Q1,1*%
%TO.N,/Q1_GATE*%
X75662500Y-64850000D03*
%TO.P,Q1,2*%
%TO.N,/VMOT*%
X75662500Y-66750000D03*
%TO.P,Q1,3*%
%TO.N,/VMOT_F*%
X77537500Y-65800000D03*
%TD*%
D14*
%TO.P,J11,1*%
%TO.N,+3V3*%
X86400000Y-46600000D03*
D15*
%TO.P,J11,2*%
%TO.N,GND*%
X88940000Y-46600000D03*
%TO.P,J11,3*%
%TO.N,/SCL*%
X91480000Y-46600000D03*
%TO.P,J11,4*%
%TO.N,/SDA*%
X94020000Y-46600000D03*
%TO.P,J11,5*%
%TO.N,N/C*%
X96560000Y-46600000D03*
%TO.P,J11,6*%
X99100000Y-46600000D03*
%TO.P,J11,7*%
%TO.N,GND*%
X101640000Y-46600000D03*
%TO.P,J11,8*%
%TO.N,/D3_INT*%
X104180000Y-46600000D03*
%TD*%
D17*
%TO.P,R7,1*%
%TO.N,/A1_SERVO1*%
X91400000Y-87512500D03*
%TO.P,R7,2*%
%TO.N,/SERVO1_SIG*%
X91400000Y-85687500D03*
%TD*%
%TO.P,R3,1*%
%TO.N,/VMOT*%
X123000000Y-78912500D03*
%TO.P,R3,2*%
%TO.N,/SENSE_DIV*%
X123000000Y-77087500D03*
%TD*%
D24*
%TO.P,J5,1*%
%TO.N,/VMOT_IN*%
X64400000Y-80000000D03*
D25*
%TO.P,J5,2*%
%TO.N,GND*%
X64400000Y-74920000D03*
%TD*%
D14*
%TO.P,J3,1*%
%TO.N,/D0_RX*%
X123500000Y-42540000D03*
D15*
%TO.P,J3,2*%
%TO.N,/D1_TX*%
X120960000Y-42540000D03*
%TO.P,J3,3*%
%TO.N,/D2_SW*%
X118420000Y-42540000D03*
%TO.P,J3,4*%
%TO.N,/D3_INT*%
X115880000Y-42540000D03*
%TO.P,J3,5*%
%TO.N,/D4_IN1*%
X113340000Y-42540000D03*
%TO.P,J3,6*%
%TO.N,N/C*%
X110800000Y-42540000D03*
%TO.P,J3,7*%
X108260000Y-42540000D03*
%TO.P,J3,8*%
%TO.N,/D7_IN2*%
X105720000Y-42540000D03*
%TD*%
D17*
%TO.P,R6,1*%
%TO.N,/A0_SENSE*%
X125500000Y-75112500D03*
%TO.P,R6,2*%
%TO.N,GND*%
X125500000Y-73287500D03*
%TD*%
D26*
%TO.P,JP2,1*%
%TO.N,+5V*%
X72750000Y-77200000D03*
D27*
%TO.P,JP2,2*%
%TO.N,/VMOT*%
X74050000Y-77200000D03*
%TD*%
D17*
%TO.P,R8,1*%
%TO.N,/A2_SERVO2*%
X102400000Y-87512500D03*
%TO.P,R8,2*%
%TO.N,/SERVO2_SIG*%
X102400000Y-85687500D03*
%TD*%
D20*
%TO.P,C2,1*%
%TO.N,/VMOT*%
X71800000Y-67350000D03*
%TO.P,C2,2*%
%TO.N,GND*%
X71800000Y-65450000D03*
%TD*%
D14*
%TO.P,J8,1*%
%TO.N,/SERVO2_SIG*%
X105360000Y-86600000D03*
D15*
%TO.P,J8,2*%
%TO.N,/VMOT*%
X107900000Y-86600000D03*
%TO.P,J8,3*%
%TO.N,GND*%
X110440000Y-86600000D03*
%TD*%
D28*
%TO.P,U1,1*%
%TO.N,/D4_IN1*%
X74875000Y-57845000D03*
%TO.P,U1,2*%
%TO.N,/D7_IN2*%
X74875000Y-56575000D03*
%TO.P,U1,3*%
%TO.N,/D8_IN3*%
X74875000Y-55305000D03*
%TO.P,U1,4*%
%TO.N,/D9_IN4*%
X74875000Y-54035000D03*
%TO.P,U1,5*%
%TO.N,GND*%
X74875000Y-52765000D03*
%TO.P,U1,6*%
X74875000Y-51495000D03*
%TO.P,U1,7*%
X74875000Y-50225000D03*
%TO.P,U1,8*%
X74875000Y-48955000D03*
%TO.P,U1,9*%
%TO.N,/VMOT*%
X69925000Y-48955000D03*
%TO.P,U1,10*%
%TO.N,N/C*%
X69925000Y-50225000D03*
%TO.P,U1,11*%
X69925000Y-51495000D03*
%TO.P,U1,12*%
X69925000Y-52765000D03*
%TO.P,U1,13*%
%TO.N,/STEP_4*%
X69925000Y-54035000D03*
%TO.P,U1,14*%
%TO.N,/STEP_3*%
X69925000Y-55305000D03*
%TO.P,U1,15*%
%TO.N,/STEP_2*%
X69925000Y-56575000D03*
%TO.P,U1,16*%
%TO.N,/STEP_1*%
X69925000Y-57845000D03*
%TD*%
D17*
%TO.P,R10,1*%
%TO.N,/SW_IN*%
X123000000Y-71312500D03*
%TO.P,R10,2*%
%TO.N,/D2_SW*%
X123000000Y-69487500D03*
%TD*%
D14*
%TO.P,J9,1*%
%TO.N,/SW_IN*%
X125000000Y-63600000D03*
D15*
%TO.P,J9,2*%
%TO.N,GND*%
X125000000Y-66140000D03*
%TD*%
D14*
%TO.P,J12,1*%
%TO.N,+5V*%
X83360000Y-86600000D03*
D15*
%TO.P,J12,2*%
%TO.N,/LED_DIN*%
X85900000Y-86600000D03*
%TO.P,J12,3*%
%TO.N,GND*%
X88440000Y-86600000D03*
%TD*%
D23*
%TO.P,D2,1*%
%TO.N,GND*%
X123662500Y-80950000D03*
%TO.P,D2,2*%
%TO.N,+3V3*%
X123662500Y-82850000D03*
%TO.P,D2,3*%
%TO.N,/SENSE_DIV*%
X125537500Y-81900000D03*
%TD*%
D14*
%TO.P,J7,1*%
%TO.N,/SERVO1_SIG*%
X94360000Y-86600000D03*
D15*
%TO.P,J7,2*%
%TO.N,/VMOT*%
X96900000Y-86600000D03*
%TO.P,J7,3*%
%TO.N,GND*%
X99440000Y-86600000D03*
%TD*%
D29*
%TO.N,+3V3*%
X104020700Y-87833700D03*
X100116800Y-48186300D03*
%TO.N,+5V*%
X82158100Y-83681200D03*
X83678900Y-49428500D03*
%TO.N,/D0_RX*%
X116800100Y-48700000D03*
%TO.N,/D11_MOSI*%
X78569000Y-83885100D03*
%TO.N,/D2_SW*%
X122100300Y-68587800D03*
%TO.N,/D7_IN2*%
X77334600Y-56258700D03*
%TO.N,/Q1_GATE*%
X78468500Y-65060100D03*
X74578500Y-64272600D03*
%TO.N,/SENSE_SEL*%
X121973600Y-77846100D03*
%TO.N,/STEP_3*%
X68487200Y-54815700D03*
%TO.N,/STEP_4*%
X68445400Y-53667900D03*
%TO.N,/SW_IN*%
X124234400Y-71312500D03*
D30*
%TO.N,/VMOT*%
X125108600Y-80037700D03*
X69013900Y-48043900D03*
X75113600Y-67742700D03*
%TO.N,/VMOT_IN*%
X69922700Y-64087500D03*
D29*
%TO.N,GND*%
X70500000Y-89500000D03*
X80427098Y-77492871D03*
X112500000Y-86500000D03*
X61500000Y-65500000D03*
X73850000Y-46400000D03*
X67500000Y-50500000D03*
X61500000Y-89500000D03*
X124772901Y-67694628D03*
X79500000Y-59500000D03*
X79500000Y-56500000D03*
X115500000Y-83500000D03*
X61500000Y-80500000D03*
X73500000Y-62500000D03*
X76500000Y-47500000D03*
X118500000Y-83500000D03*
X73500000Y-71500000D03*
X67500000Y-77500000D03*
X61500000Y-59500000D03*
X72672901Y-81932128D03*
X124500000Y-47500000D03*
X112500000Y-83500000D03*
X67500000Y-44500000D03*
X67500000Y-41500000D03*
X64500000Y-71500000D03*
X67500000Y-89500000D03*
X75118997Y-81506497D03*
X67500000Y-59500000D03*
X76852943Y-78702943D03*
X79500000Y-47500000D03*
X61500000Y-86500000D03*
X72527098Y-63694628D03*
X61500000Y-77500000D03*
X73500000Y-65500000D03*
X77036525Y-86135819D03*
X64500000Y-44500000D03*
X70500000Y-41500000D03*
X61500000Y-44500000D03*
X111217310Y-44731559D03*
X85500000Y-89500000D03*
X64500000Y-83500000D03*
X70500000Y-77500000D03*
X70500000Y-74500000D03*
X79700000Y-62987500D03*
X76500000Y-74500000D03*
X101195382Y-86471200D03*
X109500000Y-83500000D03*
X124216372Y-75866372D03*
X67500000Y-65500000D03*
X64500000Y-62500000D03*
X70500000Y-44500000D03*
X90073686Y-86471200D03*
X61500000Y-41500000D03*
X61500000Y-71500000D03*
X79500000Y-53500000D03*
X82500000Y-89500000D03*
X61500000Y-62500000D03*
X67500000Y-68500000D03*
X67500000Y-71500000D03*
X127717310Y-74205940D03*
X73500000Y-80500000D03*
X74300974Y-47569180D03*
X70500000Y-83500000D03*
X76500000Y-68500000D03*
X106500000Y-83500000D03*
X76500000Y-89500000D03*
X73500000Y-59500000D03*
X61500000Y-68500000D03*
X79500000Y-44500000D03*
X64500000Y-65500000D03*
X64500000Y-68500000D03*
X67500000Y-80500000D03*
X113651872Y-48053397D03*
X61500000Y-83500000D03*
X70500000Y-86500000D03*
X61500000Y-74500000D03*
X73500000Y-74500000D03*
X124500000Y-53500000D03*
X124500000Y-50500000D03*
X64500000Y-41500000D03*
X67500000Y-47500000D03*
%TD*%
D31*
%TO.N,+3V3*%
X121089400Y-85423100D02*
X123662500Y-82850000D01*
X119403100Y-86965800D02*
X119403100Y-86600000D01*
X118535200Y-87833700D02*
X119403100Y-86965800D01*
X104020700Y-87833700D02*
X118535200Y-87833700D01*
X120580000Y-86600000D02*
X119403100Y-86600000D01*
X107000000Y-47550000D02*
X106363700Y-48186300D01*
X120580000Y-86600000D02*
X120580000Y-85423100D01*
X120580000Y-85423100D02*
X121089400Y-85423100D01*
X106363700Y-48186300D02*
X100116800Y-48186300D01*
D32*
%TO.N,+5V*%
X110824200Y-47738400D02*
X110824200Y-47738500D01*
X76650000Y-80762500D02*
X78737500Y-82850000D01*
X109950000Y-46600000D02*
X109000000Y-47550000D01*
X84561900Y-86975700D02*
X84561900Y-86600000D01*
X92439700Y-92001900D02*
X91750000Y-91312200D01*
X98100000Y-90800000D02*
X96898100Y-90800000D01*
X72750000Y-77729900D02*
X72750000Y-77200000D01*
X85388100Y-87801900D02*
X84561900Y-86975700D01*
X91750000Y-91312200D02*
X91750000Y-90300300D01*
X83360000Y-86600000D02*
X84561900Y-86600000D01*
X76650000Y-80400000D02*
X76650000Y-80762500D01*
X89251600Y-87801900D02*
X85388100Y-87801900D01*
X110635800Y-47550000D02*
X110824200Y-47738400D01*
X96071900Y-92001900D02*
X92439700Y-92001900D01*
X78737500Y-82850000D02*
X79568700Y-83681200D01*
X79568700Y-83681200D02*
X82158100Y-83681200D01*
X109134200Y-49428500D02*
X83678900Y-49428500D01*
X96898100Y-91175700D02*
X96071900Y-92001900D01*
X110824200Y-47738500D02*
X109134200Y-49428500D01*
X111800000Y-46600000D02*
X109950000Y-46600000D01*
X76650000Y-80400000D02*
X75420100Y-80400000D01*
X75420100Y-80400000D02*
X72750000Y-77729900D01*
X109000000Y-47550000D02*
X110635800Y-47550000D01*
X91750000Y-90300300D02*
X89251600Y-87801900D01*
X96898100Y-90800000D02*
X96898100Y-91175700D01*
D31*
%TO.N,/A0_SENSE*%
X126615200Y-76227700D02*
X125500000Y-75112500D01*
X122637500Y-86006000D02*
X125167500Y-83476000D01*
X125167500Y-83476000D02*
X125438100Y-83476000D01*
X125438100Y-83476000D02*
X126615200Y-82298900D01*
X125500000Y-75112500D02*
X124825000Y-75112500D01*
X122637500Y-86283700D02*
X122637500Y-86006000D01*
X110800000Y-90800000D02*
X111978700Y-91978700D01*
X117150000Y-91203500D02*
X117150000Y-90374600D01*
X126615200Y-82298900D02*
X126615200Y-76227700D01*
X118392200Y-89132400D02*
X119788800Y-89132400D01*
X124825000Y-75112500D02*
X123000000Y-73287500D01*
X116374800Y-91978700D02*
X117150000Y-91203500D01*
X117150000Y-90374600D02*
X118392200Y-89132400D01*
X119788800Y-89132400D02*
X122637500Y-86283700D01*
X111978700Y-91978700D02*
X116374800Y-91978700D01*
%TO.N,/A1_SERVO1*%
X91400000Y-87512500D02*
X93192800Y-89305300D01*
X111477600Y-89305300D02*
X112163100Y-89990800D01*
X93192800Y-89305300D02*
X111477600Y-89305300D01*
X113340000Y-90800000D02*
X112163100Y-90800000D01*
X112163100Y-89990800D02*
X112163100Y-90800000D01*
%TO.N,/A2_SERVO2*%
X114703100Y-90430000D02*
X114703100Y-90800000D01*
X112792500Y-88519400D02*
X114703100Y-90430000D01*
X102400000Y-87512500D02*
X103406900Y-88519400D01*
X103406900Y-88519400D02*
X112792500Y-88519400D01*
X115880000Y-90800000D02*
X114703100Y-90800000D01*
%TO.N,/D0_RX*%
X115912500Y-49587600D02*
X115912500Y-49600000D01*
X116800100Y-48700000D02*
X115912500Y-49587600D01*
%TO.N,/D11_MOSI*%
X73400000Y-85512500D02*
X73603300Y-85512500D01*
X76547600Y-83885100D02*
X76462500Y-83800000D01*
D33*
X76138500Y-84124000D02*
X76462500Y-83800000D01*
D31*
X73603300Y-85512500D02*
X74991800Y-84124000D01*
X78569000Y-83885100D02*
X76547600Y-83885100D01*
D33*
X74991800Y-84124000D02*
X76138500Y-84124000D01*
D31*
%TO.N,/D1_TX*%
X118224300Y-46084800D02*
X118224300Y-49063200D01*
X120960000Y-43716900D02*
X120592200Y-43716900D01*
X120592200Y-43716900D02*
X118224300Y-46084800D01*
X118224300Y-49063200D02*
X117687500Y-49600000D01*
X120960000Y-42540000D02*
X120960000Y-43716900D01*
%TO.N,/D2_SW*%
X122100300Y-68587800D02*
X123000000Y-69487500D01*
%TO.N,/D3_INT*%
X107321500Y-43716900D02*
X105356900Y-45681500D01*
X105356900Y-45681500D02*
X105356900Y-46600000D01*
X104180000Y-46600000D02*
X105356900Y-46600000D01*
X113894100Y-43716900D02*
X107321500Y-43716900D01*
X114703100Y-42907900D02*
X113894100Y-43716900D01*
X114703100Y-42540000D02*
X114703100Y-42907900D01*
X115880000Y-42540000D02*
X114703100Y-42540000D01*
%TO.N,/D4_IN1*%
X83717300Y-50491600D02*
X83960400Y-50248500D01*
X76643000Y-57845000D02*
X83717300Y-50770700D01*
X83960400Y-50248500D02*
X110324500Y-50248500D01*
X117070100Y-43098400D02*
X117070100Y-42063700D01*
X113070000Y-47503000D02*
X113070000Y-46091600D01*
X115242900Y-43918700D02*
X116249800Y-43918700D01*
X117070100Y-42063700D02*
X116364800Y-41358400D01*
X114521600Y-41358400D02*
X113340000Y-42540000D01*
X113070000Y-46091600D02*
X115242900Y-43918700D01*
X74875000Y-57845000D02*
X76643000Y-57845000D01*
X116249800Y-43918700D02*
X117070100Y-43098400D01*
X83717300Y-50770700D02*
X83717300Y-50491600D01*
X110324500Y-50248500D02*
X113070000Y-47503000D01*
X116364800Y-41358400D02*
X114521600Y-41358400D01*
%TO.N,/D7_IN2*%
X75191300Y-56258700D02*
X77334600Y-56258700D01*
X74875000Y-56575000D02*
X75191300Y-56258700D01*
%TO.N,/D8_IN3*%
X100370000Y-45006900D02*
X100370000Y-47011700D01*
X101660000Y-43716900D02*
X100370000Y-45006900D01*
X82491600Y-48320800D02*
X76151400Y-54661000D01*
D33*
X75519000Y-54661000D02*
X74875000Y-55305000D01*
D31*
X100370000Y-47011700D02*
X99060900Y-48320800D01*
X101660000Y-42540000D02*
X101660000Y-43716900D01*
X99060900Y-48320800D02*
X82491600Y-48320800D01*
D33*
X76151400Y-54661000D02*
X75519000Y-54661000D01*
D31*
%TO.N,/D9_IN4*%
X81679500Y-47868900D02*
X76157400Y-53391000D01*
X96967000Y-47868900D02*
X81679500Y-47868900D01*
D33*
X76157400Y-53391000D02*
X75519000Y-53391000D01*
D31*
X99120000Y-42540000D02*
X99120000Y-43716900D01*
X97830000Y-47005900D02*
X96967000Y-47868900D01*
X97830000Y-45006900D02*
X97830000Y-47005900D01*
D33*
X75519000Y-53391000D02*
X74875000Y-54035000D01*
D31*
X99120000Y-43716900D02*
X97830000Y-45006900D01*
%TO.N,/LED_BUF*%
X80300000Y-88512500D02*
X78737500Y-86950000D01*
X78737500Y-86950000D02*
X78737500Y-84750000D01*
%TO.N,/LED_DIN*%
X80300000Y-86687500D02*
X81587200Y-85400300D01*
X81587200Y-85400300D02*
X84700300Y-85400300D01*
X84700300Y-85400300D02*
X85900000Y-86600000D01*
%TO.N,/PWR_LED*%
X80759700Y-72802800D02*
X79700000Y-73862500D01*
X79700000Y-69687500D02*
X80759700Y-70747200D01*
X80759700Y-70747200D02*
X80759700Y-72802800D01*
%TO.N,/Q1_GATE*%
X79700000Y-66712500D02*
X79700000Y-66483400D01*
D33*
X75085100Y-64272600D02*
X74578500Y-64272600D01*
X75662500Y-64850000D02*
X75085100Y-64272600D01*
D31*
X78468500Y-65251900D02*
X78468500Y-65060100D01*
X79700000Y-66483400D02*
X78468500Y-65251900D01*
%TO.N,/RADAR_RX*%
X119420000Y-46600000D02*
X119420000Y-49507500D01*
X119420000Y-49507500D02*
X119512500Y-49600000D01*
%TO.N,/RADAR_TX*%
X116880000Y-47776900D02*
X115910600Y-47776900D01*
X115910600Y-47776900D02*
X114087500Y-49600000D01*
X116880000Y-46600000D02*
X116880000Y-47776900D01*
%TO.N,/SCL*%
X78800000Y-42540000D02*
X79976900Y-42540000D01*
X91480000Y-46600000D02*
X90303100Y-46600000D01*
X90303100Y-46234200D02*
X90303100Y-46600000D01*
X79976900Y-42907900D02*
X82100900Y-45031900D01*
X79976900Y-42540000D02*
X79976900Y-42907900D01*
X89100800Y-45031900D02*
X90303100Y-46234200D01*
X82100900Y-45031900D02*
X89100800Y-45031900D01*
%TO.N,/SDA*%
X83369000Y-43716900D02*
X90325800Y-43716900D01*
X82516900Y-42864800D02*
X83369000Y-43716900D01*
X94020000Y-46600000D02*
X92843100Y-46600000D01*
X81340000Y-42540000D02*
X82516900Y-42540000D01*
X82516900Y-42540000D02*
X82516900Y-42864800D01*
X90325800Y-43716900D02*
X92843100Y-46234200D01*
X92843100Y-46234200D02*
X92843100Y-46600000D01*
%TO.N,/SENSE_DIV*%
X124825000Y-78912500D02*
X125500000Y-78912500D01*
X117485900Y-85423100D02*
X116676900Y-86232100D01*
X125835500Y-79248000D02*
X125500000Y-78912500D01*
X125835500Y-81602000D02*
X125835500Y-79248000D01*
X115500000Y-86600000D02*
X116676900Y-86600000D01*
X123000000Y-77087500D02*
X124825000Y-78912500D01*
X125537500Y-81900000D02*
X122924400Y-81900000D01*
X125537500Y-81900000D02*
X125835500Y-81602000D01*
X122924400Y-81900000D02*
X119401300Y-85423100D01*
X119401300Y-85423100D02*
X117485900Y-85423100D01*
X116676900Y-86232100D02*
X116676900Y-86600000D01*
D33*
%TO.N,/SENSE_SEL*%
X121973600Y-77846100D02*
X121973600Y-76358300D01*
D31*
X121863900Y-76248600D02*
X123000000Y-75112500D01*
D33*
X121973600Y-76358300D02*
X121863900Y-76248600D01*
D31*
%TO.N,/SERVO1_SIG*%
X92312500Y-86600000D02*
X91400000Y-85687500D01*
X94360000Y-86600000D02*
X92312500Y-86600000D01*
%TO.N,/SERVO2_SIG*%
X105360000Y-86600000D02*
X103312500Y-86600000D01*
X103312500Y-86600000D02*
X102400000Y-85687500D01*
D34*
%TO.N,/STEP_1*%
X69306000Y-57226000D02*
X69925000Y-57845000D01*
D32*
X64401300Y-56901900D02*
X64725400Y-57226000D01*
X63400000Y-56901900D02*
X64401300Y-56901900D01*
D34*
X64725400Y-57226000D02*
X69306000Y-57226000D01*
D32*
X63400000Y-55700000D02*
X63400000Y-56901900D01*
%TO.N,/STEP_2*%
X63400000Y-53200000D02*
X65934700Y-53200000D01*
D34*
X68690700Y-55956000D02*
X69306000Y-55956000D01*
D32*
X65934700Y-53200000D02*
X68690700Y-55956000D01*
D34*
X69306000Y-55956000D02*
X69925000Y-56575000D01*
%TO.N,/STEP_3*%
X68976500Y-55305000D02*
X68487200Y-54815700D01*
X69925000Y-55305000D02*
X68976500Y-55305000D01*
%TO.N,/STEP_4*%
X69925000Y-54035000D02*
X69557900Y-53667900D01*
X69557900Y-53667900D02*
X68445400Y-53667900D01*
D31*
%TO.N,/SW_IN*%
X124234400Y-71312500D02*
X124271900Y-71350000D01*
X124271900Y-71350000D02*
X125500000Y-71350000D01*
X124234400Y-71312500D02*
X123000000Y-71312500D01*
D35*
%TO.N,/VMOT*%
X74050000Y-77200000D02*
X77750600Y-77200000D01*
X75113600Y-67742700D02*
X75113600Y-71512500D01*
D36*
X75113600Y-71512500D02*
X79700000Y-71512500D01*
D35*
X125108600Y-80037700D02*
X124125200Y-80037700D01*
X77750600Y-77200000D02*
X85171300Y-84620700D01*
X71800000Y-67350000D02*
X64051900Y-59601900D01*
X63400000Y-58200000D02*
X63400000Y-59601900D01*
X69013900Y-48043900D02*
X69925000Y-48955000D01*
X105920700Y-84620700D02*
X107900000Y-86600000D01*
X85171300Y-84620700D02*
X96900000Y-84620700D01*
X75062500Y-67350000D02*
X75662500Y-66750000D01*
X124125200Y-80037700D02*
X123000000Y-78912500D01*
X96900000Y-84620700D02*
X105920700Y-84620700D01*
X75062500Y-67691600D02*
X75062500Y-67350000D01*
X64051900Y-59601900D02*
X63400000Y-59601900D01*
X96900000Y-86600000D02*
X96900000Y-85198100D01*
X70050000Y-46400000D02*
X69925000Y-46525000D01*
X75113600Y-71512500D02*
X75113600Y-76136400D01*
X69925000Y-46525000D02*
X69925000Y-48955000D01*
X71800000Y-67350000D02*
X75062500Y-67350000D01*
X96900000Y-84620700D02*
X96900000Y-85198100D01*
X75113600Y-76136400D02*
X74050000Y-77200000D01*
X75113600Y-67742700D02*
X75062500Y-67691600D01*
%TO.N,/VMOT_F*%
X76989900Y-64265600D02*
X76989900Y-63852400D01*
X77616500Y-65721000D02*
X77616500Y-64892100D01*
X77616500Y-64892100D02*
X76990000Y-64265600D01*
X76990000Y-64265600D02*
X76989900Y-64265600D01*
X76989900Y-63852400D02*
X75137500Y-62000000D01*
X77537500Y-65800000D02*
X77616500Y-65721000D01*
%TO.N,/VMOT_IN*%
X69922700Y-64087500D02*
X69922700Y-62939800D01*
X69922700Y-62939800D02*
X70862500Y-62000000D01*
D37*
%TO.N,GND*%
X76462500Y-84750000D02*
X77036525Y-86135819D01*
X71800000Y-65450000D02*
X72527098Y-63694628D01*
X73400000Y-83687500D02*
X72672901Y-81932128D01*
X79700000Y-64887500D02*
X79700000Y-62987500D01*
X79700000Y-75737500D02*
X80427098Y-77492871D01*
X74875000Y-48955000D02*
X74300974Y-47569180D01*
X78550000Y-80400000D02*
X76852943Y-78702943D01*
X125500000Y-69450000D02*
X124772901Y-67694628D01*
X109000000Y-45650000D02*
X111217310Y-44731559D01*
X125500000Y-73287500D02*
X127717310Y-74205940D01*
X76462500Y-82850000D02*
X75118997Y-81506497D01*
X71950000Y-46400000D02*
X73850000Y-46400000D01*
%TD*%
%TA.AperFunction,Conductor*%
%TO.N,GND*%
G36*
X102720507Y-90590156D02*
G01*
X102680000Y-90728111D01*
X102680000Y-90871889D01*
X102720507Y-91009844D01*
X102746314Y-91050000D01*
X101073686Y-91050000D01*
X101099493Y-91009844D01*
X101140000Y-90871889D01*
X101140000Y-90728111D01*
X101099493Y-90590156D01*
X101073686Y-90550000D01*
X102746314Y-90550000D01*
X102720507Y-90590156D01*
G37*
%TD.AperFunction*%
%TA.AperFunction,Conductor*%
G36*
X101342539Y-85290885D02*
G01*
X101388294Y-85343689D01*
X101399500Y-85395200D01*
X101399500Y-85993102D01*
X101405126Y-86039954D01*
X101410122Y-86081561D01*
X101465639Y-86222343D01*
X101557077Y-86342922D01*
X101677656Y-86434360D01*
X101677657Y-86434360D01*
X101677658Y-86434361D01*
X101805171Y-86484646D01*
X101860314Y-86527551D01*
X101883507Y-86593459D01*
X101867386Y-86661444D01*
X101817070Y-86709920D01*
X101805178Y-86715351D01*
X101753663Y-86735665D01*
X101677656Y-86765639D01*
X101557077Y-86857077D01*
X101465639Y-86977656D01*
X101410122Y-87118438D01*
X101404617Y-87164284D01*
X101399500Y-87206898D01*
X101399500Y-87818102D01*
X101405126Y-87864954D01*
X101410122Y-87906561D01*
X101465639Y-88047343D01*
X101557077Y-88167922D01*
X101677656Y-88259360D01*
X101677657Y-88259360D01*
X101677658Y-88259361D01*
X101818436Y-88314877D01*
X101906898Y-88325500D01*
X102559890Y-88325500D01*
X102626929Y-88345185D01*
X102647571Y-88361819D01*
X102953871Y-88668119D01*
X102987356Y-88729442D01*
X102982372Y-88799134D01*
X102940500Y-88855067D01*
X102875036Y-88879484D01*
X102866190Y-88879800D01*
X93420409Y-88879800D01*
X93353370Y-88860115D01*
X93332728Y-88843481D01*
X92433133Y-87943885D01*
X92399648Y-87882562D01*
X92397699Y-87841423D01*
X92400500Y-87818102D01*
X92400500Y-87206898D01*
X92395382Y-87164281D01*
X92406934Y-87095376D01*
X92453906Y-87043652D01*
X92518498Y-87025500D01*
X93085501Y-87025500D01*
X93152540Y-87045185D01*
X93198295Y-87097989D01*
X93209501Y-87149500D01*
X93209501Y-87494856D01*
X93209502Y-87494882D01*
X93212413Y-87519987D01*
X93212415Y-87519991D01*
X93257793Y-87622764D01*
X93257794Y-87622765D01*
X93337235Y-87702206D01*
X93440009Y-87747585D01*
X93465135Y-87750500D01*
X95254864Y-87750499D01*
X95254879Y-87750497D01*
X95254882Y-87750497D01*
X95279987Y-87747586D01*
X95279988Y-87747585D01*
X95279991Y-87747585D01*
X95382765Y-87702206D01*
X95462206Y-87622765D01*
X95507585Y-87519991D01*
X95510500Y-87494865D01*
X95510499Y-86756046D01*
X95530183Y-86689009D01*
X95582987Y-86643254D01*
X95652146Y-86633310D01*
X95715702Y-86662335D01*
X95753476Y-86721113D01*
X95757970Y-86744606D01*
X95759919Y-86765639D01*
X95764244Y-86812310D01*
X95820412Y-87009718D01*
X95822596Y-87017392D01*
X95822596Y-87017394D01*
X95917632Y-87208253D01*
X96042143Y-87373130D01*
X96046128Y-87378407D01*
X96203698Y-87522052D01*
X96384981Y-87634298D01*
X96583802Y-87711321D01*
X96793390Y-87750500D01*
X96793392Y-87750500D01*
X97006608Y-87750500D01*
X97006610Y-87750500D01*
X97216198Y-87711321D01*
X97415019Y-87634298D01*
X97596302Y-87522052D01*
X97753872Y-87378407D01*
X97882366Y-87208255D01*
X97899916Y-87173009D01*
X97977403Y-87017394D01*
X97977403Y-87017392D01*
X97977405Y-87017389D01*
X97998928Y-86941744D01*
X98036206Y-86882653D01*
X98099515Y-86853095D01*
X98168755Y-86862457D01*
X98221942Y-86907766D01*
X98237968Y-86943587D01*
X98260894Y-87029150D01*
X98260898Y-87029159D01*
X98353333Y-87227387D01*
X98478787Y-87406554D01*
X98633445Y-87561212D01*
X98812612Y-87686666D01*
X99010843Y-87779103D01*
X99190000Y-87827106D01*
X99190000Y-87035501D01*
X99297685Y-87084680D01*
X99404237Y-87100000D01*
X99475763Y-87100000D01*
X99582315Y-87084680D01*
X99690000Y-87035501D01*
X99690000Y-87827105D01*
X99869156Y-87779103D01*
X99869157Y-87779103D01*
X100067387Y-87686666D01*
X100246554Y-87561212D01*
X100401212Y-87406554D01*
X100526666Y-87227387D01*
X100619101Y-87029159D01*
X100619105Y-87029150D01*
X100667108Y-86850000D01*
X99873686Y-86850000D01*
X99899493Y-86809844D01*
X99940000Y-86671889D01*
X99940000Y-86528111D01*
X99899493Y-86390156D01*
X99873686Y-86350000D01*
X100667108Y-86350000D01*
X100667108Y-86349999D01*
X100619105Y-86170849D01*
X100619101Y-86170840D01*
X100526666Y-85972612D01*
X100526664Y-85972608D01*
X100401216Y-85793450D01*
X100401211Y-85793444D01*
X100246554Y-85638787D01*
X100067389Y-85513334D01*
X100055055Y-85507583D01*
X100002615Y-85461411D01*
X99983463Y-85394217D01*
X100003678Y-85327336D01*
X100056843Y-85282001D01*
X100107459Y-85271200D01*
X101275500Y-85271200D01*
X101342539Y-85290885D01*
G37*
%TD.AperFunction*%
%TA.AperFunction,Conductor*%
G36*
X90342539Y-85290885D02*
G01*
X90388294Y-85343689D01*
X90399500Y-85395200D01*
X90399500Y-85993102D01*
X90405126Y-86039954D01*
X90410122Y-86081561D01*
X90465639Y-86222343D01*
X90557077Y-86342922D01*
X90677656Y-86434360D01*
X90677657Y-86434360D01*
X90677658Y-86434361D01*
X90805171Y-86484646D01*
X90860314Y-86527551D01*
X90883507Y-86593459D01*
X90867386Y-86661444D01*
X90817070Y-86709920D01*
X90805178Y-86715351D01*
X90753663Y-86735665D01*
X90677656Y-86765639D01*
X90557077Y-86857077D01*
X90465639Y-86977656D01*
X90410122Y-87118438D01*
X90404617Y-87164284D01*
X90399500Y-87206898D01*
X90399500Y-87818102D01*
X90405126Y-87864954D01*
X90410122Y-87906561D01*
X90462570Y-88039560D01*
X90468851Y-88109147D01*
X90436514Y-88171083D01*
X90375825Y-88205704D01*
X90306053Y-88202019D01*
X90259534Y-88172731D01*
X89592968Y-87506165D01*
X89583702Y-87495797D01*
X89578981Y-87489877D01*
X89561479Y-87467930D01*
X89561478Y-87467929D01*
X89561477Y-87467928D01*
X89535950Y-87450524D01*
X89514233Y-87435718D01*
X89510469Y-87433047D01*
X89464486Y-87399109D01*
X89456897Y-87395098D01*
X89449275Y-87391428D01*
X89394649Y-87374579D01*
X89390244Y-87373130D01*
X89336295Y-87354252D01*
X89327926Y-87352668D01*
X89319504Y-87351400D01*
X89319502Y-87351400D01*
X89262338Y-87351400D01*
X89257701Y-87351313D01*
X89255685Y-87351237D01*
X89200589Y-87349175D01*
X89191356Y-87350216D01*
X89191262Y-87349386D01*
X89175964Y-87351400D01*
X87011355Y-87351400D01*
X86944316Y-87331715D01*
X86898561Y-87278911D01*
X86888617Y-87209753D01*
X86900355Y-87172129D01*
X86977403Y-87017394D01*
X86977403Y-87017393D01*
X86977405Y-87017389D01*
X87035756Y-86812310D01*
X87055429Y-86600000D01*
X87035756Y-86387690D01*
X86977405Y-86182611D01*
X86977403Y-86182606D01*
X86977403Y-86182605D01*
X86882367Y-85991746D01*
X86753872Y-85821593D01*
X86720179Y-85790878D01*
X86596302Y-85677948D01*
X86415019Y-85565702D01*
X86415017Y-85565701D01*
X86273369Y-85510827D01*
X86217968Y-85468254D01*
X86194377Y-85402487D01*
X86210088Y-85334407D01*
X86260112Y-85285628D01*
X86318163Y-85271200D01*
X90275500Y-85271200D01*
X90342539Y-85290885D01*
G37*
%TD.AperFunction*%
%TA.AperFunction,Conductor*%
G36*
X77496831Y-77870185D02*
G01*
X77517473Y-77886819D01*
X78765146Y-79134492D01*
X78798631Y-79195815D01*
X78796641Y-79223638D01*
X78800000Y-79223638D01*
X78800000Y-80150000D01*
X79450000Y-80150000D01*
X79450000Y-80118708D01*
X79469685Y-80051669D01*
X79522489Y-80005914D01*
X79591647Y-79995970D01*
X79655203Y-80024995D01*
X79661681Y-80031027D01*
X82577298Y-82946644D01*
X82610783Y-83007967D01*
X82605799Y-83077659D01*
X82563927Y-83133592D01*
X82498463Y-83158009D01*
X82442165Y-83148886D01*
X82314865Y-83096157D01*
X82314860Y-83096155D01*
X82158101Y-83075518D01*
X82158099Y-83075518D01*
X82001339Y-83096155D01*
X82001337Y-83096156D01*
X81855257Y-83156664D01*
X81792167Y-83205076D01*
X81726998Y-83230270D01*
X81716681Y-83230700D01*
X79819764Y-83230700D01*
X79752725Y-83211015D01*
X79706970Y-83158211D01*
X79697487Y-83092263D01*
X79696942Y-83092212D01*
X79697154Y-83089946D01*
X79697026Y-83089053D01*
X79697466Y-83086618D01*
X79700500Y-83054269D01*
X79700500Y-82645730D01*
X79697646Y-82615300D01*
X79697646Y-82615298D01*
X79660635Y-82509530D01*
X79652793Y-82487118D01*
X79572150Y-82377850D01*
X79462882Y-82297207D01*
X79462880Y-82297206D01*
X79334700Y-82252353D01*
X79304270Y-82249500D01*
X79304266Y-82249500D01*
X78825466Y-82249500D01*
X78758427Y-82229815D01*
X78737785Y-82213181D01*
X78534557Y-82009953D01*
X78261283Y-81736679D01*
X78227799Y-81675358D01*
X78232783Y-81605667D01*
X78264996Y-81562634D01*
X78263681Y-81561319D01*
X78272828Y-81552171D01*
X78274654Y-81549733D01*
X78275631Y-81549368D01*
X78300000Y-81525000D01*
X78300000Y-80650000D01*
X78800000Y-80650000D01*
X78800000Y-81525000D01*
X78865634Y-81525000D01*
X78865649Y-81524999D01*
X78902489Y-81522100D01*
X78902495Y-81522099D01*
X79060193Y-81476283D01*
X79060196Y-81476282D01*
X79201552Y-81392685D01*
X79201561Y-81392678D01*
X79317678Y-81276561D01*
X79317685Y-81276552D01*
X79401282Y-81135196D01*
X79401283Y-81135193D01*
X79447099Y-80977495D01*
X79447100Y-80977489D01*
X79449999Y-80940649D01*
X79450000Y-80940634D01*
X79450000Y-80650000D01*
X78800000Y-80650000D01*
X78300000Y-80650000D01*
X78300000Y-79275000D01*
X78234350Y-79275000D01*
X78197510Y-79277899D01*
X78197504Y-79277900D01*
X78039806Y-79323716D01*
X78039803Y-79323717D01*
X77898447Y-79407314D01*
X77898438Y-79407321D01*
X77782321Y-79523438D01*
X77782314Y-79523447D01*
X77698717Y-79664803D01*
X77698716Y-79664804D01*
X77668666Y-79768238D01*
X77631059Y-79827123D01*
X77567587Y-79856329D01*
X77498400Y-79846583D01*
X77445466Y-79800978D01*
X77434238Y-79779137D01*
X77389151Y-79664804D01*
X77384361Y-79652657D01*
X77292922Y-79532077D01*
X77172343Y-79440639D01*
X77076192Y-79402722D01*
X77031564Y-79385123D01*
X77031563Y-79385122D01*
X77031561Y-79385122D01*
X76985926Y-79379642D01*
X76943102Y-79374500D01*
X76356898Y-79374500D01*
X76317853Y-79379188D01*
X76268438Y-79385122D01*
X76127656Y-79440639D01*
X76007077Y-79532077D01*
X75915639Y-79652656D01*
X75860122Y-79793438D01*
X75859217Y-79800978D01*
X75854497Y-79840285D01*
X75826961Y-79904497D01*
X75769079Y-79943631D01*
X75731382Y-79949500D01*
X75658065Y-79949500D01*
X75591026Y-79929815D01*
X75570384Y-79913181D01*
X74114342Y-78457139D01*
X74080857Y-78395816D01*
X74085841Y-78326124D01*
X74127713Y-78270191D01*
X74184376Y-78246720D01*
X74208016Y-78243322D01*
X74345971Y-78202815D01*
X74425120Y-78166669D01*
X74546074Y-78088937D01*
X74611836Y-78031954D01*
X74643318Y-77995620D01*
X74705981Y-77923304D01*
X74705982Y-77923301D01*
X74705990Y-77923293D01*
X74716165Y-77907459D01*
X74768968Y-77861706D01*
X74820480Y-77850500D01*
X77429792Y-77850500D01*
X77496831Y-77870185D01*
G37*
%TD.AperFunction*%
%TA.AperFunction,Conductor*%
G36*
X124205703Y-75095397D02*
G01*
X124212181Y-75101429D01*
X124465172Y-75354420D01*
X124498657Y-75415743D01*
X124500605Y-75427308D01*
X124502300Y-75441415D01*
X124510122Y-75506562D01*
X124565639Y-75647343D01*
X124657077Y-75767922D01*
X124777656Y-75859360D01*
X124777657Y-75859360D01*
X124777658Y-75859361D01*
X124918436Y-75914877D01*
X125006898Y-75925500D01*
X125659890Y-75925500D01*
X125726929Y-75945185D01*
X125747571Y-75961819D01*
X125767695Y-75981943D01*
X125801180Y-76043266D01*
X125796196Y-76112958D01*
X125767695Y-76157305D01*
X125750000Y-76175000D01*
X125750000Y-77213500D01*
X125730315Y-77280539D01*
X125677511Y-77326294D01*
X125626000Y-77337500D01*
X124400000Y-77337500D01*
X124400000Y-77415649D01*
X124402899Y-77452489D01*
X124446768Y-77603487D01*
X124446568Y-77673356D01*
X124408625Y-77732026D01*
X124344987Y-77760869D01*
X124275857Y-77750728D01*
X124240010Y-77725762D01*
X124033133Y-77518885D01*
X123999648Y-77457562D01*
X123997699Y-77416423D01*
X124000500Y-77393102D01*
X124000500Y-76837500D01*
X124400000Y-76837500D01*
X125250000Y-76837500D01*
X125250000Y-76175000D01*
X124984350Y-76175000D01*
X124947510Y-76177899D01*
X124947504Y-76177900D01*
X124789806Y-76223716D01*
X124789803Y-76223717D01*
X124648447Y-76307314D01*
X124648438Y-76307321D01*
X124532321Y-76423438D01*
X124532314Y-76423447D01*
X124448717Y-76564803D01*
X124448716Y-76564806D01*
X124402900Y-76722504D01*
X124402899Y-76722510D01*
X124400000Y-76759350D01*
X124400000Y-76837500D01*
X124000500Y-76837500D01*
X124000500Y-76781898D01*
X123989877Y-76693436D01*
X123934361Y-76552658D01*
X123934360Y-76552657D01*
X123934360Y-76552656D01*
X123842922Y-76432077D01*
X123722343Y-76340639D01*
X123581561Y-76285122D01*
X123535926Y-76279642D01*
X123493102Y-76274500D01*
X122739110Y-76274500D01*
X122672071Y-76254815D01*
X122626316Y-76202011D01*
X122616372Y-76132853D01*
X122645397Y-76069297D01*
X122651429Y-76062819D01*
X122752429Y-75961819D01*
X122813752Y-75928334D01*
X122840110Y-75925500D01*
X123493097Y-75925500D01*
X123493102Y-75925500D01*
X123581564Y-75914877D01*
X123722342Y-75859361D01*
X123842922Y-75767922D01*
X123934361Y-75647342D01*
X123989877Y-75506564D01*
X124000500Y-75418102D01*
X124000500Y-75189110D01*
X124020185Y-75122071D01*
X124072989Y-75076316D01*
X124142147Y-75066372D01*
X124205703Y-75095397D01*
G37*
%TD.AperFunction*%
%TA.AperFunction,Conductor*%
G36*
X83283278Y-48765985D02*
G01*
X83329033Y-48818789D01*
X83338977Y-48887947D01*
X83309952Y-48951503D01*
X83291727Y-48968673D01*
X83281209Y-48976744D01*
X83250619Y-49000216D01*
X83154363Y-49125660D01*
X83093856Y-49271737D01*
X83093855Y-49271739D01*
X83073218Y-49428498D01*
X83073218Y-49428501D01*
X83093855Y-49585260D01*
X83093856Y-49585262D01*
X83148685Y-49717632D01*
X83154364Y-49731341D01*
X83250618Y-49856782D01*
X83376059Y-49953036D01*
X83395302Y-49961007D01*
X83401222Y-49963459D01*
X83455626Y-50007301D01*
X83477690Y-50073595D01*
X83460410Y-50141294D01*
X83441450Y-50165701D01*
X83368772Y-50238378D01*
X83357810Y-50259893D01*
X83347646Y-50276478D01*
X83333452Y-50296014D01*
X83333451Y-50296017D01*
X83325988Y-50318985D01*
X83318543Y-50336958D01*
X83307580Y-50358473D01*
X83303803Y-50382322D01*
X83299262Y-50401239D01*
X83291800Y-50424204D01*
X83291800Y-50543089D01*
X83272115Y-50610128D01*
X83255481Y-50630770D01*
X77990054Y-55896196D01*
X77928731Y-55929681D01*
X77859039Y-55924697D01*
X77803998Y-55884001D01*
X77762882Y-55830418D01*
X77637441Y-55734164D01*
X77491362Y-55673656D01*
X77491360Y-55673655D01*
X77334601Y-55653018D01*
X77334599Y-55653018D01*
X77177839Y-55673655D01*
X77177837Y-55673656D01*
X77031757Y-55734164D01*
X76936085Y-55807576D01*
X76870915Y-55832770D01*
X76860599Y-55833200D01*
X76219707Y-55833200D01*
X76152668Y-55813515D01*
X76106913Y-55760711D01*
X76096969Y-55691553D01*
X76102666Y-55668245D01*
X76147646Y-55539701D01*
X76147646Y-55539699D01*
X76150500Y-55509269D01*
X76150500Y-55198781D01*
X76170185Y-55131742D01*
X76222989Y-55085987D01*
X76236182Y-55080850D01*
X76242090Y-55078930D01*
X76346981Y-55044849D01*
X76428594Y-54985554D01*
X82631529Y-48782619D01*
X82692852Y-48749134D01*
X82719210Y-48746300D01*
X83216239Y-48746300D01*
X83283278Y-48765985D01*
G37*
%TD.AperFunction*%
%TA.AperFunction,Conductor*%
G36*
X114275796Y-44061637D02*
G01*
X114324508Y-44111726D01*
X114338407Y-44180200D01*
X114313079Y-44245317D01*
X114302539Y-44257311D01*
X113030092Y-45529759D01*
X112968769Y-45563244D01*
X112899077Y-45558260D01*
X112854730Y-45529759D01*
X112822765Y-45497794D01*
X112719992Y-45452415D01*
X112694865Y-45449500D01*
X110905143Y-45449500D01*
X110905117Y-45449502D01*
X110880012Y-45452413D01*
X110880008Y-45452415D01*
X110777235Y-45497793D01*
X110697794Y-45577234D01*
X110652415Y-45680006D01*
X110652415Y-45680008D01*
X110649500Y-45705131D01*
X110649500Y-46025500D01*
X110629815Y-46092539D01*
X110577011Y-46138294D01*
X110525500Y-46149500D01*
X110243949Y-46149500D01*
X110176910Y-46129815D01*
X110131155Y-46077011D01*
X110121211Y-46007853D01*
X110121967Y-46003220D01*
X110122100Y-46002491D01*
X110124999Y-45965649D01*
X110125000Y-45965634D01*
X110125000Y-45900000D01*
X107875000Y-45900000D01*
X107875000Y-45965649D01*
X107877899Y-46002489D01*
X107877900Y-46002495D01*
X107923716Y-46160193D01*
X107923717Y-46160196D01*
X108007314Y-46301552D01*
X108007321Y-46301561D01*
X108123438Y-46417678D01*
X108123447Y-46417685D01*
X108264803Y-46501282D01*
X108264806Y-46501283D01*
X108368237Y-46531333D01*
X108427122Y-46568939D01*
X108456329Y-46632411D01*
X108446583Y-46701598D01*
X108400979Y-46754532D01*
X108379132Y-46765763D01*
X108252660Y-46815637D01*
X108252658Y-46815638D01*
X108132076Y-46907078D01*
X108098803Y-46950956D01*
X108042611Y-46992479D01*
X107972889Y-46997030D01*
X107911776Y-46963165D01*
X107901197Y-46950956D01*
X107867923Y-46907078D01*
X107747343Y-46815639D01*
X107606561Y-46760122D01*
X107560005Y-46754532D01*
X107518102Y-46749500D01*
X106481898Y-46749500D01*
X106442853Y-46754188D01*
X106393438Y-46760122D01*
X106252656Y-46815639D01*
X106132077Y-46907077D01*
X106040639Y-47027656D01*
X105985122Y-47168438D01*
X105980341Y-47208255D01*
X105974500Y-47256898D01*
X105974500Y-47256903D01*
X105974500Y-47636800D01*
X105954815Y-47703839D01*
X105902011Y-47749594D01*
X105850500Y-47760800D01*
X104926526Y-47760800D01*
X104859487Y-47741115D01*
X104813732Y-47688311D01*
X104803788Y-47619153D01*
X104832813Y-47555597D01*
X104861248Y-47531373D01*
X104876302Y-47522052D01*
X105033872Y-47378407D01*
X105162366Y-47208255D01*
X105217939Y-47096647D01*
X105265440Y-47045412D01*
X105333102Y-47027990D01*
X105348333Y-47029447D01*
X105356900Y-47030804D01*
X105356900Y-47030803D01*
X105356901Y-47030804D01*
X105356902Y-47030804D01*
X105490021Y-47009720D01*
X105490021Y-47009719D01*
X105490026Y-47009719D01*
X105610120Y-46948528D01*
X105705428Y-46853220D01*
X105766619Y-46733126D01*
X105782400Y-46633488D01*
X105787704Y-46600000D01*
X105783926Y-46576151D01*
X105782400Y-46556754D01*
X105782400Y-45909110D01*
X105802085Y-45842071D01*
X105818719Y-45821429D01*
X106240148Y-45400000D01*
X107875000Y-45400000D01*
X108750000Y-45400000D01*
X108750000Y-44750000D01*
X109250000Y-44750000D01*
X109250000Y-45400000D01*
X110125000Y-45400000D01*
X110125000Y-45334365D01*
X110124999Y-45334350D01*
X110122100Y-45297510D01*
X110122099Y-45297504D01*
X110076283Y-45139806D01*
X110076282Y-45139803D01*
X109992685Y-44998447D01*
X109992678Y-44998438D01*
X109876561Y-44882321D01*
X109876552Y-44882314D01*
X109735196Y-44798717D01*
X109735193Y-44798716D01*
X109577495Y-44752900D01*
X109577489Y-44752899D01*
X109540649Y-44750000D01*
X109250000Y-44750000D01*
X108750000Y-44750000D01*
X108459350Y-44750000D01*
X108422510Y-44752899D01*
X108422504Y-44752900D01*
X108264806Y-44798716D01*
X108264803Y-44798717D01*
X108123447Y-44882314D01*
X108123438Y-44882321D01*
X108007321Y-44998438D01*
X108007314Y-44998447D01*
X107923717Y-45139803D01*
X107923716Y-45139806D01*
X107877900Y-45297504D01*
X107877899Y-45297510D01*
X107875000Y-45334350D01*
X107875000Y-45400000D01*
X106240148Y-45400000D01*
X107461429Y-44178719D01*
X107522752Y-44145234D01*
X107549110Y-44142400D01*
X113961492Y-44142400D01*
X113961493Y-44142400D01*
X113984460Y-44134936D01*
X114003376Y-44130395D01*
X114027226Y-44126619D01*
X114048736Y-44115657D01*
X114066714Y-44108210D01*
X114089681Y-44100749D01*
X114109218Y-44086553D01*
X114125806Y-44076388D01*
X114147320Y-44065428D01*
X114147319Y-44065428D01*
X114156020Y-44060996D01*
X114157447Y-44063797D01*
X114207737Y-44045835D01*
X114275796Y-44061637D01*
G37*
%TD.AperFunction*%
%TA.AperFunction,Conductor*%
G36*
X88940229Y-45477085D02*
G01*
X88960871Y-45493719D01*
X89841281Y-46374129D01*
X89874766Y-46435452D01*
X89877600Y-46461810D01*
X89877600Y-46556754D01*
X89876073Y-46576151D01*
X89872296Y-46600000D01*
X89877429Y-46632411D01*
X89877600Y-46633487D01*
X89877600Y-46633489D01*
X89893379Y-46733121D01*
X89893380Y-46733124D01*
X89893381Y-46733126D01*
X89935424Y-46815639D01*
X89954573Y-46853221D01*
X89954576Y-46853225D01*
X90049874Y-46948523D01*
X90049878Y-46948526D01*
X90049880Y-46948528D01*
X90169974Y-47009719D01*
X90169976Y-47009719D01*
X90169978Y-47009720D01*
X90303097Y-47030804D01*
X90303098Y-47030803D01*
X90303100Y-47030804D01*
X90311658Y-47029448D01*
X90380950Y-47038399D01*
X90434405Y-47083392D01*
X90442061Y-47096649D01*
X90497632Y-47208253D01*
X90525136Y-47244673D01*
X90549828Y-47310034D01*
X90535263Y-47378368D01*
X90486066Y-47427981D01*
X90426182Y-47443400D01*
X87674500Y-47443400D01*
X87607461Y-47423715D01*
X87561706Y-47370911D01*
X87550500Y-47319400D01*
X87550499Y-45705143D01*
X87550499Y-45705137D01*
X87550499Y-45705136D01*
X87550497Y-45705117D01*
X87547586Y-45680012D01*
X87547585Y-45680011D01*
X87547585Y-45680009D01*
X87526159Y-45631485D01*
X87517088Y-45562208D01*
X87546911Y-45499023D01*
X87606160Y-45461992D01*
X87639594Y-45457400D01*
X88873190Y-45457400D01*
X88940229Y-45477085D01*
G37*
%TD.AperFunction*%
%TA.AperFunction,Conductor*%
G36*
X124411206Y-40320185D02*
G01*
X124431848Y-40336819D01*
X125703181Y-41608152D01*
X125736666Y-41669475D01*
X125739500Y-41695833D01*
X125739500Y-52882860D01*
X125738312Y-52899987D01*
X125737227Y-52907764D01*
X125739368Y-52954078D01*
X125739500Y-52959803D01*
X125739500Y-52977842D01*
X125739947Y-52982671D01*
X125741181Y-52993305D01*
X125742415Y-53019990D01*
X125745213Y-53026327D01*
X125753666Y-53053626D01*
X125754938Y-53060432D01*
X125768998Y-53083140D01*
X125777004Y-53098329D01*
X125787791Y-53122760D01*
X125787793Y-53122762D01*
X125787794Y-53122765D01*
X125787796Y-53122767D01*
X125792688Y-53127659D01*
X125810435Y-53150064D01*
X125814079Y-53155950D01*
X125814080Y-53155951D01*
X125814081Y-53155952D01*
X125835396Y-53172048D01*
X125848350Y-53183321D01*
X128243180Y-55578151D01*
X128276665Y-55639474D01*
X128279499Y-55665832D01*
X128279499Y-88084165D01*
X128259814Y-88151204D01*
X128243180Y-88171846D01*
X125874986Y-90540041D01*
X125862035Y-90551312D01*
X125855767Y-90556044D01*
X125824522Y-90590318D01*
X125820574Y-90594453D01*
X125807827Y-90607200D01*
X125804752Y-90610903D01*
X125798086Y-90619318D01*
X125780083Y-90639067D01*
X125780083Y-90639068D01*
X125777579Y-90645531D01*
X125764259Y-90670800D01*
X125760345Y-90676514D01*
X125760342Y-90676519D01*
X125754225Y-90702524D01*
X125749149Y-90718914D01*
X125739500Y-90743823D01*
X125739500Y-90750749D01*
X125736207Y-90779135D01*
X125734621Y-90785876D01*
X125734621Y-90785882D01*
X125738311Y-90812333D01*
X125739500Y-90829464D01*
X125739500Y-92915500D01*
X125719815Y-92982539D01*
X125667011Y-93028294D01*
X125615500Y-93039500D01*
X60424500Y-93039500D01*
X60357461Y-93019815D01*
X60311706Y-92967011D01*
X60300500Y-92915500D01*
X60300500Y-90867763D01*
X72115787Y-90867763D01*
X72145413Y-91137013D01*
X72145415Y-91137024D01*
X72213926Y-91399082D01*
X72213928Y-91399088D01*
X72319870Y-91648390D01*
X72460979Y-91879605D01*
X72460986Y-91879615D01*
X72634253Y-92087819D01*
X72634259Y-92087824D01*
X72835998Y-92268582D01*
X73061910Y-92418044D01*
X73307176Y-92533020D01*
X73307183Y-92533022D01*
X73307185Y-92533023D01*
X73566557Y-92611057D01*
X73566564Y-92611058D01*
X73566569Y-92611060D01*
X73834561Y-92650500D01*
X73834566Y-92650500D01*
X74037629Y-92650500D01*
X74037631Y-92650500D01*
X74037636Y-92650499D01*
X74037648Y-92650499D01*
X74075191Y-92647750D01*
X74240156Y-92635677D01*
X74352758Y-92610593D01*
X74504546Y-92576782D01*
X74504548Y-92576781D01*
X74504553Y-92576780D01*
X74757558Y-92480014D01*
X74993777Y-92347441D01*
X75208177Y-92181888D01*
X75396186Y-91986881D01*
X75553799Y-91766579D01*
X75650545Y-91578407D01*
X75677649Y-91525690D01*
X75677651Y-91525684D01*
X75677656Y-91525675D01*
X75765118Y-91269305D01*
X75814319Y-91002933D01*
X75824212Y-90732235D01*
X75794586Y-90462982D01*
X75726072Y-90200912D01*
X75620130Y-89951610D01*
X75479018Y-89720390D01*
X75451324Y-89687112D01*
X75305746Y-89512180D01*
X75305740Y-89512175D01*
X75104002Y-89331418D01*
X74878092Y-89181957D01*
X74878090Y-89181956D01*
X74632824Y-89066980D01*
X74632819Y-89066978D01*
X74632814Y-89066976D01*
X74373442Y-88988942D01*
X74373428Y-88988939D01*
X74242241Y-88969633D01*
X74105439Y-88949500D01*
X73902369Y-88949500D01*
X73902351Y-88949500D01*
X73699844Y-88964323D01*
X73699831Y-88964325D01*
X73435453Y-89023217D01*
X73435446Y-89023220D01*
X73182439Y-89119987D01*
X72946226Y-89252557D01*
X72946224Y-89252558D01*
X72946223Y-89252559D01*
X72937414Y-89259361D01*
X72731822Y-89418112D01*
X72543822Y-89613109D01*
X72543816Y-89613116D01*
X72386202Y-89833419D01*
X72386199Y-89833424D01*
X72262350Y-90074309D01*
X72262343Y-90074327D01*
X72174884Y-90330685D01*
X72174881Y-90330699D01*
X72159100Y-90416137D01*
X72136535Y-90538307D01*
X72125681Y-90597068D01*
X72125680Y-90597075D01*
X72115787Y-90867763D01*
X60300500Y-90867763D01*
X60300500Y-88444856D01*
X63899500Y-88444856D01*
X63899502Y-88444882D01*
X63902413Y-88469987D01*
X63902415Y-88469991D01*
X63947793Y-88572764D01*
X63947794Y-88572765D01*
X64027235Y-88652206D01*
X64130009Y-88697585D01*
X64155135Y-88700500D01*
X65844864Y-88700499D01*
X65844879Y-88700497D01*
X65844882Y-88700497D01*
X65869987Y-88697586D01*
X65869988Y-88697585D01*
X65869991Y-88697585D01*
X65972765Y-88652206D01*
X66052206Y-88572765D01*
X66097585Y-88469991D01*
X66100500Y-88444865D01*
X66100499Y-87600000D01*
X67294859Y-87600000D01*
X67315378Y-87821439D01*
X67376240Y-88035350D01*
X67475369Y-88234428D01*
X67491137Y-88255308D01*
X67491138Y-88255308D01*
X68102046Y-87644400D01*
X68114835Y-87725148D01*
X68172359Y-87838045D01*
X68261955Y-87927641D01*
X68374852Y-87985165D01*
X68455599Y-87997953D01*
X67846672Y-88606879D01*
X67846672Y-88606880D01*
X67962821Y-88678797D01*
X67962822Y-88678798D01*
X68170195Y-88759134D01*
X68388807Y-88800000D01*
X68611193Y-88800000D01*
X68829809Y-88759133D01*
X69037168Y-88678801D01*
X69037181Y-88678795D01*
X69153326Y-88606879D01*
X68544401Y-87997953D01*
X68625148Y-87985165D01*
X68738045Y-87927641D01*
X68827641Y-87838045D01*
X68885165Y-87725148D01*
X68897953Y-87644400D01*
X69508861Y-88255308D01*
X69524631Y-88234425D01*
X69524633Y-88234422D01*
X69623759Y-88035350D01*
X69684621Y-87821439D01*
X69705141Y-87600000D01*
X69705141Y-87599999D01*
X69684621Y-87378560D01*
X69623759Y-87164649D01*
X69524635Y-86965580D01*
X69524630Y-86965572D01*
X69508860Y-86944690D01*
X68897953Y-87555598D01*
X68885165Y-87474852D01*
X68827641Y-87361955D01*
X68738045Y-87272359D01*
X68625148Y-87214835D01*
X68544401Y-87202046D01*
X69153327Y-86593119D01*
X69037178Y-86521202D01*
X69037177Y-86521201D01*
X68829804Y-86440865D01*
X68611193Y-86400000D01*
X68388807Y-86400000D01*
X68170195Y-86440865D01*
X67962824Y-86521200D01*
X67962823Y-86521201D01*
X67846671Y-86593119D01*
X68455599Y-87202046D01*
X68374852Y-87214835D01*
X68261955Y-87272359D01*
X68172359Y-87361955D01*
X68114835Y-87474852D01*
X68102046Y-87555599D01*
X67491138Y-86944691D01*
X67491137Y-86944691D01*
X67475368Y-86965574D01*
X67376240Y-87164649D01*
X67315378Y-87378560D01*
X67294859Y-87599999D01*
X67294859Y-87600000D01*
X66100499Y-87600000D01*
X66100499Y-86755136D01*
X66099278Y-86744605D01*
X66097586Y-86730012D01*
X66097585Y-86730010D01*
X66097585Y-86730009D01*
X66052206Y-86627235D01*
X65972765Y-86547794D01*
X65931949Y-86529772D01*
X65869992Y-86502415D01*
X65844865Y-86499500D01*
X64155143Y-86499500D01*
X64155117Y-86499502D01*
X64130012Y-86502413D01*
X64130008Y-86502415D01*
X64027235Y-86547793D01*
X63947794Y-86627234D01*
X63902415Y-86730006D01*
X63902415Y-86730008D01*
X63899500Y-86755131D01*
X63899500Y-88444856D01*
X60300500Y-88444856D01*
X60300500Y-83437500D01*
X72300000Y-83437500D01*
X73150000Y-83437500D01*
X73150000Y-82775000D01*
X73650000Y-82775000D01*
X73650000Y-83437500D01*
X74500000Y-83437500D01*
X74500000Y-83359365D01*
X74499999Y-83359350D01*
X74497100Y-83322510D01*
X74497099Y-83322504D01*
X74451283Y-83164806D01*
X74451282Y-83164803D01*
X74367685Y-83023447D01*
X74367678Y-83023438D01*
X74251561Y-82907321D01*
X74251552Y-82907314D01*
X74110196Y-82823717D01*
X74110193Y-82823716D01*
X73952495Y-82777900D01*
X73952489Y-82777899D01*
X73915649Y-82775000D01*
X73650000Y-82775000D01*
X73150000Y-82775000D01*
X72884350Y-82775000D01*
X72847510Y-82777899D01*
X72847504Y-82777900D01*
X72689806Y-82823716D01*
X72689803Y-82823717D01*
X72548447Y-82907314D01*
X72548438Y-82907321D01*
X72432321Y-83023438D01*
X72432314Y-83023447D01*
X72348717Y-83164803D01*
X72348716Y-83164806D01*
X72302900Y-83322504D01*
X72302899Y-83322510D01*
X72300000Y-83359350D01*
X72300000Y-83437500D01*
X60300500Y-83437500D01*
X60300500Y-82600000D01*
X75406838Y-82600000D01*
X76212500Y-82600000D01*
X76212500Y-82150000D01*
X75906946Y-82150000D01*
X75818556Y-82160613D01*
X75677904Y-82216079D01*
X75557435Y-82307435D01*
X75466079Y-82427904D01*
X75410613Y-82568557D01*
X75406838Y-82600000D01*
X60300500Y-82600000D01*
X60300500Y-81344856D01*
X62799500Y-81344856D01*
X62799502Y-81344882D01*
X62802413Y-81369987D01*
X62802415Y-81369991D01*
X62847793Y-81472764D01*
X62847794Y-81472765D01*
X62927235Y-81552206D01*
X63030009Y-81597585D01*
X63055135Y-81600500D01*
X65744864Y-81600499D01*
X65744879Y-81600497D01*
X65744882Y-81600497D01*
X65769987Y-81597586D01*
X65769988Y-81597585D01*
X65769991Y-81597585D01*
X65872765Y-81552206D01*
X65952206Y-81472765D01*
X65997585Y-81369991D01*
X66000500Y-81344865D01*
X66000499Y-78655136D01*
X66000497Y-78655117D01*
X65997586Y-78630012D01*
X65997585Y-78630010D01*
X65997585Y-78630009D01*
X65952206Y-78527235D01*
X65872765Y-78447794D01*
X65872763Y-78447793D01*
X65769992Y-78402415D01*
X65744865Y-78399500D01*
X63055143Y-78399500D01*
X63055117Y-78399502D01*
X63030012Y-78402413D01*
X63030008Y-78402415D01*
X62927235Y-78447793D01*
X62847794Y-78527234D01*
X62802415Y-78630006D01*
X62802415Y-78630008D01*
X62799500Y-78655131D01*
X62799500Y-81344856D01*
X60300500Y-81344856D01*
X60300500Y-74920004D01*
X62695233Y-74920004D01*
X62714273Y-75174079D01*
X62770968Y-75422477D01*
X62770973Y-75422494D01*
X62864058Y-75659671D01*
X62864057Y-75659671D01*
X62991454Y-75880327D01*
X62991461Y-75880338D01*
X63033452Y-75932991D01*
X63033453Y-75932992D01*
X63797452Y-75168993D01*
X63807188Y-75198956D01*
X63895186Y-75337619D01*
X64014903Y-75450040D01*
X64149510Y-75524041D01*
X63386813Y-76286738D01*
X63547616Y-76396371D01*
X63547624Y-76396376D01*
X63777176Y-76506921D01*
X63777174Y-76506921D01*
X64020652Y-76582024D01*
X64020658Y-76582026D01*
X64272595Y-76619999D01*
X64272604Y-76620000D01*
X64527396Y-76620000D01*
X64527404Y-76619999D01*
X64779341Y-76582026D01*
X64779347Y-76582024D01*
X65022824Y-76506921D01*
X65252376Y-76396376D01*
X65252377Y-76396375D01*
X65413185Y-76286738D01*
X64647534Y-75521086D01*
X64715629Y-75494126D01*
X64848492Y-75397595D01*
X64953175Y-75271055D01*
X65001631Y-75168079D01*
X65766544Y-75932992D01*
X65766546Y-75932991D01*
X65808544Y-75880330D01*
X65935941Y-75659671D01*
X66029026Y-75422494D01*
X66029031Y-75422477D01*
X66085726Y-75174079D01*
X66104767Y-74920004D01*
X66104767Y-74919995D01*
X66085726Y-74665920D01*
X66029031Y-74417522D01*
X66029026Y-74417505D01*
X65935941Y-74180328D01*
X65935942Y-74180328D01*
X65808545Y-73959672D01*
X65766545Y-73907006D01*
X65002546Y-74671004D01*
X64992812Y-74641044D01*
X64904814Y-74502381D01*
X64785097Y-74389960D01*
X64650488Y-74315957D01*
X65413185Y-73553260D01*
X65252384Y-73443628D01*
X65252376Y-73443623D01*
X65022823Y-73333078D01*
X65022825Y-73333078D01*
X64779347Y-73257975D01*
X64779341Y-73257973D01*
X64527404Y-73220000D01*
X64272595Y-73220000D01*
X64020658Y-73257973D01*
X64020652Y-73257975D01*
X63777175Y-73333078D01*
X63547622Y-73443625D01*
X63547609Y-73443632D01*
X63386813Y-73553259D01*
X64152466Y-74318912D01*
X64084371Y-74345874D01*
X63951508Y-74442405D01*
X63846825Y-74568945D01*
X63798367Y-74671921D01*
X63033452Y-73907006D01*
X62991457Y-73959667D01*
X62864058Y-74180328D01*
X62770973Y-74417505D01*
X62770968Y-74417522D01*
X62714273Y-74665920D01*
X62695233Y-74919995D01*
X62695233Y-74920004D01*
X60300500Y-74920004D01*
X60300500Y-58306610D01*
X62124500Y-58306610D01*
X62163679Y-58516198D01*
X62240702Y-58715019D01*
X62352948Y-58896302D01*
X62496593Y-59053872D01*
X62603637Y-59134709D01*
X62666745Y-59182366D01*
X62680771Y-59189350D01*
X62732007Y-59236850D01*
X62749500Y-59300350D01*
X62749500Y-59528689D01*
X62747304Y-59551920D01*
X62745624Y-59560726D01*
X62745624Y-59560730D01*
X62749255Y-59618442D01*
X62749500Y-59626228D01*
X62749500Y-59642830D01*
X62751579Y-59659298D01*
X62752311Y-59667040D01*
X62755943Y-59724759D01*
X62758714Y-59733284D01*
X62763805Y-59756059D01*
X62764928Y-59764953D01*
X62764930Y-59764960D01*
X62786221Y-59818739D01*
X62788857Y-59826062D01*
X62806731Y-59881069D01*
X62806733Y-59881074D01*
X62811534Y-59888638D01*
X62822129Y-59909430D01*
X62825432Y-59917771D01*
X62825436Y-59917778D01*
X62859434Y-59964572D01*
X62863802Y-59970998D01*
X62881890Y-59999500D01*
X62894797Y-60019839D01*
X62901332Y-60025976D01*
X62916761Y-60043477D01*
X62922033Y-60050733D01*
X62922035Y-60050736D01*
X62966600Y-60087603D01*
X62972439Y-60092750D01*
X63014607Y-60132348D01*
X63014609Y-60132349D01*
X63014612Y-60132351D01*
X63022459Y-60136665D01*
X63041763Y-60149783D01*
X63048674Y-60155500D01*
X63048675Y-60155501D01*
X63074364Y-60167589D01*
X63101007Y-60180126D01*
X63107934Y-60183655D01*
X63158632Y-60211527D01*
X63167321Y-60213758D01*
X63189271Y-60221660D01*
X63197387Y-60225479D01*
X63254207Y-60236317D01*
X63261777Y-60238009D01*
X63317823Y-60252400D01*
X63326790Y-60252400D01*
X63350022Y-60254596D01*
X63351706Y-60254917D01*
X63358830Y-60256276D01*
X63358831Y-60256275D01*
X63358832Y-60256276D01*
X63416543Y-60252645D01*
X63424329Y-60252400D01*
X63731092Y-60252400D01*
X63798131Y-60272085D01*
X63818773Y-60288719D01*
X70738181Y-67208127D01*
X70771666Y-67269450D01*
X70774500Y-67295808D01*
X70774500Y-67643102D01*
X70780126Y-67689954D01*
X70785122Y-67731561D01*
X70785122Y-67731563D01*
X70785123Y-67731564D01*
X70802722Y-67776192D01*
X70840639Y-67872343D01*
X70932077Y-67992922D01*
X71052656Y-68084360D01*
X71052657Y-68084360D01*
X71052658Y-68084361D01*
X71193436Y-68139877D01*
X71281898Y-68150500D01*
X71281903Y-68150500D01*
X72318097Y-68150500D01*
X72318102Y-68150500D01*
X72406564Y-68139877D01*
X72547342Y-68084361D01*
X72624704Y-68025695D01*
X72690014Y-68000873D01*
X72699628Y-68000500D01*
X74339100Y-68000500D01*
X74406139Y-68020185D01*
X74451894Y-68072989D01*
X74463100Y-68124500D01*
X74463100Y-75815591D01*
X74443415Y-75882630D01*
X74426781Y-75903272D01*
X74221537Y-76108515D01*
X74160214Y-76142000D01*
X74125013Y-76144518D01*
X74121894Y-76144295D01*
X74121889Y-76144295D01*
X73550000Y-76144295D01*
X73547267Y-76144421D01*
X73521796Y-76145598D01*
X73521793Y-76145599D01*
X73439949Y-76168885D01*
X73370082Y-76168297D01*
X73361228Y-76165247D01*
X73360437Y-76164940D01*
X73360433Y-76164939D01*
X73250000Y-76144295D01*
X72678111Y-76144295D01*
X72678110Y-76144295D01*
X72591991Y-76156676D01*
X72591979Y-76156679D01*
X72454029Y-76197185D01*
X72374879Y-76233331D01*
X72374874Y-76233333D01*
X72253926Y-76311062D01*
X72253919Y-76311068D01*
X72188168Y-76368041D01*
X72188165Y-76368043D01*
X72094018Y-76476695D01*
X72094002Y-76476717D01*
X72046975Y-76549893D01*
X72046962Y-76549916D01*
X71987242Y-76680684D01*
X71962726Y-76764179D01*
X71942265Y-76906493D01*
X71942265Y-76993507D01*
X71943033Y-76998847D01*
X71944295Y-77016493D01*
X71944295Y-77383506D01*
X71943034Y-77401148D01*
X71942265Y-77406497D01*
X71942265Y-77493506D01*
X71962726Y-77635820D01*
X71987242Y-77719315D01*
X72046962Y-77850083D01*
X72046975Y-77850106D01*
X72094002Y-77923282D01*
X72094018Y-77923304D01*
X72188165Y-78031956D01*
X72188168Y-78031958D01*
X72253919Y-78088931D01*
X72253926Y-78088937D01*
X72374874Y-78166666D01*
X72374877Y-78166667D01*
X72374880Y-78166669D01*
X72454029Y-78202815D01*
X72591984Y-78243322D01*
X72591996Y-78243323D01*
X72596315Y-78244264D01*
X72596063Y-78245421D01*
X72654784Y-78272235D01*
X72661267Y-78278271D01*
X75078730Y-80695733D01*
X75087995Y-80706100D01*
X75110221Y-80733970D01*
X75110223Y-80733972D01*
X75157463Y-80766180D01*
X75161245Y-80768863D01*
X75207218Y-80802793D01*
X75214754Y-80806776D01*
X75222419Y-80810467D01*
X75222427Y-80810472D01*
X75247288Y-80818140D01*
X75277080Y-80827330D01*
X75281471Y-80828774D01*
X75335401Y-80847646D01*
X75335405Y-80847646D01*
X75343798Y-80849234D01*
X75352195Y-80850500D01*
X75352198Y-80850500D01*
X75409345Y-80850500D01*
X75413983Y-80850587D01*
X75471109Y-80852725D01*
X75471109Y-80852724D01*
X75471110Y-80852725D01*
X75471110Y-80852724D01*
X75480342Y-80851685D01*
X75480435Y-80852513D01*
X75495739Y-80850500D01*
X75731382Y-80850500D01*
X75798421Y-80870185D01*
X75844176Y-80922989D01*
X75854496Y-80959713D01*
X75856632Y-80977489D01*
X75860122Y-81006561D01*
X75915639Y-81147343D01*
X76007077Y-81267922D01*
X76127656Y-81359360D01*
X76127657Y-81359360D01*
X76127658Y-81359361D01*
X76268436Y-81414877D01*
X76356898Y-81425500D01*
X76624534Y-81425500D01*
X76691573Y-81445185D01*
X76712215Y-81461819D01*
X77199026Y-81948630D01*
X77232511Y-82009953D01*
X77227527Y-82079645D01*
X77185655Y-82135578D01*
X77120191Y-82159995D01*
X77096562Y-82159427D01*
X77018055Y-82150000D01*
X76712500Y-82150000D01*
X76712500Y-82600000D01*
X77518161Y-82600000D01*
X77515572Y-82578438D01*
X77527124Y-82509530D01*
X77574096Y-82457806D01*
X77641576Y-82439688D01*
X77708139Y-82460928D01*
X77726369Y-82475973D01*
X77745264Y-82494868D01*
X77778749Y-82556191D01*
X77778729Y-82609000D01*
X77777353Y-82615298D01*
X77774500Y-82645730D01*
X77774500Y-83054269D01*
X77777353Y-83084699D01*
X77777353Y-83084701D01*
X77822206Y-83212880D01*
X77822207Y-83212882D01*
X77858433Y-83261967D01*
X77882404Y-83327595D01*
X77867089Y-83395765D01*
X77817349Y-83444834D01*
X77758663Y-83459600D01*
X77565471Y-83459600D01*
X77498432Y-83439915D01*
X77452677Y-83387111D01*
X77442733Y-83317953D01*
X77457385Y-83274826D01*
X77458920Y-83272095D01*
X77514386Y-83131442D01*
X77518162Y-83100000D01*
X75406838Y-83100000D01*
X75410613Y-83131442D01*
X75466080Y-83272097D01*
X75520878Y-83344359D01*
X75545701Y-83409670D01*
X75539116Y-83460238D01*
X75502353Y-83565301D01*
X75499500Y-83595730D01*
X75499500Y-83605800D01*
X75479815Y-83672839D01*
X75427011Y-83718594D01*
X75375500Y-83729800D01*
X75175165Y-83729800D01*
X75136847Y-83723731D01*
X75059196Y-83698500D01*
X75059193Y-83698500D01*
X74924407Y-83698500D01*
X74924403Y-83698500D01*
X74796219Y-83740150D01*
X74714609Y-83799443D01*
X74714603Y-83799448D01*
X74612871Y-83901181D01*
X74551548Y-83934666D01*
X74525190Y-83937500D01*
X72300000Y-83937500D01*
X72300000Y-84015649D01*
X72302899Y-84052489D01*
X72302900Y-84052495D01*
X72348716Y-84210193D01*
X72348717Y-84210196D01*
X72432314Y-84351552D01*
X72432321Y-84351561D01*
X72548438Y-84467678D01*
X72548446Y-84467684D01*
X72684627Y-84548221D01*
X72732310Y-84599290D01*
X72744814Y-84668032D01*
X72718169Y-84732621D01*
X72682289Y-84763034D01*
X72677659Y-84765637D01*
X72557077Y-84857077D01*
X72465639Y-84977656D01*
X72410122Y-85118438D01*
X72404188Y-85167853D01*
X72399500Y-85206898D01*
X72399500Y-85818102D01*
X72404786Y-85862119D01*
X72410122Y-85906561D01*
X72465639Y-86047343D01*
X72557077Y-86167922D01*
X72677656Y-86259360D01*
X72677657Y-86259360D01*
X72677658Y-86259361D01*
X72818436Y-86314877D01*
X72906898Y-86325500D01*
X72906903Y-86325500D01*
X73893097Y-86325500D01*
X73893102Y-86325500D01*
X73981564Y-86314877D01*
X74122342Y-86259361D01*
X74242922Y-86167922D01*
X74334361Y-86047342D01*
X74389877Y-85906564D01*
X74400500Y-85818102D01*
X74400500Y-85368410D01*
X74420185Y-85301371D01*
X74436819Y-85280729D01*
X74717548Y-85000000D01*
X75406838Y-85000000D01*
X75410613Y-85031442D01*
X75466079Y-85172095D01*
X75557435Y-85292564D01*
X75677904Y-85383920D01*
X75818556Y-85439386D01*
X75906946Y-85450000D01*
X76212500Y-85450000D01*
X76212500Y-85000000D01*
X76712500Y-85000000D01*
X76712500Y-85450000D01*
X77018054Y-85450000D01*
X77106443Y-85439386D01*
X77247095Y-85383920D01*
X77367564Y-85292564D01*
X77458920Y-85172095D01*
X77514386Y-85031442D01*
X77518162Y-85000000D01*
X76712500Y-85000000D01*
X76212500Y-85000000D01*
X75406838Y-85000000D01*
X74717548Y-85000000D01*
X75163029Y-84554519D01*
X75224352Y-84521034D01*
X75250710Y-84518200D01*
X76200935Y-84518200D01*
X76221524Y-84511509D01*
X76240445Y-84506967D01*
X76261833Y-84503580D01*
X76261832Y-84503580D01*
X76271477Y-84502053D01*
X76271673Y-84503297D01*
X76292491Y-84500000D01*
X77518161Y-84500000D01*
X77514386Y-84468558D01*
X77513485Y-84464993D01*
X77513598Y-84461998D01*
X77513438Y-84460660D01*
X77513650Y-84460634D01*
X77516138Y-84395174D01*
X77556116Y-84337872D01*
X77620728Y-84311281D01*
X77633703Y-84310600D01*
X77674220Y-84310600D01*
X77741259Y-84330285D01*
X77787014Y-84383089D01*
X77796958Y-84452247D01*
X77791261Y-84475555D01*
X77777354Y-84515298D01*
X77777353Y-84515300D01*
X77774500Y-84545730D01*
X77774500Y-84954269D01*
X77777353Y-84984699D01*
X77777353Y-84984701D01*
X77822206Y-85112880D01*
X77822207Y-85112882D01*
X77902850Y-85222150D01*
X78012118Y-85302793D01*
X78052857Y-85317048D01*
X78140299Y-85347646D01*
X78170730Y-85350500D01*
X78170734Y-85350500D01*
X78188000Y-85350500D01*
X78255039Y-85370185D01*
X78300794Y-85422989D01*
X78312000Y-85474500D01*
X78312000Y-87017394D01*
X78319462Y-87040358D01*
X78324003Y-87059273D01*
X78324324Y-87061296D01*
X78327781Y-87083127D01*
X78338743Y-87104641D01*
X78346188Y-87122615D01*
X78353650Y-87145580D01*
X78367840Y-87165110D01*
X78378008Y-87181703D01*
X78388970Y-87203218D01*
X79266865Y-88081113D01*
X79300350Y-88142436D01*
X79302300Y-88183573D01*
X79301146Y-88193186D01*
X79299500Y-88206898D01*
X79299500Y-88818102D01*
X79302548Y-88843481D01*
X79310122Y-88906561D01*
X79365639Y-89047343D01*
X79457077Y-89167922D01*
X79577656Y-89259360D01*
X79577657Y-89259360D01*
X79577658Y-89259361D01*
X79718436Y-89314877D01*
X79806898Y-89325500D01*
X79806903Y-89325500D01*
X80793097Y-89325500D01*
X80793102Y-89325500D01*
X80881564Y-89314877D01*
X81022342Y-89259361D01*
X81142922Y-89167922D01*
X81234361Y-89047342D01*
X81289877Y-88906564D01*
X81300500Y-88818102D01*
X81300500Y-88206898D01*
X81289877Y-88118436D01*
X81234361Y-87977658D01*
X81234360Y-87977657D01*
X81234360Y-87977656D01*
X81142922Y-87857077D01*
X81022343Y-87765639D01*
X80976558Y-87747584D01*
X80894826Y-87715353D01*
X80839685Y-87672449D01*
X80816492Y-87606541D01*
X80832612Y-87538557D01*
X80882929Y-87490080D01*
X80894814Y-87484651D01*
X81022342Y-87434361D01*
X81142922Y-87342922D01*
X81234361Y-87222342D01*
X81289877Y-87081564D01*
X81300500Y-86993102D01*
X81300500Y-86381898D01*
X81297699Y-86358578D01*
X81309248Y-86289673D01*
X81333130Y-86256116D01*
X81727129Y-85862119D01*
X81788452Y-85828634D01*
X81814810Y-85825800D01*
X82085500Y-85825800D01*
X82152539Y-85845485D01*
X82198294Y-85898289D01*
X82209500Y-85949800D01*
X82209500Y-87494856D01*
X82209502Y-87494882D01*
X82212413Y-87519987D01*
X82212415Y-87519991D01*
X82257793Y-87622764D01*
X82257794Y-87622765D01*
X82337235Y-87702206D01*
X82440009Y-87747585D01*
X82465135Y-87750500D01*
X84254864Y-87750499D01*
X84254879Y-87750497D01*
X84254882Y-87750497D01*
X84279987Y-87747586D01*
X84279988Y-87747585D01*
X84279991Y-87747585D01*
X84382765Y-87702206D01*
X84429353Y-87655618D01*
X84490676Y-87622133D01*
X84560368Y-87627117D01*
X84604715Y-87655618D01*
X85046730Y-88097633D01*
X85055995Y-88108000D01*
X85078221Y-88135870D01*
X85078223Y-88135872D01*
X85125463Y-88168080D01*
X85129241Y-88170760D01*
X85144779Y-88182228D01*
X85175218Y-88204693D01*
X85182765Y-88208681D01*
X85190422Y-88212368D01*
X85190427Y-88212372D01*
X85245083Y-88229230D01*
X85249442Y-88230665D01*
X85303400Y-88249546D01*
X85303405Y-88249546D01*
X85311798Y-88251134D01*
X85320195Y-88252400D01*
X85320198Y-88252400D01*
X85377361Y-88252400D01*
X85381998Y-88252487D01*
X85439109Y-88254624D01*
X85439109Y-88254623D01*
X85439110Y-88254624D01*
X85439110Y-88254623D01*
X85448343Y-88253584D01*
X85448436Y-88254413D01*
X85463736Y-88252400D01*
X89013634Y-88252400D01*
X89080673Y-88272085D01*
X89101315Y-88288719D01*
X89762096Y-88949500D01*
X90281783Y-89469186D01*
X90315268Y-89530509D01*
X90310284Y-89600201D01*
X90268412Y-89656134D01*
X90216890Y-89678755D01*
X90163802Y-89688679D01*
X90163800Y-89688679D01*
X90163798Y-89688680D01*
X89964982Y-89765701D01*
X89964980Y-89765702D01*
X89783699Y-89877947D01*
X89626127Y-90021593D01*
X89497632Y-90191746D01*
X89402596Y-90382605D01*
X89402596Y-90382607D01*
X89344244Y-90587689D01*
X89337970Y-90655394D01*
X89312183Y-90720331D01*
X89255383Y-90761018D01*
X89185602Y-90764538D01*
X89124995Y-90729772D01*
X89092806Y-90667759D01*
X89090499Y-90643952D01*
X89090499Y-89905143D01*
X89090499Y-89905136D01*
X89090497Y-89905117D01*
X89087586Y-89880012D01*
X89087585Y-89880010D01*
X89087585Y-89880009D01*
X89042206Y-89777235D01*
X88962765Y-89697794D01*
X88942124Y-89688680D01*
X88859992Y-89652415D01*
X88834865Y-89649500D01*
X87045143Y-89649500D01*
X87045117Y-89649502D01*
X87020012Y-89652413D01*
X87020008Y-89652415D01*
X86917235Y-89697793D01*
X86837794Y-89777234D01*
X86792415Y-89880006D01*
X86792415Y-89880008D01*
X86789500Y-89905131D01*
X86789500Y-91694856D01*
X86789502Y-91694882D01*
X86792413Y-91719987D01*
X86792415Y-91719991D01*
X86837793Y-91822764D01*
X86837794Y-91822765D01*
X86917235Y-91902206D01*
X87020009Y-91947585D01*
X87045135Y-91950500D01*
X88834864Y-91950499D01*
X88834879Y-91950497D01*
X88834882Y-91950497D01*
X88859987Y-91947586D01*
X88859988Y-91947585D01*
X88859991Y-91947585D01*
X88962765Y-91902206D01*
X89042206Y-91822765D01*
X89087585Y-91719991D01*
X89090500Y-91694865D01*
X89090499Y-90956046D01*
X89110183Y-90889009D01*
X89162987Y-90843254D01*
X89232146Y-90833310D01*
X89295702Y-90862335D01*
X89333476Y-90921113D01*
X89337970Y-90944606D01*
X89343374Y-91002924D01*
X89344244Y-91012310D01*
X89400509Y-91210059D01*
X89402596Y-91217392D01*
X89402596Y-91217394D01*
X89497632Y-91408253D01*
X89623142Y-91574453D01*
X89626128Y-91578407D01*
X89783698Y-91722052D01*
X89964981Y-91834298D01*
X90163802Y-91911321D01*
X90373390Y-91950500D01*
X90373392Y-91950500D01*
X90586608Y-91950500D01*
X90586610Y-91950500D01*
X90796198Y-91911321D01*
X90995019Y-91834298D01*
X91176302Y-91722052D01*
X91269354Y-91637222D01*
X91332158Y-91606605D01*
X91401545Y-91614802D01*
X91443790Y-91644516D01*
X91465945Y-91668394D01*
X91465947Y-91668395D01*
X91465948Y-91668396D01*
X91473210Y-91674188D01*
X91472689Y-91674841D01*
X91484930Y-91684234D01*
X92098330Y-92297633D01*
X92107595Y-92308000D01*
X92129821Y-92335870D01*
X92129823Y-92335872D01*
X92177063Y-92368080D01*
X92180841Y-92370760D01*
X92184575Y-92373516D01*
X92226818Y-92404693D01*
X92234354Y-92408676D01*
X92242019Y-92412367D01*
X92242027Y-92412372D01*
X92266888Y-92420040D01*
X92296680Y-92429230D01*
X92301071Y-92430674D01*
X92355001Y-92449546D01*
X92355005Y-92449546D01*
X92363379Y-92451130D01*
X92371796Y-92452399D01*
X92371798Y-92452400D01*
X92428962Y-92452400D01*
X92433598Y-92452486D01*
X92490710Y-92454624D01*
X92499944Y-92453584D01*
X92500037Y-92454413D01*
X92515336Y-92452400D01*
X96039638Y-92452400D01*
X96053520Y-92453179D01*
X96057108Y-92453584D01*
X96088933Y-92457170D01*
X96088933Y-92457169D01*
X96088935Y-92457170D01*
X96145136Y-92446535D01*
X96149626Y-92445772D01*
X96206187Y-92437248D01*
X96206191Y-92437245D01*
X96214347Y-92434730D01*
X96222369Y-92431924D01*
X96222370Y-92431923D01*
X96222372Y-92431923D01*
X96272988Y-92405170D01*
X96276993Y-92403148D01*
X96328542Y-92378325D01*
X96328543Y-92378323D01*
X96328545Y-92378323D01*
X96335595Y-92373516D01*
X96342434Y-92368467D01*
X96342438Y-92368466D01*
X96382874Y-92328028D01*
X96386160Y-92324862D01*
X96428094Y-92285955D01*
X96428096Y-92285950D01*
X96433887Y-92278690D01*
X96434543Y-92279213D01*
X96443932Y-92266970D01*
X97102965Y-91607936D01*
X97164286Y-91574453D01*
X97233977Y-91579437D01*
X97274180Y-91603980D01*
X97403698Y-91722052D01*
X97584981Y-91834298D01*
X97783802Y-91911321D01*
X97993390Y-91950500D01*
X97993392Y-91950500D01*
X98206608Y-91950500D01*
X98206610Y-91950500D01*
X98416198Y-91911321D01*
X98615019Y-91834298D01*
X98796302Y-91722052D01*
X98953872Y-91578407D01*
X99082366Y-91408255D01*
X99099458Y-91373929D01*
X99177403Y-91217394D01*
X99177403Y-91217392D01*
X99177405Y-91217389D01*
X99198928Y-91141744D01*
X99236206Y-91082653D01*
X99299515Y-91053095D01*
X99368755Y-91062457D01*
X99421942Y-91107766D01*
X99437968Y-91143587D01*
X99460894Y-91229150D01*
X99460898Y-91229159D01*
X99553333Y-91427387D01*
X99678787Y-91606554D01*
X99833445Y-91761212D01*
X100012612Y-91886666D01*
X100210843Y-91979103D01*
X100390000Y-92027106D01*
X100390000Y-91235501D01*
X100497685Y-91284680D01*
X100604237Y-91300000D01*
X100675763Y-91300000D01*
X100782315Y-91284680D01*
X100890000Y-91235501D01*
X100890000Y-92027106D01*
X101069156Y-91979103D01*
X101069157Y-91979103D01*
X101267387Y-91886666D01*
X101446554Y-91761212D01*
X101601212Y-91606554D01*
X101726666Y-91427387D01*
X101797618Y-91275232D01*
X101843790Y-91222793D01*
X101910984Y-91203641D01*
X101977865Y-91223857D01*
X102022382Y-91275232D01*
X102093333Y-91427387D01*
X102218787Y-91606554D01*
X102373445Y-91761212D01*
X102552612Y-91886666D01*
X102750843Y-91979103D01*
X102930000Y-92027106D01*
X102930000Y-91235501D01*
X103037685Y-91284680D01*
X103144237Y-91300000D01*
X103215763Y-91300000D01*
X103322315Y-91284680D01*
X103430000Y-91235501D01*
X103430000Y-92027106D01*
X103609156Y-91979103D01*
X103609157Y-91979103D01*
X103807387Y-91886666D01*
X103986554Y-91761212D01*
X104141212Y-91606554D01*
X104266666Y-91427387D01*
X104359101Y-91229159D01*
X104359106Y-91229148D01*
X104382031Y-91143588D01*
X104418395Y-91083927D01*
X104481242Y-91053397D01*
X104550617Y-91061691D01*
X104604496Y-91106176D01*
X104621072Y-91141745D01*
X104640509Y-91210059D01*
X104642596Y-91217392D01*
X104642596Y-91217394D01*
X104737632Y-91408253D01*
X104863142Y-91574453D01*
X104866128Y-91578407D01*
X105023698Y-91722052D01*
X105204981Y-91834298D01*
X105403802Y-91911321D01*
X105613390Y-91950500D01*
X105613392Y-91950500D01*
X105826608Y-91950500D01*
X105826610Y-91950500D01*
X106036198Y-91911321D01*
X106235019Y-91834298D01*
X106416302Y-91722052D01*
X106573872Y-91578407D01*
X106702366Y-91408255D01*
X106719458Y-91373929D01*
X106797403Y-91217394D01*
X106797403Y-91217393D01*
X106797405Y-91217389D01*
X106855756Y-91012310D01*
X106875429Y-90800000D01*
X106855756Y-90587690D01*
X106797405Y-90382611D01*
X106797403Y-90382606D01*
X106797403Y-90382605D01*
X106702367Y-90191746D01*
X106573872Y-90021593D01*
X106536708Y-89987713D01*
X106491429Y-89946436D01*
X106455149Y-89886725D01*
X106456910Y-89816878D01*
X106496154Y-89759070D01*
X106560421Y-89731656D01*
X106574969Y-89730800D01*
X109530766Y-89730800D01*
X109597805Y-89750485D01*
X109643560Y-89803289D01*
X109653255Y-89870717D01*
X109653490Y-89870745D01*
X109653386Y-89871633D01*
X109653504Y-89872447D01*
X109653023Y-89874769D01*
X109649500Y-89905131D01*
X109649500Y-91694856D01*
X109649502Y-91694882D01*
X109652413Y-91719987D01*
X109652415Y-91719991D01*
X109697793Y-91822764D01*
X109697794Y-91822765D01*
X109777235Y-91902206D01*
X109880009Y-91947585D01*
X109905135Y-91950500D01*
X111297389Y-91950499D01*
X111364428Y-91970184D01*
X111385070Y-91986818D01*
X111630172Y-92231920D01*
X111725480Y-92327228D01*
X111746994Y-92338190D01*
X111763582Y-92348355D01*
X111783120Y-92362550D01*
X111806070Y-92370007D01*
X111806083Y-92370011D01*
X111824059Y-92377456D01*
X111845574Y-92388419D01*
X111869428Y-92392196D01*
X111888339Y-92396736D01*
X111911307Y-92404200D01*
X111911310Y-92404200D01*
X116442192Y-92404200D01*
X116442193Y-92404200D01*
X116465160Y-92396736D01*
X116484076Y-92392195D01*
X116507926Y-92388419D01*
X116529436Y-92377457D01*
X116547414Y-92370010D01*
X116570381Y-92362549D01*
X116589918Y-92348353D01*
X116606506Y-92338188D01*
X116628020Y-92327228D01*
X116723328Y-92231920D01*
X117384033Y-91571214D01*
X117445354Y-91537731D01*
X117515045Y-91542715D01*
X117563350Y-91575360D01*
X117566123Y-91578402D01*
X117566126Y-91578405D01*
X117566128Y-91578407D01*
X117723698Y-91722052D01*
X117904981Y-91834298D01*
X118103802Y-91911321D01*
X118313390Y-91950500D01*
X118313392Y-91950500D01*
X118526608Y-91950500D01*
X118526610Y-91950500D01*
X118736198Y-91911321D01*
X118935019Y-91834298D01*
X119116302Y-91722052D01*
X119273872Y-91578407D01*
X119402366Y-91408255D01*
X119419458Y-91373929D01*
X119497403Y-91217394D01*
X119497403Y-91217393D01*
X119497405Y-91217389D01*
X119555756Y-91012310D01*
X119566529Y-90896047D01*
X119592315Y-90831111D01*
X119634622Y-90800804D01*
X119743130Y-90800804D01*
X119779503Y-90821668D01*
X119811693Y-90883681D01*
X119813470Y-90896047D01*
X119824244Y-91012310D01*
X119880509Y-91210059D01*
X119882596Y-91217392D01*
X119882596Y-91217394D01*
X119977632Y-91408253D01*
X120103142Y-91574453D01*
X120106128Y-91578407D01*
X120263698Y-91722052D01*
X120444981Y-91834298D01*
X120643802Y-91911321D01*
X120853390Y-91950500D01*
X120853392Y-91950500D01*
X121066608Y-91950500D01*
X121066610Y-91950500D01*
X121276198Y-91911321D01*
X121475019Y-91834298D01*
X121656302Y-91722052D01*
X121813872Y-91578407D01*
X121942366Y-91408255D01*
X121959458Y-91373929D01*
X122037403Y-91217394D01*
X122037403Y-91217393D01*
X122037405Y-91217389D01*
X122095756Y-91012310D01*
X122106529Y-90896047D01*
X122132315Y-90831111D01*
X122174622Y-90800804D01*
X122283130Y-90800804D01*
X122319503Y-90821668D01*
X122351693Y-90883681D01*
X122353470Y-90896047D01*
X122364244Y-91012310D01*
X122420509Y-91210059D01*
X122422596Y-91217392D01*
X122422596Y-91217394D01*
X122517632Y-91408253D01*
X122643142Y-91574453D01*
X122646128Y-91578407D01*
X122803698Y-91722052D01*
X122984981Y-91834298D01*
X123183802Y-91911321D01*
X123393390Y-91950500D01*
X123393392Y-91950500D01*
X123606608Y-91950500D01*
X123606610Y-91950500D01*
X123816198Y-91911321D01*
X124015019Y-91834298D01*
X124196302Y-91722052D01*
X124353872Y-91578407D01*
X124482366Y-91408255D01*
X124499458Y-91373929D01*
X124577403Y-91217394D01*
X124577403Y-91217393D01*
X124577405Y-91217389D01*
X124635756Y-91012310D01*
X124655429Y-90800000D01*
X124635756Y-90587690D01*
X124577405Y-90382611D01*
X124577403Y-90382606D01*
X124577403Y-90382605D01*
X124482367Y-90191746D01*
X124353872Y-90021593D01*
X124320230Y-89990924D01*
X124196302Y-89877948D01*
X124015019Y-89765702D01*
X124015017Y-89765701D01*
X123915608Y-89727190D01*
X123816198Y-89688679D01*
X123606610Y-89649500D01*
X123393390Y-89649500D01*
X123183802Y-89688679D01*
X123183799Y-89688679D01*
X123183799Y-89688680D01*
X122984982Y-89765701D01*
X122984980Y-89765702D01*
X122803699Y-89877947D01*
X122646127Y-90021593D01*
X122517632Y-90191746D01*
X122422596Y-90382605D01*
X122422596Y-90382607D01*
X122364244Y-90587689D01*
X122353471Y-90703951D01*
X122327685Y-90768888D01*
X122283130Y-90800804D01*
X122174622Y-90800804D01*
X122176869Y-90799194D01*
X122140497Y-90778331D01*
X122108307Y-90716318D01*
X122106529Y-90703951D01*
X122103987Y-90676519D01*
X122095756Y-90587690D01*
X122037405Y-90382611D01*
X122037403Y-90382606D01*
X122037403Y-90382605D01*
X121942367Y-90191746D01*
X121813872Y-90021593D01*
X121780230Y-89990924D01*
X121656302Y-89877948D01*
X121475019Y-89765702D01*
X121475017Y-89765701D01*
X121375608Y-89727190D01*
X121276198Y-89688679D01*
X121066610Y-89649500D01*
X120853390Y-89649500D01*
X120643802Y-89688679D01*
X120643799Y-89688679D01*
X120643799Y-89688680D01*
X120444982Y-89765701D01*
X120444980Y-89765702D01*
X120263699Y-89877947D01*
X120106127Y-90021593D01*
X119977632Y-90191746D01*
X119882596Y-90382605D01*
X119882596Y-90382607D01*
X119824244Y-90587689D01*
X119813471Y-90703951D01*
X119787685Y-90768888D01*
X119743130Y-90800804D01*
X119634622Y-90800804D01*
X119636869Y-90799194D01*
X119600497Y-90778331D01*
X119568307Y-90716318D01*
X119566529Y-90703951D01*
X119563987Y-90676519D01*
X119555756Y-90587690D01*
X119497405Y-90382611D01*
X119497403Y-90382606D01*
X119497403Y-90382605D01*
X119402367Y-90191746D01*
X119273872Y-90021593D01*
X119240230Y-89990924D01*
X119116302Y-89877948D01*
X118969943Y-89787326D01*
X118923309Y-89735299D01*
X118912205Y-89666317D01*
X118940158Y-89602283D01*
X118998293Y-89563527D01*
X119035222Y-89557900D01*
X119856192Y-89557900D01*
X119856193Y-89557900D01*
X119879160Y-89550436D01*
X119898076Y-89545895D01*
X119921926Y-89542119D01*
X119943436Y-89531157D01*
X119961414Y-89523710D01*
X119984381Y-89516249D01*
X120003918Y-89502053D01*
X120020506Y-89491888D01*
X120042020Y-89480928D01*
X120137328Y-89385620D01*
X120137328Y-89385619D01*
X122890718Y-86632229D01*
X122890720Y-86632228D01*
X122986028Y-86536920D01*
X122996993Y-86515398D01*
X123007158Y-86498812D01*
X123021349Y-86479281D01*
X123028810Y-86456314D01*
X123036259Y-86438334D01*
X123047218Y-86416828D01*
X123047218Y-86416827D01*
X123047219Y-86416826D01*
X123050995Y-86392976D01*
X123055536Y-86374060D01*
X123063000Y-86351093D01*
X123063000Y-86233609D01*
X123082685Y-86166570D01*
X123099314Y-86145933D01*
X124019520Y-85225726D01*
X124080843Y-85192242D01*
X124150535Y-85197226D01*
X124206468Y-85239098D01*
X124230885Y-85304562D01*
X124229138Y-85335930D01*
X124195681Y-85517065D01*
X124195680Y-85517075D01*
X124185787Y-85787763D01*
X124215413Y-86057013D01*
X124215415Y-86057024D01*
X124283926Y-86319082D01*
X124283928Y-86319088D01*
X124389870Y-86568390D01*
X124510250Y-86765639D01*
X124530979Y-86799605D01*
X124530986Y-86799615D01*
X124704253Y-87007819D01*
X124704259Y-87007824D01*
X124804890Y-87097989D01*
X124905998Y-87188582D01*
X125131910Y-87338044D01*
X125377176Y-87453020D01*
X125377183Y-87453022D01*
X125377185Y-87453023D01*
X125636557Y-87531057D01*
X125636564Y-87531058D01*
X125636569Y-87531060D01*
X125904561Y-87570500D01*
X125904566Y-87570500D01*
X126107629Y-87570500D01*
X126107631Y-87570500D01*
X126107636Y-87570499D01*
X126107648Y-87570499D01*
X126145191Y-87567750D01*
X126310156Y-87555677D01*
X126422758Y-87530593D01*
X126574546Y-87496782D01*
X126574548Y-87496781D01*
X126574553Y-87496780D01*
X126827558Y-87400014D01*
X127063777Y-87267441D01*
X127278177Y-87101888D01*
X127466186Y-86906881D01*
X127623799Y-86686579D01*
X127708825Y-86521202D01*
X127747649Y-86445690D01*
X127747651Y-86445684D01*
X127747656Y-86445675D01*
X127835118Y-86189305D01*
X127884319Y-85922933D01*
X127894212Y-85652235D01*
X127864586Y-85382982D01*
X127796072Y-85120912D01*
X127690130Y-84871610D01*
X127549018Y-84640390D01*
X127547845Y-84638981D01*
X127375746Y-84432180D01*
X127375740Y-84432175D01*
X127174002Y-84251418D01*
X126948092Y-84101957D01*
X126923123Y-84090252D01*
X126702824Y-83986980D01*
X126702819Y-83986978D01*
X126702814Y-83986976D01*
X126443442Y-83908942D01*
X126443428Y-83908939D01*
X126321679Y-83891022D01*
X126175439Y-83869500D01*
X125972369Y-83869500D01*
X125972348Y-83869500D01*
X125953013Y-83870916D01*
X125884716Y-83856178D01*
X125835229Y-83806854D01*
X125820263Y-83738606D01*
X125844572Y-83673101D01*
X125856274Y-83659573D01*
X126939754Y-82576094D01*
X126963728Y-82552120D01*
X126974690Y-82530605D01*
X126984852Y-82514021D01*
X126999050Y-82494481D01*
X127006511Y-82471514D01*
X127013960Y-82453533D01*
X127024918Y-82432029D01*
X127024918Y-82432028D01*
X127024918Y-82432027D01*
X127024919Y-82432026D01*
X127028696Y-82408173D01*
X127033235Y-82389266D01*
X127040700Y-82366293D01*
X127040700Y-82231507D01*
X127040700Y-76194212D01*
X127040700Y-76160307D01*
X127035921Y-76145599D01*
X127033239Y-76137345D01*
X127028695Y-76118421D01*
X127027605Y-76111536D01*
X127024919Y-76094574D01*
X127013953Y-76073054D01*
X127006508Y-76055078D01*
X127003646Y-76046270D01*
X126999049Y-76032119D01*
X126984851Y-76012578D01*
X126974692Y-75995999D01*
X126963728Y-75974480D01*
X126868420Y-75879172D01*
X126533133Y-75543885D01*
X126499648Y-75482562D01*
X126497699Y-75441423D01*
X126500500Y-75418102D01*
X126500500Y-74806898D01*
X126489877Y-74718436D01*
X126434361Y-74577658D01*
X126434360Y-74577657D01*
X126434360Y-74577656D01*
X126342922Y-74457077D01*
X126222340Y-74365637D01*
X126217714Y-74363036D01*
X126168929Y-74313019D01*
X126154929Y-74244566D01*
X126180160Y-74179411D01*
X126215373Y-74148221D01*
X126351549Y-74067687D01*
X126351561Y-74067678D01*
X126467678Y-73951561D01*
X126467685Y-73951552D01*
X126551282Y-73810196D01*
X126551283Y-73810193D01*
X126597099Y-73652495D01*
X126597100Y-73652489D01*
X126599999Y-73615649D01*
X126600000Y-73615634D01*
X126600000Y-73537500D01*
X124400000Y-73537500D01*
X124400000Y-73615649D01*
X124402899Y-73652489D01*
X124446768Y-73803487D01*
X124446568Y-73873356D01*
X124408625Y-73932026D01*
X124344987Y-73960869D01*
X124275857Y-73950728D01*
X124240010Y-73925762D01*
X124033133Y-73718885D01*
X123999648Y-73657562D01*
X123997699Y-73616423D01*
X124000500Y-73593102D01*
X124000500Y-72981898D01*
X123989877Y-72893436D01*
X123934361Y-72752658D01*
X123934360Y-72752657D01*
X123934360Y-72752656D01*
X123842922Y-72632077D01*
X123722343Y-72540639D01*
X123581561Y-72485122D01*
X123535926Y-72479642D01*
X123493102Y-72474500D01*
X122506898Y-72474500D01*
X122467853Y-72479188D01*
X122418438Y-72485122D01*
X122277656Y-72540639D01*
X122157077Y-72632077D01*
X122065639Y-72752656D01*
X122010122Y-72893438D01*
X122005020Y-72935928D01*
X121999500Y-72981898D01*
X121999500Y-73593102D01*
X122002206Y-73615634D01*
X122010122Y-73681561D01*
X122065639Y-73822343D01*
X122157077Y-73942922D01*
X122277656Y-74034360D01*
X122277657Y-74034360D01*
X122277658Y-74034361D01*
X122405171Y-74084646D01*
X122460314Y-74127551D01*
X122483507Y-74193459D01*
X122467386Y-74261444D01*
X122417070Y-74309920D01*
X122405178Y-74315351D01*
X122353663Y-74335665D01*
X122277656Y-74365639D01*
X122157077Y-74457077D01*
X122065639Y-74577656D01*
X122010122Y-74718438D01*
X122007173Y-74742999D01*
X121999500Y-74806898D01*
X121999500Y-75418102D01*
X122000607Y-75427317D01*
X122002300Y-75441424D01*
X121990746Y-75510332D01*
X121966865Y-75543885D01*
X121539346Y-75971405D01*
X121524819Y-75991401D01*
X121469489Y-76034067D01*
X121399876Y-76040046D01*
X121338080Y-76007441D01*
X121303723Y-75946602D01*
X121300500Y-75918516D01*
X121300500Y-68849484D01*
X121320185Y-68782445D01*
X121372989Y-68736690D01*
X121442147Y-68726746D01*
X121505703Y-68755771D01*
X121539061Y-68802032D01*
X121575762Y-68890638D01*
X121575763Y-68890640D01*
X121575764Y-68890641D01*
X121672018Y-69016082D01*
X121797459Y-69112336D01*
X121922954Y-69164317D01*
X121977356Y-69208158D01*
X121999421Y-69274452D01*
X121999500Y-69278878D01*
X121999500Y-69793102D01*
X122005126Y-69839954D01*
X122010122Y-69881561D01*
X122065639Y-70022343D01*
X122157077Y-70142922D01*
X122277656Y-70234360D01*
X122277657Y-70234360D01*
X122277658Y-70234361D01*
X122405171Y-70284646D01*
X122460314Y-70327551D01*
X122483507Y-70393459D01*
X122467386Y-70461444D01*
X122417070Y-70509920D01*
X122405178Y-70515351D01*
X122374242Y-70527551D01*
X122277656Y-70565639D01*
X122157077Y-70657077D01*
X122065639Y-70777656D01*
X122010122Y-70918438D01*
X122004188Y-70967853D01*
X121999500Y-71006898D01*
X121999500Y-71618102D01*
X122002502Y-71643102D01*
X122010122Y-71706561D01*
X122065639Y-71847343D01*
X122157077Y-71967922D01*
X122277656Y-72059360D01*
X122277657Y-72059360D01*
X122277658Y-72059361D01*
X122418436Y-72114877D01*
X122506898Y-72125500D01*
X122506903Y-72125500D01*
X123493097Y-72125500D01*
X123493102Y-72125500D01*
X123581564Y-72114877D01*
X123722342Y-72059361D01*
X123842922Y-71967922D01*
X123881807Y-71916645D01*
X123937999Y-71875121D01*
X124007721Y-71870570D01*
X124028055Y-71877006D01*
X124077638Y-71897544D01*
X124156019Y-71907863D01*
X124234399Y-71918182D01*
X124234400Y-71918182D01*
X124234401Y-71918182D01*
X124286654Y-71911302D01*
X124391162Y-71897544D01*
X124431028Y-71881030D01*
X124500494Y-71873561D01*
X124562974Y-71904834D01*
X124577284Y-71920666D01*
X124632077Y-71992922D01*
X124752656Y-72084360D01*
X124752657Y-72084360D01*
X124752658Y-72084361D01*
X124893436Y-72139877D01*
X124907520Y-72141568D01*
X124971736Y-72169103D01*
X125010870Y-72226985D01*
X125012499Y-72296835D01*
X124976106Y-72356478D01*
X124927335Y-72383760D01*
X124789806Y-72423716D01*
X124789803Y-72423717D01*
X124648447Y-72507314D01*
X124648438Y-72507321D01*
X124532321Y-72623438D01*
X124532314Y-72623447D01*
X124448717Y-72764803D01*
X124448716Y-72764806D01*
X124402900Y-72922504D01*
X124402899Y-72922510D01*
X124400000Y-72959350D01*
X124400000Y-73037500D01*
X126600000Y-73037500D01*
X126600000Y-72959365D01*
X126599999Y-72959350D01*
X126597100Y-72922510D01*
X126597099Y-72922504D01*
X126551283Y-72764806D01*
X126551282Y-72764803D01*
X126467685Y-72623447D01*
X126467678Y-72623438D01*
X126351561Y-72507321D01*
X126351552Y-72507314D01*
X126210196Y-72423717D01*
X126210193Y-72423716D01*
X126072664Y-72383760D01*
X126013778Y-72346154D01*
X125984572Y-72282681D01*
X125994318Y-72213495D01*
X126039922Y-72160560D01*
X126092477Y-72141568D01*
X126106564Y-72139877D01*
X126247342Y-72084361D01*
X126367922Y-71992922D01*
X126459361Y-71872342D01*
X126514877Y-71731564D01*
X126525500Y-71643102D01*
X126525500Y-71056898D01*
X126514877Y-70968436D01*
X126459361Y-70827658D01*
X126459360Y-70827657D01*
X126459360Y-70827656D01*
X126367922Y-70707077D01*
X126247343Y-70615639D01*
X126166764Y-70583863D01*
X126120865Y-70565762D01*
X126065723Y-70522858D01*
X126042530Y-70456950D01*
X126058650Y-70388965D01*
X126108967Y-70340489D01*
X126131763Y-70331332D01*
X126235197Y-70301281D01*
X126376552Y-70217685D01*
X126376561Y-70217678D01*
X126492678Y-70101561D01*
X126492685Y-70101552D01*
X126576282Y-69960196D01*
X126576283Y-69960193D01*
X126622099Y-69802495D01*
X126622100Y-69802489D01*
X126624999Y-69765649D01*
X126625000Y-69765634D01*
X126625000Y-69700000D01*
X124375000Y-69700000D01*
X124375000Y-69765649D01*
X124377899Y-69802489D01*
X124377900Y-69802495D01*
X124423716Y-69960193D01*
X124423717Y-69960196D01*
X124507314Y-70101552D01*
X124507321Y-70101561D01*
X124623438Y-70217678D01*
X124623447Y-70217685D01*
X124764803Y-70301282D01*
X124764806Y-70301283D01*
X124868237Y-70331333D01*
X124927122Y-70368939D01*
X124956329Y-70432411D01*
X124946583Y-70501598D01*
X124900979Y-70554532D01*
X124879132Y-70565763D01*
X124752660Y-70615637D01*
X124752658Y-70615638D01*
X124632082Y-70707074D01*
X124632079Y-70707076D01*
X124629769Y-70710123D01*
X124620562Y-70722262D01*
X124564370Y-70763784D01*
X124494649Y-70768335D01*
X124474309Y-70761896D01*
X124391165Y-70727457D01*
X124391160Y-70727455D01*
X124234401Y-70706818D01*
X124234399Y-70706818D01*
X124077639Y-70727455D01*
X124077638Y-70727456D01*
X124028061Y-70747991D01*
X123958592Y-70755458D01*
X123896113Y-70724183D01*
X123881806Y-70708354D01*
X123842922Y-70657077D01*
X123722343Y-70565639D01*
X123684339Y-70550652D01*
X123594826Y-70515353D01*
X123539685Y-70472449D01*
X123516492Y-70406541D01*
X123532612Y-70338557D01*
X123582929Y-70290080D01*
X123594814Y-70284651D01*
X123722342Y-70234361D01*
X123842922Y-70142922D01*
X123934361Y-70022342D01*
X123989877Y-69881564D01*
X124000500Y-69793102D01*
X124000500Y-69200000D01*
X124375000Y-69200000D01*
X125250000Y-69200000D01*
X125250000Y-68550000D01*
X125750000Y-68550000D01*
X125750000Y-69200000D01*
X126625000Y-69200000D01*
X126625000Y-69134365D01*
X126624999Y-69134350D01*
X126622100Y-69097510D01*
X126622099Y-69097504D01*
X126576283Y-68939806D01*
X126576282Y-68939803D01*
X126492685Y-68798447D01*
X126492678Y-68798438D01*
X126376561Y-68682321D01*
X126376552Y-68682314D01*
X126235196Y-68598717D01*
X126235193Y-68598716D01*
X126077495Y-68552900D01*
X126077489Y-68552899D01*
X126040649Y-68550000D01*
X125750000Y-68550000D01*
X125250000Y-68550000D01*
X124959350Y-68550000D01*
X124922510Y-68552899D01*
X124922504Y-68552900D01*
X124764806Y-68598716D01*
X124764803Y-68598717D01*
X124623447Y-68682314D01*
X124623438Y-68682321D01*
X124507321Y-68798438D01*
X124507314Y-68798447D01*
X124423717Y-68939803D01*
X124423716Y-68939806D01*
X124377900Y-69097504D01*
X124377899Y-69097510D01*
X124375000Y-69134350D01*
X124375000Y-69200000D01*
X124000500Y-69200000D01*
X124000500Y-69181898D01*
X123989877Y-69093436D01*
X123934361Y-68952658D01*
X123934360Y-68952657D01*
X123934360Y-68952656D01*
X123842922Y-68832077D01*
X123722343Y-68740639D01*
X123581561Y-68685122D01*
X123535926Y-68679642D01*
X123493102Y-68674500D01*
X123493097Y-68674500D01*
X122840110Y-68674500D01*
X122773071Y-68654815D01*
X122752429Y-68638181D01*
X122736342Y-68622094D01*
X122702857Y-68560771D01*
X122701084Y-68550598D01*
X122701005Y-68550000D01*
X122685344Y-68431038D01*
X122624836Y-68284959D01*
X122528582Y-68159518D01*
X122403141Y-68063264D01*
X122257062Y-68002756D01*
X122257060Y-68002755D01*
X122100301Y-67982118D01*
X122100299Y-67982118D01*
X121943539Y-68002755D01*
X121943537Y-68002756D01*
X121797460Y-68063263D01*
X121672018Y-68159518D01*
X121575763Y-68284960D01*
X121539061Y-68373568D01*
X121495220Y-68427971D01*
X121428926Y-68450036D01*
X121361226Y-68432757D01*
X121313616Y-68381619D01*
X121300500Y-68326115D01*
X121300500Y-65889999D01*
X123772891Y-65889999D01*
X123772892Y-65890000D01*
X124566314Y-65890000D01*
X124540507Y-65930156D01*
X124500000Y-66068111D01*
X124500000Y-66211889D01*
X124540507Y-66349844D01*
X124566314Y-66390000D01*
X123772892Y-66390000D01*
X123820894Y-66569150D01*
X123820898Y-66569159D01*
X123913333Y-66767387D01*
X124038787Y-66946554D01*
X124193445Y-67101212D01*
X124372612Y-67226666D01*
X124570843Y-67319103D01*
X124750000Y-67367106D01*
X124750000Y-66575501D01*
X124857685Y-66624680D01*
X124964237Y-66640000D01*
X125035763Y-66640000D01*
X125142315Y-66624680D01*
X125250000Y-66575501D01*
X125250000Y-67367105D01*
X125429156Y-67319103D01*
X125429157Y-67319103D01*
X125627387Y-67226666D01*
X125806554Y-67101212D01*
X125961212Y-66946554D01*
X126086666Y-66767387D01*
X126179101Y-66569159D01*
X126179105Y-66569150D01*
X126227108Y-66390000D01*
X125433686Y-66390000D01*
X125459493Y-66349844D01*
X125500000Y-66211889D01*
X125500000Y-66068111D01*
X125459493Y-65930156D01*
X125433686Y-65890000D01*
X126227108Y-65890000D01*
X126227108Y-65889999D01*
X126179105Y-65710849D01*
X126179101Y-65710840D01*
X126086666Y-65512612D01*
X126086664Y-65512608D01*
X125961216Y-65333450D01*
X125961211Y-65333444D01*
X125806554Y-65178787D01*
X125627386Y-65053332D01*
X125627384Y-65053331D01*
X125484881Y-64986881D01*
X125432441Y-64940709D01*
X125413289Y-64873515D01*
X125433505Y-64806634D01*
X125486670Y-64761300D01*
X125537284Y-64750499D01*
X125894864Y-64750499D01*
X125894879Y-64750497D01*
X125894882Y-64750497D01*
X125919987Y-64747586D01*
X125919988Y-64747585D01*
X125919991Y-64747585D01*
X126022765Y-64702206D01*
X126102206Y-64622765D01*
X126147585Y-64519991D01*
X126150500Y-64494865D01*
X126150499Y-62705136D01*
X126149722Y-62698432D01*
X126147586Y-62680012D01*
X126147585Y-62680010D01*
X126147585Y-62680009D01*
X126102206Y-62577235D01*
X126022765Y-62497794D01*
X126001546Y-62488425D01*
X125919992Y-62452415D01*
X125894865Y-62449500D01*
X124105143Y-62449500D01*
X124105117Y-62449502D01*
X124080012Y-62452413D01*
X124080008Y-62452415D01*
X123977235Y-62497793D01*
X123897794Y-62577234D01*
X123852415Y-62680006D01*
X123852415Y-62680008D01*
X123849500Y-62705131D01*
X123849500Y-64494856D01*
X123849502Y-64494882D01*
X123852413Y-64519987D01*
X123852415Y-64519991D01*
X123897793Y-64622764D01*
X123897794Y-64622765D01*
X123977235Y-64702206D01*
X124080009Y-64747585D01*
X124105135Y-64750500D01*
X124462715Y-64750499D01*
X124529752Y-64770183D01*
X124575507Y-64822987D01*
X124585451Y-64892146D01*
X124556426Y-64955701D01*
X124515118Y-64986881D01*
X124372613Y-65053333D01*
X124372608Y-65053335D01*
X124193450Y-65178783D01*
X124193444Y-65178788D01*
X124038788Y-65333444D01*
X124038783Y-65333450D01*
X123913335Y-65512608D01*
X123913333Y-65512612D01*
X123820898Y-65710840D01*
X123820894Y-65710849D01*
X123772891Y-65889999D01*
X121300500Y-65889999D01*
X121300500Y-57847763D01*
X124185787Y-57847763D01*
X124215413Y-58117013D01*
X124215415Y-58117024D01*
X124267735Y-58317149D01*
X124283928Y-58379088D01*
X124389870Y-58628390D01*
X124442738Y-58715017D01*
X124530979Y-58859605D01*
X124530986Y-58859615D01*
X124704253Y-59067819D01*
X124704259Y-59067824D01*
X124809240Y-59161887D01*
X124905998Y-59248582D01*
X125131910Y-59398044D01*
X125377176Y-59513020D01*
X125377183Y-59513022D01*
X125377185Y-59513023D01*
X125636557Y-59591057D01*
X125636564Y-59591058D01*
X125636569Y-59591060D01*
X125904561Y-59630500D01*
X125904566Y-59630500D01*
X126107629Y-59630500D01*
X126107631Y-59630500D01*
X126107636Y-59630499D01*
X126107648Y-59630499D01*
X126145191Y-59627750D01*
X126310156Y-59615677D01*
X126422758Y-59590593D01*
X126574546Y-59556782D01*
X126574548Y-59556781D01*
X126574553Y-59556780D01*
X126827558Y-59460014D01*
X127063777Y-59327441D01*
X127278177Y-59161888D01*
X127466186Y-58966881D01*
X127623799Y-58746579D01*
X127742246Y-58516198D01*
X127747649Y-58505690D01*
X127747651Y-58505684D01*
X127747656Y-58505675D01*
X127835118Y-58249305D01*
X127884319Y-57982933D01*
X127894212Y-57712235D01*
X127864586Y-57442982D01*
X127796072Y-57180912D01*
X127690130Y-56931610D01*
X127549018Y-56700390D01*
X127470604Y-56606165D01*
X127375746Y-56492180D01*
X127375740Y-56492175D01*
X127174002Y-56311418D01*
X126948092Y-56161957D01*
X126822005Y-56102850D01*
X126702824Y-56046980D01*
X126702819Y-56046978D01*
X126702814Y-56046976D01*
X126443442Y-55968942D01*
X126443428Y-55968939D01*
X126327791Y-55951921D01*
X126175439Y-55929500D01*
X125972369Y-55929500D01*
X125972351Y-55929500D01*
X125769844Y-55944323D01*
X125769831Y-55944325D01*
X125505453Y-56003217D01*
X125505446Y-56003220D01*
X125252439Y-56099987D01*
X125016226Y-56232557D01*
X124801822Y-56398112D01*
X124613822Y-56593109D01*
X124613816Y-56593116D01*
X124456202Y-56813419D01*
X124456199Y-56813424D01*
X124332350Y-57054309D01*
X124332343Y-57054327D01*
X124244884Y-57310685D01*
X124244881Y-57310699D01*
X124195681Y-57577068D01*
X124195680Y-57577075D01*
X124185787Y-57847763D01*
X121300500Y-57847763D01*
X121300500Y-52381995D01*
X121300500Y-52381989D01*
X121269693Y-52147986D01*
X121208606Y-51920007D01*
X121118284Y-51701951D01*
X121118282Y-51701948D01*
X121118280Y-51701943D01*
X121076118Y-51628918D01*
X121000273Y-51497550D01*
X120894120Y-51359208D01*
X120856593Y-51310302D01*
X120856587Y-51310295D01*
X120689704Y-51143412D01*
X120689697Y-51143406D01*
X120502454Y-50999730D01*
X120502453Y-50999729D01*
X120502450Y-50999727D01*
X120411268Y-50947083D01*
X120298056Y-50881719D01*
X120298045Y-50881714D01*
X120138545Y-50815647D01*
X120079993Y-50791394D01*
X120035453Y-50779459D01*
X119975794Y-50743094D01*
X119945266Y-50680247D01*
X119953561Y-50610871D01*
X119998047Y-50556994D01*
X120022052Y-50544333D01*
X120047342Y-50534361D01*
X120167922Y-50442922D01*
X120259361Y-50322342D01*
X120314877Y-50181564D01*
X120325500Y-50093102D01*
X120325500Y-49106898D01*
X120314877Y-49018436D01*
X120259361Y-48877658D01*
X120259360Y-48877657D01*
X120259360Y-48877656D01*
X120167922Y-48757077D01*
X120047341Y-48665638D01*
X120047339Y-48665637D01*
X119924010Y-48617002D01*
X119868866Y-48574096D01*
X119845673Y-48508189D01*
X119845500Y-48501648D01*
X119845500Y-47753919D01*
X119865185Y-47686880D01*
X119917989Y-47641125D01*
X119924687Y-47638300D01*
X119935019Y-47634298D01*
X120116302Y-47522052D01*
X120273872Y-47378407D01*
X120402366Y-47208255D01*
X120438746Y-47135193D01*
X120497403Y-47017394D01*
X120497403Y-47017393D01*
X120497405Y-47017389D01*
X120555756Y-46812310D01*
X120575429Y-46600000D01*
X120555756Y-46387690D01*
X120497405Y-46182611D01*
X120497403Y-46182606D01*
X120497403Y-46182605D01*
X120402367Y-45991746D01*
X120273872Y-45821593D01*
X120256412Y-45805676D01*
X120116302Y-45677948D01*
X119935019Y-45565702D01*
X119935017Y-45565701D01*
X119736197Y-45488678D01*
X119702863Y-45482447D01*
X119640583Y-45450778D01*
X119605311Y-45390466D01*
X119608245Y-45320658D01*
X119637967Y-45272880D01*
X120732129Y-44178719D01*
X120793452Y-44145234D01*
X120819810Y-44142400D01*
X120916755Y-44142400D01*
X120936152Y-44143926D01*
X120960000Y-44147704D01*
X120960002Y-44147704D01*
X121093121Y-44126620D01*
X121093121Y-44126619D01*
X121093126Y-44126619D01*
X121213220Y-44065428D01*
X121308528Y-43970120D01*
X121369719Y-43850026D01*
X121373236Y-43827824D01*
X121385500Y-43750389D01*
X121385500Y-43750387D01*
X121390804Y-43716900D01*
X121390051Y-43712147D01*
X121399004Y-43642855D01*
X121443999Y-43589402D01*
X121467734Y-43577120D01*
X121475019Y-43574298D01*
X121656302Y-43462052D01*
X121813872Y-43318407D01*
X121942366Y-43148255D01*
X121950794Y-43131330D01*
X122037403Y-42957394D01*
X122037403Y-42957393D01*
X122037405Y-42957389D01*
X122095756Y-42752310D01*
X122102029Y-42684605D01*
X122127814Y-42619669D01*
X122184614Y-42578981D01*
X122254395Y-42575461D01*
X122315002Y-42610225D01*
X122347193Y-42672238D01*
X122349500Y-42696047D01*
X122349500Y-43434856D01*
X122349502Y-43434882D01*
X122352413Y-43459987D01*
X122352415Y-43459991D01*
X122397793Y-43562764D01*
X122397794Y-43562765D01*
X122477235Y-43642206D01*
X122580009Y-43687585D01*
X122605135Y-43690500D01*
X124394864Y-43690499D01*
X124394879Y-43690497D01*
X124394882Y-43690497D01*
X124419987Y-43687586D01*
X124419988Y-43687585D01*
X124419991Y-43687585D01*
X124522765Y-43642206D01*
X124602206Y-43562765D01*
X124647585Y-43459991D01*
X124650500Y-43434865D01*
X124650499Y-41645136D01*
X124650422Y-41644471D01*
X124647586Y-41620012D01*
X124647585Y-41620010D01*
X124647585Y-41620009D01*
X124602206Y-41517235D01*
X124522765Y-41437794D01*
X124502124Y-41428680D01*
X124419992Y-41392415D01*
X124394865Y-41389500D01*
X122605143Y-41389500D01*
X122605117Y-41389502D01*
X122580012Y-41392413D01*
X122580008Y-41392415D01*
X122477235Y-41437793D01*
X122397794Y-41517234D01*
X122352415Y-41620006D01*
X122352415Y-41620008D01*
X122349500Y-41645131D01*
X122349500Y-42383951D01*
X122329815Y-42450990D01*
X122277011Y-42496745D01*
X122207853Y-42506689D01*
X122144297Y-42477664D01*
X122106523Y-42418886D01*
X122102029Y-42395391D01*
X122095756Y-42327689D01*
X122060274Y-42202986D01*
X122037405Y-42122611D01*
X122037403Y-42122606D01*
X122037403Y-42122605D01*
X121942367Y-41931746D01*
X121813872Y-41761593D01*
X121741737Y-41695833D01*
X121656302Y-41617948D01*
X121475019Y-41505702D01*
X121475017Y-41505701D01*
X121375608Y-41467190D01*
X121276198Y-41428679D01*
X121066610Y-41389500D01*
X120853390Y-41389500D01*
X120643802Y-41428679D01*
X120643799Y-41428679D01*
X120643799Y-41428680D01*
X120444982Y-41505701D01*
X120444980Y-41505702D01*
X120263699Y-41617947D01*
X120106127Y-41761593D01*
X119977632Y-41931746D01*
X119882596Y-42122605D01*
X119882596Y-42122607D01*
X119824244Y-42327689D01*
X119813471Y-42443951D01*
X119787685Y-42508888D01*
X119743130Y-42540804D01*
X119779503Y-42561668D01*
X119811693Y-42623681D01*
X119813471Y-42636048D01*
X119824244Y-42752310D01*
X119882596Y-42957392D01*
X119882596Y-42957394D01*
X119977632Y-43148253D01*
X119977634Y-43148255D01*
X120106128Y-43318407D01*
X120106130Y-43318409D01*
X120106129Y-43318409D01*
X120158102Y-43365789D01*
X120194383Y-43425500D01*
X120192622Y-43495348D01*
X120162244Y-43545106D01*
X117971080Y-45736272D01*
X117971079Y-45736273D01*
X117897046Y-45810304D01*
X117835722Y-45843789D01*
X117766031Y-45838803D01*
X117725828Y-45814259D01*
X117578562Y-45680008D01*
X117576302Y-45677948D01*
X117395019Y-45565702D01*
X117395017Y-45565701D01*
X117285922Y-45523438D01*
X117196198Y-45488679D01*
X116986610Y-45449500D01*
X116773390Y-45449500D01*
X116563802Y-45488679D01*
X116563799Y-45488679D01*
X116563799Y-45488680D01*
X116364982Y-45565701D01*
X116364980Y-45565702D01*
X116183699Y-45677947D01*
X116026127Y-45821593D01*
X115897632Y-45991746D01*
X115802596Y-46182605D01*
X115802596Y-46182607D01*
X115748103Y-46374129D01*
X115744244Y-46387690D01*
X115724571Y-46600000D01*
X115744244Y-46812310D01*
X115800509Y-47010059D01*
X115802596Y-47017392D01*
X115802597Y-47017394D01*
X115886860Y-47186619D01*
X115899121Y-47255404D01*
X115872248Y-47319899D01*
X115814771Y-47359627D01*
X115795261Y-47364363D01*
X115777474Y-47367180D01*
X115755959Y-47378142D01*
X115737989Y-47385585D01*
X115715021Y-47393048D01*
X115715017Y-47393049D01*
X115695480Y-47407244D01*
X115678898Y-47417406D01*
X115657383Y-47428369D01*
X115657380Y-47428371D01*
X115633406Y-47452346D01*
X114518885Y-48566865D01*
X114457562Y-48600350D01*
X114416424Y-48602300D01*
X114401263Y-48600479D01*
X114393102Y-48599500D01*
X113781898Y-48599500D01*
X113742853Y-48604188D01*
X113693438Y-48610122D01*
X113552656Y-48665639D01*
X113432077Y-48757077D01*
X113340639Y-48877656D01*
X113285122Y-49018438D01*
X113279188Y-49067853D01*
X113274500Y-49106898D01*
X113274500Y-50093102D01*
X113277309Y-50116492D01*
X113285122Y-50181561D01*
X113285122Y-50181563D01*
X113285123Y-50181564D01*
X113286471Y-50184982D01*
X113340639Y-50322343D01*
X113432077Y-50442922D01*
X113476615Y-50476696D01*
X113518139Y-50532889D01*
X113522690Y-50602610D01*
X113488825Y-50663724D01*
X113427295Y-50696828D01*
X113401690Y-50699500D01*
X110774610Y-50699500D01*
X110707571Y-50679815D01*
X110661816Y-50627011D01*
X110651872Y-50557853D01*
X110680897Y-50494297D01*
X110686929Y-50487819D01*
X112049089Y-49125659D01*
X113394553Y-47780195D01*
X113418528Y-47756220D01*
X113429493Y-47734698D01*
X113439654Y-47718118D01*
X113453849Y-47698581D01*
X113461309Y-47675616D01*
X113468759Y-47657634D01*
X113469759Y-47655673D01*
X113479719Y-47636126D01*
X113483495Y-47612276D01*
X113488036Y-47593360D01*
X113495500Y-47570393D01*
X113495500Y-47435607D01*
X113495500Y-46319210D01*
X113515185Y-46252171D01*
X113531819Y-46231529D01*
X115382829Y-44380519D01*
X115444152Y-44347034D01*
X115470510Y-44344200D01*
X116317192Y-44344200D01*
X116317193Y-44344200D01*
X116340160Y-44336736D01*
X116359076Y-44332195D01*
X116382926Y-44328419D01*
X116404436Y-44317457D01*
X116422414Y-44310010D01*
X116445381Y-44302549D01*
X116464918Y-44288353D01*
X116481506Y-44278188D01*
X116503020Y-44267228D01*
X116598328Y-44171920D01*
X117394653Y-43375595D01*
X117418628Y-43351620D01*
X117418629Y-43351616D01*
X117422619Y-43347627D01*
X117483942Y-43314141D01*
X117553633Y-43319124D01*
X117593837Y-43343668D01*
X117723698Y-43462052D01*
X117904981Y-43574298D01*
X118103802Y-43651321D01*
X118313390Y-43690500D01*
X118313392Y-43690500D01*
X118526608Y-43690500D01*
X118526610Y-43690500D01*
X118736198Y-43651321D01*
X118935019Y-43574298D01*
X119116302Y-43462052D01*
X119273872Y-43318407D01*
X119402366Y-43148255D01*
X119410794Y-43131330D01*
X119497403Y-42957394D01*
X119497403Y-42957393D01*
X119497405Y-42957389D01*
X119555756Y-42752310D01*
X119566529Y-42636047D01*
X119592315Y-42571111D01*
X119636869Y-42539194D01*
X119600497Y-42518331D01*
X119568307Y-42456318D01*
X119566529Y-42443951D01*
X119560969Y-42383951D01*
X119555756Y-42327690D01*
X119497405Y-42122611D01*
X119497403Y-42122606D01*
X119497403Y-42122605D01*
X119402367Y-41931746D01*
X119273872Y-41761593D01*
X119201737Y-41695833D01*
X119116302Y-41617948D01*
X118935019Y-41505702D01*
X118935017Y-41505701D01*
X118835608Y-41467190D01*
X118736198Y-41428679D01*
X118526610Y-41389500D01*
X118313390Y-41389500D01*
X118103802Y-41428679D01*
X118103799Y-41428679D01*
X118103799Y-41428680D01*
X117904982Y-41505701D01*
X117904980Y-41505702D01*
X117723699Y-41617947D01*
X117566123Y-41761597D01*
X117562267Y-41765828D01*
X117560958Y-41764635D01*
X117511361Y-41801417D01*
X117441648Y-41806087D01*
X117380870Y-41772722D01*
X116618018Y-41009870D01*
X116596503Y-40998908D01*
X116579910Y-40988740D01*
X116560380Y-40974550D01*
X116537415Y-40967088D01*
X116519441Y-40959643D01*
X116497927Y-40948681D01*
X116492810Y-40947870D01*
X116474073Y-40944903D01*
X116455158Y-40940362D01*
X116432194Y-40932900D01*
X116432193Y-40932900D01*
X116398288Y-40932900D01*
X114588993Y-40932900D01*
X114454207Y-40932900D01*
X114454204Y-40932901D01*
X114431235Y-40940363D01*
X114412322Y-40944903D01*
X114388474Y-40948680D01*
X114366959Y-40959642D01*
X114348989Y-40967085D01*
X114326021Y-40974548D01*
X114326017Y-40974549D01*
X114306480Y-40988744D01*
X114289898Y-40998906D01*
X114268383Y-41009869D01*
X114268380Y-41009871D01*
X114244406Y-41033846D01*
X113852710Y-41425540D01*
X113791387Y-41459025D01*
X113721695Y-41454041D01*
X113720237Y-41453486D01*
X113656205Y-41428680D01*
X113553958Y-41409567D01*
X113446610Y-41389500D01*
X113233390Y-41389500D01*
X113023802Y-41428679D01*
X113023799Y-41428679D01*
X113023799Y-41428680D01*
X112824982Y-41505701D01*
X112824980Y-41505702D01*
X112643699Y-41617947D01*
X112486127Y-41761593D01*
X112357632Y-41931746D01*
X112262596Y-42122605D01*
X112262596Y-42122607D01*
X112204244Y-42327689D01*
X112193471Y-42443951D01*
X112167685Y-42508888D01*
X112123130Y-42540804D01*
X112159503Y-42561668D01*
X112191693Y-42623681D01*
X112193471Y-42636048D01*
X112204244Y-42752310D01*
X112262596Y-42957392D01*
X112262596Y-42957394D01*
X112339645Y-43112129D01*
X112351906Y-43180914D01*
X112325033Y-43245409D01*
X112267557Y-43285137D01*
X112228645Y-43291400D01*
X111911355Y-43291400D01*
X111844316Y-43271715D01*
X111798561Y-43218911D01*
X111788617Y-43149753D01*
X111800355Y-43112129D01*
X111877403Y-42957394D01*
X111877403Y-42957393D01*
X111877405Y-42957389D01*
X111935756Y-42752310D01*
X111946529Y-42636047D01*
X111972315Y-42571111D01*
X112016869Y-42539194D01*
X111980497Y-42518331D01*
X111948307Y-42456318D01*
X111946529Y-42443951D01*
X111940969Y-42383951D01*
X111935756Y-42327690D01*
X111877405Y-42122611D01*
X111877403Y-42122606D01*
X111877403Y-42122605D01*
X111782367Y-41931746D01*
X111653872Y-41761593D01*
X111581737Y-41695833D01*
X111496302Y-41617948D01*
X111315019Y-41505702D01*
X111315017Y-41505701D01*
X111215608Y-41467190D01*
X111116198Y-41428679D01*
X110906610Y-41389500D01*
X110693390Y-41389500D01*
X110483802Y-41428679D01*
X110483799Y-41428679D01*
X110483799Y-41428680D01*
X110284982Y-41505701D01*
X110284980Y-41505702D01*
X110103699Y-41617947D01*
X109946127Y-41761593D01*
X109817632Y-41931746D01*
X109722596Y-42122605D01*
X109722596Y-42122607D01*
X109664244Y-42327689D01*
X109653471Y-42443951D01*
X109627685Y-42508888D01*
X109583130Y-42540804D01*
X109619503Y-42561668D01*
X109651693Y-42623681D01*
X109653471Y-42636048D01*
X109664244Y-42752310D01*
X109722596Y-42957392D01*
X109722596Y-42957394D01*
X109799645Y-43112129D01*
X109811906Y-43180914D01*
X109785033Y-43245409D01*
X109727557Y-43285137D01*
X109688645Y-43291400D01*
X109371355Y-43291400D01*
X109304316Y-43271715D01*
X109258561Y-43218911D01*
X109248617Y-43149753D01*
X109260355Y-43112129D01*
X109337403Y-42957394D01*
X109337403Y-42957393D01*
X109337405Y-42957389D01*
X109395756Y-42752310D01*
X109406529Y-42636047D01*
X109432315Y-42571111D01*
X109476869Y-42539194D01*
X109440497Y-42518331D01*
X109408307Y-42456318D01*
X109406529Y-42443951D01*
X109400969Y-42383951D01*
X109395756Y-42327690D01*
X109337405Y-42122611D01*
X109337403Y-42122606D01*
X109337403Y-42122605D01*
X109242367Y-41931746D01*
X109113872Y-41761593D01*
X109041737Y-41695833D01*
X108956302Y-41617948D01*
X108775019Y-41505702D01*
X108775017Y-41505701D01*
X108675608Y-41467190D01*
X108576198Y-41428679D01*
X108366610Y-41389500D01*
X108153390Y-41389500D01*
X107943802Y-41428679D01*
X107943799Y-41428679D01*
X107943799Y-41428680D01*
X107744982Y-41505701D01*
X107744980Y-41505702D01*
X107563699Y-41617947D01*
X107406127Y-41761593D01*
X107277632Y-41931746D01*
X107182596Y-42122605D01*
X107182596Y-42122607D01*
X107124244Y-42327689D01*
X107113471Y-42443951D01*
X107087685Y-42508888D01*
X107043130Y-42540804D01*
X107079503Y-42561668D01*
X107111693Y-42623681D01*
X107113471Y-42636048D01*
X107124244Y-42752310D01*
X107182596Y-42957392D01*
X107182596Y-42957394D01*
X107269206Y-43131330D01*
X107281467Y-43200115D01*
X107254594Y-43264610D01*
X107197118Y-43304338D01*
X107196526Y-43304531D01*
X107188375Y-43307179D01*
X107166858Y-43318143D01*
X107148885Y-43325588D01*
X107125917Y-43333051D01*
X107125914Y-43333052D01*
X107106378Y-43347246D01*
X107089793Y-43357410D01*
X107068280Y-43368371D01*
X107061057Y-43375595D01*
X107044306Y-43392346D01*
X105103680Y-45332972D01*
X105062152Y-45374500D01*
X105008371Y-45428280D01*
X104997410Y-45449793D01*
X104987246Y-45466378D01*
X104973052Y-45485914D01*
X104973051Y-45485917D01*
X104965588Y-45508885D01*
X104958143Y-45526858D01*
X104942750Y-45557069D01*
X104940058Y-45555697D01*
X104909640Y-45600165D01*
X104845276Y-45627350D01*
X104776432Y-45615421D01*
X104765889Y-45609582D01*
X104695024Y-45565705D01*
X104695017Y-45565701D01*
X104585922Y-45523438D01*
X104496198Y-45488679D01*
X104286610Y-45449500D01*
X104073390Y-45449500D01*
X103863802Y-45488679D01*
X103863799Y-45488679D01*
X103863799Y-45488680D01*
X103664982Y-45565701D01*
X103664980Y-45565702D01*
X103483699Y-45677947D01*
X103326127Y-45821593D01*
X103197632Y-45991746D01*
X103102596Y-46182605D01*
X103102596Y-46182607D01*
X103048103Y-46374129D01*
X103044244Y-46387690D01*
X103024571Y-46600000D01*
X103044244Y-46812310D01*
X103100509Y-47010059D01*
X103102596Y-47017392D01*
X103102596Y-47017394D01*
X103197632Y-47208253D01*
X103326127Y-47378406D01*
X103326128Y-47378407D01*
X103483698Y-47522052D01*
X103497185Y-47530403D01*
X103498752Y-47531373D01*
X103545387Y-47583401D01*
X103556491Y-47652383D01*
X103528538Y-47716417D01*
X103470402Y-47755174D01*
X103433474Y-47760800D01*
X100590801Y-47760800D01*
X100523762Y-47741115D01*
X100515315Y-47735176D01*
X100476390Y-47705308D01*
X100435187Y-47648880D01*
X100431032Y-47579134D01*
X100464192Y-47519255D01*
X100694554Y-47288894D01*
X100718528Y-47264920D01*
X100729488Y-47243406D01*
X100739653Y-47226818D01*
X100753849Y-47207281D01*
X100761310Y-47184314D01*
X100768759Y-47166334D01*
X100779718Y-47144828D01*
X100779718Y-47144827D01*
X100779719Y-47144826D01*
X100783495Y-47120976D01*
X100788036Y-47102060D01*
X100795500Y-47079093D01*
X100795500Y-46944307D01*
X100795500Y-45234510D01*
X100815185Y-45167471D01*
X100831819Y-45146829D01*
X101408567Y-44570081D01*
X101984553Y-43994095D01*
X101984554Y-43994094D01*
X102008528Y-43970120D01*
X102019493Y-43948598D01*
X102029654Y-43932018D01*
X102043849Y-43912481D01*
X102051309Y-43889516D01*
X102058759Y-43871534D01*
X102059395Y-43870287D01*
X102069719Y-43850026D01*
X102073495Y-43826176D01*
X102078037Y-43807257D01*
X102085500Y-43784293D01*
X102085500Y-43784291D01*
X102088138Y-43776175D01*
X102127578Y-43718501D01*
X102191939Y-43691307D01*
X102206067Y-43690499D01*
X102554856Y-43690499D01*
X102554864Y-43690499D01*
X102554879Y-43690497D01*
X102554882Y-43690497D01*
X102579987Y-43687586D01*
X102579988Y-43687585D01*
X102579991Y-43687585D01*
X102682765Y-43642206D01*
X102762206Y-43562765D01*
X102807585Y-43459991D01*
X102810500Y-43434865D01*
X102810499Y-42540000D01*
X104564571Y-42540000D01*
X104584244Y-42752310D01*
X104642596Y-42957392D01*
X104642596Y-42957394D01*
X104737632Y-43148253D01*
X104866127Y-43318406D01*
X104866128Y-43318407D01*
X105023698Y-43462052D01*
X105204981Y-43574298D01*
X105403802Y-43651321D01*
X105613390Y-43690500D01*
X105613392Y-43690500D01*
X105826608Y-43690500D01*
X105826610Y-43690500D01*
X106036198Y-43651321D01*
X106235019Y-43574298D01*
X106416302Y-43462052D01*
X106573872Y-43318407D01*
X106702366Y-43148255D01*
X106710794Y-43131330D01*
X106797403Y-42957394D01*
X106797403Y-42957393D01*
X106797405Y-42957389D01*
X106855756Y-42752310D01*
X106866529Y-42636047D01*
X106892315Y-42571111D01*
X106936869Y-42539194D01*
X106900497Y-42518331D01*
X106868307Y-42456318D01*
X106866529Y-42443951D01*
X106860969Y-42383951D01*
X106855756Y-42327690D01*
X106797405Y-42122611D01*
X106797403Y-42122606D01*
X106797403Y-42122605D01*
X106702367Y-41931746D01*
X106573872Y-41761593D01*
X106501737Y-41695833D01*
X106416302Y-41617948D01*
X106235019Y-41505702D01*
X106235017Y-41505701D01*
X106135608Y-41467190D01*
X106036198Y-41428679D01*
X105826610Y-41389500D01*
X105613390Y-41389500D01*
X105403802Y-41428679D01*
X105403799Y-41428679D01*
X105403799Y-41428680D01*
X105204982Y-41505701D01*
X105204980Y-41505702D01*
X105023699Y-41617947D01*
X104866127Y-41761593D01*
X104737632Y-41931746D01*
X104642596Y-42122605D01*
X104642596Y-42122607D01*
X104584244Y-42327689D01*
X104564571Y-42539999D01*
X104564571Y-42540000D01*
X102810499Y-42540000D01*
X102810499Y-41645136D01*
X102810422Y-41644471D01*
X102807586Y-41620012D01*
X102807585Y-41620010D01*
X102807585Y-41620009D01*
X102762206Y-41517235D01*
X102682765Y-41437794D01*
X102662124Y-41428680D01*
X102579992Y-41392415D01*
X102554865Y-41389500D01*
X100765143Y-41389500D01*
X100765117Y-41389502D01*
X100740012Y-41392413D01*
X100740008Y-41392415D01*
X100637235Y-41437793D01*
X100557794Y-41517234D01*
X100512415Y-41620006D01*
X100512415Y-41620008D01*
X100509500Y-41645131D01*
X100509500Y-42383951D01*
X100489815Y-42450990D01*
X100437011Y-42496745D01*
X100367853Y-42506689D01*
X100304297Y-42477664D01*
X100266523Y-42418886D01*
X100262029Y-42395391D01*
X100255756Y-42327689D01*
X100220274Y-42202986D01*
X100197405Y-42122611D01*
X100197403Y-42122606D01*
X100197403Y-42122605D01*
X100102367Y-41931746D01*
X99973872Y-41761593D01*
X99901737Y-41695833D01*
X99816302Y-41617948D01*
X99635019Y-41505702D01*
X99635017Y-41505701D01*
X99535608Y-41467190D01*
X99436198Y-41428679D01*
X99226610Y-41389500D01*
X99013390Y-41389500D01*
X98803802Y-41428679D01*
X98803799Y-41428679D01*
X98803799Y-41428680D01*
X98604982Y-41505701D01*
X98604980Y-41505702D01*
X98423699Y-41617947D01*
X98266127Y-41761593D01*
X98137632Y-41931746D01*
X98042596Y-42122605D01*
X98042596Y-42122607D01*
X97984244Y-42327689D01*
X97973471Y-42443951D01*
X97947685Y-42508888D01*
X97903130Y-42540804D01*
X97939503Y-42561668D01*
X97971693Y-42623681D01*
X97973471Y-42636048D01*
X97984244Y-42752310D01*
X98042596Y-42957392D01*
X98042596Y-42957394D01*
X98137632Y-43148253D01*
X98266127Y-43318406D01*
X98266128Y-43318407D01*
X98423698Y-43462052D01*
X98423700Y-43462053D01*
X98423701Y-43462054D01*
X98506387Y-43513251D01*
X98553023Y-43565279D01*
X98564127Y-43634260D01*
X98536174Y-43698295D01*
X98528791Y-43706359D01*
X97665071Y-44570081D01*
X97576780Y-44658372D01*
X97551782Y-44683370D01*
X97481471Y-44753680D01*
X97470510Y-44775193D01*
X97460346Y-44791778D01*
X97446152Y-44811314D01*
X97446151Y-44811317D01*
X97438688Y-44834285D01*
X97431243Y-44852258D01*
X97420280Y-44873773D01*
X97416503Y-44897622D01*
X97411962Y-44916539D01*
X97404500Y-44939504D01*
X97404500Y-45547085D01*
X97384815Y-45614124D01*
X97332011Y-45659879D01*
X97262853Y-45669823D01*
X97215223Y-45652512D01*
X97075024Y-45565705D01*
X97075017Y-45565701D01*
X96965922Y-45523438D01*
X96876198Y-45488679D01*
X96666610Y-45449500D01*
X96453390Y-45449500D01*
X96243802Y-45488679D01*
X96243799Y-45488679D01*
X96243799Y-45488680D01*
X96044982Y-45565701D01*
X96044980Y-45565702D01*
X95863699Y-45677947D01*
X95706127Y-45821593D01*
X95577632Y-45991746D01*
X95482596Y-46182605D01*
X95482596Y-46182607D01*
X95424244Y-46387689D01*
X95413471Y-46503951D01*
X95387685Y-46568888D01*
X95343130Y-46600804D01*
X95379503Y-46621668D01*
X95411693Y-46683681D01*
X95413470Y-46696047D01*
X95424244Y-46812310D01*
X95480509Y-47010059D01*
X95482596Y-47017392D01*
X95482596Y-47017394D01*
X95577632Y-47208253D01*
X95605136Y-47244673D01*
X95629828Y-47310034D01*
X95615263Y-47378368D01*
X95566066Y-47427981D01*
X95506182Y-47443400D01*
X95073818Y-47443400D01*
X95006779Y-47423715D01*
X94961024Y-47370911D01*
X94951080Y-47301753D01*
X94974864Y-47244673D01*
X94975817Y-47243411D01*
X95002366Y-47208255D01*
X95038746Y-47135193D01*
X95097403Y-47017394D01*
X95097403Y-47017393D01*
X95097405Y-47017389D01*
X95155756Y-46812310D01*
X95166529Y-46696047D01*
X95192315Y-46631111D01*
X95236869Y-46599194D01*
X95200497Y-46578331D01*
X95168307Y-46516318D01*
X95166529Y-46503951D01*
X95162624Y-46461810D01*
X95155756Y-46387690D01*
X95097405Y-46182611D01*
X95097403Y-46182606D01*
X95097403Y-46182605D01*
X95002367Y-45991746D01*
X94873872Y-45821593D01*
X94856412Y-45805676D01*
X94716302Y-45677948D01*
X94535019Y-45565702D01*
X94535017Y-45565701D01*
X94425922Y-45523438D01*
X94336198Y-45488679D01*
X94126610Y-45449500D01*
X93913390Y-45449500D01*
X93703802Y-45488679D01*
X93703799Y-45488679D01*
X93703799Y-45488680D01*
X93504982Y-45565701D01*
X93504980Y-45565702D01*
X93323696Y-45677949D01*
X93183587Y-45805676D01*
X93120783Y-45836293D01*
X93051396Y-45828096D01*
X93012368Y-45801720D01*
X91071125Y-43860477D01*
X91037640Y-43799154D01*
X91042624Y-43729462D01*
X91084496Y-43673529D01*
X91149960Y-43649112D01*
X91181591Y-43650907D01*
X91183798Y-43651319D01*
X91183802Y-43651321D01*
X91393390Y-43690500D01*
X91393392Y-43690500D01*
X91606608Y-43690500D01*
X91606610Y-43690500D01*
X91816198Y-43651321D01*
X92015019Y-43574298D01*
X92196302Y-43462052D01*
X92353872Y-43318407D01*
X92482366Y-43148255D01*
X92490794Y-43131330D01*
X92577403Y-42957394D01*
X92577403Y-42957393D01*
X92577405Y-42957389D01*
X92635756Y-42752310D01*
X92646529Y-42636047D01*
X92672315Y-42571111D01*
X92714622Y-42540804D01*
X92823130Y-42540804D01*
X92859503Y-42561668D01*
X92891693Y-42623681D01*
X92893471Y-42636048D01*
X92904244Y-42752310D01*
X92962596Y-42957392D01*
X92962596Y-42957394D01*
X93057632Y-43148253D01*
X93186127Y-43318406D01*
X93186128Y-43318407D01*
X93343698Y-43462052D01*
X93524981Y-43574298D01*
X93723802Y-43651321D01*
X93933390Y-43690500D01*
X93933392Y-43690500D01*
X94146608Y-43690500D01*
X94146610Y-43690500D01*
X94356198Y-43651321D01*
X94555019Y-43574298D01*
X94736302Y-43462052D01*
X94893872Y-43318407D01*
X95022366Y-43148255D01*
X95030794Y-43131330D01*
X95117403Y-42957394D01*
X95117403Y-42957393D01*
X95117405Y-42957389D01*
X95175756Y-42752310D01*
X95186529Y-42636047D01*
X95212315Y-42571111D01*
X95254622Y-42540804D01*
X95363130Y-42540804D01*
X95399503Y-42561668D01*
X95431693Y-42623681D01*
X95433471Y-42636048D01*
X95444244Y-42752310D01*
X95502596Y-42957392D01*
X95502596Y-42957394D01*
X95597632Y-43148253D01*
X95726127Y-43318406D01*
X95726128Y-43318407D01*
X95883698Y-43462052D01*
X96064981Y-43574298D01*
X96263802Y-43651321D01*
X96473390Y-43690500D01*
X96473392Y-43690500D01*
X96686608Y-43690500D01*
X96686610Y-43690500D01*
X96896198Y-43651321D01*
X97095019Y-43574298D01*
X97276302Y-43462052D01*
X97433872Y-43318407D01*
X97562366Y-43148255D01*
X97570794Y-43131330D01*
X97657403Y-42957394D01*
X97657403Y-42957393D01*
X97657405Y-42957389D01*
X97715756Y-42752310D01*
X97726529Y-42636047D01*
X97752315Y-42571111D01*
X97796869Y-42539194D01*
X97760497Y-42518331D01*
X97728307Y-42456318D01*
X97726529Y-42443951D01*
X97720969Y-42383951D01*
X97715756Y-42327690D01*
X97657405Y-42122611D01*
X97657403Y-42122606D01*
X97657403Y-42122605D01*
X97562367Y-41931746D01*
X97433872Y-41761593D01*
X97361737Y-41695833D01*
X97276302Y-41617948D01*
X97095019Y-41505702D01*
X97095017Y-41505701D01*
X96995608Y-41467190D01*
X96896198Y-41428679D01*
X96686610Y-41389500D01*
X96473390Y-41389500D01*
X96263802Y-41428679D01*
X96263799Y-41428679D01*
X96263799Y-41428680D01*
X96064982Y-41505701D01*
X96064980Y-41505702D01*
X95883699Y-41617947D01*
X95726127Y-41761593D01*
X95597632Y-41931746D01*
X95502596Y-42122605D01*
X95502596Y-42122607D01*
X95444244Y-42327689D01*
X95433471Y-42443951D01*
X95407685Y-42508888D01*
X95363130Y-42540804D01*
X95254622Y-42540804D01*
X95256869Y-42539194D01*
X95220497Y-42518331D01*
X95188307Y-42456318D01*
X95186529Y-42443951D01*
X95180969Y-42383951D01*
X95175756Y-42327690D01*
X95117405Y-42122611D01*
X95117403Y-42122606D01*
X95117403Y-42122605D01*
X95022367Y-41931746D01*
X94893872Y-41761593D01*
X94821737Y-41695833D01*
X94736302Y-41617948D01*
X94555019Y-41505702D01*
X94555017Y-41505701D01*
X94455608Y-41467190D01*
X94356198Y-41428679D01*
X94146610Y-41389500D01*
X93933390Y-41389500D01*
X93723802Y-41428679D01*
X93723799Y-41428679D01*
X93723799Y-41428680D01*
X93524982Y-41505701D01*
X93524980Y-41505702D01*
X93343699Y-41617947D01*
X93186127Y-41761593D01*
X93057632Y-41931746D01*
X92962596Y-42122605D01*
X92962596Y-42122607D01*
X92904244Y-42327689D01*
X92893471Y-42443951D01*
X92867685Y-42508888D01*
X92823130Y-42540804D01*
X92714622Y-42540804D01*
X92716869Y-42539194D01*
X92680497Y-42518331D01*
X92648307Y-42456318D01*
X92646529Y-42443951D01*
X92640969Y-42383951D01*
X92635756Y-42327690D01*
X92577405Y-42122611D01*
X92577403Y-42122606D01*
X92577403Y-42122605D01*
X92482367Y-41931746D01*
X92353872Y-41761593D01*
X92281737Y-41695833D01*
X92196302Y-41617948D01*
X92015019Y-41505702D01*
X92015017Y-41505701D01*
X91915608Y-41467190D01*
X91816198Y-41428679D01*
X91606610Y-41389500D01*
X91393390Y-41389500D01*
X91183802Y-41428679D01*
X91183799Y-41428679D01*
X91183799Y-41428680D01*
X90984982Y-41505701D01*
X90984980Y-41505702D01*
X90803699Y-41617947D01*
X90646127Y-41761593D01*
X90517632Y-41931746D01*
X90422596Y-42122605D01*
X90422596Y-42122607D01*
X90364244Y-42327689D01*
X90353471Y-42443951D01*
X90327685Y-42508888D01*
X90283130Y-42540804D01*
X90319503Y-42561668D01*
X90351693Y-42623681D01*
X90353471Y-42636048D01*
X90364244Y-42752310D01*
X90422596Y-42957392D01*
X90422596Y-42957394D01*
X90499645Y-43112129D01*
X90511906Y-43180914D01*
X90485033Y-43245409D01*
X90427557Y-43285137D01*
X90388645Y-43291400D01*
X90071355Y-43291400D01*
X90004316Y-43271715D01*
X89958561Y-43218911D01*
X89948617Y-43149753D01*
X89960355Y-43112129D01*
X90037403Y-42957394D01*
X90037403Y-42957393D01*
X90037405Y-42957389D01*
X90095756Y-42752310D01*
X90106529Y-42636047D01*
X90132315Y-42571111D01*
X90176869Y-42539194D01*
X90140497Y-42518331D01*
X90108307Y-42456318D01*
X90106529Y-42443951D01*
X90100969Y-42383951D01*
X90095756Y-42327690D01*
X90037405Y-42122611D01*
X90037403Y-42122606D01*
X90037403Y-42122605D01*
X89942367Y-41931746D01*
X89813872Y-41761593D01*
X89741737Y-41695833D01*
X89656302Y-41617948D01*
X89475019Y-41505702D01*
X89475017Y-41505701D01*
X89375608Y-41467190D01*
X89276198Y-41428679D01*
X89066610Y-41389500D01*
X88853390Y-41389500D01*
X88643802Y-41428679D01*
X88643799Y-41428679D01*
X88643799Y-41428680D01*
X88444982Y-41505701D01*
X88444980Y-41505702D01*
X88263699Y-41617947D01*
X88106127Y-41761593D01*
X87977632Y-41931746D01*
X87882596Y-42122605D01*
X87882596Y-42122607D01*
X87824244Y-42327689D01*
X87804571Y-42539999D01*
X87804571Y-42540000D01*
X87824244Y-42752310D01*
X87882596Y-42957392D01*
X87882596Y-42957394D01*
X87959645Y-43112129D01*
X87971906Y-43180914D01*
X87945033Y-43245409D01*
X87887557Y-43285137D01*
X87848645Y-43291400D01*
X84991355Y-43291400D01*
X84924316Y-43271715D01*
X84878561Y-43218911D01*
X84868617Y-43149753D01*
X84880355Y-43112129D01*
X84957403Y-42957394D01*
X84957403Y-42957393D01*
X84957405Y-42957389D01*
X85015756Y-42752310D01*
X85035429Y-42540000D01*
X85015756Y-42327690D01*
X84957405Y-42122611D01*
X84957403Y-42122606D01*
X84957403Y-42122605D01*
X84862367Y-41931746D01*
X84733872Y-41761593D01*
X84661737Y-41695833D01*
X84576302Y-41617948D01*
X84395019Y-41505702D01*
X84395017Y-41505701D01*
X84295608Y-41467190D01*
X84196198Y-41428679D01*
X83986610Y-41389500D01*
X83773390Y-41389500D01*
X83563802Y-41428679D01*
X83563799Y-41428679D01*
X83563799Y-41428680D01*
X83364982Y-41505701D01*
X83364980Y-41505702D01*
X83183699Y-41617947D01*
X83026127Y-41761593D01*
X82897634Y-41931744D01*
X82824457Y-42078704D01*
X82776954Y-42129941D01*
X82709291Y-42147362D01*
X82657167Y-42133919D01*
X82650024Y-42130280D01*
X82650023Y-42130279D01*
X82550389Y-42114500D01*
X82550388Y-42114500D01*
X82533644Y-42111848D01*
X82516901Y-42109196D01*
X82516897Y-42109196D01*
X82508335Y-42110552D01*
X82439042Y-42101597D01*
X82385590Y-42056601D01*
X82377944Y-42043362D01*
X82322366Y-41931745D01*
X82274317Y-41868119D01*
X82193872Y-41761593D01*
X82121737Y-41695833D01*
X82036302Y-41617948D01*
X81855019Y-41505702D01*
X81855017Y-41505701D01*
X81755608Y-41467190D01*
X81656198Y-41428679D01*
X81446610Y-41389500D01*
X81233390Y-41389500D01*
X81023802Y-41428679D01*
X81023799Y-41428679D01*
X81023799Y-41428680D01*
X80824982Y-41505701D01*
X80824980Y-41505702D01*
X80643699Y-41617947D01*
X80486127Y-41761593D01*
X80357634Y-41931744D01*
X80284457Y-42078704D01*
X80236954Y-42129941D01*
X80169291Y-42147362D01*
X80117167Y-42133919D01*
X80110024Y-42130280D01*
X80110023Y-42130279D01*
X80010389Y-42114500D01*
X80010388Y-42114500D01*
X79993644Y-42111848D01*
X79976901Y-42109196D01*
X79976897Y-42109196D01*
X79968335Y-42110552D01*
X79899042Y-42101597D01*
X79845590Y-42056601D01*
X79837944Y-42043362D01*
X79782366Y-41931745D01*
X79734317Y-41868119D01*
X79653872Y-41761593D01*
X79581737Y-41695833D01*
X79496302Y-41617948D01*
X79315019Y-41505702D01*
X79315017Y-41505701D01*
X79215608Y-41467190D01*
X79116198Y-41428679D01*
X78906610Y-41389500D01*
X78693390Y-41389500D01*
X78483802Y-41428679D01*
X78483799Y-41428679D01*
X78483799Y-41428680D01*
X78284982Y-41505701D01*
X78284980Y-41505702D01*
X78103699Y-41617947D01*
X77946127Y-41761593D01*
X77817632Y-41931746D01*
X77722596Y-42122605D01*
X77722596Y-42122607D01*
X77664244Y-42327689D01*
X77644571Y-42539999D01*
X77644571Y-42540000D01*
X77664244Y-42752310D01*
X77722596Y-42957392D01*
X77722596Y-42957394D01*
X77817632Y-43148253D01*
X77946127Y-43318406D01*
X77946128Y-43318407D01*
X78103698Y-43462052D01*
X78284981Y-43574298D01*
X78483802Y-43651321D01*
X78693390Y-43690500D01*
X78693392Y-43690500D01*
X78906608Y-43690500D01*
X78906610Y-43690500D01*
X79116198Y-43651321D01*
X79315019Y-43574298D01*
X79496302Y-43462052D01*
X79635315Y-43335323D01*
X79698117Y-43304708D01*
X79767504Y-43312905D01*
X79806533Y-43339281D01*
X81752372Y-45285120D01*
X81847680Y-45380428D01*
X81869196Y-45391391D01*
X81885778Y-45401553D01*
X81905319Y-45415750D01*
X81928283Y-45423211D01*
X81946262Y-45430657D01*
X81967774Y-45441619D01*
X81991621Y-45445395D01*
X82010543Y-45449939D01*
X82033501Y-45457399D01*
X82033507Y-45457400D01*
X82067412Y-45457400D01*
X85160405Y-45457400D01*
X85227444Y-45477085D01*
X85273199Y-45529889D01*
X85283143Y-45599047D01*
X85273840Y-45631485D01*
X85252415Y-45680009D01*
X85249500Y-45705135D01*
X85249500Y-46568939D01*
X85249501Y-47319400D01*
X85229816Y-47386439D01*
X85177013Y-47432194D01*
X85125501Y-47443400D01*
X81746893Y-47443400D01*
X81612107Y-47443400D01*
X81612104Y-47443401D01*
X81589135Y-47450863D01*
X81570222Y-47455403D01*
X81546374Y-47459180D01*
X81524859Y-47470142D01*
X81506889Y-47477585D01*
X81483921Y-47485048D01*
X81483917Y-47485049D01*
X81464380Y-47499244D01*
X81447798Y-47509406D01*
X81426283Y-47520369D01*
X81426280Y-47520371D01*
X81402306Y-47544346D01*
X76436336Y-52510315D01*
X76375013Y-52543800D01*
X76305321Y-52538816D01*
X76249388Y-52496944D01*
X76233300Y-52468124D01*
X76183920Y-52342904D01*
X76092560Y-52222429D01*
X76087812Y-52217681D01*
X76054327Y-52156358D01*
X76059311Y-52086666D01*
X76087812Y-52042319D01*
X76092560Y-52037570D01*
X76183920Y-51917095D01*
X76239386Y-51776442D01*
X76243162Y-51745000D01*
X75125000Y-51745000D01*
X75125000Y-52891000D01*
X75105315Y-52958039D01*
X75052511Y-53003794D01*
X75001000Y-53015000D01*
X73506838Y-53015000D01*
X73510613Y-53046442D01*
X73566079Y-53187095D01*
X73657436Y-53307566D01*
X73730701Y-53363125D01*
X73772225Y-53419318D01*
X73776776Y-53489039D01*
X73742911Y-53550153D01*
X73729411Y-53561698D01*
X73727850Y-53562849D01*
X73647207Y-53672117D01*
X73647206Y-53672119D01*
X73602353Y-53800298D01*
X73602353Y-53800300D01*
X73599500Y-53830730D01*
X73599500Y-54239269D01*
X73602353Y-54269699D01*
X73602353Y-54269701D01*
X73647206Y-54397880D01*
X73647207Y-54397882D01*
X73727850Y-54507150D01*
X73813321Y-54570230D01*
X73855571Y-54625877D01*
X73861030Y-54695534D01*
X73827962Y-54757083D01*
X73813321Y-54769769D01*
X73727850Y-54832850D01*
X73647207Y-54942117D01*
X73647206Y-54942119D01*
X73602353Y-55070298D01*
X73602353Y-55070300D01*
X73599500Y-55100730D01*
X73599500Y-55509269D01*
X73602353Y-55539699D01*
X73602353Y-55539701D01*
X73647206Y-55667880D01*
X73647207Y-55667882D01*
X73727850Y-55777150D01*
X73813321Y-55840230D01*
X73855571Y-55895877D01*
X73861030Y-55965534D01*
X73827962Y-56027083D01*
X73813321Y-56039769D01*
X73803557Y-56046976D01*
X73727850Y-56102850D01*
X73647207Y-56212117D01*
X73647206Y-56212119D01*
X73602353Y-56340298D01*
X73602353Y-56340300D01*
X73599500Y-56370730D01*
X73599500Y-56779269D01*
X73602353Y-56809699D01*
X73602353Y-56809701D01*
X73642138Y-56923396D01*
X73647207Y-56937882D01*
X73727850Y-57047150D01*
X73813321Y-57110230D01*
X73855571Y-57165877D01*
X73861030Y-57235534D01*
X73827962Y-57297083D01*
X73813321Y-57309769D01*
X73812081Y-57310685D01*
X73727850Y-57372850D01*
X73647207Y-57482117D01*
X73647206Y-57482119D01*
X73602353Y-57610298D01*
X73602353Y-57610300D01*
X73599500Y-57640730D01*
X73599500Y-58049269D01*
X73602353Y-58079699D01*
X73602353Y-58079701D01*
X73647206Y-58207880D01*
X73647207Y-58207882D01*
X73727850Y-58317150D01*
X73837118Y-58397793D01*
X73879845Y-58412744D01*
X73965299Y-58442646D01*
X73995730Y-58445500D01*
X73995734Y-58445500D01*
X75754270Y-58445500D01*
X75784699Y-58442646D01*
X75784701Y-58442646D01*
X75848790Y-58420219D01*
X75912882Y-58397793D01*
X76022150Y-58317150D01*
X76022152Y-58317146D01*
X76028721Y-58310579D01*
X76030548Y-58312406D01*
X76075054Y-58278616D01*
X76119177Y-58270500D01*
X76710392Y-58270500D01*
X76710393Y-58270500D01*
X76733360Y-58263036D01*
X76752276Y-58258495D01*
X76776126Y-58254719D01*
X76797636Y-58243757D01*
X76815614Y-58236310D01*
X76838581Y-58228849D01*
X76858118Y-58214653D01*
X76874706Y-58204488D01*
X76896220Y-58193528D01*
X76991528Y-58098220D01*
X84041854Y-51047894D01*
X84065828Y-51023920D01*
X84076788Y-51002406D01*
X84086953Y-50985818D01*
X84101149Y-50966281D01*
X84108610Y-50943314D01*
X84116059Y-50925334D01*
X84127018Y-50903828D01*
X84127018Y-50903827D01*
X84127019Y-50903826D01*
X84130795Y-50879976D01*
X84135336Y-50861060D01*
X84142800Y-50838093D01*
X84142800Y-50798000D01*
X84162485Y-50730961D01*
X84215289Y-50685206D01*
X84266800Y-50674000D01*
X85098951Y-50674000D01*
X85165990Y-50693685D01*
X85211745Y-50746489D01*
X85221689Y-50815647D01*
X85192664Y-50879203D01*
X85160951Y-50905387D01*
X85066756Y-50959771D01*
X85007974Y-50993709D01*
X84997545Y-50999730D01*
X84810302Y-51143406D01*
X84810295Y-51143412D01*
X84643412Y-51310295D01*
X84643406Y-51310302D01*
X84499730Y-51497545D01*
X84381719Y-51701943D01*
X84381714Y-51701954D01*
X84291394Y-51920006D01*
X84230306Y-52147989D01*
X84199501Y-52381979D01*
X84199500Y-52381995D01*
X84199500Y-80118004D01*
X84199501Y-80118020D01*
X84230306Y-80352010D01*
X84291394Y-80579993D01*
X84381714Y-80798045D01*
X84381719Y-80798056D01*
X84451029Y-80918102D01*
X84499727Y-81002450D01*
X84499729Y-81002453D01*
X84499730Y-81002454D01*
X84643406Y-81189697D01*
X84643412Y-81189704D01*
X84810295Y-81356587D01*
X84810302Y-81356593D01*
X84857329Y-81392678D01*
X84997550Y-81500273D01*
X85113452Y-81567189D01*
X85201943Y-81618280D01*
X85201948Y-81618282D01*
X85201951Y-81618284D01*
X85420007Y-81708606D01*
X85647986Y-81769693D01*
X85881989Y-81800500D01*
X85881996Y-81800500D01*
X119618004Y-81800500D01*
X119618011Y-81800500D01*
X119852014Y-81769693D01*
X120079993Y-81708606D01*
X120298049Y-81618284D01*
X120502450Y-81500273D01*
X120689699Y-81356592D01*
X120856592Y-81189699D01*
X121000273Y-81002450D01*
X121118284Y-80798049D01*
X121208606Y-80579993D01*
X121269693Y-80352014D01*
X121300500Y-80118011D01*
X121300500Y-80000000D01*
X121300500Y-79952405D01*
X121300500Y-78320620D01*
X121320185Y-78253581D01*
X121372989Y-78207826D01*
X121442147Y-78197882D01*
X121505703Y-78226907D01*
X121522872Y-78245129D01*
X121525909Y-78249087D01*
X121543670Y-78272235D01*
X121545318Y-78274382D01*
X121670759Y-78370636D01*
X121816838Y-78431144D01*
X121895887Y-78441550D01*
X121959782Y-78469816D01*
X121998254Y-78528140D01*
X122002817Y-78579269D01*
X121999914Y-78603447D01*
X121999500Y-78606898D01*
X121999500Y-79218102D01*
X122000165Y-79223638D01*
X122010122Y-79306561D01*
X122065639Y-79447343D01*
X122157077Y-79567922D01*
X122277656Y-79659360D01*
X122277657Y-79659360D01*
X122277658Y-79659361D01*
X122418436Y-79714877D01*
X122506898Y-79725500D01*
X122841692Y-79725500D01*
X122908731Y-79745185D01*
X122929373Y-79761819D01*
X123205873Y-80038319D01*
X123239358Y-80099642D01*
X123234374Y-80169334D01*
X123192502Y-80225267D01*
X123127038Y-80249684D01*
X123118192Y-80250000D01*
X123031946Y-80250000D01*
X122943556Y-80260613D01*
X122802904Y-80316079D01*
X122682435Y-80407435D01*
X122591079Y-80527904D01*
X122535613Y-80668557D01*
X122531838Y-80700000D01*
X124848921Y-80700000D01*
X124848921Y-80703180D01*
X124879415Y-80702676D01*
X125023544Y-80738200D01*
X125193654Y-80738200D01*
X125193656Y-80738200D01*
X125256327Y-80722753D01*
X125326126Y-80725822D01*
X125383189Y-80766141D01*
X125409394Y-80830911D01*
X125410000Y-80843150D01*
X125410000Y-81175500D01*
X125390315Y-81242539D01*
X125337511Y-81288294D01*
X125286000Y-81299500D01*
X124920995Y-81299500D01*
X124853956Y-81279815D01*
X124808201Y-81227011D01*
X124806301Y-81214811D01*
X124793162Y-81200000D01*
X122531838Y-81200000D01*
X122535613Y-81231442D01*
X122591080Y-81372097D01*
X122637654Y-81433514D01*
X122662477Y-81498825D01*
X122648049Y-81567189D01*
X122626531Y-81596120D01*
X119261371Y-84961281D01*
X119200048Y-84994766D01*
X119173690Y-84997600D01*
X117553293Y-84997600D01*
X117418507Y-84997600D01*
X117418504Y-84997601D01*
X117395535Y-85005063D01*
X117376622Y-85009603D01*
X117352774Y-85013380D01*
X117331259Y-85024342D01*
X117313289Y-85031785D01*
X117290321Y-85039248D01*
X117290317Y-85039249D01*
X117270780Y-85053444D01*
X117254198Y-85063606D01*
X117232683Y-85074569D01*
X117232680Y-85074571D01*
X117208706Y-85098546D01*
X116753792Y-85553459D01*
X116692469Y-85586944D01*
X116622777Y-85581960D01*
X116578430Y-85553459D01*
X116522765Y-85497794D01*
X116419992Y-85452415D01*
X116394865Y-85449500D01*
X114605143Y-85449500D01*
X114605117Y-85449502D01*
X114580012Y-85452413D01*
X114580008Y-85452415D01*
X114477235Y-85497793D01*
X114397794Y-85577234D01*
X114352415Y-85680006D01*
X114352415Y-85680008D01*
X114352415Y-85680009D01*
X114349500Y-85705135D01*
X114349500Y-86547794D01*
X114349501Y-87284200D01*
X114329816Y-87351239D01*
X114277013Y-87396994D01*
X114225501Y-87408200D01*
X111636994Y-87408200D01*
X111569955Y-87388515D01*
X111524200Y-87335711D01*
X111514256Y-87266553D01*
X111524612Y-87231795D01*
X111619101Y-87029159D01*
X111619105Y-87029150D01*
X111667108Y-86850000D01*
X110873686Y-86850000D01*
X110899493Y-86809844D01*
X110940000Y-86671889D01*
X110940000Y-86528111D01*
X110899493Y-86390156D01*
X110873686Y-86350000D01*
X111667108Y-86350000D01*
X111667108Y-86349999D01*
X111619105Y-86170849D01*
X111619101Y-86170840D01*
X111526666Y-85972612D01*
X111526664Y-85972608D01*
X111401216Y-85793450D01*
X111401211Y-85793444D01*
X111246554Y-85638787D01*
X111067387Y-85513333D01*
X110869159Y-85420898D01*
X110869150Y-85420894D01*
X110690000Y-85372891D01*
X110690000Y-86164498D01*
X110582315Y-86115320D01*
X110475763Y-86100000D01*
X110404237Y-86100000D01*
X110297685Y-86115320D01*
X110190000Y-86164498D01*
X110190000Y-85372892D01*
X110189999Y-85372891D01*
X110010849Y-85420894D01*
X110010840Y-85420898D01*
X109812612Y-85513333D01*
X109812608Y-85513335D01*
X109633450Y-85638783D01*
X109633444Y-85638788D01*
X109478788Y-85793444D01*
X109478783Y-85793450D01*
X109353335Y-85972608D01*
X109353333Y-85972612D01*
X109260898Y-86170840D01*
X109260895Y-86170847D01*
X109237968Y-86256413D01*
X109201603Y-86316073D01*
X109138756Y-86346602D01*
X109069380Y-86338307D01*
X109015502Y-86293822D01*
X108998927Y-86258253D01*
X108977405Y-86182611D01*
X108977403Y-86182608D01*
X108977403Y-86182605D01*
X108882367Y-85991746D01*
X108753872Y-85821593D01*
X108720179Y-85790878D01*
X108596302Y-85677948D01*
X108415019Y-85565702D01*
X108415017Y-85565701D01*
X108289497Y-85517075D01*
X108216198Y-85488679D01*
X108006610Y-85449500D01*
X107793390Y-85449500D01*
X107793388Y-85449500D01*
X107753212Y-85457010D01*
X107683697Y-85449978D01*
X107642748Y-85422802D01*
X106441134Y-84221188D01*
X106431061Y-84208614D01*
X106430874Y-84208770D01*
X106425898Y-84202754D01*
X106374867Y-84154834D01*
X106372069Y-84152123D01*
X106351735Y-84131789D01*
X106348248Y-84129084D01*
X106339369Y-84121500D01*
X106306096Y-84090254D01*
X106306088Y-84090248D01*
X106287492Y-84080025D01*
X106271231Y-84069344D01*
X106254463Y-84056337D01*
X106236768Y-84048680D01*
X106212553Y-84038201D01*
X106202094Y-84033077D01*
X106162068Y-84011073D01*
X106162065Y-84011072D01*
X106141501Y-84005792D01*
X106123096Y-83999490D01*
X106103627Y-83991065D01*
X106103621Y-83991063D01*
X106058537Y-83983923D01*
X106047098Y-83981554D01*
X106002880Y-83970200D01*
X106002877Y-83970200D01*
X105981655Y-83970200D01*
X105962255Y-83968673D01*
X105941296Y-83965353D01*
X105941295Y-83965353D01*
X105913252Y-83968004D01*
X105895840Y-83969650D01*
X105884170Y-83970200D01*
X96973210Y-83970200D01*
X96949978Y-83968004D01*
X96941170Y-83966324D01*
X96941167Y-83966323D01*
X96883457Y-83969955D01*
X96875671Y-83970200D01*
X85492108Y-83970200D01*
X85425069Y-83950515D01*
X85404427Y-83933881D01*
X78271034Y-76800488D01*
X78260961Y-76787914D01*
X78260774Y-76788070D01*
X78255798Y-76782054D01*
X78204767Y-76734134D01*
X78201969Y-76731423D01*
X78181635Y-76711089D01*
X78178148Y-76708384D01*
X78169269Y-76700800D01*
X78135996Y-76669554D01*
X78135988Y-76669548D01*
X78117392Y-76659325D01*
X78101131Y-76648644D01*
X78084363Y-76635637D01*
X78068009Y-76628560D01*
X78042453Y-76617501D01*
X78031994Y-76612377D01*
X77991968Y-76590373D01*
X77991965Y-76590372D01*
X77971401Y-76585092D01*
X77952996Y-76578790D01*
X77933527Y-76570365D01*
X77933521Y-76570363D01*
X77888437Y-76563223D01*
X77876998Y-76560854D01*
X77832780Y-76549500D01*
X77832777Y-76549500D01*
X77811555Y-76549500D01*
X77792155Y-76547973D01*
X77771196Y-76544653D01*
X77771195Y-76544653D01*
X77728422Y-76548696D01*
X77725740Y-76548950D01*
X77714070Y-76549500D01*
X75837694Y-76549500D01*
X75770655Y-76529815D01*
X75724900Y-76477011D01*
X75714956Y-76407853D01*
X75722400Y-76379856D01*
X75723222Y-76377777D01*
X75723227Y-76377768D01*
X75728504Y-76357208D01*
X75734806Y-76338803D01*
X75743236Y-76319326D01*
X75750379Y-76274220D01*
X75752743Y-76262805D01*
X75764100Y-76218577D01*
X75764100Y-76197355D01*
X75765627Y-76177955D01*
X75766095Y-76175000D01*
X75768947Y-76156995D01*
X75764650Y-76111536D01*
X75764100Y-76099867D01*
X75764100Y-75987500D01*
X78600001Y-75987500D01*
X78600001Y-76046275D01*
X78602871Y-76082752D01*
X78648249Y-76238946D01*
X78731042Y-76378942D01*
X78731048Y-76378950D01*
X78846049Y-76493951D01*
X78846057Y-76493957D01*
X78986053Y-76576750D01*
X79142248Y-76622128D01*
X79178735Y-76624999D01*
X79449999Y-76624999D01*
X79450000Y-76624998D01*
X79450000Y-75987500D01*
X79950000Y-75987500D01*
X79950000Y-76624999D01*
X80221254Y-76624999D01*
X80221275Y-76624998D01*
X80257752Y-76622128D01*
X80413946Y-76576750D01*
X80553942Y-76493957D01*
X80553950Y-76493951D01*
X80668951Y-76378950D01*
X80668957Y-76378942D01*
X80751750Y-76238946D01*
X80797128Y-76082751D01*
X80799999Y-76046270D01*
X80800000Y-76046258D01*
X80800000Y-75987500D01*
X79950000Y-75987500D01*
X79450000Y-75987500D01*
X78600001Y-75987500D01*
X75764100Y-75987500D01*
X75764100Y-72199500D01*
X75783785Y-72132461D01*
X75836589Y-72086706D01*
X75888100Y-72075500D01*
X78725403Y-72075500D01*
X78792442Y-72095185D01*
X78824207Y-72124575D01*
X78857077Y-72167922D01*
X78977656Y-72259360D01*
X78977657Y-72259360D01*
X78977658Y-72259361D01*
X79118436Y-72314877D01*
X79206898Y-72325500D01*
X79206903Y-72325500D01*
X80193095Y-72325500D01*
X80193102Y-72325500D01*
X80195412Y-72325222D01*
X80196024Y-72325325D01*
X80196796Y-72325279D01*
X80196806Y-72325456D01*
X80264318Y-72336770D01*
X80316045Y-72383739D01*
X80334200Y-72448337D01*
X80334200Y-72575190D01*
X80314515Y-72642229D01*
X80297881Y-72662871D01*
X79922571Y-73038181D01*
X79861248Y-73071666D01*
X79834890Y-73074500D01*
X79201140Y-73074500D01*
X79135544Y-73082377D01*
X79113677Y-73085003D01*
X78974502Y-73139887D01*
X78974500Y-73139888D01*
X78855288Y-73230288D01*
X78764888Y-73349500D01*
X78764887Y-73349502D01*
X78710003Y-73488677D01*
X78710003Y-73488679D01*
X78699500Y-73576140D01*
X78699500Y-74148860D01*
X78703169Y-74179411D01*
X78710003Y-74236322D01*
X78764887Y-74375497D01*
X78764888Y-74375499D01*
X78855288Y-74494711D01*
X78974498Y-74585110D01*
X78974499Y-74585110D01*
X78974500Y-74585111D01*
X79098947Y-74634187D01*
X79154088Y-74677091D01*
X79177281Y-74742999D01*
X79161161Y-74810983D01*
X79110844Y-74859460D01*
X79088049Y-74868616D01*
X78986059Y-74898247D01*
X78986053Y-74898249D01*
X78846057Y-74981042D01*
X78846049Y-74981048D01*
X78731048Y-75096049D01*
X78731042Y-75096057D01*
X78648249Y-75236053D01*
X78602871Y-75392248D01*
X78600000Y-75428729D01*
X78600000Y-75487500D01*
X80799999Y-75487500D01*
X80799999Y-75428746D01*
X80799998Y-75428724D01*
X80797128Y-75392247D01*
X80751750Y-75236053D01*
X80668957Y-75096057D01*
X80668951Y-75096049D01*
X80553950Y-74981048D01*
X80553942Y-74981042D01*
X80413946Y-74898249D01*
X80413941Y-74898247D01*
X80311950Y-74868616D01*
X80253064Y-74831010D01*
X80223858Y-74767537D01*
X80233604Y-74698351D01*
X80279208Y-74645416D01*
X80301041Y-74634191D01*
X80425500Y-74585111D01*
X80544711Y-74494711D01*
X80635111Y-74375500D01*
X80689997Y-74236321D01*
X80700500Y-74148860D01*
X80700500Y-73576140D01*
X80695636Y-73535640D01*
X80707186Y-73466735D01*
X80731067Y-73433178D01*
X80995478Y-73168767D01*
X80995481Y-73168766D01*
X81012919Y-73151328D01*
X81012920Y-73151328D01*
X81108228Y-73056020D01*
X81119193Y-73034498D01*
X81129358Y-73017912D01*
X81143549Y-72998381D01*
X81151010Y-72975414D01*
X81158459Y-72957434D01*
X81169418Y-72935928D01*
X81169418Y-72935927D01*
X81169419Y-72935926D01*
X81173195Y-72912076D01*
X81177736Y-72893160D01*
X81185200Y-72870193D01*
X81185200Y-72735407D01*
X81185200Y-70713712D01*
X81185200Y-70679807D01*
X81179233Y-70661444D01*
X81177739Y-70656845D01*
X81173195Y-70637921D01*
X81169419Y-70614074D01*
X81158453Y-70592554D01*
X81151008Y-70574578D01*
X81143549Y-70551619D01*
X81129353Y-70532080D01*
X81119193Y-70515501D01*
X81108228Y-70493980D01*
X81012920Y-70398672D01*
X81005855Y-70391607D01*
X81005848Y-70391601D01*
X80733133Y-70118885D01*
X80699648Y-70057562D01*
X80697699Y-70016423D01*
X80700500Y-69993102D01*
X80700500Y-69381898D01*
X80689877Y-69293436D01*
X80634361Y-69152658D01*
X80634360Y-69152657D01*
X80634360Y-69152656D01*
X80542922Y-69032077D01*
X80422343Y-68940639D01*
X80326192Y-68902722D01*
X80281564Y-68885123D01*
X80281563Y-68885122D01*
X80281561Y-68885122D01*
X80235926Y-68879642D01*
X80193102Y-68874500D01*
X79206898Y-68874500D01*
X79167853Y-68879188D01*
X79118438Y-68885122D01*
X78977656Y-68940639D01*
X78857077Y-69032077D01*
X78765639Y-69152656D01*
X78710122Y-69293438D01*
X78704188Y-69342853D01*
X78699500Y-69381898D01*
X78699500Y-69993102D01*
X78705126Y-70039954D01*
X78710122Y-70081561D01*
X78765639Y-70222343D01*
X78857077Y-70342922D01*
X78977656Y-70434360D01*
X78977657Y-70434360D01*
X78977658Y-70434361D01*
X79105171Y-70484646D01*
X79160314Y-70527551D01*
X79183507Y-70593459D01*
X79167386Y-70661444D01*
X79117070Y-70709920D01*
X79105178Y-70715351D01*
X79053663Y-70735665D01*
X78977656Y-70765639D01*
X78857077Y-70857077D01*
X78824207Y-70900425D01*
X78768015Y-70941948D01*
X78725403Y-70949500D01*
X75888100Y-70949500D01*
X75821061Y-70929815D01*
X75775306Y-70877011D01*
X75764100Y-70825500D01*
X75764100Y-68025634D01*
X75772158Y-67981663D01*
X75798739Y-67911575D01*
X75798740Y-67911570D01*
X75803503Y-67872342D01*
X75819245Y-67742700D01*
X75801673Y-67597983D01*
X75813133Y-67529060D01*
X75837085Y-67495359D01*
X75945628Y-67386818D01*
X76006951Y-67353334D01*
X76033308Y-67350500D01*
X76304270Y-67350500D01*
X76334699Y-67347646D01*
X76334701Y-67347646D01*
X76398790Y-67325219D01*
X76462882Y-67302793D01*
X76572150Y-67222150D01*
X76652793Y-67112882D01*
X76685960Y-67018096D01*
X76697646Y-66984701D01*
X76697646Y-66984699D01*
X76700500Y-66954269D01*
X76700500Y-66545733D01*
X76698599Y-66525467D01*
X76711937Y-66456882D01*
X76760237Y-66406396D01*
X76828165Y-66390038D01*
X76863011Y-66396845D01*
X76864073Y-66397216D01*
X76865301Y-66397646D01*
X76865300Y-66397646D01*
X76895730Y-66400500D01*
X76895734Y-66400500D01*
X77253429Y-66400500D01*
X77309723Y-66414015D01*
X77315400Y-66416908D01*
X77475796Y-66452760D01*
X77640069Y-66447597D01*
X77755657Y-66414016D01*
X77785232Y-66405424D01*
X77819827Y-66400500D01*
X78179270Y-66400500D01*
X78209699Y-66397646D01*
X78209701Y-66397646D01*
X78273790Y-66375219D01*
X78337882Y-66352793D01*
X78447150Y-66272150D01*
X78490330Y-66213642D01*
X78545974Y-66171394D01*
X78615630Y-66165935D01*
X78677180Y-66199002D01*
X78711082Y-66260095D01*
X78710414Y-66310462D01*
X78711071Y-66310541D01*
X78710331Y-66316697D01*
X78710319Y-66317659D01*
X78710123Y-66318433D01*
X78708574Y-66331332D01*
X78699500Y-66406898D01*
X78699500Y-67018102D01*
X78705126Y-67064954D01*
X78710122Y-67106561D01*
X78765639Y-67247343D01*
X78857077Y-67367922D01*
X78977656Y-67459360D01*
X78977657Y-67459360D01*
X78977658Y-67459361D01*
X79118436Y-67514877D01*
X79206898Y-67525500D01*
X79206903Y-67525500D01*
X80193097Y-67525500D01*
X80193102Y-67525500D01*
X80281564Y-67514877D01*
X80422342Y-67459361D01*
X80542922Y-67367922D01*
X80634361Y-67247342D01*
X80689877Y-67106564D01*
X80700500Y-67018102D01*
X80700500Y-66406898D01*
X80689877Y-66318436D01*
X80634361Y-66177658D01*
X80634360Y-66177657D01*
X80634360Y-66177656D01*
X80542922Y-66057077D01*
X80422340Y-65965637D01*
X80417714Y-65963036D01*
X80368929Y-65913019D01*
X80354929Y-65844566D01*
X80380160Y-65779411D01*
X80415373Y-65748221D01*
X80551549Y-65667687D01*
X80551561Y-65667678D01*
X80667678Y-65551561D01*
X80667685Y-65551552D01*
X80751282Y-65410196D01*
X80751283Y-65410193D01*
X80797099Y-65252495D01*
X80797100Y-65252489D01*
X80799999Y-65215649D01*
X80800000Y-65215634D01*
X80800000Y-65137500D01*
X79574000Y-65137500D01*
X79506961Y-65117815D01*
X79461206Y-65065011D01*
X79450000Y-65013500D01*
X79450000Y-63975000D01*
X79950000Y-63975000D01*
X79950000Y-64637500D01*
X80800000Y-64637500D01*
X80800000Y-64559365D01*
X80799999Y-64559350D01*
X80797100Y-64522510D01*
X80797099Y-64522504D01*
X80751283Y-64364806D01*
X80751282Y-64364803D01*
X80667685Y-64223447D01*
X80667678Y-64223438D01*
X80551561Y-64107321D01*
X80551552Y-64107314D01*
X80410196Y-64023717D01*
X80410193Y-64023716D01*
X80252495Y-63977900D01*
X80252489Y-63977899D01*
X80215649Y-63975000D01*
X79950000Y-63975000D01*
X79450000Y-63975000D01*
X79184350Y-63975000D01*
X79147510Y-63977899D01*
X79147504Y-63977900D01*
X78989806Y-64023716D01*
X78989803Y-64023717D01*
X78848447Y-64107314D01*
X78848438Y-64107321D01*
X78732321Y-64223438D01*
X78732314Y-64223447D01*
X78648717Y-64364803D01*
X78648715Y-64364807D01*
X78646704Y-64371731D01*
X78609096Y-64430615D01*
X78545623Y-64459820D01*
X78511445Y-64460071D01*
X78468503Y-64454418D01*
X78468499Y-64454418D01*
X78311739Y-64475055D01*
X78311734Y-64475057D01*
X78252789Y-64499472D01*
X78183320Y-64506939D01*
X78120841Y-64475663D01*
X78105020Y-64457794D01*
X78094461Y-64443260D01*
X78059280Y-64414156D01*
X78050640Y-64406294D01*
X77676719Y-64032373D01*
X77643234Y-63971050D01*
X77640400Y-63944692D01*
X77640400Y-63937901D01*
X77642168Y-63921888D01*
X77641926Y-63921866D01*
X77642658Y-63914110D01*
X77642660Y-63914103D01*
X77640461Y-63844135D01*
X77640400Y-63840240D01*
X77640400Y-63811477D01*
X77640399Y-63811470D01*
X77639849Y-63807116D01*
X77638930Y-63795454D01*
X77638790Y-63790984D01*
X77637497Y-63749830D01*
X77631576Y-63729452D01*
X77627631Y-63710403D01*
X77624971Y-63689342D01*
X77608161Y-63646887D01*
X77604381Y-63635845D01*
X77591643Y-63591999D01*
X77580841Y-63573735D01*
X77572279Y-63556258D01*
X77571251Y-63553662D01*
X77564468Y-63536529D01*
X77537637Y-63499599D01*
X77531223Y-63489835D01*
X77507982Y-63450537D01*
X77507981Y-63450535D01*
X77492975Y-63435529D01*
X77480335Y-63420730D01*
X77467861Y-63403560D01*
X77432680Y-63374456D01*
X77424040Y-63366594D01*
X76036819Y-61979373D01*
X76003334Y-61918050D01*
X76000500Y-61891692D01*
X76000500Y-60506903D01*
X76000500Y-60506898D01*
X75989877Y-60418436D01*
X75934361Y-60277658D01*
X75934360Y-60277657D01*
X75934360Y-60277656D01*
X75842922Y-60157077D01*
X75722343Y-60065639D01*
X75581561Y-60010122D01*
X75535926Y-60004642D01*
X75493102Y-59999500D01*
X74781898Y-59999500D01*
X74742853Y-60004188D01*
X74693438Y-60010122D01*
X74552656Y-60065639D01*
X74432077Y-60157077D01*
X74340639Y-60277656D01*
X74285122Y-60418438D01*
X74279188Y-60467853D01*
X74274500Y-60506898D01*
X74274500Y-63493102D01*
X74279282Y-63532923D01*
X74285122Y-63581563D01*
X74299038Y-63616851D01*
X74305319Y-63686438D01*
X74272981Y-63748374D01*
X74259170Y-63760715D01*
X74150220Y-63844316D01*
X74150219Y-63844317D01*
X74150218Y-63844318D01*
X74090697Y-63921888D01*
X74053963Y-63969760D01*
X73993456Y-64115837D01*
X73993455Y-64115839D01*
X73972818Y-64272598D01*
X73972818Y-64272601D01*
X73993455Y-64429360D01*
X73993456Y-64429362D01*
X74037032Y-64534565D01*
X74053964Y-64575441D01*
X74150218Y-64700882D01*
X74275659Y-64797136D01*
X74421738Y-64857644D01*
X74516686Y-64870144D01*
X74580581Y-64898409D01*
X74619053Y-64956733D01*
X74624500Y-64993082D01*
X74624500Y-65054269D01*
X74627353Y-65084699D01*
X74627353Y-65084701D01*
X74667524Y-65199500D01*
X74672207Y-65212882D01*
X74752850Y-65322150D01*
X74862118Y-65402793D01*
X74883275Y-65410196D01*
X74990299Y-65447646D01*
X75020730Y-65450500D01*
X75020734Y-65450500D01*
X76304270Y-65450500D01*
X76334699Y-65447646D01*
X76336984Y-65446847D01*
X76338779Y-65446755D01*
X76342073Y-65446036D01*
X76342192Y-65446580D01*
X76406763Y-65443283D01*
X76467391Y-65478010D01*
X76499620Y-65540003D01*
X76501401Y-65575462D01*
X76499500Y-65595738D01*
X76499500Y-66004261D01*
X76501401Y-66024537D01*
X76488060Y-66093121D01*
X76439758Y-66143605D01*
X76371830Y-66159961D01*
X76336995Y-66153156D01*
X76334704Y-66152354D01*
X76334699Y-66152353D01*
X76304270Y-66149500D01*
X76304266Y-66149500D01*
X75946569Y-66149500D01*
X75890274Y-66135984D01*
X75884600Y-66133093D01*
X75884599Y-66133092D01*
X75724203Y-66097240D01*
X75559932Y-66102402D01*
X75471420Y-66128117D01*
X75414762Y-66144577D01*
X75380172Y-66149500D01*
X75020730Y-66149500D01*
X74990300Y-66152353D01*
X74990298Y-66152353D01*
X74862119Y-66197206D01*
X74862117Y-66197207D01*
X74752850Y-66277850D01*
X74672207Y-66387117D01*
X74672206Y-66387119D01*
X74627353Y-66515298D01*
X74627353Y-66515300D01*
X74624500Y-66545730D01*
X74624500Y-66575500D01*
X74604815Y-66642539D01*
X74552011Y-66688294D01*
X74500500Y-66699500D01*
X72699628Y-66699500D01*
X72632589Y-66679815D01*
X72624717Y-66674314D01*
X72547342Y-66615639D01*
X72547341Y-66615638D01*
X72483386Y-66590418D01*
X72420865Y-66565762D01*
X72365723Y-66522858D01*
X72342530Y-66456950D01*
X72358650Y-66388965D01*
X72408967Y-66340489D01*
X72431763Y-66331332D01*
X72535197Y-66301281D01*
X72676552Y-66217685D01*
X72676561Y-66217678D01*
X72792678Y-66101561D01*
X72792685Y-66101552D01*
X72876282Y-65960196D01*
X72876283Y-65960193D01*
X72922099Y-65802495D01*
X72922100Y-65802489D01*
X72924999Y-65765649D01*
X72925000Y-65765634D01*
X72925000Y-65700000D01*
X71674000Y-65700000D01*
X71606961Y-65680315D01*
X71561206Y-65627511D01*
X71550000Y-65576000D01*
X71550000Y-64550000D01*
X72050000Y-64550000D01*
X72050000Y-65200000D01*
X72925000Y-65200000D01*
X72925000Y-65134365D01*
X72924999Y-65134350D01*
X72922100Y-65097510D01*
X72922099Y-65097504D01*
X72876283Y-64939806D01*
X72876282Y-64939803D01*
X72792685Y-64798447D01*
X72792678Y-64798438D01*
X72676561Y-64682321D01*
X72676552Y-64682314D01*
X72535196Y-64598717D01*
X72535193Y-64598716D01*
X72377495Y-64552900D01*
X72377489Y-64552899D01*
X72340649Y-64550000D01*
X72050000Y-64550000D01*
X71550000Y-64550000D01*
X71259350Y-64550000D01*
X71222510Y-64552899D01*
X71222504Y-64552900D01*
X71064806Y-64598716D01*
X71064803Y-64598717D01*
X70923447Y-64682314D01*
X70923438Y-64682321D01*
X70807321Y-64798438D01*
X70807314Y-64798447D01*
X70723717Y-64939803D01*
X70723716Y-64939806D01*
X70689020Y-65059231D01*
X70651414Y-65118117D01*
X70587941Y-65147323D01*
X70518755Y-65137577D01*
X70482263Y-65112317D01*
X70255565Y-64885619D01*
X70222080Y-64824296D01*
X70227064Y-64754604D01*
X70268936Y-64698671D01*
X70285618Y-64688143D01*
X70323552Y-64668234D01*
X70450883Y-64555429D01*
X70547518Y-64415430D01*
X70607840Y-64256372D01*
X70625667Y-64109552D01*
X70653289Y-64045376D01*
X70711223Y-64006319D01*
X70748763Y-64000500D01*
X71218097Y-64000500D01*
X71218102Y-64000500D01*
X71306564Y-63989877D01*
X71447342Y-63934361D01*
X71567922Y-63842922D01*
X71659361Y-63722342D01*
X71714877Y-63581564D01*
X71725500Y-63493102D01*
X71725500Y-60506898D01*
X71714877Y-60418436D01*
X71659361Y-60277658D01*
X71659360Y-60277657D01*
X71659360Y-60277656D01*
X71567922Y-60157077D01*
X71447343Y-60065639D01*
X71306561Y-60010122D01*
X71260926Y-60004642D01*
X71218102Y-59999500D01*
X70506898Y-59999500D01*
X70467853Y-60004188D01*
X70418438Y-60010122D01*
X70277656Y-60065639D01*
X70157077Y-60157077D01*
X70065639Y-60277656D01*
X70010122Y-60418438D01*
X70004188Y-60467853D01*
X69999500Y-60506898D01*
X69999500Y-60506903D01*
X69999500Y-61891691D01*
X69979815Y-61958730D01*
X69963181Y-61979372D01*
X69523184Y-62419368D01*
X69510610Y-62429443D01*
X69510765Y-62429630D01*
X69504758Y-62434599D01*
X69456833Y-62485633D01*
X69454127Y-62488425D01*
X69433790Y-62508763D01*
X69433777Y-62508778D01*
X69431073Y-62512263D01*
X69423506Y-62521122D01*
X69392252Y-62554407D01*
X69382022Y-62573013D01*
X69371346Y-62589264D01*
X69358340Y-62606032D01*
X69358336Y-62606038D01*
X69340208Y-62647930D01*
X69335069Y-62658419D01*
X69313072Y-62698430D01*
X69313072Y-62698431D01*
X69307791Y-62718999D01*
X69301491Y-62737401D01*
X69293064Y-62756873D01*
X69285923Y-62801962D01*
X69283554Y-62813400D01*
X69272200Y-62857617D01*
X69272200Y-62878844D01*
X69270673Y-62898244D01*
X69267353Y-62919203D01*
X69271650Y-62964658D01*
X69272200Y-62976328D01*
X69272200Y-63602892D01*
X69252515Y-63669931D01*
X69199711Y-63715686D01*
X69130553Y-63725630D01*
X69066997Y-63696605D01*
X69060519Y-63690573D01*
X64572334Y-59202388D01*
X64562261Y-59189814D01*
X64562074Y-59189970D01*
X64557098Y-59183954D01*
X64506067Y-59136034D01*
X64503269Y-59133323D01*
X64482935Y-59112989D01*
X64479448Y-59110284D01*
X64470569Y-59102700D01*
X64445590Y-59079243D01*
X64410195Y-59019002D01*
X64412989Y-58949188D01*
X64438840Y-58905310D01*
X64447052Y-58896302D01*
X64559298Y-58715019D01*
X64636321Y-58516198D01*
X64675500Y-58306610D01*
X64675500Y-58093390D01*
X64636321Y-57883802D01*
X64636318Y-57883794D01*
X64621733Y-57846144D01*
X64615870Y-57776521D01*
X64648580Y-57714781D01*
X64709476Y-57680526D01*
X64741997Y-57677437D01*
X64762314Y-57678197D01*
X64776408Y-57678725D01*
X64776408Y-57678724D01*
X64776410Y-57678725D01*
X64907587Y-57643576D01*
X64907587Y-57643575D01*
X64908896Y-57643225D01*
X64940990Y-57639000D01*
X68525500Y-57639000D01*
X68592539Y-57658685D01*
X68638294Y-57711489D01*
X68649500Y-57763000D01*
X68649500Y-58049269D01*
X68652353Y-58079699D01*
X68652353Y-58079701D01*
X68697206Y-58207880D01*
X68697207Y-58207882D01*
X68777850Y-58317150D01*
X68887118Y-58397793D01*
X68929845Y-58412744D01*
X69015299Y-58442646D01*
X69045730Y-58445500D01*
X69045734Y-58445500D01*
X70804270Y-58445500D01*
X70834699Y-58442646D01*
X70834701Y-58442646D01*
X70898790Y-58420219D01*
X70962882Y-58397793D01*
X71072150Y-58317150D01*
X71152793Y-58207882D01*
X71175219Y-58143790D01*
X71197646Y-58079701D01*
X71197646Y-58079699D01*
X71200500Y-58049269D01*
X71200500Y-57640730D01*
X71197646Y-57610300D01*
X71197646Y-57610298D01*
X71152793Y-57482119D01*
X71152792Y-57482117D01*
X71072150Y-57372850D01*
X70986677Y-57309768D01*
X70944428Y-57254123D01*
X70938969Y-57184467D01*
X70972036Y-57122917D01*
X70986670Y-57110236D01*
X71072150Y-57047150D01*
X71152793Y-56937882D01*
X71177297Y-56867854D01*
X71197646Y-56809701D01*
X71197646Y-56809699D01*
X71200500Y-56779269D01*
X71200500Y-56370730D01*
X71197646Y-56340300D01*
X71197646Y-56340298D01*
X71164006Y-56244163D01*
X71152793Y-56212118D01*
X71072150Y-56102850D01*
X70986677Y-56039768D01*
X70944428Y-55984123D01*
X70938969Y-55914467D01*
X70972036Y-55852917D01*
X70986670Y-55840236D01*
X71072150Y-55777150D01*
X71152793Y-55667882D01*
X71184191Y-55578151D01*
X71197646Y-55539701D01*
X71197646Y-55539699D01*
X71200500Y-55509269D01*
X71200500Y-55100730D01*
X71197646Y-55070300D01*
X71197646Y-55070298D01*
X71152793Y-54942119D01*
X71152792Y-54942117D01*
X71072150Y-54832850D01*
X70986677Y-54769768D01*
X70944428Y-54714123D01*
X70938969Y-54644467D01*
X70972036Y-54582917D01*
X70986670Y-54570236D01*
X71072150Y-54507150D01*
X71152793Y-54397882D01*
X71176289Y-54330734D01*
X71197646Y-54269701D01*
X71197646Y-54269699D01*
X71200500Y-54239269D01*
X71200500Y-53830730D01*
X71197646Y-53800300D01*
X71197646Y-53800298D01*
X71152793Y-53672119D01*
X71152792Y-53672117D01*
X71149680Y-53667901D01*
X71072150Y-53562850D01*
X70986677Y-53499768D01*
X70944428Y-53444123D01*
X70938969Y-53374467D01*
X70972036Y-53312917D01*
X70986670Y-53300236D01*
X71072150Y-53237150D01*
X71152793Y-53127882D01*
X71176395Y-53060432D01*
X71197646Y-52999701D01*
X71197646Y-52999699D01*
X71200500Y-52969269D01*
X71200500Y-52560730D01*
X71197646Y-52530300D01*
X71197646Y-52530298D01*
X71152793Y-52402119D01*
X71152792Y-52402117D01*
X71137941Y-52381995D01*
X71072150Y-52292850D01*
X70986677Y-52229768D01*
X70944428Y-52174123D01*
X70938969Y-52104467D01*
X70972036Y-52042917D01*
X70986670Y-52030236D01*
X71072150Y-51967150D01*
X71152793Y-51857882D01*
X71181290Y-51776442D01*
X71192292Y-51745000D01*
X73506838Y-51745000D01*
X73510613Y-51776442D01*
X73566079Y-51917095D01*
X73657439Y-52037570D01*
X73662188Y-52042319D01*
X73695673Y-52103642D01*
X73690689Y-52173334D01*
X73662188Y-52217681D01*
X73657439Y-52222429D01*
X73566079Y-52342904D01*
X73510613Y-52483557D01*
X73506838Y-52515000D01*
X74625000Y-52515000D01*
X74625000Y-51745000D01*
X73506838Y-51745000D01*
X71192292Y-51745000D01*
X71197646Y-51729701D01*
X71197646Y-51729699D01*
X71200500Y-51699269D01*
X71200500Y-51290730D01*
X71197646Y-51260300D01*
X71197646Y-51260298D01*
X71156745Y-51143412D01*
X71152793Y-51132118D01*
X71072150Y-51022850D01*
X70986677Y-50959768D01*
X70944428Y-50904123D01*
X70938969Y-50834467D01*
X70972036Y-50772917D01*
X70986670Y-50760236D01*
X71072150Y-50697150D01*
X71152793Y-50587882D01*
X71181290Y-50506442D01*
X71192292Y-50475000D01*
X73506838Y-50475000D01*
X73510613Y-50506442D01*
X73566079Y-50647095D01*
X73657439Y-50767570D01*
X73662188Y-50772319D01*
X73695673Y-50833642D01*
X73690689Y-50903334D01*
X73662188Y-50947681D01*
X73657439Y-50952429D01*
X73566079Y-51072904D01*
X73510613Y-51213557D01*
X73506838Y-51245000D01*
X74625000Y-51245000D01*
X74625000Y-50475000D01*
X75125000Y-50475000D01*
X75125000Y-51245000D01*
X76243161Y-51245000D01*
X76239386Y-51213557D01*
X76183920Y-51072904D01*
X76092560Y-50952429D01*
X76087812Y-50947681D01*
X76054327Y-50886358D01*
X76059311Y-50816666D01*
X76087812Y-50772319D01*
X76092560Y-50767570D01*
X76183920Y-50647095D01*
X76239386Y-50506442D01*
X76243162Y-50475000D01*
X75125000Y-50475000D01*
X74625000Y-50475000D01*
X73506838Y-50475000D01*
X71192292Y-50475000D01*
X71197646Y-50459701D01*
X71197646Y-50459699D01*
X71200500Y-50429269D01*
X71200500Y-50020730D01*
X71197646Y-49990300D01*
X71197646Y-49990298D01*
X71152793Y-49862119D01*
X71152792Y-49862117D01*
X71106270Y-49799082D01*
X71072150Y-49752850D01*
X70986677Y-49689768D01*
X70944428Y-49634123D01*
X70938969Y-49564467D01*
X70972036Y-49502917D01*
X70986670Y-49490236D01*
X71072150Y-49427150D01*
X71152793Y-49317882D01*
X71181290Y-49236442D01*
X71192292Y-49205000D01*
X73506838Y-49205000D01*
X73510613Y-49236442D01*
X73566079Y-49377095D01*
X73657439Y-49497570D01*
X73662188Y-49502319D01*
X73695673Y-49563642D01*
X73690689Y-49633334D01*
X73662188Y-49677681D01*
X73657439Y-49682429D01*
X73566079Y-49802904D01*
X73510613Y-49943557D01*
X73506838Y-49975000D01*
X74625000Y-49975000D01*
X74625000Y-49205000D01*
X75125000Y-49205000D01*
X75125000Y-49975000D01*
X76243161Y-49975000D01*
X76239386Y-49943557D01*
X76183920Y-49802904D01*
X76092560Y-49682429D01*
X76087812Y-49677681D01*
X76054327Y-49616358D01*
X76059311Y-49546666D01*
X76087812Y-49502319D01*
X76092560Y-49497570D01*
X76183920Y-49377095D01*
X76239386Y-49236442D01*
X76243162Y-49205000D01*
X75125000Y-49205000D01*
X74625000Y-49205000D01*
X73506838Y-49205000D01*
X71192292Y-49205000D01*
X71197646Y-49189701D01*
X71197646Y-49189699D01*
X71200500Y-49159269D01*
X71200500Y-48750730D01*
X71197646Y-48720300D01*
X71197646Y-48720298D01*
X71192293Y-48705000D01*
X73506838Y-48705000D01*
X74625000Y-48705000D01*
X74625000Y-48255000D01*
X75125000Y-48255000D01*
X75125000Y-48705000D01*
X76243161Y-48705000D01*
X76239386Y-48673557D01*
X76183920Y-48532904D01*
X76092564Y-48412435D01*
X75972095Y-48321079D01*
X75831443Y-48265613D01*
X75743054Y-48255000D01*
X75125000Y-48255000D01*
X74625000Y-48255000D01*
X74006946Y-48255000D01*
X73918556Y-48265613D01*
X73777904Y-48321079D01*
X73657435Y-48412435D01*
X73566079Y-48532904D01*
X73510613Y-48673557D01*
X73506838Y-48705000D01*
X71192293Y-48705000D01*
X71156356Y-48602300D01*
X71152793Y-48592118D01*
X71072150Y-48482850D01*
X70962882Y-48402207D01*
X70962880Y-48402206D01*
X70834700Y-48357353D01*
X70804270Y-48354500D01*
X70804266Y-48354500D01*
X70699500Y-48354500D01*
X70632461Y-48334815D01*
X70586706Y-48282011D01*
X70575500Y-48230500D01*
X70575500Y-47418555D01*
X70595185Y-47351516D01*
X70624575Y-47319751D01*
X70692922Y-47267922D01*
X70784361Y-47147342D01*
X70790920Y-47130710D01*
X70834237Y-47020864D01*
X70877141Y-46965724D01*
X70943048Y-46942530D01*
X71011033Y-46958650D01*
X71059510Y-47008967D01*
X71068666Y-47031762D01*
X71098715Y-47135193D01*
X71098717Y-47135196D01*
X71182314Y-47276552D01*
X71182321Y-47276561D01*
X71298438Y-47392678D01*
X71298447Y-47392685D01*
X71439803Y-47476282D01*
X71439806Y-47476283D01*
X71597504Y-47522099D01*
X71597510Y-47522100D01*
X71634350Y-47524999D01*
X71634366Y-47525000D01*
X71700000Y-47525000D01*
X71700000Y-46650000D01*
X72200000Y-46650000D01*
X72200000Y-47525000D01*
X72265634Y-47525000D01*
X72265649Y-47524999D01*
X72302489Y-47522100D01*
X72302495Y-47522099D01*
X72460193Y-47476283D01*
X72460196Y-47476282D01*
X72601552Y-47392685D01*
X72601561Y-47392678D01*
X72717678Y-47276561D01*
X72717685Y-47276552D01*
X72801282Y-47135196D01*
X72801283Y-47135193D01*
X72847099Y-46977495D01*
X72847100Y-46977489D01*
X72849999Y-46940649D01*
X72850000Y-46940634D01*
X72850000Y-46650000D01*
X72200000Y-46650000D01*
X71700000Y-46650000D01*
X71700000Y-45275000D01*
X72200000Y-45275000D01*
X72200000Y-46150000D01*
X72850000Y-46150000D01*
X72850000Y-45859365D01*
X72849999Y-45859350D01*
X72847100Y-45822510D01*
X72847099Y-45822504D01*
X72801283Y-45664806D01*
X72801282Y-45664803D01*
X72717685Y-45523447D01*
X72717678Y-45523438D01*
X72601561Y-45407321D01*
X72601552Y-45407314D01*
X72460196Y-45323717D01*
X72460193Y-45323716D01*
X72302495Y-45277900D01*
X72302489Y-45277899D01*
X72265649Y-45275000D01*
X72200000Y-45275000D01*
X71700000Y-45275000D01*
X71634350Y-45275000D01*
X71597510Y-45277899D01*
X71597504Y-45277900D01*
X71439806Y-45323716D01*
X71439803Y-45323717D01*
X71298447Y-45407314D01*
X71298438Y-45407321D01*
X71182321Y-45523438D01*
X71182314Y-45523447D01*
X71098717Y-45664803D01*
X71098716Y-45664804D01*
X71068666Y-45768238D01*
X71031059Y-45827123D01*
X70967587Y-45856329D01*
X70898400Y-45846583D01*
X70845466Y-45800978D01*
X70834238Y-45779137D01*
X70789151Y-45664804D01*
X70784361Y-45652657D01*
X70692922Y-45532077D01*
X70572343Y-45440639D01*
X70431561Y-45385122D01*
X70385926Y-45379642D01*
X70343102Y-45374500D01*
X69756898Y-45374500D01*
X69717853Y-45379188D01*
X69668438Y-45385122D01*
X69527656Y-45440639D01*
X69407077Y-45532077D01*
X69315639Y-45652656D01*
X69260122Y-45793438D01*
X69255961Y-45828096D01*
X69249500Y-45881898D01*
X69249500Y-46918102D01*
X69253154Y-46948528D01*
X69260122Y-47006563D01*
X69265854Y-47021096D01*
X69274500Y-47066587D01*
X69274500Y-47228393D01*
X69254815Y-47295432D01*
X69202011Y-47341187D01*
X69132853Y-47351131D01*
X69120826Y-47348790D01*
X69098957Y-47343400D01*
X69098956Y-47343400D01*
X68928844Y-47343400D01*
X68763673Y-47384110D01*
X68613050Y-47463163D01*
X68485716Y-47575972D01*
X68389082Y-47715968D01*
X68328760Y-47875025D01*
X68328759Y-47875030D01*
X68308255Y-48043900D01*
X68328759Y-48212769D01*
X68328760Y-48212774D01*
X68389082Y-48371831D01*
X68435805Y-48439520D01*
X68483204Y-48508189D01*
X68485718Y-48511830D01*
X68610514Y-48622390D01*
X68647641Y-48681579D01*
X68651746Y-48726779D01*
X68651301Y-48731526D01*
X68649501Y-48750730D01*
X68649500Y-48750736D01*
X68649500Y-49159269D01*
X68652353Y-49189699D01*
X68652353Y-49189701D01*
X68692938Y-49305682D01*
X68697207Y-49317882D01*
X68777850Y-49427150D01*
X68863321Y-49490230D01*
X68905571Y-49545877D01*
X68911030Y-49615534D01*
X68877962Y-49677083D01*
X68863321Y-49689769D01*
X68842532Y-49705113D01*
X68777850Y-49752850D01*
X68697207Y-49862117D01*
X68697206Y-49862119D01*
X68652353Y-49990298D01*
X68652353Y-49990300D01*
X68649500Y-50020730D01*
X68649500Y-50429269D01*
X68652353Y-50459699D01*
X68652353Y-50459701D01*
X68686699Y-50557853D01*
X68697207Y-50587882D01*
X68777850Y-50697150D01*
X68863321Y-50760230D01*
X68905571Y-50815877D01*
X68911030Y-50885534D01*
X68877962Y-50947083D01*
X68863321Y-50959769D01*
X68854499Y-50966281D01*
X68777850Y-51022850D01*
X68697207Y-51132117D01*
X68697206Y-51132119D01*
X68652353Y-51260298D01*
X68652353Y-51260300D01*
X68649500Y-51290730D01*
X68649500Y-51699269D01*
X68652353Y-51729699D01*
X68652353Y-51729701D01*
X68693137Y-51846251D01*
X68697207Y-51857882D01*
X68777850Y-51967150D01*
X68863321Y-52030230D01*
X68905571Y-52085877D01*
X68911030Y-52155534D01*
X68877962Y-52217083D01*
X68863321Y-52229769D01*
X68777850Y-52292850D01*
X68697207Y-52402117D01*
X68697206Y-52402119D01*
X68652353Y-52530298D01*
X68652353Y-52530300D01*
X68649500Y-52560730D01*
X68649500Y-52947693D01*
X68629815Y-53014732D01*
X68577011Y-53060487D01*
X68509315Y-53070632D01*
X68445401Y-53062218D01*
X68445399Y-53062218D01*
X68288639Y-53082855D01*
X68288637Y-53082856D01*
X68142560Y-53143363D01*
X68017118Y-53239618D01*
X67920863Y-53365060D01*
X67860356Y-53511137D01*
X67860355Y-53511139D01*
X67839718Y-53667898D01*
X67839718Y-53667901D01*
X67860355Y-53824660D01*
X67860356Y-53824662D01*
X67920864Y-53970741D01*
X68017118Y-54096182D01*
X68099587Y-54159462D01*
X68140788Y-54215889D01*
X68144943Y-54285635D01*
X68110731Y-54346555D01*
X68099586Y-54356212D01*
X68058918Y-54387417D01*
X68058917Y-54387418D01*
X68014872Y-54444819D01*
X67958444Y-54486021D01*
X67888698Y-54490176D01*
X67828816Y-54457013D01*
X66276068Y-52904265D01*
X66266802Y-52893897D01*
X66264492Y-52891000D01*
X66244579Y-52866030D01*
X66244578Y-52866029D01*
X66244577Y-52866028D01*
X66219050Y-52848624D01*
X66197333Y-52833818D01*
X66193569Y-52831147D01*
X66147586Y-52797209D01*
X66139997Y-52793198D01*
X66132375Y-52789528D01*
X66077749Y-52772679D01*
X66073344Y-52771230D01*
X66019395Y-52752352D01*
X66011026Y-52750768D01*
X66002604Y-52749500D01*
X66002602Y-52749500D01*
X65945438Y-52749500D01*
X65940801Y-52749413D01*
X65938785Y-52749337D01*
X65883689Y-52747275D01*
X65874456Y-52748316D01*
X65874362Y-52747486D01*
X65859064Y-52749500D01*
X64668203Y-52749500D01*
X64601164Y-52729815D01*
X64564255Y-52688654D01*
X64562316Y-52689855D01*
X64482367Y-52560734D01*
X64447052Y-52503698D01*
X64303407Y-52346128D01*
X64299138Y-52342904D01*
X64133253Y-52217632D01*
X63942393Y-52122596D01*
X63754960Y-52069266D01*
X63695867Y-52031986D01*
X63666310Y-51968677D01*
X63675672Y-51899437D01*
X63720982Y-51846251D01*
X63754960Y-51830734D01*
X63942389Y-51777405D01*
X63942393Y-51777403D01*
X63942394Y-51777403D01*
X64133253Y-51682367D01*
X64133253Y-51682366D01*
X64133255Y-51682366D01*
X64303407Y-51553872D01*
X64447052Y-51396302D01*
X64559298Y-51215019D01*
X64636321Y-51016198D01*
X64675500Y-50806610D01*
X64675500Y-50593390D01*
X64636321Y-50383802D01*
X64559298Y-50184981D01*
X64447052Y-50003698D01*
X64303407Y-49846128D01*
X64235791Y-49795066D01*
X64133253Y-49717632D01*
X63942393Y-49622596D01*
X63848539Y-49595892D01*
X63841066Y-49593765D01*
X63781974Y-49556486D01*
X63752417Y-49493177D01*
X63761779Y-49423937D01*
X63807089Y-49370751D01*
X63873961Y-49350504D01*
X63875002Y-49350500D01*
X64168097Y-49350500D01*
X64168102Y-49350500D01*
X64256564Y-49339877D01*
X64397342Y-49284361D01*
X64517922Y-49192922D01*
X64609361Y-49072342D01*
X64664877Y-48931564D01*
X64675500Y-48843102D01*
X64675500Y-47556898D01*
X64664877Y-47468436D01*
X64609361Y-47327658D01*
X64609360Y-47327657D01*
X64609360Y-47327656D01*
X64517922Y-47207077D01*
X64397343Y-47115639D01*
X64272955Y-47066587D01*
X64256564Y-47060123D01*
X64256563Y-47060122D01*
X64256561Y-47060122D01*
X64210926Y-47054642D01*
X64168102Y-47049500D01*
X62631898Y-47049500D01*
X62592853Y-47054188D01*
X62543438Y-47060122D01*
X62402656Y-47115639D01*
X62282077Y-47207077D01*
X62190639Y-47327656D01*
X62135122Y-47468438D01*
X62130322Y-47508415D01*
X62124500Y-47556898D01*
X62124500Y-48843102D01*
X62128650Y-48877658D01*
X62135122Y-48931561D01*
X62190639Y-49072343D01*
X62282077Y-49192922D01*
X62402656Y-49284360D01*
X62402657Y-49284360D01*
X62402658Y-49284361D01*
X62543436Y-49339877D01*
X62631898Y-49350500D01*
X62631903Y-49350500D01*
X62924998Y-49350500D01*
X62992037Y-49370185D01*
X63037792Y-49422989D01*
X63047736Y-49492147D01*
X63018711Y-49555703D01*
X62959933Y-49593477D01*
X62958952Y-49593760D01*
X62951461Y-49595892D01*
X62857607Y-49622596D01*
X62857605Y-49622596D01*
X62666746Y-49717632D01*
X62496593Y-49846127D01*
X62352947Y-50003699D01*
X62240702Y-50184980D01*
X62240701Y-50184982D01*
X62181826Y-50336958D01*
X62163679Y-50383802D01*
X62124500Y-50593390D01*
X62124500Y-50806610D01*
X62163679Y-51016198D01*
X62175957Y-51047892D01*
X62240135Y-51213557D01*
X62240702Y-51215019D01*
X62352948Y-51396302D01*
X62496593Y-51553872D01*
X62666746Y-51682367D01*
X62857606Y-51777403D01*
X62857608Y-51777403D01*
X62857611Y-51777405D01*
X62991971Y-51815634D01*
X63045039Y-51830734D01*
X63104132Y-51868014D01*
X63133689Y-51931324D01*
X63124327Y-52000563D01*
X63079017Y-52053749D01*
X63045039Y-52069266D01*
X62857607Y-52122596D01*
X62857605Y-52122596D01*
X62666746Y-52217632D01*
X62496593Y-52346127D01*
X62352947Y-52503699D01*
X62240702Y-52684980D01*
X62240701Y-52684982D01*
X62170564Y-52866030D01*
X62163679Y-52883802D01*
X62124500Y-53093390D01*
X62124500Y-53306610D01*
X62163679Y-53516198D01*
X62163680Y-53516200D01*
X62224082Y-53672119D01*
X62240702Y-53715019D01*
X62352948Y-53896302D01*
X62420807Y-53970739D01*
X62496593Y-54053872D01*
X62666746Y-54182367D01*
X62857606Y-54277403D01*
X62857608Y-54277403D01*
X62857611Y-54277405D01*
X62991971Y-54315634D01*
X63045039Y-54330734D01*
X63104132Y-54368014D01*
X63133689Y-54431324D01*
X63124327Y-54500563D01*
X63079017Y-54553749D01*
X63045039Y-54569266D01*
X62857607Y-54622596D01*
X62857605Y-54622596D01*
X62666746Y-54717632D01*
X62496593Y-54846127D01*
X62352947Y-55003699D01*
X62240702Y-55184980D01*
X62240701Y-55184982D01*
X62163680Y-55383799D01*
X62163679Y-55383802D01*
X62124500Y-55593390D01*
X62124500Y-55806610D01*
X62163679Y-56016198D01*
X62175604Y-56046980D01*
X62239578Y-56212119D01*
X62240702Y-56215019D01*
X62352948Y-56396302D01*
X62446668Y-56499107D01*
X62496593Y-56553872D01*
X62666746Y-56682367D01*
X62857605Y-56777403D01*
X62862950Y-56779473D01*
X62862525Y-56780569D01*
X62916516Y-56814627D01*
X62946077Y-56877936D01*
X62947145Y-56887346D01*
X62949153Y-56914124D01*
X62949500Y-56923396D01*
X62949500Y-56935659D01*
X62949501Y-56935673D01*
X62951327Y-56947790D01*
X62952365Y-56957003D01*
X62954979Y-56991886D01*
X62940359Y-57060209D01*
X62891122Y-57109782D01*
X62865265Y-57120417D01*
X62857606Y-57122596D01*
X62857604Y-57122596D01*
X62666746Y-57217632D01*
X62496593Y-57346127D01*
X62352947Y-57503699D01*
X62240702Y-57684980D01*
X62240701Y-57684982D01*
X62163682Y-57883794D01*
X62163679Y-57883802D01*
X62124500Y-58093390D01*
X62124500Y-58306610D01*
X60300500Y-58306610D01*
X60300500Y-42607763D01*
X73385787Y-42607763D01*
X73415413Y-42877013D01*
X73415415Y-42877024D01*
X73483926Y-43139082D01*
X73483928Y-43139088D01*
X73589870Y-43388390D01*
X73724493Y-43608977D01*
X73730979Y-43619605D01*
X73730986Y-43619615D01*
X73904253Y-43827819D01*
X73904259Y-43827824D01*
X74009240Y-43921887D01*
X74105998Y-44008582D01*
X74331910Y-44158044D01*
X74577176Y-44273020D01*
X74577183Y-44273022D01*
X74577185Y-44273023D01*
X74836557Y-44351057D01*
X74836564Y-44351058D01*
X74836569Y-44351060D01*
X75104561Y-44390500D01*
X75104566Y-44390500D01*
X75307629Y-44390500D01*
X75307631Y-44390500D01*
X75307636Y-44390499D01*
X75307648Y-44390499D01*
X75345191Y-44387750D01*
X75510156Y-44375677D01*
X75622758Y-44350593D01*
X75774546Y-44316782D01*
X75774548Y-44316781D01*
X75774553Y-44316780D01*
X76027558Y-44220014D01*
X76263777Y-44087441D01*
X76478177Y-43921888D01*
X76666186Y-43726881D01*
X76823799Y-43506579D01*
X76916853Y-43325588D01*
X76947649Y-43265690D01*
X76947651Y-43265684D01*
X76947656Y-43265675D01*
X77035118Y-43009305D01*
X77084319Y-42742933D01*
X77094212Y-42472235D01*
X77064586Y-42202982D01*
X76996072Y-41940912D01*
X76890130Y-41691610D01*
X76749018Y-41460390D01*
X76730213Y-41437793D01*
X76575746Y-41252180D01*
X76575740Y-41252175D01*
X76374002Y-41071418D01*
X76148092Y-40921957D01*
X76148090Y-40921956D01*
X75902824Y-40806980D01*
X75902819Y-40806978D01*
X75902814Y-40806976D01*
X75643442Y-40728942D01*
X75643428Y-40728939D01*
X75527791Y-40711921D01*
X75375439Y-40689500D01*
X75172369Y-40689500D01*
X75172351Y-40689500D01*
X74969844Y-40704323D01*
X74969831Y-40704325D01*
X74705453Y-40763217D01*
X74705446Y-40763220D01*
X74452439Y-40859987D01*
X74216226Y-40992557D01*
X74216224Y-40992558D01*
X74216223Y-40992559D01*
X74193803Y-41009871D01*
X74001822Y-41158112D01*
X73813822Y-41353109D01*
X73813816Y-41353116D01*
X73656202Y-41573419D01*
X73656199Y-41573424D01*
X73532350Y-41814309D01*
X73532343Y-41814327D01*
X73444884Y-42070685D01*
X73444881Y-42070699D01*
X73395681Y-42337068D01*
X73395680Y-42337075D01*
X73385787Y-42607763D01*
X60300500Y-42607763D01*
X60300500Y-40424500D01*
X60320185Y-40357461D01*
X60372989Y-40311706D01*
X60424500Y-40300500D01*
X124344167Y-40300500D01*
X124411206Y-40320185D01*
G37*
%TD.AperFunction*%
%TD*%
M02*
